<?xml version="1.0" standalone="no"?>
<!DOCTYPE svg PUBLIC "-//W3C//DTD SVG 20010904//EN"
 "http://www.w3.org/TR/2001/REC-SVG-20010904/DTD/svg10.dtd">
<svg version="1.0" xmlns="http://www.w3.org/2000/svg"
 width="896.000000pt" height="896.000000pt" viewBox="0 0 896.000000 896.000000"
 preserveAspectRatio="xMidYMid meet">
<metadata>
Created by potrace 1.11, written by Peter Selinger 2001-2013
</metadata>
<g transform="translate(0.000000,896.000000) scale(0.100000,-0.100000)"
fill="#000000" stroke="none">
<path d="M5450 8094 c-800 -459 -1465 -841 -1476 -849 -21 -14 -33 -57 -49
-188 -4 -27 -12 -50 -18 -51 -7 -2 -77 -15 -157 -29 -1299 -233 -2388 -1232
-2740 -2516 -92 -335 -124 -576 -124 -941 0 -293 10 -407 59 -666 266 -1403
1386 -2523 2789 -2789 259 -49 373 -59 666 -59 293 0 407 10 666 59 1192 226
2201 1077 2629 2219 85 227 158 514 191 748 4 31 11 48 20 48 12 0 14 402 14
2679 l0 2679 -127 4 c-159 4 -190 1 -196 -20 -3 -10 -584 -342 -1368 -782
l-1364 -765 -176 -3 c-128 -3 -201 1 -268 12 -134 23 -157 35 -171 88 -7 24
-8 48 -4 55 5 7 641 376 1414 819 773 443 1408 809 1412 812 9 9 -138 266
-154 269 -7 2 -668 -373 -1468 -833z m2150 -2412 l0 -2358 -1347 -759 -1346
-759 -226 12 c-383 21 -526 57 -629 156 -76 72 -118 184 -124 331 -1 39 -1
1092 0 2340 3 1821 6 2261 16 2224 25 -94 105 -193 193 -238 114 -58 331 -86
606 -78 197 5 199 5 260 36 34 17 629 350 1322 740 693 390 1263 710 1268 710
4 1 7 -1060 7 -2357z"/>
</g>
</svg>
