<?xml version="1.0" standalone="no"?>
<!DOCTYPE svg PUBLIC "-//W3C//DTD SVG 1.1//EN" "http://www.w3.org/Graphics/SVG/1.1/DTD/svg11.dtd" >
<svg>
<metadata>
Created by FontForge 20090914 at Thu Mar 22 14:20:11 2018
 By www-data
Copyright &#194;&#169; 2015 by Wei Huang. All rights reserved.
</metadata>
<defs>
<font id="WorkSans-SemiBold" horiz-adv-x="604" >
  <font-face 
    font-family="Work Sans SemiBold"
    font-weight="600"
    font-stretch="normal"
    units-per-em="1000"
    panose-1="0 0 7 0 0 0 0 0 0 0"
    ascent="800"
    descent="-200"
    x-height="500"
    cap-height="660"
    bbox="-340 -338.997 1281 924"
    underline-thickness="50"
    underline-position="-50"
    unicode-range="U+0020-U+FB02"
  />
<missing-glyph horiz-adv-x="500" 
d="M50 660h400v-660h-400v660zM370 80v500h-240v-500h240z" />
    <glyph glyph-name="fi" unicode="fi" horiz-adv-x="689" 
d="M239 500h158v-102h-152v-398h-137v398h-87v102h87v60c0 54.667 17 96.5 51 125.5s80 43.5 138 43.5c22 0 42.167 -2.33301 60.5 -7s32.833 -11 43.5 -19l-19 -91c-15.333 10 -34.333 15 -57 15c-57.333 0 -86 -25.667 -86 -77v-50zM463 645c0 49.333 28.333 74 85 74
s85 -24.667 85 -74c0 -48.667 -28.333 -73 -85 -73s-85 24.333 -85 73zM616 0h-137v500h137v-500z" />
    <glyph glyph-name="fl" unicode="fl" horiz-adv-x="726" 
d="M239 500h158v-102h-152v-398h-137v398h-87v102h87v60c0 54.667 17 96.5 51 125.5s80 43.5 138 43.5c22 0 42.167 -2.33301 60.5 -7s32.833 -11 43.5 -19l-19 -91c-15.333 10 -34.333 15 -57 15c-57.333 0 -86 -25.667 -86 -77v-50zM614 159
c0 -24 3.50195 -40.666 10.502 -49.999s19.833 -14 38.5 -14c11.333 0 21.166 0.833008 29.499 2.5s18.166 4.5 29.499 8.5l-12 -95c-10.667 -6.66699 -24.667 -11.834 -42 -15.501s-34.333 -5.5 -51 -5.5c-48.667 0 -84.167 11.833 -106.5 35.5s-33.5 61.5 -33.5 113.5v580
h137v-560z" />
    <glyph glyph-name="f_t.liga" unicode="ft" horiz-adv-x="780" 
d="M766 31c-16 -12.667 -36.001 -22.668 -60.001 -30.001s-49.333 -11 -76 -11c-111.333 0 -167.333 50.333 -168 151v257h-217v-398h-137v398h-87v102h87v60c0 54.667 16.667 96.667 50 126s77.666 44 132.999 44c20.667 0 39.334 -2.33301 56.001 -7
s30.334 -11 41.001 -19l-15 -91c-15.333 9.33301 -33.333 14 -54 14c-53.333 0 -80 -25.667 -80 -77v-50h223v115l137 38v-153h163v-102h-163v-235c0 -23.333 6.16699 -40.666 18.5 -51.999s29.5 -17 51.5 -17c28.667 0 54 9.33301 76 28z" />
    <glyph glyph-name="g_j.liga" unicode="gj" horiz-adv-x="849" 
d="M646 591c-14.667 12.667 -22 30.667 -22 54s7.33301 41.5 22 54.5s35.667 19.5 63 19.5s48.333 -6.5 63 -19.5s22 -31.167 22 -54.5s-7.33301 -41.333 -22 -54s-35.667 -19 -63 -19s-48.333 6.33301 -63 19zM529 522c-24 0 -43.666 -4.66699 -58.999 -14
s-25.666 -22 -30.999 -38c43.333 -29.333 65 -72.666 65 -129.999c0 -53.333 -19.5 -94.833 -58.5 -124.5s-94.833 -44.5 -167.5 -44.5c-32.667 0 -62 3 -88 9c-30.667 -6.66699 -46 -21 -46 -43c0 -28.667 25.667 -43 77 -43h133c56 0 99.167 -12 129.5 -36
s45.5 -58.333 45.5 -103c0 -53.333 -23.5 -95 -70.5 -125s-109.5 -45 -187.5 -45c-80 0 -141 11 -183 33s-63 52 -63 90c0 23.333 7 43.833 21 61.5s35 30.5 63 38.5c-20 10 -36 23.167 -48 39.5s-18 35.5 -18 57.5c0 23.333 7.16699 43.833 21.5 61.5
s33.833 30.834 58.5 39.501c-24.667 14 -43.5 32.333 -56.5 55s-19.5 49 -19.5 79c0 53.333 20.333 95 61 125s97.334 45 170.001 45c37.333 0 71.666 -4.33301 102.999 -13c6 37.333 22.167 67.666 48.5 90.999s60.166 33.666 101.499 30.999l18 -98
c-4.66699 0.666992 -11.334 1 -20.001 1zM641.001 500h136.998v-540c0 -64 -15.667 -109.167 -47 -135.5s-71.666 -39.5 -120.999 -39.5c-29.333 0 -54.666 4.33301 -75.999 13l20 105c12 -7.33301 26.333 -11 43 -11c15.333 0 26.5 5.83301 33.5 17.5
s10.5 31.167 10.5 58.5v532zM344.999 280c16.667 14.667 25 35 25 61c0 25.333 -8.33301 45.333 -25 60s-39.667 22 -69 22c-30 0 -53.333 -7.33301 -70 -22s-25 -34.667 -25 -60c0 -26 8.33301 -46.333 25 -61s40 -22 70 -22c29.333 0 52.333 7.33301 69 22zM220.999 -17
c-58.667 0 -88 -15.667 -88 -47c0 -18 12.167 -32 36.5 -42s60.5 -15 108.5 -15c44.667 0 79.167 5.83301 103.5 17.5s36.5 26.5 36.5 44.5c0 14 -6 24.5 -18 31.5s-32.333 10.5 -61 10.5h-118z" />
    <glyph glyph-name="j_j.liga" unicode="jj" horiz-adv-x="562" 
d="M204 699.5c14.667 -13 22 -31.167 22 -54.5s-7.33301 -41.333 -22 -54s-35.667 -19 -63 -19s-48.333 6.33301 -63 19s-22 30.667 -22 54s7.33301 41.5 22 54.5s35.667 19.5 63 19.5s48.333 -6.5 63 -19.5zM485.5 700c14.333 -12.667 21.5 -31 21.5 -55
c0 -23.333 -7.16699 -41.333 -21.5 -54s-35.5 -19 -63.5 -19c-27.333 0 -48.333 6.33301 -63 19s-22 30.667 -22 54s7.33301 41.5 22 54.5s35.667 19.5 63 19.5c28 0 49.167 -6.33301 63.5 -19zM209 -37c0 -62 -16.001 -107.167 -48.001 -135.5s-75.333 -42.5 -130 -42.5
c-48 0 -88 10.667 -120 32l22 98c18 -16 41.333 -24 70 -24c22.667 0 39.834 6.66699 51.501 20s17.5 35 17.5 65v524h137v-537zM490.999 -40c0 -64 -17.332 -109.167 -51.999 -135.5s-77.334 -39.5 -128.001 -39.5c-36 0 -68 8.66699 -96 26l21 104
c18 -15.333 38.667 -23 62 -23c37.333 0 56 25.333 56 76v532h137v-540z" />
    <glyph glyph-name="t_t.liga" unicode="tt" horiz-adv-x="799" 
d="M786 31c-16.667 -12.667 -37 -22.668 -61 -30.001s-49.333 -11 -76 -11c-111.333 0 -167.333 50.333 -168 151v257h-233v-235c0 -24 5.16699 -41.5 15.5 -52.5s26.166 -16.5 47.499 -16.5c15.333 0 28.833 2.33301 40.5 7s22.834 12 33.501 22l22 -92
c-15.333 -12.667 -34.833 -22.667 -58.5 -30s-48.5 -11 -74.5 -11c-50.667 0 -90.5 12 -119.5 36s-43.5 62.333 -43.5 115v257h-91v102h91v115l137 38v-153h233v115l137 38v-153h163v-102h-163v-235c0 -23.333 6.16699 -40.666 18.5 -51.999s29.5 -17 51.5 -17
c28.667 0 54 9.33301 76 28z" />
    <glyph glyph-name=".notdef" horiz-adv-x="500" 
d="M50 660h400v-660h-400v660zM370 80v500h-240v-500h240z" />
    <glyph glyph-name="space" unicode=" " horiz-adv-x="306" 
 />
    <glyph glyph-name="exclam" unicode="!" horiz-adv-x="291" 
d="M217 420l-17 -207h-110l-17 207v240h144v-240zM207 124c15.333 -14 23 -32.667 23 -56s-7.66699 -42 -23 -56s-36 -21 -62 -21s-46.667 7 -62 21s-23 32.667 -23 56s7.66699 42 23 56s36 21 62 21s46.667 -7 62 -21z" />
    <glyph glyph-name="quotedbl" unicode="&#x22;" horiz-adv-x="431" 
d="M351 416h-94v266h122zM164 416h-94v266h122z" />
    <glyph glyph-name="numbersign" unicode="#" horiz-adv-x="671" 
d="M513 406l-24 -149h114v-87h-128l-28 -170h-98l28 170h-143l-28 -170h-98l27 170h-111v87h126l24 149h-107v87h121l27 167h99l-27 -167h142l28 167h98l-27 -167h118v-87h-133zM415 406h-143l-24 -149h143z" />
    <glyph glyph-name="dollar" unicode="$" horiz-adv-x="629" 
d="M279 1c-59.333 4.66699 -109.165 18.8311 -149.498 42.498s-72.5 56.834 -96.5 99.501l81 76c12 -32 32.833 -58.333 62.5 -79s63.834 -34 102.501 -40v182c-44.667 8.66699 -82.5 18.834 -113.5 30.501s-56.833 29.5 -77.5 53.5s-31 56 -31 96
c0 52.667 19.667 96.834 59 132.501s93.666 56.834 162.999 63.501v94h86v-94c54 -4 98.167 -16.333 132.5 -37s65.166 -50.334 92.499 -89.001l-77 -79c-18.667 33.333 -39.5 58.333 -62.5 75s-51.5 27 -85.5 31v-186c44.667 -9.33301 82.5 -20 113.5 -32
s56.833 -30.333 77.5 -55s31 -57.334 31 -98.001c0 -52.667 -20.333 -95.5 -61 -128.5s-94.334 -52.167 -161.001 -57.5v-94h-86v93zM279.001 557.997c-31.333 -4.66699 -55.166 -14.5 -71.499 -29.5s-24.5 -34.167 -24.5 -57.5c0 -21.333 8.16699 -38 24.5 -50
s40.166 -22 71.499 -30v167zM462.001 180.997c0 22 -8.33301 39.167 -25 51.5s-40.667 22.5 -72 30.5v-163c64.667 7.33301 97 34.333 97 81z" />
    <glyph glyph-name="percent" unicode="%" horiz-adv-x="908" 
d="M338 619c32 -34 48 -79 48 -135s-16 -101 -48 -135s-74.667 -51 -128 -51c-52.667 0 -95.167 17 -127.5 51s-48.5 79 -48.5 135s16.167 101 48.5 135s74.833 51 127.5 51c53.333 0 96 -17 128 -51zM622 660h110l-445 -660h-110zM158 551c-12 -16 -18 -38.333 -18 -67
s6 -50.834 18 -66.501s29.333 -23.5 52 -23.5s40 7.83301 52 23.5s18 37.834 18 66.501s-6 51 -18 67s-29.333 24 -52 24s-40 -8 -52 -24zM825.5 311c32.333 -34 48.5 -79 48.5 -135s-16.167 -101 -48.5 -135s-74.833 -51 -127.5 -51c-53.333 0 -96 17 -128 51
s-48 79 -48 135s16 101 48 135s74.667 51 128 51c52.667 0 95.167 -17 127.5 -51zM646 242.5c-12 -15.667 -18 -37.834 -18 -66.501s6 -51 18 -67s29.333 -24 52 -24s40 8 52 24s18 38.333 18 67s-6 50.834 -18 66.501s-29.333 23.5 -52 23.5s-40 -7.83301 -52 -23.5z" />
    <glyph glyph-name="ampersand" unicode="&#x26;" horiz-adv-x="638" 
d="M620 -10c-34 0 -62.999 4.33691 -86.999 13.0039s-51.333 26.667 -82 54c-24 -21.333 -52.333 -37.833 -85 -49.5s-68.667 -17.5 -108 -17.5c-67.333 0 -121.5 16.167 -162.5 48.5s-61.5 75.833 -61.5 130.5c0 37.333 11.167 72 33.5 104s59.166 58.667 110.499 80
c-28 33.333 -47 61.333 -57 84s-15 47 -15 73c0 27.333 7 53.166 21 77.499s34.833 44.166 62.5 59.499s61.167 23 100.5 23c56 0 100.333 -13.333 133 -40s49 -63 49 -109c0 -38.667 -10.667 -72.834 -32 -102.501s-57.333 -56.167 -108 -79.5l56 -64l25 -28
c23.333 -27.333 39 -45.333 47 -54c22 43.333 31.667 94 29 152l95 -5c1.33301 -40 -3.5 -77.667 -14.5 -113s-27.5 -67 -49.5 -95c18 -16.667 34.5 -28.334 49.5 -35.001s31.5 -10 49.5 -10c8 0 14 0.333008 18 1zM243.501 555.504
c-11.667 -12.333 -17.498 -28.501 -17.498 -48.501c0 -15.333 3.66699 -30.333 11 -45s22.666 -36 45.999 -64c31.333 20 52 38.833 62 56.5s15 37.834 15 60.501c0 19.333 -6 34 -18 44s-28.667 15 -50 15c-20.667 0 -36.834 -6.16699 -48.501 -18.5zM185.503 110.503
c21.667 -17 48.832 -25.502 81.499 -25.502c44.667 0 85.334 10.667 122.001 32l-73 80l-19 21l-64 71c-31.333 -21.333 -52.5 -40.166 -63.5 -56.499s-16.5 -35.166 -16.5 -56.499c0 -26.667 10.833 -48.5 32.5 -65.5z" />
    <glyph glyph-name="quotesingle" unicode="'" horiz-adv-x="244" 
d="M164 416h-94v266h122z" />
    <glyph glyph-name="parenleft" unicode="(" horiz-adv-x="376" 
d="M359 675c-60 -54.667 -102.833 -112.666 -128.5 -173.999s-38.5 -136.333 -38.5 -225c0 -89.333 12.833 -164.666 38.5 -225.999s68.5 -119.333 128.5 -174l-68 -67c-74.667 55.333 -131 122.166 -169 200.499s-57 167.166 -57 266.499s19 188 57 266
s94.333 144.667 169 200z" />
    <glyph glyph-name="parenright" unicode=")" horiz-adv-x="376" 
d="M254 542c38 -78 57 -166.668 57 -266.001s-19 -188.166 -57 -266.499s-94.333 -145.166 -169 -200.499l-68 67c60 54.667 102.833 112.667 128.5 174s38.5 136.666 38.5 225.999c0 88.667 -12.833 163.667 -38.5 225s-68.5 119.333 -128.5 174l68 67
c74.667 -55.333 131 -122 169 -200z" />
    <glyph glyph-name="asterisk" unicode="*" horiz-adv-x="582" 
d="M397 423l78 -105l-81 -59l-76 107l-27 55l-27 -55l-76 -107l-81 59l79 105l43 43l-60 9l-125 39l30 95l125 -42l54 -29l-10 61l-3 131h101l-2 -131l-10 -61l54 29l125 42l30 -95l-125 -39l-60 -9z" />
    <glyph glyph-name="plus" unicode="+" 
d="M550 270h-191v-207h-113v207h-192v104h192v206h113v-206h191v-104z" />
    <glyph glyph-name="comma" unicode="," horiz-adv-x="281" 
d="M210 120.5c16.667 -21.667 25 -49.8311 25 -84.498c0 -40.667 -10.833 -77.834 -32.5 -111.501s-53.5 -59.834 -95.5 -78.501l-63 48c29.333 11.333 54 26 74 44s33.333 38.333 40 61l-4 3c-6.66699 -6.66699 -16.334 -10 -29.001 -10c-19.333 0 -36.333 6.66699 -51 20
s-22 32.333 -22 57c0 26 8 46.5 24 61.5s37 22.5 63 22.5c30.667 0 54.334 -10.833 71.001 -32.5z" />
    <glyph glyph-name="hyphen" unicode="-" horiz-adv-x="521" 
d="M437 206h-353v118h353v-118z" />
    <glyph glyph-name="period" unicode="." horiz-adv-x="281" 
d="M204.5 131c15.667 -14.667 23.5 -34.3301 23.5 -58.9971s-7.83301 -44.334 -23.5 -59.001s-36.834 -22 -63.501 -22s-47.834 7.16699 -63.501 21.5s-23.5 34.166 -23.5 59.499s7.83301 45.166 23.5 59.499s36.834 21.5 63.501 21.5s47.834 -7.33301 63.501 -22z" />
    <glyph glyph-name="slash" unicode="/" horiz-adv-x="457" 
d="M147 -70h-127l289 789h128z" />
    <glyph glyph-name="zero" unicode="0" horiz-adv-x="636" 
d="M120.5 76c-44.333 57.333 -66.5 142 -66.5 254s22.167 196.667 66.5 254s110.166 86 197.499 86s153.166 -28.667 197.499 -86s66.5 -142 66.5 -254s-22.167 -196.667 -66.5 -254s-110.166 -86 -197.499 -86s-153.166 28.667 -197.499 86zM413 157
c20.667 37.333 31 95 31 173s-10.333 135.667 -31 173s-52.334 56 -95.001 56s-74.334 -18.667 -95.001 -56s-31 -95 -31 -173s10.333 -135.667 31 -173s52.334 -56 95.001 -56s74.334 18.667 95.001 56z" />
    <glyph glyph-name="one" unicode="1" horiz-adv-x="428" 
d="M343 660v-660h-134v492c0 10.667 0.333008 19 1 25c-24 -22 -49.833 -40.667 -77.5 -56s-55.5 -25.666 -83.5 -30.999l-18 116c30.667 3.33301 67.5 17.166 110.5 41.499s72.833 48.5 89.5 72.5h112z" />
    <glyph glyph-name="two" unicode="2" horiz-adv-x="591" 
d="M65 94c80.667 54 144.667 101.333 192 142s81.666 78.334 102.999 113.001s32 69 32 103c0 31.333 -9.5 56.666 -28.5 75.999s-45.167 29 -78.5 29c-36.667 0 -65.667 -12.667 -87 -38s-33 -61.333 -35 -108l-119 45c4.66699 66.667 29.334 119 74.001 157s103 57 175 57
c51.333 0 94.833 -9.66699 130.5 -29s62.5 -44.833 80.5 -76.5s27 -66.5 27 -104.5c0 -62 -23.333 -120.5 -70 -175.5s-121 -113.833 -223 -176.5v-1c38.667 2.66699 79 4 121 4h182v-111h-476v94z" />
    <glyph glyph-name="three" unicode="3" horiz-adv-x="589" 
d="M461.5 620c39.667 -33.333 59.5 -76.6641 59.5 -129.997c0 -32.667 -6.66699 -60.834 -20 -84.501s-29.666 -41.5 -48.999 -53.5s-37.666 -18 -54.999 -18v-3c22 0 43.5 -5.66699 64.5 -17s38.333 -28.5 52 -51.5s20.5 -50.833 20.5 -83.5
c0 -36.667 -10.5 -69.334 -31.5 -98.001s-50.167 -51 -87.5 -67s-80 -24 -128 -24c-64.667 0 -117.5 13.167 -158.5 39.5s-70.833 67.166 -89.5 122.499l125 56c7.33301 -36.667 20.833 -63.667 40.5 -81s47.5 -26 83.5 -26c34 0 61 8.5 81 25.5s30 39.833 30 68.5
c0 30.667 -9.5 52.834 -28.5 66.501s-48.833 20.5 -89.5 20.5h-33v96h28c72 0 108 30.333 108 91c0 29.333 -8.16699 51.666 -24.5 66.999s-39.5 23 -69.5 23c-30.667 0 -55.334 -8 -74.001 -24s-30.334 -39.333 -35.001 -70l-123 45c12.667 52.667 40.167 92.5 82.5 119.5
s94.166 40.5 155.499 40.5c70.667 0 125.834 -16.667 165.501 -50z" />
    <glyph glyph-name="four" unicode="4" horiz-adv-x="633" 
d="M598 155h-107v-155h-125v155h-329v73l289 432h165v-405h107v-100zM170 255h196v202l3 108h-2c-14.667 -34 -34.667 -70.333 -60 -109z" />
    <glyph glyph-name="five" unicode="5" horiz-adv-x="582" 
d="M479.5 368.5c37 -37.667 55.4961 -87.166 55.4961 -148.499c0 -74 -22.5 -130.833 -67.5 -170.5s-104.167 -59.5 -177.5 -59.5c-59.333 0 -109.166 11.167 -149.499 33.5s-73.166 57.5 -98.499 105.5l124 69c8.66699 -32.667 22.167 -57.167 40.5 -73.5
s45.833 -24.5 82.5 -24.5s65.5 9.66699 86.5 29s31.5 46.666 31.5 81.999c-0.666992 36 -10.667 63.5 -30 82.5s-47.666 28.5 -84.999 28.5c-55.333 0 -95.666 -16 -120.999 -48l-108 12l41 374h397v-111h-293l-19 -155l-3 -19h1c14.667 16 34.167 28.333 58.5 37
s51.833 13 82.5 13c64 0 114.5 -18.833 151.5 -56.5z" />
    <glyph glyph-name="six" unicode="6" horiz-adv-x="617" 
d="M474.5 635.5c37 -23 64.8301 -59.501 83.4971 -109.501l-116 -54c-17.333 56 -55.666 84 -114.999 84c-28 0 -53 -9.5 -75 -28.5s-39.167 -45.5 -51.5 -79.5s-18.5 -73 -18.5 -117v-17h3c10.667 32.667 31.334 57.334 62.001 74.001s66 25 106 25
c42 0 79.333 -8.5 112 -25.5s58.167 -41.167 76.5 -72.5s27.5 -68 27.5 -110c0 -66 -21.667 -118.333 -65 -157s-103 -58 -179 -58c-85.333 0 -151.166 29.833 -197.499 89.5s-69.5 143.167 -69.5 250.5c0 74 12 136.5 36 187.5s56.833 89.167 98.5 114.5s89.5 38 143.5 38
c55.333 0 101.5 -11.5 138.5 -34.5zM244.997 282.999c-20.667 -19.333 -31 -44.668 -31 -76.001c0 -32.667 10.333 -58.667 31 -78s48 -29 82 -29c35.333 0 62.833 9.33301 82.5 28s29.5 45 29.5 79c0 32.667 -9.83301 58.334 -29.5 77.001s-47.167 28 -82.5 28
c-34 0 -61.333 -9.66699 -82 -29z" />
    <glyph glyph-name="seven" unicode="7" horiz-adv-x="595" 
d="M564 660v-105c-80 -80 -137.333 -165 -172 -255s-52 -190 -52 -300h-138c0 208.667 74.667 391 224 547h-385v113h523z" />
    <glyph glyph-name="eight" unicode="8" horiz-adv-x="623" 
d="M482 620c42 -32 62.999 -75.999 62.999 -131.999c0 -34 -8.83301 -63.667 -26.5 -89s-42.167 -44.333 -73.5 -57v-1c39.333 -14 69.833 -35 91.5 -63s32.5 -62 32.5 -102c0 -57.333 -23.167 -102.666 -69.5 -135.999s-109.166 -50 -188.499 -50
c-78.667 0 -141.167 16.667 -187.5 50s-69.5 78.666 -69.5 135.999c0 40 10.833 74.167 32.5 102.5s52.5 49.166 92.5 62.499v1c-32 12.667 -56.833 31.667 -74.5 57s-26.5 55 -26.5 89c0 56 20.833 100 62.5 132s98.5 48 170.5 48s129 -16 171 -48zM236.999 539.001
c-18 -15.333 -26.999 -36.666 -26.999 -63.999c0 -26.667 9.16699 -47.834 27.5 -63.501s42.833 -23.5 73.5 -23.5c31.333 0 56.166 7.83301 74.499 23.5s27.5 36.834 27.5 63.501c0 27.333 -9 48.666 -27 63.999s-43 23 -75 23c-31.333 0 -56 -7.66699 -74 -23z
M401 122.501c21.333 17 32 40.5 32 70.5c0 30.667 -10.833 54.5 -32.5 71.5s-51.5 25.5 -89.5 25.5c-37.333 0 -67 -8.66699 -89 -26s-33 -41 -33 -71s11 -53.5 33 -70.5s51.667 -25.5 89 -25.5c38.667 0 68.667 8.5 90 25.5z" />
    <glyph glyph-name="nine" unicode="9" horiz-adv-x="618" 
d="M494.5 580.5c46.333 -59.667 69.501 -143.834 69.501 -252.501c0 -113.333 -23.333 -198 -70 -254s-113.334 -84 -200.001 -84c-60.667 0 -110.5 12 -149.5 36s-68.5 60.667 -88.5 110l127 54c8 -30 20.167 -52.5 36.5 -67.5s41.5 -22.5 75.5 -22.5
c50 0 86.5 19.333 109.5 58s34.5 94.334 34.5 167.001v14h-4c-8.66699 -34 -28.667 -59.333 -60 -76s-67 -25 -107 -25c-41.333 0 -78.333 8.66699 -111 26s-58.5 42 -77.5 74s-28.5 69.333 -28.5 112c0 68 21.833 121.667 65.5 161s103.834 59 180.501 59
c85.333 0 151.166 -29.833 197.499 -89.5zM212.001 529c-19.333 -18.667 -29 -45 -29 -79c0 -33.333 9.66699 -59.333 29 -78s47 -28 83 -28c34 0 61.167 9.66699 81.5 29s30.5 45 30.5 77c0 32.667 -10.167 58.667 -30.5 78s-47.5 29 -81.5 29
c-36 0 -63.667 -9.33301 -83 -28z" />
    <glyph glyph-name="colon" unicode=":" horiz-adv-x="300" 
d="M213.5 488c15.667 -14.667 23.5 -34.3301 23.5 -58.9971s-7.83301 -44.334 -23.5 -59.001s-36.834 -22 -63.501 -22s-47.834 7.16699 -63.501 21.5s-23.5 34.166 -23.5 59.499s7.83301 45.166 23.5 59.499s36.834 21.5 63.501 21.5s47.834 -7.33301 63.501 -22z
M213.5 131.004c15.667 -14.667 23.5 -34.3301 23.5 -58.9971s-7.83301 -44.334 -23.5 -59.001s-36.834 -22 -63.501 -22s-47.834 7.16699 -63.501 21.5s-23.5 34.166 -23.5 59.499s7.83301 45.166 23.5 59.499s36.834 21.5 63.501 21.5s47.834 -7.33301 63.501 -22z" />
    <glyph glyph-name="semicolon" unicode=";" horiz-adv-x="300" 
d="M89.5 369.5c-15.667 14.333 -23.5 34.166 -23.5 59.499s7.83301 45.166 23.5 59.499s36.834 21.5 63.501 21.5s47.834 -7.16699 63.501 -21.5s23.5 -34.166 23.5 -59.499s-7.83301 -45.166 -23.5 -59.499s-36.834 -21.5 -63.501 -21.5s-47.834 7.16699 -63.501 21.5z
M220 120.5c16.667 -21.667 25 -49.8301 25 -84.4971c0 -40.667 -10.833 -77.834 -32.5 -111.501s-53.5 -59.834 -95.5 -78.501l-63 48c30 11.333 55 26 75 44s33.333 38.333 40 61l-4 3c-8 -6.66699 -18 -10 -30 -10c-19.333 0 -36.333 6.66699 -51 20s-22 32.333 -22 57
c0 25.333 8.16699 45.666 24.5 60.999s37.166 23 62.499 23c30.667 0 54.334 -10.833 71.001 -32.5z" />
    <glyph glyph-name="less" unicode="&#x3c;" 
d="M551 449l-389 -151l389 -152v-132l-485 220v127l485 221v-133z" />
    <glyph glyph-name="equal" unicode="=" 
d="M540 366h-476v102h476v-102zM540 156h-476v101h476v-101z" />
    <glyph glyph-name="greater" unicode="&#x3e;" 
d="M538 361v-127l-485 -220v132l389 152l-389 151v133z" />
    <glyph glyph-name="question" unicode="?" horiz-adv-x="583" 
d="M471.5 624.5c44.333 -30.333 66.5029 -74.167 66.5029 -131.5c0 -58 -17.167 -102.167 -51.5 -132.5s-80.166 -48.5 -137.499 -54.5l-7 -94h-122l-6 151c63.333 6.66699 108.666 18.834 135.999 36.501s41 42.167 41 73.5c0 26 -8.83301 46.167 -26.5 60.5
s-43.834 21.5 -78.501 21.5s-62.834 -9.83301 -84.501 -29.5s-33.834 -47.5 -36.501 -83.5l-130 54c8.66699 53.333 34.834 95.666 78.501 126.999s104.167 47 181.5 47c73.333 0 132.166 -15.167 176.499 -45.5zM344.003 125.999c15.333 -14 23 -33 23 -57
s-7.66699 -43 -23 -57s-36.333 -21 -63 -21s-47.5 7 -62.5 21s-22.5 33 -22.5 57s7.5 43 22.5 57s35.833 21 62.5 21s47.667 -7 63 -21z" />
    <glyph glyph-name="at" unicode="@" horiz-adv-x="960" 
d="M717 610.5c60.667 -33 106.666 -79.666 137.999 -139.999s47 -130.5 47 -210.5c0 -56 -8.83301 -103.833 -26.5 -143.5s-41.667 -69.334 -72 -89.001s-64.166 -29.5 -101.499 -29.5c-34 0 -61.833 8 -83.5 24s-37.5 37.333 -47.5 64c-36 -56 -90 -84 -162 -84
c-48.667 0 -88.334 17.667 -119.001 53s-46 82 -46 140c0 57.333 10.5 106.5 31.5 147.5s49 72 84 93s73.167 31.5 114.5 31.5c36 0 64.333 -7.83301 85 -23.5s34.667 -34.834 42 -57.501l20 72h96l-42 -295c-1.33301 -13.333 -2 -22.666 -2 -27.999
c0 -20.667 4.5 -36.167 13.5 -46.5s23.5 -15.5 43.5 -15.5c30.667 0 55 16 73 48s27 78.333 27 139c0 104 -29 185.167 -87 243.5s-139.667 87.5 -245 87.5c-73.333 0 -137.333 -14.833 -192 -44.5s-97 -72.167 -127 -127.5s-45 -120.666 -45 -195.999
c0 -70.667 14.833 -131.834 44.5 -183.501s69.834 -91 120.501 -118s106.667 -40.5 168 -40.5c51.333 0 92.333 5.16699 123 15.5s58.667 24.833 84 43.5l40 -54c-34.667 -24 -70 -42.333 -106 -55s-83.667 -19 -143 -19c-80 0 -151 16.667 -213 50s-110.333 81 -145 143
s-52 134.667 -52 218c0 86 18.667 162 56 228s89.5 117.333 156.5 154s143.833 55 230.5 55c85.333 0 158.333 -16.5 219 -49.5zM397.999 331.001c-23.333 -29.333 -34.999 -69.667 -34.999 -121c0 -36 7.66699 -63.833 23 -83.5s37 -29.5 65 -29.5s52.5 8.66699 73.5 26
s33.5 42.333 37.5 75l10 69c1.33301 10.667 2 18.667 2 24c0 26 -6.83301 46.5 -20.5 61.5s-34.834 22.5 -63.501 22.5c-38 0 -68.667 -14.667 -92 -44z" />
    <glyph glyph-name="A" unicode="A" horiz-adv-x="671" 
d="M461 161h-254l-54 -161h-141l241 660h165l241 -660h-143zM427 263l-62 186l-30 100h-2l-28 -98l-64 -188h186z" />
    <glyph glyph-name="B" unicode="B" horiz-adv-x="672" 
d="M86 660l288.999 0.000976562c78.667 0 137.334 -15.5 176.001 -46.5s58 -75.5 58 -133.5c0 -36.667 -11 -68.5 -33 -95.5s-53 -43.833 -93 -50.5v-1c45.333 -6.66699 80.5 -23.834 105.5 -51.501s37.5 -61.167 37.5 -100.5c0 -57.333 -20.667 -101.833 -62 -133.5
s-101 -47.5 -179 -47.5h-299v660zM355.999 383.001c73.333 0 110 28.333 110 85s-36.667 85 -110 85h-136v-170h136zM372.999 104.001c36.667 0 64.167 7.5 82.5 22.5s27.5 36.5 27.5 64.5s-9.16699 49.333 -27.5 64s-45.833 22 -82.5 22h-153v-173h153z" />
    <glyph glyph-name="C" unicode="C" horiz-adv-x="683" 
d="M548 38.5c-49.333 -32.333 -108.335 -48.499 -177.002 -48.499c-64.667 0 -121 13.667 -169 41s-84.833 66.5 -110.5 117.5s-38.5 111.5 -38.5 181.5s12.833 130.5 38.5 181.5s62.334 90.167 110.001 117.5s103.5 41 167.5 41c68.667 0 126.834 -14.333 174.501 -43
s80.5 -71.334 98.5 -128.001l-125 -53c-10.667 39.333 -27.334 67.666 -50.001 84.999s-53.334 26 -92.001 26c-56 0 -99.833 -19.667 -131.5 -59s-47.5 -95.333 -47.5 -168s15.333 -128.667 46 -168s74 -59 130 -59c80.667 0 131.334 39 152.001 117l127 -38
c-19.333 -63.333 -53.666 -111.166 -102.999 -143.499z" />
    <glyph glyph-name="D" unicode="D" horiz-adv-x="719" 
d="M581 574c56.667 -57.333 85 -138.668 85 -244.001s-28.333 -186.666 -85 -243.999s-136.667 -86 -240 -86h-255v660h255c103.333 0 183.333 -28.667 240 -86zM475.5 166.498c31.667 37.667 47.5 92.167 47.5 163.5s-15.833 125.833 -47.5 163.5
s-78.834 56.5 -141.501 56.5h-110v-440h110c62.667 0 109.834 18.833 141.501 56.5z" />
    <glyph glyph-name="E" unicode="E" horiz-adv-x="633" 
d="M595 111v-111h-509v660h495v-111h-357v-164h281v-106h-281v-168h371z" />
    <glyph glyph-name="F" unicode="F" horiz-adv-x="612" 
d="M224 549v-167h281v-112h-281v-270h-138v660h494v-111h-356z" />
    <glyph glyph-name="G" unicode="G" horiz-adv-x="723" 
d="M658 349v-348.999h-101l-3 79c-40 -59.333 -105 -89 -195 -89c-60.667 0 -114 13.333 -160 40s-81.833 65.5 -107.5 116.5s-38.5 111.833 -38.5 182.5c0 70 13.167 130.667 39.5 182s63.666 90.666 111.999 117.999s104.833 41 169.5 41c71.333 0 129.5 -13 174.5 -39
s80.5 -67 106.5 -123l-127 -55c-10 34 -28.167 59.833 -54.5 77.5s-58.166 26.5 -95.499 26.5c-57.333 0 -102 -19.667 -134 -59s-48 -95.333 -48 -168c0 -75.333 15.667 -132.333 47 -171s77.333 -58 138 -58c46.667 0 84.667 11.167 114 33.5s44 54.833 44 97.5v15h-193
v102h312z" />
    <glyph glyph-name="H" unicode="H" horiz-adv-x="739" 
d="M653 660v-660h-138v278h-291v-278h-138v660h138v-271h291v271h138z" />
    <glyph glyph-name="I" unicode="I" horiz-adv-x="310" 
d="M224 0h-138v660h138v-660z" />
    <glyph glyph-name="J" unicode="J" horiz-adv-x="601" 
d="M525 243c0 -79.333 -22.668 -141.334 -68.001 -186.001s-109 -67 -191 -67c-76 0 -133.667 17.5 -173 52.5s-59 82.833 -59 143.5c0 18.667 2 38.334 6 59.001l135 24c-2.66699 -18.667 -4 -37.334 -4 -56.001c0 -38 8 -65.833 24 -83.5s41 -26.5 75 -26.5
c42.667 0 72.834 12.833 90.501 38.5s26.5 65.834 26.5 120.501v398h138v-417z" />
    <glyph glyph-name="K" unicode="K" horiz-adv-x="679" 
d="M318 302l-94 -107v-195h-138v660h138v-313l271 313h160l-237 -269l245 -391h-158z" />
    <glyph glyph-name="L" unicode="L" horiz-adv-x="601" 
d="M572 111v-111h-486v660h138v-549h348z" />
    <glyph glyph-name="M" unicode="M" horiz-adv-x="890" 
d="M804 0h-124v344l6 193h-2l-183 -537h-113l-182 537h-2l7 -193v-344h-125v660h200l119 -360l42 -149h2l43 148l118 361h194v-660z" />
    <glyph glyph-name="N" unicode="N" horiz-adv-x="739" 
d="M653 0h-158l-231 388l-57 111h-1l4 -117v-382h-124v660h157l231 -387l57 -112h2l-4 117v382h124v-660z" />
    <glyph glyph-name="O" unicode="O" horiz-adv-x="741" 
d="M539.5 629c47.667 -27.333 84.334 -66.5 110.001 -117.5s38.5 -111.5 38.5 -181.5s-12.833 -130.5 -38.5 -181.5s-62.334 -90.167 -110.001 -117.5s-103.834 -41 -168.501 -41s-121 13.667 -169 41s-84.833 66.5 -110.5 117.5s-38.5 111.5 -38.5 181.5
s12.833 130.5 38.5 181.5s62.5 90.167 110.5 117.5s104.333 41 169 41s120.834 -13.667 168.501 -41zM241.5 498.5c-30.333 -39 -45.5 -95.167 -45.5 -168.5s15.167 -129.5 45.5 -168.5s73.5 -58.5 129.5 -58.5c55.333 0 98.166 19.5 128.499 58.5s45.5 95.167 45.5 168.5
s-15.167 129.5 -45.5 168.5s-73.166 58.5 -128.499 58.5c-56 0 -99.167 -19.5 -129.5 -58.5z" />
    <glyph glyph-name="P" unicode="P" horiz-adv-x="646" 
d="M542 604.5c42.667 -37 64 -89.167 64 -156.5c0 -65.333 -21.333 -116.333 -64 -153s-102.334 -55 -179.001 -55h-139v-240h-138v660h277c76.667 0 136.334 -18.5 179.001 -55.5zM436 372.5c20 17 30 42.5 30 76.5s-10 59.333 -30 76s-51.333 25 -94 25h-118v-203h118
c42.667 0 74 8.5 94 25.5z" />
    <glyph glyph-name="Q" unicode="Q" horiz-adv-x="741" 
d="M598 -76c20.667 6.66699 37.665 15.999 50.998 27.999l36 -106c-17.333 -14.667 -40.5 -26.167 -69.5 -34.5s-59.833 -12.5 -92.5 -12.5c-64 0 -114 16.5 -150 49.5s-53.333 81.167 -52 144.5c-84 10 -149.667 44.667 -197 104s-71 137 -71 233
c0 70 12.833 130.5 38.5 181.5s62.5 90.167 110.5 117.5s104.333 41 169 41s120.834 -13.667 168.501 -41s84.334 -66.5 110.001 -117.5s38.5 -111.5 38.5 -181.5c0 -96.667 -24 -174.667 -72 -234s-114.333 -93.666 -199 -102.999c3.33301 -30 14.333 -50.667 33 -62
s44.667 -17 78 -17c26 0 49.333 3.33301 70 10zM241.498 161.499c30.333 -39 73.5 -58.5 129.5 -58.5c55.333 0 98.166 19.5 128.499 58.5s45.5 95.167 45.5 168.5s-15.167 129.5 -45.5 168.5s-73.166 58.5 -128.499 58.5c-56 0 -99.167 -19.5 -129.5 -58.5
s-45.5 -95.167 -45.5 -168.5s15.167 -129.5 45.5 -168.5z" />
    <glyph glyph-name="R" unicode="R" horiz-adv-x="680" 
d="M346 253l-124 0.000976562v-253h-136v660h291c75.333 0 134.166 -17.833 176.499 -53.5s63.5 -85.834 63.5 -150.501c0 -47.333 -11.667 -87 -35 -119s-56.666 -55 -99.999 -69l174 -268h-155zM222 358.001l137 -0.00195312c40 0 69.5 7.83301 88.5 23.5
s28.5 39.834 28.5 72.501s-9.5 56.834 -28.5 72.501s-48.5 23.5 -88.5 23.5h-137v-192z" />
    <glyph glyph-name="S" unicode="S" horiz-adv-x="643" 
d="M485 639.5c44 -20.333 82.668 -52.4951 116.001 -96.4951l-95 -93c-17.333 36 -40.333 62.833 -69 80.5s-65 26.5 -109 26.5c-40 0 -70.833 -7.5 -92.5 -22.5s-32.5 -34.833 -32.5 -59.5c0 -22.667 11 -40.667 33 -54s61.667 -25 119 -35
c60 -11.333 107.667 -25.333 143 -42s61.166 -37.5 77.499 -62.5s24.5 -56.167 24.5 -93.5c0 -40.667 -11.5 -75.834 -34.5 -105.501s-55 -52.5 -96 -68.5s-87.833 -24 -140.5 -24c-72.667 0 -132.167 10.167 -178.5 30.5s-83.833 51.166 -112.5 92.499l82 98
c24.667 -40.667 53 -68.834 85 -84.501s71.667 -23.5 119 -23.5c42.667 0 75.167 6.66699 97.5 20s33.5 32.333 33.5 57c0 18 -10.5 33 -31.5 45s-58.5 23.333 -112.5 34c-62 12.667 -111.5 27.667 -148.5 45s-63.833 38.666 -80.5 63.999s-25 56.666 -25 93.999
c0 39.333 10.667 74.833 32 106.5s52.5 56.5 93.5 74.5s89.167 27 144.5 27c61.333 0 114 -10.167 158 -30.5z" />
    <glyph glyph-name="T" unicode="T" horiz-adv-x="635" 
d="M608 549h-221v-549h-138v549h-222v111h581v-111z" />
    <glyph glyph-name="U" unicode="U" horiz-adv-x="715" 
d="M640 260c0 -89.333 -23.832 -156.666 -71.499 -201.999s-117.834 -68 -210.501 -68s-162.834 22.667 -210.501 68s-71.5 112.666 -71.5 201.999v400h138v-394c0 -55.333 11.833 -96.333 35.5 -123s59.834 -40 108.501 -40s84.667 13.333 108 40s35 67.667 35 123v394h139
v-400z" />
    <glyph glyph-name="V" unicode="V" horiz-adv-x="670" 
d="M416 0h-161l-241 660h146l139 -420l38 -130l37 129l140 421h142z" />
    <glyph glyph-name="W" unicode="W" horiz-adv-x="984" 
d="M370 0h-159l-192 660h149l128 -551l132 551h132l134 -551l128 551h142l-192 -660h-155l-92 360l-31 156h-2l-31 -156z" />
    <glyph glyph-name="X" unicode="X" horiz-adv-x="640" 
d="M459 0l-144 239l-141 -239h-158l227 333l-211 327h163l134 -230l134 230h149l-212 -322l224 -338h-165z" />
    <glyph glyph-name="Y" unicode="Y" horiz-adv-x="626" 
d="M382 247v-247h-138v247l-234 413h147l106 -197l50 -104l51 104l106 197h146z" />
    <glyph glyph-name="Z" unicode="Z" horiz-adv-x="633" 
d="M593 110v-110h-549v104l385 446h-377v110h529v-104l-385 -446h397z" />
    <glyph glyph-name="bracketleft" unicode="[" horiz-adv-x="375" 
d="M206 618v-685h141v-101h-261v887h261v-101h-141z" />
    <glyph glyph-name="backslash" unicode="\" horiz-adv-x="457" 
d="M148 719l289 -789h-127l-290 789h128z" />
    <glyph glyph-name="bracketright" unicode="]" horiz-adv-x="375" 
d="M290 -168h-262v101h141v685h-141v101h262v-887z" />
    <glyph glyph-name="asciicircum" unicode="^" horiz-adv-x="593" 
d="M443 355l-146 278l-147 -278h-125l212 371h119l212 -371h-125z" />
    <glyph glyph-name="underscore" unicode="_" horiz-adv-x="539" 
d="M539 -190h-539v113h539v-113z" />
    <glyph glyph-name="grave" unicode="`" horiz-adv-x="500" 
d="M308 572h-102l-100 170h132z" />
    <glyph glyph-name="a" unicode="a" horiz-adv-x="574" 
d="M563 87l-9.99902 -83c-18.667 -9.33301 -40.334 -14 -65.001 -14c-64 0 -102.333 25 -115 75c-14.667 -24.667 -37.334 -43.334 -68.001 -56.001s-67 -19 -109 -19c-48.667 0 -86.667 11 -114 33s-41 53.667 -41 95c0 81.333 65 134 195 158l120 23v24
c0 26.667 -7.5 47.834 -22.5 63.501s-35.833 23.5 -62.5 23.5c-30.667 0 -55.667 -6.66699 -75 -20s-32.666 -35 -39.999 -65l-109 46c10.667 43.333 34.667 77.333 72 102s86 37 146 37c71.333 0 127 -15.5 167 -46.5s60 -76.833 60 -137.5v-205c0 -13.333 3 -23 9 -29
s15.333 -9 28 -9c14 0 25.333 1.33301 34 4zM319.501 104.5c24.333 14.333 36.501 33.833 36.501 58.5v52l-107 -24c-22.667 -5.33301 -39.5 -12.5 -50.5 -21.5s-16.5 -21.5 -16.5 -37.5s5 -28.167 15 -36.5s24 -12.5 42 -12.5c29.333 0 56.166 7.16699 80.499 21.5z" />
    <glyph glyph-name="b" unicode="b" horiz-adv-x="629" 
d="M523 441c38 -46 57 -110 57 -192c0 -81.333 -19 -144.833 -57 -190.5s-90.333 -68.5 -157 -68.5c-39.333 0 -73.5 9.83301 -102.5 29.5s-50.833 46.167 -65.5 79.5l-5 -99h-121v719h137v-301c15.333 28.667 36.333 51.167 63 67.5s58 24.5 94 24.5
c66.667 0 119 -23 157 -69zM412 135c20.667 26.667 31 65 31 115s-10.333 88.333 -31 115s-49.667 40 -87 40c-33.333 0 -60.333 -11.667 -81 -35s-32.334 -56 -35.001 -98v-44c2.66699 -42.667 14.334 -75.5 35.001 -98.5s47.667 -34.5 81 -34.5
c37.333 0 66.333 13.333 87 40z" />
    <glyph glyph-name="c" unicode="c" horiz-adv-x="569" 
d="M455 470c36.667 -26.667 61.666 -62.333 74.999 -107l-128 -46c-12 60.667 -44.333 91 -97 91c-39.333 0 -69.5 -13.5 -90.5 -40.5s-31.5 -66.5 -31.5 -118.5s10.667 -91.167 32 -117.5s51 -39.5 89 -39.5c58.667 0 93.334 29.667 104.001 89l124 -40
c-10.667 -46 -35.5 -82.667 -74.5 -110s-89.5 -41 -151.5 -41c-82.667 0 -146.667 22.833 -192 68.5s-68 109.5 -68 191.5s22.5 145.833 67.5 191.5s107.5 68.5 187.5 68.5c66 0 117.333 -13.333 154 -40z" />
    <glyph glyph-name="d" unicode="d" horiz-adv-x="629" 
d="M556 719l-0.000976562 -719h-122l-6 93c-14.667 -31.333 -36.5 -56.333 -65.5 -75s-62.167 -28 -99.5 -28c-66.667 0 -119 22.833 -157 68.5s-57 109.167 -57 190.5c0 82 19 146 57 192s90.333 69 157 69c36 0 67.333 -8.16699 94 -24.5s47.334 -38.833 62.001 -67.5v301
h137zM387.999 134c20.667 26 31 63.001 31 111.001v10c0 47.333 -10.333 84.166 -31 110.499s-49 39.5 -85 39.5c-36.667 0 -65.334 -13.333 -86.001 -40s-31 -65 -31 -115s10.333 -88.333 31 -115s49.334 -40 86.001 -40c36 0 64.333 13 85 39z" />
    <glyph glyph-name="e" unicode="e" horiz-adv-x="582" 
d="M535 198l-354 0.000976562c14 -70.667 55.667 -106 125 -106c28.667 0 52.334 5.33301 71.001 16s31.667 26 39 46l112 -41c-16 -40 -42.833 -70.5 -80.5 -91.5s-84.834 -31.5 -141.501 -31.5c-82.667 0 -146.667 22.833 -192 68.5s-68 109.5 -68 191.5
s22 145.833 66 191.5s106 68.5 186 68.5c77.333 0 136.833 -22.333 178.5 -67s62.5 -108.334 62.5 -191.001c0 -18.667 -1.33301 -36.667 -4 -54zM217.5 380.001c-19.667 -19.333 -32.167 -48 -37.5 -86h233c-5.33301 37.333 -18 65.833 -38 85.5s-46 29.5 -78 29.5
c-33.333 0 -59.833 -9.66699 -79.5 -29z" />
    <glyph glyph-name="f" unicode="f" horiz-adv-x="407" 
d="M239 500h158v-102h-152v-398h-137v398h-87v102h87v60c0 54.667 17 96.5 51 125.5s80 43.5 138 43.5c22 0 42.167 -2.33301 60.5 -7s32.833 -11 43.5 -19l-19 -91c-15.333 10 -34.333 15 -57 15c-57.333 0 -86 -25.667 -86 -77v-50z" />
    <glyph glyph-name="g" unicode="g" horiz-adv-x="560" 
d="M502.5 58c29.667 -24 44.4971 -58.3301 44.4971 -102.997c0 -53.333 -24.667 -95 -74 -125s-114.333 -45 -195 -45c-83.333 0 -145.166 11 -185.499 33s-60.5 52 -60.5 90c0 22.667 7.66699 42.334 23 59.001s38 28.667 68 36c-22.667 9.33301 -40.667 22.5 -54 39.5
s-20 37.167 -20 60.5c0 24 7 44.667 21 62s33.333 30.333 58 39c-25.333 14.667 -44.666 33.5 -57.999 56.5s-20 49.5 -20 79.5c0 52.667 20.5 94.167 61.5 124.5s96.833 45.5 167.5 45.5c36 0 69.667 -4.33301 101 -13c8.66699 39.333 25.5 70.166 50.5 92.499
s58.833 32.166 101.5 29.499l18 -98c-4.66699 0.666992 -11.667 1 -21 1c-24.667 0 -45.167 -4.33301 -61.5 -13s-27.833 -20.334 -34.5 -35.001c24.667 -14.667 43.5 -33.334 56.5 -56.001s19.5 -48.667 19.5 -78c0 -52 -20.5 -93.167 -61.5 -123.5
s-97.167 -45.5 -168.5 -45.5c-32.667 0 -62.667 3 -90 9c-26 -6.66699 -39 -21.667 -39 -45c0 -13.333 5 -23.5 15 -30.5s24 -10.5 42 -10.5h169c54.667 0 96.834 -12 126.501 -36zM213.497 401.003c-17 -15.333 -25.5 -35.333 -25.5 -60
c0 -25.333 8.5 -45.666 25.5 -60.999s38.833 -23 65.5 -23c27.333 0 49.5 7.66699 66.5 23s25.5 35.666 25.5 60.999c0 24.667 -8.5 44.667 -25.5 60s-39.167 23 -66.5 23c-26.667 0 -48.5 -7.66699 -65.5 -23zM396.997 -103.497c25.333 11.667 38.001 26.5 38.001 44.5
c0 14 -5.83301 24.5 -17.5 31.5s-30.834 10.5 -57.501 10.5h-136c-55.333 0 -83 -15 -83 -45c0 -18.667 12.333 -33.167 37 -43.5s61.667 -15.5 111 -15.5c46.667 0 82.667 5.83301 108 17.5z" />
    <glyph glyph-name="h" unicode="h" horiz-adv-x="619" 
d="M500.5 463c33 -31.333 49.499 -76.332 49.499 -134.999v-328h-137v288c0 76 -29.667 114 -89 114c-32 0 -59.167 -11.333 -81.5 -34s-33.5 -57.334 -33.5 -104.001v-264h-137v719h137v-304c15.333 32 36.833 55.833 64.5 71.5s59.834 23.5 96.501 23.5
c54 0 97.5 -15.667 130.5 -47z" />
    <glyph glyph-name="i" unicode="i" horiz-adv-x="282" 
d="M56 645c0 49.333 28.333 74 85 74s85 -24.667 85 -74c0 -48.667 -28.333 -73 -85 -73s-85 24.333 -85 73zM209 0h-137v500h137v-500z" />
    <glyph glyph-name="j" unicode="j" horiz-adv-x="281" 
d="M204 699.5c14.667 -13 22 -31.167 22 -54.5s-7.33301 -41.333 -22 -54s-35.667 -19 -63 -19s-48.333 6.33301 -63 19s-22 30.667 -22 54s7.33301 41.5 22 54.5s35.667 19.5 63 19.5s48.333 -6.5 63 -19.5zM209 -37c0 -62 -16.001 -107.167 -48.001 -135.5
s-75.333 -42.5 -130 -42.5c-48 0 -88 10.667 -120 32l22 98c18 -16 41.333 -24 70 -24c22.667 0 39.834 6.66699 51.501 20s17.5 35 17.5 65v524h137v-537z" />
    <glyph glyph-name="k" unicode="k" horiz-adv-x="602" 
d="M300 221l-91 -97v-124h-137v719h137v-447l217 228h155l-188 -196l200 -304h-155z" />
    <glyph glyph-name="l" unicode="l" horiz-adv-x="319" 
d="M207 159c0 -24 3.50195 -40.666 10.502 -49.999s19.833 -14 38.5 -14c11.333 0 21.166 0.833008 29.499 2.5s18.166 4.5 29.499 8.5l-12 -95c-10.667 -6.66699 -24.667 -11.834 -42 -15.501s-34.333 -5.5 -51 -5.5c-48.667 0 -84.167 11.833 -106.5 35.5
s-33.5 61.5 -33.5 113.5v580h137v-560z" />
    <glyph glyph-name="m" unicode="m" horiz-adv-x="945" 
d="M825.5 463c33.667 -31.333 50.499 -76.334 50.499 -135.001v-328h-137v301c0 34.667 -7.66699 60.167 -23 76.5s-36.333 24.5 -63 24.5c-32 0 -58.333 -11.667 -79 -35s-31 -56 -31 -98v-269h-137v301c0 34.667 -7.66699 60.167 -23 76.5s-36.666 24.5 -63.999 24.5
c-30 0 -55.833 -11.5 -77.5 -34.5s-32.5 -57.167 -32.5 -102.5v-265h-137v500h123l4 -89c16.667 32.667 39.5 57.334 68.5 74.001s61.5 25 97.5 25c37.333 0 70.5 -8.66699 99.5 -26s50.167 -42.333 63.5 -75c16 32.667 39.333 57.667 70 75s64 26 100 26
c51.333 0 93.833 -15.667 127.5 -47z" />
    <glyph glyph-name="n" unicode="n" horiz-adv-x="619" 
d="M500.5 463c33 -31.333 49.5 -76.333 49.5 -135v-328h-137v288c0 76 -29.667 114 -89 114c-32 0 -59.167 -11.333 -81.5 -34s-33.5 -57.334 -33.5 -104.001v-264h-137v500h123l4 -89c16.667 32.667 39.667 57.334 69 74.001s63.333 25 102 25c54 0 97.5 -15.667 130.5 -47
z" />
    <glyph glyph-name="o" unicode="o" 
d="M490.5 441c45 -46 67.5 -109.667 67.5 -191s-22.5 -145 -67.5 -191s-107.833 -69 -188.5 -69s-143.5 23 -188.5 69s-67.5 109.667 -67.5 191s22.5 145 67.5 191s107.833 69 188.5 69s143.5 -23 188.5 -69zM213.5 368.5c-20.333 -26.333 -30.5 -65.833 -30.5 -118.5
s10.167 -92.167 30.5 -118.5s49.833 -39.5 88.5 -39.5s68.167 13.167 88.5 39.5s30.5 65.833 30.5 118.5s-10.167 92.167 -30.5 118.5s-49.833 39.5 -88.5 39.5s-68.167 -13.167 -88.5 -39.5z" />
    <glyph glyph-name="p" unicode="p" horiz-adv-x="629" 
d="M523 441.5c38 -45.667 57 -109.167 57 -190.5c0 -82 -19 -146 -57 -192s-90.333 -69 -157 -69c-36 0 -67.333 8.16699 -94 24.5s-47.667 38.833 -63 67.5v-292h-137v710h121l5 -99c14.667 33.333 36.5 59.833 65.5 79.5s63.167 29.5 102.5 29.5
c66.667 0 119 -22.833 157 -68.5zM412 135c20.667 26.667 31 65 31 115s-10.333 88.333 -31 115s-49.667 40 -87 40c-33.333 0 -60.333 -11.5 -81 -34.5s-32.334 -55.833 -35.001 -98.5v-44c2.66699 -42 14.334 -74.667 35.001 -98s47.667 -35 81 -35
c37.333 0 66.333 13.333 87 40z" />
    <glyph glyph-name="q" unicode="q" horiz-adv-x="629" 
d="M557 500v-709.998h-137v293c-14.667 -28.667 -35.5 -51.334 -62.5 -68.001s-58.167 -25 -93.5 -25c-66.667 0 -119.167 23 -157.5 69s-57.5 110 -57.5 192c0 81.333 19 144.833 57 190.5s90.333 68.5 157 68.5c38.667 0 72.667 -9.83301 102 -29.5
s51.333 -45.834 66 -78.501l6 98h120zM389 134.502c20.667 26.333 31 63.167 31 110.5v10c0 48 -10.333 85 -31 111s-49 39 -85 39c-36.667 0 -65.334 -13.167 -86.001 -39.5s-31 -64.833 -31 -115.5s10.333 -89.167 31 -115.5s49.334 -39.5 86.001 -39.5
c36 0 64.333 13.167 85 39.5z" />
    <glyph glyph-name="r" unicode="r" horiz-adv-x="422" 
d="M409 499l-16.999 -119.999c-15.333 10 -36.333 15 -63 15c-32.667 0 -60.834 -11.833 -84.501 -35.5s-35.5 -56.834 -35.5 -99.501v-259h-137v500h119l9 -98c27.333 72 79 108 155 108c23.333 0 41.333 -3.66699 54 -11z" />
    <glyph glyph-name="s" unicode="s" horiz-adv-x="531" 
d="M34 86l80.001 82c13.333 -28.667 32.5 -48.834 57.5 -60.501s55.833 -17.5 92.5 -17.5c29.333 0 52 4 68 12s24 19 24 33c0 11.333 -7.5 21 -22.5 29s-40.833 15.667 -77.5 23c-76.667 15.333 -130.5 35.5 -161.5 60.5s-46.5 58.833 -46.5 101.5
c0 28 8.66699 54.333 26 79s43 44.5 77 59.5s74.667 22.5 122 22.5c56 0 101.333 -8.5 136 -25.5s63.667 -43.833 87 -80.5l-85 -72c-14.667 26.667 -32.834 46.334 -54.501 59.001s-48.834 19 -81.501 19c-27.333 0 -49.166 -4.66699 -65.499 -14
s-24.5 -20.666 -24.5 -33.999c0 -14 8 -25.667 24 -35s44.333 -18 85 -26c72.667 -14.667 124.167 -33.834 154.5 -57.501s45.5 -56.5 45.5 -98.5c0 -46.667 -19.833 -84.167 -59.5 -112.5s-95.834 -42.5 -168.501 -42.5c-111.333 0 -188.666 32 -231.999 96z" />
    <glyph glyph-name="t" unicode="t" horiz-adv-x="429" 
d="M415 31c-16 -12.667 -36.167 -22.667 -60.5 -30s-49.833 -11 -76.5 -11c-111.333 0 -167 50.333 -167 151v257h-91v102h91v115l137 38v-153h162v-102h-162v-235c0 -46 23 -69 69 -69c29.333 0 55 9.33301 77 28z" />
    <glyph glyph-name="u" unicode="u" horiz-adv-x="619" 
d="M547 500l-0.00195312 -500h-122l-5 86c-32 -64 -90.333 -96 -175 -96c-54 0 -96.833 14.5 -128.5 43.5s-47.5 74.167 -47.5 135.5v331h137v-296c0 -38.667 7.33301 -66 22 -82s36.334 -24 65.001 -24c34.667 0 62.834 11.167 84.501 33.5s32.5 55.833 32.5 100.5v268h137
z" />
    <glyph glyph-name="v" unicode="v" horiz-adv-x="546" 
d="M542 500l-190 -500h-158l-190 500h147l123 -404l126 404h142z" />
    <glyph glyph-name="w" unicode="w" horiz-adv-x="889" 
d="M869 500l-159 -500h-159l-109 353l-105 -353h-158l-159 500h145l100 -390l112 390h135l112 -390l100 390h145z" />
    <glyph glyph-name="x" unicode="x" horiz-adv-x="569" 
d="M395 0l-113 182l-115 -182h-153l184 253l-175 247h158l107 -175l107 175h154l-177 -247l180 -253h-157z" />
    <glyph glyph-name="y" unicode="y" horiz-adv-x="557" 
d="M349 -31c-24.667 -68 -53.1689 -115.668 -85.502 -143.001s-75.5 -41 -129.5 -41s-96.333 13 -127 39l34 97c10.667 -12 22.5 -20.167 35.5 -24.5s29.167 -6.5 48.5 -6.5c20.667 0 37.334 4.33301 50.001 13s23.334 24.334 32.001 47.001l18 43l-55 130l-153 377h152
l94 -300l27 -100l30 106l92 294h139z" />
    <glyph glyph-name="z" unicode="z" horiz-adv-x="522" 
d="M44 88l221 256l57 57l-83 -2h-193v101h428v-88l-221 -255l-57 -58l92 2h195v-101h-439v88z" />
    <glyph glyph-name="braceleft" unicode="{" horiz-adv-x="395" 
d="M286 -81.5c16 -11 42 -16.5 78 -16.5l-8 -93c-74.667 0 -128 12.167 -160 36.5s-48 63.5 -48 117.5v161c0 37.333 -8.5 64 -25.5 80s-45.833 24 -86.5 24v95c40.667 0 69.5 8 86.5 24s25.5 42.667 25.5 80v162c0 53.333 16 92.166 48 116.499s85.333 36.5 160 36.5l8 -93
c-36 0 -62 -5.5 -78 -16.5s-24 -29.167 -24 -54.5v-176c0 -34 -8.83301 -61.167 -26.5 -81.5s-44.167 -35.5 -79.5 -45.5c35.333 -9.33301 61.833 -24.166 79.5 -44.499s26.5 -47.5 26.5 -81.5v-176c0 -25.333 8 -43.5 24 -54.5z" />
    <glyph glyph-name="bar" unicode="|" horiz-adv-x="292" 
d="M206 -168h-120v887h120v-887z" />
    <glyph glyph-name="braceright" unicode="}" horiz-adv-x="395" 
d="M271.5 347c17 -16 45.833 -23.999 86.5 -23.999v-95c-40.667 0 -69.5 -8 -86.5 -24s-25.5 -42.667 -25.5 -80v-161c0 -54 -15.833 -93.167 -47.5 -117.5s-85.167 -36.5 -160.5 -36.5l-8 93c36.667 0 63 5.5 79 16.5s24 29.167 24 54.5v176c0 34 8.83301 61.167 26.5 81.5
s44.167 35.5 79.5 45.5c-35.333 9.33301 -61.833 24.166 -79.5 44.499s-26.5 47.5 -26.5 81.5v176c0 25.333 -8 43.5 -24 54.5s-42.333 16.5 -79 16.5l8 93c74.667 0 128 -12 160 -36s48 -63 48 -117v-162c0 -37.333 8.5 -64 25.5 -80z" />
    <glyph glyph-name="asciitilde" unicode="~" horiz-adv-x="576" 
d="M490.5 277.5c-25 -30.333 -60.501 -45.5 -106.501 -45.5c-23.333 0 -43.166 3.5 -59.499 10.5s-34.166 17.167 -53.499 30.5c-14 9.33301 -25.5 16.166 -34.5 20.499s-18.5 6.5 -28.5 6.5c-29.333 0 -47 -21.667 -53 -65h-112c7.33301 118.667 57.333 178 150 178
c22.667 0 42.167 -3.5 58.5 -10.5s34.166 -17.167 53.499 -30.5c13.333 -9.33301 24.833 -16.166 34.5 -20.499s19.5 -6.5 29.5 -6.5c28.667 0 46 21.667 52 65h112c-3.33301 -58 -17.5 -102.167 -42.5 -132.5z" />
    <glyph glyph-name="uni00A0" unicode="&#xa0;" horiz-adv-x="306" 
 />
    <glyph glyph-name="exclamdown" unicode="&#xa1;" horiz-adv-x="286" 
d="M81 376c-15.333 14 -23 32.667 -23 56s7.66699 42 23 56s36 21 62 21s46.667 -7 62 -21s23 -32.667 23 -56s-7.66699 -42 -23 -56s-36 -21 -62 -21s-46.667 7 -62 21zM71 80l17 207h110l17 -207v-240h-144v240z" />
    <glyph glyph-name="cent" unicode="&#xa2;" horiz-adv-x="572" 
d="M476.5 38.5c-33 -26.333 -76.167 -41.8311 -129.5 -46.498v-92h-80v93c-68.667 8 -121.5 34.333 -158.5 79s-55.5 104 -55.5 178s18.667 133.5 56 178.5s90 71.5 158 79.5v92h80v-92c54 -4.66699 96.333 -19.834 127 -45.501s51 -58.834 61 -99.501l-109 -43
c-10.667 50 -37 81.333 -79 94v-329c44.667 11.333 73 42.333 85 93l105 -36c-7.33301 -42.667 -27.5 -77.167 -60.5 -103.5zM267 87.002v326c-61.333 -16 -92 -70.667 -92 -164c0 -91.333 30.667 -145.333 92 -162z" />
    <glyph glyph-name="sterling" unicode="&#xa3;" horiz-adv-x="624" 
d="M593 140c0 -44.667 -12.168 -80.834 -36.501 -108.501s-58.166 -41.5 -101.499 -41.5c-29.333 0 -55.833 5.16699 -79.5 15.5s-49.5 24.833 -77.5 43.5c-37.333 -39.333 -84.333 -59 -141 -59c-34.667 0 -62.834 8.16699 -84.501 24.5s-32.5 38.166 -32.5 65.499
s11.5 49.5 34.5 66.5s52.5 25.5 88.5 25.5c33.333 0 64 -5 92 -15v10c0 32.667 -9.33301 65 -28 97h-162v87h99c-17.333 24 -29.333 45.167 -36 63.5s-10 37.5 -10 57.5c0 36.667 9.16699 70 27.5 100s44.833 53.833 79.5 71.5s75 26.5 121 26.5c122 0 196.333 -56 223 -168
l-113 -54c-10 40.667 -23.667 70.334 -41 89.001s-41.666 28 -72.999 28s-56.333 -8.16699 -75 -24.5s-28 -38.166 -28 -65.499c0 -15.333 3.5 -31 10.5 -47s19.833 -37.667 38.5 -65l9 -12h192v-87h-147c6.66699 -22 10 -45.333 10 -70c0 -26.667 -4.66699 -53 -14 -79
c16.667 -9.33301 32.167 -16.5 46.5 -21.5s29.833 -7.5 46.5 -7.5c25.333 0 43.833 7.16699 55.5 21.5s17.167 36.833 16.5 67.5l88 -8c1.33301 -12 2 -21 2 -27zM236.999 88c-26.667 14 -51.333 21 -74 21c-14 0 -24.667 -2.5 -32 -7.5s-11 -11.833 -11 -20.5
c0 -10 4 -17.667 12 -23s18.333 -8 31 -8c33.333 0 58 12.667 74 38z" />
    <glyph glyph-name="currency" unicode="&#xa4;" horiz-adv-x="653" 
d="M510 218l95.002 -86l-82 -81l-88 95c-31.333 -17.333 -67.333 -26 -108 -26s-77.334 9 -110.001 27l-88 -96l-80 81l93 87c-18.667 33.333 -28 70 -28 110c0 40.667 9.66699 77.667 29 111l-94 86l80 81l89 -95c31.333 17.333 67.666 26 108.999 26
c39.333 0 76 -9 110 -27l86 96l82 -81l-94 -88c18.667 -32 28 -68.333 28 -109c0 -41.333 -9.66699 -78.333 -29 -111zM399.002 252.5c18.667 19.667 28 45.167 28 76.5s-9.33301 56.833 -28 76.5s-42.667 29.5 -72 29.5s-53.5 -9.83301 -72.5 -29.5
s-28.5 -45.167 -28.5 -76.5s9.5 -56.833 28.5 -76.5s43.167 -29.5 72.5 -29.5s53.333 9.83301 72 29.5z" />
    <glyph glyph-name="yen" unicode="&#xa5;" horiz-adv-x="657" 
d="M463 302h123v-60h-193v-69h193v-57h-193v-116h-129v116h-192v57h192v69h-192v60h122l54 -4l-223 362h145l112 -220l46 -101h2l45 102l112 219h145l-223 -362z" />
    <glyph glyph-name="brokenbar" unicode="&#xa6;" horiz-adv-x="266" 
d="M193 345h-120v374h120v-374zM193 -168h-120v374h120v-374z" />
    <glyph glyph-name="section" unicode="&#xa7;" horiz-adv-x="614" 
d="M509 133c13.333 -20.667 19.998 -47.332 19.998 -79.999c0 -49.333 -20 -88.833 -60 -118.5s-94.333 -44.5 -163 -44.5c-54.667 0 -99.667 8.16699 -135 24.5s-65.666 40.833 -90.999 73.5l77 69c16 -24.667 35.5 -42.667 58.5 -54s52.833 -17 89.5 -17
c37.333 0 65.833 4.66699 85.5 14s29.5 23 29.5 41c0 21.333 -11 37.833 -33 49.5s-61.333 20.834 -118 27.501c-86.667 9.33301 -148.667 26.833 -186 52.5s-56 62.167 -56 109.5c0 59.333 26.667 106.333 80 141c-13.333 22 -20 49 -20 81
c0 32.667 9.16699 61.667 27.5 87s44.5 45.166 78.5 59.499s74.333 21.5 121 21.5c56 0 100.833 -8.33301 134.5 -25s62.834 -41 87.501 -73l-75 -69c-18 24.667 -38 42.667 -60 54s-51 17 -87 17c-38 0 -67.167 -5.33301 -87.5 -16s-30.5 -25.334 -30.5 -44.001
c0 -22 11 -38.667 33 -50s61.333 -20.333 118 -27c86.667 -9.33301 148.667 -26.833 186 -52.5s56 -62.167 56 -109.5c0 -58.667 -26.667 -106 -80 -142zM165.498 251.002c21.667 -10.667 60.167 -19 115.5 -25c63.333 -7.33301 113 -18 149 -32c35.333 16 53 37 53 63
c0 20.667 -10.833 36.334 -32.5 47.001s-60.167 19 -115.5 25c-61.333 6 -111 16.667 -149 32c-35.333 -16 -53 -37 -53 -63c0 -20.667 10.833 -36.334 32.5 -47.001z" />
    <glyph glyph-name="dieresis" unicode="&#xa8;" horiz-adv-x="500" 
d="M201 686c13.333 -12.667 20 -29.667 20 -51s-6.66699 -38.333 -20 -51s-31.666 -19 -54.999 -19c-22.667 0 -40.667 6.33301 -54 19s-20 29.667 -20 51s6.66699 38.333 20 51s31.333 19 54 19c23.333 0 41.666 -6.33301 54.999 -19zM411.5 686
c13.667 -12.667 20.5 -29.667 20.5 -51s-6.83301 -38.333 -20.5 -51s-32.167 -19 -55.5 -19c-22.667 0 -40.667 6.33301 -54 19s-20 29.667 -20 51s6.66699 38.333 20 51s31.333 19 54 19c23.333 0 41.833 -6.33301 55.5 -19z" />
    <glyph glyph-name="copyright" unicode="&#xa9;" horiz-adv-x="790" 
d="M575.5 628c51.667 -28 91.667 -67.667 120 -119s42.5 -111 42.5 -179s-14.167 -127.667 -42.5 -179s-68.333 -91 -120 -119s-111.834 -42 -180.501 -42c-69.333 0 -129.833 14 -181.5 42s-91.667 67.667 -120 119s-42.5 111 -42.5 179s14.167 127.667 42.5 179
s68.333 91 120 119s112.167 42 181.5 42c68.667 0 128.834 -14 180.501 -42zM257 560.5c-39.333 -21.667 -69.666 -52.334 -90.999 -92.001s-32 -85.834 -32 -138.501s10.667 -98.834 32 -138.501s51.666 -70.334 90.999 -92.001s85.333 -32.5 138 -32.5
c52 0 97.667 10.833 137 32.5s69.833 52.334 91.5 92.001s32.5 85.834 32.5 138.501s-10.833 98.834 -32.5 138.501s-52.167 70.334 -91.5 92.001s-85 32.5 -137 32.5c-52.667 0 -98.667 -10.833 -138 -32.5zM566 413l-81.999 -41.001c-7.33301 17.333 -17.5 30 -30.5 38
s-30.5 12 -52.5 12c-27.333 0 -48.5 -8.16699 -63.5 -24.5s-22.5 -39.166 -22.5 -68.499c0 -30 7.66699 -53.167 23 -69.5s36.666 -24.5 63.999 -24.5c22.667 0 41 4.16699 55 12.5s24.667 21.833 32 40.5l78 -36c-14.667 -38.667 -35.5 -67 -62.5 -85s-63.5 -27 -109.5 -27
c-55.333 0 -99.166 17 -131.499 51s-48.5 80 -48.5 138s16.167 104 48.5 138s76.166 51 131.499 51c88 0 145 -35 171 -105z" />
    <glyph glyph-name="ordfeminine" unicode="&#xaa;" horiz-adv-x="418" 
d="M395 383l-8.00195 -58.001c-13.333 -7.33301 -29.666 -11 -48.999 -11c-20.667 0 -38 4.5 -52 13.5s-23.333 22.167 -28 39.5c-11.333 -16.667 -27.833 -29.667 -49.5 -39s-47.167 -14 -76.5 -14c-35.333 0 -62.5 7.16699 -81.5 21.5s-28.5 34.833 -28.5 61.5
c0 28.667 10.5 51.834 31.5 69.501s54.833 30.834 101.5 39.501l85 16v13c0 17.333 -5 30.666 -15 39.999s-24.333 14 -43 14s-34.167 -4 -46.5 -12s-21.166 -22 -26.499 -42l-82 26c6 32 22.667 57 50 75s64 27 110 27c105.333 0 158 -43 158 -129v-124
c0 -20 9.33301 -30 28 -30c10 0 17.333 1 22 3zM218.498 395.999c14.333 10 21.5 23.333 21.5 40v37l-53 -12c-22 -4.66699 -38 -10.667 -48 -18s-15 -17.333 -15 -30c0 -21.333 15 -32 45 -32c18.667 0 35.167 5 49.5 15zM30.998 244.999h349v-76h-349v76z" />
    <glyph glyph-name="guillemotleft" unicode="&#xab;" horiz-adv-x="552" 
d="M168 265l124 -196h-126l-125 196l125 196h126zM386 265l124 -196h-126l-125 196l125 196h126z" />
    <glyph glyph-name="logicalnot" unicode="&#xac;" 
d="M545 374v-264h-116v160h-370v104h486z" />
    <glyph glyph-name="uni00AD" unicode="&#xad;" horiz-adv-x="521" 
d="M437 206h-353v118h353v-118z" />
    <glyph glyph-name="registered" unicode="&#xae;" horiz-adv-x="790" 
d="M575.5 628c51.667 -28 91.667 -67.667 120 -119s42.5 -111 42.5 -179s-14.167 -127.667 -42.5 -179s-68.333 -91 -120 -119s-111.834 -42 -180.501 -42c-69.333 0 -129.833 14 -181.5 42s-91.667 67.667 -120 119s-42.5 111 -42.5 179s14.167 127.667 42.5 179
s68.333 91 120 119s112.167 42 181.5 42c68.667 0 128.834 -14 180.501 -42zM532 99.5c39.333 21.667 69.833 52.334 91.5 92.001s32.5 85.834 32.5 138.501s-10.833 98.834 -32.5 138.501s-52.167 70.334 -91.5 92.001s-85 32.5 -137 32.5
c-52.667 0 -98.667 -10.833 -138 -32.5s-69.666 -52.334 -90.999 -92.001s-32 -85.834 -32 -138.501s10.667 -98.834 32 -138.501s51.666 -70.334 90.999 -92.001s85.333 -32.5 138 -32.5c52 0 97.667 10.833 137 32.5zM536.5 325.5c-14.333 -19 -34.833 -32.5 -61.5 -40.5
l92 -137h-105l-74 128h-42v-128h-89v367h167c39.333 0 71.5 -11 96.5 -33s37.5 -51 37.5 -87c0 -27.333 -7.16699 -50.5 -21.5 -69.5zM346 339h62c40 0 60 17.333 60 52s-20 52 -60 52h-62v-104z" />
    <glyph glyph-name="macron" unicode="&#xaf;" horiz-adv-x="500" 
d="M432 579h-364v91h364v-91z" />
    <glyph glyph-name="degree" unicode="&#xb0;" horiz-adv-x="482" 
d="M103.5 362.5c-35 33 -52.5 76.167 -52.5 129.5s17.5 96.333 52.5 129s80.833 49 137.5 49c57.333 0 103.5 -16.333 138.5 -49s52.5 -75.667 52.5 -129s-17.5 -96.5 -52.5 -129.5s-81.167 -49.5 -138.5 -49.5c-56.667 0 -102.5 16.5 -137.5 49.5zM303.5 430
c16.333 16 24.5 36.667 24.5 62s-8.16699 46 -24.5 62s-37.166 24 -62.499 24c-24.667 0 -45.167 -8 -61.5 -24s-24.5 -36.667 -24.5 -62c0 -24.667 8.16699 -45.167 24.5 -61.5s36.833 -24.5 61.5 -24.5c25.333 0 46.166 8 62.499 24z" />
    <glyph glyph-name="plusminus" unicode="&#xb1;" 
d="M550 461v-102h-195v-185h-105v185h-196v102h196v187h105v-187h195zM54 100h496v-100h-496v100z" />
    <glyph glyph-name="uni00B2" unicode="&#xb2;" horiz-adv-x="382" 
d="M33 400c44 26.667 74 45.665 90 56.998c44 32 74.833 58.5 92.5 79.5s26.5 41.5 26.5 61.5c0 16.667 -5 30.167 -15 40.5s-24.333 15.5 -43 15.5c-20.667 0 -36.667 -7.16699 -48 -21.5s-17.333 -34.833 -18 -61.5l-98 29c1.33301 42.667 17 75.834 47 99.501
s70 35.5 120 35.5c54 0 94.833 -12.667 122.5 -38s41.5 -55.666 41.5 -90.999c0 -26.667 -9.33301 -52.667 -28 -78s-47.667 -51.333 -87 -78c-18 -12.667 -40.667 -25 -68 -37v-1c36 2 63.333 3 82 3h107v-82h-324v67z" />
    <glyph glyph-name="uni00B3" unicode="&#xb3;" horiz-adv-x="373" 
d="M297.5 705.5c26.333 -19.667 39.5 -46.834 39.5 -81.501c0 -26.667 -8 -48.167 -24 -64.5s-35.333 -25.166 -58 -26.499v-3c26 0 47.5 -7.66699 64.5 -23s25.5 -36.666 25.5 -63.999c0 -34.667 -14.5 -62.667 -43.5 -84s-67.167 -32 -114.5 -32
c-46.667 0 -84.167 8 -112.5 24s-48.166 41 -59.499 75l97 38c4 -39.333 27 -59 69 -59c18.667 0 33.334 4.5 44.001 13.5s16 21.5 16 37.5c0 28.667 -20 43 -60 43h-23v59h19c18 0 31.833 4.16699 41.5 12.5s14.5 20.166 14.5 35.499c0 32 -17.667 48 -53 48
c-16.667 0 -30.334 -4.5 -41.001 -13.5s-17.334 -22.5 -20.001 -40.5l-94 31c7.33301 34.667 25.333 60.667 54 78s64 26 106 26c48.667 0 86.167 -9.83301 112.5 -29.5z" />
    <glyph glyph-name="acute" unicode="&#xb4;" horiz-adv-x="500" 
d="M394 742l-100 -170h-102l70 170h132z" />
    <glyph glyph-name="uni00B5" unicode="&#xb5;" horiz-adv-x="615" 
d="M547 500l0.000976562 -500h-119l-6 89c-30 -66 -84.667 -99 -164 -99c-17.333 0 -34.666 2.66699 -51.999 8v-208h-137v710h137v-296c0 -38.667 7.16699 -66 21.5 -82s36.166 -24 65.499 -24c33.333 0 60.166 9.33301 80.499 28s32.5 45 36.5 79v295h137z" />
    <glyph glyph-name="paragraph" unicode="&#xb6;" horiz-adv-x="702" 
d="M627 -100l-113 -0.00195312v653h-116v-653h-114v335c-78.667 0.666992 -139.5 19.334 -182.5 56.001s-64.5 88.667 -64.5 156c0 68.667 22.667 121.334 68 158.001s112 55 200 55h322v-760z" />
    <glyph glyph-name="periodcentered" unicode="&#xb7;" horiz-adv-x="256" 
d="M191.5 413.5c15.667 -14.333 23.5 -34.166 23.5 -59.499s-7.83301 -45.166 -23.5 -59.499s-36.834 -21.5 -63.501 -21.5s-47.834 7.16699 -63.501 21.5s-23.5 34.166 -23.5 59.499s7.83301 45.166 23.5 59.499s36.834 21.5 63.501 21.5s47.834 -7.16699 63.501 -21.5z
" />
    <glyph glyph-name="cedilla" unicode="&#xb8;" horiz-adv-x="500" 
d="M232 34c48.667 -9.33301 86.167 -26.3359 112.5 -51.0029s39.5 -52.667 39.5 -84c0 -35.333 -12.167 -63.166 -36.5 -83.499s-56.5 -30.5 -96.5 -30.5c-52 0 -91.667 12.667 -119 38l36 71c8.66699 -9.33301 19.167 -16.666 31.5 -21.999s25.5 -8 39.5 -8
c16 0 29.167 4.83301 39.5 14.5s15.5 22.5 15.5 38.5c0 19.333 -7.33301 35.333 -22 48s-42 25.334 -82 38.001z" />
    <glyph glyph-name="uni00B9" unicode="&#xb9;" horiz-adv-x="277" 
d="M232 730l-0.00195312 -397h-104v229c0 18.667 1 41 3 67c-38 -30.667 -76.333 -48 -115 -52v86c20.667 3.33301 44.334 11.833 71.001 25.5s45.334 27.5 56.001 41.5h89z" />
    <glyph glyph-name="ordmasculine" unicode="&#xba;" horiz-adv-x="400" 
d="M72.5 360c-30.333 30.667 -45.5 73.334 -45.5 128.001c0 55.333 15.167 98.333 45.5 129s72.833 46 127.5 46s97 -15.333 127 -46s45 -73.667 45 -129c0 -54.667 -15 -97.334 -45 -128.001s-72.333 -46 -127 -46s-97.167 15.333 -127.5 46zM250.5 411.5
c11 17 16.5 42.5 16.5 76.5c0 69.333 -22.333 104 -67 104s-67 -34.667 -67 -104c0 -34 5.5 -59.5 16.5 -76.5s27.833 -25.5 50.5 -25.5s39.5 8.5 50.5 25.5zM36 245h328v-76h-328v76z" />
    <glyph glyph-name="guillemotright" unicode="&#xbb;" horiz-adv-x="551" 
d="M166 461l125 -196l-125 -196h-126l124 196l-124 196h126zM385 461l125 -196l-125 -196h-126l124 196l-124 196h126z" />
    <glyph glyph-name="onequarter" unicode="&#xbc;" horiz-adv-x="849" 
d="M232 665l-0.00195312 -397h-104v229c0 18.667 1 41 3 67c-38 -30.667 -76.333 -48 -115 -52v86c20.667 3.33301 44.334 11.833 71.001 25.5s45.334 27.5 56.001 41.5h89zM591.998 660h104l-476 -660h-105zM831.998 86h-64v-90h-90v90h-200v49l169 258h121v-237h64v-70z
M677.998 156l-0.000976562 91c0 12.667 0.666992 31 2 55l1 24h-3c-7.33301 -18.667 -17.666 -38 -30.999 -58l-77 -112h108z" />
    <glyph glyph-name="onehalf" unicode="&#xbd;" horiz-adv-x="917" 
d="M232 665l-0.00195312 -397h-104v229c0 18.667 1 41 3 67c-38 -30.667 -76.333 -48 -115 -52v86c20.667 3.33301 44.334 11.833 71.001 25.5s45.334 27.5 56.001 41.5h89zM591.998 660h104l-476 -660h-105zM567.998 63c44 26.667 74 45.665 90 56.998
c44 32 74.833 58.5 92.5 79.5s26.5 41.5 26.5 61.5c0 16.667 -5 30.167 -15 40.5s-24.333 15.5 -43 15.5c-20.667 0 -36.667 -7.16699 -48 -21.5s-17.333 -34.833 -18 -61.5l-98 29c1.33301 42.667 17 75.834 47 99.501s70 35.5 120 35.5c54 0 94.833 -12.667 122.5 -38
s41.5 -55.666 41.5 -90.999c0 -26.667 -9.33301 -52.667 -28 -78s-47.667 -51.333 -87 -78c-18 -12.667 -40.667 -25 -68 -37v-1c36 2 63.333 3 82 3h107v-82h-324v67z" />
    <glyph glyph-name="threequarters" unicode="&#xbe;" horiz-adv-x="945" 
d="M297.5 640.5c26.333 -19.667 39.501 -46.835 39.501 -81.502c0 -26.667 -8 -48.167 -24 -64.5s-35.333 -25.166 -58 -26.499v-3c26 0 47.5 -7.66699 64.5 -23s25.5 -36.666 25.5 -63.999c0 -34.667 -14.5 -62.667 -43.5 -84s-67.167 -32 -114.5 -32
c-46.667 0 -84.167 7.83301 -112.5 23.5s-48.5 40.834 -60.5 75.501l98 38c4 -39.333 27 -59 69 -59c18.667 0 33.334 4.5 44.001 13.5s16 21.5 16 37.5c0 28.667 -20 43 -60 43h-23v59h19c18 0 31.833 4.16699 41.5 12.5s14.5 20.166 14.5 35.499c0 32 -17.667 48 -53 48
c-16.667 0 -30.334 -4.5 -41.001 -13.5s-17.334 -22.5 -20.001 -40.5l-94 31c7.33301 34.667 25.333 60.667 54 78s64 26 106 26c48.667 0 86.167 -9.83301 112.5 -29.5zM688.001 659.999h104l-476 -660h-105zM927.001 85.999h-64v-90h-90v90h-200v49l169 258h121v-237h64
v-70zM773.001 155.999l-0.000976562 91c0 12.667 0.666992 31 2 55l1 24h-3c-7.33301 -18.667 -17.666 -38 -30.999 -58l-77 -112h108z" />
    <glyph glyph-name="questiondown" unicode="&#xbf;" horiz-adv-x="580" 
d="M238 374c-15.333 14 -23 33 -23 57s7.66699 43 23 57s36.333 21 63 21s47.5 -7 62.5 -21s22.5 -33 22.5 -57s-7.5 -43 -22.5 -57s-35.833 -21 -62.5 -21s-47.667 7 -63 21zM109.5 -124.5c-44.333 30.333 -66.499 74.501 -66.499 132.501s17.167 102.167 51.5 132.5
s80.5 48.5 138.5 54.5l6 94h123l6 -152c-64 -6.66699 -109.667 -18.667 -137 -36s-41 -42 -41 -74c0 -26 8.83301 -46.167 26.5 -60.5s44.167 -21.5 79.5 -21.5c34.667 0 62.667 10 84 30s33.666 48 36.999 84l130 -55c-8.66699 -52.667 -35 -94.834 -79 -126.501
s-104.333 -47.5 -181 -47.5c-74 0 -133.167 15.167 -177.5 45.5z" />
    <glyph glyph-name="Agrave" unicode="&#xc0;" horiz-adv-x="671" 
d="M280 730l-89 155h136l56 -155h-103zM461 161h-254l-54 -161h-141l241 660h165l241 -660h-143zM427 263l-62 186l-30 100h-2l-28 -98l-64 -188h186z" />
    <glyph glyph-name="Aacute" unicode="&#xc1;" horiz-adv-x="671" 
d="M377 730h-103l56 155h136zM461 161h-254l-54 -161h-141l241 660h165l241 -660h-143zM427 263l-62 186l-30 100h-2l-28 -98l-64 -188h186z" />
    <glyph glyph-name="Acircumflex" unicode="&#xc2;" horiz-adv-x="671" 
d="M261 726h-106l111 167h138l111 -167h-106l-74 98zM461 161h-254l-54 -161h-141l241 660h165l241 -660h-143zM427 263l-62 186l-30 100h-2l-28 -98l-64 -188h186z" />
    <glyph glyph-name="Atilde" unicode="&#xc3;" horiz-adv-x="671" 
d="M461 161h-254l-54 -161h-141l241 660h165l241 -660h-143zM427 263l-62 186l-30 100h-2l-28 -98l-64 -188h186zM491.5 765.5c-21 -25 -50.835 -37.5 -89.502 -37.5c-19.333 0 -35.5 3.33301 -48.5 10s-26.5 16 -40.5 28c-9.33301 8 -17.166 13.833 -23.499 17.5
s-13.166 5.5 -20.499 5.5c-12 0 -21.333 -5 -28 -15s-11.334 -25.333 -14.001 -46h-84c5.33301 100 47.333 150 126 150c19.333 0 35.333 -3.33301 48 -10s26 -16 40 -28c10 -8 18 -13.833 24 -17.5s12.667 -5.5 20 -5.5c12 0 21.333 5 28 15s11.334 25.333 14.001 46h84
c-2.66699 -50 -14.5 -87.5 -35.5 -112.5z" />
    <glyph glyph-name="Adieresis" unicode="&#xc4;" horiz-adv-x="671" 
d="M461 161h-254l-54 -161h-141l241 660h165l241 -660h-143zM427 263l-62 186l-30 100h-2l-28 -98l-64 -188h186zM284 846c13.333 -12.667 20 -29.667 20 -51s-6.66699 -38.333 -20 -51s-31.666 -19 -54.999 -19c-22.667 0 -40.667 6.33301 -54 19s-20 29.667 -20 51
s6.66699 38.333 20 51s31.333 19 54 19c23.333 0 41.666 -6.33301 54.999 -19zM494.5 846c13.667 -12.667 20.5 -29.667 20.5 -51s-6.83301 -38.333 -20.5 -51s-32.167 -19 -55.5 -19c-22.667 0 -40.667 6.33301 -54 19s-20 29.667 -20 51s6.66699 38.333 20 51
s31.333 19 54 19c23.333 0 41.833 -6.33301 55.5 -19z" />
    <glyph glyph-name="Aring" unicode="&#xc5;" horiz-adv-x="671" 
d="M461 161h-254l-54 -161h-141l235 634c-16.667 10 -29.5 23.333 -38.5 40s-13.5 36 -13.5 58c0 38 12.833 68.5 38.5 91.5s59.834 34.5 102.501 34.5c43.333 0 77.666 -11.5 102.999 -34.5s38 -53.5 38 -91.5c0 -21.333 -4.66699 -40.5 -14 -57.5s-22.333 -30.5 -39 -40.5
l235 -634h-143zM290.5 773c-11.667 -11.333 -17.5 -26 -17.5 -44s5.83301 -32.667 17.5 -44s26.834 -17 45.501 -17s33.834 5.66699 45.501 17s17.5 26 17.5 44s-5.83301 32.667 -17.5 44s-26.834 17 -45.501 17s-33.834 -5.66699 -45.501 -17zM427 263l-62 186l-29 100h-3
l-28 -98l-64 -188h186z" />
    <glyph glyph-name="AE" unicode="&#xc6;" horiz-adv-x="935" 
d="M897 108v-108h-465v202h-200l-91 -202h-141l321 660h562v-108h-320v-168h244v-103h-244v-173h334zM432 301v254h-40l-115 -254h155z" />
    <glyph glyph-name="Ccedilla" unicode="&#xc7;" horiz-adv-x="683" 
d="M572 57c-36.667 -31.333 -81.001 -51.666 -133.001 -60.999c18 -12.667 31.667 -27.334 41 -44.001s14 -34.334 14 -53.001c0 -35.333 -12.167 -63.166 -36.5 -83.499s-56.5 -30.5 -96.5 -30.5c-52 0 -91.667 12.667 -119 38l36 71
c8.66699 -9.33301 19.167 -16.666 31.5 -21.999s25.5 -8 39.5 -8c16 0 29.167 4.83301 39.5 14.5s15.5 22.5 15.5 38.5c0 16.667 -5 30.667 -15 42s-28.667 22.333 -56 33c-87.333 7.33301 -155.833 40.833 -205.5 100.5s-74.5 138.834 -74.5 237.501
c0 70 12.833 130.5 38.5 181.5s62.334 90.167 110.001 117.5s103.5 41 167.5 41c68.667 0 126.834 -14.333 174.501 -43s80.5 -71.334 98.5 -128.001l-125 -53c-10.667 39.333 -27.334 67.666 -50.001 84.999s-53.334 26 -92.001 26c-56 0 -99.833 -19.667 -131.5 -59
s-47.5 -95.333 -47.5 -168s15.333 -128.667 46 -168s74 -59 130 -59c80.667 0 131.334 39 152.001 117l127 -38c-16 -52 -42.333 -93.667 -79 -125z" />
    <glyph glyph-name="Egrave" unicode="&#xc8;" horiz-adv-x="633" 
d="M295 730l-89 155h136l56 -155h-103zM595 111v-111h-509v660h495v-111h-357v-164h281v-106h-281v-168h371z" />
    <glyph glyph-name="Eacute" unicode="&#xc9;" horiz-adv-x="633" 
d="M371 730h-103l56 155h136zM595 111v-111h-509v660h495v-111h-357v-164h281v-106h-281v-168h371z" />
    <glyph glyph-name="Ecircumflex" unicode="&#xca;" horiz-adv-x="633" 
d="M255 726h-106l111 167h138l111 -167h-106l-74 98zM595 111v-111h-509v660h495v-111h-357v-164h281v-106h-281v-168h371z" />
    <glyph glyph-name="Edieresis" unicode="&#xcb;" horiz-adv-x="633" 
d="M595 111v-111h-509v660h495v-111h-357v-164h281v-106h-281v-168h371zM278 846c13.333 -12.667 20 -29.667 20 -51s-6.66699 -38.333 -20 -51s-31.666 -19 -54.999 -19c-22.667 0 -40.667 6.33301 -54 19s-20 29.667 -20 51s6.66699 38.333 20 51s31.333 19 54 19
c23.333 0 41.666 -6.33301 54.999 -19zM488.5 846c13.667 -12.667 20.5 -29.667 20.5 -51s-6.83301 -38.333 -20.5 -51s-32.167 -19 -55.5 -19c-22.667 0 -40.667 6.33301 -54 19s-20 29.667 -20 51s6.66699 38.333 20 51s31.333 19 54 19
c23.333 0 41.833 -6.33301 55.5 -19z" />
    <glyph glyph-name="Igrave" unicode="&#xcc;" horiz-adv-x="310" 
d="M203 730h-103l-89 155h136zM224 0h-138v660h138v-660z" />
    <glyph glyph-name="Iacute" unicode="&#xcd;" horiz-adv-x="310" 
d="M286 885l-89 -155h-103l56 155h136zM224 0h-138v660h138v-660z" />
    <glyph glyph-name="Icircumflex" unicode="&#xce;" horiz-adv-x="310" 
d="M229 726l-74 98l-74 -98h-106l111 167h138l111 -167h-106zM224 0h-138v660h138v-660z" />
    <glyph glyph-name="Idieresis" unicode="&#xcf;" horiz-adv-x="310" 
d="M112 846c13.333 -12.667 20 -29.667 20 -51s-6.66699 -38.333 -20 -51s-31.333 -19 -54 -19c-22 0 -39.5 6.33301 -52.5 19s-19.5 29.667 -19.5 51s6.5 38.333 19.5 51s30.5 19 52.5 19c22.667 0 40.667 -6.33301 54 -19zM304 846c13.333 -12.667 20 -29.667 20 -51
s-6.66699 -38.333 -20 -51s-31.333 -19 -54 -19c-22 0 -39.5 6.33301 -52.5 19s-19.5 29.667 -19.5 51s6.5 38.333 19.5 51s30.5 19 52.5 19c22.667 0 40.667 -6.33301 54 -19zM224 0h-138v660h138v-660z" />
    <glyph glyph-name="Eth" unicode="&#xd0;" horiz-adv-x="740" 
d="M601.5 574c56.333 -57.333 84.5 -138.668 84.5 -244.001s-28.167 -186.666 -84.5 -243.999s-136.166 -86 -239.499 -86h-255v284h-89v94h89v282h255c103.333 0 183.166 -28.667 239.499 -86zM496 166.498c32 37.667 48 92.167 48 163.5s-16 125.833 -48 163.5
s-79.333 56.5 -142 56.5h-109v-172h154v-94h-154v-174h109c62.667 0 110 18.833 142 56.5z" />
    <glyph glyph-name="Ntilde" unicode="&#xd1;" horiz-adv-x="739" 
d="M653 0h-158l-231 388l-57 111h-1l4 -117v-382h-124v660h157l231 -387l57 -112h2l-4 117v382h124v-660zM527.5 765.5c-21 -25 -50.835 -37.5 -89.502 -37.5c-19.333 0 -35.5 3.33301 -48.5 10s-26.5 16 -40.5 28c-9.33301 8 -17.166 13.833 -23.499 17.5
s-13.166 5.5 -20.499 5.5c-12 0 -21.333 -5 -28 -15s-11.334 -25.333 -14.001 -46h-84c5.33301 100 47.333 150 126 150c19.333 0 35.333 -3.33301 48 -10s26 -16 40 -28c10 -8 18 -13.833 24 -17.5s12.667 -5.5 20 -5.5c12 0 21.333 5 28 15s11.334 25.333 14.001 46h84
c-2.66699 -50 -14.5 -87.5 -35.5 -112.5z" />
    <glyph glyph-name="Ograve" unicode="&#xd2;" horiz-adv-x="741" 
d="M419 730h-103l-89 155h136zM539.5 629c47.667 -27.333 84.334 -66.5 110.001 -117.5s38.5 -111.5 38.5 -181.5s-12.833 -130.5 -38.5 -181.5s-62.334 -90.167 -110.001 -117.5s-103.834 -41 -168.501 -41s-121 13.667 -169 41s-84.833 66.5 -110.5 117.5
s-38.5 111.5 -38.5 181.5s12.833 130.5 38.5 181.5s62.5 90.167 110.5 117.5s104.333 41 169 41s120.834 -13.667 168.501 -41zM241.5 498.5c-30.333 -39 -45.5 -95.167 -45.5 -168.5s15.167 -129.5 45.5 -168.5s73.5 -58.5 129.5 -58.5c55.333 0 98.166 19.5 128.499 58.5
s45.5 95.167 45.5 168.5s-15.167 129.5 -45.5 168.5s-73.166 58.5 -128.499 58.5c-56 0 -99.167 -19.5 -129.5 -58.5z" />
    <glyph glyph-name="Oacute" unicode="&#xd3;" horiz-adv-x="741" 
d="M502 885l-89 -155h-103l56 155h136zM539.5 629c47.667 -27.333 84.334 -66.5 110.001 -117.5s38.5 -111.5 38.5 -181.5s-12.833 -130.5 -38.5 -181.5s-62.334 -90.167 -110.001 -117.5s-103.834 -41 -168.501 -41s-121 13.667 -169 41s-84.833 66.5 -110.5 117.5
s-38.5 111.5 -38.5 181.5s12.833 130.5 38.5 181.5s62.5 90.167 110.5 117.5s104.333 41 169 41s120.834 -13.667 168.501 -41zM241.5 498.5c-30.333 -39 -45.5 -95.167 -45.5 -168.5s15.167 -129.5 45.5 -168.5s73.5 -58.5 129.5 -58.5c55.333 0 98.166 19.5 128.499 58.5
s45.5 95.167 45.5 168.5s-15.167 129.5 -45.5 168.5s-73.166 58.5 -128.499 58.5c-56 0 -99.167 -19.5 -129.5 -58.5z" />
    <glyph glyph-name="Ocircumflex" unicode="&#xd4;" horiz-adv-x="741" 
d="M445 726l-74 98l-74 -98h-106l111 167h138l111 -167h-106zM539.5 629c47.667 -27.333 84.334 -66.5 110.001 -117.5s38.5 -111.5 38.5 -181.5s-12.833 -130.5 -38.5 -181.5s-62.334 -90.167 -110.001 -117.5s-103.834 -41 -168.501 -41s-121 13.667 -169 41
s-84.833 66.5 -110.5 117.5s-38.5 111.5 -38.5 181.5s12.833 130.5 38.5 181.5s62.5 90.167 110.5 117.5s104.333 41 169 41s120.834 -13.667 168.501 -41zM241.5 498.5c-30.333 -39 -45.5 -95.167 -45.5 -168.5s15.167 -129.5 45.5 -168.5s73.5 -58.5 129.5 -58.5
c55.333 0 98.166 19.5 128.499 58.5s45.5 95.167 45.5 168.5s-15.167 129.5 -45.5 168.5s-73.166 58.5 -128.499 58.5c-56 0 -99.167 -19.5 -129.5 -58.5z" />
    <glyph glyph-name="Otilde" unicode="&#xd5;" horiz-adv-x="741" 
d="M539.5 629c47.667 -27.333 84.334 -66.5 110.001 -117.5s38.5 -111.5 38.5 -181.5s-12.833 -130.5 -38.5 -181.5s-62.334 -90.167 -110.001 -117.5s-103.834 -41 -168.501 -41s-121 13.667 -169 41s-84.833 66.5 -110.5 117.5s-38.5 111.5 -38.5 181.5
s12.833 130.5 38.5 181.5s62.5 90.167 110.5 117.5s104.333 41 169 41s120.834 -13.667 168.501 -41zM241.5 498.5c-30.333 -39 -45.5 -95.167 -45.5 -168.5s15.167 -129.5 45.5 -168.5s73.5 -58.5 129.5 -58.5c55.333 0 98.166 19.5 128.499 58.5s45.5 95.167 45.5 168.5
s-15.167 129.5 -45.5 168.5s-73.166 58.5 -128.499 58.5c-56 0 -99.167 -19.5 -129.5 -58.5zM526.5 765.5c-21 -25 -50.835 -37.5 -89.502 -37.5c-19.333 0 -35.5 3.33301 -48.5 10s-26.5 16 -40.5 28c-9.33301 8 -17.166 13.833 -23.499 17.5s-13.166 5.5 -20.499 5.5
c-12 0 -21.333 -5 -28 -15s-11.334 -25.333 -14.001 -46h-84c5.33301 100 47.333 150 126 150c19.333 0 35.333 -3.33301 48 -10s26 -16 40 -28c10 -8 18 -13.833 24 -17.5s12.667 -5.5 20 -5.5c12 0 21.333 5 28 15s11.334 25.333 14.001 46h84
c-2.66699 -50 -14.5 -87.5 -35.5 -112.5z" />
    <glyph glyph-name="Odieresis" unicode="&#xd6;" horiz-adv-x="741" 
d="M539.5 629c47.667 -27.333 84.334 -66.5 110.001 -117.5s38.5 -111.5 38.5 -181.5s-12.833 -130.5 -38.5 -181.5s-62.334 -90.167 -110.001 -117.5s-103.834 -41 -168.501 -41s-121 13.667 -169 41s-84.833 66.5 -110.5 117.5s-38.5 111.5 -38.5 181.5
s12.833 130.5 38.5 181.5s62.5 90.167 110.5 117.5s104.333 41 169 41s120.834 -13.667 168.501 -41zM241.5 498.5c-30.333 -39 -45.5 -95.167 -45.5 -168.5s15.167 -129.5 45.5 -168.5s73.5 -58.5 129.5 -58.5c55.333 0 98.166 19.5 128.499 58.5s45.5 95.167 45.5 168.5
s-15.167 129.5 -45.5 168.5s-73.166 58.5 -128.499 58.5c-56 0 -99.167 -19.5 -129.5 -58.5zM320 846c13.333 -12.667 20 -29.667 20 -51s-6.66699 -38.333 -20 -51s-31.666 -19 -54.999 -19c-22.667 0 -40.667 6.33301 -54 19s-20 29.667 -20 51s6.66699 38.333 20 51
s31.333 19 54 19c23.333 0 41.666 -6.33301 54.999 -19zM530.5 846c13.667 -12.667 20.5 -29.667 20.5 -51s-6.83301 -38.333 -20.5 -51s-32.167 -19 -55.5 -19c-22.667 0 -40.667 6.33301 -54 19s-20 29.667 -20 51s6.66699 38.333 20 51s31.333 19 54 19
c23.333 0 41.833 -6.33301 55.5 -19z" />
    <glyph glyph-name="multiply" unicode="&#xd7;" 
d="M379 323l160 -160l-77 -78l-160 160l-160 -160l-78 78l160 160l-160 160l78 78l160 -160l160 160l77 -78z" />
    <glyph glyph-name="Oslash" unicode="&#xd8;" horiz-adv-x="741" 
d="M665 475.5c15.333 -43 23.0029 -91.501 23.0029 -145.501c0 -70 -12.833 -130.5 -38.5 -181.5s-62.334 -90.167 -110.001 -117.5s-103.834 -41 -168.501 -41c-66.667 0 -124 14.333 -172 43l-46 -64h-80l73 103c-30 30 -53 66.833 -69 110.5s-24 92.834 -24 147.501
c0 70 12.833 130.5 38.5 181.5s62.5 90.167 110.5 117.5s104.333 41 169 41c68 0 126.667 -15 176 -45l41 57h80l-70 -98c29.333 -29.333 51.666 -65.5 66.999 -108.5zM241.503 498.499c-30.333 -39 -45.5 -95.167 -45.5 -168.5c0 -62.667 11 -112.667 33 -150l243 346
c-28 20.667 -61.667 31 -101 31c-56 0 -99.167 -19.5 -129.5 -58.5zM499.503 161.499c30.333 39 45.501 95.167 45.501 168.5c0 58 -9.66699 105.667 -29 143l-241 -343c26 -18 58 -27 96 -27c55.333 0 98.166 19.5 128.499 58.5z" />
    <glyph glyph-name="Ugrave" unicode="&#xd9;" horiz-adv-x="715" 
d="M406 730h-103l-89 155h136zM640 260c0 -89.333 -23.832 -156.666 -71.499 -201.999s-117.834 -68 -210.501 -68s-162.834 22.667 -210.501 68s-71.5 112.666 -71.5 201.999v400h138v-394c0 -55.333 11.833 -96.333 35.5 -123s59.834 -40 108.501 -40
s84.667 13.333 108 40s35 67.667 35 123v394h139v-400z" />
    <glyph glyph-name="Uacute" unicode="&#xda;" horiz-adv-x="715" 
d="M489 885l-89 -155h-103l56 155h136zM640 260c0 -89.333 -23.832 -156.666 -71.499 -201.999s-117.834 -68 -210.501 -68s-162.834 22.667 -210.501 68s-71.5 112.666 -71.5 201.999v400h138v-394c0 -55.333 11.833 -96.333 35.5 -123s59.834 -40 108.501 -40
s84.667 13.333 108 40s35 67.667 35 123v394h139v-400z" />
    <glyph glyph-name="Ucircumflex" unicode="&#xdb;" horiz-adv-x="715" 
d="M432 726l-74 98l-74 -98h-106l111 167h138l111 -167h-106zM640 260c0 -89.333 -23.832 -156.666 -71.499 -201.999s-117.834 -68 -210.501 -68s-162.834 22.667 -210.501 68s-71.5 112.666 -71.5 201.999v400h138v-394c0 -55.333 11.833 -96.333 35.5 -123
s59.834 -40 108.501 -40s84.667 13.333 108 40s35 67.667 35 123v394h139v-400z" />
    <glyph glyph-name="Udieresis" unicode="&#xdc;" horiz-adv-x="715" 
d="M640 260c0 -89.333 -23.832 -156.666 -71.499 -201.999s-117.834 -68 -210.501 -68s-162.834 22.667 -210.501 68s-71.5 112.666 -71.5 201.999v400h138v-394c0 -55.333 11.833 -96.333 35.5 -123s59.834 -40 108.501 -40s84.667 13.333 108 40s35 67.667 35 123v394h139
v-400zM307.001 846c13.333 -12.667 20 -29.667 20 -51s-6.66699 -38.333 -20 -51s-31.666 -19 -54.999 -19c-22.667 0 -40.667 6.33301 -54 19s-20 29.667 -20 51s6.66699 38.333 20 51s31.333 19 54 19c23.333 0 41.666 -6.33301 54.999 -19zM517.501 846
c13.667 -12.667 20.5 -29.667 20.5 -51s-6.83301 -38.333 -20.5 -51s-32.167 -19 -55.5 -19c-22.667 0 -40.667 6.33301 -54 19s-20 29.667 -20 51s6.66699 38.333 20 51s31.333 19 54 19c23.333 0 41.833 -6.33301 55.5 -19z" />
    <glyph glyph-name="Yacute" unicode="&#xdd;" horiz-adv-x="626" 
d="M444 885l-89 -155h-103l56 155h136zM382 247v-247h-138v247l-234 413h147l106 -197l50 -104l51 104l106 197h146z" />
    <glyph glyph-name="Thorn" unicode="&#xde;" horiz-adv-x="652" 
d="M542.5 498c43.667 -36.667 65.167 -90.333 64.5 -161c0.666992 -70 -20.833 -123.5 -64.5 -160.5s-107.167 -55.5 -190.5 -55.5h-128v-121h-138v660h138v-107h128c83.333 0 146.833 -18.333 190.5 -55zM436 256.501c20.667 17.667 31 44.5 31 80.5
s-10.333 62.833 -31 80.5s-52 26.5 -94 26.5h-118v-214h118c42 0 73.333 8.83301 94 26.5z" />
    <glyph glyph-name="germandbls" unicode="&#xdf;" horiz-adv-x="637" 
d="M512 348.5c27.333 -17 47.832 -39.668 61.499 -68.001s20.5 -58.833 20.5 -91.5c0 -35.333 -8.16699 -68.166 -24.5 -98.499s-41.166 -54.666 -74.499 -72.999s-74 -27.5 -122 -27.5c-24 0 -46.333 3 -67 9s-37.334 14 -50.001 24l26 95c18 -16 42.667 -24 74 -24
c33.333 0 59.333 10.333 78 31s28 48 28 82c0 35.333 -11.333 62.333 -34 81s-55.334 28 -98.001 28h-45l11 104h34c34 0 60.667 9.5 80 28.5s29 43.5 29 73.5c0 31.333 -9.16699 55.166 -27.5 71.499s-44.833 24.5 -79.5 24.5c-45.333 0 -77.166 -12.833 -95.499 -38.5
s-27.5 -66.5 -27.5 -122.5v-457h-137v474c0 80 20.667 141.667 62 185s109 65 203 65c52.667 0 96.667 -8.83301 132 -26.5s61.666 -41 78.999 -70s26 -60.5 26 -94.5c0 -26 -6.16699 -51 -18.5 -75s-30.666 -43.667 -54.999 -59s-54.166 -23 -89.499 -23v-2
c40 0 73.667 -8.5 101 -25.5z" />
    <glyph glyph-name="agrave" unicode="&#xe0;" horiz-adv-x="574" 
d="M563 87l-9.99902 -83c-18.667 -9.33301 -40.334 -14 -65.001 -14c-64 0 -102.333 25 -115 75c-14.667 -24.667 -37.334 -43.334 -68.001 -56.001s-67 -19 -109 -19c-48.667 0 -86.667 11 -114 33s-41 53.667 -41 95c0 81.333 65 134 195 158l120 23v24
c0 26.667 -7.5 47.834 -22.5 63.501s-35.833 23.5 -62.5 23.5c-30.667 0 -55.667 -6.66699 -75 -20s-32.666 -35 -39.999 -65l-109 46c10.667 43.333 34.667 77.333 72 102s86 37 146 37c71.333 0 127 -15.5 167 -46.5s60 -76.833 60 -137.5v-205c0 -13.333 3 -23 9 -29
s15.333 -9 28 -9c14 0 25.333 1.33301 34 4zM319.501 104.5c24.333 14.333 36.501 33.833 36.501 58.5v52l-107 -24c-22.667 -5.33301 -39.5 -12.5 -50.5 -21.5s-16.5 -21.5 -16.5 -37.5s5 -28.167 15 -36.5s24 -12.5 42 -12.5c29.333 0 56.166 7.16699 80.499 21.5z
M334.002 572h-102l-100 170h132z" />
    <glyph glyph-name="aacute" unicode="&#xe1;" horiz-adv-x="574" 
d="M563 87l-9.99902 -83c-18.667 -9.33301 -40.334 -14 -65.001 -14c-64 0 -102.333 25 -115 75c-14.667 -24.667 -37.334 -43.334 -68.001 -56.001s-67 -19 -109 -19c-48.667 0 -86.667 11 -114 33s-41 53.667 -41 95c0 81.333 65 134 195 158l120 23v24
c0 26.667 -7.5 47.834 -22.5 63.501s-35.833 23.5 -62.5 23.5c-30.667 0 -55.667 -6.66699 -75 -20s-32.666 -35 -39.999 -65l-109 46c10.667 43.333 34.667 77.333 72 102s86 37 146 37c71.333 0 127 -15.5 167 -46.5s60 -76.833 60 -137.5v-205c0 -13.333 3 -23 9 -29
s15.333 -9 28 -9c14 0 25.333 1.33301 34 4zM319.501 104.5c24.333 14.333 36.501 33.833 36.501 58.5v52l-107 -24c-22.667 -5.33301 -39.5 -12.5 -50.5 -21.5s-16.5 -21.5 -16.5 -37.5s5 -28.167 15 -36.5s24 -12.5 42 -12.5c29.333 0 56.166 7.16699 80.499 21.5z
M411.002 742l-100 -170h-102l70 170h132z" />
    <glyph glyph-name="acircumflex" unicode="&#xe2;" horiz-adv-x="574" 
d="M563 87l-9.99902 -83c-18.667 -9.33301 -40.334 -14 -65.001 -14c-64 0 -102.333 25 -115 75c-14.667 -24.667 -37.334 -43.334 -68.001 -56.001s-67 -19 -109 -19c-48.667 0 -86.667 11 -114 33s-41 53.667 -41 95c0 81.333 65 134 195 158l120 23v24
c0 26.667 -7.5 47.834 -22.5 63.501s-35.833 23.5 -62.5 23.5c-30.667 0 -55.667 -6.66699 -75 -20s-32.666 -35 -39.999 -65l-109 46c10.667 43.333 34.667 77.333 72 102s86 37 146 37c71.333 0 127 -15.5 167 -46.5s60 -76.833 60 -137.5v-205c0 -13.333 3 -23 9 -29
s15.333 -9 28 -9c14 0 25.333 1.33301 34 4zM319.501 104.5c24.333 14.333 36.501 33.833 36.501 58.5v52l-107 -24c-22.667 -5.33301 -39.5 -12.5 -50.5 -21.5s-16.5 -21.5 -16.5 -37.5s5 -28.167 15 -36.5s24 -12.5 42 -12.5c29.333 0 56.166 7.16699 80.499 21.5z
M350.002 565l-74 96l-74 -96h-105l110 171h138l110 -171h-105z" />
    <glyph glyph-name="atilde" unicode="&#xe3;" horiz-adv-x="574" 
d="M563 87l-9.99902 -83c-18.667 -9.33301 -40.334 -14 -65.001 -14c-64 0 -102.333 25 -115 75c-14.667 -24.667 -37.334 -43.334 -68.001 -56.001s-67 -19 -109 -19c-48.667 0 -86.667 11 -114 33s-41 53.667 -41 95c0 81.333 65 134 195 158l120 23v24
c0 26.667 -7.5 47.834 -22.5 63.501s-35.833 23.5 -62.5 23.5c-30.667 0 -55.667 -6.66699 -75 -20s-32.666 -35 -39.999 -65l-109 46c10.667 43.333 34.667 77.333 72 102s86 37 146 37c71.333 0 127 -15.5 167 -46.5s60 -76.833 60 -137.5v-205c0 -13.333 3 -23 9 -29
s15.333 -9 28 -9c14 0 25.333 1.33301 34 4zM319.501 104.5c24.333 14.333 36.501 33.833 36.501 58.5v52l-107 -24c-22.667 -5.33301 -39.5 -12.5 -50.5 -21.5s-16.5 -21.5 -16.5 -37.5s5 -28.167 15 -36.5s24 -12.5 42 -12.5c29.333 0 56.166 7.16699 80.499 21.5z
M431.502 605.5c-21 -25 -50.835 -37.5 -89.502 -37.5c-19.333 0 -35.5 3.33301 -48.5 10s-26.5 16 -40.5 28c-9.33301 8 -17.166 13.833 -23.499 17.5s-13.166 5.5 -20.499 5.5c-12 0 -21.333 -5 -28 -15s-11.334 -25.333 -14.001 -46h-84c5.33301 100 47.333 150 126 150
c19.333 0 35.333 -3.33301 48 -10s26 -16 40 -28c10 -8 18 -13.833 24 -17.5s12.667 -5.5 20 -5.5c12 0 21.333 5 28 15s11.334 25.333 14.001 46h84c-2.66699 -50 -14.5 -87.5 -35.5 -112.5z" />
    <glyph glyph-name="adieresis" unicode="&#xe4;" horiz-adv-x="574" 
d="M563 87l-9.99902 -83c-18.667 -9.33301 -40.334 -14 -65.001 -14c-64 0 -102.333 25 -115 75c-14.667 -24.667 -37.334 -43.334 -68.001 -56.001s-67 -19 -109 -19c-48.667 0 -86.667 11 -114 33s-41 53.667 -41 95c0 81.333 65 134 195 158l120 23v24
c0 26.667 -7.5 47.834 -22.5 63.501s-35.833 23.5 -62.5 23.5c-30.667 0 -55.667 -6.66699 -75 -20s-32.666 -35 -39.999 -65l-109 46c10.667 43.333 34.667 77.333 72 102s86 37 146 37c71.333 0 127 -15.5 167 -46.5s60 -76.833 60 -137.5v-205c0 -13.333 3 -23 9 -29
s15.333 -9 28 -9c14 0 25.333 1.33301 34 4zM319.501 104.5c24.333 14.333 36.501 33.833 36.501 58.5v52l-107 -24c-22.667 -5.33301 -39.5 -12.5 -50.5 -21.5s-16.5 -21.5 -16.5 -37.5s5 -28.167 15 -36.5s24 -12.5 42 -12.5c29.333 0 56.166 7.16699 80.499 21.5z
M225.002 686c13.333 -12.667 20 -29.667 20 -51s-6.66699 -38.333 -20 -51s-31.666 -19 -54.999 -19c-22.667 0 -40.667 6.33301 -54 19s-20 29.667 -20 51s6.66699 38.333 20 51s31.333 19 54 19c23.333 0 41.666 -6.33301 54.999 -19zM435.502 686
c13.667 -12.667 20.5 -29.667 20.5 -51s-6.83301 -38.333 -20.5 -51s-32.167 -19 -55.5 -19c-22.667 0 -40.667 6.33301 -54 19s-20 29.667 -20 51s6.66699 38.333 20 51s31.333 19 54 19c23.333 0 41.833 -6.33301 55.5 -19z" />
    <glyph glyph-name="aring" unicode="&#xe5;" horiz-adv-x="574" 
d="M563 87l-9.99902 -83c-18.667 -9.33301 -40.334 -14 -65.001 -14c-64 0 -102.333 25 -115 75c-14.667 -24.667 -37.334 -43.334 -68.001 -56.001s-67 -19 -109 -19c-48.667 0 -86.667 11 -114 33s-41 53.667 -41 95c0 81.333 65 134 195 158l120 23v24
c0 26.667 -7.5 47.834 -22.5 63.501s-35.833 23.5 -62.5 23.5c-30.667 0 -55.667 -6.66699 -75 -20s-32.666 -35 -39.999 -65l-109 46c10.667 43.333 34.667 77.333 72 102s86 37 146 37c71.333 0 127 -15.5 167 -46.5s60 -76.833 60 -137.5v-205c0 -13.333 3 -23 9 -29
s15.333 -9 28 -9c14 0 25.333 1.33301 34 4zM319.501 104.5c24.333 14.333 36.501 33.833 36.501 58.5v52l-107 -24c-22.667 -5.33301 -39.5 -12.5 -50.5 -21.5s-16.5 -21.5 -16.5 -37.5s5 -28.167 15 -36.5s24 -12.5 42 -12.5c29.333 0 56.166 7.16699 80.499 21.5z
M371.002 767.5c23.333 -21.667 35 -50.834 35 -87.501s-11.667 -65.834 -35 -87.501s-55.333 -32.5 -96 -32.5s-72.834 10.833 -96.501 32.5s-35.5 50.834 -35.5 87.501s11.833 65.834 35.5 87.501s55.834 32.5 96.501 32.5s72.667 -10.833 96 -32.5zM232.502 722
c-11 -10.667 -16.5 -24.667 -16.5 -42c0 -16.667 5.5 -30.334 16.5 -41.001s25.167 -16 42.5 -16s31.5 5.33301 42.5 16s16.5 24.334 16.5 41.001c0 17.333 -5.5 31.333 -16.5 42s-25.167 16 -42.5 16s-31.5 -5.33301 -42.5 -16z" />
    <glyph glyph-name="ae" unicode="&#xe6;" horiz-adv-x="882" 
d="M832 208l-335 0.00292969c5.33301 -38.667 18.333 -67.667 39 -87s46.667 -29 78 -29c28.667 0 50.834 5.16699 66.501 15.5s27.167 25.833 34.5 46.5l111 -41c-32.667 -82 -104.334 -123 -215.001 -123c-86 0 -147.667 32 -185 96c-33.333 -64 -107.333 -96 -222 -96
c-52 0 -92.167 11.5 -120.5 34.5s-42.5 54.167 -42.5 93.5c0 40.667 15.167 73.5 45.5 98.5s77.166 43.5 140.499 55.5l134 26v25c0 27.333 -8.16699 48.666 -24.5 63.999s-39.5 23 -69.5 23c-55.333 0 -91.666 -27.333 -108.999 -82l-109 38
c10.667 45.333 35.167 80.666 73.5 105.999s88.5 38 150.5 38c38.667 0 72.167 -6.83301 100.5 -20.5s50.833 -33.834 67.5 -60.501c19.333 26 43 46 71 60s59.333 21 94 21c74 0 130.833 -22 170.5 -66s59.5 -101.333 59.5 -172c0 -22.667 -1.33301 -44 -4 -64z
M533 379.503c-19.333 -19.667 -31.333 -48.834 -36 -87.501h215c-3.33301 38.667 -13 67.834 -29 87.501s-40.333 29.5 -73 29.5c-32 0 -57.667 -9.83301 -77 -29.5zM326.5 110.003c23 18 34.499 42.667 34.499 74v36l-92 -21c-31.333 -8 -53.666 -16.667 -66.999 -26
s-20 -23 -20 -41c0 -16.667 5 -29 15 -37s26 -12 48 -12c31.333 0 58.5 9 81.5 27z" />
    <glyph glyph-name="ccedilla" unicode="&#xe7;" horiz-adv-x="569" 
d="M477.5 46.5c-27.667 -25.667 -63.167 -42.502 -106.5 -50.502c18 -12.667 31.667 -27.5 41 -44.5s14 -34.5 14 -52.5c0 -35.333 -12.167 -63.166 -36.5 -83.499s-56.5 -30.5 -96.5 -30.5c-52 0 -91.667 12.667 -119 38l36 71
c8.66699 -9.33301 19.167 -16.666 31.5 -21.999s25.5 -8 39.5 -8c16 0 29.167 4.83301 39.5 14.5s15.5 22.5 15.5 38.5c0 16.667 -5.33301 30.667 -16 42s-29.667 22.333 -57 33c-69.333 8 -122.833 34.333 -160.5 79s-56.5 104.334 -56.5 179.001
c0 82 22.5 145.833 67.5 191.5s107.5 68.5 187.5 68.5c66 0 117.333 -13.333 154 -40s61.667 -62.334 75 -107.001l-128 -46c-12 60.667 -44.333 91 -97 91c-39.333 0 -69.5 -13.5 -90.5 -40.5s-31.5 -66.5 -31.5 -118.5s10.667 -91.167 32 -117.5s51 -39.5 89 -39.5
c58.667 0 93.334 29.667 104.001 89l124 -40c-8.66699 -37.333 -26.834 -68.833 -54.501 -94.5z" />
    <glyph glyph-name="egrave" unicode="&#xe8;" horiz-adv-x="582" 
d="M535 198l-354 0.000976562c14 -70.667 55.667 -106 125 -106c28.667 0 52.334 5.33301 71.001 16s31.667 26 39 46l112 -41c-16 -40 -42.833 -70.5 -80.5 -91.5s-84.834 -31.5 -141.501 -31.5c-82.667 0 -146.667 22.833 -192 68.5s-68 109.5 -68 191.5
s22 145.833 66 191.5s106 68.5 186 68.5c77.333 0 136.833 -22.333 178.5 -67s62.5 -108.334 62.5 -191.001c0 -18.667 -1.33301 -36.667 -4 -54zM217.5 380.001c-19.667 -19.333 -32.167 -48 -37.5 -86h233c-5.33301 37.333 -18 65.833 -38 85.5s-46 29.5 -78 29.5
c-33.333 0 -59.833 -9.66699 -79.5 -29zM353 572.001h-102l-100 170h132z" />
    <glyph glyph-name="eacute" unicode="&#xe9;" horiz-adv-x="582" 
d="M535 198l-354 0.000976562c14 -70.667 55.667 -106 125 -106c28.667 0 52.334 5.33301 71.001 16s31.667 26 39 46l112 -41c-16 -40 -42.833 -70.5 -80.5 -91.5s-84.834 -31.5 -141.501 -31.5c-82.667 0 -146.667 22.833 -192 68.5s-68 109.5 -68 191.5
s22 145.833 66 191.5s106 68.5 186 68.5c77.333 0 136.833 -22.333 178.5 -67s62.5 -108.334 62.5 -191.001c0 -18.667 -1.33301 -36.667 -4 -54zM217.5 380.001c-19.667 -19.333 -32.167 -48 -37.5 -86h233c-5.33301 37.333 -18 65.833 -38 85.5s-46 29.5 -78 29.5
c-33.333 0 -59.833 -9.66699 -79.5 -29zM430 742.001l-100 -170h-102l70 170h132z" />
    <glyph glyph-name="ecircumflex" unicode="&#xea;" horiz-adv-x="582" 
d="M535 198l-354 0.000976562c14 -70.667 55.667 -106 125 -106c28.667 0 52.334 5.33301 71.001 16s31.667 26 39 46l112 -41c-16 -40 -42.833 -70.5 -80.5 -91.5s-84.834 -31.5 -141.501 -31.5c-82.667 0 -146.667 22.833 -192 68.5s-68 109.5 -68 191.5
s22 145.833 66 191.5s106 68.5 186 68.5c77.333 0 136.833 -22.333 178.5 -67s62.5 -108.334 62.5 -191.001c0 -18.667 -1.33301 -36.667 -4 -54zM217.5 380.001c-19.667 -19.333 -32.167 -48 -37.5 -86h233c-5.33301 37.333 -18 65.833 -38 85.5s-46 29.5 -78 29.5
c-33.333 0 -59.833 -9.66699 -79.5 -29zM369 565.001l-74 96l-74 -96h-105l110 171h138l110 -171h-105z" />
    <glyph glyph-name="edieresis" unicode="&#xeb;" horiz-adv-x="582" 
d="M535 198l-354 0.000976562c14 -70.667 55.667 -106 125 -106c28.667 0 52.334 5.33301 71.001 16s31.667 26 39 46l112 -41c-16 -40 -42.833 -70.5 -80.5 -91.5s-84.834 -31.5 -141.501 -31.5c-82.667 0 -146.667 22.833 -192 68.5s-68 109.5 -68 191.5
s22 145.833 66 191.5s106 68.5 186 68.5c77.333 0 136.833 -22.333 178.5 -67s62.5 -108.334 62.5 -191.001c0 -18.667 -1.33301 -36.667 -4 -54zM217.5 380.001c-19.667 -19.333 -32.167 -48 -37.5 -86h233c-5.33301 37.333 -18 65.833 -38 85.5s-46 29.5 -78 29.5
c-33.333 0 -59.833 -9.66699 -79.5 -29zM244 686.001c13.333 -12.667 20 -29.667 20 -51s-6.66699 -38.333 -20 -51s-31.666 -19 -54.999 -19c-22.667 0 -40.667 6.33301 -54 19s-20 29.667 -20 51s6.66699 38.333 20 51s31.333 19 54 19
c23.333 0 41.666 -6.33301 54.999 -19zM454.5 686.001c13.667 -12.667 20.5 -29.667 20.5 -51s-6.83301 -38.333 -20.5 -51s-32.167 -19 -55.5 -19c-22.667 0 -40.667 6.33301 -54 19s-20 29.667 -20 51s6.66699 38.333 20 51s31.333 19 54 19
c23.333 0 41.833 -6.33301 55.5 -19z" />
    <glyph glyph-name="igrave" unicode="&#xec;" horiz-adv-x="282" 
d="M209 0h-137v500h137v-500zM199 572h-102l-100 170h132z" />
    <glyph glyph-name="iacute" unicode="&#xed;" horiz-adv-x="282" 
d="M209 0h-137v500h137v-500zM282 742l-100 -170h-102l70 170h132z" />
    <glyph glyph-name="icircumflex" unicode="&#xee;" horiz-adv-x="282" 
d="M209 0h-137v500h137v-500zM215 565l-74 96l-74 -96h-105l110 171h138l110 -171h-105z" />
    <glyph glyph-name="idieresis" unicode="&#xef;" horiz-adv-x="282" 
d="M-2 582.5c-12.667 12.333 -19 29.833 -19 52.5s6.33301 40.167 19 52.5s30.334 18.5 53.001 18.5s40.334 -6.16699 53.001 -18.5s19 -29.833 19 -52.5s-6.33301 -40.167 -19 -52.5s-30.334 -18.5 -53.001 -18.5s-40.334 6.16699 -53.001 18.5zM178 582.5
c-12.667 12.333 -19 29.833 -19 52.5s6.33301 40.167 19 52.5s30.334 18.5 53.001 18.5s40.334 -6.16699 53.001 -18.5s19 -29.833 19 -52.5s-6.33301 -40.167 -19 -52.5s-30.334 -18.5 -53.001 -18.5s-40.334 6.16699 -53.001 18.5zM209 0h-137v500h137v-500z" />
    <glyph glyph-name="eth" unicode="&#xf0;" horiz-adv-x="610" 
d="M462 607c62.667 -84 94.0029 -187 94.0029 -309c0 -101.333 -21.333 -178 -64 -230s-108.334 -78 -197.001 -78c-76.667 0 -136.834 22.167 -180.501 66.5s-65.5 105.833 -65.5 184.5c0 51.333 10.167 95.833 30.5 133.5s48.666 66.5 84.999 86.5s77.833 30 124.5 30
c71.333 0 122 -23.333 152 -70c-14 64.667 -39.667 119 -77 163l-172 -39l-10 53l145 25c-36 34 -83 68 -141 102h140c36.667 -20.667 71 -47 103 -79l116 29l14 -54zM394.003 133c21.333 27.333 32 63.333 32 108c0 50.667 -10.167 89 -30.5 115s-49.833 39 -88.5 39
s-68.167 -13 -88.5 -39s-30.5 -64.333 -30.5 -115c0 -48.667 10 -85.667 30 -111s48.667 -38 86 -38c38.667 0 68.667 13.667 90 41z" />
    <glyph glyph-name="ntilde" unicode="&#xf1;" horiz-adv-x="619" 
d="M500.5 463c33 -31.333 49.5 -76.333 49.5 -135v-328h-137v288c0 76 -29.667 114 -89 114c-32 0 -59.167 -11.333 -81.5 -34s-33.5 -57.334 -33.5 -104.001v-264h-137v500h123l4 -89c16.667 32.667 39.667 57.334 69 74.001s63.333 25 102 25c54 0 97.5 -15.667 130.5 -47
zM470.5 605.5c-21 -25 -50.835 -37.5 -89.502 -37.5c-19.333 0 -35.5 3.33301 -48.5 10s-26.5 16 -40.5 28c-9.33301 8 -17.166 13.833 -23.499 17.5s-13.166 5.5 -20.499 5.5c-12 0 -21.333 -5 -28 -15s-11.334 -25.333 -14.001 -46h-84c5.33301 100 47.333 150 126 150
c19.333 0 35.333 -3.33301 48 -10s26 -16 40 -28c10 -8 18 -13.833 24 -17.5s12.667 -5.5 20 -5.5c12 0 21.333 5 28 15s11.334 25.333 14.001 46h84c-2.66699 -50 -14.5 -87.5 -35.5 -112.5z" />
    <glyph glyph-name="ograve" unicode="&#xf2;" 
d="M490.5 441c45 -46 67.5 -109.667 67.5 -191s-22.5 -145 -67.5 -191s-107.833 -69 -188.5 -69s-143.5 23 -188.5 69s-67.5 109.667 -67.5 191s22.5 145 67.5 191s107.833 69 188.5 69s143.5 -23 188.5 -69zM213.5 368.5c-20.333 -26.333 -30.5 -65.833 -30.5 -118.5
s10.167 -92.167 30.5 -118.5s49.833 -39.5 88.5 -39.5s68.167 13.167 88.5 39.5s30.5 65.833 30.5 118.5s-10.167 92.167 -30.5 118.5s-49.833 39.5 -88.5 39.5s-68.167 -13.167 -88.5 -39.5zM360 572h-102l-100 170h132z" />
    <glyph glyph-name="oacute" unicode="&#xf3;" 
d="M490.5 441c45 -46 67.5 -109.667 67.5 -191s-22.5 -145 -67.5 -191s-107.833 -69 -188.5 -69s-143.5 23 -188.5 69s-67.5 109.667 -67.5 191s22.5 145 67.5 191s107.833 69 188.5 69s143.5 -23 188.5 -69zM213.5 368.5c-20.333 -26.333 -30.5 -65.833 -30.5 -118.5
s10.167 -92.167 30.5 -118.5s49.833 -39.5 88.5 -39.5s68.167 13.167 88.5 39.5s30.5 65.833 30.5 118.5s-10.167 92.167 -30.5 118.5s-49.833 39.5 -88.5 39.5s-68.167 -13.167 -88.5 -39.5zM437 742l-100 -170h-102l70 170h132z" />
    <glyph glyph-name="ocircumflex" unicode="&#xf4;" 
d="M490.5 441c45 -46 67.5 -109.667 67.5 -191s-22.5 -145 -67.5 -191s-107.833 -69 -188.5 -69s-143.5 23 -188.5 69s-67.5 109.667 -67.5 191s22.5 145 67.5 191s107.833 69 188.5 69s143.5 -23 188.5 -69zM213.5 368.5c-20.333 -26.333 -30.5 -65.833 -30.5 -118.5
s10.167 -92.167 30.5 -118.5s49.833 -39.5 88.5 -39.5s68.167 13.167 88.5 39.5s30.5 65.833 30.5 118.5s-10.167 92.167 -30.5 118.5s-49.833 39.5 -88.5 39.5s-68.167 -13.167 -88.5 -39.5zM376 565l-74 96l-74 -96h-105l110 171h138l110 -171h-105z" />
    <glyph glyph-name="otilde" unicode="&#xf5;" 
d="M490.5 441c45 -46 67.5 -109.667 67.5 -191s-22.5 -145 -67.5 -191s-107.833 -69 -188.5 -69s-143.5 23 -188.5 69s-67.5 109.667 -67.5 191s22.5 145 67.5 191s107.833 69 188.5 69s143.5 -23 188.5 -69zM213.5 368.5c-20.333 -26.333 -30.5 -65.833 -30.5 -118.5
s10.167 -92.167 30.5 -118.5s49.833 -39.5 88.5 -39.5s68.167 13.167 88.5 39.5s30.5 65.833 30.5 118.5s-10.167 92.167 -30.5 118.5s-49.833 39.5 -88.5 39.5s-68.167 -13.167 -88.5 -39.5zM457.5 605.5c-21 -25 -50.835 -37.5 -89.502 -37.5
c-19.333 0 -35.5 3.33301 -48.5 10s-26.5 16 -40.5 28c-9.33301 8 -17.166 13.833 -23.499 17.5s-13.166 5.5 -20.499 5.5c-12 0 -21.333 -5 -28 -15s-11.334 -25.333 -14.001 -46h-84c5.33301 100 47.333 150 126 150c19.333 0 35.333 -3.33301 48 -10s26 -16 40 -28
c10 -8 18 -13.833 24 -17.5s12.667 -5.5 20 -5.5c12 0 21.333 5 28 15s11.334 25.333 14.001 46h84c-2.66699 -50 -14.5 -87.5 -35.5 -112.5z" />
    <glyph glyph-name="odieresis" unicode="&#xf6;" 
d="M490.5 441c45 -46 67.5 -109.667 67.5 -191s-22.5 -145 -67.5 -191s-107.833 -69 -188.5 -69s-143.5 23 -188.5 69s-67.5 109.667 -67.5 191s22.5 145 67.5 191s107.833 69 188.5 69s143.5 -23 188.5 -69zM213.5 368.5c-20.333 -26.333 -30.5 -65.833 -30.5 -118.5
s10.167 -92.167 30.5 -118.5s49.833 -39.5 88.5 -39.5s68.167 13.167 88.5 39.5s30.5 65.833 30.5 118.5s-10.167 92.167 -30.5 118.5s-49.833 39.5 -88.5 39.5s-68.167 -13.167 -88.5 -39.5zM251 686c13.333 -12.667 20 -29.667 20 -51s-6.66699 -38.333 -20 -51
s-31.666 -19 -54.999 -19c-22.667 0 -40.667 6.33301 -54 19s-20 29.667 -20 51s6.66699 38.333 20 51s31.333 19 54 19c23.333 0 41.666 -6.33301 54.999 -19zM461.5 686c13.667 -12.667 20.5 -29.667 20.5 -51s-6.83301 -38.333 -20.5 -51s-32.167 -19 -55.5 -19
c-22.667 0 -40.667 6.33301 -54 19s-20 29.667 -20 51s6.66699 38.333 20 51s31.333 19 54 19c23.333 0 41.833 -6.33301 55.5 -19z" />
    <glyph glyph-name="divide" unicode="&#xf7;" 
d="M361.5 586.5c14.333 -13.667 21.5 -32.5 21.5 -56.5c0 -23.333 -7.16699 -41.833 -21.5 -55.5s-33.833 -20.5 -58.5 -20.5s-44.167 6.83301 -58.5 20.5s-21.5 32.167 -21.5 55.5c0 24 7.16699 42.833 21.5 56.5s33.833 20.5 58.5 20.5s44.167 -6.83301 58.5 -20.5z
M551 270h-498v104h498v-104zM361.5 170.5c14.333 -13.667 21.5 -32.167 21.5 -55.5c0 -24 -7.16699 -42.833 -21.5 -56.5s-33.833 -20.5 -58.5 -20.5s-44.167 6.83301 -58.5 20.5s-21.5 32.5 -21.5 56.5c0 23.333 7.16699 41.833 21.5 55.5s33.833 20.5 58.5 20.5
s44.167 -6.83301 58.5 -20.5z" />
    <glyph glyph-name="oslash" unicode="&#xf8;" horiz-adv-x="605" 
d="M451 472l39 50h67l-65 -83c44 -45.333 66 -108.333 66 -189c0 -81.333 -22.5 -145 -67.5 -191s-107.833 -69 -188.5 -69c-54.667 0 -101.334 10.667 -140.001 32l-40 -53h-67l64 85c-24 22 -42.167 49.667 -54.5 83s-18.5 71 -18.5 113c0 81.333 22.5 145 67.5 191
s107.833 69 188.5 69c58.667 0 108.334 -12.667 149.001 -38zM207 156l28.001 39.999l141 187c-18.667 16.667 -43.334 25 -74.001 25c-38.667 0 -68.167 -13.167 -88.5 -39.5s-30.5 -65.833 -30.5 -118.5c0 -37.333 7.66699 -68.666 23 -93.999h1zM390.501 131.499
c20.333 26.333 30.5 65.833 30.5 118.5c0 34 -6.33301 61.667 -19 83h-1l-25 -37l-140 -185c16.667 -12.667 38.667 -19 66 -19c38.667 0 68.167 13.167 88.5 39.5z" />
    <glyph glyph-name="ugrave" unicode="&#xf9;" horiz-adv-x="619" 
d="M547 500l-0.00195312 -500h-122l-5 86c-32 -64 -90.333 -96 -175 -96c-54 0 -96.833 14.5 -128.5 43.5s-47.5 74.167 -47.5 135.5v331h137v-296c0 -38.667 7.33301 -66 22 -82s36.334 -24 65.001 -24c34.667 0 62.834 11.167 84.501 33.5s32.5 55.833 32.5 100.5v268h137
zM363.998 572h-102l-100 170h132z" />
    <glyph glyph-name="uacute" unicode="&#xfa;" horiz-adv-x="619" 
d="M547 500l-0.00195312 -500h-122l-5 86c-32 -64 -90.333 -96 -175 -96c-54 0 -96.833 14.5 -128.5 43.5s-47.5 74.167 -47.5 135.5v331h137v-296c0 -38.667 7.33301 -66 22 -82s36.334 -24 65.001 -24c34.667 0 62.834 11.167 84.501 33.5s32.5 55.833 32.5 100.5v268h137
zM441.998 742l-100 -170h-102l70 170h132z" />
    <glyph glyph-name="ucircumflex" unicode="&#xfb;" horiz-adv-x="619" 
d="M547 500l-0.00195312 -500h-122l-5 86c-32 -64 -90.333 -96 -175 -96c-54 0 -96.833 14.5 -128.5 43.5s-47.5 74.167 -47.5 135.5v331h137v-296c0 -38.667 7.33301 -66 22 -82s36.334 -24 65.001 -24c34.667 0 62.834 11.167 84.501 33.5s32.5 55.833 32.5 100.5v268h137
zM379.998 565l-74 96l-74 -96h-105l110 171h138l110 -171h-105z" />
    <glyph glyph-name="udieresis" unicode="&#xfc;" horiz-adv-x="619" 
d="M547 500l-0.00195312 -500h-122l-5 86c-32 -64 -90.333 -96 -175 -96c-54 0 -96.833 14.5 -128.5 43.5s-47.5 74.167 -47.5 135.5v331h137v-296c0 -38.667 7.33301 -66 22 -82s36.334 -24 65.001 -24c34.667 0 62.834 11.167 84.501 33.5s32.5 55.833 32.5 100.5v268h137
zM255.998 686c13.333 -12.667 20 -29.667 20 -51s-6.66699 -38.333 -20 -51s-31.666 -19 -54.999 -19c-22.667 0 -40.667 6.33301 -54 19s-20 29.667 -20 51s6.66699 38.333 20 51s31.333 19 54 19c23.333 0 41.666 -6.33301 54.999 -19zM466.498 686
c13.667 -12.667 20.5 -29.667 20.5 -51s-6.83301 -38.333 -20.5 -51s-32.167 -19 -55.5 -19c-22.667 0 -40.667 6.33301 -54 19s-20 29.667 -20 51s6.66699 38.333 20 51s31.333 19 54 19c23.333 0 41.833 -6.33301 55.5 -19z" />
    <glyph glyph-name="yacute" unicode="&#xfd;" horiz-adv-x="557" 
d="M349 -31c-24.667 -68 -53.1689 -115.668 -85.502 -143.001s-75.5 -41 -129.5 -41s-96.333 13 -127 39l34 97c10.667 -12 22.5 -20.167 35.5 -24.5s29.167 -6.5 48.5 -6.5c20.667 0 37.334 4.33301 50.001 13s23.334 24.334 32.001 47.001l18 43l-55 130l-153 377h152
l94 -300l27 -100l30 106l92 294h139zM426.998 741.999l-100 -170h-102l70 170h132z" />
    <glyph glyph-name="thorn" unicode="&#xfe;" horiz-adv-x="629" 
d="M522 443.5c38.667 -44.333 57.998 -107.834 57.998 -190.501c0 -59.333 -9.66699 -108.666 -29 -147.999s-45.166 -68.333 -77.499 -87s-68.166 -28 -107.499 -28c-35.333 0 -66.5 7.5 -93.5 22.5s-48.167 35.5 -63.5 61.5v-284h-137v929h137v-299c16 28 37.5 50 64.5 66
s58.833 24 95.5 24c63.333 0 114.333 -22.167 153 -66.5zM412.498 134.499c20.333 26.333 30.5 64.832 30.5 115.499s-10.167 89.167 -30.5 115.5s-49.5 39.5 -87.5 39.5c-35.333 0 -63.5 -13 -84.5 -39s-31.5 -63 -31.5 -111v-10c0 -47.333 10.333 -84.166 31 -110.499
s49 -39.5 85 -39.5c38 0 67.167 13.167 87.5 39.5z" />
    <glyph glyph-name="ydieresis" unicode="&#xff;" horiz-adv-x="557" 
d="M349 -31c-24.667 -68 -53.1689 -115.668 -85.502 -143.001s-75.5 -41 -129.5 -41s-96.333 13 -127 39l34 97c10.667 -12 22.5 -20.167 35.5 -24.5s29.167 -6.5 48.5 -6.5c20.667 0 37.334 4.33301 50.001 13s23.334 24.334 32.001 47.001l18 43l-55 130l-153 377h152
l94 -300l27 -100l30 106l92 294h139zM240.998 685.999c13.333 -12.667 20 -29.667 20 -51s-6.66699 -38.333 -20 -51s-31.666 -19 -54.999 -19c-22.667 0 -40.667 6.33301 -54 19s-20 29.667 -20 51s6.66699 38.333 20 51s31.333 19 54 19
c23.333 0 41.666 -6.33301 54.999 -19zM451.498 685.999c13.667 -12.667 20.5 -29.667 20.5 -51s-6.83301 -38.333 -20.5 -51s-32.167 -19 -55.5 -19c-22.667 0 -40.667 6.33301 -54 19s-20 29.667 -20 51s6.66699 38.333 20 51s31.333 19 54 19
c23.333 0 41.833 -6.33301 55.5 -19z" />
    <glyph glyph-name="Amacron" unicode="&#x100;" horiz-adv-x="671" 
d="M461 161h-254l-54 -161h-141l241 660h165l241 -660h-143zM427 263l-62 186l-30 100h-2l-28 -98l-64 -188h186zM517 739h-364v91h364v-91z" />
    <glyph glyph-name="amacron" unicode="&#x101;" horiz-adv-x="574" 
d="M563 87l-9.99902 -83c-18.667 -9.33301 -40.334 -14 -65.001 -14c-64 0 -102.333 25 -115 75c-14.667 -24.667 -37.334 -43.334 -68.001 -56.001s-67 -19 -109 -19c-48.667 0 -86.667 11 -114 33s-41 53.667 -41 95c0 81.333 65 134 195 158l120 23v24
c0 26.667 -7.5 47.834 -22.5 63.501s-35.833 23.5 -62.5 23.5c-30.667 0 -55.667 -6.66699 -75 -20s-32.666 -35 -39.999 -65l-109 46c10.667 43.333 34.667 77.333 72 102s86 37 146 37c71.333 0 127 -15.5 167 -46.5s60 -76.833 60 -137.5v-205c0 -13.333 3 -23 9 -29
s15.333 -9 28 -9c14 0 25.333 1.33301 34 4zM319.501 104.5c24.333 14.333 36.501 33.833 36.501 58.5v52l-107 -24c-22.667 -5.33301 -39.5 -12.5 -50.5 -21.5s-16.5 -21.5 -16.5 -37.5s5 -28.167 15 -36.5s24 -12.5 42 -12.5c29.333 0 56.166 7.16699 80.499 21.5z
M458.002 579h-364v91h364v-91z" />
    <glyph glyph-name="Abreve" unicode="&#x102;" horiz-adv-x="671" 
d="M461 161h-254l-54 -161h-141l241 660h165l241 -660h-143zM427 263l-62 186l-30 100h-2l-28 -98l-64 -188h186zM452.5 765.5c-29 -28.333 -68.167 -42.5 -117.5 -42.5s-88.5 14.167 -117.5 42.5s-43.5 66.5 -43.5 114.5h93c0 -21.333 6.33301 -39.166 19 -53.499
s29 -21.5 49 -21.5s36.333 7.16699 49 21.5s19 32.166 19 53.499h93c0 -48 -14.5 -86.167 -43.5 -114.5z" />
    <glyph glyph-name="abreve" unicode="&#x103;" horiz-adv-x="574" 
d="M563 87l-9.99902 -83c-18.667 -9.33301 -40.334 -14 -65.001 -14c-64 0 -102.333 25 -115 75c-14.667 -24.667 -37.334 -43.334 -68.001 -56.001s-67 -19 -109 -19c-48.667 0 -86.667 11 -114 33s-41 53.667 -41 95c0 81.333 65 134 195 158l120 23v24
c0 26.667 -7.5 47.834 -22.5 63.501s-35.833 23.5 -62.5 23.5c-30.667 0 -55.667 -6.66699 -75 -20s-32.666 -35 -39.999 -65l-109 46c10.667 43.333 34.667 77.333 72 102s86 37 146 37c71.333 0 127 -15.5 167 -46.5s60 -76.833 60 -137.5v-205c0 -13.333 3 -23 9 -29
s15.333 -9 28 -9c14 0 25.333 1.33301 34 4zM319.501 104.5c24.333 14.333 36.501 33.833 36.501 58.5v52l-107 -24c-22.667 -5.33301 -39.5 -12.5 -50.5 -21.5s-16.5 -21.5 -16.5 -37.5s5 -28.167 15 -36.5s24 -12.5 42 -12.5c29.333 0 56.166 7.16699 80.499 21.5z
M393.502 605.5c-29 -28.333 -68.167 -42.5 -117.5 -42.5s-88.5 14.167 -117.5 42.5s-43.5 66.5 -43.5 114.5h93c0 -21.333 6.33301 -39.166 19 -53.499s29 -21.5 49 -21.5s36.333 7.16699 49 21.5s19 32.166 19 53.499h93c0 -48 -14.5 -86.167 -43.5 -114.5z" />
    <glyph glyph-name="Aogonek" unicode="&#x104;" horiz-adv-x="671" 
d="M668 -193c-22 -14.667 -54 -22 -96 -22c-39.333 0 -71.166 9.5 -95.499 28.5s-36.5 46.167 -36.5 81.5c0 46.667 24.667 83 74 109l-53 157h-254l-54 -161h-141l241 660h165l241 -660c-44.667 -10.667 -75.834 -23 -93.501 -37s-26.5 -30.667 -26.5 -50
c0 -14.667 5.33301 -26.167 16 -34.5s25 -12.5 43 -12.5c22 0 38.667 3.66699 50 11zM427 263l-62 186l-30 100h-2l-28 -98l-64 -188h186z" />
    <glyph glyph-name="aogonek" unicode="&#x105;" horiz-adv-x="574" 
d="M541 -123l20 -71.001c-22.667 -14 -53.667 -21 -93 -21s-70.833 9.33301 -94.5 28s-35.5 45 -35.5 79c0 54.667 32.667 94.667 98 120c-30 10.667 -49 32 -57 64c-13.333 -27.333 -35.833 -48.5 -67.5 -63.5s-70.167 -22.5 -115.5 -22.5c-48.667 0 -86.667 11 -114 33
s-41 53.667 -41 95c0 81.333 65 134 195 158l120 23v24c0 26.667 -7.5 47.834 -22.5 63.501s-35.833 23.5 -62.5 23.5c-30.667 0 -55.667 -6.66699 -75 -20s-32.666 -35 -39.999 -65l-109 46c10.667 43.333 34.667 77.333 72 102s86 37 146 37c71.333 0 127 -15.5 167 -46.5
s60 -76.833 60 -137.5v-205c0 -13.333 3 -23 9 -29s15.333 -9 28 -9c14 0 25.333 1.33301 34 4l-10 -83c-41.333 -10 -71 -22.333 -89 -37s-27 -32.334 -27 -53.001c0 -15.333 4.66699 -27.166 14 -35.499s22.666 -12.5 39.999 -12.5c22 0 38.667 3.66699 50 11z
M319.5 104.499c24.333 14.333 36.501 33.833 36.501 58.5v52l-107 -24c-22.667 -5.33301 -39.5 -12.5 -50.5 -21.5s-16.5 -21.5 -16.5 -37.5s5 -28.167 15 -36.5s24 -12.5 42 -12.5c29.333 0 56.166 7.16699 80.499 21.5z" />
    <glyph glyph-name="Cacute" unicode="&#x106;" horiz-adv-x="683" 
d="M497 885l-89 -155h-103l56 155h136zM548 38.5c-49.333 -32.333 -108.335 -48.499 -177.002 -48.499c-64.667 0 -121 13.667 -169 41s-84.833 66.5 -110.5 117.5s-38.5 111.5 -38.5 181.5s12.833 130.5 38.5 181.5s62.334 90.167 110.001 117.5s103.5 41 167.5 41
c68.667 0 126.834 -14.333 174.501 -43s80.5 -71.334 98.5 -128.001l-125 -53c-10.667 39.333 -27.334 67.666 -50.001 84.999s-53.334 26 -92.001 26c-56 0 -99.833 -19.667 -131.5 -59s-47.5 -95.333 -47.5 -168s15.333 -128.667 46 -168s74 -59 130 -59
c80.667 0 131.334 39 152.001 117l127 -38c-19.333 -63.333 -53.666 -111.166 -102.999 -143.499z" />
    <glyph glyph-name="cacute" unicode="&#x107;" horiz-adv-x="569" 
d="M455 470c36.667 -26.667 61.666 -62.333 74.999 -107l-128 -46c-12 60.667 -44.333 91 -97 91c-39.333 0 -69.5 -13.5 -90.5 -40.5s-31.5 -66.5 -31.5 -118.5s10.667 -91.167 32 -117.5s51 -39.5 89 -39.5c58.667 0 93.334 29.667 104.001 89l124 -40
c-10.667 -46 -35.5 -82.667 -74.5 -110s-89.5 -41 -151.5 -41c-82.667 0 -146.667 22.833 -192 68.5s-68 109.5 -68 191.5s22.5 145.833 67.5 191.5s107.5 68.5 187.5 68.5c66 0 117.333 -13.333 154 -40zM430.999 742.001l-100 -170h-102l70 170h132z" />
    <glyph glyph-name="Ccaron" unicode="&#x10c;" horiz-adv-x="683" 
d="M433 727h-138l-111 167h106l74 -98l74 98h106zM548 38.5c-49.333 -32.333 -108.335 -48.499 -177.002 -48.499c-64.667 0 -121 13.667 -169 41s-84.833 66.5 -110.5 117.5s-38.5 111.5 -38.5 181.5s12.833 130.5 38.5 181.5s62.334 90.167 110.001 117.5
s103.5 41 167.5 41c68.667 0 126.834 -14.333 174.501 -43s80.5 -71.334 98.5 -128.001l-125 -53c-10.667 39.333 -27.334 67.666 -50.001 84.999s-53.334 26 -92.001 26c-56 0 -99.833 -19.667 -131.5 -59s-47.5 -95.333 -47.5 -168s15.333 -128.667 46 -168
s74 -59 130 -59c80.667 0 131.334 39 152.001 117l127 -38c-19.333 -63.333 -53.666 -111.166 -102.999 -143.499z" />
    <glyph glyph-name="ccaron" unicode="&#x10d;" horiz-adv-x="569" 
d="M455 470c36.667 -26.667 61.666 -62.333 74.999 -107l-128 -46c-12 60.667 -44.333 91 -97 91c-39.333 0 -69.5 -13.5 -90.5 -40.5s-31.5 -66.5 -31.5 -118.5s10.667 -91.167 32 -117.5s51 -39.5 89 -39.5c58.667 0 93.334 29.667 104.001 89l124 -40
c-10.667 -46 -35.5 -82.667 -74.5 -110s-89.5 -41 -151.5 -41c-82.667 0 -146.667 22.833 -192 68.5s-68 109.5 -68 191.5s22.5 145.833 67.5 191.5s107.5 68.5 187.5 68.5c66 0 117.333 -13.333 154 -40zM362.999 572.001h-138l-110 170h105l74 -95l74 95h105z" />
    <glyph glyph-name="Dcaron" unicode="&#x10e;" horiz-adv-x="719" 
d="M256 727l-111 167h106l74 -98l74 98h106l-111 -167h-138zM581 574c56.667 -57.333 85 -138.668 85 -244.001s-28.333 -186.666 -85 -243.999s-136.667 -86 -240 -86h-255v660h255c103.333 0 183.333 -28.667 240 -86zM475.5 166.498
c31.667 37.667 47.5 92.167 47.5 163.5s-15.833 125.833 -47.5 163.5s-78.834 56.5 -141.501 56.5h-110v-440h110c62.667 0 109.834 18.833 141.501 56.5z" />
    <glyph glyph-name="dcaron" unicode="&#x10f;" horiz-adv-x="687" 
d="M734 719l-48 -224h-82l20 224h110zM419 719h136.999v-719h-122l-6 93c-14.667 -31.333 -36.5 -56.333 -65.5 -75s-62.167 -28 -99.5 -28c-66.667 0 -119 22.833 -157 68.5s-57 109.167 -57 190.5c0 82 19 146 57 192s90.333 69 157 69c36 0 67.333 -8.16699 94 -24.5
s47.334 -38.833 62.001 -67.5v301zM387.999 134c20.667 26 31 63.001 31 111.001v10c0 47.333 -10.333 84.166 -31 110.499s-49 39.5 -85 39.5c-36.667 0 -65.334 -13.333 -86.001 -40s-31 -65 -31 -115s10.333 -88.333 31 -115s49.334 -40 86.001 -40c36 0 64.333 13 85 39
z" />
    <glyph glyph-name="Dcroat" unicode="&#x110;" horiz-adv-x="740" 
d="M601.5 574c56.333 -57.333 84.5 -138.668 84.5 -244.001s-28.167 -186.666 -84.5 -243.999s-136.166 -86 -239.499 -86h-255v284h-89v94h89v282h255c103.333 0 183.166 -28.667 239.499 -86zM496 166.498c32 37.667 48 92.167 48 163.5s-16 125.833 -48 163.5
s-79.333 56.5 -142 56.5h-109v-172h154v-94h-154v-174h109c62.667 0 110 18.833 142 56.5z" />
    <glyph glyph-name="dcroat" unicode="&#x111;" horiz-adv-x="628" 
d="M633 548h-77.001v-548h-122l-6 93c-14.667 -31.333 -36.5 -56.333 -65.5 -75s-62.167 -28 -99.5 -28c-66.667 0 -119 22.833 -157 68.5s-57 109.167 -57 190.5c0 82 19 146 57 192s90.333 69 157 69c36 0 67.333 -8.16699 94 -24.5s47.334 -38.833 62.001 -67.5v130h-140
v84h140v87h137v-87h77v-84zM387.999 134c20.667 26 31 63.001 31 111.001v10c0 47.333 -10.333 84.166 -31 110.499s-49 39.5 -85 39.5c-36.667 0 -65.334 -13.333 -86.001 -40s-31 -65 -31 -115s10.333 -88.333 31 -115s49.334 -40 86.001 -40c36 0 64.333 13 85 39z" />
    <glyph glyph-name="Emacron" unicode="&#x112;" horiz-adv-x="633" 
d="M595 111v-111h-509v660h495v-111h-357v-164h281v-106h-281v-168h371zM511 739h-364v91h364v-91z" />
    <glyph glyph-name="emacron" unicode="&#x113;" horiz-adv-x="582" 
d="M535 198l-354 0.000976562c14 -70.667 55.667 -106 125 -106c28.667 0 52.334 5.33301 71.001 16s31.667 26 39 46l112 -41c-16 -40 -42.833 -70.5 -80.5 -91.5s-84.834 -31.5 -141.501 -31.5c-82.667 0 -146.667 22.833 -192 68.5s-68 109.5 -68 191.5
s22 145.833 66 191.5s106 68.5 186 68.5c77.333 0 136.833 -22.333 178.5 -67s62.5 -108.334 62.5 -191.001c0 -18.667 -1.33301 -36.667 -4 -54zM217.5 380.001c-19.667 -19.333 -32.167 -48 -37.5 -86h233c-5.33301 37.333 -18 65.833 -38 85.5s-46 29.5 -78 29.5
c-33.333 0 -59.833 -9.66699 -79.5 -29zM477 579.001h-364v91h364v-91z" />
    <glyph glyph-name="Edotaccent" unicode="&#x116;" horiz-adv-x="633" 
d="M595 111v-111h-509v660h495v-111h-357v-164h281v-106h-281v-168h371zM389 861c14 -12.667 21 -30.667 21 -54s-7 -41.333 -21 -54s-34 -19 -60 -19c-25.333 0 -45 6.33301 -59 19s-21 30.667 -21 54s7 41.333 21 54s33.667 19 59 19c26 0 46 -6.33301 60 -19z" />
    <glyph glyph-name="edotaccent" unicode="&#x117;" horiz-adv-x="582" 
d="M535 198l-354 0.000976562c14 -70.667 55.667 -106 125 -106c28.667 0 52.334 5.33301 71.001 16s31.667 26 39 46l112 -41c-16 -40 -42.833 -70.5 -80.5 -91.5s-84.834 -31.5 -141.501 -31.5c-82.667 0 -146.667 22.833 -192 68.5s-68 109.5 -68 191.5
s22 145.833 66 191.5s106 68.5 186 68.5c77.333 0 136.833 -22.333 178.5 -67s62.5 -108.334 62.5 -191.001c0 -18.667 -1.33301 -36.667 -4 -54zM217.5 380.001c-19.667 -19.333 -32.167 -48 -37.5 -86h233c-5.33301 37.333 -18 65.833 -38 85.5s-46 29.5 -78 29.5
c-33.333 0 -59.833 -9.66699 -79.5 -29zM355 701.001c14 -12.667 21 -30.667 21 -54s-7 -41.333 -21 -54s-34 -19 -60 -19c-25.333 0 -45 6.33301 -59 19s-21 30.667 -21 54s7 41.333 21 54s33.667 19 59 19c26 0 46 -6.33301 60 -19z" />
    <glyph glyph-name="Eogonek" unicode="&#x118;" horiz-adv-x="633" 
d="M604 -193c-22 -14.667 -53.999 -22 -95.999 -22c-39.333 0 -71 9.33301 -95 28s-36 44.667 -36 78c0 48.667 27.333 85 82 109h-373v660h495v-111h-357v-164h281v-106h-281v-168h371v-110l1 -1c-44.667 -10.667 -75.834 -23.167 -93.501 -37.5s-26.5 -30.833 -26.5 -49.5
c0 -14.667 5.16699 -26.167 15.5 -34.5s24.5 -12.5 42.5 -12.5c22 0 38.667 3.66699 50 11z" />
    <glyph glyph-name="eogonek" unicode="&#x119;" horiz-adv-x="582" 
d="M535 198l-354 0.000976562c14 -70.667 55.667 -106 125 -106c28.667 0 52.334 5.33301 71.001 16s31.667 26 39 46l112 -41c-23.333 -57.333 -67.666 -94.666 -132.999 -111.999c-26 -14.667 -45.167 -28.834 -57.5 -42.501s-18.5 -27.834 -18.5 -42.501
c0 -15.333 5.16699 -27.5 15.5 -36.5s24.166 -13.5 41.499 -13.5c22 0 38.667 3.66699 50 11l20 -71c-22.667 -14 -54.334 -21 -95.001 -21c-39.333 0 -71.166 9.5 -95.499 28.5s-36.5 45.5 -36.5 79.5c0 38.667 18.333 71.334 55 98.001
c-72.667 6 -128.834 31.5 -168.501 76.5s-59.5 105.833 -59.5 182.5c0 82 22 145.833 66 191.5s106 68.5 186 68.5c77.333 0 136.833 -22.333 178.5 -67s62.5 -108.334 62.5 -191.001c0 -18.667 -1.33301 -36.667 -4 -54zM217.5 380.001
c-19.667 -19.333 -32.167 -48 -37.5 -86h233c-5.33301 37.333 -18 65.833 -38 85.5s-46 29.5 -78 29.5c-33.333 0 -59.833 -9.66699 -79.5 -29z" />
    <glyph glyph-name="Ecaron" unicode="&#x11a;" horiz-adv-x="633" 
d="M258 727l-111 167h106l74 -98l74 98h106l-111 -167h-138zM595 111v-111h-509v660h495v-111h-357v-164h281v-106h-281v-168h371z" />
    <glyph glyph-name="ecaron" unicode="&#x11b;" horiz-adv-x="582" 
d="M535 198l-354 0.000976562c14 -70.667 55.667 -106 125 -106c28.667 0 52.334 5.33301 71.001 16s31.667 26 39 46l112 -41c-16 -40 -42.833 -70.5 -80.5 -91.5s-84.834 -31.5 -141.501 -31.5c-82.667 0 -146.667 22.833 -192 68.5s-68 109.5 -68 191.5
s22 145.833 66 191.5s106 68.5 186 68.5c77.333 0 136.833 -22.333 178.5 -67s62.5 -108.334 62.5 -191.001c0 -18.667 -1.33301 -36.667 -4 -54zM217.5 380.001c-19.667 -19.333 -32.167 -48 -37.5 -86h233c-5.33301 37.333 -18 65.833 -38 85.5s-46 29.5 -78 29.5
c-33.333 0 -59.833 -9.66699 -79.5 -29zM362 572.001h-138l-110 170h105l74 -95l74 95h105z" />
    <glyph glyph-name="Gbreve" unicode="&#x11e;" horiz-adv-x="723" 
d="M658 349v-348.999h-101l-3 79c-40 -59.333 -105 -89 -195 -89c-60.667 0 -114 13.333 -160 40s-81.833 65.5 -107.5 116.5s-38.5 111.833 -38.5 182.5c0 70 13.167 130.667 39.5 182s63.666 90.666 111.999 117.999s104.833 41 169.5 41c71.333 0 129.5 -13 174.5 -39
s80.5 -67 106.5 -123l-127 -55c-10 34 -28.167 59.833 -54.5 77.5s-58.166 26.5 -95.499 26.5c-57.333 0 -102 -19.667 -134 -59s-48 -95.333 -48 -168c0 -75.333 15.667 -132.333 47 -171s77.333 -58 138 -58c46.667 0 84.667 11.167 114 33.5s44 54.833 44 97.5v15h-193
v102h312zM486.5 765.501c-29 -28.333 -68.167 -42.5 -117.5 -42.5s-88.5 14.167 -117.5 42.5s-43.5 66.5 -43.5 114.5h93c0 -21.333 6.33301 -39.166 19 -53.499s29 -21.5 49 -21.5s36.333 7.16699 49 21.5s19 32.166 19 53.499h93c0 -48 -14.5 -86.167 -43.5 -114.5z" />
    <glyph glyph-name="gbreve" unicode="&#x11f;" horiz-adv-x="549" 
d="M164 605.5c-29.333 28.333 -44.001 66.5 -44.001 114.5h94c0 -21.333 6.33301 -39.166 19 -53.499s29 -21.5 49 -21.5s36.167 7.16699 48.5 21.5s18.5 32.166 18.5 53.499h94c0 -48 -14.5 -86.167 -43.5 -114.5s-68.167 -42.5 -117.5 -42.5s-88.666 14.167 -117.999 42.5
zM484.499 507c-18.333 -10.667 -29.1699 -27.667 -32.5029 -51c34 -30 51 -68.667 51 -116c0 -52 -20.667 -93.167 -62 -123.5s-97.333 -45.5 -168 -45.5c-33.333 0 -63.333 3 -90 9c-26 -6.66699 -39 -21.667 -39 -45c0 -13.333 5 -23.5 15 -30.5s24 -10.5 42 -10.5h169
c54 0 95.833 -12 125.5 -36s44.5 -58.333 44.5 -103c0 -53.333 -24.667 -95 -74 -125s-114 -45 -194 -45c-83.333 0 -145.333 11 -186 33s-61 52 -61 90c0 22.667 7.83301 42.334 23.5 59.001s38.5 28.667 68.5 36c-22.667 9.33301 -40.667 22.5 -54 39.5
s-20 37.167 -20 60.5c0 24 7 44.667 21 62s33.333 30.333 58 39c-25.333 14.667 -44.666 33.5 -57.999 56.5s-20 49.5 -20 79.5c0 52.667 20.5 94.167 61.5 124.5s96.833 45.5 167.5 45.5c46.667 0 88.334 -7.33301 125.001 -22c2.66699 38 17.334 69.333 44.001 94
s58.667 37 96 37l19 -98c-30 1.33301 -54.167 -3.33398 -72.5 -14.001zM338.995 280c17.333 15.333 26 35.666 26 60.999c0 24.667 -8.66699 44.667 -26 60s-39.333 23 -66 23s-48.5 -7.66699 -65.5 -23s-25.5 -35.333 -25.5 -60c0 -25.333 8.5 -45.666 25.5 -60.999
s38.833 -23 65.5 -23s48.667 7.66699 66 23zM216.995 -17c-55.333 0 -83.001 -15 -83.001 -45c0 -18.667 12.333 -33.167 37 -43.5s62 -15.5 112 -15.5c46.667 0 82.5 5.83301 107.5 17.5s37.5 26.5 37.5 44.5c0 14 -5.66699 24.5 -17 31.5s-30.666 10.5 -57.999 10.5h-136z
" />
    <glyph glyph-name="uni0122" unicode="&#x122;" horiz-adv-x="723" 
d="M658 349v-348.999h-101l-3 79c-40 -59.333 -105 -89 -195 -89c-60.667 0 -114 13.333 -160 40s-81.833 65.5 -107.5 116.5s-38.5 111.833 -38.5 182.5c0 70 13.167 130.667 39.5 182s63.666 90.666 111.999 117.999s104.833 41 169.5 41c71.333 0 129.5 -13 174.5 -39
s80.5 -67 106.5 -123l-127 -55c-10 34 -28.167 59.833 -54.5 77.5s-58.166 26.5 -95.499 26.5c-57.333 0 -102 -19.667 -134 -59s-48 -95.333 -48 -168c0 -75.333 15.667 -132.333 47 -171s77.333 -58 138 -58c46.667 0 84.667 11.167 114 33.5s44 54.833 44 97.5v15h-193
v102h312zM386 -238.999h-93l36 173h126z" />
    <glyph glyph-name="uni0123" unicode="&#x123;" horiz-adv-x="549" 
d="M336 572h-123l71 202h90zM502.5 58c29.667 -24 44.4971 -58.3301 44.4971 -102.997c0 -53.333 -24.667 -95 -74 -125s-114.333 -45 -195 -45c-83.333 0 -145.166 11 -185.499 33s-60.5 52 -60.5 90c0 22.667 7.66699 42.334 23 59.001s38 28.667 68 36
c-22.667 9.33301 -40.667 22.5 -54 39.5s-20 37.167 -20 60.5c0 24 7 44.667 21 62s33.333 30.333 58 39c-25.333 14.667 -44.666 33.5 -57.999 56.5s-20 49.5 -20 79.5c0 52.667 20.5 94.167 61.5 124.5s96.833 45.5 167.5 45.5c36 0 69.667 -4.33301 101 -13
c8.66699 39.333 25.5 70.166 50.5 92.499s58.833 32.166 101.5 29.499l18 -98c-4.66699 0.666992 -11.667 1 -21 1c-24.667 0 -45.167 -4.33301 -61.5 -13s-27.833 -20.334 -34.5 -35.001c24.667 -14.667 43.5 -33.334 56.5 -56.001s19.5 -48.667 19.5 -78
c0 -52 -20.5 -93.167 -61.5 -123.5s-97.167 -45.5 -168.5 -45.5c-32.667 0 -62.667 3 -90 9c-26 -6.66699 -39 -21.667 -39 -45c0 -13.333 5 -23.5 15 -30.5s24 -10.5 42 -10.5h169c54.667 0 96.834 -12 126.501 -36zM213.497 401.003c-17 -15.333 -25.5 -35.333 -25.5 -60
c0 -25.333 8.5 -45.666 25.5 -60.999s38.833 -23 65.5 -23c27.333 0 49.5 7.66699 66.5 23s25.5 35.666 25.5 60.999c0 24.667 -8.5 44.667 -25.5 60s-39.167 23 -66.5 23c-26.667 0 -48.5 -7.66699 -65.5 -23zM396.997 -103.497c25.333 11.667 38.001 26.5 38.001 44.5
c0 14 -5.83301 24.5 -17.5 31.5s-30.834 10.5 -57.501 10.5h-136c-55.333 0 -83 -15 -83 -45c0 -18.667 12.333 -33.167 37 -43.5s61.667 -15.5 111 -15.5c46.667 0 82.667 5.83301 108 17.5z" />
    <glyph glyph-name="Imacron" unicode="&#x12a;" horiz-adv-x="310" 
d="M284 739h-259v91h259v-91zM224 0h-138v660h138v-660z" />
    <glyph glyph-name="imacron" unicode="&#x12b;" horiz-adv-x="282" 
d="M268 579h-254v91h254v-91zM209 0h-137v500h137v-500z" />
    <glyph glyph-name="Iogonek" unicode="&#x12e;" horiz-adv-x="310" 
d="M244 -191c-24.667 -16 -57.332 -24.001 -97.999 -24.001c-38.667 0 -69.834 9.33301 -93.501 28s-35.5 44.667 -35.5 78c0 22.667 6.33301 43.334 19 62.001s30.667 34.334 54 47.001h-4v660h138v-660c-40.667 -12.667 -69 -25.834 -85 -39.501s-24 -28.834 -24 -45.501
c0 -15.333 4.66699 -27.166 14 -35.499s23 -12.5 41 -12.5c22 0 39.333 4 52 12z" />
    <glyph glyph-name="iogonek" unicode="&#x12f;" horiz-adv-x="282" 
d="M56 645c0 49.333 28.333 74 85 74s85 -24.667 85 -74c0 -48.667 -28.333 -73 -85 -73s-85 24.333 -85 73zM233 -192c-24.667 -15.333 -57.3311 -22.999 -97.998 -22.999c-38.667 0 -69.834 9.33301 -93.501 28s-35.5 44.667 -35.5 78c0 45.333 26 81.666 78 108.999h-12
v500h137v-500c-36.667 -13.333 -63.167 -27 -79.5 -41s-24.5 -30 -24.5 -48c0 -14 4.66699 -25 14 -33s22.666 -12 39.999 -12c20.667 0 38 4 52 12z" />
    <glyph glyph-name="Idotaccent" unicode="&#x130;" horiz-adv-x="310" 
d="M224 0h-138v660h138v-660zM215 861c14 -12.667 21 -30.667 21 -54s-7 -41.333 -21 -54s-34 -19 -60 -19c-25.333 0 -45 6.33301 -59 19s-21 30.667 -21 54s7 41.333 21 54s33.667 19 59 19c26 0 46 -6.33301 60 -19z" />
    <glyph glyph-name="dotlessi" unicode="&#x131;" horiz-adv-x="282" 
d="M209 0h-137v500h137v-500z" />
    <glyph glyph-name="IJ" unicode="&#x132;" horiz-adv-x="911" 
d="M224 0h-138v660h138v-660zM835 243c0 -79.333 -22.668 -141.334 -68.001 -186.001s-109 -67 -191 -67c-76 0 -133.667 17.5 -173 52.5s-59 82.833 -59 143.5c0 18.667 2 38.334 6 59.001l135 24c-2.66699 -18.667 -4 -37.334 -4 -56.001c0 -38 8 -65.833 24 -83.5
s41 -26.5 75 -26.5c42.667 0 72.834 12.833 90.501 38.5s26.5 65.834 26.5 120.501v398h138v-417z" />
    <glyph glyph-name="ij" unicode="&#x133;" horiz-adv-x="563" 
d="M56 645c0 49.333 28.333 74 85 74s85 -24.667 85 -74c0 -48.667 -28.333 -73 -85 -73s-85 24.333 -85 73zM209 0h-137v500h137v-500zM486 699.5c14.667 -13 22 -31.167 22 -54.5s-7.33301 -41.333 -22 -54s-35.667 -19 -63 -19s-48.333 6.33301 -63 19s-22 30.667 -22 54
s7.33301 41.5 22 54.5s35.667 19.5 63 19.5s48.333 -6.5 63 -19.5zM491 -37c0 -62 -16.001 -107.167 -48.001 -135.5s-75.333 -42.5 -130 -42.5c-48 0 -88 10.667 -120 32l22 98c18 -16 41.333 -24 70 -24c22.667 0 39.834 6.66699 51.501 20s17.5 35 17.5 65v524h137v-537z
" />
    <glyph glyph-name="uni0136" unicode="&#x136;" horiz-adv-x="679" 
d="M318 302l-94 -107v-195h-138v660h138v-313l271 313h160l-237 -269l245 -391h-158zM358 -239h-93l36 173h126z" />
    <glyph glyph-name="uni0137" unicode="&#x137;" horiz-adv-x="602" 
d="M300 221l-91 -97v-124h-137v719h137v-447l217 228h155l-188 -196l200 -304h-155zM315 -239h-93l36 173h126z" />
    <glyph glyph-name="Lacute" unicode="&#x139;" horiz-adv-x="601" 
d="M197 730h-103l56 155h136zM572 111v-111h-486v660h138v-549h348z" />
    <glyph glyph-name="lacute" unicode="&#x13a;" horiz-adv-x="325" 
d="M259 924l-72 -145h-102l45 145h129zM207 159c0 -24 3.50195 -40.666 10.502 -49.999s19.833 -14 38.5 -14c11.333 0 21.166 0.833008 29.499 2.5s18.166 4.5 29.499 8.5l-12 -95c-10.667 -6.66699 -24.667 -11.834 -42 -15.501s-34.333 -5.5 -51 -5.5
c-48.667 0 -84.167 11.833 -106.5 35.5s-33.5 61.5 -33.5 113.5v580h137v-560z" />
    <glyph glyph-name="uni013B" unicode="&#x13b;" horiz-adv-x="601" 
d="M572 111v-111h-486v660h138v-549h348zM337 -239h-93l36 173h126z" />
    <glyph glyph-name="uni013C" unicode="&#x13c;" horiz-adv-x="319" 
d="M207 159c0 -24 3.50195 -40.666 10.502 -49.999s19.833 -14 38.5 -14c11.333 0 21.166 0.833008 29.499 2.5s18.166 4.5 29.499 8.5l-12 -95c-10.667 -6.66699 -24.667 -11.834 -42 -15.501s-34.333 -5.5 -51 -5.5c-48.667 0 -84.167 11.833 -106.5 35.5
s-33.5 61.5 -33.5 113.5v580h137v-560zM191.002 -238.999h-93l36 173h126z" />
    <glyph glyph-name="Lcaron" unicode="&#x13d;" horiz-adv-x="601" 
d="M400 477h-89l23 224h118zM572 111v-111h-486v660h138v-549h348z" />
    <glyph glyph-name="lcaron" unicode="&#x13e;" horiz-adv-x="363" 
d="M334 495h-82l21 224h110zM207 159c0 -24 3.50195 -40.666 10.502 -49.999s19.833 -14 38.5 -14c11.333 0 21.166 0.833008 29.499 2.5s18.166 4.5 29.499 8.5l-12 -95c-10.667 -6.66699 -24.667 -11.834 -42 -15.501s-34.333 -5.5 -51 -5.5
c-48.667 0 -84.167 11.833 -106.5 35.5s-33.5 61.5 -33.5 113.5v580h137v-560z" />
    <glyph glyph-name="Ldot" unicode="&#x13f;" horiz-adv-x="634" 
d="M572 111v-111h-486v660h138v-549h348zM592.5 410c15.667 -14.667 23.5 -34.3301 23.5 -58.9971s-7.83301 -44.334 -23.5 -59.001s-36.834 -22 -63.501 -22s-47.834 7.16699 -63.501 21.5s-23.5 34.166 -23.5 59.499s7.83301 45.166 23.5 59.499s36.834 21.5 63.501 21.5
s47.834 -7.33301 63.501 -22z" />
    <glyph glyph-name="ldot" unicode="&#x140;" horiz-adv-x="464" 
d="M207 159c0 -24 3.50195 -40.666 10.502 -49.999s19.833 -14 38.5 -14c11.333 0 21.166 0.833008 29.499 2.5s18.166 4.5 29.499 8.5l-12 -95c-10.667 -6.66699 -24.667 -11.834 -42 -15.501s-34.333 -5.5 -51 -5.5c-48.667 0 -84.167 11.833 -106.5 35.5
s-33.5 61.5 -33.5 113.5v580h137v-560zM435.502 413.501c15.667 -14.333 23.5 -34.166 23.5 -59.499s-7.83301 -45.166 -23.5 -59.499s-36.834 -21.5 -63.501 -21.5s-47.834 7.16699 -63.501 21.5s-23.5 34.166 -23.5 59.499s7.83301 45.166 23.5 59.499
s36.834 21.5 63.501 21.5s47.834 -7.16699 63.501 -21.5z" />
    <glyph glyph-name="Lslash" unicode="&#x141;" horiz-adv-x="638" 
d="M610 111v-111h-486v232l-109 -55v110l109 54v319h138v-249l173 87v-110l-173 -87v-190h348z" />
    <glyph glyph-name="lslash" unicode="&#x142;" horiz-adv-x="386" 
d="M250 338l0.00195312 -178.999c0 -24 3.5 -40.667 10.5 -50s19.833 -14 38.5 -14c11.333 0 21.166 0.833008 29.499 2.5s18.166 4.5 29.499 8.5l-12 -95c-10.667 -6.66699 -24.5 -11.834 -41.5 -15.501s-34.167 -5.5 -51.5 -5.5c-48.667 0 -84.167 11.833 -106.5 35.5
s-33.5 61.5 -33.5 113.5v116l-90 -58v109l90 48v365h137v-284l110 72v-110z" />
    <glyph glyph-name="Nacute" unicode="&#x143;" horiz-adv-x="739" 
d="M503 885l-89 -155h-103l56 155h136zM653 0h-158l-231 388l-57 111h-1l4 -117v-382h-124v660h157l231 -387l57 -112h2l-4 117v382h124v-660z" />
    <glyph glyph-name="nacute" unicode="&#x144;" horiz-adv-x="619" 
d="M500.5 463c33 -31.333 49.5 -76.333 49.5 -135v-328h-137v288c0 76 -29.667 114 -89 114c-32 0 -59.167 -11.333 -81.5 -34s-33.5 -57.334 -33.5 -104.001v-264h-137v500h123l4 -89c16.667 32.667 39.667 57.334 69 74.001s63.333 25 102 25c54 0 97.5 -15.667 130.5 -47
zM450 742l-100 -170h-102l70 170h132z" />
    <glyph glyph-name="uni0145" unicode="&#x145;" horiz-adv-x="739" 
d="M653 0h-158l-231 388l-57 111h-1l4 -117v-382h-124v660h157l231 -387l57 -112h2l-4 117v382h124v-660zM380 -239h-93l36 173h126z" />
    <glyph glyph-name="uni0146" unicode="&#x146;" horiz-adv-x="619" 
d="M500.5 463c33 -31.333 49.5 -76.333 49.5 -135v-328h-137v288c0 76 -29.667 114 -89 114c-32 0 -59.167 -11.333 -81.5 -34s-33.5 -57.334 -33.5 -104.001v-264h-137v500h123l4 -89c16.667 32.667 39.667 57.334 69 74.001s63.333 25 102 25c54 0 97.5 -15.667 130.5 -47
zM319 -239h-93l36 173h126z" />
    <glyph glyph-name="Ncaron" unicode="&#x147;" horiz-adv-x="739" 
d="M438 727h-138l-111 167h106l74 -98l74 98h106zM653 0h-158l-231 388l-57 111h-1l4 -117v-382h-124v660h157l231 -387l57 -112h2l-4 117v382h124v-660z" />
    <glyph glyph-name="ncaron" unicode="&#x148;" horiz-adv-x="619" 
d="M500.5 463c33 -31.333 49.5 -76.333 49.5 -135v-328h-137v288c0 76 -29.667 114 -89 114c-32 0 -59.167 -11.333 -81.5 -34s-33.5 -57.334 -33.5 -104.001v-264h-137v500h123l4 -89c16.667 32.667 39.667 57.334 69 74.001s63.333 25 102 25c54 0 97.5 -15.667 130.5 -47
zM381 572h-138l-110 170h105l74 -95l74 95h105z" />
    <glyph glyph-name="Omacron" unicode="&#x14c;" horiz-adv-x="741" 
d="M539.5 629c47.667 -27.333 84.334 -66.5 110.001 -117.5s38.5 -111.5 38.5 -181.5s-12.833 -130.5 -38.5 -181.5s-62.334 -90.167 -110.001 -117.5s-103.834 -41 -168.501 -41s-121 13.667 -169 41s-84.833 66.5 -110.5 117.5s-38.5 111.5 -38.5 181.5
s12.833 130.5 38.5 181.5s62.5 90.167 110.5 117.5s104.333 41 169 41s120.834 -13.667 168.501 -41zM241.5 498.5c-30.333 -39 -45.5 -95.167 -45.5 -168.5s15.167 -129.5 45.5 -168.5s73.5 -58.5 129.5 -58.5c55.333 0 98.166 19.5 128.499 58.5s45.5 95.167 45.5 168.5
s-15.167 129.5 -45.5 168.5s-73.166 58.5 -128.499 58.5c-56 0 -99.167 -19.5 -129.5 -58.5zM553 739h-364v91h364v-91z" />
    <glyph glyph-name="omacron" unicode="&#x14d;" 
d="M490.5 441c45 -46 67.5 -109.667 67.5 -191s-22.5 -145 -67.5 -191s-107.833 -69 -188.5 -69s-143.5 23 -188.5 69s-67.5 109.667 -67.5 191s22.5 145 67.5 191s107.833 69 188.5 69s143.5 -23 188.5 -69zM213.5 368.5c-20.333 -26.333 -30.5 -65.833 -30.5 -118.5
s10.167 -92.167 30.5 -118.5s49.833 -39.5 88.5 -39.5s68.167 13.167 88.5 39.5s30.5 65.833 30.5 118.5s-10.167 92.167 -30.5 118.5s-49.833 39.5 -88.5 39.5s-68.167 -13.167 -88.5 -39.5zM484 579h-364v91h364v-91z" />
    <glyph glyph-name="Ohungarumlaut" unicode="&#x150;" horiz-adv-x="741" 
d="M406 885l-90 -155h-102l55 155h137zM613 885l-90 -155h-102l55 155h137zM539.5 629c47.667 -27.333 84.334 -66.5 110.001 -117.5s38.5 -111.5 38.5 -181.5s-12.833 -130.5 -38.5 -181.5s-62.334 -90.167 -110.001 -117.5s-103.834 -41 -168.501 -41s-121 13.667 -169 41
s-84.833 66.5 -110.5 117.5s-38.5 111.5 -38.5 181.5s12.833 130.5 38.5 181.5s62.5 90.167 110.5 117.5s104.333 41 169 41s120.834 -13.667 168.501 -41zM241.5 498.5c-30.333 -39 -45.5 -95.167 -45.5 -168.5s15.167 -129.5 45.5 -168.5s73.5 -58.5 129.5 -58.5
c55.333 0 98.166 19.5 128.499 58.5s45.5 95.167 45.5 168.5s-15.167 129.5 -45.5 168.5s-73.166 58.5 -128.499 58.5c-56 0 -99.167 -19.5 -129.5 -58.5z" />
    <glyph glyph-name="ohungarumlaut" unicode="&#x151;" 
d="M490.5 441c45 -46 67.5 -109.667 67.5 -191s-22.5 -145 -67.5 -191s-107.833 -69 -188.5 -69s-143.5 23 -188.5 69s-67.5 109.667 -67.5 191s22.5 145 67.5 191s107.833 69 188.5 69s143.5 -23 188.5 -69zM213.5 368.5c-20.333 -26.333 -30.5 -65.833 -30.5 -118.5
s10.167 -92.167 30.5 -118.5s49.833 -39.5 88.5 -39.5s68.167 13.167 88.5 39.5s30.5 65.833 30.5 118.5s-10.167 92.167 -30.5 118.5s-49.833 39.5 -88.5 39.5s-68.167 -13.167 -88.5 -39.5zM236 572h-98l72 170h122zM435 572h-98l71 170h123z" />
    <glyph glyph-name="OE" unicode="&#x152;" horiz-adv-x="1060" 
d="M1022 111l-0.000976562 -111h-453v85c-25.333 -30 -55.5 -53.333 -90.5 -70s-74.167 -25 -117.5 -25c-62.667 0 -117.167 13.667 -163.5 41s-82 66.5 -107 117.5s-37.5 111.5 -37.5 181.5s12.5 130.5 37.5 181.5s60.833 90.167 107.5 117.5s101.667 41 165 41
c43.333 0 82.333 -8 117 -24s64.334 -39 89.001 -69v83h439v-111h-339v-164h263v-106h-263v-168h353zM490.499 162c29.667 39.333 44.5 95.333 44.5 168s-14.833 128.667 -44.5 168s-70.5 59 -122.5 59c-56.667 0 -99.834 -19.5 -129.501 -58.5s-44.5 -95.167 -44.5 -168.5
s14.833 -129.5 44.5 -168.5s72.834 -58.5 129.501 -58.5c52 0 92.833 19.667 122.5 59z" />
    <glyph glyph-name="oe" unicode="&#x153;" horiz-adv-x="967" 
d="M917 215h-353.997c10 -82 52.333 -123 127 -123c28.667 0 52.5 5.33301 71.5 16s31.833 26 38.5 46l112 -41c-16 -40 -42.833 -70.5 -80.5 -91.5s-84.834 -31.5 -141.501 -31.5c-44 0 -82.5 8.16699 -115.5 24.5s-59.167 40.166 -78.5 71.499
c-20 -31.333 -46.667 -55.166 -80 -71.499s-72.333 -24.5 -117 -24.5c-78.667 0 -140.5 23 -185.5 69s-67.5 109.667 -67.5 191s22.5 145 67.5 191s106.833 69 185.5 69c44.667 0 83.5 -8.16699 116.5 -24.5s59.5 -39.833 79.5 -70.5
c19.333 30.667 44.666 54.167 75.999 70.5s68.333 24.5 111 24.5c50.667 0 94.167 -10.167 130.5 -30.5s63.666 -48.5 81.999 -84.5s27.5 -77 27.5 -123c0 -23.333 -1.66699 -42.333 -5 -57zM601.503 379c-20.333 -20 -32.834 -49.333 -37.501 -88h228
c-4.66699 38 -16.167 67.167 -34.5 87.5s-43.5 30.5 -75.5 30.5c-33.333 0 -60.166 -10 -80.499 -30zM392.502 131.5c20.333 26.333 30.5 65.833 30.5 118.5s-10.167 92.167 -30.5 118.5s-49.833 39.5 -88.5 39.5c-78.667 0 -118 -52.667 -118 -158s39.333 -158 118 -158
c38.667 0 68.167 13.167 88.5 39.5z" />
    <glyph glyph-name="Racute" unicode="&#x154;" horiz-adv-x="680" 
d="M369 730h-103l56 155h136zM346 253l-124 0.000976562v-253h-136v660h291c75.333 0 134.166 -17.833 176.499 -53.5s63.5 -85.834 63.5 -150.501c0 -47.333 -11.667 -87 -35 -119s-56.666 -55 -99.999 -69l174 -268h-155zM222 358.001l137 -0.00195312
c40 0 69.5 7.83301 88.5 23.5s28.5 39.834 28.5 72.501s-9.5 56.834 -28.5 72.501s-48.5 23.5 -88.5 23.5h-137v-192z" />
    <glyph glyph-name="racute" unicode="&#x155;" horiz-adv-x="422" 
d="M409 499l-16.999 -119.999c-15.333 10 -36.333 15 -63 15c-32.667 0 -60.834 -11.833 -84.501 -35.5s-35.5 -56.834 -35.5 -99.501v-259h-137v500h119l9 -98c27.333 72 79 108 155 108c23.333 0 41.333 -3.66699 54 -11zM363.001 742.001l-100 -170h-102l70 170h132z" />
    <glyph glyph-name="uni0156" unicode="&#x156;" horiz-adv-x="680" 
d="M346 253l-124 0.000976562v-253h-136v660h291c75.333 0 134.166 -17.833 176.499 -53.5s63.5 -85.834 63.5 -150.501c0 -47.333 -11.667 -87 -35 -119s-56.666 -55 -99.999 -69l174 -268h-155zM222 358.001l137 -0.00195312c40 0 69.5 7.83301 88.5 23.5
s28.5 39.834 28.5 72.501s-9.5 56.834 -28.5 72.501s-48.5 23.5 -88.5 23.5h-137v-192zM356 -239.001h-93l36 173h126z" />
    <glyph glyph-name="uni0157" unicode="&#x157;" horiz-adv-x="422" 
d="M409 499l-16.999 -119.999c-15.333 10 -36.333 15 -63 15c-32.667 0 -60.834 -11.833 -84.501 -35.5s-35.5 -56.834 -35.5 -99.501v-259h-137v500h119l9 -98c27.333 72 79 108 155 108c23.333 0 41.333 -3.66699 54 -11zM141.001 -238.999h-93l36 173h126z" />
    <glyph glyph-name="Rcaron" unicode="&#x158;" horiz-adv-x="680" 
d="M255 727l-111 167h106l74 -98l74 98h106l-111 -167h-138zM346 253l-124 0.000976562v-253h-136v660h291c75.333 0 134.166 -17.833 176.499 -53.5s63.5 -85.834 63.5 -150.501c0 -47.333 -11.667 -87 -35 -119s-56.666 -55 -99.999 -69l174 -268h-155zM222 358.001
l137 -0.00195312c40 0 69.5 7.83301 88.5 23.5s28.5 39.834 28.5 72.501s-9.5 56.834 -28.5 72.501s-48.5 23.5 -88.5 23.5h-137v-192z" />
    <glyph glyph-name="rcaron" unicode="&#x159;" horiz-adv-x="422" 
d="M409 499l-16.999 -119.999c-15.333 10 -36.333 15 -63 15c-32.667 0 -60.834 -11.833 -84.501 -35.5s-35.5 -56.834 -35.5 -99.501v-259h-137v500h119l9 -98c27.333 72 79 108 155 108c23.333 0 41.333 -3.66699 54 -11zM295.001 572.001h-138l-110 170h105l74 -95l74 95
h105z" />
    <glyph glyph-name="Sacute" unicode="&#x15a;" horiz-adv-x="643" 
d="M459 885l-89 -155h-103l56 155h136zM485 639.5c44 -20.333 82.668 -52.4951 116.001 -96.4951l-95 -93c-17.333 36 -40.333 62.833 -69 80.5s-65 26.5 -109 26.5c-40 0 -70.833 -7.5 -92.5 -22.5s-32.5 -34.833 -32.5 -59.5c0 -22.667 11 -40.667 33 -54
s61.667 -25 119 -35c60 -11.333 107.667 -25.333 143 -42s61.166 -37.5 77.499 -62.5s24.5 -56.167 24.5 -93.5c0 -40.667 -11.5 -75.834 -34.5 -105.501s-55 -52.5 -96 -68.5s-87.833 -24 -140.5 -24c-72.667 0 -132.167 10.167 -178.5 30.5s-83.833 51.166 -112.5 92.499
l82 98c24.667 -40.667 53 -68.834 85 -84.501s71.667 -23.5 119 -23.5c42.667 0 75.167 6.66699 97.5 20s33.5 32.333 33.5 57c0 18 -10.5 33 -31.5 45s-58.5 23.333 -112.5 34c-62 12.667 -111.5 27.667 -148.5 45s-63.833 38.666 -80.5 63.999s-25 56.666 -25 93.999
c0 39.333 10.667 74.833 32 106.5s52.5 56.5 93.5 74.5s89.167 27 144.5 27c61.333 0 114 -10.167 158 -30.5z" />
    <glyph glyph-name="sacute" unicode="&#x15b;" horiz-adv-x="531" 
d="M34 86l80.001 82c13.333 -28.667 32.5 -48.834 57.5 -60.501s55.833 -17.5 92.5 -17.5c29.333 0 52 4 68 12s24 19 24 33c0 11.333 -7.5 21 -22.5 29s-40.833 15.667 -77.5 23c-76.667 15.333 -130.5 35.5 -161.5 60.5s-46.5 58.833 -46.5 101.5
c0 28 8.66699 54.333 26 79s43 44.5 77 59.5s74.667 22.5 122 22.5c56 0 101.333 -8.5 136 -25.5s63.667 -43.833 87 -80.5l-85 -72c-14.667 26.667 -32.834 46.334 -54.501 59.001s-48.834 19 -81.501 19c-27.333 0 -49.166 -4.66699 -65.499 -14
s-24.5 -20.666 -24.5 -33.999c0 -14 8 -25.667 24 -35s44.333 -18 85 -26c72.667 -14.667 124.167 -33.834 154.5 -57.501s45.5 -56.5 45.5 -98.5c0 -46.667 -19.833 -84.167 -59.5 -112.5s-95.834 -42.5 -168.501 -42.5c-111.333 0 -188.666 32 -231.999 96zM406.001 742
l-100 -170h-102l70 170h132z" />
    <glyph glyph-name="uni015E" unicode="&#x15e;" horiz-adv-x="643" 
d="M498 344c35.333 -16.667 61.166 -37.498 77.499 -62.498s24.5 -56.167 24.5 -93.5c0 -51.333 -18.167 -93.833 -54.5 -127.5s-85.166 -55.5 -146.499 -65.5c18 -12.667 31.5 -27.334 40.5 -44.001s13.5 -34 13.5 -52c0 -35.333 -12.167 -63.166 -36.5 -83.499
s-56.5 -30.5 -96.5 -30.5c-52 0 -91.667 12.667 -119 38l36 71c8.66699 -9.33301 19.167 -16.666 31.5 -21.999s25.5 -8 39.5 -8c16 0 29.167 4.83301 39.5 14.5s15.5 22.5 15.5 38.5s-5 29.667 -15 41s-28 22.333 -54 33c-62.667 2.66699 -114.5 14.167 -155.5 34.5
s-74.5 49.5 -100.5 87.5l82 98c24.667 -40.667 53 -68.834 85 -84.501s71.667 -23.5 119 -23.5c42.667 0 75.167 6.66699 97.5 20s33.5 32.333 33.5 57c0 18 -10.5 33 -31.5 45s-58.5 23.333 -112.5 34c-62 12.667 -111.5 27.667 -148.5 45s-63.833 38.666 -80.5 63.999
s-25 56.666 -25 93.999c0 39.333 10.667 74.833 32 106.5s52.5 56.5 93.5 74.5s89.167 27 144.5 27c61.333 0 114 -10.167 158 -30.5s82.667 -52.5 116 -96.5l-95 -93c-17.333 36 -40.333 62.833 -69 80.5s-65 26.5 -109 26.5c-40 0 -70.833 -7.5 -92.5 -22.5
s-32.5 -34.833 -32.5 -59.5c0 -22.667 11 -40.667 33 -54s61.667 -25 119 -35c60 -11.333 107.667 -25.333 143 -42z" />
    <glyph glyph-name="uni015F" unicode="&#x15f;" horiz-adv-x="531" 
d="M448.5 243.5c30.333 -23.667 45.501 -56.502 45.501 -98.502c0 -38 -13.333 -70.167 -40 -96.5s-65 -43.833 -115 -52.5c18 -12.667 31.833 -27.5 41.5 -44.5s14.5 -34.5 14.5 -52.5c0 -35.333 -12.167 -63.166 -36.5 -83.499s-56.5 -30.5 -96.5 -30.5
c-52 0 -91.667 12.667 -119 38l36 71c8.66699 -9.33301 19.167 -16.666 31.5 -21.999s25.5 -8 39.5 -8c16 0 29.167 4.83301 39.5 14.5s15.5 22.5 15.5 38.5s-5 29.667 -15 41s-28 22.333 -54 33c-96 5.33301 -163.333 37 -202 95l80 82
c13.333 -28.667 32.5 -48.834 57.5 -60.501s55.833 -17.5 92.5 -17.5c29.333 0 52 4 68 12s24 19 24 33c0 11.333 -7.5 21 -22.5 29s-40.833 15.667 -77.5 23c-76.667 15.333 -130.5 35.5 -161.5 60.5s-46.5 58.833 -46.5 101.5c0 28 8.66699 54.333 26 79s43 44.5 77 59.5
s74.667 22.5 122 22.5c56 0 101.333 -8.5 136 -25.5s63.667 -43.833 87 -80.5l-85 -72c-14.667 26.667 -32.834 46.334 -54.501 59.001s-48.834 19 -81.501 19c-27.333 0 -49.166 -4.66699 -65.499 -14s-24.5 -20.666 -24.5 -33.999c0 -14 8 -25.667 24 -35
s44.333 -18 85 -26c72.667 -14.667 124.167 -33.834 154.5 -57.501z" />
    <glyph glyph-name="Scaron" unicode="&#x160;" horiz-adv-x="643" 
d="M395 727h-138l-111 167h106l74 -98l74 98h106zM485 639.5c44 -20.333 82.668 -52.4951 116.001 -96.4951l-95 -93c-17.333 36 -40.333 62.833 -69 80.5s-65 26.5 -109 26.5c-40 0 -70.833 -7.5 -92.5 -22.5s-32.5 -34.833 -32.5 -59.5c0 -22.667 11 -40.667 33 -54
s61.667 -25 119 -35c60 -11.333 107.667 -25.333 143 -42s61.166 -37.5 77.499 -62.5s24.5 -56.167 24.5 -93.5c0 -40.667 -11.5 -75.834 -34.5 -105.501s-55 -52.5 -96 -68.5s-87.833 -24 -140.5 -24c-72.667 0 -132.167 10.167 -178.5 30.5s-83.833 51.166 -112.5 92.499
l82 98c24.667 -40.667 53 -68.834 85 -84.501s71.667 -23.5 119 -23.5c42.667 0 75.167 6.66699 97.5 20s33.5 32.333 33.5 57c0 18 -10.5 33 -31.5 45s-58.5 23.333 -112.5 34c-62 12.667 -111.5 27.667 -148.5 45s-63.833 38.666 -80.5 63.999s-25 56.666 -25 93.999
c0 39.333 10.667 74.833 32 106.5s52.5 56.5 93.5 74.5s89.167 27 144.5 27c61.333 0 114 -10.167 158 -30.5z" />
    <glyph glyph-name="scaron" unicode="&#x161;" horiz-adv-x="531" 
d="M34 86l80.001 82c13.333 -28.667 32.5 -48.834 57.5 -60.501s55.833 -17.5 92.5 -17.5c29.333 0 52 4 68 12s24 19 24 33c0 11.333 -7.5 21 -22.5 29s-40.833 15.667 -77.5 23c-76.667 15.333 -130.5 35.5 -161.5 60.5s-46.5 58.833 -46.5 101.5
c0 28 8.66699 54.333 26 79s43 44.5 77 59.5s74.667 22.5 122 22.5c56 0 101.333 -8.5 136 -25.5s63.667 -43.833 87 -80.5l-85 -72c-14.667 26.667 -32.834 46.334 -54.501 59.001s-48.834 19 -81.501 19c-27.333 0 -49.166 -4.66699 -65.499 -14
s-24.5 -20.666 -24.5 -33.999c0 -14 8 -25.667 24 -35s44.333 -18 85 -26c72.667 -14.667 124.167 -33.834 154.5 -57.501s45.5 -56.5 45.5 -98.5c0 -46.667 -19.833 -84.167 -59.5 -112.5s-95.834 -42.5 -168.501 -42.5c-111.333 0 -188.666 32 -231.999 96zM338.001 572
h-138l-110 170h105l74 -95l74 95h105z" />
    <glyph glyph-name="uni0162" unicode="&#x162;" horiz-adv-x="635" 
d="M387 549l-0.000976562 -548.001c38 -24.667 57 -58 57 -100c0 -36 -12.333 -64.333 -37 -85s-57 -31 -97 -31c-51.333 0 -91.666 13 -120.999 39l40 72c18 -20 40.667 -30 68 -30c16 0 29.333 4.83301 40 14.5s16 22.834 16 39.501c0 18 -5.83301 32.667 -17.5 44
s-31.5 23.333 -59.5 36h-27v549h-222v111h581v-111h-221z" />
    <glyph glyph-name="uni0163" unicode="&#x163;" horiz-adv-x="441" 
d="M364.5 -50c9 -16.667 13.502 -33.668 13.502 -51.001c0 -35.333 -12.167 -63.166 -36.5 -83.499s-56.5 -30.5 -96.5 -30.5c-52 0 -91.667 12.667 -119 38l36 71c8 -8.66699 18 -15.834 30 -21.501s25 -8.5 39 -8.5c17.333 0 31.166 4.66699 41.499 14
s15.5 22.333 15.5 39c0 18 -5.5 32.833 -16.5 44.5s-31.5 23.834 -61.5 36.501c-66 18.667 -99 66.334 -99 143.001v257h-91v102h91v115l137 38v-153h162v-102h-162v-235c0 -46 23 -69 69 -69c29.333 0 55 9.33301 77 28l21 -91c-22.667 -18.667 -52.334 -31 -89.001 -37
c16.667 -12.667 29.5 -27.334 38.5 -44.001z" />
    <glyph glyph-name="Tcaron" unicode="&#x164;" horiz-adv-x="635" 
d="M246 727l-111 167h106l74 -98l74 98h106l-111 -167h-138zM608 549h-221v-549h-138v549h-222v111h581v-111z" />
    <glyph glyph-name="tcaron" unicode="&#x165;" horiz-adv-x="429" 
d="M382 556h-82l21 211h110zM394 122l21 -91c-16 -12.667 -36.167 -22.667 -60.5 -30s-49.833 -11 -76.5 -11c-111.333 0 -167 50.333 -167 151v257h-91v102h91v115l137 38v-153h162v-102h-162v-235c0 -46 23 -69 69 -69c29.333 0 55 9.33301 77 28z" />
    <glyph glyph-name="Umacron" unicode="&#x16a;" horiz-adv-x="715" 
d="M640 260c0 -89.333 -23.832 -156.666 -71.499 -201.999s-117.834 -68 -210.501 -68s-162.834 22.667 -210.501 68s-71.5 112.666 -71.5 201.999v400h138v-394c0 -55.333 11.833 -96.333 35.5 -123s59.834 -40 108.501 -40s84.667 13.333 108 40s35 67.667 35 123v394h139
v-400zM540.001 739h-364v91h364v-91z" />
    <glyph glyph-name="umacron" unicode="&#x16b;" horiz-adv-x="619" 
d="M547 500l-0.00195312 -500h-122l-5 86c-32 -64 -90.333 -96 -175 -96c-54 0 -96.833 14.5 -128.5 43.5s-47.5 74.167 -47.5 135.5v331h137v-296c0 -38.667 7.33301 -66 22 -82s36.334 -24 65.001 -24c34.667 0 62.834 11.167 84.501 33.5s32.5 55.833 32.5 100.5v268h137
zM487.998 579h-364v91h364v-91z" />
    <glyph glyph-name="Uring" unicode="&#x16e;" horiz-adv-x="715" 
d="M640 260c0 -89.333 -23.832 -156.666 -71.499 -201.999s-117.834 -68 -210.501 -68s-162.834 22.667 -210.501 68s-71.5 112.666 -71.5 201.999v400h138v-394c0 -55.333 11.833 -96.333 35.5 -123s59.834 -40 108.501 -40s84.667 13.333 108 40s35 67.667 35 123v394h139
v-400zM454.001 864.5c23.333 -21.667 35 -50.834 35 -87.501s-11.667 -65.834 -35 -87.501s-55.333 -32.5 -96 -32.5s-72.834 10.833 -96.501 32.5s-35.5 50.834 -35.5 87.501s11.833 65.834 35.5 87.501s55.834 32.5 96.501 32.5s72.667 -10.833 96 -32.5zM315.501 819
c-11 -10.667 -16.5 -24.667 -16.5 -42c0 -16.667 5.5 -30.334 16.5 -41.001s25.167 -16 42.5 -16s31.5 5.33301 42.5 16s16.5 24.334 16.5 41.001c0 17.333 -5.5 31.333 -16.5 42s-25.167 16 -42.5 16s-31.5 -5.33301 -42.5 -16z" />
    <glyph glyph-name="uring" unicode="&#x16f;" horiz-adv-x="619" 
d="M547 500l-0.00195312 -500h-122l-5 86c-32 -64 -90.333 -96 -175 -96c-54 0 -96.833 14.5 -128.5 43.5s-47.5 74.167 -47.5 135.5v331h137v-296c0 -38.667 7.33301 -66 22 -82s36.334 -24 65.001 -24c34.667 0 62.834 11.167 84.501 33.5s32.5 55.833 32.5 100.5v268h137
zM401.998 767.5c23.333 -21.667 35 -50.834 35 -87.501s-11.667 -65.834 -35 -87.501s-55.333 -32.5 -96 -32.5s-72.834 10.833 -96.501 32.5s-35.5 50.834 -35.5 87.501s11.833 65.834 35.5 87.501s55.834 32.5 96.501 32.5s72.667 -10.833 96 -32.5zM263.498 722
c-11 -10.667 -16.5 -24.667 -16.5 -42c0 -16.667 5.5 -30.334 16.5 -41.001s25.167 -16 42.5 -16s31.5 5.33301 42.5 16s16.5 24.334 16.5 41.001c0 17.333 -5.5 31.333 -16.5 42s-25.167 16 -42.5 16s-31.5 -5.33301 -42.5 -16z" />
    <glyph glyph-name="Uhungarumlaut" unicode="&#x170;" horiz-adv-x="715" 
d="M387 887l-90 -156h-102l55 156h137zM590 885l-90 -155h-102l56 155h136zM640 260c0 -89.333 -23.832 -156.666 -71.499 -201.999s-117.834 -68 -210.501 -68s-162.834 22.667 -210.501 68s-71.5 112.666 -71.5 201.999v400h138v-394c0 -55.333 11.833 -96.333 35.5 -123
s59.834 -40 108.501 -40s84.667 13.333 108 40s35 67.667 35 123v394h139v-400z" />
    <glyph glyph-name="uhungarumlaut" unicode="&#x171;" horiz-adv-x="619" 
d="M547 500l-0.00195312 -500h-122l-5 86c-32 -64 -90.333 -96 -175 -96c-54 0 -96.833 14.5 -128.5 43.5s-47.5 74.167 -47.5 135.5v331h137v-296c0 -38.667 7.33301 -66 22 -82s36.334 -24 65.001 -24c34.667 0 62.834 11.167 84.501 33.5s32.5 55.833 32.5 100.5v268h137
zM239.998 572h-98l72 170h122zM438.998 572h-98l71 170h123z" />
    <glyph glyph-name="Uogonek" unicode="&#x172;" horiz-adv-x="715" 
d="M640 660l0.000976562 -399.999c0 -74 -16.5 -133 -49.5 -177s-81.5 -72.333 -145.5 -85c-55.333 -25.333 -83 -53.333 -83 -84c0 -14.667 5.33301 -26.334 16 -35.001s24.667 -13 42 -13c22 0 38.667 3.66699 50 11l20 -71c-22.667 -14 -54.334 -21 -95.001 -21
c-38.667 0 -70.334 9.5 -95.001 28.5s-37 45.167 -37 78.5c0 40.667 18.333 73.667 55 99c-79.333 6.66699 -139.5 32.5 -180.5 77.5s-61.5 108.833 -61.5 191.5v400h138v-394c0 -55.333 11.833 -96.333 35.5 -123s59.834 -40 108.501 -40s84.667 13.333 108 40
s35 67.667 35 123v394h139z" />
    <glyph glyph-name="uogonek" unicode="&#x173;" horiz-adv-x="619" 
d="M555 -193c-23.333 -14.667 -55.001 -22.001 -95.001 -22.001c-38.667 0 -69 9 -91 27s-33 43.333 -33 76c0 26 7.66699 48.5 23 67.5s38.333 35.167 69 48.5l-9 92c-17.333 -34 -41.333 -60.167 -72 -78.5s-64.667 -27.5 -102 -27.5c-54 0 -96.833 14.5 -128.5 43.5
s-47.5 74.167 -47.5 135.5v331h137v-296c0 -38.667 7.16699 -66 21.5 -82s35.166 -24 62.499 -24c34 0 62.5 12.5 85.5 37.5s34.5 58.833 34.5 101.5v263h137v-500c-39.333 -13.333 -68.166 -27.166 -86.499 -41.499s-27.5 -30.166 -27.5 -47.499
c0 -14.667 4.66699 -25.834 14 -33.501s22 -11.5 38 -11.5c20.667 0 37.334 3.66699 50.001 11z" />
    <glyph glyph-name="Ydieresis" unicode="&#x178;" horiz-adv-x="626" 
d="M382 247v-247h-138v247l-234 413h147l106 -197l50 -104l51 104l106 197h146zM262 846c13.333 -12.667 20 -29.667 20 -51s-6.66699 -38.333 -20 -51s-31.666 -19 -54.999 -19c-22.667 0 -40.667 6.33301 -54 19s-20 29.667 -20 51s6.66699 38.333 20 51s31.333 19 54 19
c23.333 0 41.666 -6.33301 54.999 -19zM472.5 846c13.667 -12.667 20.5 -29.667 20.5 -51s-6.83301 -38.333 -20.5 -51s-32.167 -19 -55.5 -19c-22.667 0 -40.667 6.33301 -54 19s-20 29.667 -20 51s6.66699 38.333 20 51s31.333 19 54 19
c23.333 0 41.833 -6.33301 55.5 -19z" />
    <glyph glyph-name="Zacute" unicode="&#x179;" horiz-adv-x="633" 
d="M357 730h-103l56 155h136zM593 110v-110h-549v104l385 446h-377v110h529v-104l-385 -446h397z" />
    <glyph glyph-name="zacute" unicode="&#x17a;" horiz-adv-x="522" 
d="M44 88l221 256l57 57l-83 -2h-193v101h428v-88l-221 -255l-57 -58l92 2h195v-101h-439v88zM387 742l-100 -170h-102l70 170h132z" />
    <glyph glyph-name="Zdotaccent" unicode="&#x17b;" horiz-adv-x="633" 
d="M593 110v-110h-549v104l385 446h-377v110h529v-104l-385 -446h397zM375 861c14 -12.667 21 -30.667 21 -54s-7 -41.333 -21 -54s-34 -19 -60 -19c-25.333 0 -45 6.33301 -59 19s-21 30.667 -21 54s7 41.333 21 54s33.667 19 59 19c26 0 46 -6.33301 60 -19z" />
    <glyph glyph-name="zdotaccent" unicode="&#x17c;" horiz-adv-x="522" 
d="M44 88l221 256l57 57l-83 -2h-193v101h428v-88l-221 -255l-57 -58l92 2h195v-101h-439v88zM312 701c14 -12.667 21 -30.667 21 -54s-7 -41.333 -21 -54s-34 -19 -60 -19c-25.333 0 -45 6.33301 -59 19s-21 30.667 -21 54s7 41.333 21 54s33.667 19 59 19
c26 0 46 -6.33301 60 -19z" />
    <glyph glyph-name="Zcaron" unicode="&#x17d;" horiz-adv-x="633" 
d="M243 727l-111 167h106l74 -98l74 98h106l-111 -167h-138zM593 110v-110h-549v104l385 446h-377v110h529v-104l-385 -446h397z" />
    <glyph glyph-name="zcaron" unicode="&#x17e;" horiz-adv-x="522" 
d="M44 88l221 256l57 57l-83 -2h-193v101h428v-88l-221 -255l-57 -58l92 2h195v-101h-439v88zM319 572h-138l-110 170h105l74 -95l74 95h105z" />
    <glyph glyph-name="longs" unicode="&#x17f;" horiz-adv-x="301" 
d="M70 560c0 55.333 15.001 97.333 45.001 126s71.667 43 125 43c42 0 72 -8 90 -24l-12 -91c-12.667 8.66699 -27.334 13 -44.001 13c-46.667 0 -70 -26 -70 -78v-549h-134v560z" />
    <glyph glyph-name="florin" unicode="&#x192;" horiz-adv-x="506" 
d="M344 548l-23.002 -137h140v-101h-156l-46 -272c-9.33301 -54 -29.166 -95.167 -59.499 -123.5s-70.166 -42.5 -119.499 -42.5c-23.333 0 -42.166 1.83301 -56.499 5.5s-29.5 10.5 -45.5 20.5l18 94c17.333 -12.667 38 -19 62 -19c22 0 39.833 6.83301 53.5 20.5
s22.5 33.5 26.5 59.5l43 257h-137v101h154l25 152c9.33301 54.667 29.166 96.167 59.499 124.5s70.5 42.5 120.5 42.5c22.667 0 41.167 -1.83301 55.5 -5.5s29.833 -10.5 46.5 -20.5l-19 -94c-17.333 12.667 -38 19 -62 19c-44 0 -70.667 -27 -80 -81z" />
    <glyph glyph-name="uni0218" unicode="&#x218;" horiz-adv-x="643" 
d="M485 639.5c44 -20.333 82.668 -52.4951 116.001 -96.4951l-95 -93c-17.333 36 -40.333 62.833 -69 80.5s-65 26.5 -109 26.5c-40 0 -70.833 -7.5 -92.5 -22.5s-32.5 -34.833 -32.5 -59.5c0 -22.667 11 -40.667 33 -54s61.667 -25 119 -35
c60 -11.333 107.667 -25.333 143 -42s61.166 -37.5 77.499 -62.5s24.5 -56.167 24.5 -93.5c0 -40.667 -11.5 -75.834 -34.5 -105.501s-55 -52.5 -96 -68.5s-87.833 -24 -140.5 -24c-72.667 0 -132.167 10.167 -178.5 30.5s-83.833 51.166 -112.5 92.499l82 98
c24.667 -40.667 53 -68.834 85 -84.501s71.667 -23.5 119 -23.5c42.667 0 75.167 6.66699 97.5 20s33.5 32.333 33.5 57c0 18 -10.5 33 -31.5 45s-58.5 23.333 -112.5 34c-62 12.667 -111.5 27.667 -148.5 45s-63.833 38.666 -80.5 63.999s-25 56.666 -25 93.999
c0 39.333 10.667 74.833 32 106.5s52.5 56.5 93.5 74.5s89.167 27 144.5 27c61.333 0 114 -10.167 158 -30.5zM343.001 -238.995h-93l36 173h126z" />
    <glyph glyph-name="uni0219" unicode="&#x219;" horiz-adv-x="531" 
d="M34 86l80.001 82c13.333 -28.667 32.5 -48.834 57.5 -60.501s55.833 -17.5 92.5 -17.5c29.333 0 52 4 68 12s24 19 24 33c0 11.333 -7.5 21 -22.5 29s-40.833 15.667 -77.5 23c-76.667 15.333 -130.5 35.5 -161.5 60.5s-46.5 58.833 -46.5 101.5
c0 28 8.66699 54.333 26 79s43 44.5 77 59.5s74.667 22.5 122 22.5c56 0 101.333 -8.5 136 -25.5s63.667 -43.833 87 -80.5l-85 -72c-14.667 26.667 -32.834 46.334 -54.501 59.001s-48.834 19 -81.501 19c-27.333 0 -49.166 -4.66699 -65.499 -14
s-24.5 -20.666 -24.5 -33.999c0 -14 8 -25.667 24 -35s44.333 -18 85 -26c72.667 -14.667 124.167 -33.834 154.5 -57.501s45.5 -56.5 45.5 -98.5c0 -46.667 -19.833 -84.167 -59.5 -112.5s-95.834 -42.5 -168.501 -42.5c-111.333 0 -188.666 32 -231.999 96zM269.001 -239
h-93l36 173h126z" />
    <glyph glyph-name="uni021A" unicode="&#x21a;" horiz-adv-x="635" 
d="M608 549h-221v-549h-138v549h-222v111h581v-111zM313 -239h-93l36 173h126z" />
    <glyph glyph-name="uni021B" unicode="&#x21b;" horiz-adv-x="429" 
d="M415 31c-16 -12.667 -36.167 -22.667 -60.5 -30s-49.833 -11 -76.5 -11c-111.333 0 -167 50.333 -167 151v257h-91v102h91v115l137 38v-153h162v-102h-162v-235c0 -46 23 -69 69 -69c29.333 0 55 9.33301 77 28zM246 -239h-93l36 173h126z" />
    <glyph glyph-name="circumflex" unicode="&#x2c6;" horiz-adv-x="500" 
d="M324 565l-74 96l-74 -96h-105l110 171h138l110 -171h-105z" />
    <glyph glyph-name="caron" unicode="&#x2c7;" horiz-adv-x="500" 
d="M319 572h-138l-110 170h105l74 -95l74 95h105z" />
    <glyph glyph-name="uni02C9" unicode="&#x2c9;" horiz-adv-x="500" 
d="M432 579h-364v91h364v-91z" />
    <glyph glyph-name="breve" unicode="&#x2d8;" horiz-adv-x="500" 
d="M367.5 605.5c-29 -28.333 -68.167 -42.5 -117.5 -42.5s-88.5 14.167 -117.5 42.5s-43.5 66.5 -43.5 114.5h93c0 -21.333 6.33301 -39.166 19 -53.499s29 -21.5 49 -21.5s36.333 7.16699 49 21.5s19 32.166 19 53.499h93c0 -48 -14.5 -86.167 -43.5 -114.5z" />
    <glyph glyph-name="dotaccent" unicode="&#x2d9;" horiz-adv-x="500" 
d="M310 701c14 -12.667 21 -30.667 21 -54s-7 -41.333 -21 -54s-34 -19 -60 -19c-25.333 0 -45 6.33301 -59 19s-21 30.667 -21 54s7 41.333 21 54s33.667 19 59 19c26 0 46 -6.33301 60 -19z" />
    <glyph glyph-name="ring" unicode="&#x2da;" horiz-adv-x="500" 
d="M347 767.5c23.333 -21.667 35 -50.834 35 -87.501s-11.667 -65.834 -35 -87.501s-55.333 -32.5 -96 -32.5s-72.834 10.833 -96.501 32.5s-35.5 50.834 -35.5 87.501s11.833 65.834 35.5 87.501s55.834 32.5 96.501 32.5s72.667 -10.833 96 -32.5zM208.5 722
c-11 -10.667 -16.5 -24.667 -16.5 -42c0 -16.667 5.5 -30.334 16.5 -41.001s25.167 -16 42.5 -16s31.5 5.33301 42.5 16s16.5 24.334 16.5 41.001c0 17.333 -5.5 31.333 -16.5 42s-25.167 16 -42.5 16s-31.5 -5.33301 -42.5 -16z" />
    <glyph glyph-name="ogonek" unicode="&#x2db;" horiz-adv-x="519" 
d="M258.5 -34.5c-19 -16.333 -28.4971 -33.499 -28.4971 -51.499c0 -14.667 5.33301 -26.334 16 -35.001s24.667 -13 42 -13c22 0 38.667 3.66699 50 11l20 -71c-22.667 -14 -54.334 -21 -95.001 -21c-38.667 0 -70.334 9.5 -95.001 28.5s-37 45.167 -37 78.5
c0 36 13.667 65.5 41 88.5s67.666 42.167 120.999 57.5l59 -24c-43.333 -16 -74.5 -32.167 -93.5 -48.5z" />
    <glyph glyph-name="tilde" unicode="&#x2dc;" horiz-adv-x="500" 
d="M406.5 605.5c-21 -25 -50.835 -37.5 -89.502 -37.5c-19.333 0 -35.5 3.33301 -48.5 10s-26.5 16 -40.5 28c-9.33301 8 -17.166 13.833 -23.499 17.5s-13.166 5.5 -20.499 5.5c-12 0 -21.333 -5 -28 -15s-11.334 -25.333 -14.001 -46h-84c5.33301 100 47.333 150 126 150
c19.333 0 35.333 -3.33301 48 -10s26 -16 40 -28c10 -8 18 -13.833 24 -17.5s12.667 -5.5 20 -5.5c12 0 21.333 5 28 15s11.334 25.333 14.001 46h84c-2.66699 -50 -14.5 -87.5 -35.5 -112.5z" />
    <glyph glyph-name="hungarumlaut" unicode="&#x2dd;" horiz-adv-x="500" 
d="M167 572h-98l72 170h122zM366 572h-98l71 170h123z" />
    <glyph glyph-name="uni0326" unicode="&#x326;" horiz-adv-x="0" 
d="M-247 -239h-93l36 173h126z" />
    <glyph glyph-name="pi" unicode="&#x3c0;" horiz-adv-x="769" 
d="M595 401v-235c0 -26.667 8 -45.5 24 -56.5s41.667 -15.5 77 -13.5l-16 -98c-8.66699 -0.666992 -21 -1 -37 -1c-68.667 0 -116.667 11.167 -144 33.5s-41 58.833 -41 109.5v261h-169v-401h-137v401h-127v99h709v-99h-139z" />
    <glyph glyph-name="uni1E9E" unicode="&#x1e9e;" horiz-adv-x="709" 
d="M625 318.5c36.667 -30.333 55.001 -74.1709 55.001 -131.504c0 -59.333 -19.667 -106.166 -59 -140.499s-90.333 -51.5 -153 -51.5c-43.333 0 -80 5.33301 -110 16s-53 25.334 -69 44.001l42 85c12.667 -12.667 28.667 -22.5 48 -29.5s40.666 -10.5 63.999 -10.5
c30.667 0 55.5 8.16699 74.5 24.5s28.5 38.166 28.5 65.499c0 28.667 -10.333 50.834 -31 66.501s-49.667 23.5 -87 23.5h-84v86l157 184h-142c-40 0 -72.5 -12.667 -97.5 -38s-37.5 -58.666 -37.5 -99.999v-412h-138v428c0 46.667 10.5 87.5 31.5 122.5s50.667 62 89 81
s82.833 28.5 133.5 28.5h300v-109l-162 -185c61.333 -1.33301 110.333 -17.166 147 -47.499z" />
    <glyph glyph-name="endash" unicode="&#x2013;" horiz-adv-x="681" 
d="M602 209h-523v113h523v-113z" />
    <glyph glyph-name="emdash" unicode="&#x2014;" horiz-adv-x="1009" 
d="M929 209h-850v113h850v-113z" />
    <glyph glyph-name="quoteleft" unicode="&#x2018;" horiz-adv-x="280" 
d="M70 420.5c-16.667 21.667 -25 49.8301 -25 84.4971c0 40.667 10.833 77.834 32.5 111.501s53.5 59.834 95.5 78.501l63 -48c-29.333 -10.667 -54 -25.167 -74 -43.5s-33.333 -38.833 -40 -61.5l4 -3c6.66699 6.66699 16.334 10 29.001 10
c19.333 0 36.333 -6.66699 51 -20s22 -32.333 22 -57c0 -25.333 -8 -45.666 -24 -60.999s-37 -23 -63 -23c-30.667 0 -54.334 10.833 -71.001 32.5z" />
    <glyph glyph-name="quoteright" unicode="&#x2019;" horiz-adv-x="280" 
d="M214 661.5c16.667 -21.667 25.001 -49.8301 25.001 -84.4971c0 -40.667 -10.833 -77.834 -32.5 -111.501s-53.5 -59.834 -95.5 -78.501l-63 48c29.333 10.667 54.166 25.167 74.499 43.5s33.833 38.833 40.5 61.5l-4 3c-8 -6.66699 -18 -10 -30 -10
c-19.333 0 -36.333 6.66699 -51 20s-22 32.333 -22 57c0 25.333 8.16699 45.666 24.5 60.999s37.166 23 62.499 23c30.667 0 54.334 -10.833 71.001 -32.5z" />
    <glyph glyph-name="quotesinglbase" unicode="&#x201a;" horiz-adv-x="281" 
d="M209 120.5c16.667 -21.667 25 -49.8311 25 -84.498c0 -40.667 -10.833 -77.834 -32.5 -111.501s-53.5 -59.834 -95.5 -78.501l-63 48c29.333 11.333 54 26 74 44s33.333 38.333 40 61l-4 3c-6.66699 -6.66699 -16.334 -10 -29.001 -10c-19.333 0 -36.333 6.66699 -51 20
s-22 32.333 -22 57c0 26 8 46.5 24 61.5s37 22.5 63 22.5c30.667 0 54.334 -10.833 71.001 -32.5z" />
    <glyph glyph-name="quotedblleft" unicode="&#x201c;" horiz-adv-x="504" 
d="M70 420.5c-16.667 21.667 -25 49.8301 -25 84.4971c0 40.667 10.833 77.834 32.5 111.501s53.5 59.834 95.5 78.501l63 -48c-29.333 -10.667 -54 -25.167 -74 -43.5s-33.333 -38.833 -40 -61.5l4 -3c6.66699 6.66699 16.334 10 29.001 10
c19.333 0 36.333 -6.66699 51 -20s22 -32.333 22 -57c0 -25.333 -8 -45.666 -24 -60.999s-37 -23 -63 -23c-30.667 0 -54.334 10.833 -71.001 32.5zM294 420.496c-16.667 21.667 -25 49.8301 -25 84.4971c0 40.667 10.833 77.834 32.5 111.501s53.5 59.834 95.5 78.501
l63 -48c-29.333 -10.667 -54 -25.167 -74 -43.5s-33.333 -38.833 -40 -61.5l4 -3c6.66699 6.66699 16.334 10 29.001 10c19.333 0 36.333 -6.66699 51 -20s22 -32.333 22 -57c0 -25.333 -8 -45.666 -24 -60.999s-37 -23 -63 -23c-30.667 0 -54.334 10.833 -71.001 32.5z" />
    <glyph glyph-name="quotedblright" unicode="&#x201d;" horiz-adv-x="501" 
d="M214 661.5c16.667 -21.667 25.001 -49.8301 25.001 -84.4971c0 -40.667 -10.833 -77.834 -32.5 -111.501s-53.5 -59.834 -95.5 -78.501l-63 48c29.333 10.667 54.166 25.167 74.499 43.5s33.833 38.833 40.5 61.5l-4 3c-8 -6.66699 -18 -10 -30 -10
c-19.333 0 -36.333 6.66699 -51 20s-22 32.333 -22 57c0 25.333 8.16699 45.666 24.5 60.999s37.166 23 62.499 23c30.667 0 54.334 -10.833 71.001 -32.5zM435.001 661.504c16.667 -21.667 25.001 -49.8301 25.001 -84.4971c0 -40.667 -10.833 -77.834 -32.5 -111.501
s-53.5 -59.834 -95.5 -78.501l-63 48c29.333 10.667 54.166 25.167 74.499 43.5s33.833 38.833 40.5 61.5l-4 3c-8 -6.66699 -18 -10 -30 -10c-19.333 0 -36.333 6.66699 -51 20s-22 32.333 -22 57c0 25.333 8.16699 45.666 24.5 60.999s37.166 23 62.499 23
c30.667 0 54.334 -10.833 71.001 -32.5z" />
    <glyph glyph-name="quotedblbase" unicode="&#x201e;" horiz-adv-x="502" 
d="M209 120.5c16.667 -21.667 25 -49.8311 25 -84.498c0 -40.667 -10.833 -77.834 -32.5 -111.501s-53.5 -59.834 -95.5 -78.501l-63 48c29.333 11.333 54 26 74 44s33.333 38.333 40 61l-4 3c-6.66699 -6.66699 -16.334 -10 -29.001 -10c-19.333 0 -36.333 6.66699 -51 20
s-22 32.333 -22 57c0 26 8 46.5 24 61.5s37 22.5 63 22.5c30.667 0 54.334 -10.833 71.001 -32.5zM430 120.503c16.667 -21.667 25 -49.8311 25 -84.498c0 -40.667 -10.833 -77.834 -32.5 -111.501s-53.5 -59.834 -95.5 -78.501l-63 48c29.333 11.333 54 26 74 44
s33.333 38.333 40 61l-4 3c-6.66699 -6.66699 -16.334 -10 -29.001 -10c-19.333 0 -36.333 6.66699 -51 20s-22 32.333 -22 57c0 26 8 46.5 24 61.5s37 22.5 63 22.5c30.667 0 54.334 -10.833 71.001 -32.5z" />
    <glyph glyph-name="dagger" unicode="&#x2020;" horiz-adv-x="565" 
d="M529 350h-182v-450h-129v450h-182v108h182v202h129v-202h182v-108z" />
    <glyph glyph-name="daggerdbl" unicode="&#x2021;" horiz-adv-x="565" 
d="M347 350v-140h182v-108h-182v-202h-129v202h-182v108h182v140h-182v108h182v202h129v-202h182v-108h-182z" />
    <glyph glyph-name="bullet" unicode="&#x2022;" horiz-adv-x="430" 
d="M319 435c26 -25.333 39 -59 39 -101c0 -41.333 -13 -74.666 -39 -99.999s-60.667 -38 -104 -38s-78 12.667 -104 38s-39 58.666 -39 99.999c0 42 13 75.667 39 101s60.667 38 104 38s78 -12.667 104 -38z" />
    <glyph glyph-name="ellipsis" unicode="&#x2026;" horiz-adv-x="896" 
d="M814.5 131c15.667 -14.667 23.5 -34.3301 23.5 -58.9971s-7.83301 -44.334 -23.5 -59.001s-36.834 -22 -63.501 -22s-47.834 7.16699 -63.501 21.5s-23.5 34.166 -23.5 59.499s7.83301 45.166 23.5 59.499s36.834 21.5 63.501 21.5s47.834 -7.33301 63.501 -22z
M512.5 131.004c15.667 -14.667 23.5 -34.3301 23.5 -58.9971s-7.83301 -44.334 -23.5 -59.001s-36.834 -22 -63.501 -22s-47.834 7.16699 -63.501 21.5s-23.5 34.166 -23.5 59.499s7.83301 45.166 23.5 59.499s36.834 21.5 63.501 21.5s47.834 -7.33301 63.501 -22z
M209.5 131.008c15.667 -14.667 23.5 -34.3301 23.5 -58.9971s-7.83301 -44.334 -23.5 -59.001s-36.834 -22 -63.501 -22s-47.834 7.16699 -63.501 21.5s-23.5 34.166 -23.5 59.499s7.83301 45.166 23.5 59.499s36.834 21.5 63.501 21.5s47.834 -7.33301 63.501 -22z" />
    <glyph glyph-name="perthousand" unicode="&#x2030;" horiz-adv-x="1315" 
d="M338 619c32 -34 48 -79 48 -135s-16 -101 -48 -135s-74.667 -51 -128 -51c-52.667 0 -95.167 17 -127.5 51s-48.5 79 -48.5 135s16.167 101 48.5 135s74.833 51 127.5 51c53.333 0 96 -17 128 -51zM622 660h110l-445 -660h-110zM158 551c-12 -16 -18 -38.333 -18 -67
s6 -50.834 18 -66.501s29.333 -23.5 52 -23.5s40 7.83301 52 23.5s18 37.834 18 66.501s-6 51 -18 67s-29.333 24 -52 24s-40 -8 -52 -24zM825.5 311c32.333 -34 48.5 -79 48.5 -135s-16.167 -101 -48.5 -135s-74.833 -51 -127.5 -51c-53.333 0 -96 17 -128 51
s-48 79 -48 135s16 101 48 135s74.667 51 128 51c52.667 0 95.167 -17 127.5 -51zM1232.5 311c32.333 -34 48.5 -79 48.5 -135s-16.167 -101 -48.5 -135s-74.833 -51 -127.5 -51c-53.333 0 -96 17 -128 51s-48 79 -48 135s16 101 48 135s74.667 51 128 51
c52.667 0 95.167 -17 127.5 -51zM646 242.5c-12 -15.667 -18 -37.834 -18 -66.501s6 -51 18 -67s29.333 -24 52 -24s40 8 52 24s18 38.333 18 67s-6 50.834 -18 66.501s-29.333 23.5 -52 23.5s-40 -7.83301 -52 -23.5zM1053 242.5c-12 -15.667 -18 -37.834 -18 -66.501
s6 -51 18 -67s29.333 -24 52 -24s40 8 52 24s18 38.333 18 67s-6 50.834 -18 66.501s-29.333 23.5 -52 23.5s-40 -7.83301 -52 -23.5z" />
    <glyph glyph-name="guilsinglleft" unicode="&#x2039;" horiz-adv-x="333" 
d="M168 265l124 -196h-126l-125 196l125 196h126z" />
    <glyph glyph-name="guilsinglright" unicode="&#x203a;" horiz-adv-x="333" 
d="M167 461l125 -196l-125 -196h-126l124 196l-124 196h126z" />
    <glyph glyph-name="fraction" unicode="&#x2044;" horiz-adv-x="258" 
d="M315 660h104l-476 -660h-105z" />
    <glyph glyph-name="uni2070" unicode="&#x2070;" horiz-adv-x="407" 
d="M28 531c0 136 58.333 204 175 204c117.333 0 176 -68 176 -204s-58.667 -204 -176 -204c-116.667 0 -175 68 -175 204zM258 434c11.333 20 17 52.333 17 97s-5.66699 77 -17 97s-29.666 30 -54.999 30s-43.666 -10 -54.999 -30s-17 -52.333 -17 -97s5.66699 -77 17 -97
s29.666 -30 54.999 -30s43.666 10 54.999 30z" />
    <glyph glyph-name="uni2074" unicode="&#x2074;" horiz-adv-x="382" 
d="M364 423h-64v-90h-90v90h-200v49l169 258h121v-237h64v-70zM210 493l-0.000976562 91c0 12.667 0.666992 31 2 55l1 24h-3c-7.33301 -18.667 -17.666 -38 -30.999 -58l-77 -112h108z" />
    <glyph glyph-name="uni2075" unicode="&#x2075;" horiz-adv-x="376" 
d="M313 554.5c22.667 -22.333 34.002 -51.833 34.002 -88.5c0 -45.333 -15 -79.666 -45 -102.999s-69 -35 -117 -35c-41.333 0 -75.5 6.16699 -102.5 18.5s-48.5 33.5 -64.5 63.5l94 44c8.66699 -32.667 32.334 -49 71.001 -49c19.333 0 35 5.33301 47 16s18 25 18 43
c0 37.333 -21 56 -63 56c-16.667 0 -30.334 -2.33301 -41.001 -7s-19.334 -12 -26.001 -22l-83 6l22 233h272v-79h-194l-6 -64c-0.666992 -8 -2.33398 -16.667 -5.00098 -26h1c8 9.33301 19 16.166 33 20.499s33.667 6.5 59 6.5c41.333 0 73.333 -11.167 96 -33.5z" />
    <glyph glyph-name="uni2076" unicode="&#x2076;" horiz-adv-x="395" 
d="M76 378.5c-30.667 34.333 -46.001 85.1689 -46.001 152.502c0 66 17.167 116.5 51.5 151.5s79.5 52.5 135.5 52.5c37.333 0 68.166 -6.66699 92.499 -20s42.833 -35 55.5 -65l-81 -40c-4 14 -11.5 25.167 -22.5 33.5s-25.5 12.5 -43.5 12.5
c-27.333 0 -48.833 -11 -64.5 -33s-23.5 -49.333 -23.5 -82v-11h1c12 17.333 26.333 30.166 43 38.499s37.334 12.5 62.001 12.5c40 0 72.333 -10.833 97 -32.5s37 -52.834 37 -93.501s-14.167 -72.167 -42.5 -94.5s-68.166 -33.5 -119.499 -33.5
c-57.333 0 -101.333 17.167 -132 51.5zM255.999 418.503c11.333 9 17 21.833 17 38.5c0 16 -5.66699 28.667 -17 38s-27 14 -47 14c-19.333 0 -34.666 -4.83301 -45.999 -14.5s-17 -22.167 -17 -37.5c0 -16.667 5.66699 -29.5 17 -38.5s26.666 -13.5 45.999 -13.5
c20 0 35.667 4.5 47 13.5z" />
    <glyph glyph-name="uni2077" unicode="&#x2077;" horiz-adv-x="339" 
d="M332 730v-72.001c-46 -44.667 -78.5 -93.667 -97.5 -147s-28.5 -112.666 -28.5 -177.999h-104c0 58 10.5 114 31.5 168s52.167 102.667 93.5 146h-220v83h325z" />
    <glyph glyph-name="uni2078" unicode="&#x2078;" horiz-adv-x="405" 
d="M317.5 704c28.333 -20 42.499 -47.335 42.499 -82.002c0 -20.667 -5.83301 -38.5 -17.5 -53.5s-29.167 -26.167 -52.5 -33.5v-1c26.667 -7.33301 47.167 -18.666 61.5 -33.999s21.5 -34.666 21.5 -57.999c0 -36 -15.167 -64.167 -45.5 -84.5
s-72.166 -30.5 -125.499 -30.5c-52.667 0 -94.167 10.167 -124.5 30.5s-45.5 48.5 -45.5 84.5c0 22.667 7 42 21 58s34 27.333 60 34v1c-22 6.66699 -39 17.667 -51 33s-18 33.333 -18 54c0 34.667 14.167 62 42.5 82s66.833 30 115.5 30s87.167 -10 115.5 -30z
M158.499 652.498c-10.333 -8.33301 -15.502 -19.835 -15.502 -34.502c0 -15.333 5.16699 -27.166 15.5 -35.499s24.833 -12.5 43.5 -12.5s33.334 4.33301 44.001 13s16 20.334 16 35.001s-5.16699 26.167 -15.5 34.5s-25.166 12.5 -44.499 12.5
c-18.667 0 -33.167 -4.16699 -43.5 -12.5zM251.997 410.496c12 9 18 21.5 18 37.5s-6 28.5 -18 37.5s-28.667 13.5 -50 13.5c-20.667 0 -37 -4.5 -49 -13.5s-18 -21.5 -18 -37.5s5.83301 -28.5 17.5 -37.5s28.167 -13.5 49.5 -13.5s38 4.5 50 13.5z" />
    <glyph glyph-name="uni2079" unicode="&#x2079;" horiz-adv-x="400" 
d="M323.5 683c31 -34.667 46.499 -85.332 46.499 -151.999c0 -68 -16.5 -119 -49.5 -153s-78.167 -51 -135.5 -51c-82.667 0 -133.667 30.333 -153 91l91 33c3.33301 -16 10 -27.5 20 -34.5s25 -10.5 45 -10.5c28.667 0 49.5 9.83301 62.5 29.5s19.5 44.5 19.5 74.5
c0 7.33301 -0.333008 12.666 -1 15.999h-1c-6 -12.667 -18.167 -23.667 -36.5 -33s-38.166 -14 -59.499 -14c-44 0 -79.167 11.333 -105.5 34s-39.5 53 -39.5 91c0 41.333 14.5 73.5 43.5 96.5s69.167 34.5 120.5 34.5c57.333 0 101.5 -17.333 132.5 -52zM147.499 643.002
c-11 -9.33301 -16.501 -22.332 -16.501 -38.999c0 -16 5.5 -28.5 16.5 -37.5s26.5 -13.5 46.5 -13.5c19.333 0 34.833 4.66699 46.5 14s17.5 21.666 17.5 36.999c0 16 -5.66699 28.833 -17 38.5s-26.666 14.5 -45.999 14.5c-20.667 0 -36.5 -4.66699 -47.5 -14z" />
    <glyph glyph-name="uni207A" unicode="&#x207a;" horiz-adv-x="349" 
d="M325 495h-111v-115h-78v115h-111v72h111v114h78v-114h111v-72z" />
    <glyph glyph-name="uni207B" unicode="&#x207b;" horiz-adv-x="349" 
d="M30 568h289v-76h-289v76z" />
    <glyph glyph-name="uni207C" unicode="&#x207c;" horiz-adv-x="397" 
d="M54 642h289v-76h-289v76zM54 498h289v-76h-289v76z" />
    <glyph glyph-name="uni207D" unicode="&#x207d;" horiz-adv-x="245" 
d="M249 768c-32.667 -31.333 -56 -65.167 -70 -101.5s-21 -81.5 -21 -135.5s6.83301 -99 20.5 -135s37.167 -70 70.5 -102l-56 -48c-88 68.667 -132 163.667 -132 285s44 216.333 132 285z" />
    <glyph glyph-name="uni207E" unicode="&#x207e;" horiz-adv-x="245" 
d="M184 531c0 -122 -44 -216.999 -132 -284.999l-56 48c33.333 32 57 66 71 102s21 81 21 135s-7 99.167 -21 135.5s-37.667 70.166 -71 101.499l56 48c88 -68 132 -163 132 -285z" />
    <glyph glyph-name="uni2080" unicode="&#x2080;" horiz-adv-x="407" 
d="M28 9c0 136 58.333 204 175 204c117.333 0 176 -68 176 -204s-58.667 -204 -176 -204c-116.667 0 -175 68 -175 204zM258 -88c11.333 20 17 52.333 17 97s-5.66699 77 -17 97s-29.666 30 -54.999 30s-43.666 -10 -54.999 -30s-17 -52.333 -17 -97s5.66699 -77 17 -97
s29.666 -30 54.999 -30s43.666 10 54.999 30z" />
    <glyph glyph-name="uni2081" unicode="&#x2081;" horiz-adv-x="277" 
d="M232 208l-0.00195312 -397h-104v229c0 18.667 1 41 3 67c-38 -30.667 -76.333 -48 -115 -52v86c20.667 3.33301 44.334 11.833 71.001 25.5s45.334 27.5 56.001 41.5h89z" />
    <glyph glyph-name="uni2082" unicode="&#x2082;" horiz-adv-x="382" 
d="M33 -122c44 26.667 74 45.665 90 56.998c44 32 74.833 58.5 92.5 79.5s26.5 41.5 26.5 61.5c0 16.667 -5 30.167 -15 40.5s-24.333 15.5 -43 15.5c-20.667 0 -36.667 -7.16699 -48 -21.5s-17.333 -34.833 -18 -61.5l-98 29c1.33301 42.667 17 75.834 47 99.501
s70 35.5 120 35.5c54 0 94.833 -12.667 122.5 -38s41.5 -55.666 41.5 -90.999c0 -26.667 -9.33301 -52.667 -28 -78s-47.667 -51.333 -87 -78c-18 -12.667 -40.667 -25 -68 -37v-1c36 2 63.333 3 82 3h107v-82h-324v67z" />
    <glyph glyph-name="uni2083" unicode="&#x2083;" horiz-adv-x="373" 
d="M297.5 183.5c26.333 -19.667 39.5 -46.834 39.5 -81.501c0 -26.667 -8 -48.167 -24 -64.5s-35.333 -25.166 -58 -26.499v-3c26 0 47.5 -7.66699 64.5 -23s25.5 -36.666 25.5 -63.999c0 -34.667 -14.5 -62.667 -43.5 -84s-67.167 -32 -114.5 -32
c-46.667 0 -84.167 8 -112.5 24s-48.166 41 -59.499 75l97 38c4 -39.333 27 -59 69 -59c18.667 0 33.334 4.5 44.001 13.5s16 21.5 16 37.5c0 28.667 -20 43 -60 43h-23v59h19c18 0 31.833 4.16699 41.5 12.5s14.5 20.166 14.5 35.499c0 32 -17.667 48 -53 48
c-16.667 0 -30.334 -4.5 -41.001 -13.5s-17.334 -22.5 -20.001 -40.5l-94 31c7.33301 34.667 25.333 60.667 54 78s64 26 106 26c48.667 0 86.167 -9.83301 112.5 -29.5z" />
    <glyph glyph-name="uni2084" unicode="&#x2084;" horiz-adv-x="382" 
d="M364 -99h-64v-90h-90v90h-200v49l169 258h121v-237h64v-70zM210 -29l-0.000976562 91c0 12.667 0.666992 31 2 55l1 24h-3c-7.33301 -18.667 -17.666 -38 -30.999 -58l-77 -112h108z" />
    <glyph glyph-name="uni2085" unicode="&#x2085;" horiz-adv-x="376" 
d="M313 32.5c22.667 -22.333 34.002 -51.833 34.002 -88.5c0 -45.333 -15 -79.666 -45 -102.999s-69 -35 -117 -35c-41.333 0 -75.5 6.16699 -102.5 18.5s-48.5 33.5 -64.5 63.5l94 44c8.66699 -32.667 32.334 -49 71.001 -49c19.333 0 35 5.33301 47 16s18 25 18 43
c0 37.333 -21 56 -63 56c-16.667 0 -30.334 -2.33301 -41.001 -7s-19.334 -12 -26.001 -22l-83 6l22 233h272v-79h-194l-6 -64c-0.666992 -8 -2.33398 -16.667 -5.00098 -26h1c8 9.33301 19 16.166 33 20.499s33.667 6.5 59 6.5c41.333 0 73.333 -11.167 96 -33.5z" />
    <glyph glyph-name="uni2086" unicode="&#x2086;" horiz-adv-x="395" 
d="M76 -143.5c-30.667 34.333 -46.001 85.1689 -46.001 152.502c0 66 17.167 116.5 51.5 151.5s79.5 52.5 135.5 52.5c37.333 0 68.166 -6.66699 92.499 -20s42.833 -35 55.5 -65l-81 -40c-4 14 -11.5 25.167 -22.5 33.5s-25.5 12.5 -43.5 12.5
c-27.333 0 -48.833 -11 -64.5 -33s-23.5 -49.333 -23.5 -82v-11h1c12 17.333 26.333 30.166 43 38.499s37.334 12.5 62.001 12.5c40 0 72.333 -10.833 97 -32.5s37 -52.834 37 -93.501s-14.167 -72.167 -42.5 -94.5s-68.166 -33.5 -119.499 -33.5
c-57.333 0 -101.333 17.167 -132 51.5zM255.999 -103.497c11.333 9 17 21.833 17 38.5c0 16 -5.66699 28.667 -17 38s-27 14 -47 14c-19.333 0 -34.666 -4.83301 -45.999 -14.5s-17 -22.167 -17 -37.5c0 -16.667 5.66699 -29.5 17 -38.5s26.666 -13.5 45.999 -13.5
c20 0 35.667 4.5 47 13.5z" />
    <glyph glyph-name="uni2087" unicode="&#x2087;" horiz-adv-x="339" 
d="M332 208v-72.001c-46 -44.667 -78.5 -93.667 -97.5 -147s-28.5 -112.666 -28.5 -177.999h-104c0 58 10.5 114 31.5 168s52.167 102.667 93.5 146h-220v83h325z" />
    <glyph glyph-name="uni2088" unicode="&#x2088;" horiz-adv-x="405" 
d="M317.5 182c28.333 -20 42.499 -47.335 42.499 -82.002c0 -20.667 -5.83301 -38.5 -17.5 -53.5s-29.167 -26.167 -52.5 -33.5v-1c26.667 -7.33301 47.167 -18.666 61.5 -33.999s21.5 -34.666 21.5 -57.999c0 -36 -15.167 -64.167 -45.5 -84.5
s-72.166 -30.5 -125.499 -30.5c-52.667 0 -94.167 10.167 -124.5 30.5s-45.5 48.5 -45.5 84.5c0 22.667 7 42 21 58s34 27.333 60 34v1c-22 6.66699 -39 17.667 -51 33s-18 33.333 -18 54c0 34.667 14.167 62 42.5 82s66.833 30 115.5 30s87.167 -10 115.5 -30z
M158.499 130.498c-10.333 -8.33301 -15.502 -19.835 -15.502 -34.502c0 -15.333 5.16699 -27.166 15.5 -35.499s24.833 -12.5 43.5 -12.5s33.334 4.33301 44.001 13s16 20.334 16 35.001s-5.16699 26.167 -15.5 34.5s-25.166 12.5 -44.499 12.5
c-18.667 0 -33.167 -4.16699 -43.5 -12.5zM251.997 -111.504c12 9 18 21.5 18 37.5s-6 28.5 -18 37.5s-28.667 13.5 -50 13.5c-20.667 0 -37 -4.5 -49 -13.5s-18 -21.5 -18 -37.5s5.83301 -28.5 17.5 -37.5s28.167 -13.5 49.5 -13.5s38 4.5 50 13.5z" />
    <glyph glyph-name="uni2089" unicode="&#x2089;" horiz-adv-x="400" 
d="M323.5 161c31 -34.667 46.499 -85.332 46.499 -151.999c0 -68 -16.5 -119 -49.5 -153s-78.167 -51 -135.5 -51c-82.667 0 -133.667 30.333 -153 91l91 33c3.33301 -16 10 -27.5 20 -34.5s25 -10.5 45 -10.5c28.667 0 49.5 9.83301 62.5 29.5s19.5 44.5 19.5 74.5
c0 7.33301 -0.333008 12.666 -1 15.999h-1c-6 -12.667 -18.167 -23.667 -36.5 -33s-38.166 -14 -59.499 -14c-44 0 -79.167 11.333 -105.5 34s-39.5 53 -39.5 91c0 41.333 14.5 73.5 43.5 96.5s69.167 34.5 120.5 34.5c57.333 0 101.5 -17.333 132.5 -52zM147.499 121.002
c-11 -9.33301 -16.501 -22.332 -16.501 -38.999c0 -16 5.5 -28.5 16.5 -37.5s26.5 -13.5 46.5 -13.5c19.333 0 34.833 4.66699 46.5 14s17.5 21.666 17.5 36.999c0 16 -5.66699 28.833 -17 38.5s-26.666 14.5 -45.999 14.5c-20.667 0 -36.5 -4.66699 -47.5 -14z" />
    <glyph glyph-name="uni208A" unicode="&#x208a;" horiz-adv-x="349" 
d="M325 -27h-111v-115h-78v115h-111v72h111v114h78v-114h111v-72z" />
    <glyph glyph-name="uni208B" unicode="&#x208b;" horiz-adv-x="349" 
d="M30 46h289v-76h-289v76z" />
    <glyph glyph-name="uni208C" unicode="&#x208c;" horiz-adv-x="397" 
d="M54 120h289v-76h-289v76zM54 -24h289v-76h-289v76z" />
    <glyph glyph-name="uni208D" unicode="&#x208d;" horiz-adv-x="245" 
d="M249 246c-32.667 -31.333 -56 -65.167 -70 -101.5s-21 -81.5 -21 -135.5s6.83301 -99 20.5 -135s37.167 -70 70.5 -102l-56 -48c-88 68.667 -132 163.667 -132 285s44 216.333 132 285z" />
    <glyph glyph-name="uni208E" unicode="&#x208e;" horiz-adv-x="245" 
d="M184 9c0 -122 -44 -216.999 -132 -284.999l-56 48c33.333 32 57 66 71 102s21 81 21 135s-7 99.167 -21 135.5s-37.667 70.166 -71 101.499l56 48c88 -68 132 -163 132 -285z" />
    <glyph glyph-name="Euro" unicode="&#x20ac;" horiz-adv-x="701" 
d="M671 172c-16 -58 -47.168 -102.836 -93.501 -134.503s-100.833 -47.5 -163.5 -47.5c-74.667 0 -136.667 19.167 -186 57.5s-82.666 92.833 -99.999 163.5h-90v73h79c-1.33301 10 -2 25.333 -2 46v24h-77v73h86c14.667 76.667 47 136.334 97 179.001s113.667 64 191 64
c62 0 115.5 -13.667 160.5 -41s75.5 -65.666 91.5 -114.999l-106 -49c-8 34 -24.333 59.667 -49 77s-54 26 -88 26c-42.667 0 -78.334 -12.167 -107.001 -36.5s-48.667 -59.166 -60 -104.499h237l-24 -73h-223c-0.666992 -5.33301 -1 -13.333 -1 -24s0.666992 -26 2 -46h205
l-22 -73h-169c12.667 -38.667 32.334 -68.167 59.001 -88.5s59.667 -30.5 99 -30.5c34.667 0 65 9.83301 91 29.5s43.667 48.167 53 85.5z" />
    <glyph glyph-name="uni20BA" unicode="&#x20ba;" horiz-adv-x="688" 
d="M648 290c-2.66699 -94.667 -27.167 -166.668 -73.5 -216.001s-113.5 -74 -201.5 -74h-213v262l-113 -32v60l113 32v84l-113 -32v61l113 32v193h136v-155l188 53v-60l-188 -54v-83l188 53v-61l-188 -53v-193h62c52 0 91.167 14.833 117.5 44.5s39.5 75.834 39.5 138.501
h133z" />
    <glyph glyph-name="uni20BD" unicode="&#x20bd;" horiz-adv-x="672" 
d="M264 267v-66h180v-93h-180v-108h-135v108h-88v93h88v66h-88v99h88v294h262c78 0 138 -17 180 -51s63 -82.667 63 -146c0 -62.667 -21 -111 -63 -145s-102 -51 -180 -51h-127zM264 366h106c42.667 0 74 7.5 94 22.5s30 38.5 30 70.5s-10 55.5 -30 70.5
s-51.333 22.5 -94 22.5h-106v-186z" />
    <glyph glyph-name="uni2113" unicode="&#x2113;" horiz-adv-x="431" 
d="M344.5 88c12.333 2 25.832 5.33301 40.499 10l-7 -92c-28 -10.667 -62.333 -16 -103 -16c-58 0 -100 11.667 -126 35s-39 61.333 -39 114v52c-20 -7.33301 -43 -13.666 -69 -18.999v77c26.667 5.33301 49.667 11.333 69 18v245c0 51.333 11 90.5 33 117.5
s57 40.5 105 40.5s81.833 -12 101.5 -36s29.5 -59 29.5 -105c0 -50.667 -12.833 -99.834 -38.5 -147.501s-61.5 -89.167 -107.5 -124.5v-102c0 -21.333 5.33301 -38.333 16 -51s27.334 -19 50.001 -19c18 0 33.167 1 45.5 3zM241.499 576.5
c-5.66699 -11 -8.5 -27.832 -8.5 -50.499v-181c24 25.333 42 54.166 54 86.499s18 66.5 18 102.5c0 21.333 -2.66699 36.5 -8 45.5s-14.333 13.5 -27 13.5c-13.333 0 -22.833 -5.5 -28.5 -16.5z" />
    <glyph glyph-name="trademark" unicode="&#x2122;" horiz-adv-x="832" 
d="M325 593h-101v-263h-89v263h-102v67h292v-67zM772 660v-330h-88v140l6 97h-2l-15 -54l-64 -183h-69l-65 183l-16 54h-1l5 -97v-140h-88v330h123l56 -161l19 -64h3l18 64l57 161h121z" />
    <glyph glyph-name="uni2126" unicode="&#x2126;" horiz-adv-x="776" 
d="M713 98l-0.00488281 -98h-279v98c42.667 9.33301 75.334 33.333 98.001 72s34 91.334 34 158.001c0 72.667 -15.667 129 -47 169s-75 60 -131 60s-99.5 -19.833 -130.5 -59.5s-46.5 -96.167 -46.5 -169.5c0 -66.667 11.167 -119.334 33.5 -158.001
s54.833 -62.667 97.5 -72v-98h-279v98h148c-44.667 24 -79.167 56.833 -103.5 98.5s-36.5 90.834 -36.5 147.501c0 66.667 12.833 124.5 38.5 173.5s62.334 86.667 110.001 113s103.834 39.5 168.501 39.5s120.834 -13.167 168.501 -39.5s84.334 -64 110.001 -113
s38.5 -106.833 38.5 -173.5c0 -56.667 -12.167 -105.834 -36.5 -147.501s-58.833 -74.5 -103.5 -98.5h148z" />
    <glyph glyph-name="estimated" unicode="&#x212e;" horiz-adv-x="786" 
d="M646 574.5c58.667 -63.667 87.668 -155.833 87.001 -276.5h-536v-161c25.333 -27.333 56.666 -48.166 93.999 -62.499s79 -21.5 125 -21.5c61.333 0 115.833 13 163.5 39s89.167 68 124.5 126v-87c-28 -46.667 -66.667 -81.834 -116 -105.501s-106.333 -35.5 -171 -35.5
c-74.667 0 -139 14 -193 42s-95.333 67.5 -124 118.5s-43 110.833 -43 179.5c0 68 14 127.667 42 179s67.667 91 119 119s111 42 179 42c107.333 0 190.333 -31.833 249 -95.5zM197.001 524.001v-161h399v164c-47.333 53.333 -113.666 80 -198.999 80
c-86.667 0 -153.334 -27.667 -200.001 -83z" />
    <glyph glyph-name="arrowleft" unicode="&#x2190;" horiz-adv-x="750" 
d="M418 263c-60 0 -121.329 3.99902 -183.996 11.999c72 -51.333 137.333 -121.333 196 -210l-104 -75c-46.667 78.667 -93.334 144.334 -140.001 197.001s-98.334 99.667 -155.001 141v6c56.667 40.667 108.167 87.667 154.5 141s93.166 119 140.499 197l104 -75
c-58.667 -88.667 -124 -158.667 -196 -210c59.333 8.66699 120.666 13 183.999 13h279v-137h-279z" />
    <glyph glyph-name="arrowup" unicode="&#x2191;" horiz-adv-x="750" 
d="M518 511.5c53.333 -46.333 118.999 -93.1699 196.999 -140.503l-75 -104c-88.667 58.667 -158.667 124 -210 196c8.66699 -59.333 13 -120.666 13 -183.999v-279h-137v279c0 68 4 129.333 12 184c-51.333 -72 -121.333 -137.333 -210 -196l-75 104
c78.667 46.667 144.334 93.334 197.001 140.001s99.667 98.334 141 155.001h6c40.667 -56.667 87.667 -108.167 141 -154.5z" />
    <glyph glyph-name="arrowright" unicode="&#x2192;" horiz-adv-x="750" 
d="M564.5 475c46.333 -53.333 97.8369 -100.332 154.504 -140.999v-6c-56.667 -41.333 -108.334 -88.333 -155.001 -141s-93.334 -118.334 -140.001 -197.001l-104 75c58.667 88.667 124 158.667 196 210c-62.667 -8 -124 -12 -184 -12h-279v137h279
c63.333 0 124.666 -4.33301 183.999 -13c-72 51.333 -137.333 121.333 -196 210l104 75c47.333 -78 94.166 -143.667 140.499 -197z" />
    <glyph glyph-name="arrowdown" unicode="&#x2193;" horiz-adv-x="750" 
d="M717 289c-78 -47.333 -143.666 -94.1689 -196.999 -140.502s-100.333 -97.833 -141 -154.5h-6c-41.333 56.667 -88.333 108.334 -141 155.001s-118.334 93.334 -197.001 140.001l75 104c88.667 -58.667 158.667 -124 210 -196c-8 62.667 -12 124 -12 184v279h137v-279
c0 -63.333 -4.33301 -124.333 -13 -183c52 72 122 137 210 195z" />
    <glyph glyph-name="arrowboth" unicode="&#x2194;" horiz-adv-x="1085" 
d="M899 493.5c46.667 -53 98.334 -100.167 155.001 -141.5v-6c-56.667 -41.333 -108.334 -88.333 -155.001 -141s-93.334 -118 -140.001 -196l-108 68c60 90 126.333 162 199 216c-54.667 -8 -107.667 -12 -159 -12h-298c-51.333 0 -104 4 -158 12
c74.667 -55.333 141 -127.333 199 -216l-108 -68c-46.667 78 -93.334 143.333 -140.001 196s-98.334 99.667 -155.001 141v6c56.667 41.333 108.334 88.5 155.001 141.5s93.334 118.5 140.001 196.5l108 -68c-60 -90.667 -126 -162.667 -198 -216c54 8 106.333 12 157 12
h298c51.333 0 104 -4 158 -12c-72 53.333 -138 125.333 -198 216l108 68c46.667 -78 93.334 -143.5 140.001 -196.5z" />
    <glyph glyph-name="arrowupdn" unicode="&#x2195;" horiz-adv-x="750" 
d="M647 222l68 -107.996c-78 -47.333 -143.5 -94.166 -196.5 -140.499s-100.167 -97.833 -141.5 -154.5h-6c-40.667 56.667 -87.334 108.167 -140.001 154.5s-118.334 93.166 -197.001 140.499l68 108c92 -60.667 163.667 -127 215 -199c-7.33301 50 -11 102.667 -11 158
v298c0 55.333 3.66699 108 11 158c-51.333 -72 -123 -138.333 -215 -199l-68 108c78.667 47.333 144.334 94.166 197.001 140.499s99.334 97.833 140.001 154.5h6c41.333 -56.667 88.5 -108.167 141.5 -154.5s118.5 -93.166 196.5 -140.499l-68 -108
c-90.667 59.333 -162.667 125.666 -216 198.999c8 -54.667 12 -107.334 12 -158.001v-298c0 -50.667 -4 -103.334 -12 -158.001c53.333 73.333 125.333 139.666 216 198.999z" />
    <glyph glyph-name="uni2196" unicode="&#x2196;" horiz-adv-x="750" 
d="M643 164l-89 -88.001l-198 198c-51.333 50 -96 98.667 -134 146c14 -66 21 -134.667 21 -206c0 -30 -1.66699 -64 -5 -102l-124 7c12 66.667 18 141.334 18 224.001s-6 168.667 -18 258l4 4c88.667 -12 173.667 -18 255 -18c84 0 159.667 6 227 18l7 -124
c-38 -3.33301 -72 -5 -102 -5c-72 0 -141 7 -207 21c40.667 -32 89.667 -76.667 147 -134z" />
    <glyph glyph-name="uni2197" unicode="&#x2197;" horiz-adv-x="750" 
d="M618 343c0 -82.667 6 -157.334 18 -224.001l-123 -7c-4 36 -6 71.333 -6 106c0 70 7 137.333 21 202c-38 -47.333 -82.667 -96 -134 -146l-198 -198l-89 88l198 199c47.333 48.667 96.333 93.334 147 134.001c-66 -14 -135 -21 -207 -21c-30 0 -64 1.66699 -102 5l7 124
c67.333 -12 143 -18 227 -18c81.333 0 166.333 6 255 18l4 -4c-12 -89.333 -18 -175.333 -18 -258z" />
    <glyph glyph-name="uni2198" unicode="&#x2198;" horiz-adv-x="750" 
d="M612 348c0 -81.333 6 -166.333 18 -255l-5 -4c-89.333 12 -175.333 18 -258 18c-82 0 -156.333 -6 -223 -18l-7 124c38 3.33301 72 5 102 5c71.333 0 140.333 -7 207 -21c-40.667 31.333 -90 76 -148 134l-197 198l88 89l198 -198c52 -50.667 97 -99.667 135 -147
c-14 66.667 -21 135.667 -21 207c0 30 1.66699 64 5 102l124 -7c-12 -67.333 -18 -143 -18 -227z" />
    <glyph glyph-name="uni2199" unicode="&#x2199;" horiz-adv-x="750" 
d="M511 218c30 0 64 -1.66699 102 -5l-7 -124c-66.667 12 -141 18 -223 18c-82.667 0 -168.667 -6 -258 -18l-5 4c12 88.667 18 173.667 18 255c0 84 -6 159.667 -18 227l124 7c3.33301 -38 5 -72 5 -102c0 -71.333 -7 -140.333 -21 -207c38 47.333 83 96.333 135 147
l198 198l88 -89l-197 -198c-58 -58 -107.333 -102.667 -148 -134c66.667 14 135.667 21 207 21z" />
    <glyph glyph-name="partialdiff" unicode="&#x2202;" horiz-adv-x="645" 
d="M511.5 584c47 -57.333 70.499 -139.665 70.499 -246.998c0 -231.333 -94.333 -347 -283 -347c-44 0 -83.833 8.83301 -119.5 26.5s-63.834 43 -84.501 76s-31 71.833 -31 116.5c0 43.333 10.167 81.5 30.5 114.5s47.833 58.5 82.5 76.5s73 27 115 27
c36.667 0 68.834 -7.5 96.501 -22.5s49.834 -36.833 66.501 -65.5c-2.66699 77.333 -18.5 133.166 -47.5 167.499s-69.833 51.5 -122.5 51.5c-28.667 0 -53.667 -4.33301 -75 -13s-42.333 -23.334 -63 -44.001l-61 90c32.667 27.333 65.667 47.333 99 60s72 19 116 19
c93.333 0 163.5 -28.667 210.5 -86zM447.999 228.001c-9.33301 28.667 -25.168 52 -47.501 70s-51.166 27 -86.499 27c-34.667 0 -61.667 -10 -81 -30s-29 -47.667 -29 -83s9.5 -63 28.5 -83s46.833 -30 83.5 -30c71.333 0 115.333 43 132 129z" />
    <glyph glyph-name="uni2206" unicode="&#x2206;" horiz-adv-x="721" 
d="M681 91v-91h-641v91l248 569h145zM153 101h414l-207 474z" />
    <glyph glyph-name="product" unicode="&#x220f;" horiz-adv-x="698" 
d="M623 -128h-130v677h-287v-677h-131v788h548v-788z" />
    <glyph glyph-name="summation" unicode="&#x2211;" horiz-adv-x="660" 
d="M600 552h-389l282 -273v-24l-283 -279h390v-104h-543v104l290 291l-290 285v108h543v-108z" />
    <glyph glyph-name="minus" unicode="&#x2212;" 
d="M545 267h-486v109h486v-109z" />
    <glyph glyph-name="uni2215" unicode="&#x2215;" horiz-adv-x="258" 
d="M315 660h104l-476 -660h-105z" />
    <glyph glyph-name="uni2219" unicode="&#x2219;" horiz-adv-x="256" 
d="M192.5 401c15.667 -14.667 23.5 -34.3301 23.5 -58.9971s-7.83301 -44.334 -23.5 -59.001s-36.834 -22 -63.501 -22s-47.834 7.16699 -63.501 21.5s-23.5 34.166 -23.5 59.499s7.83301 45.166 23.5 59.499s36.834 21.5 63.501 21.5s47.834 -7.33301 63.501 -22z" />
    <glyph glyph-name="radical" unicode="&#x221a;" horiz-adv-x="682" 
d="M708 818l-320 -818h-136l-133 332h-102v109h175l95 -237l34 -106l37 113l230 607h120z" />
    <glyph glyph-name="infinity" unicode="&#x221e;" horiz-adv-x="921" 
d="M818.5 462c34.333 -36 51.499 -90.666 51.499 -163.999s-17.5 -128 -52.5 -164s-81.167 -54 -138.5 -54c-39.333 0 -76 10.167 -110 30.5s-74.667 55.166 -122 104.499c-36.667 -40 -66 -69.333 -88 -88s-42.167 -31.167 -60.5 -37.5s-40.833 -9.5 -67.5 -9.5
c-51.333 0 -94.166 18.167 -128.499 54.5s-51.5 90.833 -51.5 163.5s17.167 127.167 51.5 163.5s77.5 54.5 129.5 54.5c40.667 0 79.334 -9.5 116.001 -28.5s79 -53.833 127 -104.5c36.667 40 67.167 69.5 91.5 88.5s45.166 31.167 62.499 36.5s37.333 8 60 8
c52 0 95.167 -18 129.5 -54zM742.999 246.001c14 18.667 21 44.667 21 78c0 32.667 -6.66699 58.334 -20 77.001s-31.333 28 -54 28c-14 0 -26.667 -2.5 -38 -7.5s-26 -15.5 -44 -31.5s-42.333 -41.333 -73 -76c32 -34.667 59.5 -59.334 82.5 -74.001s45.833 -22 68.5 -22
c24 0 43 9.33301 57 28zM270.499 175.501c11 5 25.002 15.499 42.002 31.499s41.167 41.333 72.5 76c-34.667 36.667 -62.334 61.667 -83.001 75s-42.334 20 -65.001 20c-23.333 0 -42.5 -9 -57.5 -27s-22.5 -44 -22.5 -78c0 -33.333 7.16699 -59.166 21.5 -77.499
s32.5 -27.5 54.5 -27.5c14 0 26.5 2.5 37.5 7.5z" />
    <glyph glyph-name="integral" unicode="&#x222b;" horiz-adv-x="471" 
d="M413 751c16 -4.66699 30.667 -11.667 44 -21l-13 -94c-18.667 14 -41 21 -67 21c-23.333 0 -42 -6.33301 -56 -19s-21 -32.334 -21 -59.001v-538c0 -54 -16.5 -95.667 -49.5 -125s-75.833 -44 -128.5 -44c-26 0 -47 2.33301 -63 7s-31 11.667 -45 21l13 94
c20 -14 42.333 -21 67 -21c23.333 0 42 6.33301 56 19s21 32.334 21 59.001v538c0 54 16.667 95.667 50 125s76.333 44 129 44c26 0 47 -2.33301 63 -7z" />
    <glyph glyph-name="approxequal" unicode="&#x2248;" 
d="M249.5 510c19 -6 41.165 -14.668 66.498 -26.001c20 -10 37.667 -17.5 53 -22.5s30.333 -7.5 45 -7.5c24.667 0 47.167 3.83301 67.5 11.5s41.833 21.5 64.5 41.5v-106c-38 -35.333 -81 -53 -129 -53c-19.333 0 -37.666 2.83301 -54.999 8.5s-38.666 14.167 -63.999 25.5
c-25.333 10.667 -45.5 18.5 -60.5 23.5s-30.833 7.5 -47.5 7.5c-28.667 0 -52.667 -4.16699 -72 -12.5s-39.333 -22.166 -60 -41.499v107c22.667 19.333 43.5 33 62.5 41s42.167 12 69.5 12c20.667 0 40.5 -3 59.5 -9zM249.498 287.999c19 -6 41.165 -14.668 66.498 -26.001
c21.333 -9.33301 39.333 -16.5 54 -21.5s29.334 -7.5 44.001 -7.5c25.333 0 48.166 3.66699 68.499 11s41.5 21.333 63.5 42v-106c-38 -35.333 -81 -53 -129 -53c-19.333 0 -37.666 2.83301 -54.999 8.5s-38.666 14.167 -63.999 25.5c-25.333 10.667 -45.5 18.5 -60.5 23.5
s-30.833 7.5 -47.5 7.5c-28.667 0 -52.667 -4.16699 -72 -12.5s-39.333 -22.166 -60 -41.499v107c22 19.333 42.5 32.833 61.5 40.5s42.5 11.5 70.5 11.5c20.667 0 40.5 -3 59.5 -9z" />
    <glyph glyph-name="notequal" unicode="&#x2260;" 
d="M379 373l-58 -123h224v-98h-270l-52 -111h-97l52 111h-119v98h165l58 123h-223v98h269l54 115h97l-54 -115h120v-98h-166z" />
    <glyph glyph-name="lessequal" unicode="&#x2264;" 
d="M550 525l-412 -127l412 -128v-121l-486 170v157l486 171v-122zM64 105h486v-105h-486v105z" />
    <glyph glyph-name="greaterequal" unicode="&#x2265;" 
d="M540 476v-157l-486 -170v121l412 128l-412 127v122zM54 105h486v-105h-486v105z" />
    <glyph glyph-name="uni25AA" unicode="&#x25aa;" horiz-adv-x="600" 
d="M550 500v-500h-500v500h500z" />
    <glyph glyph-name="uni25AB" unicode="&#x25ab;" horiz-adv-x="600" 
d="M46 500h508v-500h-508v500zM448 95v310h-296v-310h296z" />
    <glyph glyph-name="uni25C6" unicode="&#x25c6;" horiz-adv-x="600" 
d="M35 259l265 265l265 -265l-265 -265z" />
    <glyph glyph-name="uni25C7" unicode="&#x25c7;" horiz-adv-x="600" 
d="M35 259l265 265l265 -265l-265 -265zM435 259l-135 135l-135 -135l135 -135z" />
    <glyph glyph-name="lozenge" unicode="&#x25ca;" horiz-adv-x="629" 
d="M582 330l-195 -330h-145l-195 330l195 330h145zM448 330l-133 250l-134 -250l134 -250z" />
    <glyph glyph-name="circle" unicode="&#x25cb;" horiz-adv-x="600" 
d="M165 24c-40.667 22.667 -72.5 53.834 -95.5 93.501s-34.5 83.834 -34.5 132.501s11.5 92.834 34.5 132.501s54.833 70.834 95.5 93.501s85.667 34 135 34s94.333 -11.333 135 -34s72.5 -53.834 95.5 -93.501s34.5 -83.834 34.5 -132.501s-11.5 -92.834 -34.5 -132.501
s-54.833 -70.834 -95.5 -93.501s-85.667 -34 -135 -34s-94.333 11.333 -135 34zM380 111c24 14 42.833 33.167 56.5 57.5s20.5 51.5 20.5 81.5s-6.83301 57.167 -20.5 81.5s-32.5 43.5 -56.5 57.5s-50.667 21 -80 21s-56 -7 -80 -21s-42.833 -33.167 -56.5 -57.5
s-20.5 -51.5 -20.5 -81.5s6.83301 -57.167 20.5 -81.5s32.5 -43.5 56.5 -57.5s50.667 -21 80 -21s56 7 80 21z" />
    <glyph glyph-name="uni25CF" unicode="&#x25cf;" horiz-adv-x="600" 
d="M167.5 24c-39.667 22.667 -70.834 53.834 -93.501 93.501s-34 83.834 -34 132.501s11.333 92.834 34 132.501s53.834 70.834 93.501 93.501s83.834 34 132.501 34s92.834 -11.333 132.501 -34s70.834 -53.834 93.501 -93.501s34 -83.834 34 -132.501
s-11.333 -92.834 -34 -132.501s-53.834 -70.834 -93.501 -93.501s-83.834 -34 -132.501 -34s-92.834 11.333 -132.501 34z" />
    <glyph glyph-name="uni275B" unicode="&#x275b;" horiz-adv-x="711" 
d="M626 575c-125.333 0 -220.501 -13.166 -285.501 -39.499s-113.167 -65.833 -144.5 -118.5l7 -5c24 18 49 31.333 75 40s60.667 13 104 13c80.667 0 145.5 -20.333 194.5 -61s73.5 -98.334 73.5 -173.001c0 -78 -24.833 -137.667 -74.5 -179s-118.834 -62 -207.501 -62
c-105.333 0 -182.666 25.5 -231.999 76.5s-74 121.833 -74 212.5c0 121.333 40.833 216 122.5 284s211.834 102 390.501 102z" />
    <glyph glyph-name="uni275C" unicode="&#x275c;" horiz-adv-x="711" 
d="M85 -45c125.333 0 220.503 13.166 285.503 39.499s113.167 65.833 144.5 118.5l-7 5c-24 -18 -49 -31.333 -75 -40s-60.667 -13 -104 -13c-80.667 0 -145.334 20.333 -194.001 61s-73 98.334 -73 173.001c0 78 24.667 137.667 74 179s118.333 62 207 62
c105.333 0 182.666 -25.5 231.999 -76.5s74 -121.833 74 -212.5c0 -121.333 -40.833 -216 -122.5 -284s-211.834 -102 -390.501 -102z" />
    <glyph glyph-name="uni275D" unicode="&#x275d;" horiz-adv-x="1243" 
d="M1107.5 404c49 -40.667 73.498 -98.333 73.498 -173c0 -78 -24.667 -137.667 -74 -179s-118.333 -62 -207 -62c-135.333 0 -226 43.667 -272 131c-20 -42.667 -52.167 -75.167 -96.5 -97.5s-98.833 -33.5 -163.5 -33.5c-105.333 0 -182.666 25.5 -231.999 76.5
s-74 121.833 -74 212.5c0 121.333 40.833 216 122.5 284s211.834 102 390.501 102l51 -90c-125.333 0 -220.5 -13.167 -285.5 -39.5s-113.167 -65.833 -144.5 -118.5l7 -5c24 18 49 31.333 75 40s60.667 13 104 13c48 0 91.167 -7.66699 129.5 -23s68.833 -37.333 91.5 -66
c19.333 92 69.833 163.167 151.5 213.5s199.167 75.5 352.5 75.5l51 -90c-126 0 -221.333 -13.167 -286 -39.5s-112.667 -65.833 -144 -118.5l7 -5c23.333 18 48 31.333 74 40s60.667 13 104 13c80.667 0 145.5 -20.333 194.5 -61z" />
    <glyph glyph-name="uni275E" unicode="&#x275e;" horiz-adv-x="1243" 
d="M1107 463.5c49.333 -51 73.999 -121.834 73.999 -212.501c0 -121.333 -40.833 -216 -122.5 -284s-212.167 -102 -391.5 -102l-50 90c125.333 0 220.5 13.167 285.5 39.5s112.833 65.833 143.5 118.5l-6 5c-23.333 -18 -48.166 -31.333 -74.499 -40
s-61.166 -13 -104.499 -13c-48 0 -91.167 7.66699 -129.5 23s-69.166 37.333 -92.499 66c-19.333 -92 -69.833 -163.167 -151.5 -213.5s-198.834 -75.5 -351.501 -75.5l-51 90c126 0 221.333 13.167 286 39.5s112.667 65.833 144 118.5l-7 5
c-23.333 -18 -48 -31.333 -74 -40s-60.667 -13 -104 -13c-80.667 0 -145.5 20.333 -194.5 61s-73.5 98.334 -73.5 173.001c0 78 24.667 137.667 74 179s118.333 62 207 62c135.333 0 226 -43.667 272 -131c20 42.667 52.333 75.167 97 97.5s99 33.5 163 33.5
c105.333 0 182.666 -25.5 231.999 -76.5z" />
    <glyph glyph-name="uni2761" unicode="&#x2761;" horiz-adv-x="702" 
d="M638 85c0 -85.333 -25.668 -156.667 -77.001 -214s-135 -86 -251 -86c-72.667 0 -129.667 15.5 -171 46.5s-62 72.833 -62 125.5c0 16 2 32.667 6 50l82 20c-3.33301 -14 -5 -29.333 -5 -46c0 -33.333 9.16699 -59.166 27.5 -77.499s41.833 -27.5 70.5 -27.5
c31.333 0 54 10.5 68 31.5s21 50.833 21 89.5v205h-43c-46 0 -88 9.16699 -126 27.5s-68 44.666 -90 78.999s-33 74.5 -33 120.5c0 45.333 10.833 85.5 32.5 120.5s52.834 62.167 93.501 81.5s88.667 29 144 29h313v-575zM449.999 564.999v-565.001
c0 -30.667 -5 -57.5 -15 -80.5s-23.667 -39.5 -41 -49.5l3 -4c46 12.667 79.667 36.834 101 72.501s32 79.167 32 130.5v496h-80z" />
    <glyph glyph-name="uni2780" unicode="&#x2780;" horiz-adv-x="910" 
d="M257.5 6.5c-57 31 -101.333 74.5 -133 130.5s-47.5 120.333 -47.5 193s15.833 137 47.5 193s76 99.5 133 130.5s122.833 46.5 197.5 46.5s140.5 -15.5 197.5 -46.5s101.333 -74.5 133 -130.5s47.5 -120.333 47.5 -193s-15.833 -137 -47.5 -193s-76 -99.5 -133 -130.5
s-122.833 -46.5 -197.5 -46.5s-140.5 15.5 -197.5 46.5zM610.5 69.5c45 25 80 60 105 105s37.5 96.833 37.5 155.5s-12.5 110.5 -37.5 155.5s-60 80 -105 105s-96.833 37.5 -155.5 37.5s-110.5 -12.5 -155.5 -37.5s-80 -60 -105 -105s-37.5 -96.833 -37.5 -155.5
s12.5 -110.5 37.5 -155.5s60 -80 105 -105s96.833 -37.5 155.5 -37.5s110.5 12.5 155.5 37.5zM532 533l-0.00195312 -397h-104v229c0 18.667 1 41 3 67c-38 -30.667 -76.333 -48 -115 -52v86c20.667 3.33301 44.334 11.833 71.001 25.5s45.334 27.5 56.001 41.5h89z" />
    <glyph glyph-name="uni2781" unicode="&#x2781;" horiz-adv-x="910" 
d="M257.5 6.5c-57 31 -101.333 74.5 -133 130.5s-47.5 120.333 -47.5 193s15.833 137 47.5 193s76 99.5 133 130.5s122.833 46.5 197.5 46.5s140.5 -15.5 197.5 -46.5s101.333 -74.5 133 -130.5s47.5 -120.333 47.5 -193s-15.833 -137 -47.5 -193s-76 -99.5 -133 -130.5
s-122.833 -46.5 -197.5 -46.5s-140.5 15.5 -197.5 46.5zM610.5 69.5c45 25 80 60 105 105s37.5 96.833 37.5 155.5s-12.5 110.5 -37.5 155.5s-60 80 -105 105s-96.833 37.5 -155.5 37.5s-110.5 -12.5 -155.5 -37.5s-80 -60 -105 -105s-37.5 -96.833 -37.5 -155.5
s12.5 -110.5 37.5 -155.5s60 -80 105 -105s96.833 -37.5 155.5 -37.5s110.5 12.5 155.5 37.5zM296 213c44 26.667 74 45.665 90 56.998c44 32 74.833 58.5 92.5 79.5s26.5 41.5 26.5 61.5c0 16.667 -5 30.167 -15 40.5s-24.333 15.5 -43 15.5
c-20.667 0 -36.667 -7.16699 -48 -21.5s-17.333 -34.833 -18 -61.5l-98 29c1.33301 42.667 17 75.834 47 99.501s70 35.5 120 35.5c54 0 94.833 -12.667 122.5 -38s41.5 -55.666 41.5 -90.999c0 -26.667 -9.33301 -52.667 -28 -78s-47.667 -51.333 -87 -78
c-18 -12.667 -40.667 -25 -68 -37v-1c36 2 63.333 3 82 3h107v-82h-324v67z" />
    <glyph glyph-name="uni2782" unicode="&#x2782;" horiz-adv-x="910" 
d="M257.5 6.5c-57 31 -101.333 74.5 -133 130.5s-47.5 120.333 -47.5 193s15.833 137 47.5 193s76 99.5 133 130.5s122.833 46.5 197.5 46.5s140.5 -15.5 197.5 -46.5s101.333 -74.5 133 -130.5s47.5 -120.333 47.5 -193s-15.833 -137 -47.5 -193s-76 -99.5 -133 -130.5
s-122.833 -46.5 -197.5 -46.5s-140.5 15.5 -197.5 46.5zM610.5 69.5c45 25 80 60 105 105s37.5 96.833 37.5 155.5s-12.5 110.5 -37.5 155.5s-60 80 -105 105s-96.833 37.5 -155.5 37.5s-110.5 -12.5 -155.5 -37.5s-80 -60 -105 -105s-37.5 -96.833 -37.5 -155.5
s12.5 -110.5 37.5 -155.5s60 -80 105 -105s96.833 -37.5 155.5 -37.5s110.5 12.5 155.5 37.5zM572.5 505.5c26.333 -19.667 39.5 -46.834 39.5 -81.501c0 -26.667 -8 -48.167 -24 -64.5s-35.333 -25.166 -58 -26.499v-3c26 0 47.5 -7.66699 64.5 -23
s25.5 -36.666 25.5 -63.999c0 -34.667 -14.5 -62.667 -43.5 -84s-67.167 -32 -114.5 -32c-46.667 0 -84.167 8 -112.5 24s-48.166 41 -59.499 75l97 38c4 -39.333 27 -59 69 -59c18.667 0 33.334 4.5 44.001 13.5s16 21.5 16 37.5c0 28.667 -20 43 -60 43h-23v59h19
c18 0 31.833 4.16699 41.5 12.5s14.5 20.166 14.5 35.499c0 32 -17.667 48 -53 48c-16.667 0 -30.334 -4.5 -41.001 -13.5s-17.334 -22.5 -20.001 -40.5l-94 31c7.33301 34.667 25.333 60.667 54 78s64 26 106 26c48.667 0 86.167 -9.83301 112.5 -29.5z" />
    <glyph glyph-name="uni2783" unicode="&#x2783;" horiz-adv-x="910" 
d="M257.5 6.5c-57 31 -101.333 74.5 -133 130.5s-47.5 120.333 -47.5 193s15.833 137 47.5 193s76 99.5 133 130.5s122.833 46.5 197.5 46.5s140.5 -15.5 197.5 -46.5s101.333 -74.5 133 -130.5s47.5 -120.333 47.5 -193s-15.833 -137 -47.5 -193s-76 -99.5 -133 -130.5
s-122.833 -46.5 -197.5 -46.5s-140.5 15.5 -197.5 46.5zM610.5 69.5c45 25 80 60 105 105s37.5 96.833 37.5 155.5s-12.5 110.5 -37.5 155.5s-60 80 -105 105s-96.833 37.5 -155.5 37.5s-110.5 -12.5 -155.5 -37.5s-80 -60 -105 -105s-37.5 -96.833 -37.5 -155.5
s12.5 -110.5 37.5 -155.5s60 -80 105 -105s96.833 -37.5 155.5 -37.5s110.5 12.5 155.5 37.5zM608 226h-64v-90h-90v90h-200v49l169 258h121v-237h64v-70zM454 296l-0.000976562 91c0 12.667 0.666992 31 2 55l1 24h-3c-7.33301 -18.667 -17.666 -38 -30.999 -58l-77 -112
h108z" />
    <glyph glyph-name="uni2784" unicode="&#x2784;" horiz-adv-x="910" 
d="M257.5 6.5c-57 31 -101.333 74.5 -133 130.5s-47.5 120.333 -47.5 193s15.833 137 47.5 193s76 99.5 133 130.5s122.833 46.5 197.5 46.5s140.5 -15.5 197.5 -46.5s101.333 -74.5 133 -130.5s47.5 -120.333 47.5 -193s-15.833 -137 -47.5 -193s-76 -99.5 -133 -130.5
s-122.833 -46.5 -197.5 -46.5s-140.5 15.5 -197.5 46.5zM610.5 69.5c45 25 80 60 105 105s37.5 96.833 37.5 155.5s-12.5 110.5 -37.5 155.5s-60 80 -105 105s-96.833 37.5 -155.5 37.5s-110.5 -12.5 -155.5 -37.5s-80 -60 -105 -105s-37.5 -96.833 -37.5 -155.5
s12.5 -110.5 37.5 -155.5s60 -80 105 -105s96.833 -37.5 155.5 -37.5s110.5 12.5 155.5 37.5zM582 348.5c22.667 -22.333 34.002 -51.833 34.002 -88.5c0 -45.333 -15 -79.666 -45 -102.999s-69 -35 -117 -35c-41.333 0 -75.5 6.16699 -102.5 18.5s-48.5 33.5 -64.5 63.5
l94 44c8.66699 -32.667 32.334 -49 71.001 -49c19.333 0 35 5.33301 47 16s18 25 18 43c0 37.333 -21 56 -63 56c-16.667 0 -30.334 -2.33301 -41.001 -7s-19.334 -12 -26.001 -22l-83 6l22 233h272v-79h-194l-6 -64c-0.666992 -8 -2.33398 -16.667 -5.00098 -26h1
c8 9.33301 19 16.166 33 20.499s33.667 6.5 59 6.5c41.333 0 73.333 -11.167 96 -33.5z" />
    <glyph glyph-name="uni2785" unicode="&#x2785;" horiz-adv-x="910" 
d="M257.5 6.5c-57 31 -101.333 74.5 -133 130.5s-47.5 120.333 -47.5 193s15.833 137 47.5 193s76 99.5 133 130.5s122.833 46.5 197.5 46.5s140.5 -15.5 197.5 -46.5s101.333 -74.5 133 -130.5s47.5 -120.333 47.5 -193s-15.833 -137 -47.5 -193s-76 -99.5 -133 -130.5
s-122.833 -46.5 -197.5 -46.5s-140.5 15.5 -197.5 46.5zM610.5 69.5c45 25 80 60 105 105s37.5 96.833 37.5 155.5s-12.5 110.5 -37.5 155.5s-60 80 -105 105s-96.833 37.5 -155.5 37.5s-110.5 -12.5 -155.5 -37.5s-80 -60 -105 -105s-37.5 -96.833 -37.5 -155.5
s12.5 -110.5 37.5 -155.5s60 -80 105 -105s96.833 -37.5 155.5 -37.5s110.5 12.5 155.5 37.5zM321 177.5c-30.667 34.333 -46.001 85.1689 -46.001 152.502c0 66 17.167 116.5 51.5 151.5s79.5 52.5 135.5 52.5c37.333 0 68.166 -6.66699 92.499 -20s42.833 -35 55.5 -65
l-81 -40c-4 14 -11.5 25.167 -22.5 33.5s-25.5 12.5 -43.5 12.5c-27.333 0 -48.833 -11 -64.5 -33s-23.5 -49.333 -23.5 -82v-11h1c12 17.333 26.333 30.166 43 38.499s37.334 12.5 62.001 12.5c40 0 72.333 -10.833 97 -32.5s37 -52.834 37 -93.501
s-14.167 -72.167 -42.5 -94.5s-68.166 -33.5 -119.499 -33.5c-57.333 0 -101.333 17.167 -132 51.5zM500.999 217.503c11.333 9 17 21.833 17 38.5c0 16 -5.66699 28.667 -17 38s-27 14 -47 14c-19.333 0 -34.666 -4.83301 -45.999 -14.5s-17 -22.167 -17 -37.5
c0 -16.667 5.66699 -29.5 17 -38.5s26.666 -13.5 45.999 -13.5c20 0 35.667 4.5 47 13.5z" />
    <glyph glyph-name="uni2786" unicode="&#x2786;" horiz-adv-x="910" 
d="M257.5 6.5c-57 31 -101.333 74.5 -133 130.5s-47.5 120.333 -47.5 193s15.833 137 47.5 193s76 99.5 133 130.5s122.833 46.5 197.5 46.5s140.5 -15.5 197.5 -46.5s101.333 -74.5 133 -130.5s47.5 -120.333 47.5 -193s-15.833 -137 -47.5 -193s-76 -99.5 -133 -130.5
s-122.833 -46.5 -197.5 -46.5s-140.5 15.5 -197.5 46.5zM610.5 69.5c45 25 80 60 105 105s37.5 96.833 37.5 155.5s-12.5 110.5 -37.5 155.5s-60 80 -105 105s-96.833 37.5 -155.5 37.5s-110.5 -12.5 -155.5 -37.5s-80 -60 -105 -105s-37.5 -96.833 -37.5 -155.5
s12.5 -110.5 37.5 -155.5s60 -80 105 -105s96.833 -37.5 155.5 -37.5s110.5 12.5 155.5 37.5zM624 517v-72.001c-46 -44.667 -78.5 -93.667 -97.5 -147s-28.5 -112.666 -28.5 -177.999h-104c0 58 10.5 114 31.5 168s52.167 102.667 93.5 146h-220v83h325z" />
    <glyph glyph-name="uni2787" unicode="&#x2787;" horiz-adv-x="910" 
d="M257.5 6.5c-57 31 -101.333 74.5 -133 130.5s-47.5 120.333 -47.5 193s15.833 137 47.5 193s76 99.5 133 130.5s122.833 46.5 197.5 46.5s140.5 -15.5 197.5 -46.5s101.333 -74.5 133 -130.5s47.5 -120.333 47.5 -193s-15.833 -137 -47.5 -193s-76 -99.5 -133 -130.5
s-122.833 -46.5 -197.5 -46.5s-140.5 15.5 -197.5 46.5zM610.5 69.5c45 25 80 60 105 105s37.5 96.833 37.5 155.5s-12.5 110.5 -37.5 155.5s-60 80 -105 105s-96.833 37.5 -155.5 37.5s-110.5 -12.5 -155.5 -37.5s-80 -60 -105 -105s-37.5 -96.833 -37.5 -155.5
s12.5 -110.5 37.5 -155.5s60 -80 105 -105s96.833 -37.5 155.5 -37.5s110.5 12.5 155.5 37.5zM570.5 504c28.333 -20 42.499 -47.335 42.499 -82.002c0 -20.667 -5.83301 -38.5 -17.5 -53.5s-29.167 -26.167 -52.5 -33.5v-1c26.667 -7.33301 47.167 -18.666 61.5 -33.999
s21.5 -34.666 21.5 -57.999c0 -36 -15.167 -64.167 -45.5 -84.5s-72.166 -30.5 -125.499 -30.5c-52.667 0 -94.167 10.167 -124.5 30.5s-45.5 48.5 -45.5 84.5c0 22.667 7 42 21 58s34 27.333 60 34v1c-22 6.66699 -39 17.667 -51 33s-18 33.333 -18 54
c0 34.667 14.167 62 42.5 82s66.833 30 115.5 30s87.167 -10 115.5 -30zM411.499 452.498c-10.333 -8.33301 -15.502 -19.835 -15.502 -34.502c0 -15.333 5.16699 -27.166 15.5 -35.499s24.833 -12.5 43.5 -12.5s33.334 4.33301 44.001 13s16 20.334 16 35.001
s-5.16699 26.167 -15.5 34.5s-25.166 12.5 -44.499 12.5c-18.667 0 -33.167 -4.16699 -43.5 -12.5zM504.997 210.496c12 9 18 21.5 18 37.5s-6 28.5 -18 37.5s-28.667 13.5 -50 13.5c-20.667 0 -37 -4.5 -49 -13.5s-18 -21.5 -18 -37.5s5.83301 -28.5 17.5 -37.5
s28.167 -13.5 49.5 -13.5s38 4.5 50 13.5z" />
    <glyph glyph-name="uni2788" unicode="&#x2788;" horiz-adv-x="910" 
d="M257.5 6.5c-57 31 -101.333 74.5 -133 130.5s-47.5 120.333 -47.5 193s15.833 137 47.5 193s76 99.5 133 130.5s122.833 46.5 197.5 46.5s140.5 -15.5 197.5 -46.5s101.333 -74.5 133 -130.5s47.5 -120.333 47.5 -193s-15.833 -137 -47.5 -193s-76 -99.5 -133 -130.5
s-122.833 -46.5 -197.5 -46.5s-140.5 15.5 -197.5 46.5zM610.5 69.5c45 25 80 60 105 105s37.5 96.833 37.5 155.5s-12.5 110.5 -37.5 155.5s-60 80 -105 105s-96.833 37.5 -155.5 37.5s-110.5 -12.5 -155.5 -37.5s-80 -60 -105 -105s-37.5 -96.833 -37.5 -155.5
s12.5 -110.5 37.5 -155.5s60 -80 105 -105s96.833 -37.5 155.5 -37.5s110.5 12.5 155.5 37.5zM590.5 482c31 -34.667 46.499 -85.332 46.499 -151.999c0 -68 -16.5 -119 -49.5 -153s-78.167 -51 -135.5 -51c-82.667 0 -133.667 30.333 -153 91l91 33
c3.33301 -16 10 -27.5 20 -34.5s25 -10.5 45 -10.5c28.667 0 49.5 9.83301 62.5 29.5s19.5 44.5 19.5 74.5c0 7.33301 -0.333008 12.666 -1 15.999h-1c-6 -12.667 -18.167 -23.667 -36.5 -33s-38.166 -14 -59.499 -14c-44 0 -79.167 11.333 -105.5 34s-39.5 53 -39.5 91
c0 41.333 14.5 73.5 43.5 96.5s69.167 34.5 120.5 34.5c57.333 0 101.5 -17.333 132.5 -52zM414.499 442.002c-11 -9.33301 -16.501 -22.332 -16.501 -38.999c0 -16 5.5 -28.5 16.5 -37.5s26.5 -13.5 46.5 -13.5c19.333 0 34.833 4.66699 46.5 14s17.5 21.666 17.5 36.999
c0 16 -5.66699 28.833 -17 38.5s-26.666 14.5 -45.999 14.5c-20.667 0 -36.5 -4.66699 -47.5 -14z" />
    <glyph glyph-name="uniF8FF" unicode="&#xf8ff;" horiz-adv-x="1130" 
d="M1090 301l-53.999 -20.002l47 -24l-53 -20l42 -29l-61 -10l38 -34l-66 -3l35 -32l-61 -4c-9.33301 -6 -18.666 -11 -27.999 -15v-81c0 -19.333 -9.66699 -29 -29 -29h-46c-19.333 0 -29 7.66699 -29 23c0 16.667 9.66699 25 29 25h11v39
c-18.667 -4.66699 -40.667 -8 -66 -10v-48c0 -19.333 -9.66699 -29 -29 -29h-46c-19.333 0 -29 7.66699 -29 23c0 16.667 9.66699 25 29 25h11v27h-226v-46c0 -19.333 -9.66699 -29 -29 -29h-46c-20 0 -30 7.66699 -30 23c0 8 2.66699 14.167 8 18.5s12.666 6.5 21.999 6.5
h12v27h-88v-46c0 -19.333 -10 -29 -30 -29h-44c-20.667 0 -31 7.66699 -31 23c0 16.667 10.333 25 31 25h10v37c-48 2 -94 11.167 -138 27.5s-78.333 37.5 -103 63.5c-8.66699 0.666992 -15.834 3.83398 -21.501 9.50098s-8.5 12.834 -8.5 21.501s3 16 9 22s13.333 9 22 9h3
c27.333 16.667 52 43 74 79s33 69.667 33 101l-6 59l40 -18l-7 58l41 -23v57l43 -32v56l43 -28l3 58l42 -35l7 59l42 -38l6 55l44 -37l15 57l36 -42l13 53l38 -43l17 52l32 -46l24 50l32 -45l31 55l27 -59l38 49l20 -58l43 53l10 -64l57 46l-8 -65l64 34l-22 -60l63 16
l-26 -47l64 4l-36 -40h70l-48 -49h71l-50 -39l56 -13l-54 -33l58 -19l-56 -25zM372.001 277.498c9.33301 11 14.001 23.833 14.001 38.5c0 18 -5.66699 32.5 -17 43.5s-25 16.5 -41 16.5c-18 0 -33.333 -6.33301 -46 -19l8 -16c11.333 10.667 23.666 16 36.999 16
c16 0 27 -7.66699 33 -23c2.66699 -6 4 -12.667 4 -20c0 -22 -13 -37 -39 -45l9 -13c16 3.33301 28.667 10.5 38 21.5zM248.502 261.998c9 9.33301 13.833 22.333 14.5 39h-18c0 -9.33301 -3 -16.666 -9 -21.999s-14 -8 -24 -8c-10.667 0 -19 2.66699 -25 8
s-9 12.666 -9 21.999h-18c0 -16 4.83301 -28.833 14.5 -38.5s22.167 -14.5 37.5 -14.5s27.5 4.66699 36.5 14z" />
    <glyph glyph-name="E.swsh.001" horiz-adv-x="800" 
d="M750 307.5c26.667 -31 40 -71.168 40 -120.501c0 -62.667 -19 -109.5 -57 -140.5s-91 -46.5 -159 -46.5h-488v660h527v-111h-389v-169h209v-107h-209v-162h328c39.333 0 68.333 6.33301 87 19s28 33 28 61c0 24.667 -6.5 43.834 -19.5 57.501s-31.5 21.5 -55.5 23.5
l47 90c47.333 -5.33301 84.333 -23.5 111 -54.5z" />
    <glyph glyph-name="Eacute.swsh.001" horiz-adv-x="800" 
d="M387 730h-103l56 155h136zM750 307.5c26.667 -31 40 -71.168 40 -120.501c0 -62.667 -19 -109.5 -57 -140.5s-91 -46.5 -159 -46.5h-488v660h527v-111h-389v-169h209v-107h-209v-162h328c39.333 0 68.333 6.33301 87 19s28 33 28 61c0 24.667 -6.5 43.834 -19.5 57.501
s-31.5 21.5 -55.5 23.5l47 90c47.333 -5.33301 84.333 -23.5 111 -54.5z" />
    <glyph glyph-name="Ecaron.swsh.001" horiz-adv-x="800" 
d="M274 727l-111 167h106l74 -98l74 98h106l-111 -167h-138zM750 307.5c26.667 -31 40 -71.168 40 -120.501c0 -62.667 -19 -109.5 -57 -140.5s-91 -46.5 -159 -46.5h-488v660h527v-111h-389v-169h209v-107h-209v-162h328c39.333 0 68.333 6.33301 87 19s28 33 28 61
c0 24.667 -6.5 43.834 -19.5 57.501s-31.5 21.5 -55.5 23.5l47 90c47.333 -5.33301 84.333 -23.5 111 -54.5z" />
    <glyph glyph-name="Ecircumflex.swsh.001" horiz-adv-x="800" 
d="M271 726h-106l111 167h138l111 -167h-106l-74 98zM750 307.5c26.667 -31 40 -71.168 40 -120.501c0 -62.667 -19 -109.5 -57 -140.5s-91 -46.5 -159 -46.5h-488v660h527v-111h-389v-169h209v-107h-209v-162h328c39.333 0 68.333 6.33301 87 19s28 33 28 61
c0 24.667 -6.5 43.834 -19.5 57.501s-31.5 21.5 -55.5 23.5l47 90c47.333 -5.33301 84.333 -23.5 111 -54.5z" />
    <glyph glyph-name="Edieresis.swsh.001" horiz-adv-x="800" 
d="M750 307.5c26.667 -31 40 -71.168 40 -120.501c0 -62.667 -19 -109.5 -57 -140.5s-91 -46.5 -159 -46.5h-488v660h527v-111h-389v-169h209v-107h-209v-162h328c39.333 0 68.333 6.33301 87 19s28 33 28 61c0 24.667 -6.5 43.834 -19.5 57.501s-31.5 21.5 -55.5 23.5
l47 90c47.333 -5.33301 84.333 -23.5 111 -54.5zM294 845.999c13.333 -12.667 20 -29.667 20 -51s-6.66699 -38.333 -20 -51s-31.666 -19 -54.999 -19c-22.667 0 -40.667 6.33301 -54 19s-20 29.667 -20 51s6.66699 38.333 20 51s31.333 19 54 19
c23.333 0 41.666 -6.33301 54.999 -19zM504.5 845.999c13.667 -12.667 20.5 -29.667 20.5 -51s-6.83301 -38.333 -20.5 -51s-32.167 -19 -55.5 -19c-22.667 0 -40.667 6.33301 -54 19s-20 29.667 -20 51s6.66699 38.333 20 51s31.333 19 54 19
c23.333 0 41.833 -6.33301 55.5 -19z" />
    <glyph glyph-name="Edotaccent.swsh.001" horiz-adv-x="800" 
d="M750 307.5c26.667 -31 40 -71.168 40 -120.501c0 -62.667 -19 -109.5 -57 -140.5s-91 -46.5 -159 -46.5h-488v660h527v-111h-389v-169h209v-107h-209v-162h328c39.333 0 68.333 6.33301 87 19s28 33 28 61c0 24.667 -6.5 43.834 -19.5 57.501s-31.5 21.5 -55.5 23.5
l47 90c47.333 -5.33301 84.333 -23.5 111 -54.5zM405 860.999c14 -12.667 21 -30.667 21 -54s-7 -41.333 -21 -54s-34 -19 -60 -19c-25.333 0 -45 6.33301 -59 19s-21 30.667 -21 54s7 41.333 21 54s33.667 19 59 19c26 0 46 -6.33301 60 -19z" />
    <glyph glyph-name="Egrave.swsh.001" horiz-adv-x="800" 
d="M290 730l-89 155h136l56 -155h-103zM750 307.5c26.667 -31 40 -71.168 40 -120.501c0 -62.667 -19 -109.5 -57 -140.5s-91 -46.5 -159 -46.5h-488v660h527v-111h-389v-169h209v-107h-209v-162h328c39.333 0 68.333 6.33301 87 19s28 33 28 61
c0 24.667 -6.5 43.834 -19.5 57.501s-31.5 21.5 -55.5 23.5l47 90c47.333 -5.33301 84.333 -23.5 111 -54.5z" />
    <glyph glyph-name="Emacron.swsh.001" horiz-adv-x="800" 
d="M750 307.5c26.667 -31 40 -71.168 40 -120.501c0 -62.667 -19 -109.5 -57 -140.5s-91 -46.5 -159 -46.5h-488v660h527v-111h-389v-169h209v-107h-209v-162h328c39.333 0 68.333 6.33301 87 19s28 33 28 61c0 24.667 -6.5 43.834 -19.5 57.501s-31.5 21.5 -55.5 23.5
l47 90c47.333 -5.33301 84.333 -23.5 111 -54.5zM527 738.999h-364v91h364v-91z" />
    <glyph glyph-name="M.swsh.001" horiz-adv-x="1127" 
d="M1041 660l-0.000976562 -659.999h-124v344l6 193h-1l-183 -537h-113l-183 537h-2l7 -193v-344h-125v557h-71c-36.667 0 -65 -8.33301 -85 -25s-30 -40 -30 -70c0 -26 8.83301 -47.833 26.5 -65.5s41.167 -28.5 70.5 -32.5l-43 -96c-52.667 4.66699 -96 24.667 -130 60
s-51 80.666 -51 135.999c0 61.333 20.333 109.333 61 144s97.334 52 170.001 52h282l119 -360l42 -149h2l43 148l118 361h194z" />
    <glyph glyph-name="R.swsh.001" horiz-adv-x="721" 
d="M641 32c28 -22 54.667 -36 80 -42l-75 -82c-46 16 -81.833 34.167 -107.5 54.5s-49.5 46.5 -71.5 78.5l-148 212h-97v-253h-136v660h291c75.333 0 134.166 -17.833 176.499 -53.5s63.5 -85.834 63.5 -150.501c0 -52 -14.167 -94.667 -42.5 -128
s-68.166 -55.666 -119.499 -66.999l112 -154c21.333 -28 46 -53 74 -75zM222 358l137 -0.00195312c40 0 69.5 7.83301 88.5 23.5s28.5 39.834 28.5 72.501s-9.5 56.834 -28.5 72.501s-48.5 23.5 -88.5 23.5h-137v-192z" />
    <glyph glyph-name="Racute.swsh.001" horiz-adv-x="721" 
d="M369 730h-103l56 155h136zM641 32c28 -22 54.667 -36 80 -42l-75 -82c-46 16 -81.833 34.167 -107.5 54.5s-49.5 46.5 -71.5 78.5l-148 212h-97v-253h-136v660h291c75.333 0 134.166 -17.833 176.499 -53.5s63.5 -85.834 63.5 -150.501c0 -52 -14.167 -94.667 -42.5 -128
s-68.166 -55.666 -119.499 -66.999l112 -154c21.333 -28 46 -53 74 -75zM222 358l137 -0.00195312c40 0 69.5 7.83301 88.5 23.5s28.5 39.834 28.5 72.501s-9.5 56.834 -28.5 72.501s-48.5 23.5 -88.5 23.5h-137v-192z" />
    <glyph glyph-name="Rcaron.swsh.001" horiz-adv-x="721" 
d="M255 727l-111 167h106l74 -98l74 98h106l-111 -167h-138zM641 32c28 -22 54.667 -36 80 -42l-75 -82c-46 16 -81.833 34.167 -107.5 54.5s-49.5 46.5 -71.5 78.5l-148 212h-97v-253h-136v660h291c75.333 0 134.166 -17.833 176.499 -53.5s63.5 -85.834 63.5 -150.501
c0 -52 -14.167 -94.667 -42.5 -128s-68.166 -55.666 -119.499 -66.999l112 -154c21.333 -28 46 -53 74 -75zM222 358l137 -0.00195312c40 0 69.5 7.83301 88.5 23.5s28.5 39.834 28.5 72.501s-9.5 56.834 -28.5 72.501s-48.5 23.5 -88.5 23.5h-137v-192z" />
    <glyph glyph-name="Rcommaaccent.swsh.001" horiz-adv-x="721" 
d="M641 32c28 -22 54.667 -36 80 -42l-75 -82c-46 16 -81.833 34.167 -107.5 54.5s-49.5 46.5 -71.5 78.5l-148 212h-97v-253h-136v660h291c75.333 0 134.166 -17.833 176.499 -53.5s63.5 -85.834 63.5 -150.501c0 -52 -14.167 -94.667 -42.5 -128
s-68.166 -55.666 -119.499 -66.999l112 -154c21.333 -28 46 -53 74 -75zM222 358l137 -0.00195312c40 0 69.5 7.83301 88.5 23.5s28.5 39.834 28.5 72.501s-9.5 56.834 -28.5 72.501s-48.5 23.5 -88.5 23.5h-137v-192zM356 -239.002h-93l36 173h126z" />
    </font>
</defs>
</svg>
