<?xml version="1.0" standalone="no"?>
<!DOCTYPE svg PUBLIC "-//W3C//DTD SVG 1.1//EN" "http://www.w3.org/Graphics/SVG/1.1/DTD/svg11.dtd" >
<svg>
<metadata>
Created by FontForge 20090914 at Wed Mar 21 14:37:25 2018
 By www-data
Copyright (c) 2015 by Rosetta Type Foundry s.r.o. (info@rosettatype.com).
</metadata>
<defs>
<font id="Yrsa-Medium" horiz-adv-x="0" >
  <font-face 
    font-family="Yrsa Medium"
    font-weight="500"
    font-stretch="normal"
    units-per-em="2750"
    panose-1="2 13 0 0 0 4 0 0 0 0"
    ascent="2000"
    descent="-750"
    x-height="1137"
    cap-height="1562"
    bbox="-441.001 -601.999 3051 2313"
    underline-thickness="120"
    underline-position="-145"
    unicode-range="U+000D-U+25CA"
  />
<missing-glyph horiz-adv-x="1770" 
d="M177 0v1416h1416v-1416h-1416zM440 387l119 -135l324 353l337 -353l113 113l-348 343l348 334l-119 116l-328 -351l-333 352l-114 -116l344 -338z" />
    <glyph glyph-name="f_b" unicode="fb" horiz-adv-x="2185" 
d="M1472 -23c-42.667 0 -85.002 2.66992 -127.002 8.00293s-81.167 11.833 -117.5 19.5s-69.333 16.167 -99 25.5s-53.834 18 -72.501 26v1475c-44 16 -88 27.333 -132 34s-87 10 -129 10c-79.333 0 -144.666 -18.167 -195.999 -54.5s-77 -101.5 -77 -195.5v-189h342v-157
h-341v-785c0 -17.333 4.5 -30.833 13.5 -40.5s22.167 -15.5 39.5 -17.5l208 -21v-115h-690v115l117 20c16.667 2.66699 29.667 8.83398 39 18.501s14 22.834 14 39.501v780l-188 26v109l192 29v100c0 74.667 16.5 146 49.5 214s75.667 127.667 128 179
s111.5 92.166 177.5 122.499s132 45.5 198 45.5c38 0 77.833 -6.16699 119.5 -18.5s82.167 -28.833 121.5 -49.5c37.333 16 74.833 30.167 112.5 42.5s71.834 21.166 102.501 26.499l39 -36v-728c40 40.667 87.333 73 142 97s116.667 36 186 36
c61.333 0 118.833 -10.5 172.5 -31.5s100.167 -53.333 139.5 -97s70.333 -99.834 93 -168.501s34 -150.334 34 -245.001c0 -100 -13.333 -190.333 -40 -271s-65.667 -148.834 -117 -204.501s-115.166 -98.5 -191.499 -128.5s-163.833 -45 -262.5 -45zM1491 99.0029
c99.333 0 175.502 37.168 228.502 111.501s80.5 192.833 82.5 355.5c2.66699 162 -20.5 274.667 -69.5 338s-116.167 95 -201.5 95c-41.333 0 -79.833 -6.33301 -115.5 -19s-68.834 -30.334 -99.501 -53.001v-785c22.667 -12 48.167 -22.167 76.5 -30.5
s61.166 -12.5 98.499 -12.5z" />
    <glyph glyph-name="f_f" unicode="ff" horiz-adv-x="1717" 
d="M754 0l-659.999 -0.00390625v115l117 20c16.667 2.66699 29.667 8.83398 39 18.501s14 22.834 14 39.501v780l-188 26v109l192 28v56c1.33301 74 16.5 144.333 45.5 211s66.5 125 112.5 175s98.333 89.667 157 119s118 44 178 44c46.667 0 92.834 -8.66699 138.501 -26
s88.5 -39 128.5 -65l-55 -160c-37.333 8.66699 -75.833 15.667 -115.5 21s-72.834 8 -99.501 8c-78.667 -0.666992 -137.5 -18 -176.5 -52s-58.5 -99.667 -58.5 -197v-134h561v91c0 74.667 14.167 146.5 42.5 215.5s65.5 129.667 111.5 182s98.333 94.333 157 126
s118 47.5 178 47.5c47.333 0 94.166 -8.5 140.499 -25.5s89.833 -37.833 130.5 -62.5l-48 -161c-38.667 8 -79 14.167 -121 18.5s-77 6.5 -105 6.5c-78.667 -0.666992 -137 -18 -175 -52s-57 -99.667 -57 -197v-189h332v-157h-331v-785c0 -17.333 4.5 -30.833 13.5 -40.5
s22.167 -15.5 39.5 -17.5l210 -21v-115h-685v115l110 20c16.667 2.66699 29.667 8.83398 39 18.501s14 22.834 14 39.501v786h-557v-785c0 -17.333 4.5 -30.833 13.5 -40.5s22.167 -15.5 39.5 -17.5l178 -21v-115z" />
    <glyph glyph-name="f_h" unicode="fh" horiz-adv-x="2286" 
d="M759 115l-0.00390625 -115.001h-665v115l117 20c16.667 2.66699 29.667 8.83398 39 18.501s14 22.834 14 39.501v780l-188 26v109l192 29v100c0 74.667 17 146 51 214s77.833 127.667 131.5 179s114.167 92.166 181.5 122.499s134 45.5 200 45.5
c38.667 0 79.834 -6.33301 123.501 -19s86.5 -29.334 128.5 -50.001c38 16.667 76 31.167 114 43.5s72.333 21.166 103 26.499l40 -37v-744c52 52 110.5 89.167 175.5 111.5s132.833 33.5 203.5 33.5c132.667 0 223.334 -38 272.001 -114s73 -183 73 -321v-533
c0 -16.667 4.33301 -30.167 13 -40.5s21.334 -16.833 38.001 -19.5l119 -19v-116h-579v115l95 20c15.333 4 27.666 10.5 36.999 19.5s14 22.5 14 40.5v493c0 104.667 -14.667 181.667 -44 231s-82.666 74 -159.999 74c-44 0 -88.333 -6.66699 -133 -20
s-86 -33.666 -124 -60.999v-717c0 -17.333 4.33301 -30.666 13 -39.999s21.334 -16 38.001 -20l95 -20v-115h-572v116l115 19c16.667 2.66699 29.5 9 38.5 19s13.5 23.333 13.5 40v1335c-46 16.667 -93 28.5 -141 35.5s-93.333 10.5 -136 10.5
c-79.333 0 -146.333 -18.167 -201 -54.5s-82 -101.5 -82 -195.5v-189h342v-157h-341v-785c0 -17.333 4.5 -30.833 13.5 -40.5s22.167 -15.5 39.5 -17.5z" />
    <glyph glyph-name="f_k" unicode="fk" horiz-adv-x="2216" 
d="M759 115l-0.000976562 -115.001h-665v115l117 20c16.667 2.66699 29.667 8.83398 39 18.501s14 22.834 14 39.501v780l-188 26v109l192 29v100c0 74.667 17 146 51 214s77.833 127.667 131.5 179s114.167 92.166 181.5 122.499s134 45.5 200 45.5
c38.667 0 79.834 -6.33301 123.501 -19s86.5 -29.334 128.5 -50.001c38 16.667 76 31.167 114 43.5s72.333 21.166 103 26.499l40 -37v-1226l423 459l-194 32v110h563v-110l-119 -27c-22 -4.66699 -39.5 -9.83398 -52.5 -15.501s-26.167 -15.167 -39.5 -28.5l-234 -238
c20.667 -26 40 -53.167 58 -81.5s37 -60.833 57 -97.5l192 -336c10.667 -18.667 21.667 -32.167 33 -40.5s24.666 -14.5 39.999 -18.5l120 -28v-116h-340c-30 0 -56 17.333 -78 52s-45.667 77.334 -71 128.001l-106 210l-41 78l-39 71l-172 -175v-169
c0 -16.667 4.5 -30.167 13.5 -40.5s21.833 -16.833 38.5 -19.5l116 -19v-116h-594v116l116 19c16.667 2.66699 29.334 9.33398 38.001 20.001s13 24.334 13 41.001v1333c-46 16.667 -93 28.5 -141 35.5s-93.333 10.5 -136 10.5c-79.333 0 -146.333 -18.167 -201 -54.5
s-82 -101.5 -82 -195.5v-189h342v-157h-341v-785c0 -17.333 4.5 -30.833 13.5 -40.5s22.167 -15.5 39.5 -17.5z" />
    <glyph glyph-name="f_l" unicode="fl" horiz-adv-x="1580" 
d="M759 115l-0.00195312 -114.999h-665v115l117 20c16.667 2.66699 29.667 8.83398 39 18.501s14 22.834 14 39.501v780l-188 26v109l192 29v100c0 74.667 17 146 51 214s77.833 127.667 131.5 179s114.167 92.166 181.5 122.499s134 45.5 200 45.5
c38.667 0 79.834 -6.33301 123.501 -19s86.5 -29.334 128.5 -50.001c38 16.667 76 31.167 114 43.5s72.333 21.166 103 26.499l40 -37v-1567c0 -17.333 4.5 -31 13.5 -41s21.833 -16.333 38.5 -19l137 -21v-114h-615v116l116 19c16.667 2.66699 29.334 9 38.001 19
s13 23.333 13 40v1335c-46 16.667 -93 28.5 -141 35.5s-93.333 10.5 -136 10.5c-79.333 0 -146.333 -18.167 -201 -54.5s-82 -101.5 -82 -195.5v-189h342v-157h-341v-785c0 -17.333 4.5 -30.833 13.5 -40.5s22.167 -15.5 39.5 -17.5z" />
    <glyph glyph-name="f_f_b" unicode="ffb" horiz-adv-x="3001" 
d="M2899 626c0 -100 -13.333 -190.332 -40 -270.999s-65.667 -148.834 -117 -204.501s-115.166 -98.5 -191.499 -128.5s-163.833 -45 -262.5 -45c-42.667 0 -85 2.66699 -127 8s-81.167 11.833 -117.5 19.5s-69.333 16.167 -99 25.5s-53.834 18 -72.501 26v1475
c-43.333 16 -87.333 27.333 -132 34s-87.667 10 -129 10c-77.333 0 -142.166 -18.167 -194.499 -54.5s-78.5 -101.5 -78.5 -195.5v-189h342v-157h-341v-785c0 -17.333 4.5 -30.833 13.5 -40.5s22.167 -15.5 39.5 -17.5l208 -21v-115h-690v115l117 20
c16.667 2.66699 29.667 8.83398 39 18.501s14 22.834 14 39.501v786h-557v-785c0 -17.333 4.5 -30.833 13.5 -40.5s22.167 -15.5 39.5 -17.5l178 -21v-115h-660v115l117 20c16.667 2.66699 29.667 8.83398 39 18.501s14 22.834 14 39.501v780l-188 26v109l192 28v56
c1.33301 74 16.5 144.333 45.5 211s66.5 125 112.5 175s98.333 89.667 157 119s118 44 178 44c46.667 0 92.834 -8.66699 138.501 -26s88.5 -39 128.5 -65l-55 -160c-37.333 8.66699 -75.833 15.667 -115.5 21s-72.834 8 -99.501 8c-78.667 -0.666992 -137.5 -18 -176.5 -52
s-58.5 -99.667 -58.5 -197v-134h561v101c0 74.667 16.667 146 50 214s76.166 127.667 128.499 179s111.666 92.166 177.999 122.499s131.833 45.5 196.5 45.5c38 0 77.667 -6.16699 119 -18.5s82 -28.833 122 -49.5c37.333 16 74.833 30.167 112.5 42.5
s71.834 21.166 102.501 26.499l39 -36v-728c40 40.667 87.333 73 142 97s116.667 36 186 36c61.333 0 118.833 -10.5 172.5 -31.5s100.167 -53.333 139.5 -97s70.333 -99.834 93 -168.501s34 -150.334 34 -245.001zM2307 99.001c99.333 0 175.5 37.168 228.5 111.501
s80.5 192.833 82.5 355.5c2.66699 162 -20.5 274.667 -69.5 338s-116.167 95 -201.5 95c-41.333 0 -79.833 -6.33301 -115.5 -19s-68.834 -30.334 -99.5 -53.001v-785c22.667 -12 48.167 -22.167 76.5 -30.5s61.166 -12.5 98.5 -12.5z" />
    <glyph glyph-name="f_f_h" unicode="ffh" horiz-adv-x="3102" 
d="M754 0l-660.001 -0.00292969v115l117 20c16.667 2.66699 29.667 8.83398 39 18.501s14 22.834 14 39.501v780l-188 26v109l192 28v56c1.33301 74 16.5 144.333 45.5 211s66.5 125 112.5 175s98.333 89.667 157 119s118 44 178 44c46.667 0 92.834 -8.66699 138.501 -26
s88.5 -39 128.5 -65l-55 -160c-37.333 8.66699 -75.833 15.667 -115.5 21s-72.834 8 -99.501 8c-78.667 -0.666992 -137.5 -18 -176.5 -52s-58.5 -99.667 -58.5 -197v-134h561v101c0 74.667 17 146 51 214s77.833 127.667 131.5 179s114.167 92.166 181.5 122.499
s134 45.5 200 45.5c38.667 0 79.834 -6.33301 123.501 -19s86.5 -29.334 128.5 -50.001c38 16.667 76 31.167 114 43.5s72.333 21.166 103 26.499l40 -37v-744c52 52 110.5 89.167 175.5 111.5s132.833 33.5 203.5 33.5c132.667 0 223.334 -38 272 -114
c48.667 -76 73 -183 73 -321v-533c0 -16.667 4.33301 -30.167 13 -40.5s21.334 -16.833 38 -19.5l119 -19v-116h-579v115l95 20c15.333 4 27.666 10.5 37 19.5c9.33301 9 14 22.5 14 40.5v493c0 104.667 -14.667 181.667 -44 231s-82.666 74 -160 74
c-44 0 -88.333 -6.66699 -133 -20s-86 -33.666 -124 -60.999v-717c0 -17.333 4.33301 -30.666 13 -39.999s21.334 -16 38 -20l95 -20v-115h-572v116l115 19c16.667 2.66699 29.5 9 38.5 19s13.5 23.333 13.5 40v1335c-46 16.667 -93 28.5 -141 35.5s-93.333 10.5 -136 10.5
c-79.333 0 -146.333 -18.167 -201 -54.5s-82 -101.5 -82 -195.5v-189h342v-157h-341v-785c0 -17.333 4.5 -30.833 13.5 -40.5s22.167 -15.5 39.5 -17.5l183 -21v-115h-665v115l117 20c16.667 2.66699 29.667 8.83398 39 18.501s14 22.834 14 39.501v786h-557v-785
c0 -17.333 4.5 -30.833 13.5 -40.5s22.167 -15.5 39.5 -17.5l178 -21v-115z" />
    <glyph glyph-name="f_f_k" unicode="ffk" horiz-adv-x="3032" 
d="M754 0l-660.001 -0.00292969v115l117 20c16.667 2.66699 29.667 8.83398 39 18.501s14 22.834 14 39.501v780l-188 26v109l192 28v56c1.33301 74 16.5 144.333 45.5 211s66.5 125 112.5 175s98.333 89.667 157 119s118 44 178 44c46.667 0 92.834 -8.66699 138.501 -26
s88.5 -39 128.5 -65l-55 -160c-37.333 8.66699 -75.833 15.667 -115.5 21s-72.834 8 -99.501 8c-78.667 -0.666992 -137.5 -18 -176.5 -52s-58.5 -99.667 -58.5 -197v-134h561v101c0 74.667 17 146 51 214s77.833 127.667 131.5 179s114.167 92.166 181.5 122.499
s134 45.5 200 45.5c38.667 0 79.834 -6.33301 123.501 -19s86.5 -29.334 128.5 -50.001c38 16.667 76 31.167 114 43.5s72.333 21.166 103 26.499l40 -37v-1226l423 459l-194 32v110h563v-110l-119 -27c-22 -4.66699 -39.5 -9.83398 -52.5 -15.501
s-26.167 -15.167 -39.5 -28.5l-234 -238c20.667 -26 40 -53.167 58 -81.5s37 -60.833 57 -97.5l192 -336c10.667 -18.667 21.667 -32.167 33 -40.5s24.666 -14.5 39.999 -18.5l120 -28v-116h-340c-30 0 -56 17.333 -78 52s-45.667 77.334 -71 128.001l-106 210l-41 78
l-39 71l-172 -175v-169c0 -16.667 4.5 -30.167 13.5 -40.5s21.833 -16.833 38.5 -19.5l116 -19v-116h-594v116l116 19c16.667 2.66699 29.334 9.33398 38.001 20.001s13 24.334 13 41.001v1333c-46 16.667 -93 28.5 -141 35.5s-93.333 10.5 -136 10.5
c-79.333 0 -146.333 -18.167 -201 -54.5s-82 -101.5 -82 -195.5v-189h342v-157h-341v-785c0 -17.333 4.5 -30.833 13.5 -40.5s22.167 -15.5 39.5 -17.5l183 -21v-115h-665v115l117 20c16.667 2.66699 29.667 8.83398 39 18.501s14 22.834 14 39.501v786h-557v-785
c0 -17.333 4.5 -30.833 13.5 -40.5s22.167 -15.5 39.5 -17.5l178 -21v-115z" />
    <glyph glyph-name="f_f_l" unicode="ffl" horiz-adv-x="2396" 
d="M754 0l-660.002 -0.000976562v115l117 20c16.667 2.66699 29.667 8.83398 39 18.501s14 22.834 14 39.501v780l-188 26v109l192 28v56c1.33301 74 16.5 144.333 45.5 211s66.5 125 112.5 175s98.333 89.667 157 119s118 44 178 44c46.667 0 92.834 -8.66699 138.501 -26
s88.5 -39 128.5 -65l-55 -160c-37.333 8.66699 -75.833 15.667 -115.5 21s-72.834 8 -99.501 8c-78.667 -0.666992 -137.5 -18 -176.5 -52s-58.5 -99.667 -58.5 -197v-134h561v101c0 74.667 17 146 51 214s77.833 127.667 131.5 179s114.167 92.166 181.5 122.499
s134 45.5 200 45.5c38.667 0 79.834 -6.33301 123.501 -19s86.5 -29.334 128.5 -50.001c38 16.667 76 31.167 114 43.5s72.333 21.166 103 26.499l40 -37v-1567c0 -17.333 4.5 -31 13.5 -41s21.833 -16.333 38.5 -19l137 -21v-114h-615v116l116 19
c16.667 2.66699 29.334 9 38.001 19s13 23.333 13 40v1335c-46 16.667 -93 28.5 -141 35.5s-93.333 10.5 -136 10.5c-79.333 0 -146.333 -18.167 -201 -54.5s-82 -101.5 -82 -195.5v-189h342v-157h-341v-785c0 -17.333 4.5 -30.833 13.5 -40.5s22.167 -15.5 39.5 -17.5
l183 -21v-115h-665v115l117 20c16.667 2.66699 29.667 8.83398 39 18.501s14 22.834 14 39.501v786h-557v-785c0 -17.333 4.5 -30.833 13.5 -40.5s22.167 -15.5 39.5 -17.5l178 -21v-115z" />
    <glyph glyph-name=".notdef" horiz-adv-x="1770" 
d="M177 0v1416h1416v-1416h-1416zM440 387l119 -135l324 353l337 -353l113 113l-348 343l348 334l-119 116l-328 -351l-333 352l-114 -116l344 -338z" />
    <glyph glyph-name="uni000D" unicode="&#xd;" 
 />
    <glyph glyph-name="space" unicode=" " horiz-adv-x="568" 
 />
    <glyph glyph-name="exclam" unicode="!" horiz-adv-x="675" 
d="M190 1532v180h295v-180l-69 -1054h-157zM497 130c0 -44 -14.5 -79.833 -43.5 -107.5s-67.5 -41.5 -115.5 -41.5s-86.667 13.833 -116 41.5s-44 63.5 -44 107.5c0 44.667 14.667 80.667 44 108s68 41 116 41s86.5 -13.667 115.5 -41s43.5 -63.333 43.5 -108z" />
    <glyph glyph-name="quotedbl" unicode="&#x22;" horiz-adv-x="1070" 
d="M728 907l-45 800h252l-46 -800h-161zM181 907l-45 800h252l-46 -800h-161z" />
    <glyph glyph-name="numbersign" unicode="#" horiz-adv-x="1467" 
d="M546 500h317l41 391h-320zM288 0l38 357h-215l-1 143h234l40 391h-240v142h258l32 340h202l-32 -340h320l33 340h202l-34 -340h236v-142h-254l-37 -391h247v-143h-264l-35 -357h-202l34 357h-322l-36 -357h-204z" />
    <glyph glyph-name="dollar" unicode="$" horiz-adv-x="1188" 
d="M646 -210l-162.996 -0.00195312v232c-76 7.33301 -146 21.333 -210 42s-116.333 41.334 -157 62.001c-2.66699 58.667 -2 119.167 2 181.5s10.333 120.5 19 174.5h160l35 -198c2.66699 -12 6.66699 -22.833 12 -32.5s13 -18.834 23 -27.501
c20.667 -20 51.167 -38.667 91.5 -56s88.166 -26 143.499 -26c73.333 0 130.666 17.667 171.999 53s62 80 62 134c0 64 -29.167 114.833 -87.5 152.5s-135.5 78.5 -231.5 122.5c-48 22 -95 45.167 -141 69.5s-86.667 52 -122 83s-63.833 66.333 -85.5 106
s-32.5 85.834 -32.5 138.501c0 46.667 9 90.667 27 132s44.667 77.833 80 109.5s79.5 57.834 132.5 78.501s114.5 33.667 184.5 39v227h163v-229c54 -4.66699 107 -13 159 -25s97.667 -26.333 137 -43c4.66699 -57.333 5.33398 -114.666 2.00098 -171.999
s-9.33301 -112 -18 -164l-155 -1l-38 175c-2.66699 12 -6.5 23.167 -11.5 33.5s-13.833 20.166 -26.5 29.499c-18 14.667 -42.5 26.667 -73.5 36s-66.5 14 -106.5 14c-70 0 -122.167 -15.667 -156.5 -47s-51.5 -70.333 -51.5 -117c0 -32 7.83301 -59.833 23.5 -83.5
s37.5 -45.5 65.5 -65.5s62.167 -39.333 102.5 -58l133.5 -62c57.333 -26.667 110.166 -53.667 158.499 -81s89.666 -56.5 123.999 -87.5s61.166 -65.5 80.499 -103.5s29 -81 29 -129c0 -44.667 -9 -89 -27 -133s-45.5 -83.833 -82.5 -119.5s-84.167 -65.667 -141.5 -90
s-125.333 -39.5 -204 -45.5v-229z" />
    <glyph glyph-name="percent" unicode="%" horiz-adv-x="1981" 
d="M867 1153c0 -73.333 -11.333 -138 -34 -194s-52.667 -102.667 -90 -140s-80.333 -65.666 -129 -84.999s-99 -29 -151 -29c-60 0 -114 10.167 -162 30.5s-88.333 48.666 -121 84.999s-57.834 80.166 -75.501 131.499s-26.5 107.333 -26.5 168c0 73.333 11.333 138 34 194
s52.667 102.667 90 140s80.333 65.666 129 84.999s99 29 151 29c60 0 114 -10.167 162 -30.5s88.333 -48.666 121 -84.999s57.834 -80.166 75.501 -131.499s26.5 -107.333 26.5 -168zM610 0h-194l956 1562h194zM297 1151c0 -102 16.333 -181.667 49 -239s78 -86 136 -86
c52 0 92 25.333 120 76s42 123.667 42 219c0 100.667 -16 180.167 -48 238.5s-77.333 87.5 -136 87.5c-52.667 0 -93 -25.5 -121 -76.5s-42 -124.167 -42 -219.5zM1904 442c0 -73.333 -11.333 -138.166 -34 -194.499s-52.667 -103.166 -90 -140.499
s-80.333 -65.666 -129 -84.999s-99 -29 -151 -29c-60 0 -114 10.167 -162 30.5s-88.333 48.666 -121 84.999s-57.834 80.166 -75.501 131.499s-26.5 107.333 -26.5 168c0 73.333 11.333 138.166 34 194.499s52.667 103.166 90 140.499s80.333 65.5 129 84.5
s99 28.5 151 28.5c60 0 114 -10.167 162 -30.5s88.333 -48.666 121 -84.999s57.834 -80 75.501 -131s26.5 -106.833 26.5 -167.5zM1334 439c0 -101.333 16.333 -180.833 49 -238.5s78 -86.5 136 -86.5c52 0 92 25.5 120 76.5s42 124.167 42 219.5
c0 100 -16 179.167 -48 237.5s-77.333 87.5 -136 87.5c-52.667 0 -93 -25.5 -121 -76.5s-42 -124.167 -42 -219.5z" />
    <glyph glyph-name="ampersand" unicode="&#x26;" horiz-adv-x="1628" 
d="M490 1251c0 -44 9.83398 -92.501 29.501 -145.501s60.5 -122.167 122.5 -207.5c60.667 49.333 108.5 104.833 143.5 166.5s52.5 127.834 52.5 198.501c0 65.333 -13.333 119 -40 161s-67.334 63 -122.001 63c-60 0 -106 -22.833 -138 -68.5s-48 -101.5 -48 -167.5z
M662.001 100.999c43.333 0 88 6.16797 134 18.501s89.667 31.833 131 58.5c-38.667 36 -78.667 76.167 -120 120.5l-120 133.5l-110 131l-91 114c-36.667 -32 -69 -69 -97 -111s-42 -96 -42 -162c0 -88.667 27.5 -161.334 82.5 -218.001s132.5 -85 232.5 -85zM1300 -17
c-45.333 0 -90.165 8.5 -134.498 25.5s-93.5 47.167 -147.5 90.5c-56 -44 -121 -76.167 -195 -96.5s-148.333 -30.5 -223 -30.5c-69.333 0 -134.5 7.83301 -195.5 23.5s-113.833 39.5 -158.5 71.5s-80 73.167 -106 123.5s-39 109.833 -39 178.5c0 60 9.5 112.333 28.5 157
s43.5 82.834 73.5 114.501s63.667 58.167 101 79.5s74.333 38.666 111 51.999c-54 76.667 -96.5 149 -127.5 217s-46.5 136.667 -46.5 206c0 55.333 10.167 107 30.5 155s49.333 89.333 87 124s83.834 62 138.501 82s116 30 184 30c118.667 0 212.667 -30.167 282 -90.5
s104 -142.833 104 -247.5c0 -98 -31.667 -183.333 -95 -256s-153 -131 -269 -175l95.5 -117l106 -123.5l109.5 -121.5l106 -111c32 46 53.833 96.333 65.5 151s17.5 106 17.5 154c0 14 -2.33301 27 -7 39s-16.334 20 -35.001 24l-155 33v119h526v-119l-102 -32
c-17.333 -4.66699 -28.333 -11.834 -33 -21.501s-8.33398 -23.167 -11.001 -40.5c-11.333 -71.333 -31 -139.5 -59 -204.5s-70.667 -124.833 -128 -179.5c29.333 -27.333 55.666 -49.166 78.999 -65.499s47 -29 71 -38s50 -14.833 78 -17.5s61.333 -4 100 -4v-116
c-32 -10.667 -68.333 -20.5 -109 -29.5s-80 -13.5 -118 -13.5z" />
    <glyph glyph-name="quotesingle" unicode="'" horiz-adv-x="523" 
d="M181 907l-45 800h252l-46 -800h-161z" />
    <glyph glyph-name="parenleft" unicode="(" horiz-adv-x="725" 
d="M683 -369l-90.001 -90.001c-21.333 19.333 -59 59 -113 119s-108.833 141.333 -164.5 244s-105.167 228.5 -148.5 377.5s-65 320.833 -65 515.5c0 176.667 20.667 336.5 62 479.5s89.166 266.667 143.499 371s108.833 189.333 163.5 255s95.334 109.834 122.001 132.501
l90 -91c-26 -37.333 -57.667 -88 -95 -152s-73.166 -141.833 -107.499 -233.5s-63.833 -198.334 -88.5 -320.001s-37.667 -258.167 -39 -409.5c-2 -169.333 10 -321.166 36 -455.499s57 -250.5 93 -348.5s73 -179.667 111 -245s68 -115 90 -149z" />
    <glyph glyph-name="parenright" unicode=")" horiz-adv-x="725" 
d="M624 779c0 -176.667 -20.667 -336.498 -62 -479.498s-89.166 -266.667 -143.499 -371s-108.833 -189.333 -163.5 -255s-95.334 -109.834 -122.001 -132.501l-91 91c26.667 37.333 58.667 88 96 152s73 141.833 107 233.5s63.5 198.334 88.5 320.001
s38.167 258.167 39.5 409.5c2 169.333 -10 321.166 -36 455.499s-57 250.5 -93 348.5s-73 179.667 -111 245s-68.333 114.666 -91 147.999l91 91c21.333 -19.333 59 -59 113 -119s108.833 -141.333 164.5 -244s105.167 -228.5 148.5 -377.5s65 -320.833 65 -515.5z" />
    <glyph glyph-name="asterisk" unicode="*" horiz-adv-x="1210" 
d="M694 1042l24 -224h-226l24 223l53 203l-148 -147l-182 -133l-113 195l206 91l202 55l-202 56l-206 91l113 195l182 -133l148 -147l-53 203l-24 223h226l-24 -224l-53 -202l149 147l181 133l113 -195l-206 -91l-201 -55l201 -56l206 -91l-113 -195l-181 133l-149 147z" />
    <glyph glyph-name="plus" unicode="+" horiz-adv-x="1126" 
d="M656 146h-186v224l7 163l-162 -6h-213v174h213l162 -7l-7 163v224h186v-224l-6 -163l162 7h212v-174h-212l-162 6l6 -163v-224z" />
    <glyph glyph-name="comma" unicode="," horiz-adv-x="613" 
d="M481 74c0 -53.333 -8.66504 -104.836 -25.998 -154.503s-40.833 -95.834 -70.5 -138.501s-64.334 -81.667 -104.001 -117s-81.5 -65.333 -125.5 -90l-56 71c52.667 46.667 94.5 96.334 125.5 149.001s46.5 102 46.5 148c0 26.667 -5.33301 44.334 -16 53.001
s-24.334 18.334 -41.001 29.001c-19.333 12.667 -37.5 30.334 -54.5 53.001s-25.5 52 -25.5 88c0 44.667 14.667 82 44 112s67 45 113 45c52.667 0 97.5 -21.167 134.5 -63.5s55.5 -103.833 55.5 -184.5z" />
    <glyph glyph-name="hyphen" unicode="-" horiz-adv-x="1060" 
d="M151 507v178h759v-178h-759z" />
    <glyph glyph-name="period" unicode="." horiz-adv-x="595" 
d="M463 138c0 -46.667 -15.167 -84.5 -45.5 -113.5s-70.166 -43.5 -119.499 -43.5c-50 0 -90.167 14.5 -120.5 43.5s-45.5 66.833 -45.5 113.5c0 47.333 15.167 85.333 45.5 114s70.5 43 120.5 43c49.333 0 89.166 -14.333 119.499 -43s45.5 -66.667 45.5 -114z" />
    <glyph glyph-name="slash" unicode="/" horiz-adv-x="990" 
d="M286 -288h-218l639 2030h217z" />
    <glyph glyph-name="zero" unicode="0" horiz-adv-x="1345" 
d="M657 -25c-100 0 -183.831 18.501 -251.498 55.501s-121.834 87.167 -162.501 150.5s-69.834 137.666 -87.501 222.999s-26.5 176 -26.5 272c0 122 13.333 228.833 40 320.5s64.334 167.5 113.001 227.5s107.667 105 177 135s146 45 230 45
c99.333 0 182.833 -18.333 250.5 -55s122 -86.5 163 -149.5s70.167 -137.167 87.5 -222.5s26 -176 26 -272c0 -123.333 -13.333 -231 -40 -323s-64.334 -168 -113.001 -228s-107.5 -104.833 -176.5 -134.5s-145.5 -44.5 -229.5 -44.5zM664.002 1274
c-88 0 -150.499 -44.833 -187.499 -134.5s-55.5 -226.167 -55.5 -409.5c0 -197.333 18.5 -350.5 55.5 -459.5s105.167 -163.5 204.5 -163.5c87.333 0 149.666 45 186.999 135s56 226.333 56 409c0 198 -18.5 351.333 -55.5 460s-105.167 163 -204.5 163z" />
    <glyph glyph-name="one" unicode="1" horiz-adv-x="960" 
d="M666 1381v-1175c0 -17.333 4.5 -30.666 13.5 -39.999s21.833 -15.333 38.5 -18l202 -33v-115h-802v115l232 33c17.333 2.66699 31.333 8.83398 42 18.501s16 22.834 16 39.501v926c-14.667 -4.66699 -33.5 -9.83398 -56.5 -15.501s-47.5 -11 -73.5 -16
s-52 -9.5 -78 -13.5s-49 -6.66699 -69 -8l-24 123c36.667 8.66699 74.667 20.334 114 35.001s77.5 31 114.5 49s72 37.5 105 58.5s61.833 41.833 86.5 62.5z" />
    <glyph glyph-name="two" unicode="2" horiz-adv-x="1217" 
d="M1062 0l-926 0.00195312l-54 149l314 285c85.333 80 153.666 150.333 204.999 211s88.333 115.667 111 165s34 98.333 34 147c0 77.333 -23.667 136.333 -71 177s-103.333 61 -168 61c-58 0 -110.667 -15.833 -158 -47.5s-90 -76.834 -128 -135.501l-89 74
c14 41.333 34.667 81.166 62 119.499s60.666 72.166 99.999 101.499s85 52.833 137 70.5s109.667 26.5 173 26.5c60.667 0 117.334 -9.16699 170.001 -27.5s98.167 -44.666 136.5 -78.999s68.5 -76.333 90.5 -126s33 -105.5 33 -167.5
c0 -68.667 -14.5 -134.834 -43.5 -198.501s-72.667 -127.667 -131 -192s-132 -131.833 -221 -202.5s-193.167 -147.667 -312.5 -231h256c48.667 0 93.334 1.33301 134.001 4s72.334 6.33398 95.001 11.001c24.667 4.66699 42.167 11.5 52.5 20.5s18.5 20.833 24.5 35.5
l76 181l137 -17c0 -64.667 -3.33301 -134 -10 -208s-16.334 -143 -29.001 -207z" />
    <glyph glyph-name="three" unicode="3" horiz-adv-x="1170" 
d="M1059 399c0 -62.667 -14.001 -120.33 -42.001 -172.997s-66 -97.667 -114 -135s-104.5 -66.5 -169.5 -87.5s-133.833 -31.5 -206.5 -31.5c-100 0 -188.167 17.5 -264.5 52.5s-137.166 74.5 -182.499 118.5l69 97c42.667 -28.667 91 -52.5 145 -71.5s113 -28.5 177 -28.5
c39.333 0 76.833 4.83301 112.5 14.5s66.834 24.667 93.501 45s48.167 46.833 64.5 79.5s24.833 72 25.5 118c1.33301 74.667 -19.834 135 -63.501 181s-101.5 73.333 -173.5 82c-23.333 -6 -48.666 -12 -75.999 -18s-52.333 -10.667 -75 -14l-34 125
c49.333 10.667 95.833 24.667 139.5 42s81.667 38.166 114 62.499s58 52.666 77 84.999s28.5 68.833 28.5 109.5c0 49.333 -17.5 90.833 -52.5 124.5s-81.833 50.5 -140.5 50.5c-58 0 -112 -14.667 -162 -44s-92 -62 -126 -98l-81 78c40 68 98.667 125.167 176 171.5
s169.333 69.5 276 69.5c52 0 101.667 -6.83301 149 -20.5s88.666 -33.667 123.999 -60s63.5 -59.166 84.5 -98.499s31.5 -84.333 31.5 -135c0 -44 -9 -85.333 -27 -124s-41.5 -73.167 -70.5 -103.5s-61.667 -56.333 -98 -78s-72.5 -37.834 -108.5 -48.501
c42 0.666992 85.5 -5.33301 130.5 -18s85.833 -32.834 122.5 -60.501s67 -63 91 -106s36 -93.833 36 -152.5z" />
    <glyph glyph-name="four" unicode="4" horiz-adv-x="1233" 
d="M1169 257l-217 0.000976562v-257h-250v257h-601l-67 131c97.333 157.333 192 319.666 284 486.999s180.333 339 265 515h240l36 -58l-177 -322c-54 -96 -105 -182 -153 -258s-95 -143.5 -141 -202.5s-93 -111.167 -141 -156.5l459 20l25 323l221 12v-324l217 9v-176z" />
    <glyph glyph-name="five" unicode="5" horiz-adv-x="1181" 
d="M157 256c40.667 -32.667 87.6689 -60.166 141.002 -82.499s110.666 -33.5 171.999 -33.5c90.667 0 165 26.5 223 79.5s87 126.833 87 221.5c0 83.333 -23.833 151 -71.5 203s-114.834 78 -201.501 78c-38 0 -76.333 -5.66699 -115 -17s-77.667 -27.333 -117 -48l-94 64
l45 656h774l-24 -200h-586l-38 -369c42 32 87 53.667 135 65s95 17 141 17c136 0 243.833 -38.333 323.5 -115s119.5 -179.334 119.5 -308.001c0 -74 -13.5 -141.667 -40.5 -203s-64.333 -113.5 -112 -156.5s-104.667 -76.333 -171 -100s-138.5 -35.5 -216.5 -35.5
c-96.667 0 -184 17.333 -262 52s-139.333 78.667 -184 132z" />
    <glyph glyph-name="six" unicode="6" horiz-adv-x="1271" 
d="M1167 466c0 -70.667 -12 -136.165 -36 -196.498s-58.167 -112.5 -102.5 -156.5s-98.333 -78.5 -162 -103.5s-134.834 -37.5 -213.501 -37.5c-80.667 0 -154.167 14 -220.5 42s-122.5 68.667 -168.5 122s-81.667 119.666 -107 198.999s-38 170 -38 272
c0 116.667 16.167 224.167 48.5 322.5s77.666 182.5 135.999 252.5s128.833 124.5 211.5 163.5s173.667 58.5 273 58.5c56.667 0 111.334 -6.33301 164.001 -19s99.334 -31.667 140.001 -57l-41 -119c-35.333 14 -69.5 24.167 -102.5 30.5s-63.833 9.5 -92.5 9.5
c-122.667 0 -223 -43.5 -301 -130.5s-126 -203.5 -144 -349.5c37.333 40 86.833 70.833 148.5 92.5s125.5 32.5 191.5 32.5c64 0 121.667 -10.667 173 -32s95 -50.833 131 -88.5s63.667 -82.834 83 -135.501s29 -110 29 -172zM668 105.002
c73.333 0 130.002 29.332 170.002 87.999s60 134.667 60 228c0 97.333 -22.5 173.5 -67.5 228.5s-105.167 82.5 -180.5 82.5c-38 0 -80.333 -6.16699 -127 -18.5s-86.334 -30.833 -119.001 -55.5v-6.5v-7.5v-77c0 -69.333 5.66699 -132.666 17 -189.999
s28.166 -106 50.499 -146s50 -71 83 -93s70.833 -33 113.5 -33z" />
    <glyph glyph-name="seven" unicode="7" horiz-adv-x="1140" 
d="M920 1200h-296.999c-50 0 -95.833 -1.66699 -137.5 -5s-75.167 -8 -100.5 -14c-18.667 -4 -33.334 -9.66699 -44.001 -17s-19 -20.333 -25 -39l-73 -222l-141 -2c-4.66699 80.667 -4.33398 162.5 0.999023 245.5s13.666 159.833 24.999 230.5h907l66 -146
c-122.667 -158 -226.167 -336.667 -310.5 -536s-135.833 -431 -154.5 -695h-244l-41 49c10 108.667 31.833 217 65.5 325s75.834 211.333 126.501 310s108.334 192.167 173.001 280.5s132.667 166.833 204 235.5z" />
    <glyph glyph-name="eight" unicode="8" horiz-adv-x="1284" 
d="M632 -28c-75.333 0 -144.999 8.33301 -208.999 25s-119 40.5 -165 71.5s-82 69.333 -108 115s-39 97.5 -39 155.5c0 83.333 26.167 157 78.5 221s122.833 110.667 211.5 140c-59.333 37.333 -110.5 83 -153.5 137s-64.5 120.667 -64.5 200
c0 54.667 11.333 104.667 34 150s54.667 84 96 116s91 56.833 149 74.5s122.333 26.5 193 26.5c66 0 126.833 -7.83301 182.5 -23.5s103.334 -37.667 143.001 -66s70.667 -62.333 93 -102s33.5 -83.5 33.5 -131.5c0 -73.333 -24.667 -139.5 -74 -198.5
s-111.333 -102.833 -186 -131.5c43.333 -22 84.666 -45.333 123.999 -70s73.666 -52.167 102.999 -82.5s52.833 -64.833 70.5 -103.5s26.5 -82.667 26.5 -132c0 -60 -13.167 -114.167 -39.5 -162.5s-63 -89.333 -110 -123s-103.833 -59.667 -170.5 -78
s-139.667 -27.5 -219 -27.5zM427.001 1098c0 -34 7.66602 -64.5 22.999 -91.5s36.333 -51.667 63 -74s58.167 -43.333 94.5 -63s75.166 -39.167 116.499 -58.5c50.667 32.667 87.334 70.667 110.001 114s34 88 34 134c0 70.667 -21 125.167 -63 163.5s-97 57.5 -165 57.5
c-67.333 0 -119.666 -17.167 -156.999 -51.5s-56 -77.833 -56 -130.5zM649 100c77.333 0 137.667 19.832 181 59.499s65 89.5 65 149.5c0 38.667 -8.83301 72.334 -26.5 101.001s-41.167 54.334 -70.5 77.001s-63.666 43.5 -102.999 62.5l-123 59.5
c-8.66699 4.66699 -17.834 9.16699 -27.501 13.5s-19.167 8.83301 -28.5 13.5c-52 -32.667 -90.833 -72.834 -116.5 -120.501s-38.5 -98.5 -38.5 -152.5c0 -44 7.83301 -82.5 23.5 -115.5s36.667 -60.333 63 -82s57 -38 92 -49s71.5 -16.5 109.5 -16.5z" />
    <glyph glyph-name="nine" unicode="9" horiz-adv-x="1270" 
d="M622 645c38 0 79.8311 6.33008 125.498 18.9971s84.834 30.334 117.501 53.001v90c0 64.667 -5.66699 125.5 -17 182.5s-28 106.333 -50 148s-49.833 74.5 -83.5 98.5s-72.5 36 -116.5 36c-37.333 0 -70.333 -8.16699 -99 -24.5s-52.5 -38.666 -71.5 -66.999
s-33.333 -61.833 -43 -100.5s-14.5 -80.667 -14.5 -126c0 -95.333 22.333 -170.666 67 -225.999s106.334 -83 185.001 -83zM517.998 -28.0029c-67.333 0 -132.164 9.33301 -194.497 28s-113.5 45 -153.5 79l49 114c30 -16.667 66.167 -31.5 108.5 -44.5
s88.5 -19.5 138.5 -19.5c104.667 0 193 41.167 265 123.5s115 201.166 129 356.499c-36 -37.333 -84.5 -67.666 -145.5 -90.999s-124.833 -35 -191.5 -35c-66 0 -125.167 10.667 -177.5 32s-96.333 50.833 -132 88.5s-63.167 82.667 -82.5 135s-29 109.166 -29 170.499
c0 70.667 12 136.5 36 197.5s58 113.333 102 157s97.833 78 161.5 103s135.167 37.5 214.5 37.5c80.667 0 154 -13.833 220 -41.5s122.167 -68.667 168.5 -123s82.166 -122 107.499 -203s38 -174.5 38 -280.5c0 -121.333 -15.5 -230.666 -46.5 -327.999
s-74.333 -179.5 -130 -246.5s-122.334 -118.667 -200.001 -155s-162.834 -54.5 -255.501 -54.5z" />
    <glyph glyph-name="colon" unicode=":" horiz-adv-x="643" 
d="M487 977c0 -46.667 -15.167 -84.5 -45.5 -113.5s-70.5 -43.5 -120.5 -43.5c-49.333 0 -89.166 14.5 -119.499 43.5s-45.5 66.833 -45.5 113.5s15.167 84.5 45.5 113.5s70.166 43.5 119.499 43.5c50 0 90.167 -14.5 120.5 -43.5s45.5 -66.833 45.5 -113.5zM487 138
c0 -46.667 -15.167 -84.5 -45.5 -113.5s-70.5 -43.5 -120.5 -43.5c-49.333 0 -89.166 14.5 -119.499 43.5s-45.5 66.833 -45.5 113.5c0 47.333 15.167 85.333 45.5 114s70.166 43 119.499 43c50 0 90.167 -14.333 120.5 -43s45.5 -66.667 45.5 -114z" />
    <glyph glyph-name="semicolon" unicode=";" horiz-adv-x="676" 
d="M502 979c0 -46.667 -15.167 -84.5 -45.5 -113.5s-70.5 -43.5 -120.5 -43.5c-49.333 0 -89.166 14.5 -119.499 43.5s-45.5 66.833 -45.5 113.5s15.167 84.5 45.5 113.5s70.166 43.5 119.499 43.5c50 0 90.167 -14.5 120.5 -43.5s45.5 -66.833 45.5 -113.5zM518 74
c0 -53.333 -8.66504 -104.836 -25.998 -154.503s-40.833 -95.834 -70.5 -138.501s-64.334 -81.667 -104.001 -117s-81.5 -65.333 -125.5 -90l-56 71c52.667 46.667 94.5 96.334 125.5 149.001s46.5 102 46.5 148c0 26.667 -5.33301 44.334 -16 53.001
s-24.334 18.334 -41.001 29.001c-19.333 12.667 -37.5 30.334 -54.5 53.001s-25.5 52 -25.5 88c0 44.667 14.667 82 44 112s67 45 113 45c52.667 0 97.5 -21.167 134.5 -63.5s55.5 -103.833 55.5 -184.5z" />
    <glyph glyph-name="less" unicode="&#x3c;" horiz-adv-x="1139" 
d="M932 117l-843 424v145l843 424l79 -171l-699 -323l699 -326z" />
    <glyph glyph-name="equal" unicode="=" horiz-adv-x="1231" 
d="M1072 732h-922v177h922v-177zM1072 319h-922v176h922v-176z" />
    <glyph glyph-name="greater" unicode="&#x3e;" horiz-adv-x="1139" 
d="M208 117l-79 173l699 324l-699 325l79 171l843 -424v-145z" />
    <glyph glyph-name="question" unicode="?" horiz-adv-x="1100" 
d="M549 478h-147.999c-14 35.333 -28.333 75.5 -43 120.5s-22 86.5 -22 124.5c0 58 17.167 105.333 51.5 142s78.5 79.667 132.5 129c78 72 135.667 135.167 173 189.5s56 116.5 56 186.5c0 68.667 -18.333 126 -55 172s-88.667 69 -156 69
c-38.667 0 -73.667 -7.33301 -105 -22s-55.333 -30.667 -72 -48c-13.333 -14.667 -22.666 -29.5 -27.999 -44.5s-9.33301 -33.5 -12 -55.5l-23 -212h-158c-18 56 -32.5 116.5 -43.5 181.5s-17.833 128.5 -20.5 190.5c48.667 40 111.667 75 189 105s160.666 45 249.999 45
c78.667 0 149.667 -12.167 213 -36.5s117.166 -56.833 161.499 -97.5s78.5 -88.334 102.5 -143.001s36 -112 36 -172c0 -50.667 -8.33301 -97.167 -25 -139.5s-39.5 -81.833 -68.5 -118.5s-62.833 -71.667 -101.5 -105s-80 -66.666 -124 -99.999l-66.5 -53.5
c-17 -14.333 -30.333 -28 -40 -41s-17 -27.5 -22 -43.5s-8.83301 -36.333 -11.5 -61zM643.001 130c0 -44 -14.667 -79.833 -44 -107.5s-68 -41.5 -116 -41.5s-86.5 13.833 -115.5 41.5s-43.5 63.5 -43.5 107.5c0 44.667 14.5 80.667 43.5 108s67.5 41 115.5 41
s86.667 -13.833 116 -41.5s44 -63.5 44 -107.5z" />
    <glyph glyph-name="at" unicode="@" horiz-adv-x="2122" 
d="M925 -520c-128.667 0 -243.836 21.1719 -345.503 63.5049s-187.334 101.833 -257.001 178.5s-123.167 169.167 -160.5 277.5s-56.333 228.166 -57 359.499c-1.33301 175.333 28.334 336.5 89.001 483.5s142.334 272.833 245.001 377.5s222.834 186.167 360.501 244.5
s281.834 87.5 432.501 87.5c112 0 215.833 -16.5 311.5 -49.5s178 -81.5 247 -145.5s123.167 -143.5 162.5 -238.5s59 -203.833 59 -326.5c0 -137.333 -22.833 -257.833 -68.5 -361.5s-100 -189.667 -163 -258s-128.833 -119.666 -197.5 -153.999s-126 -51.5 -172 -51.5
c-52 0 -91 20.667 -117 62s-39 95 -39 161c0 28 2.33301 63 7 105s11.667 91 21 147c-22 -60.667 -47.833 -120.5 -77.5 -179.5s-62.5 -111.167 -98.5 -156.5s-75.333 -82 -118 -110s-88 -42 -136 -42c-40 0 -78 10.167 -114 30.5s-67.667 49 -95 86s-49 82 -65 135
s-24 111.833 -24 176.5c0 79.333 12.5 159.666 37.5 240.999s61 154.666 108 219.999s104.333 118.666 172 159.999s143.834 62 228.501 62c38 0 78 -5.5 120 -16.5s86 -28.833 132 -53.5l52 66l154 -49l-29 -146c-12 -62 -23.833 -128 -35.5 -198
s-21.834 -139.833 -30.501 -209.5s-13 -129.834 -13 -180.501c0 -54 5.16699 -90.833 15.5 -110.5s25.833 -29.5 46.5 -29.5c26.667 0 59.334 13 98.001 39s75.5 64.167 110.5 114.5s65 113 90 188s37.5 160.833 37.5 257.5c0 121.333 -20.333 224.5 -61 309.5
s-93.334 153.833 -158.001 206.5s-138.334 91 -221.001 115s-165.667 36 -249 36c-121.333 0 -235.333 -23 -342 -69s-199.167 -111.5 -277.5 -196.5s-140.166 -188.333 -185.499 -310s-68 -257.167 -68 -406.5c0 -132.667 17.833 -249 53.5 -349
s84.167 -182.833 145.5 -248.5s133.666 -114.834 216.999 -147.501s172.333 -49 267 -49c37.333 0 76.833 2.5 118.5 7.5s81.5 11.667 119.5 20s73.333 18.333 106 30s59.334 24.167 80.001 37.5l45 -95c-54 -44 -127 -79.667 -219 -107s-190.333 -41 -295 -41z
M909.998 162.005c28 0 57.501 12.3291 88.501 36.9961s61.333 58.334 91 101.001s58.167 93.334 85.5 152.001s51.666 121.667 72.999 189c10 30.667 18.833 60.334 26.5 89.001s14.5 55.667 20.5 81c-32.667 32.667 -70.334 57.834 -113.001 75.501s-81.667 26.5 -117 26.5
c-47.333 0 -89.166 -13.167 -125.499 -39.5s-66.5 -60.833 -90.5 -103.5s-42.167 -91.5 -54.5 -146.5s-18.5 -110.833 -18.5 -167.5c0 -36 2.66699 -71.833 8 -107.5s13.333 -67.167 24 -94.5s24.5 -49.5 41.5 -66.5s37.167 -25.5 60.5 -25.5z" />
    <glyph glyph-name="A" unicode="A" horiz-adv-x="1567" 
d="M968 609l-246 732l-234 -732h480zM537 116v-115.999h-542v116l128 31c14.667 3.33301 26.667 9 36 17s16.333 19.333 21 34l469 1369h262l484 -1369c4.66699 -14.667 11.667 -25.834 21 -33.501s21.333 -13.5 36 -17.5l118 -31v-116h-644v116l195 35l-107 319h-570
l-102 -319z" />
    <glyph glyph-name="B" unicode="B" horiz-adv-x="1533" 
d="M786 -12c-30.667 0 -59.0029 0.667969 -85.0029 2.00098l-77.5 4c-25.667 1.33301 -52.834 2.66602 -81.501 3.99902s-60.667 2 -96 2h-343v116l164 30c12.667 2.66699 23.167 8.83398 31.5 18.501s12.5 21.167 12.5 34.5v1158c0 13.333 -4 24.833 -12 34.5
s-18.333 15.834 -31 18.501l-165 33v119h344c62.667 0 120.834 2.33301 174.501 7s111.834 7 174.501 7c99.333 0 182.833 -7.83301 250.5 -23.5s122.167 -38.834 163.5 -69.501s71 -69 89 -115s27 -98.667 27 -158c0 -97.333 -24.667 -179 -74 -245
s-118 -110.333 -206 -133c114.667 -4.66699 207.834 -39.167 279.501 -103.5s107.5 -153.833 107.5 -268.5c0 -66.667 -10.5 -128.834 -31.5 -186.501s-56.333 -107.5 -106 -149.5s-116.167 -75.167 -199.5 -99.5s-186.666 -36.5 -309.999 -36.5zM785.997 873.001
c88.667 0 155.502 25.833 200.502 77.5s67.5 128.5 67.5 230.5c0 95.333 -22.833 165.5 -68.5 210.5s-121.834 67.5 -228.501 67.5c-30.667 0 -63.167 -1.5 -97.5 -4.5l-75.5 -6.5v-573c39.333 -0.666992 77.666 -1.16699 114.999 -1.5s66.333 -0.5 87 -0.5z
M775.999 109.001c127.333 0 218.5 28.333 273.5 85s82.5 139 82.5 247c0 108.667 -26 185.667 -78 231s-131.667 68 -239 68c-27.333 0 -62.333 -0.333008 -105 -1l-126 -2v-612c24.667 -4 55.167 -7.66699 91.5 -11s69.833 -5 100.5 -5z" />
    <glyph glyph-name="C" unicode="C" horiz-adv-x="1445" 
d="M828 -31c-120 0 -225 17.6709 -315 53.0039s-164.333 86.333 -223 153s-102.5 148.667 -131.5 246s-43.5 207.333 -43.5 330c0 140 18 262.667 54 368s86.833 192.666 152.5 261.999s145.5 121.333 239.5 156s198.333 52 313 52c69.333 0 145 -6.5 227 -19.5
s157.667 -32.5 227 -58.5c3.33301 -60.667 3.33301 -125.834 0 -195.501s-10.333 -139.834 -21 -210.501h-162l-51 237c-3.33301 14 -8.66602 27.167 -15.999 39.5s-19 23.5 -35 33.5c-20.667 12.667 -50.5 23.834 -89.5 33.501s-79.833 14.5 -122.5 14.5
c-125.333 0 -224.5 -53 -297.5 -159s-109.5 -277.667 -109.5 -515c0 -105.333 7.83301 -201 23.5 -287s40 -158.833 73 -218.5s75.667 -105.834 128 -138.501s114.833 -49 187.5 -49c40 0 79.667 5.5 119 16.5s72 25.833 98 44.5c11.333 8.66699 20.666 18.5 27.999 29.5
s14 25.5 20 43.5l70 215l159 -15c2.66699 -56.667 2.16699 -117.834 -1.5 -183.501s-10.5 -130.5 -20.5 -194.5c-62.667 -24 -137.5 -43.833 -224.5 -59.5s-172.167 -23.5 -255.5 -23.5z" />
    <glyph glyph-name="D" unicode="D" horiz-adv-x="1677" 
d="M445 1562c66 0 127.832 2.33105 185.499 6.99805s116.5 7 176.5 7c256 0 445.833 -62.5 569.5 -187.5s185.5 -311.5 185.5 -559.5c0 -138.667 -18.167 -261.5 -54.5 -368.5s-88 -196 -155 -267s-149 -124.333 -246 -160s-205.5 -52.167 -325.5 -49.5
c-22.667 0.666992 -48.167 1.83398 -76.5 3.50098s-57.166 3.5 -86.499 5.5s-58.666 3.66699 -87.999 5s-56.333 2 -81 2h-346v116l160 30c15.333 2.66699 27.166 9 35.499 19s12.5 22.333 12.5 37v1155c0 13.333 -4 24.833 -12 34.5s-18.333 15.834 -31 18.501l-165 33v119
h342zM585.999 130.998c24.667 -6.66699 57.668 -11.498 99.001 -14.498s78.333 -4.16699 111 -3.5c148 3.33301 263.167 56.166 345.5 158.499s123.5 273.5 123.5 513.5c0 222 -40.5 388.667 -121.5 500s-206.833 167 -377.5 167c-40 0 -75.833 -2.33301 -107.5 -7
s-55.834 -7.33398 -72.501 -8.00098v-1306z" />
    <glyph glyph-name="E" unicode="E" horiz-adv-x="1420" 
d="M1244 1164l-133.999 0.00195312l-48 188c-4.66699 16 -11.667 28.667 -21 38s-21.666 17 -36.999 23c-20.667 7.33301 -48.334 13 -83.001 17s-72 6 -112 6h-223v-567l468 16v-170l-468 12v-591h275c40 0 79.333 1.83301 118 5.5s68.334 9.5 89.001 17.5
c15.333 6 27 13.667 35 23s15 22 21 38l78 228l133 -21c-0.666992 -69.333 -4.33398 -139.666 -11.001 -210.999s-16.334 -143.333 -29.001 -216h-1192v116l158 29c16.667 3.33301 29.167 10.166 37.5 20.499s12.5 23.833 12.5 40.5v1145
c0 16.667 -4.16699 30.167 -12.5 40.5s-20.833 17.166 -37.5 20.499l-158 31v119h1140c6.66699 -64.667 10 -129.834 10 -195.501s-3 -133.167 -9 -202.5z" />
    <glyph glyph-name="F" unicode="F" horiz-adv-x="1312" 
d="M1054 692l-467.999 12.0029v-502c0 -14 4.5 -26 13.5 -36s20.5 -16 34.5 -18l255 -32v-116h-786v116l160 30c15.333 2.66699 27.166 9.16699 35.499 19.5s12.5 23.166 12.5 38.499v1147c0 16.667 -4.16699 30.167 -12.5 40.5s-20.833 17.166 -37.5 20.499l-158 31v119
h1140c6.66699 -64.667 10 -129.834 10 -195.501s-3 -133.167 -9 -202.5h-134l-48 188c-4.66699 16 -11.667 28.667 -21 38s-21.666 17 -36.999 23c-20.667 7.33301 -48.334 13 -83.001 17s-72 6 -112 6h-223v-590l468 17v-171z" />
    <glyph glyph-name="G" unicode="G" horiz-adv-x="1594" 
d="M1341 -12l-151.998 136.999c-48 -47.333 -106.333 -84.666 -175 -111.999s-147.667 -41 -237 -41c-108 0 -203.5 18.833 -286.5 56.5s-152.167 90.834 -207.5 159.501s-97.333 152 -126 250s-43 206.667 -43 326c0 138 18.333 258.833 55 362.5
s88.834 189.667 156.501 258s150 119.5 247 153.5s205.167 51 324.5 51c85.333 0 169.833 -8.16699 253.5 -24.5s159.167 -40.5 226.5 -72.5c3.33301 -60.667 2.83301 -122 -1.5 -184s-10.833 -124.667 -19.5 -188h-165l-49 211c-4.66699 20.667 -10.834 36.5 -18.501 47.5
s-18.5 21.167 -32.5 30.5c-23.333 15.333 -54.333 28.333 -93 39s-82.334 16 -131.001 16c-132.667 0 -238.667 -55.333 -318 -166s-119 -284.334 -119 -521.001c0 -95.333 7.66699 -182.833 23 -262.5s39.833 -147.5 73.5 -203.5s78.167 -99.667 133.5 -131
s122.666 -47 201.999 -47c52 0 101.333 6.83301 148 20.5s88 35.167 124 64.5v427l-247 21v131h626v-131l-114 -19v-630z" />
    <glyph glyph-name="H" unicode="H" horiz-adv-x="1846" 
d="M1743 1562l-0.000976562 -119.004l-159 -31c-16 -3.33301 -28.333 -10.5 -37 -21.5s-13 -24.5 -13 -40.5v-1144c0 -16.667 4.33301 -30 13 -40s21.334 -16.667 38.001 -20l158 -30v-116h-662v116l129 29c16 4 28.333 11 37 21s13 23.333 13 40v519h-674v-519
c0 -16.667 4.16699 -30.167 12.5 -40.5s20.833 -17.166 37.5 -20.499l140 -29v-116h-673v116l158 30c16.667 3.33301 29.167 10 37.5 20s12.5 23.333 12.5 40v1144c0 16.667 -4.16699 30.334 -12.5 41.001s-20.5 17.667 -36.5 21l-159 31v119h672v-119l-140 -31
c-16.667 -3.33301 -29 -10.166 -37 -20.499s-12 -24.166 -12 -41.499v-479h674v479c0 16.667 -4.16699 30.167 -12.5 40.5s-20.5 17.5 -36.5 21.5l-130 31v119h662z" />
    <glyph glyph-name="I" unicode="I" horiz-adv-x="897" 
d="M795 1562v-118.999l-159 -31c-16.667 -3.33301 -29.167 -10.166 -37.5 -20.499s-12.5 -23.833 -12.5 -40.5v-1145c0 -16.667 4.16699 -30.167 12.5 -40.5s20.833 -16.833 37.5 -19.5l159 -30v-116h-692v116l158 29c16.667 3.33301 29.167 10.166 37.5 20.499
s12.5 23.833 12.5 40.5v1145c0 16.667 -4.16699 30.167 -12.5 40.5s-20.833 17.166 -37.5 20.499l-158 31v119h692z" />
    <glyph glyph-name="J" unicode="J" horiz-adv-x="841" 
d="M613 1412c-16.667 -4 -29.166 -10.999 -37.499 -20.999s-12.5 -23.333 -12.5 -40v-951c0 -116 -6.33301 -215 -19 -297s-37.834 -152.833 -75.501 -212.5s-91 -111.667 -160 -156s-159.5 -87.166 -271.5 -128.499l-56 118c64 41.333 116.167 81.166 156.5 119.499
s71.5 80.833 93.5 127.5s37 101 45 163s12 136.667 12 224v993c0 16.667 -4.16699 30.167 -12.5 40.5s-20.833 17.166 -37.5 20.499l-158 31v119h672v-119z" />
    <glyph glyph-name="K" unicode="K" horiz-adv-x="1617" 
d="M802 116l0.00195312 -115.999h-699v116l156 30c16.667 3.33301 29.5 9.83301 38.5 19.5s13.5 22.834 13.5 39.501v1146c0 16.667 -4.33301 30.167 -13 40.5s-21.334 17.166 -38.001 20.499l-157 31v119h691v-119l-159 -31c-16 -3.33301 -28.333 -10.166 -37 -20.499
s-13 -23.833 -13 -40.5v-629l588 687l-180 34v119h567v-119l-148 -31c-13.333 -3.33301 -25.166 -7.5 -35.499 -12.5s-20.166 -12.5 -29.499 -22.5l-388 -432c35.333 -41.333 68.666 -86.666 99.999 -135.999s67.333 -109 108 -179l242 -413
c12.667 -21.333 25 -37.833 37 -49.5s29.667 -20.167 53 -25.5l106 -26v-116h-359c-24.667 0 -50.834 19.167 -78.501 57.5s-58.834 90.166 -93.501 155.499l-158 300l-71.5 132c-21 37.333 -41.833 71.333 -62.5 102l-197 -223v-321c0 -16.667 4.66699 -29.834 14 -39.501
s22.333 -15.834 39 -18.501z" />
    <glyph glyph-name="L" unicode="L" horiz-adv-x="1383" 
d="M1098 222l91.001 289l139 -19c-0.666992 -75.333 -3.66699 -156 -9 -242s-16.333 -169.333 -33 -250h-1183v116l158 29c16.667 2.66699 29.167 9.16699 37.5 19.5s12.5 23.833 12.5 40.5v1147c0 16.667 -4.16699 30.167 -12.5 40.5s-20.833 16.833 -37.5 19.5l-158 31
v119h741v-119l-207 -33c-16.667 -2.66699 -29.334 -9.16699 -38.001 -19.5s-13 -23.833 -13 -40.5v-1213h248c44.667 0 85 2 121 6s64.667 10 86 18c14.667 6 26.667 13.667 36 23s16.333 22 21 38z" />
    <glyph glyph-name="M" unicode="M" horiz-adv-x="2220" 
d="M635 116v-116.002h-580v116l152 31c16 2.66699 28.333 8.83398 37 18.501s14 22.834 16 39.501l138 1143c2 17.333 -1.16699 31.666 -9.5 42.999s-20.833 18.333 -37.5 21l-177 31v119h603l342 -1130l302 1130h606v-119l-182 -31
c-17.333 -3.33301 -29.833 -10.666 -37.5 -21.999s-10.167 -25.666 -7.5 -42.999l177 -1144c2.66699 -15.333 8.5 -27.833 17.5 -37.5s21.167 -15.834 36.5 -18.501l149 -31v-116h-657v116l185 32l-182 1201l-346 -1287h-209l-409 1286l-138 -1200z" />
    <glyph glyph-name="N" unicode="N" horiz-adv-x="1789" 
d="M709 116v-115.996h-606v116l158 29c16.667 2.66699 29.167 9.16699 37.5 19.5s12.5 23.833 12.5 40.5v1146c0 16.667 -4.16699 30.167 -12.5 40.5s-20.833 17.166 -37.5 20.499l-158 31v119h487l751 -1168v957c0 16.667 -4.33301 30.167 -13 40.5s-21 17.166 -37 20.499
l-169 31v119h578v-119l-143 -31c-16.667 -4 -29.167 -11 -37.5 -21s-12.5 -23.333 -12.5 -40v-1351h-238l-791 1234v-1028c0 -16.667 4.16699 -30.334 12.5 -41.001s20.833 -17.334 37.5 -20.001z" />
    <glyph glyph-name="O" unicode="O" horiz-adv-x="1601" 
d="M774 -29c-110.667 0 -207.33 18.332 -289.997 54.999s-151.334 88.667 -206.001 156s-95.5 149.5 -122.5 246.5s-40.5 205.5 -40.5 325.5c0 132.667 16.333 251.167 49 355.5s79.5 191.833 140.5 262.5s135.833 124.667 224.5 162s188 56 298 56
c110.667 0 207.5 -18.167 290.5 -54.5s151.667 -88.166 206 -155.499s95.166 -149.5 122.499 -246.5s41 -205.5 41 -325.5c0 -132 -16.333 -250.167 -49 -354.5s-79.5 -192 -140.5 -263s-135.833 -125.333 -224.5 -163s-188.334 -56.5 -299.001 -56.5zM804.004 1459
c-123.333 0 -218.5 -55.333 -285.5 -166s-100.5 -283 -100.5 -517c0 -226 31.333 -394.667 94 -506s157.334 -167 284.001 -167c122.667 0 217.667 55.833 285 167.5s101 284.5 101 518.5c0 226 -31.333 394.167 -94 504.5s-157.334 165.5 -284.001 165.5z" />
    <glyph glyph-name="P" unicode="P" horiz-adv-x="1429" 
d="M757 707c43.333 0 84.499 6.66699 123.499 20s73 36 102 68s52.167 74.667 69.5 128s26 119.666 26 198.999c0 118.667 -26.833 203.834 -80.5 255.501s-134.167 77.5 -241.5 77.5c-42 0 -75.667 -2 -101 -6s-48.333 -6.33301 -69 -7v-727l80.5 -5.5
c25.667 -1.66699 55.834 -2.5 90.501 -2.5zM878.999 116v-116.004h-776v116l160 30c14.667 2.66699 26.334 9 35.001 19s13 22 13 36v1154c0 12.667 -4 24.334 -12 35.001s-18.333 17.334 -31 20.001l-165 33v119h349c28 0 54.333 0.666992 79 2s50.167 2.83301 76.5 4.5
s55.166 3.16699 86.499 4.5s67.666 2 108.999 2c106.667 0 196 -10.167 268 -30.5s129.5 -49.333 172.5 -87s73.5 -84.5 91.5 -140.5s27 -119.333 27 -190c0 -85.333 -14.333 -161.666 -43 -228.999s-69 -124.166 -121 -170.499s-115.167 -81.833 -189.5 -106.5
s-157.166 -37 -248.499 -37c-28.667 0 -57.667 0.666992 -87 2l-87 4v-388c0 -14 4.5 -26 13.5 -36s20.5 -16 34.5 -18z" />
    <glyph glyph-name="Q" unicode="Q" horiz-adv-x="1601" 
d="M1375 -418c-72.667 0 -134.999 15.3359 -186.999 46.0029s-100 66.834 -144 108.501l-131.5 128.5c-43.667 44 -93.5 79.333 -149.5 106c-108.667 1.33301 -203.834 20.666 -285.501 57.999s-149.167 89.833 -202.5 157.5s-93.333 149.667 -120 246s-40 203.5 -40 321.5
c0 132 16.333 250 49 354s79.5 191.5 140.5 262.5s135.833 125.333 224.5 163s188 56.5 298 56.5c110.667 0 207.5 -18.333 290.5 -55s151.667 -88.834 206 -156.501s95.166 -149.834 122.499 -246.501s41 -204.667 41 -324c0 -210.667 -42.5 -385.334 -127.5 -524.001
s-201.5 -231.334 -349.5 -278.001c36 -13.333 69.833 -29.166 101.5 -47.499s63.5 -37.833 95.5 -58.5c50.667 -34.667 100.667 -63.667 150 -87s104 -35 164 -35c18.667 0 36.667 0.666992 54 2s33 3.33301 47 6l27 -103c-22.667 -22 -59.167 -44.333 -109.5 -67
s-105.166 -34 -164.499 -34zM803.001 1459c-123.333 0 -218.668 -54.833 -286.001 -164.5s-101 -282.5 -101 -518.5c0 -228 31.667 -397.167 95 -507.5s158.333 -165.5 285 -165.5c123.333 0 218.833 55.333 286.5 166s101.5 284 101.5 520c0 228 -31.667 396.667 -95 506
s-158.666 164 -285.999 164z" />
    <glyph glyph-name="R" unicode="R" horiz-adv-x="1590" 
d="M585 1443l0.000976562 -639.999c19.333 -1.33301 40.166 -2.33301 62.499 -3s43.833 -1 64.5 -1h57h41c78 0.666992 142.167 28.667 192.5 84s75.5 142.666 75.5 261.999c0 102.667 -23.833 180 -71.5 232s-131.5 78 -251.5 78c-34 0 -66.5 -1.5 -97.5 -4.5
s-55.167 -5.5 -72.5 -7.5zM802.001 116.001l-0.000976562 -116h-699v116l156 30c16.667 3.33301 29.5 9.83301 38.5 19.5s13.5 22.834 13.5 39.501v1147c0 16.667 -4.5 30 -13.5 40s-21.5 16.667 -37.5 20l-157 31v119h342c58 0 113.167 2.33301 165.5 7
s112.166 7 179.499 7c208 0 356.667 -33.5 446 -100.5s134 -172.167 134 -315.5c0 -76 -10.667 -140 -32 -192s-48.333 -94.5 -81 -127.5s-69 -58.5 -109 -76.5s-78.667 -32 -116 -42c43.333 -24.667 80.833 -55.667 112.5 -93s61.834 -85.666 90.501 -144.999l136 -273
c12 -24 23.833 -40.5 35.5 -49.5s27.834 -15.833 48.501 -20.5l105 -25v-116h-348c-30.667 0 -58.5 21 -83.5 63s-53.167 97.333 -84.5 166l-100 229c-22 48 -43.667 91 -65 129s-43 68.667 -65 92c-42 0 -82.833 0.166992 -122.5 0.5s-75.167 0.5 -106.5 0.5v-477
c0 -16.667 4.66699 -29.834 14 -39.501s22.333 -15.834 39 -18.501z" />
    <glyph glyph-name="S" unicode="S" horiz-adv-x="1295" 
d="M1194 425c0 -56 -10.667 -111.337 -32 -166.004s-54.5 -103.667 -99.5 -147s-103.167 -78.333 -174.5 -105s-156.333 -40 -255 -40c-104.667 0 -200.5 13.167 -287.5 39.5s-158.833 55.166 -215.5 86.499c-2.66699 66.667 -1.83398 135.834 2.49902 207.501
s11.166 138.5 20.499 200.5h160l38 -243c2 -12.667 5.66699 -25 11 -37s14.333 -23.667 27 -35c24 -24 58.833 -46 104.5 -66s96.834 -30 153.501 -30c86.667 0 153.334 22.167 200.001 66.5s70 103.833 70 178.5c0 46 -8.66699 86 -26 120s-41.333 64.333 -72 91
s-67.5 51.334 -110.5 74.001s-89.5 46 -139.5 70l-150 77.5c-50 27 -94.667 58.5 -134 94.5s-71.5 78.5 -96.5 127.5s-37.5 106.833 -37.5 173.5c0 61.333 11.333 118.166 34 170.499s56 97.333 100 135s99.333 67.334 166 89.001s143.667 32.5 231 32.5
c75.333 0 151.166 -7.66699 227.499 -23s142.166 -35.333 197.499 -60c4.66699 -66 5.33398 -131.5 2.00098 -196.5s-9.66602 -127.5 -18.999 -187.5h-155l-41 212c-2.66699 14.667 -7.16699 28.167 -13.5 40.5s-15.833 23.833 -28.5 34.5
c-20.667 16.667 -49 30.834 -85 42.501s-74.333 17.5 -115 17.5c-77.333 0 -136.833 -19.5 -178.5 -58.5s-62.5 -92.167 -62.5 -159.5c0 -42.667 8 -79.667 24 -111s39.167 -59.666 69.5 -84.999s67.666 -49.833 111.999 -73.5s94.5 -49.167 150.5 -76.5
c54.667 -26.667 107.834 -55.167 159.501 -85.5s97.167 -64.166 136.5 -101.499s71 -80 95 -128s36 -103.333 36 -166z" />
    <glyph glyph-name="T" unicode="T" horiz-adv-x="1546" 
d="M1198 0l-847.001 -0.000976562v116l234 36c16.667 2.66699 29.5 9 38.5 19s13.5 23.333 13.5 40v1225h-107c-38 0 -73.5 -2 -106.5 -6s-58.167 -9.33301 -75.5 -16c-14.667 -5.33301 -26.167 -12.5 -34.5 -21.5s-14.166 -20.833 -17.499 -35.5l-72 -304h-141
c-8 91.333 -11.667 177.166 -11 257.499s5.66699 164.166 15 251.499h1377c8.66699 -87.333 13 -171.666 13 -252.999s-4.33301 -166.666 -13 -255.999h-141l-73 305c-3.33301 14.667 -9 26.334 -17 35.001s-19 15.667 -33 21c-18.667 7.33301 -43.5 12.833 -74.5 16.5
s-66.5 5.5 -106.5 5.5h-107v-1225c0 -16.667 4.5 -30 13.5 -40s21.833 -16.333 38.5 -19l234 -36v-116z" />
    <glyph glyph-name="U" unicode="U" horiz-adv-x="1704" 
d="M1043 1562l568 0.00195312v-119l-118 -29c-16 -4 -28 -11.333 -36 -22s-12 -24.334 -12 -41.001v-774c0 -106 -13.667 -197.167 -41 -273.5s-66.5 -138.5 -117.5 -186.5s-113.333 -83.167 -187 -105.5s-156.5 -33.5 -248.5 -33.5c-204 0 -354.5 50.333 -451.5 151
s-145.5 256.334 -145.5 467.001v756c0 16.667 -4 30 -12 40s-20 17.333 -36 22l-110 29v119h661v-119l-170 -33c-16.667 -2.66699 -29.167 -9.33398 -37.5 -20.001s-12.5 -24.334 -12.5 -41.001v-778c0 -164 30.667 -283.167 92 -357.5s150.333 -111.5 267 -111.5
c133.333 0 228 40.667 284 122s84 194 84 338v789c0 16.667 -4.16699 30.167 -12.5 40.5s-20.833 16.833 -37.5 19.5l-171 32v119z" />
    <glyph glyph-name="V" unicode="V" horiz-adv-x="1566" 
d="M921 -5l-248.001 -0.000976562l-509 1366c-5.33301 14.667 -12.666 25.834 -21.999 33.501s-21.333 13.5 -36 17.5l-119 31v119h653v-119l-201 -39l410 -1153l369 1153l-202 39v119h546v-119l-126 -31c-14.667 -4 -26.667 -10 -36 -18s-16.333 -19 -21 -33z" />
    <glyph glyph-name="W" unicode="W" horiz-adv-x="2268" 
d="M1433 -9l-295 1003l-284 -1003h-253l-427 1368c-4.66699 14 -11.5 25.333 -20.5 34s-20.833 15 -35.5 19l-124 31v119h644v-119l-191 -39l330 -1150l284 985l-41 120c-4.66699 14 -11.5 25.167 -20.5 33.5s-20.5 14.833 -34.5 19.5l-98 31v119h625v-119l-203 -39
l320 -1142l315 1142l-191 39v119h531v-119l-128 -31c-14.667 -4 -26.667 -9.83301 -36 -17.5s-16.333 -19.834 -21 -36.501l-392 -1367h-254z" />
    <glyph glyph-name="X" unicode="X" horiz-adv-x="1520" 
d="M585 116l-0.00195312 -116h-563v116l141 29c14 2.66699 25.5 7.16699 34.5 13.5s17.833 15.833 26.5 28.5l400 571l-398 610c-7.33301 11.333 -15.666 20.5 -24.999 27.5s-20.666 12.5 -33.999 16.5l-114 31v119h654v-119l-182 -36l287 -463l303 463l-178 36v119h522
v-119l-127 -31c-13.333 -3.33301 -25 -8.33301 -35 -15s-19 -15.667 -27 -27l-375 -535l429 -648c7.33301 -11.333 16 -20.333 26 -27s21.667 -11.667 35 -15l116 -29v-116h-657v116l178 34l-312 496l-324 -496z" />
    <glyph glyph-name="Y" unicode="Y" horiz-adv-x="1483" 
d="M1135 0h-768.001v116l192 36c16.667 3.33301 29.334 9.83301 38.001 19.5s13 22.834 13 39.501v392l-437 764c-6.66699 12.667 -15 22.5 -25 29.5s-21.667 12.167 -35 15.5l-126 31v119h661v-119l-175 -39l337 -620l313 622l-183 37v119h529v-119l-121 -29
c-14 -2.66699 -26 -7.5 -36 -14.5s-18.333 -16.833 -25 -29.5l-396 -768v-391c0 -16.667 4.5 -29.834 13.5 -39.501s21.833 -16.167 38.5 -19.5l192 -36v-116z" />
    <glyph glyph-name="Z" unicode="Z" horiz-adv-x="1387" 
d="M1236 0l-1114 0.00195312l-61 103l879 1333h-281c-44.667 0 -85 -1.66699 -121 -5s-64.667 -9 -86 -17c-15.333 -5.33301 -27.666 -12.833 -36.999 -22.5s-16.333 -22.5 -21 -38.5l-77 -259h-153c-2.66699 75.333 -1.5 154.166 3.5 236.499s13.167 160.166 24.5 233.499
h1034l48 -102l-864 -1325h361c45.333 0 86 1.83301 122 5.5s64.333 9.5 85 17.5c14.667 5.33301 26.834 12.833 36.501 22.5s16.834 22.5 21.501 38.5l89 275l148 -19c0.666992 -33.333 0.333984 -70.666 -0.999023 -111.999s-3.66602 -83 -6.99902 -125
s-7.5 -83.833 -12.5 -125.5s-10.5 -79.834 -16.5 -114.501z" />
    <glyph glyph-name="bracketleft" unicode="[" horiz-adv-x="808" 
d="M757 -380c-39.333 -5.33301 -81.166 -10 -125.499 -14s-88.666 -7.16699 -132.999 -9.5s-87.833 -4 -130.5 -5s-81.667 -1.16699 -117 -0.5l-37 36v2321l37 36c35.333 0.666992 74.333 0.5 117 -0.5s86.167 -2.66699 130.5 -5s88.666 -5.5 132.999 -9.5
s86.166 -8.66699 125.499 -14v-114l-253 -24c-18 -2 -31.833 -7.83301 -41.5 -17.5s-14.5 -23.5 -14.5 -41.5v-1941c0 -18 4.83301 -31.833 14.5 -41.5s23.5 -15.5 41.5 -17.5l253 -24v-114z" />
    <glyph glyph-name="backslash" unicode="\" horiz-adv-x="990" 
d="M920 -288h-217l-639 2030h218z" />
    <glyph glyph-name="bracketright" unicode="]" horiz-adv-x="808" 
d="M594 -373l-37 -36c-35.333 -0.666992 -74.333 -0.5 -117 0.5s-86.167 2.66699 -130.5 5s-88.666 5.5 -132.999 9.5s-86.166 8.66699 -125.499 14v114l253 24c18 2 31.833 7.83301 41.5 17.5s14.5 23.5 14.5 41.5v1941c0 18 -4.83301 31.833 -14.5 41.5
s-23.5 15.5 -41.5 17.5l-253 24v114c39.333 5.33301 81.166 10 125.499 14s88.666 7.16699 132.999 9.5s87.833 4 130.5 5s81.667 1.16699 117 0.5l37 -36v-2321z" />
    <glyph glyph-name="asciicircum" unicode="^" horiz-adv-x="1251" 
d="M1042 781l-430 515l-414 -515l-104 80l411 667l213 16l441 -683z" />
    <glyph glyph-name="underscore" unicode="_" horiz-adv-x="1751" 
d="M0 -250h1751v-138h-1751v138z" />
    <glyph glyph-name="grave" unicode="`" horiz-adv-x="1000" 
d="M348 1778l363 -432l-78 -89c-44 26.667 -88 56 -132 88s-85.667 64.333 -125 97s-75.5 65.5 -108.5 98.5s-60.5 63.833 -82.5 92.5z" />
    <glyph glyph-name="a" unicode="a" horiz-adv-x="1221" 
d="M514 138c42 0 83.999 7.33203 125.999 21.999s78.333 34.334 109 59.001v260l-164 -13c-75.333 -5.33301 -131.166 -23.333 -167.499 -54s-54.5 -73.667 -54.5 -129c0 -46.667 12.167 -82.5 36.5 -107.5s62.5 -37.5 114.5 -37.5zM962.999 -18.001
c-51.333 0 -94.168 11.3311 -128.501 33.998s-58.833 58 -73.5 106c-40.667 -44 -91.5 -79.167 -152.5 -105.5s-126.833 -39.5 -197.5 -39.5c-94.667 0 -172.334 24.333 -233.001 73s-91 116.667 -91 204c0 56.667 13 104.834 39 144.501s59.833 72 101.5 97
s88.834 44 141.501 57s105.667 21.5 159 25.5l221 16v128c0 96 -20 163 -60 201s-99.667 57 -179 57c-62 0 -120.667 -10.167 -176 -30.5s-106 -52.166 -152 -95.499l-62 58c28.667 79.333 84.834 141 168.501 185s182.834 66 297.501 66c142 0 247.333 -34.833 316 -104.5
s103 -174.5 103 -314.5v-542c0 -21.333 4.83301 -36.833 14.5 -46.5s23.5 -15.167 41.5 -16.5l109 -11v-108c-20 -6.66699 -50.833 -14.667 -92.5 -24s-79.834 -14 -114.501 -14z" />
    <glyph glyph-name="b" unicode="b" horiz-adv-x="1307" 
d="M593 -23c-42.667 0 -85.0029 2.66992 -127.003 8.00293s-81.333 11.833 -118 19.5s-70 16.167 -100 25.5s-54.333 18 -73 26v1495c0 16.667 -4.5 30 -13.5 40s-21.833 16.333 -38.5 19l-142 21v109c31.333 8.66699 65 16.5 101 23.5s72.333 13 109 18s73 9 109 12
s69.333 4.83301 100 5.5l38 -36v-728c40 40.667 87.333 73 142 97s116.667 36 186 36c61.333 0 118.833 -10.5 172.5 -31.5s100 -53.333 139 -97s69.833 -99.834 92.5 -168.501s34 -150.334 34 -245.001c0 -100 -13.167 -190.333 -39.5 -271
s-65.166 -148.834 -116.499 -204.501s-115.166 -98.5 -191.499 -128.5s-164.166 -45 -263.499 -45zM611.997 99.0029c100 0 176.331 37.167 228.998 111.5s80.334 192.833 83.001 355.5c2 162 -21.333 274.667 -70 338s-115.667 95 -201 95
c-40.667 0 -79.167 -6.16699 -115.5 -18.5s-69.5 -29.833 -99.5 -52.5v-786c22 -12 47.333 -22.167 76 -30.5s61.334 -12.5 98.001 -12.5z" />
    <glyph glyph-name="c" unicode="c" horiz-adv-x="1132" 
d="M100 556c0 92 12.835 175.835 38.502 251.502s62.5 140 110.5 193s107.167 94.167 177.5 123.5s149.5 44 237.5 44c66 0 132.167 -7.33301 198.5 -22s120.5 -33 162.5 -55c4 -57.333 3.83301 -117.166 -0.5 -179.499s-11.5 -120.833 -21.5 -175.5h-131l-47 178
c-5.33301 20.667 -11 37.167 -17 49.5s-14.667 23.5 -26 33.5c-14.667 12.667 -33.834 23 -57.501 31s-49.834 12 -78.501 12c-79.333 0 -142.333 -35.333 -189 -106s-70 -181 -70 -331c0 -151.333 26 -264.833 78 -340.5s128.667 -113.5 230 -113.5
c61.333 0 115.666 11.667 162.999 35s85.333 49.666 114 78.999l66 -57c-29.333 -68.667 -80.833 -124.334 -154.5 -167.001s-163.167 -64 -268.5 -64c-86 0 -161.5 14.833 -226.5 44.5s-118.667 70.167 -161 121.5s-74.166 112.666 -95.499 183.999s-32 148.333 -32 231z
" />
    <glyph glyph-name="d" unicode="d" horiz-adv-x="1366" 
d="M648 139c42 0 82.3301 6.66699 120.997 20s73.334 31.333 104.001 54v784c-21.333 12 -48.333 22 -81 30s-66.667 12 -102 12c-43.333 0 -83.666 -7.5 -120.999 -22.5s-69.666 -40.333 -96.999 -76s-48.833 -83.5 -64.5 -143.5s-23.5 -134.333 -23.5 -223
c-0.666992 -164 24.5 -277.5 75.5 -340.5s113.833 -94.5 188.5 -94.5zM1092 -18c-55.333 0 -99.333 12.833 -132 38.5s-56.667 60.167 -72 103.5c-38 -42 -85 -77 -141 -105s-120.333 -42 -193 -42c-62.667 0 -121.5 10.833 -176.5 32.5s-102.667 55 -143 100
s-72.333 103.167 -96 174.5s-35.5 156 -35.5 254c0 104.667 13.833 196.667 41.5 276s66.834 145 117.501 197s112.334 91.167 185.001 117.5s153.667 39.5 243 39.5c32.667 0 64.834 -2 96.501 -6s60.5 -9 86.5 -15v404c0 16.667 -4.33301 30 -13 40
s-21.334 16.333 -38.001 19l-145 21v108c30.667 8.66699 64.167 16.667 100.5 24s73 13.5 110 18.5s73.667 9 110 12s70.166 4.83301 101.499 5.5l37 -37v-1560c0 -22.667 5.16699 -38.5 15.5 -47.5s23.833 -14.167 40.5 -15.5l109 -11v-108
c-22.667 -8 -54.334 -16.333 -95.001 -25s-78.667 -13 -114 -13z" />
    <glyph glyph-name="e" unicode="e" horiz-adv-x="1181" 
d="M618 1043c-62.667 0 -114.5 -23.001 -155.5 -69.001s-67.5 -122.333 -79.5 -229h441c0.666992 7.33301 1.16699 14.833 1.5 22.5s0.5 15.834 0.5 24.501c0 73.333 -17.833 133.5 -53.5 180.5s-87.167 70.5 -154.5 70.5zM1072 248.999
c-26.667 -83.333 -80.001 -149.834 -160.001 -199.501s-178 -74.5 -294 -74.5c-87.333 0 -163.5 14.333 -228.5 43s-118.667 68.5 -161 119.5s-74 112.333 -95 184s-31.5 150.5 -31.5 236.5c0 193.333 49 343.333 147 450s230.667 160 398 160
c135.333 0 241 -34.667 317 -104s114 -165.333 114 -288c0 -20.667 -1.16699 -44.667 -3.5 -72s-5.83301 -52 -10.5 -74h-688v-9v-10c0 -169.333 28.167 -288.666 84.5 -357.999s133.833 -104 232.5 -104c62 0 120.333 12.833 175 38.5s98.334 61.5 131.001 107.5z" />
    <glyph glyph-name="f" unicode="f" horiz-adv-x="905" 
d="M268 1227c0 74.667 14.501 146.498 43.501 215.498s66.667 129.667 113 182s99 94.333 158 126s118.5 47.5 178.5 47.5c47.333 0 94.166 -8.83301 140.499 -26.5s89.833 -39.167 130.5 -64.5l-48 -158c-38.667 8 -79 14.167 -121 18.5s-77 6.5 -105 6.5
c-78.667 -0.666992 -137 -18 -175 -52s-57 -99.667 -57 -197v-189h332v-157h-331v-785c0 -17.333 4.5 -30.833 13.5 -40.5s22.167 -15.5 39.5 -17.5l210 -21v-115h-696v115l117 20c16.667 2.66699 29.667 8.83398 39 18.501s14 22.834 14 39.501v780l-188 26v109l192 29v90z
" />
    <glyph glyph-name="g" unicode="g" horiz-adv-x="1298" 
d="M389 777c0 -94.667 17.5 -165.667 52.5 -213s90.167 -71 165.5 -71c69.333 0 120.666 22.333 153.999 67s50 114.667 50 210c0 98 -17.167 169 -51.5 213s-88.166 66 -161.499 66c-61.333 0 -111.5 -19.333 -150.5 -58s-58.5 -110 -58.5 -214zM1218 -112
c0 -66.667 -15.666 -127.331 -46.999 -181.998s-75.333 -101 -132 -139s-124.834 -67.333 -204.501 -88s-167.167 -31 -262.5 -31c-166 0 -289 29.333 -369 88s-120 134.334 -120 227.001c0 67.333 18.833 122.5 56.5 165.5s86.834 77.5 147.501 103.5
c-36 17.333 -63 40.666 -81 69.999s-27 63.666 -27 102.999c0 53.333 14.167 97 42.5 131s63.5 61.333 105.5 82c-68 30.667 -119.333 75 -154 133s-52 126.333 -52 205c0 68 12.333 127.833 37 179.5s58.834 94.667 102.501 129s96.167 60.166 157.5 77.499
s128.333 26 201 26c71.333 0 135.5 -8.66699 192.5 -26s105.167 -42.333 144.5 -75c29.333 32 60.166 57.167 92.499 75.5s65.166 27.5 98.499 27.5c17.333 0 35.833 -2 55.5 -6s37.5 -8 53.5 -12v-190h-219c12 -24.667 21.167 -51.834 27.5 -81.501s9.5 -61.5 9.5 -95.5
c0 -124 -42.5 -224 -127.5 -300s-206.5 -114 -364.5 -114c-28.667 0 -56.167 1.33301 -82.5 4s-51.166 6.33398 -74.499 11.001c-14.667 -13.333 -26 -28.333 -34 -45s-12 -35 -12 -55c0 -39.333 17.167 -66.833 51.5 -82.5s91.166 -23.5 170.499 -23.5h231
c126.667 0 222.667 -25 288 -75s98 -122.333 98 -217zM618.001 -418.997c100.667 0 182 21.3311 244 63.998s93 106.667 93 192c0 50.667 -14.167 89 -42.5 115s-81.833 39 -160.5 39h-240c-20 0 -39 0.5 -57 1.5s-35 2.83301 -51 5.5
c-19.333 -23.333 -35.333 -50.666 -48 -81.999s-19 -67.666 -19 -108.999c0 -64.667 20.333 -118.5 61 -161.5s114 -64.5 220 -64.5z" />
    <glyph glyph-name="h" unicode="h" horiz-adv-x="1441" 
d="M642 115l-0.00195312 -115.001h-579v116l118 19c16.667 2.66699 29.5 9 38.5 19s13.5 23.333 13.5 40v1362c0 16.667 -4.33301 30 -13 40s-21.334 16.333 -38.001 19l-142 22v107c30.667 8.66699 64 16.5 100 23.5s72.5 12.667 109.5 17s73.5 7.66602 109.5 9.99902
s69.333 3.83301 100 4.5l37 -38v-743c52 52 110.5 89.167 175.5 111.5s132.833 33.5 203.5 33.5c132.667 0 223.334 -38 272.001 -114s73 -183 73 -321v-533c0 -16.667 4.33301 -30.167 13 -40.5s21.334 -16.833 38.001 -19.5l119 -19v-116h-579v115l95 20
c15.333 4 27.666 10.5 36.999 19.5s14 22.5 14 40.5v493c0 104.667 -14.667 181.667 -44 231s-82.666 74 -159.999 74c-44 0 -88.333 -6.66699 -133 -20s-86 -33.666 -124 -60.999v-717c0 -17.333 4.33301 -30.666 13 -39.999s21.334 -16 38.001 -20z" />
    <glyph glyph-name="i" unicode="i" horiz-adv-x="758" 
d="M525 1127v-931.004c0 -17.333 4.5 -31.166 13.5 -41.499s21.833 -16.833 38.5 -19.5l118 -19v-116h-603v116l118 19c16.667 2.66699 29.5 9.16699 38.5 19.5s13.5 23.833 13.5 40.5v717c0 16.667 -4.16699 30.334 -12.5 41.001s-20.5 17.334 -36.5 20.001l-134 21v115
c62 18 130.167 31.333 204.5 40s142.5 13.334 204.5 14.001zM536 1475c0 -47.333 -15 -85.333 -45 -114s-69.333 -43 -118 -43c-50 0 -90 14.333 -120 43s-45 66.667 -45 114c0 46 15 83.333 45 112s70 43 120 43c48.667 0 88 -14.333 118 -43s45 -66 45 -112z" />
    <glyph glyph-name="j" unicode="j" horiz-adv-x="689" 
d="M465 1163l37.001 -36.0039v-1014c0 -67.333 -3.16699 -126 -9.5 -176s-16 -93.667 -29 -131s-29.833 -70 -50.5 -98s-45.334 -54 -74.001 -78c-46 -38 -99.167 -70.167 -159.5 -96.5s-121.833 -49.166 -184.5 -68.499l-54 115c58.667 35.333 107.5 69.833 146.5 103.5
s69.667 70.5 92 110.5s38 85.333 47 136s13.5 110 13.5 178v804c0 16.667 -4.16699 30.334 -12.5 41.001s-20.5 17.334 -36.5 20.001l-135 21v115c62 18 130.167 31.333 204.5 40s142.5 13.334 204.5 14.001zM494.001 1475c0 -47.333 -15 -85.333 -45 -114
s-69.333 -43 -118 -43c-50 0 -90 14.333 -120 43s-45 66.667 -45 114c0 46 15 83.333 45 112s70 43 120 43c48.667 0 88 -14.333 118 -43s45 -66 45 -112z" />
    <glyph glyph-name="k" unicode="k" horiz-adv-x="1371" 
d="M663 116l-0.00585938 -116.002h-600v116l119 19c16.667 2.66699 29.334 9.33398 38.001 20.001s13 24.334 13 41.001v1355c0 16.667 -4.33301 30 -13 40s-21.334 16.333 -38.001 19l-142 21v108c62.667 17.333 132.5 31.5 209.5 42.5s146.833 16.833 209.5 17.5l37 -36
v-1226l423 458l-194 32v110h562v-110l-119 -27c-22 -4.66699 -39.5 -9.83398 -52.5 -15.501s-26.167 -15.167 -39.5 -28.5l-233 -238c20.667 -26 39.834 -53.167 57.501 -81.5s36.834 -60.833 57.501 -97.5l191 -336c10.667 -18.667 21.667 -32.167 33 -40.5
s25 -14.5 41 -18.5l120 -28v-116h-341c-29.333 0 -55.166 17.333 -77.499 52s-46.166 77.334 -71.499 128.001l-105 210l-41 78.5c-13.333 25 -26.666 48.5 -39.999 70.5l-171 -174v-170c0 -16.667 4.33301 -30.167 13 -40.5s21.334 -16.833 38.001 -19.5z" />
    <glyph glyph-name="l" unicode="l" horiz-adv-x="741" 
d="M502 1762l0.00195312 -1567c0 -17.333 4.5 -31 13.5 -41s21.833 -16.333 38.5 -19l137 -21v-114h-641v116l137 19c16.667 2.66699 29.5 9 38.5 19s13.5 23.333 13.5 40v1357c0 16.667 -4.33301 30 -13 40s-21.334 16.333 -38.001 19l-145 21v108
c30.667 8.66699 64.167 16.667 100.5 24s73 13.5 110 18.5s73.667 9 110 12s70.166 4.83301 101.499 5.5z" />
    <glyph glyph-name="m" unicode="m" horiz-adv-x="2144" 
d="M669 115l-0.000976562 -115.004h-577v115l119 20c16.667 2.66699 29.334 9.16699 38.001 19.5s13 23.833 13 40.5v716c0 16.667 -4.16699 30.334 -12.5 41.001s-20.5 17.334 -36.5 20.001l-134 22v115c60 16.667 123.333 29.834 190 39.501s129 14.834 187 15.501l41 -39
l16 -114c48.667 54.667 105.167 93.667 169.5 117s130.833 35 199.5 35c79.333 0 142.833 -13.667 190.5 -41s83.5 -67 107.5 -119c55.333 59.333 117 100.833 185 124.5s136.667 35.5 206 35.5c68 0 124.667 -9.66699 170 -29s81.333 -47.666 108 -84.999
s45.5 -83.833 56.5 -139.5s16.5 -119.5 16.5 -191.5v-523c0 -16.667 4.5 -30.167 13.5 -40.5s21.833 -16.833 38.5 -19.5l119 -20v-115h-577v115l92 20c16 4 28.5 10.5 37.5 19.5s13.5 22.5 13.5 40.5v489c0 107.333 -15.167 185.666 -45.5 234.999s-85.5 74 -165.5 74
c-38 0 -77.833 -6 -119.5 -18s-82.167 -31.667 -121.5 -59c6 -27.333 10.333 -56.666 13 -87.999s4 -64.666 4 -99.999v-533c0 -16.667 4.16699 -29.667 12.5 -39s20.833 -16.333 37.5 -21l94 -20v-115h-551v115l93 20c15.333 4 27.666 10.5 36.999 19.5s14 22.5 14 40.5
v493c0 104.667 -13.167 181.667 -39.5 231s-78.166 74 -155.499 74c-38 0 -78.667 -6.33301 -122 -19s-83 -31.334 -119 -56.001v-723c0 -16.667 4.16699 -29.834 12.5 -39.501s20.5 -16.5 36.5 -20.5z" />
    <glyph glyph-name="n" unicode="n" horiz-adv-x="1469" 
d="M671 115l-0.00292969 -115.003h-579v115l119 20c16.667 2.66699 29.334 9.16699 38.001 19.5s13 23.833 13 40.5v717c0 16.667 -4.16699 30.334 -12.5 41.001s-20.5 17.334 -36.5 20.001l-134 21v115c60 16.667 123.333 29.834 190 39.501s129 14.834 187 15.501l41 -39
l16 -118c53.333 56 113.333 96 180 120s136.667 36 210 36c132.667 0 223.334 -38 272.001 -114s73 -183 73 -321v-533c0 -16.667 4.33301 -30.167 13 -40.5s21.334 -16.833 38.001 -19.5l119 -19v-116h-579v115l95 20c15.333 4 27.666 10.5 36.999 19.5s14 22.5 14 40.5
v493c0 104.667 -14.667 181.667 -44 231s-82.666 74 -159.999 74c-44 0 -88.167 -6.66699 -132.5 -20s-85.5 -33.333 -123.5 -60v-718c0 -16.667 4.33301 -29.834 13 -39.501s21 -16.5 37 -20.5z" />
    <glyph glyph-name="o" unicode="o" horiz-adv-x="1297" 
d="M102 563c0 107.333 14.668 199.333 44.001 276s69.333 139.334 120 188.001s110.5 84.334 179.5 107.001s142.5 34 220.5 34c176.667 0 308.834 -52 396.501 -156s131.5 -248 131.5 -432c0 -107.333 -14.667 -199.333 -44 -276s-69.333 -139.334 -120 -188.001
s-110.334 -84.334 -179.001 -107.001s-142.334 -34 -221.001 -34c-176 0 -308 52 -396 156s-132 248 -132 432zM907.001 558c0 156 -18.833 275.665 -56.5 358.998s-107.167 125 -208.5 125c-85.333 0 -148.666 -35.167 -189.999 -105.5s-62 -187.166 -62 -350.499
c0 -155.333 18.667 -274.833 56 -358.5s107 -125.5 209 -125.5c85.333 0 148.666 35.333 189.999 106s62 187.334 62 350.001z" />
    <glyph glyph-name="p" unicode="p" horiz-adv-x="1370" 
d="M677 99c93.333 0 168.167 34.8311 224.5 104.498s85.5 191.834 87.5 366.501c1.33301 146 -20 254 -64 324s-112.333 105 -205 105c-46 0 -87.667 -7.16699 -125 -21.5s-68.333 -31.166 -93 -50.499v-788c22.667 -13.333 49 -23.333 79 -30s62 -10 96 -10z
M717.001 -381.002l-0.00195312 -115.001h-648v115l119 20c16.667 2.66699 29.334 9 38.001 19s13 23.333 13 40v1213c0 16.667 -4 30.334 -12 41.001s-19.667 17.334 -35 20.001l-136 22v115c58.667 16 121.5 29 188.5 39s129.833 15.333 188.5 16l41 -39l17 -109
c38 44 84.667 80.333 140 109s122 43 200 43c62 0 119.833 -10.667 173.5 -32s99.834 -54 138.501 -98s69.167 -100.5 91.5 -169.5s33.5 -150.5 33.5 -244.5c0 -102 -13.667 -193.333 -41 -274s-66.5 -148.5 -117.5 -203.5s-113.333 -97 -187 -126
s-156.5 -43.5 -248.5 -43.5c-26 0 -54 1.66699 -84 5s-59.333 8.66602 -88 15.999v-300c0 -17.333 4.66699 -31 14 -41s22.333 -16 39 -18z" />
    <glyph glyph-name="q" unicode="q" horiz-adv-x="1321" 
d="M1276 -496h-627.998v115l170 20c16.667 2 29.667 8 39 18s14 23.333 14 40v413c-36 -38.667 -80.5 -70.5 -133.5 -95.5s-113.167 -37.5 -180.5 -37.5c-64 0 -123.833 10.833 -179.5 32.5s-103.834 55 -144.501 100s-72.667 103.167 -96 174.5s-35 156.333 -35 255
c0 100 13.833 189.333 41.5 268s66.5 144.5 116.5 197.5s110.5 93.5 181.5 121.5s149.833 42 236.5 42c51.333 0 102.166 -6 152.499 -18s95.5 -27.333 135.5 -46l122 56l46 -37v-1425c0 -17.333 4.5 -30.833 13.5 -40.5s21.5 -16.167 37.5 -19.5l91 -19v-115zM648.002 139
c42 0 81.999 7 119.999 21s72.333 32.333 103 55v769c-22.667 18.667 -49.667 32.667 -81 42s-64.666 14 -99.999 14c-88 0 -161.167 -34.333 -219.5 -103s-87.5 -187 -87.5 -355c0 -84 6.66699 -154.5 20 -211.5s31.833 -102.5 55.5 -136.5s51.667 -58.333 84 -73
s67.5 -22 105.5 -22z" />
    <glyph glyph-name="r" unicode="r" horiz-adv-x="1090" 
d="M770 113l0.00195312 -113.003h-678v116l118 19c16.667 2.66699 29.5 9.16699 38.5 19.5s13.5 23.833 13.5 40.5v713c0 18.667 -3.83301 33.5 -11.5 44.5s-20.5 17.833 -38.5 20.5l-133 21v115c56 16.667 116.833 29.834 182.5 39.501s126.5 14.834 182.5 15.501l42 -36
l27 -189c44 64 98.667 118.167 164 162.5s132.666 66.5 201.999 66.5c20.667 0 45.5 -2.66699 74.5 -8s51.833 -12.333 68.5 -21c6 -56 6.66699 -121 2 -195s-14 -143 -28 -207h-122l-31 143c-6 22.667 -14.5 38.167 -25.5 46.5s-26.833 12.5 -47.5 12.5
c-38 0 -78.667 -8.16699 -122 -24.5s-84.333 -42.5 -123 -78.5v-641c0 -17.333 4.66699 -31.166 14 -41.499s22.666 -16.5 39.999 -18.5z" />
    <glyph glyph-name="s" unicode="s" horiz-adv-x="1086" 
d="M124 59c-6.66699 54 -9.33398 108.165 -8.00098 162.498s5.33301 104.833 12 151.5h137l39 -150c6 -22 12.333 -38.667 19 -50s16.667 -21.666 30 -30.999c16.667 -10.667 41.5 -22 74.5 -34s70.833 -18 113.5 -18c64 0 112.5 15 145.5 45s49.5 68.333 49.5 115
c0 30.667 -7.16699 56.667 -21.5 78s-34.833 40.833 -61.5 58.5s-59.167 34.834 -97.5 51.501l-128.5 56c-87.333 38 -158.833 81.167 -214.5 129.5s-83.5 117.5 -83.5 207.5c0 106 39.333 188.5 118 247.5s186.667 88.5 324 88.5c60.667 0 124 -6.16699 190 -18.5
s121.333 -27.833 166 -46.5c2.66699 -48.667 2.5 -98.834 -0.5 -150.501s-8.83301 -101.5 -17.5 -149.5l-128 1l-37 137c-4.66699 18.667 -10.834 33.834 -18.501 45.501s-19.5 22.5 -35.5 32.5c-15.333 9.33301 -34.166 17.166 -56.499 23.499s-47.5 9.83301 -75.5 10.5
c-52.667 0.666992 -96.667 -11.666 -132 -36.999s-53 -63 -53 -113c0 -31.333 7.33301 -57.833 22 -79.5s33.834 -40.334 57.501 -56.001s51 -29.834 82 -42.501l95.5 -39c46.667 -18.667 92 -38.667 136 -60s82.667 -46.166 116 -74.499s60 -61.666 80 -99.999
s30 -83.833 30 -136.5c0 -55.333 -11.5 -104.333 -34.5 -147s-54.833 -78.334 -95.5 -107.001s-89.5 -50.5 -146.5 -65.5s-119.167 -22.5 -186.5 -22.5c-81.333 0 -157.333 9.33301 -228 28s-129.667 38.334 -177 59.001z" />
    <glyph glyph-name="t" unicode="t" horiz-adv-x="928" 
d="M225 301l-0.000976562 675.999l-167 24v107l126 21c18 2.66699 31.667 8.5 41 17.5s16.333 21.833 21 38.5l85 302h149l7 -350h353v-153h-351v-609c0 -83.333 13.5 -139.5 40.5 -168.5s64.833 -43.5 113.5 -43.5c37.333 0 73 6.66699 107 20s64 33.333 90 60l65 -64
c-31.333 -66 -79.666 -115.667 -144.999 -149s-138.666 -50 -219.999 -50c-44.667 0 -86.334 5 -125.001 15s-72 27 -100 51s-50 56.833 -66 98.5s-24 93.834 -24 156.501z" />
    <glyph glyph-name="u" unicode="u" horiz-adv-x="1412" 
d="M1139 -18c-54.667 0 -98.4951 12.665 -131.495 37.998s-56.833 60 -71.5 104c-43.333 -44.667 -93.333 -80.334 -150 -107.001s-125 -40 -205 -40c-122.667 0 -212.834 33.667 -270.501 101s-86.5 170 -86.5 308v528c0 16.667 -4.16699 30.334 -12.5 41.001
s-20.833 17.334 -37.5 20.001l-118 24v115c60 16 125.667 28 197 36s137 12.333 197 13l37 -36v-700c0 -102.667 14.5 -176.334 43.5 -221.001s80.833 -67 155.5 -67c42 0 82.667 6.5 122 19.5s76.666 32.833 111.999 59.5v697c0 16.667 -4.16699 30.334 -12.5 41.001
s-20.5 17.334 -36.5 20.001l-138 25v115c30.667 7.33301 63.667 14 99 20s71.166 11 107.499 15s72.166 7 107.499 9s68.333 3 99 3l37 -36v-925c0 -22.667 5.16699 -38.5 15.5 -47.5s23.833 -14.167 40.5 -15.5l109 -11v-108c-22.667 -8 -54.334 -16.333 -95.001 -25
s-78.667 -13 -114 -13z" />
    <glyph glyph-name="v" unicode="v" horiz-adv-x="1261" 
d="M525 -17l-380 968.001c-5.33301 13.333 -12.5 24.166 -21.5 32.499s-20.5 14.5 -34.5 18.5l-75 23v112h577v-114l-164 -30l271 -771l260 771l-161 30v114h439v-112l-75 -22c-14 -4 -25.833 -9.83301 -35.5 -17.5s-17.167 -18.5 -22.5 -32.5l-348 -970h-230z" />
    <glyph glyph-name="w" unicode="w" horiz-adv-x="1838" 
d="M458 -17l-313 969.998c-4.66699 14.667 -11.5 25.834 -20.5 33.501s-20.833 13.834 -35.5 18.501l-67 20v112h527v-114l-149 -30l213 -747l243 891h230l246 -891l207 747l-153 30v114h426v-112l-70 -20c-14.667 -4 -26.667 -10.167 -36 -18.5s-16.333 -19.833 -21 -34.5
l-295 -969h-215l-258 857l-239 -857h-220z" />
    <glyph glyph-name="x" unicode="x" horiz-adv-x="1296" 
d="M533 114l0.000976562 -113.999h-488v114l100 16c13.333 2 25.166 6 35.499 12s19.833 14.333 28.5 25l304 389l-307 414c-8 10.667 -16.833 19.167 -26.5 25.5s-21.167 10.833 -34.5 13.5l-81 18v110h564v-111l-136 -27l205 -299l223 299l-136 27v111h444v-111l-89 -17
c-12.667 -2.66699 -24.167 -7 -34.5 -13s-19.833 -14.333 -28.5 -25l-293 -371l325 -434c8.66699 -11.333 18 -19.833 28 -25.5s22 -9.83398 36 -12.501l81 -14v-114h-566v114l130 24l-214 314l-229 -314z" />
    <glyph glyph-name="y" unicode="y" horiz-adv-x="1269" 
d="M294 -517c-40 0 -81.333 2.00293 -124 6.00293s-83.667 9.33301 -123 16v140c78 8.66699 147.5 19.5 208.5 32.5s115 32.167 162 57.5s88.833 59.166 125.5 101.499s70 96.833 100 163.5h-119l-360 948c-5.33301 14.667 -13 26.167 -23 34.5s-22.333 14.5 -37 18.5
l-81 24v112h583v-114l-164 -31l276 -779l248 780l-156 30v114h442v-112l-81 -24c-16 -4.66699 -28.5 -10.834 -37.5 -18.501s-16.5 -19.834 -22.5 -36.501l-337 -981c-56.667 -164 -121.667 -285.333 -195 -364s-168.333 -118 -285 -118z" />
    <glyph glyph-name="z" unicode="z" horiz-adv-x="1173" 
d="M1045 0l-921.999 -0.000976562l-47 103l674 916h-192c-29.333 0 -58.833 -0.833008 -88.5 -2.5s-55.834 -4.5 -78.501 -8.5c-19.333 -3.33301 -33.833 -9 -43.5 -17s-16.834 -21.667 -21.501 -41l-45 -190h-130c-6.66699 63.333 -10.667 128 -12 194s1 127 7 183h878
l45 -102l-665 -912h196c36 0 71 0.833008 105 2.5s65.667 4.83398 95 9.50098c17.333 2.66699 31.833 7.66699 43.5 15s19.834 19.333 24.501 36l63 206l126 -15c4.66699 -60.667 6 -123.667 4 -189s-7.33301 -128 -16 -188z" />
    <glyph glyph-name="braceleft" unicode="{" horiz-adv-x="895" 
d="M858 -289l-16 -122.006c-30.667 0 -65 0.833008 -103 2.5s-76.333 4.16699 -115 7.5c-126 9.33301 -218.5 44 -277.5 104s-88.5 143 -88.5 249c0 97.333 5.66699 188.333 17 273s17 163.334 17 236.001c0 30.667 -2.5 59.334 -7.5 86.001s-16.333 50.167 -34 70.5
s-44 37.5 -79 51.5s-82.5 23.333 -142.5 28v182c60 4.66699 107.5 14 142.5 28s61.333 31.167 79 51.5s29 43.833 34 70.5s7.5 55.334 7.5 86.001c0 72 -5.66699 150.333 -17 235s-17 175.667 -17 273c0 106 29.5 189 88.5 249s151.5 95 277.5 105
c38.667 2.66699 77 5 115 7s72.333 3 103 3l16 -123l-134 -28c-76 -15.333 -131.667 -42.166 -167 -80.499s-53 -98.166 -53 -179.499c0 -72.667 3.5 -153.334 10.5 -242.001s10.5 -171.334 10.5 -248.001c0 -86 -25.833 -151.667 -77.5 -197
s-123.834 -77.666 -216.501 -96.999c92.667 -18.667 164.834 -52.167 216.501 -100.5s77.5 -115.833 77.5 -202.5c0 -76 -3.5 -158.333 -10.5 -247s-10.5 -169.667 -10.5 -243c0 -81.333 17.667 -141.166 53 -179.499s91 -65.166 167 -80.499z" />
    <glyph glyph-name="bar" unicode="|" horiz-adv-x="639" 
d="M216 -309v2206h208l-1 -2206h-207z" />
    <glyph glyph-name="braceright" unicode="}" horiz-adv-x="895" 
d="M272 -403c-38.667 -2.66699 -77 -4.66504 -115 -5.99805s-72.333 -2 -103 -2l-16 122l134 26c76 15.333 131.667 42.333 167 81s53 98.667 53 180c0 73.333 -4 154.5 -12 243.5s-12 171.5 -12 247.5c0 86.667 26 153.334 78 200.001s124 79.667 216 99
c-92 18.667 -164 51.5 -216 98.5s-78 113.5 -78 199.5c0 76.667 4 159.5 12 248.5s12 169.833 12 242.5c0 81.333 -17.667 141.333 -53 180s-91 65.667 -167 81l-134 26l16 123c30.667 0 65 -0.833008 103 -2.5s76.333 -3.83398 115 -6.50098c126 -10 218.5 -45 277.5 -105
s88.5 -143 88.5 -249c0 -97.333 -6.16699 -188.5 -18.5 -273.5s-18.5 -163.5 -18.5 -235.5c0 -30.667 2.5 -59.334 7.5 -86.001s16.333 -50.167 34 -70.5s44.334 -37.5 80.001 -51.5s83.834 -23.333 144.501 -28v-182c-60.667 -4.66699 -108.834 -14 -144.501 -28
s-62.334 -31.167 -80.001 -51.5s-29 -43.833 -34 -70.5s-7.5 -55.334 -7.5 -86.001c0 -72.667 6.16699 -151.5 18.5 -236.5s18.5 -176.167 18.5 -273.5c0 -106 -29.5 -189 -88.5 -249s-151.5 -95 -277.5 -105z" />
    <glyph glyph-name="asciitilde" unicode="~" horiz-adv-x="1310" 
d="M1162 699c-32.667 -72.667 -77.835 -132.5 -135.502 -179.5s-120.167 -70.5 -187.5 -70.5c-39.333 0 -77.333 7.16699 -114 21.5s-72 29.833 -106 46.5s-67.167 32.167 -99.5 46.5s-63.833 21.5 -94.5 21.5c-38.667 0 -75.667 -12 -111 -36s-66.333 -52.667 -93 -86
l-81 65c32.667 73.333 77.834 133.333 135.501 180s120.5 70 188.5 70c38.667 0 76.334 -7.16699 113.001 -21.5s72 -29.833 106 -46.5s67.167 -32.167 99.5 -46.5s63.833 -21.5 94.5 -21.5c38.667 0 75.667 12 111 36s66.333 52.667 93 86z" />
    <glyph glyph-name="uni00A0" unicode="&#xa0;" horiz-adv-x="568" 
 />
    <glyph glyph-name="exclamdown" unicode="&#xa1;" horiz-adv-x="643" 
d="M481 1020c0 -44.667 -14.667 -80.667 -44 -108s-67.666 -41 -114.999 -41c-48 0 -86.667 13.667 -116 41s-44 63.333 -44 108c0 44 14.667 79.833 44 107.5s68 41.5 116 41.5c47.333 0 85.666 -13.833 114.999 -41.5s44 -63.5 44 -107.5zM469 -563h-294v181l68 1054h157
l69 -1054v-181z" />
    <glyph glyph-name="cent" unicode="&#xa2;" horiz-adv-x="1182" 
d="M1067 242c-30 -64 -79.668 -116.167 -149.001 -156.5s-147.333 -64.833 -234 -73.5v-222h-163v227c-67.333 10.667 -127.166 32.667 -179.499 66s-95.833 75 -130.5 125s-61 107.667 -79 173s-27 135.333 -27 210c0 173.333 45.5 314 136.5 422s215.5 169.667 373.5 185
v213h163v-213c56 -6 109.333 -16.333 160 -31s92.334 -30.334 125.001 -47.001c3.33301 -57.333 3 -116.5 -1 -177.5s-11 -118.833 -21 -173.5h-136l-43 178c-4.66699 20 -10 36.5 -16 49.5s-15 24.5 -27 34.5c-14.667 12.667 -35 23 -61 31s-54.333 12 -85 12
c-85.333 0 -153.5 -37.667 -204.5 -113s-76.5 -183.666 -76.5 -324.999c0 -146.667 27.167 -259.167 81.5 -337.5s131.5 -117.5 231.5 -117.5c65.333 0 122.666 12.667 171.999 38s89 55 119 89z" />
    <glyph glyph-name="sterling" unicode="&#xa3;" horiz-adv-x="1353" 
d="M1253 257c0 -50.667 -7.49902 -94.1621 -22.499 -130.495s-35.167 -66 -60.5 -89s-55.5 -40 -90.5 -51s-72.167 -16.5 -111.5 -16.5c-52.667 0 -102.5 8 -149.5 24s-92.5 33.5 -136.5 52.5s-88.333 36.5 -133 52.5s-90.667 24 -138 24
c-38 -34 -79.167 -62.833 -123.5 -86.5s-86.166 -40.834 -125.499 -51.501l-74 139c27.333 18 54.833 38 82.5 60s52.5 48.5 74.5 79.5s39.833 68.167 53.5 111.5s20.5 95.333 20.5 156v100h-200v130h200v97c0 84 11.5 160 34.5 228s55.5 125.5 97.5 172.5
s93.333 83.333 154 109s128.334 38.5 203.001 38.5c58 0 114 -7 168 -21s104.333 -31.333 151 -52c3.33301 -57.333 3 -116 -1 -176s-10.333 -120 -19 -180h-148l-41 196c-2.66699 13.333 -6.83398 26.333 -12.501 39s-15.834 24.334 -30.501 35.001
c-16.667 10.667 -35.334 18.667 -56.001 24s-42 8 -64 8c-18.667 0 -37.834 -4.33301 -57.501 -13s-37.5 -24.834 -53.5 -48.501s-29.167 -56.334 -39.5 -98.001s-15.5 -94.834 -15.5 -159.501v-199h328v-130h-328v-61c0 -86 -9.5 -158.167 -28.5 -216.5
s-40.167 -102.5 -63.5 -132.5c34 0 67.333 -2.83301 100 -8.5s64.334 -11.834 95.001 -18.501s60.5 -12.834 89.5 -18.501s56.5 -8.5 82.5 -8.5c50.667 0 89.167 12 115.5 36s44.833 55.333 55.5 94c6.66699 22.667 12.5 50 17.5 82s8.83301 62 11.5 90h161
c6 -26.667 12.167 -59.167 18.5 -97.5s9.5 -76.5 9.5 -114.5z" />
    <glyph glyph-name="currency" unicode="&#xa4;" horiz-adv-x="1409" 
d="M703 509c82.667 0 144.499 25.6689 185.499 77.002s61.5 112.666 61.5 183.999c0 38 -6.83301 73.333 -20.5 106s-32 61 -55 85s-50 42.833 -81 56.5s-63.167 20.5 -96.5 20.5c-39.333 0 -74 -7.5 -104 -22.5s-55.167 -35 -75.5 -60s-35.666 -53.833 -45.999 -86.5
s-15.5 -66.334 -15.5 -101.001c0 -72 24.333 -133.167 73 -183.5s106.667 -75.5 174 -75.5zM700.999 322.002c-44 0 -86.335 5.83105 -127.002 17.498s-78 28.167 -112 49.5l-222 -222l-118 119l218 217c-25.333 36 -45.166 76 -59.499 120s-21.5 90.667 -21.5 140
c0 50.667 7.5 99.5 22.5 146.5s36.167 89.5 63.5 127.5l-223 221l116 119l224 -224c34 22.667 71.333 40.334 112 53.001s83 19 127 19c45.333 0 88.833 -6 130.5 -18s79.834 -28.667 114.501 -50l224 222l118 -118l-219 -218c26 -35.333 46.333 -75.166 61 -119.499
s22 -90.833 22 -139.5c0 -50.667 -7.83301 -99.5 -23.5 -146.5s-37.5 -89.5 -65.5 -127.5l221 -220l-118 -119l-223 224c-34 -22.667 -71.667 -40.5 -113 -53.5s-84.333 -19.5 -129 -19.5z" />
    <glyph glyph-name="yen" unicode="&#xa5;" horiz-adv-x="1507" 
d="M1129 107v-106.999h-721v107l184 34c16 2.66699 28.167 8.5 36.5 17.5s12.5 21.5 12.5 37.5v127h-384v121h384v152h-384v121h334l-332 486c-7.33301 10.667 -15.5 19.167 -24.5 25.5s-19.833 11.166 -32.5 14.499l-118 28v106h623v-106l-166 -35l282 -452l267 460
l-174 33v106h501v-106l-114 -25c-13.333 -3.33301 -24.333 -8 -33 -14s-17 -15.333 -25 -28l-303 -493h338v-121h-384v-152h384v-121h-384v-127c0 -16 4.16699 -28.5 12.5 -37.5s20.5 -14.833 36.5 -17.5z" />
    <glyph glyph-name="brokenbar" unicode="&#xa6;" horiz-adv-x="634" 
d="M213 950v947h208v-947h-208zM213 -309v947h208v-947h-208z" />
    <glyph glyph-name="section" unicode="&#xa7;" horiz-adv-x="1276" 
d="M712 468l91 -41.5l80 -39.5c24.667 26.667 44.667 57 60 91s23 67.333 23 100c0 33.333 -8.16699 63.166 -24.5 89.499s-40.833 51.5 -73.5 75.5s-74 48.333 -124 73l-174 82l-91.5 43.5c-29 14.333 -55.833 28.833 -80.5 43.5
c-24.667 -26.667 -45.167 -57.5 -61.5 -92.5s-24.5 -69.167 -24.5 -102.5c0 -66.667 33.333 -122.167 100 -166.5s166.667 -96.166 300 -155.499zM633 -285c-106.667 0 -202.166 13.3291 -286.499 39.9961s-145.5 51 -183.5 73c-3.33301 54.667 -3.5 109.834 -0.5 165.501
s9.16699 110.834 18.5 165.501h155l34 -183c2.66699 -10.667 7 -21.834 13 -33.501s16.667 -23.5 32 -35.5c26.667 -20.667 61.5 -37.334 104.5 -50.001s88.5 -19 136.5 -19c74.667 0 132.334 15.833 173.001 47.5s61 72.167 61 121.5c0 31.333 -8.5 58.5 -25.5 81.5
s-41.833 44.833 -74.5 65.5s-73.834 41.834 -123.501 63.501l-171.5 75.5c-117.333 52 -210.5 108.5 -279.5 169.5s-103.5 140.5 -103.5 238.5c0 79.333 20.167 148.166 60.5 206.499s88.166 101.833 143.499 130.5c-45.333 34 -80.166 72 -104.499 114
s-36.5 92.333 -36.5 151c0 46 9.16699 90.167 27.5 132.5s46.666 79.5 84.999 111.5s87.833 57.667 148.5 77s133 29 217 29c46.667 0 92.334 -3 137.001 -9s86 -13.833 124 -23.5s72 -20.334 102 -32.001s53.667 -22.834 71 -33.501c4 -54.667 4.33301 -109.667 1 -165
s-9.33301 -110.333 -18 -165h-155l-35 182c-2.66699 12.667 -7.16699 24.667 -13.5 36s-16.833 22.333 -31.5 33c-21.333 15.333 -51 28 -89 38s-77.667 15 -119 15c-72.667 0 -127.334 -15.5 -164.001 -46.5s-55 -70.167 -55 -117.5c0 -32 8.33301 -60 25 -84
s41 -46.667 73 -68s71.667 -43 119 -65l162 -76c114 -52 205.667 -107.667 275 -167s104 -138.666 104 -237.999c0 -77.333 -18.833 -144.666 -56.5 -201.999s-83.5 -100.666 -137.5 -129.999c49.333 -34 86.833 -71.5 112.5 -112.5s38.5 -91.5 38.5 -151.5
c0 -47.333 -9.66699 -92.666 -29 -135.999s-49 -81.166 -89 -113.499s-91 -58.166 -153 -77.499s-135 -29 -219 -29z" />
    <glyph glyph-name="dieresis" unicode="&#xa8;" horiz-adv-x="1000" 
d="M870 1470c0 -43.333 -13.167 -78.5 -39.5 -105.5s-60.5 -40.5 -102.5 -40.5s-76.167 13.5 -102.5 40.5s-39.5 62.167 -39.5 105.5c0 42.667 13.167 77.5 39.5 104.5s60.5 40.5 102.5 40.5s76.167 -13.5 102.5 -40.5s39.5 -61.833 39.5 -104.5zM412 1470
c0 -43.333 -13 -78.5 -39 -105.5s-60 -40.5 -102 -40.5c-42.667 0 -77.167 13.5 -103.5 40.5s-39.5 62.167 -39.5 105.5c0 42.667 13.167 77.5 39.5 104.5s60.833 40.5 103.5 40.5c42 0 76 -13.5 102 -40.5s39 -61.833 39 -104.5z" />
    <glyph glyph-name="copyright" unicode="&#xa9;" horiz-adv-x="2003" 
d="M105 783c0 128.667 22.6641 248.334 67.9971 359.001s107.833 205.834 187.5 285.501s174.5 142.167 284.5 187.5s229 68 357 68c128.667 0 247.834 -22.667 357.501 -68s204.334 -107.833 284.001 -187.5s142 -174.834 187 -285.501s67.5 -230.334 67.5 -359.001
s-22.667 -248.334 -68 -359.001s-107.666 -206 -186.999 -286s-174 -142.833 -284 -188.5s-229 -68.5 -357 -68.5s-247 22.833 -357 68.5s-204.833 108.5 -284.5 188.5s-142.167 175.333 -187.5 286s-68 230.334 -68 359.001zM240.997 784
c0 -114 18.833 -219.167 56.5 -315.5s90.167 -179 157.5 -248s147.666 -123 240.999 -162s195.333 -58.5 306 -58.5s212.667 19.5 306 58.5s173.333 93 240 162s118.834 151.667 156.501 248s56.5 201.5 56.5 315.5s-18.833 219 -56.5 315s-89.834 178.5 -156.501 247.5
s-146.667 123 -240 162s-195.333 58.5 -306 58.5s-212.667 -19.5 -306 -58.5s-173.666 -93 -240.999 -162s-119.833 -151.5 -157.5 -247.5s-56.5 -201 -56.5 -315zM996.997 277c-70 0 -132.499 12.002 -187.499 36.002s-101.333 57.667 -139 101s-66.5 95.666 -86.5 156.999
s-30 129 -30 203c0 82.667 12 156.167 36 220.5s57.333 118.333 100 162s93.667 77 153 100s124.333 34.5 195 34.5c64 0 125.5 -8.33301 184.5 -25s103.5 -35.334 133.5 -56.001c4 -47.333 4.66699 -96.833 2 -148.5s-8.66699 -103.5 -18 -155.5h-123l-38 153
c-2.66699 12 -6.66699 23.167 -12 33.5s-14.666 20.833 -27.999 31.5c-14.667 10.667 -33.334 19.667 -56.001 27s-46.334 11 -71.001 11c-71.333 0 -126.666 -30 -165.999 -90s-59 -146.667 -59 -260c0 -122 23.333 -214.833 70 -278.5s114.667 -95.5 204 -95.5
c48 0 94.333 8.5 139 25.5s80.667 39.833 108 68.5l60 -57c-26.667 -56 -72.334 -103 -137.001 -141s-142.667 -57 -234 -57z" />
    <glyph glyph-name="ordfeminine" unicode="&#xaa;" horiz-adv-x="1101" 
d="M474 815c30.667 0 60.5 4.66895 89.5 14.002s54.833 21.666 77.5 36.999v191l-116 -8c-57.333 -3.33301 -98.5 -16.833 -123.5 -40.5s-37.5 -53.834 -37.5 -90.501c0 -34 8.83301 -59.667 26.5 -77s45.5 -26 83.5 -26zM827 681.002c-42 0 -77.833 8.16797 -107.5 24.501
s-51.5 42.833 -65.5 79.5c-32.667 -33.333 -72.834 -59.5 -120.501 -78.5s-99.834 -28.5 -156.501 -28.5c-77.333 0 -140.333 19 -189 57s-73 89.667 -73 155c0 41.333 10.167 77.333 30.5 108s47 56 80 76s70.833 35.5 113.5 46.5s86 17.833 130 20.5l172 10v91
c0 67.333 -15.5 114 -46.5 140s-77.167 39 -138.5 39c-49.333 0 -95.666 -7.5 -138.999 -22.5s-83 -38.167 -119 -69.5l-55 49c24 63.333 69.5 112.833 136.5 148.5s149.167 53.5 246.5 53.5c119.333 0 207 -27.5 263 -82.5s84 -136.833 84 -245.5v-393
c0 -16.667 3.83301 -28.334 11.5 -35.001s18.167 -10.667 31.5 -12l85 -9v-93c-18 -5.33301 -44.167 -11.5 -78.5 -18.5s-66.166 -10.5 -95.499 -10.5z" />
    <glyph glyph-name="guillemotleft" unicode="&#xab;" horiz-adv-x="1441" 
d="M1258 93l-572 444v148l572 455l82 -96l-369 -432l372 -423zM666 93l-572 444v148l572 455l82 -96l-369 -432l372 -423z" />
    <glyph glyph-name="logicalnot" unicode="&#xac;" horiz-adv-x="1291" 
d="M153 525v178h980v-599h-190v421h-790z" />
    <glyph glyph-name="uni00AD" unicode="&#xad;" horiz-adv-x="1091" 
d="M151 507v178h790v-178h-790z" />
    <glyph glyph-name="registered" unicode="&#xae;" horiz-adv-x="1762" 
d="M110 1092c0 110.667 19.5 213.502 58.5 308.502s92.833 176.667 161.5 245s150.334 122 245.001 161s197 58.5 307 58.5s212.333 -19.5 307 -58.5s176 -92.833 244 -161.5s121.5 -150.334 160.5 -245.001s58.5 -197.334 58.5 -308.001s-19.5 -213.667 -58.5 -309
s-92.5 -177.333 -160.5 -246s-149.333 -122.667 -244 -162s-197 -59 -307 -59s-212.333 19.667 -307 59s-176.334 93.333 -245.001 162s-122.5 150.667 -161.5 246s-58.5 198.333 -58.5 309zM233 1092c0 -97.333 16.167 -187 48.5 -269s77 -152.333 134 -211
s125.5 -104.5 205.5 -137.5s167 -49.5 261 -49.5s180.833 16.5 260.5 49.5s148 78.833 205 137.5s101.5 129 133.5 211s48 171.667 48 269c0 96.667 -16 186 -48 268s-76.5 152.333 -133.5 211s-125.333 104.5 -205 137.5s-166.5 49.5 -260.5 49.5s-181 -16.5 -261 -49.5
s-148.5 -78.833 -205.5 -137.5s-101.667 -129 -134 -211s-48.5 -171.333 -48.5 -268zM888 1108c44 0 79.6689 13.834 107.002 41.501s41 69.167 41 124.5s-13.833 94.666 -41.5 117.999s-71.834 35 -132.501 35c-14.667 0 -29 -0.666992 -43 -2
s-30.333 -3.66602 -49 -6.99902v-307c21.333 -0.666992 41.666 -1.33398 60.999 -2.00098s38.333 -1 57 -1zM873.002 749.003l-0.00390625 -75.998h-375v76l63 17c10.667 2.66699 18.5 7.5 23.5 14.5s7.5 15.833 7.5 26.5v569c0 11.333 -2.66699 20.5 -8 27.5
s-13.333 11.5 -24 13.5l-62 14v87h181c40.667 -0.666992 79.667 -0.333984 117 0.999023s71.333 2 102 2c110.667 0 192.834 -19 246.501 -57s80.5 -97.667 80.5 -179c0 -58.667 -15.333 -109.167 -46 -151.5s-78.667 -71.166 -144 -86.499
c22 -8.66699 40.167 -20.334 54.5 -35.001s26.833 -33.667 37.5 -57l66 -132c9.33301 -18.667 20.333 -31.834 33 -39.501s36 -15.834 70 -24.501v-86h-186c-21.333 0 -38.166 7.83301 -50.499 23.5s-24.166 37.834 -35.499 66.501l-61 146c-8 20.667 -16.667 39.667 -26 57
s-19.333 32.333 -30 45l-137 1v-207c0 -11.333 2.83301 -20.5 8.5 -27.5s13.834 -11.5 24.501 -13.5z" />
    <glyph glyph-name="macron" unicode="&#xaf;" horiz-adv-x="1000" 
d="M154 1358v166h691v-166h-691z" />
    <glyph glyph-name="degree" unicode="&#xb0;" horiz-adv-x="925" 
d="M461 933c-49.333 0 -96 9.49707 -140 28.4971s-82.333 44.833 -115 77.5s-58.667 70.834 -78 114.501s-29 90.167 -29 139.5c0 51.333 9.66699 99 29 143s45.333 82 78 114s71 57.167 115 75.5s90.667 27.5 140 27.5c52.667 0 101.5 -9.66699 146.5 -29
s83.667 -45.166 116 -77.499s57.5 -70.5 75.5 -114.5s27 -90.333 27 -139c0 -51.333 -9.5 -99.166 -28.5 -143.499s-45 -82.333 -78 -114s-71.667 -56.667 -116 -75s-91.833 -27.5 -142.5 -27.5zM463 1083c58.667 0 106.5 19.8301 143.5 59.4971s55.5 89.834 55.5 150.501
c0 56.667 -19.5 105.834 -58.5 147.501s-86.833 62.5 -143.5 62.5c-58 0 -105.667 -20.167 -143 -60.5s-56 -90.166 -56 -149.499c0 -56 20 -105 60 -147s87.333 -63 142 -63z" />
    <glyph glyph-name="plusminus" unicode="&#xb1;" horiz-adv-x="1194" 
d="M690 301h-186v189l7 163l-162 -7h-213v170h213l162 -6l-7 163v197h186v-197l-6 -163l162 6h212v-170h-212l-162 7l6 -163v-189zM1048 0h-902v170h902v-170z" />
    <glyph glyph-name="twosuperior" unicode="&#xb2;" horiz-adv-x="1025" 
d="M867 625l-714.993 -0.000976562l-30 96c161.333 119.333 283 221 365 305s123 168.333 123 253c0 54.667 -16.333 98.834 -49 132.501s-78.334 50.5 -137.001 50.5c-48 0 -92 -11.667 -132 -35s-74 -49.666 -102 -78.999l-54 49c8 26.667 21.667 52.834 41 78.501
s43.666 48.667 72.999 69s63.833 36.666 103.5 48.999s84.167 18.5 133.5 18.5c56 0 105.667 -8.16699 149 -24.5s79.666 -38.166 108.999 -65.499s51.666 -59.333 66.999 -96s23 -75 23 -115c0 -56.667 -13.833 -110.834 -41.5 -162.501s-63.834 -100 -108.501 -145
s-95.334 -87.5 -152.001 -127.5s-113.334 -76.667 -170.001 -110h204c62 0 106.667 5.66699 134 17s45 26.666 53 45.999l49 108l109 -14c-2.66699 -45.333 -7.66699 -95.333 -15 -150s-17.333 -104 -30 -148z" />
    <glyph glyph-name="threesuperior" unicode="&#xb3;" horiz-adv-x="973" 
d="M103 745l55.001 85.002c32.667 -22.667 73 -41.834 121 -57.501s97.667 -23.5 149 -23.5c64 0 116.333 13.667 157 41s61 67 61 119c0 50 -19.667 86.167 -59 108.5s-95 33.5 -167 33.5h-105v113h32c81.333 0 142.5 14.833 183.5 44.5s61.5 68.5 61.5 116.5
s-17.667 83.667 -53 107s-78.666 35 -129.999 35c-38 0 -76 -6.66699 -114 -20s-74 -35.333 -108 -66l-50 55c13.333 30.667 31.666 57.167 54.999 79.5s49.833 40.666 79.5 54.999s61.667 24.833 96 31.5s68.5 10 102.5 10c47.333 0 91.5 -5.83301 132.5 -17.5
s76.5 -28.167 106.5 -49.5s53.5 -47.166 70.5 -77.499s25.5 -63.5 25.5 -99.5c0 -32 -6.5 -61.333 -19.5 -88s-30 -49.834 -51 -69.501s-45.167 -36.167 -72.5 -49.5s-55.333 -22.333 -84 -27c39.333 0 77 -5.16699 113 -15.5s67.333 -25.5 94 -45.5
s47.834 -44.667 63.501 -74s23.5 -63 23.5 -101c0 -40 -9.33301 -77.5 -28 -112.5s-45.334 -65.333 -80.001 -91s-76.834 -46 -126.501 -61s-105.5 -22.5 -167.5 -22.5c-79.333 0 -151 12.333 -215 37s-114.667 57 -152 97z" />
    <glyph glyph-name="acute" unicode="&#xb4;" horiz-adv-x="1000" 
d="M403 1257l-74 84.001l374 437l163 -145c-22 -28.667 -50.167 -59.334 -84.5 -92.001s-72 -65.5 -113 -98.5s-84.5 -65.5 -130.5 -97.5s-91 -61.333 -135 -88z" />
    <glyph glyph-name="uni00B5" unicode="&#xb5;" horiz-adv-x="1479" 
d="M458 -456l-209.005 -76.002l-38 36c1.33301 144 2.83301 287.333 4.5 430s2.5 271.334 2.5 386.001c0 64.667 -0.5 128 -1.5 190s-2.5 125.167 -4.5 189.5l-6 202.5c-2 70.667 -4 146.667 -6 228l221 37l37 -36l-5 -623c0.666992 -56.667 8.5 -104.667 23.5 -144
s33.833 -71 56.5 -95s47.834 -41.333 75.501 -52s54.5 -16 80.5 -16c47.333 0 96.333 16.667 147 50s90.334 86.333 119.001 159l-7 721l212 36l37 -36l-23 -768c-2 -78.667 7.16699 -132.167 27.5 -160.5s47.833 -42.5 82.5 -42.5h128v-102
c-30.667 -23.333 -66.667 -43.166 -108 -59.499s-80.666 -24.5 -117.999 -24.5c-57.333 0 -104.666 21.667 -141.999 65s-61.333 109.666 -72 198.999c-32 -87.333 -78.167 -153.166 -138.5 -197.499s-122.5 -66.5 -186.5 -66.5c-41.333 0 -84.166 11 -128.499 33
s-80.5 60 -108.5 114z" />
    <glyph glyph-name="paragraph" unicode="&#xb6;" horiz-adv-x="1494" 
d="M289 -362l-54.001 117.001c60.667 33.333 110.167 67.166 148.5 101.499s68.166 73 89.499 116s35.833 92.5 43.5 148.5s11.5 122 11.5 198v360c-55.333 4.66699 -110.333 17.334 -165 38.001s-103.5 50.167 -146.5 88.5s-77.833 86 -104.5 143s-40 123.5 -40 199.5
c0 62 10.333 120 31 174s52.334 100.5 95.001 139.5s97 69.667 163 92s144 33.5 234 33.5c75.333 0 160.5 -4.16699 255.5 -12.5s198.833 -12.5 311.5 -12.5h220v-119l-147 -31c-16 -3.33301 -28.5 -10 -37.5 -20s-13.5 -22.667 -13.5 -38v-1151c0 -14.667 4.5 -27 13.5 -37
s20.833 -16.333 35.5 -19l159 -31v-116h-423v1420c-31.333 2 -67.666 4.16699 -108.999 6.5s-80.333 3.5 -117 3.5v-1201c0 -90 -7.5 -166.833 -22.5 -230.5s-40 -117.834 -75 -162.501s-81.667 -82.5 -140 -113.5s-130.5 -59.167 -216.5 -84.5z" />
    <glyph glyph-name="periodcentered" unicode="&#xb7;" horiz-adv-x="627" 
d="M479 666c0 -46.667 -15.167 -84.5 -45.5 -113.5s-70.166 -43.5 -119.499 -43.5c-50 0 -90.167 14.5 -120.5 43.5s-45.5 66.833 -45.5 113.5c0 47.333 15.167 85.333 45.5 114s70.5 43 120.5 43c49.333 0 89.166 -14.333 119.499 -43s45.5 -66.667 45.5 -114z" />
    <glyph glyph-name="cedilla" unicode="&#xb8;" horiz-adv-x="1000" 
d="M452 51l102.002 0.00195312l-42 -139c4.66699 0 10.5 -0.166992 17.5 -0.5s14.167 -0.833008 21.5 -1.5c50 -4.66699 91.333 -22.667 124 -54s49 -73 49 -125c0 -37.333 -9.33301 -71.5 -28 -102.5s-44.334 -57.5 -77.001 -79.5s-71.5 -39.167 -116.5 -51.5
s-93.833 -18.5 -146.5 -18.5c-10 0 -18.333 0.166992 -25 0.5s-14.334 0.5 -23.001 0.5l-14 97c67.333 5.33301 118.833 21.666 154.5 48.999s53.5 59 53.5 95c0 33.333 -13 57.666 -39 72.999s-56 23.333 -90 24z" />
    <glyph glyph-name="onesuperior" unicode="&#xb9;" horiz-adv-x="936" 
d="M615 1586l0.000976562 -773c0 -16.667 3.16699 -28.5 9.5 -35.5s18.166 -11.833 35.499 -14.5l188 -27v-111h-697v111l215 27c16.667 2.66699 28.5 7.66699 35.5 15s10.5 19.333 10.5 36l1 565c-40 -14.667 -82.833 -26.667 -128.5 -36s-90.167 -16 -133.5 -20l-24 108
c58 16 118.5 38.333 181.5 67s122.833 65.667 179.5 111z" />
    <glyph glyph-name="ordmasculine" unicode="&#xba;" horiz-adv-x="1107" 
d="M108 1116c0 83.333 11.832 154.334 35.499 213.001s56 106.334 97 143.001s89.667 63.5 146 80.5s116.5 25.5 180.5 25.5c140.667 0 247.834 -37.833 321.501 -113.5s110.5 -186.5 110.5 -332.5c0 -83.333 -11.833 -154.333 -35.5 -213s-56 -106.334 -97 -143.001
s-89.5 -63.334 -145.5 -80.001s-116.333 -25 -181 -25c-140 0 -247 37.667 -321 113s-111 186 -111 332zM738.999 1113c0 123.333 -13.5 213.667 -40.5 271s-76.833 86 -149.5 86c-60.667 0 -106 -25 -136 -75s-45 -136.667 -45 -260c0 -122.667 13.333 -212.667 40 -270
s76.667 -86 150 -86c60.667 0 106 25 136 75s45 136.333 45 259z" />
    <glyph glyph-name="guillemotright" unicode="&#xbb;" horiz-adv-x="1426" 
d="M184 93l-85 96l372 423l-369 432l82 96l572 -455v-148zM760 93l-85 96l372 423l-369 432l82 96l572 -455v-148z" />
    <glyph glyph-name="onequarter" unicode="&#xbc;" horiz-adv-x="2380" 
d="M595 1586l0.000976562 -773c0 -16.667 3.16699 -28.5 9.5 -35.5s18.166 -11.833 35.499 -14.5l188 -27v-111h-697v111l215 27c16.667 2.66699 28.5 7.66699 35.5 15s10.5 19.333 10.5 36l1 565c-40 -14.667 -82.833 -26.667 -128.5 -36s-90.167 -16 -133.5 -20l-24 108
c58 16 118.5 38.333 181.5 67s122.833 65.667 179.5 111zM788.001 0h-195l957 1562h194zM2313 185l-171.002 -0.000976562v-185h-191v185h-437l-66 87c78 116.667 150 234.334 216 353.001s127 236.667 183 354h184l33 -40c-50 -96 -95.333 -178.833 -136 -248.5
s-78.167 -129.167 -112.5 -178.5s-66.666 -91 -96.999 -125s-60.166 -64 -89.499 -90l326 18l34 250h153v-240l171 9v-149z" />
    <glyph glyph-name="onehalf" unicode="&#xbd;" horiz-adv-x="2366" 
d="M589 1586l0.000976562 -773c0 -16.667 3.16699 -28.5 9.5 -35.5s18.166 -11.833 35.499 -14.5l188 -27v-111h-697v111l215 27c16.667 2.66699 28.5 7.66699 35.5 15s10.5 19.333 10.5 36l1 565c-40 -14.667 -82.833 -26.667 -128.5 -36s-90.167 -16 -133.5 -20l-24 108
c58 16 118.5 38.333 181.5 67s122.833 65.667 179.5 111zM782.001 0h-195l957 1562h194zM2246 0l-714.995 -0.000976562l-30 96c161.333 119.333 283 221 365 305s123 168.333 123 253c0 54.667 -16.333 98.834 -49 132.501s-78.334 50.5 -137.001 50.5
c-48 0 -92 -11.667 -132 -35s-74 -49.666 -102 -78.999l-54 49c8 26.667 21.667 52.834 41 78.501s43.666 48.667 72.999 69s63.833 36.666 103.5 48.999s84.167 18.5 133.5 18.5c56 0 105.667 -8.16699 149 -24.5s79.666 -38.166 109 -65.499
c29.333 -27.333 51.666 -59.333 67 -96c15.333 -36.667 23 -75 23 -115c0 -56.667 -13.833 -110.834 -41.5 -162.501s-63.834 -100 -108.501 -145s-95.334 -87.5 -152.001 -127.5s-113.334 -76.667 -170.001 -110h204c62 0 106.667 5.66699 134 17s45 26.666 53 45.999
l49 108l109 -14c-2.66699 -45.333 -7.66699 -95.333 -15 -150s-17.333 -104 -30 -148z" />
    <glyph glyph-name="threequarters" unicode="&#xbe;" horiz-adv-x="2379" 
d="M88 745l55.001 85.002c32.667 -22.667 73 -41.834 121 -57.501s97.667 -23.5 149 -23.5c64 0 116.333 13.667 157 41s61 67 61 119c0 50 -19.667 86.167 -59 108.5s-95 33.5 -167 33.5h-105v113h32c81.333 0 142.5 14.833 183.5 44.5s61.5 68.5 61.5 116.5
s-17.667 83.667 -53 107s-78.666 35 -129.999 35c-38 0 -76 -6.66699 -114 -20s-74 -35.333 -108 -66l-50 55c13.333 30.667 31.666 57.167 54.999 79.5s49.833 40.666 79.5 54.999s61.667 24.833 96 31.5s68.5 10 102.5 10c47.333 0 91.5 -5.83301 132.5 -17.5
s76.5 -28.167 106.5 -49.5s53.5 -47.166 70.5 -77.499s25.5 -63.5 25.5 -99.5c0 -32 -6.5 -61.333 -19.5 -88s-30 -49.834 -51 -69.501s-45.167 -36.167 -72.5 -49.5s-55.333 -22.333 -84 -27c39.333 0 77 -5.16699 113 -15.5s67.333 -25.5 94 -45.5
s47.834 -44.667 63.501 -74s23.5 -63 23.5 -101c0 -40 -9.33301 -77.5 -28 -112.5s-45.334 -65.333 -80.001 -91s-76.834 -46 -126.501 -61s-105.5 -22.5 -167.5 -22.5c-79.333 0 -151 12.333 -215 37s-114.667 57 -152 97zM786.001 0.00195312h-195l957 1562h194z
M2311 185.002l-171.002 -0.000976562v-185h-191v185h-437l-66 87c78 116.667 150 234.334 216 353.001s127 236.667 183 354h184l33 -40c-50 -96 -95.333 -178.833 -136 -248.5s-78.167 -129.167 -112.5 -178.5s-66.666 -91 -96.999 -125s-60.166 -64 -89.499 -90l326 18
l34 250h153v-240l171 9v-149z" />
    <glyph glyph-name="questiondown" unicode="&#xbf;" horiz-adv-x="1084" 
d="M450 1020c0 44 14.667 79.833 44 107.5s68 41.5 116 41.5s86.5 -13.833 115.5 -41.5s43.5 -63.5 43.5 -107.5c0 -44.667 -14.5 -80.667 -43.5 -108s-67.5 -41 -115.5 -41s-86.667 13.833 -116 41.5s-44 63.5 -44 107.5zM544 672h147.999
c14 -35.333 28.333 -75.5 43 -120.5s22 -86.5 22 -124.5c0 -58 -17.167 -105.333 -51.5 -142s-78.5 -79.667 -132.5 -129c-78 -72 -135.667 -135.333 -173 -190s-56 -116.667 -56 -186c0 -68.667 18.333 -126.167 55 -172.5s88.667 -69.5 156 -69.5
c38.667 0 73.667 7.5 105 22.5s55.333 30.833 72 47.5c13.333 14.667 22.666 29.5 27.999 44.5s9.33301 33.5 12 55.5l23 213h158c18 -56 32.5 -116.667 43.5 -182s17.833 -128.666 20.5 -189.999c-48.667 -40.667 -111.667 -76 -189 -106s-160.666 -45 -249.999 -45
c-78.667 0 -149.667 12.167 -213 36.5s-117.166 57 -161.499 98s-78.5 88.833 -102.5 143.5s-36 112 -36 172c0 50.667 8.33301 97.167 25 139.5s39.5 81.833 68.5 118.5s62.833 71.667 101.5 105s80 66.666 124 99.999l66.5 53.5c17 14.333 30.333 28 40 41
s17 27.5 22 43.5s8.83301 36.333 11.5 61z" />
    <glyph glyph-name="Agrave" unicode="&#xc0;" horiz-adv-x="1567" 
d="M968 609l-246 732l-234 -732h480zM537 116v-115.999h-542v116l128 31c14.667 3.33301 26.667 9 36 17s16.333 19.333 21 34l469 1369h262l484 -1369c4.66699 -14.667 11.667 -25.834 21 -33.501s21.333 -13.5 36 -17.5l118 -31v-116h-644v116l195 35l-107 319h-570
l-102 -319zM548 2103l473.001 -339l-57 -101l-146.5 57.5c-51.667 21 -102.167 42.833 -151.5 65.5s-95.833 46 -139.5 70s-80.834 48 -111.501 72z" />
    <glyph glyph-name="Aacute" unicode="&#xc1;" horiz-adv-x="1567" 
d="M968 609l-246 732l-234 -732h480zM537 116v-115.999h-542v116l128 31c14.667 3.33301 26.667 9 36 17s16.333 19.333 21 34l469 1369h262l484 -1369c4.66699 -14.667 11.667 -25.834 21 -33.501s21.333 -13.5 36 -17.5l118 -31v-116h-644v116l195 35l-107 319h-570
l-102 -319zM1174 1913c-31.333 -22.667 -70 -45.333 -116 -68s-94.667 -44.5 -146 -65.5s-103.833 -41.167 -157.5 -60.5l-150.5 -52l-50 98l494 328z" />
    <glyph glyph-name="Acircumflex" unicode="&#xc2;" horiz-adv-x="1567" 
d="M968 609l-246 732l-234 -732h480zM537 116v-115.999h-542v116l128 31c14.667 3.33301 26.667 9 36 17s16.333 19.333 21 34l469 1369h262l484 -1369c4.66699 -14.667 11.667 -25.834 21 -33.501s21.333 -13.5 36 -17.5l118 -31v-116h-644v116l195 35l-107 319h-570
l-102 -319zM456 1661l-79 88l299 314l188 10l326 -317l-83 -94l-338 210z" />
    <glyph glyph-name="Atilde" unicode="&#xc3;" horiz-adv-x="1567" 
d="M968 609l-246 732l-234 -732h480zM537 116v-115.999h-542v116l128 31c14.667 3.33301 26.667 9 36 17s16.333 19.333 21 34l469 1369h262l484 -1369c4.66699 -14.667 11.667 -25.834 21 -33.501s21.333 -13.5 36 -17.5l118 -31v-116h-644v116l195 35l-107 319h-570
l-102 -319zM1224 1958c-9.33301 -32.667 -22.666 -64.999 -39.999 -96.999s-38.333 -60.5 -63 -85.5s-52.5 -45.167 -83.5 -60.5s-64.5 -23 -100.5 -23c-37.333 0 -71.5 7.16699 -102.5 21.5s-60 30.166 -87 47.499s-52.833 33.166 -77.5 47.499s-49.667 21.5 -75 21.5
c-34.667 0 -65.834 -13.333 -93.501 -40s-51.834 -55.667 -72.501 -87l-86 48c9.33301 32.667 22.833 65 40.5 97s38.667 60.333 63 85s52.166 44.667 83.499 60s65 23 101 23c37.333 0 71.5 -7.16699 102.5 -21.5s60 -30 87 -47l77.5 -47
c24.667 -14.333 49.667 -21.5 75 -21.5c34.667 0 65.834 13.333 93.501 40s51.834 55.334 72.501 86.001z" />
    <glyph glyph-name="Adieresis" unicode="&#xc4;" horiz-adv-x="1567" 
d="M968 609l-246 732l-234 -732h480zM537 116v-115.999h-542v116l128 31c14.667 3.33301 26.667 9 36 17s16.333 19.333 21 34l469 1369h262l484 -1369c4.66699 -14.667 11.667 -25.834 21 -33.501s21.333 -13.5 36 -17.5l118 -31v-116h-644v116l195 35l-107 319h-570
l-102 -319zM1178 1844c0 -44 -13 -79.333 -39 -106s-60 -40 -102 -40c-42.667 0 -77 13.333 -103 40s-39 62 -39 106c0 42.667 13 77.5 39 104.5s60.333 40.5 103 40.5c42 0 76 -13.5 102 -40.5s39 -61.833 39 -104.5zM672 1844c0 -44 -13 -79.333 -39 -106
s-60 -40 -102 -40c-42.667 0 -77.167 13.333 -103.5 40s-39.5 62 -39.5 106c0 42.667 13.167 77.5 39.5 104.5s60.833 40.5 103.5 40.5c42 0 76 -13.5 102 -40.5s39 -61.833 39 -104.5z" />
    <glyph glyph-name="Aring" unicode="&#xc5;" horiz-adv-x="1567" 
d="M968 609l-246 732l-234 -732h480zM537 116v-115.999h-542v116l128 31c14.667 3.33301 26.667 9 36 17s16.333 19.333 21 34l469 1369h262l484 -1369c4.66699 -14.667 11.667 -25.834 21 -33.501s21.333 -13.5 36 -17.5l118 -31v-116h-644v116l195 35l-107 319h-570
l-102 -319zM1073 1788c0 -38 -7.83398 -72.499 -23.501 -103.499s-36.667 -57.167 -63 -78.5s-57.166 -37.833 -92.499 -49.5s-72.666 -17.5 -111.999 -17.5c-91.333 0 -161.833 23.333 -211.5 70s-74.167 107.667 -73.5 183c0 37.333 8.33301 71.166 25 101.499
s38.5 56 65.5 77s58.5 37.167 94.5 48.5s73.333 17 112 17c91.333 0 160.666 -23.5 207.999 -70.5s71 -106.167 71 -177.5zM654.999 1792c0 -36 10.667 -68.5 32 -97.5s54.333 -43.5 99 -43.5c42 0 74 11.5 96 34.5s33 55.5 33 97.5c0 37.333 -10.167 70 -30.5 98
s-52.833 42 -97.5 42c-42 0 -74.5 -11.667 -97.5 -35s-34.5 -55.333 -34.5 -96z" />
    <glyph glyph-name="AE" unicode="&#xc6;" horiz-adv-x="2106" 
d="M893 1422l-304 -718h419v718h-115zM551 116l0.00195312 -115.999h-561v116l139 30c14 3.33301 25.667 9 35 17s16.666 18.667 21.999 32l521 1206l-258 42v119h1479c6.66699 -64.667 10 -129.834 10 -195.501s-3 -133.167 -9 -202.5h-134l-48 188
c-4.66699 16 -11.667 28.667 -21 38s-21.666 17 -36.999 23c-20.667 7.33301 -48.334 13 -83.001 17s-72 6 -112 6h-223v-572l468 16v-170l-468 12v-586h275c40 0 79.333 1.83301 118 5.5s68.334 9.5 89.001 17.5c15.333 6 27 13.667 35 23s15 22 21 38l78 228l133 -21
c-0.666992 -69.333 -4.33398 -139.666 -11.001 -210.999s-16.334 -143.333 -29.001 -216h-1181v116l159 29c16.667 3.33301 29.167 10.166 37.5 20.499s12.5 23.833 12.5 40.5v360h-478l-178 -421z" />
    <glyph glyph-name="Ccedilla" unicode="&#xc7;" horiz-adv-x="1445" 
d="M828 -31c-120 0 -225 17.6709 -315 53.0039s-164.333 86.333 -223 153s-102.5 148.667 -131.5 246s-43.5 207.333 -43.5 330c0 140 18 262.667 54 368s86.833 192.666 152.5 261.999s145.5 121.333 239.5 156s198.333 52 313 52c69.333 0 145 -6.5 227 -19.5
s157.667 -32.5 227 -58.5c3.33301 -60.667 3.33301 -125.834 0 -195.501s-10.333 -139.834 -21 -210.501h-162l-51 237c-3.33301 14 -8.66602 27.167 -15.999 39.5s-19 23.5 -35 33.5c-20.667 12.667 -50.5 23.834 -89.5 33.501s-79.833 14.5 -122.5 14.5
c-125.333 0 -224.5 -53 -297.5 -159s-109.5 -277.667 -109.5 -515c0 -105.333 7.83301 -201 23.5 -287s40 -158.833 73 -218.5s75.667 -105.834 128 -138.501s114.833 -49 187.5 -49c40 0 79.667 5.5 119 16.5s72 25.833 98 44.5c11.333 8.66699 20.666 18.5 27.999 29.5
s14 25.5 20 43.5l70 215l159 -15c2.66699 -56.667 2.16699 -117.834 -1.5 -183.501s-10.5 -130.5 -20.5 -194.5c-62.667 -24 -137.5 -43.833 -224.5 -59.5s-172.167 -23.5 -255.5 -23.5zM761 51.0039l102.002 0.00195312l-42 -139c4.66699 0 10.5 -0.166992 17.5 -0.5
s14.167 -0.833008 21.5 -1.5c50 -4.66699 91.333 -22.667 124 -54s49 -73 49 -125c0 -37.333 -9.33301 -71.5 -28 -102.5s-44.334 -57.5 -77.001 -79.5s-71.5 -39.167 -116.5 -51.5s-93.833 -18.5 -146.5 -18.5c-10 0 -18.333 0.166992 -25 0.5s-14.334 0.5 -23.001 0.5
l-14 97c67.333 5.33301 118.833 21.666 154.5 48.999s53.5 59 53.5 95c0 33.333 -13 57.666 -39 72.999s-56 23.333 -90 24z" />
    <glyph glyph-name="Egrave" unicode="&#xc8;" horiz-adv-x="1420" 
d="M1244 1164l-133.999 0.00195312l-48 188c-4.66699 16 -11.667 28.667 -21 38s-21.666 17 -36.999 23c-20.667 7.33301 -48.334 13 -83.001 17s-72 6 -112 6h-223v-567l468 16v-170l-468 12v-591h275c40 0 79.333 1.83301 118 5.5s68.334 9.5 89.001 17.5
c15.333 6 27 13.667 35 23s15 22 21 38l78 228l133 -21c-0.666992 -69.333 -4.33398 -139.666 -11.001 -210.999s-16.334 -143.333 -29.001 -216h-1192v116l158 29c16.667 3.33301 29.167 10.166 37.5 20.499s12.5 23.833 12.5 40.5v1145
c0 16.667 -4.16699 30.167 -12.5 40.5s-20.833 17.166 -37.5 20.499l-158 31v119h1140c6.66699 -64.667 10 -129.834 10 -195.501s-3 -133.167 -9 -202.5zM501.001 2103l473.001 -339l-57 -101l-146.5 57.5c-51.667 21 -102.167 42.833 -151.5 65.5s-95.833 46 -139.5 70
s-80.834 48 -111.501 72z" />
    <glyph glyph-name="Eacute" unicode="&#xc9;" horiz-adv-x="1420" 
d="M1244 1164l-133.999 0.00195312l-48 188c-4.66699 16 -11.667 28.667 -21 38s-21.666 17 -36.999 23c-20.667 7.33301 -48.334 13 -83.001 17s-72 6 -112 6h-223v-567l468 16v-170l-468 12v-591h275c40 0 79.333 1.83301 118 5.5s68.334 9.5 89.001 17.5
c15.333 6 27 13.667 35 23s15 22 21 38l78 228l133 -21c-0.666992 -69.333 -4.33398 -139.666 -11.001 -210.999s-16.334 -143.333 -29.001 -216h-1192v116l158 29c16.667 3.33301 29.167 10.166 37.5 20.499s12.5 23.833 12.5 40.5v1145
c0 16.667 -4.16699 30.167 -12.5 40.5s-20.833 17.166 -37.5 20.499l-158 31v119h1140c6.66699 -64.667 10 -129.834 10 -195.501s-3 -133.167 -9 -202.5zM1127 1913c-31.333 -22.667 -70 -45.333 -116 -68s-94.667 -44.5 -146 -65.5s-103.833 -41.167 -157.5 -60.5
l-150.5 -52l-50 98l494 328z" />
    <glyph glyph-name="Ecircumflex" unicode="&#xca;" horiz-adv-x="1420" 
d="M1244 1164l-133.999 0.00195312l-48 188c-4.66699 16 -11.667 28.667 -21 38s-21.666 17 -36.999 23c-20.667 7.33301 -48.334 13 -83.001 17s-72 6 -112 6h-223v-567l468 16v-170l-468 12v-591h275c40 0 79.333 1.83301 118 5.5s68.334 9.5 89.001 17.5
c15.333 6 27 13.667 35 23s15 22 21 38l78 228l133 -21c-0.666992 -69.333 -4.33398 -139.666 -11.001 -210.999s-16.334 -143.333 -29.001 -216h-1192v116l158 29c16.667 3.33301 29.167 10.166 37.5 20.499s12.5 23.833 12.5 40.5v1145
c0 16.667 -4.16699 30.167 -12.5 40.5s-20.833 17.166 -37.5 20.499l-158 31v119h1140c6.66699 -64.667 10 -129.834 10 -195.501s-3 -133.167 -9 -202.5zM409.001 1661l-79 88l299 314l188 10l326 -317l-83 -94l-338 210z" />
    <glyph glyph-name="Edieresis" unicode="&#xcb;" horiz-adv-x="1420" 
d="M1244 1164l-133.999 0.00195312l-48 188c-4.66699 16 -11.667 28.667 -21 38s-21.666 17 -36.999 23c-20.667 7.33301 -48.334 13 -83.001 17s-72 6 -112 6h-223v-567l468 16v-170l-468 12v-591h275c40 0 79.333 1.83301 118 5.5s68.334 9.5 89.001 17.5
c15.333 6 27 13.667 35 23s15 22 21 38l78 228l133 -21c-0.666992 -69.333 -4.33398 -139.666 -11.001 -210.999s-16.334 -143.333 -29.001 -216h-1192v116l158 29c16.667 3.33301 29.167 10.166 37.5 20.499s12.5 23.833 12.5 40.5v1145
c0 16.667 -4.16699 30.167 -12.5 40.5s-20.833 17.166 -37.5 20.499l-158 31v119h1140c6.66699 -64.667 10 -129.834 10 -195.501s-3 -133.167 -9 -202.5zM1131 1844c0 -44 -13 -79.333 -39 -106s-60 -40 -102 -40c-42.667 0 -77 13.333 -103 40s-39 62 -39 106
c0 42.667 13 77.5 39 104.5s60.333 40.5 103 40.5c42 0 76 -13.5 102 -40.5s39 -61.833 39 -104.5zM625.001 1844c0 -44 -13 -79.333 -39 -106s-60 -40 -102 -40c-42.667 0 -77.167 13.333 -103.5 40s-39.5 62 -39.5 106c0 42.667 13.167 77.5 39.5 104.5
s60.833 40.5 103.5 40.5c42 0 76 -13.5 102 -40.5s39 -61.833 39 -104.5z" />
    <glyph glyph-name="Igrave" unicode="&#xcc;" horiz-adv-x="897" 
d="M795 1562v-118.999l-159 -31c-16.667 -3.33301 -29.167 -10.166 -37.5 -20.499s-12.5 -23.833 -12.5 -40.5v-1145c0 -16.667 4.16699 -30.167 12.5 -40.5s20.833 -16.833 37.5 -19.5l159 -30v-116h-692v116l158 29c16.667 3.33301 29.167 10.166 37.5 20.499
s12.5 23.833 12.5 40.5v1145c0 16.667 -4.16699 30.167 -12.5 40.5s-20.833 17.166 -37.5 20.499l-158 31v119h692zM213 2103l473.001 -339l-57 -101l-146.5 57.5c-51.667 21 -102.167 42.833 -151.5 65.5s-95.833 46 -139.5 70s-80.834 48 -111.501 72z" />
    <glyph glyph-name="Iacute" unicode="&#xcd;" horiz-adv-x="897" 
d="M795 1562v-118.999l-159 -31c-16.667 -3.33301 -29.167 -10.166 -37.5 -20.499s-12.5 -23.833 -12.5 -40.5v-1145c0 -16.667 4.16699 -30.167 12.5 -40.5s20.833 -16.833 37.5 -19.5l159 -30v-116h-692v116l158 29c16.667 3.33301 29.167 10.166 37.5 20.499
s12.5 23.833 12.5 40.5v1145c0 16.667 -4.16699 30.167 -12.5 40.5s-20.833 17.166 -37.5 20.499l-158 31v119h692zM839 1913c-31.333 -22.667 -70 -45.333 -116 -68s-94.667 -44.5 -146 -65.5s-103.833 -41.167 -157.5 -60.5l-150.5 -52l-50 98l494 328z" />
    <glyph glyph-name="Icircumflex" unicode="&#xce;" horiz-adv-x="897" 
d="M795 1562v-118.999l-159 -31c-16.667 -3.33301 -29.167 -10.166 -37.5 -20.499s-12.5 -23.833 -12.5 -40.5v-1145c0 -16.667 4.16699 -30.167 12.5 -40.5s20.833 -16.833 37.5 -19.5l159 -30v-116h-692v116l158 29c16.667 3.33301 29.167 10.166 37.5 20.499
s12.5 23.833 12.5 40.5v1145c0 16.667 -4.16699 30.167 -12.5 40.5s-20.833 17.166 -37.5 20.499l-158 31v119h692zM121 1661l-79 88l299 314l188 10l326 -317l-83 -94l-338 210z" />
    <glyph glyph-name="Idieresis" unicode="&#xcf;" horiz-adv-x="897" 
d="M795 1562v-118.999l-159 -31c-16.667 -3.33301 -29.167 -10.166 -37.5 -20.499s-12.5 -23.833 -12.5 -40.5v-1145c0 -16.667 4.16699 -30.167 12.5 -40.5s20.833 -16.833 37.5 -19.5l159 -30v-116h-692v116l158 29c16.667 3.33301 29.167 10.166 37.5 20.499
s12.5 23.833 12.5 40.5v1145c0 16.667 -4.16699 30.167 -12.5 40.5s-20.833 17.166 -37.5 20.499l-158 31v119h692zM843 1844c0 -44 -13 -79.333 -39 -106s-60 -40 -102 -40c-42.667 0 -77 13.333 -103 40s-39 62 -39 106c0 42.667 13 77.5 39 104.5s60.333 40.5 103 40.5
c42 0 76 -13.5 102 -40.5s39 -61.833 39 -104.5zM337 1844c0 -44 -13 -79.333 -39 -106s-60 -40 -102 -40c-42.667 0 -77.167 13.333 -103.5 40s-39.5 62 -39.5 106c0 42.667 13.167 77.5 39.5 104.5s60.833 40.5 103.5 40.5c42 0 76 -13.5 102 -40.5s39 -61.833 39 -104.5z
" />
    <glyph glyph-name="Eth" unicode="&#xd0;" horiz-adv-x="1678" 
d="M1564 829c0 -138.667 -18.1689 -261.502 -54.502 -368.502s-88.166 -196 -155.499 -267s-149.5 -124.333 -246.5 -160s-205.5 -52.167 -325.5 -49.5c-22.667 0.666992 -48 1.83398 -76 3.50098s-56.833 3.5 -86.5 5.5s-59.167 3.66699 -88.5 5s-56.333 2 -81 2h-346v116
l161 30c14.667 2.66699 26.334 9 35.001 19s13 22.333 13 37v529h-198v139h198v487c0 13.333 -4 24.833 -12 34.5s-18.333 15.834 -31 18.501l-166 33v119h343c66 0 127.667 2.33301 185 7s116.333 7 177 7c256 0 445.833 -62.5 569.5 -187.5s185.5 -311.5 185.5 -559.5z
M587.998 130.998c24.667 -6.66699 57.502 -11.498 98.502 -14.498s77.833 -4.16699 110.5 -3.5c148 3.33301 263.167 56.166 345.5 158.499s123.5 273.5 123.5 513.5c0 222 -40.333 388.667 -121 500s-206.334 167 -377.001 167c-40 0 -75.833 -2.33301 -107.5 -7
s-55.834 -7.33398 -72.501 -8.00098v-567h319v-139h-319v-600z" />
    <glyph glyph-name="Ntilde" unicode="&#xd1;" horiz-adv-x="1789" 
d="M709 116v-115.996h-606v116l158 29c16.667 2.66699 29.167 9.16699 37.5 19.5s12.5 23.833 12.5 40.5v1146c0 16.667 -4.16699 30.167 -12.5 40.5s-20.833 17.166 -37.5 20.499l-158 31v119h487l751 -1168v957c0 16.667 -4.33301 30.167 -13 40.5s-21 17.166 -37 20.499
l-169 31v119h578v-119l-143 -31c-16.667 -4 -29.167 -11 -37.5 -21s-12.5 -23.333 -12.5 -40v-1351h-238l-791 1234v-1028c0 -16.667 4.16699 -30.334 12.5 -41.001s20.833 -17.334 37.5 -20.001zM1333 1958c-9.33301 -32.667 -22.666 -64.999 -39.999 -96.999
s-38.333 -60.5 -63 -85.5s-52.5 -45.167 -83.5 -60.5s-64.5 -23 -100.5 -23c-37.333 0 -71.5 7.16699 -102.5 21.5s-60 30.166 -87 47.499s-52.833 33.166 -77.5 47.499s-49.667 21.5 -75 21.5c-34.667 0 -65.834 -13.333 -93.501 -40s-51.834 -55.667 -72.501 -87l-86 48
c9.33301 32.667 22.833 65 40.5 97s38.667 60.333 63 85s52.166 44.667 83.499 60s65 23 101 23c37.333 0 71.5 -7.16699 102.5 -21.5s60 -30 87 -47l77.5 -47c24.667 -14.333 49.667 -21.5 75 -21.5c34.667 0 65.834 13.333 93.501 40s51.834 55.334 72.501 86.001z" />
    <glyph glyph-name="Ograve" unicode="&#xd2;" horiz-adv-x="1601" 
d="M774 -29c-110.667 0 -207.33 18.332 -289.997 54.999s-151.334 88.667 -206.001 156s-95.5 149.5 -122.5 246.5s-40.5 205.5 -40.5 325.5c0 132.667 16.333 251.167 49 355.5s79.5 191.833 140.5 262.5s135.833 124.667 224.5 162s188 56 298 56
c110.667 0 207.5 -18.167 290.5 -54.5s151.667 -88.166 206 -155.499s95.166 -149.5 122.499 -246.5s41 -205.5 41 -325.5c0 -132 -16.333 -250.167 -49 -354.5s-79.5 -192 -140.5 -263s-135.833 -125.333 -224.5 -163s-188.334 -56.5 -299.001 -56.5zM804.004 1459
c-123.333 0 -218.5 -55.333 -285.5 -166s-100.5 -283 -100.5 -517c0 -226 31.333 -394.667 94 -506s157.334 -167 284.001 -167c122.667 0 217.667 55.833 285 167.5s101 284.5 101 518.5c0 226 -31.333 394.167 -94 504.5s-157.334 165.5 -284.001 165.5zM565.004 2103
l473.001 -339l-57 -101l-146.5 57.5c-51.667 21 -102.167 42.833 -151.5 65.5s-95.833 46 -139.5 70s-80.834 48 -111.501 72z" />
    <glyph glyph-name="Oacute" unicode="&#xd3;" horiz-adv-x="1601" 
d="M774 -29c-110.667 0 -207.33 18.332 -289.997 54.999s-151.334 88.667 -206.001 156s-95.5 149.5 -122.5 246.5s-40.5 205.5 -40.5 325.5c0 132.667 16.333 251.167 49 355.5s79.5 191.833 140.5 262.5s135.833 124.667 224.5 162s188 56 298 56
c110.667 0 207.5 -18.167 290.5 -54.5s151.667 -88.166 206 -155.499s95.166 -149.5 122.499 -246.5s41 -205.5 41 -325.5c0 -132 -16.333 -250.167 -49 -354.5s-79.5 -192 -140.5 -263s-135.833 -125.333 -224.5 -163s-188.334 -56.5 -299.001 -56.5zM804.004 1459
c-123.333 0 -218.5 -55.333 -285.5 -166s-100.5 -283 -100.5 -517c0 -226 31.333 -394.667 94 -506s157.334 -167 284.001 -167c122.667 0 217.667 55.833 285 167.5s101 284.5 101 518.5c0 226 -31.333 394.167 -94 504.5s-157.334 165.5 -284.001 165.5zM1191 1913
c-31.333 -22.667 -70 -45.333 -116 -68s-94.667 -44.5 -146 -65.5s-103.833 -41.167 -157.5 -60.5l-150.5 -52l-50 98l494 328z" />
    <glyph glyph-name="Ocircumflex" unicode="&#xd4;" horiz-adv-x="1601" 
d="M774 -29c-110.667 0 -207.33 18.332 -289.997 54.999s-151.334 88.667 -206.001 156s-95.5 149.5 -122.5 246.5s-40.5 205.5 -40.5 325.5c0 132.667 16.333 251.167 49 355.5s79.5 191.833 140.5 262.5s135.833 124.667 224.5 162s188 56 298 56
c110.667 0 207.5 -18.167 290.5 -54.5s151.667 -88.166 206 -155.499s95.166 -149.5 122.499 -246.5s41 -205.5 41 -325.5c0 -132 -16.333 -250.167 -49 -354.5s-79.5 -192 -140.5 -263s-135.833 -125.333 -224.5 -163s-188.334 -56.5 -299.001 -56.5zM804.004 1459
c-123.333 0 -218.5 -55.333 -285.5 -166s-100.5 -283 -100.5 -517c0 -226 31.333 -394.667 94 -506s157.334 -167 284.001 -167c122.667 0 217.667 55.833 285 167.5s101 284.5 101 518.5c0 226 -31.333 394.167 -94 504.5s-157.334 165.5 -284.001 165.5zM473.004 1661
l-79 88l299 314l188 10l326 -317l-83 -94l-338 210z" />
    <glyph glyph-name="Otilde" unicode="&#xd5;" horiz-adv-x="1601" 
d="M774 -29c-110.667 0 -207.33 18.332 -289.997 54.999s-151.334 88.667 -206.001 156s-95.5 149.5 -122.5 246.5s-40.5 205.5 -40.5 325.5c0 132.667 16.333 251.167 49 355.5s79.5 191.833 140.5 262.5s135.833 124.667 224.5 162s188 56 298 56
c110.667 0 207.5 -18.167 290.5 -54.5s151.667 -88.166 206 -155.499s95.166 -149.5 122.499 -246.5s41 -205.5 41 -325.5c0 -132 -16.333 -250.167 -49 -354.5s-79.5 -192 -140.5 -263s-135.833 -125.333 -224.5 -163s-188.334 -56.5 -299.001 -56.5zM804.004 1459
c-123.333 0 -218.5 -55.333 -285.5 -166s-100.5 -283 -100.5 -517c0 -226 31.333 -394.667 94 -506s157.334 -167 284.001 -167c122.667 0 217.667 55.833 285 167.5s101 284.5 101 518.5c0 226 -31.333 394.167 -94 504.5s-157.334 165.5 -284.001 165.5zM1241 1958
c-9.33301 -32.667 -22.666 -64.999 -39.999 -96.999s-38.333 -60.5 -63 -85.5s-52.5 -45.167 -83.5 -60.5s-64.5 -23 -100.5 -23c-37.333 0 -71.5 7.16699 -102.5 21.5s-60 30.166 -87 47.499s-52.833 33.166 -77.5 47.499s-49.667 21.5 -75 21.5
c-34.667 0 -65.834 -13.333 -93.501 -40s-51.834 -55.667 -72.501 -87l-86 48c9.33301 32.667 22.833 65 40.5 97s38.667 60.333 63 85s52.166 44.667 83.499 60s65 23 101 23c37.333 0 71.5 -7.16699 102.5 -21.5s60 -30 87 -47l77.5 -47
c24.667 -14.333 49.667 -21.5 75 -21.5c34.667 0 65.834 13.333 93.501 40s51.834 55.334 72.501 86.001z" />
    <glyph glyph-name="Odieresis" unicode="&#xd6;" horiz-adv-x="1601" 
d="M774 -29c-110.667 0 -207.33 18.332 -289.997 54.999s-151.334 88.667 -206.001 156s-95.5 149.5 -122.5 246.5s-40.5 205.5 -40.5 325.5c0 132.667 16.333 251.167 49 355.5s79.5 191.833 140.5 262.5s135.833 124.667 224.5 162s188 56 298 56
c110.667 0 207.5 -18.167 290.5 -54.5s151.667 -88.166 206 -155.499s95.166 -149.5 122.499 -246.5s41 -205.5 41 -325.5c0 -132 -16.333 -250.167 -49 -354.5s-79.5 -192 -140.5 -263s-135.833 -125.333 -224.5 -163s-188.334 -56.5 -299.001 -56.5zM804.004 1459
c-123.333 0 -218.5 -55.333 -285.5 -166s-100.5 -283 -100.5 -517c0 -226 31.333 -394.667 94 -506s157.334 -167 284.001 -167c122.667 0 217.667 55.833 285 167.5s101 284.5 101 518.5c0 226 -31.333 394.167 -94 504.5s-157.334 165.5 -284.001 165.5zM1195 1844
c0 -44 -13 -79.333 -39 -106s-60 -40 -102 -40c-42.667 0 -77 13.333 -103 40s-39 62 -39 106c0 42.667 13 77.5 39 104.5s60.333 40.5 103 40.5c42 0 76 -13.5 102 -40.5s39 -61.833 39 -104.5zM689.004 1844c0 -44 -13 -79.333 -39 -106s-60 -40 -102 -40
c-42.667 0 -77.167 13.333 -103.5 40s-39.5 62 -39.5 106c0 42.667 13.167 77.5 39.5 104.5s60.833 40.5 103.5 40.5c42 0 76 -13.5 102 -40.5s39 -61.833 39 -104.5z" />
    <glyph glyph-name="multiply" unicode="&#xd7;" horiz-adv-x="1113" 
d="M261 182l-132 138l306 297l-306 297l134 139l293 -317l294 317l134 -139l-306 -297l306 -297l-133 -138l-295 317z" />
    <glyph glyph-name="Oslash" unicode="&#xd8;" horiz-adv-x="1601" 
d="M399 776c0 -110.667 7.49805 -207.833 22.498 -291.5s37.833 -153.5 68.5 -209.5l534 1112c-29.333 25.333 -62.666 44.333 -99.999 57s-78.666 19 -123.999 19c-128.667 0 -227.667 -55 -297 -165s-104 -284 -104 -522zM791.998 98.001c128 0 226.833 55.667 296.5 167
s104.5 286 104.5 524c0 108.667 -7.33301 204 -22 286s-36.334 150.333 -65.001 205l-533 -1109c28.667 -24.667 61.334 -43 98.001 -55s77 -18 121 -18zM769.998 -28.999c-49.333 0 -95.9971 3.66797 -139.997 11.001s-85 18 -123 32l-109 -216l-130 68l110 217
c-89.333 64 -156.333 153.5 -201 268.5s-67 249.167 -67 402.5c0 132.667 16.5 251.167 49.5 355.5s80 191.833 141 262.5s135.833 124.667 224.5 162s188 56 298 56c50.667 0 98.5 -3.83301 143.5 -11.5s86.833 -18.834 125.5 -33.501l92 182l129 -68l-93 -184
c87.333 -64 152.833 -153.167 196.5 -267.5s65.5 -247.5 65.5 -399.5c0 -132 -16.333 -250.167 -49 -354.5s-79.334 -192 -140.001 -263s-135.334 -125.333 -224.001 -163s-188.334 -56.5 -299.001 -56.5z" />
    <glyph glyph-name="Ugrave" unicode="&#xd9;" horiz-adv-x="1701" 
d="M1043 1562l568 0.00195312v-119l-118 -29c-16 -4 -28 -11.333 -36 -22s-12 -24.334 -12 -41.001v-774c0 -106 -13.667 -197.167 -41 -273.5s-66.5 -138.5 -117.5 -186.5s-113.333 -83.167 -187 -105.5s-156.5 -33.5 -248.5 -33.5c-204 0 -354.5 50.333 -451.5 151
s-145.5 256.334 -145.5 467.001v756c0 16.667 -4 30 -12 40s-20 17.333 -36 22l-110 29v119h661v-119l-170 -33c-16.667 -2.66699 -29.167 -9.33398 -37.5 -20.001s-12.5 -24.334 -12.5 -41.001v-778c0 -164 30.667 -283.167 92 -357.5s150.333 -111.5 267 -111.5
c133.333 0 228 40.667 284 122s84 194 84 338v789c0 16.667 -4.16699 30.167 -12.5 40.5s-20.833 16.833 -37.5 19.5l-171 32v119zM639 2103l473.001 -339l-57 -101l-146.5 57.5c-51.667 21 -102.167 42.833 -151.5 65.5s-95.833 46 -139.5 70s-80.834 48 -111.501 72z" />
    <glyph glyph-name="Uacute" unicode="&#xda;" horiz-adv-x="1701" 
d="M1043 1562l568 0.00195312v-119l-118 -29c-16 -4 -28 -11.333 -36 -22s-12 -24.334 -12 -41.001v-774c0 -106 -13.667 -197.167 -41 -273.5s-66.5 -138.5 -117.5 -186.5s-113.333 -83.167 -187 -105.5s-156.5 -33.5 -248.5 -33.5c-204 0 -354.5 50.333 -451.5 151
s-145.5 256.334 -145.5 467.001v756c0 16.667 -4 30 -12 40s-20 17.333 -36 22l-110 29v119h661v-119l-170 -33c-16.667 -2.66699 -29.167 -9.33398 -37.5 -20.001s-12.5 -24.334 -12.5 -41.001v-778c0 -164 30.667 -283.167 92 -357.5s150.333 -111.5 267 -111.5
c133.333 0 228 40.667 284 122s84 194 84 338v789c0 16.667 -4.16699 30.167 -12.5 40.5s-20.833 16.833 -37.5 19.5l-171 32v119zM1265 1913c-31.333 -22.667 -70 -45.333 -116 -68s-94.667 -44.5 -146 -65.5s-103.833 -41.167 -157.5 -60.5l-150.5 -52l-50 98l494 328z
" />
    <glyph glyph-name="Ucircumflex" unicode="&#xdb;" horiz-adv-x="1701" 
d="M1043 1562l568 0.00195312v-119l-118 -29c-16 -4 -28 -11.333 -36 -22s-12 -24.334 -12 -41.001v-774c0 -106 -13.667 -197.167 -41 -273.5s-66.5 -138.5 -117.5 -186.5s-113.333 -83.167 -187 -105.5s-156.5 -33.5 -248.5 -33.5c-204 0 -354.5 50.333 -451.5 151
s-145.5 256.334 -145.5 467.001v756c0 16.667 -4 30 -12 40s-20 17.333 -36 22l-110 29v119h661v-119l-170 -33c-16.667 -2.66699 -29.167 -9.33398 -37.5 -20.001s-12.5 -24.334 -12.5 -41.001v-778c0 -164 30.667 -283.167 92 -357.5s150.333 -111.5 267 -111.5
c133.333 0 228 40.667 284 122s84 194 84 338v789c0 16.667 -4.16699 30.167 -12.5 40.5s-20.833 16.833 -37.5 19.5l-171 32v119zM547 1661l-79 88l299 314l188 10l326 -317l-83 -94l-338 210z" />
    <glyph glyph-name="Udieresis" unicode="&#xdc;" horiz-adv-x="1701" 
d="M1043 1562l568 0.00195312v-119l-118 -29c-16 -4 -28 -11.333 -36 -22s-12 -24.334 -12 -41.001v-774c0 -106 -13.667 -197.167 -41 -273.5s-66.5 -138.5 -117.5 -186.5s-113.333 -83.167 -187 -105.5s-156.5 -33.5 -248.5 -33.5c-204 0 -354.5 50.333 -451.5 151
s-145.5 256.334 -145.5 467.001v756c0 16.667 -4 30 -12 40s-20 17.333 -36 22l-110 29v119h661v-119l-170 -33c-16.667 -2.66699 -29.167 -9.33398 -37.5 -20.001s-12.5 -24.334 -12.5 -41.001v-778c0 -164 30.667 -283.167 92 -357.5s150.333 -111.5 267 -111.5
c133.333 0 228 40.667 284 122s84 194 84 338v789c0 16.667 -4.16699 30.167 -12.5 40.5s-20.833 16.833 -37.5 19.5l-171 32v119zM1269 1844c0 -44 -13 -79.333 -39 -106s-60 -40 -102 -40c-42.667 0 -77 13.333 -103 40s-39 62 -39 106c0 42.667 13 77.5 39 104.5
s60.333 40.5 103 40.5c42 0 76 -13.5 102 -40.5s39 -61.833 39 -104.5zM763 1844c0 -44 -13 -79.333 -39 -106s-60 -40 -102 -40c-42.667 0 -77.167 13.333 -103.5 40s-39.5 62 -39.5 106c0 42.667 13.167 77.5 39.5 104.5s60.833 40.5 103.5 40.5c42 0 76 -13.5 102 -40.5
s39 -61.833 39 -104.5z" />
    <glyph glyph-name="Yacute" unicode="&#xdd;" horiz-adv-x="1483" 
d="M1135 0h-768.001v116l192 36c16.667 3.33301 29.334 9.83301 38.001 19.5s13 22.834 13 39.501v392l-437 764c-6.66699 12.667 -15 22.5 -25 29.5s-21.667 12.167 -35 15.5l-126 31v119h661v-119l-175 -39l337 -620l313 622l-183 37v119h529v-119l-121 -29
c-14 -2.66699 -26 -7.5 -36 -14.5s-18.333 -16.833 -25 -29.5l-396 -768v-391c0 -16.667 4.5 -29.834 13.5 -39.501s21.833 -16.167 38.5 -19.5l192 -36v-116zM1144 1913c-31.333 -22.667 -70 -45.333 -116 -68s-94.667 -44.5 -146 -65.5s-103.833 -41.167 -157.5 -60.5
l-150.5 -52l-50 98l494 328z" />
    <glyph glyph-name="Thorn" unicode="&#xde;" horiz-adv-x="1426" 
d="M772 448c85.333 0 153.67 26.168 205.003 78.501s77 142.166 77 269.499c0 93.333 -21.833 168 -65.5 224s-119.5 84 -227.5 84c-30.667 0 -61.834 -1.16699 -93.501 -3.5s-62.834 -5.5 -93.501 -9.5v-630c36 -4 70.167 -7.16699 102.5 -9.5s64.166 -3.5 95.499 -3.5z
M793.004 116.001v-116.001h-680v116l140 29c16.667 3.33301 29.167 10.166 37.5 20.499s12.5 23.833 12.5 40.5v1145c0 16.667 -4.16699 30 -12.5 40s-20.833 17 -37.5 21l-140 31v119h680v-119l-169 -31c-16 -3.33301 -28.333 -10.166 -37 -20.499s-13 -23.833 -13 -40.5
v-139c50 4.66699 99.5 8.83398 148.5 12.501s97.5 5.5 145.5 5.5c156 0 274.5 -34.5 355.5 -103.5s121.5 -175.833 121.5 -320.5c0 -164 -46.5 -284.333 -139.5 -361s-224.833 -115 -395.5 -115c-48 0 -90.667 1 -128 3s-73.333 4.33301 -108 7v-134
c0 -16.667 4.16699 -30.167 12.5 -40.5s20.833 -16.833 37.5 -19.5z" />
    <glyph glyph-name="germandbls" unicode="&#xdf;" horiz-adv-x="1569" 
d="M1057 -28c-75.333 0 -145.67 9.16406 -211.003 27.4971s-119.333 37.833 -162 58.5c-2.66699 22.667 -4.66699 45.5 -6 68.5s-2 44.833 -2 65.5c0 32 1.16699 63 3.5 93s5.5 58.333 9.5 85h136l40 -146c6.66699 -23.333 12.834 -40.5 18.501 -51.5
s15.5 -21.833 29.5 -32.5c15.333 -11.333 36.666 -22.5 63.999 -33.5s58.333 -16.5 93 -16.5c52 0 95.167 14 129.5 42s51.5 66.667 51.5 116c0 58.667 -23.5 105.834 -70.5 141.501s-106.5 73.5 -178.5 113.5c-34 19.333 -66.5 39.333 -97.5 60s-58.167 43.667 -81.5 69
s-41.833 53.833 -55.5 85.5s-20.5 67.834 -20.5 108.501c0 41.333 7.16699 79.166 21.5 113.499s33.333 65 57 92s51.167 50.833 82.5 71.5s63.666 38.334 96.999 53.001c10 30 17 60 21 90s6 57.333 6 82c0 85.333 -21.667 155.333 -65 210s-108.333 82 -195 82
c-75.333 0 -135.333 -25.833 -180 -77.5s-67 -139.167 -67 -262.5v-1280h-433v115l118 20c16.667 2.66699 29.5 9 38.5 19s13.5 23.333 13.5 40v778l-185 27v109l185 30v68c0 81.333 16.333 158 49 230s76.334 134.667 131.001 188s118.334 95.5 191.001 126.5
s148.334 46.5 227.001 46.5c60 0 116.833 -9.66699 170.5 -29s100.334 -47 140.001 -83s71.167 -80.167 94.5 -132.5s35.333 -110.833 36 -175.5c0 -42.667 -4.66699 -87.167 -14 -133.5s-21.333 -89.5 -36 -129.5c-78.667 -18.667 -140.834 -46.167 -186.501 -82.5
s-68.5 -79.5 -68.5 -129.5c0 -48.667 20.833 -88.167 62.5 -118.5s96.834 -64.5 165.501 -102.5c85.333 -47.333 153.833 -97 205.5 -149s77.5 -121.667 77.5 -209c0 -56.667 -11.5 -107 -34.5 -151s-54.667 -80.667 -95 -110s-88 -51.666 -143 -66.999
s-114.167 -23 -177.5 -23z" />
    <glyph glyph-name="agrave" unicode="&#xe0;" horiz-adv-x="1221" 
d="M514 138c42 0 83.999 7.33203 125.999 21.999s78.333 34.334 109 59.001v260l-164 -13c-75.333 -5.33301 -131.166 -23.333 -167.499 -54s-54.5 -73.667 -54.5 -129c0 -46.667 12.167 -82.5 36.5 -107.5s62.5 -37.5 114.5 -37.5zM962.999 -18.001
c-51.333 0 -94.168 11.3311 -128.501 33.998s-58.833 58 -73.5 106c-40.667 -44 -91.5 -79.167 -152.5 -105.5s-126.833 -39.5 -197.5 -39.5c-94.667 0 -172.334 24.333 -233.001 73s-91 116.667 -91 204c0 56.667 13 104.834 39 144.501s59.833 72 101.5 97
s88.834 44 141.501 57s105.667 21.5 159 25.5l221 16v128c0 96 -20 163 -60 201s-99.667 57 -179 57c-62 0 -120.667 -10.167 -176 -30.5s-106 -52.166 -152 -95.499l-62 58c28.667 79.333 84.834 141 168.501 185s182.834 66 297.501 66c142 0 247.333 -34.833 316 -104.5
s103 -174.5 103 -314.5v-542c0 -21.333 4.83301 -36.833 14.5 -46.5s23.5 -15.167 41.5 -16.5l109 -11v-108c-20 -6.66699 -50.833 -14.667 -92.5 -24s-79.834 -14 -114.501 -14zM435.997 1778l363 -432l-78 -89c-44 26.667 -88 56 -132 88s-85.667 64.333 -125 97
s-75.5 65.5 -108.5 98.5s-60.5 63.833 -82.5 92.5z" />
    <glyph glyph-name="aacute" unicode="&#xe1;" horiz-adv-x="1221" 
d="M514 138c42 0 83.999 7.33203 125.999 21.999s78.333 34.334 109 59.001v260l-164 -13c-75.333 -5.33301 -131.166 -23.333 -167.499 -54s-54.5 -73.667 -54.5 -129c0 -46.667 12.167 -82.5 36.5 -107.5s62.5 -37.5 114.5 -37.5zM962.999 -18.001
c-51.333 0 -94.168 11.3311 -128.501 33.998s-58.833 58 -73.5 106c-40.667 -44 -91.5 -79.167 -152.5 -105.5s-126.833 -39.5 -197.5 -39.5c-94.667 0 -172.334 24.333 -233.001 73s-91 116.667 -91 204c0 56.667 13 104.834 39 144.501s59.833 72 101.5 97
s88.834 44 141.501 57s105.667 21.5 159 25.5l221 16v128c0 96 -20 163 -60 201s-99.667 57 -179 57c-62 0 -120.667 -10.167 -176 -30.5s-106 -52.166 -152 -95.499l-62 58c28.667 79.333 84.834 141 168.501 185s182.834 66 297.501 66c142 0 247.333 -34.833 316 -104.5
s103 -174.5 103 -314.5v-542c0 -21.333 4.83301 -36.833 14.5 -46.5s23.5 -15.167 41.5 -16.5l109 -11v-108c-20 -6.66699 -50.833 -14.667 -92.5 -24s-79.834 -14 -114.501 -14zM490.997 1257l-74 84.001l374 437l163 -145c-22 -28.667 -50.167 -59.334 -84.5 -92.001
s-72 -65.5 -113 -98.5s-84.5 -65.5 -130.5 -97.5s-91 -61.333 -135 -88z" />
    <glyph glyph-name="acircumflex" unicode="&#xe2;" horiz-adv-x="1221" 
d="M514 138c42 0 83.999 7.33203 125.999 21.999s78.333 34.334 109 59.001v260l-164 -13c-75.333 -5.33301 -131.166 -23.333 -167.499 -54s-54.5 -73.667 -54.5 -129c0 -46.667 12.167 -82.5 36.5 -107.5s62.5 -37.5 114.5 -37.5zM962.999 -18.001
c-51.333 0 -94.168 11.3311 -128.501 33.998s-58.833 58 -73.5 106c-40.667 -44 -91.5 -79.167 -152.5 -105.5s-126.833 -39.5 -197.5 -39.5c-94.667 0 -172.334 24.333 -233.001 73s-91 116.667 -91 204c0 56.667 13 104.834 39 144.501s59.833 72 101.5 97
s88.834 44 141.501 57s105.667 21.5 159 25.5l221 16v128c0 96 -20 163 -60 201s-99.667 57 -179 57c-62 0 -120.667 -10.167 -176 -30.5s-106 -52.166 -152 -95.499l-62 58c28.667 79.333 84.834 141 168.501 185s182.834 66 297.501 66c142 0 247.333 -34.833 316 -104.5
s103 -174.5 103 -314.5v-542c0 -21.333 4.83301 -36.833 14.5 -46.5s23.5 -15.167 41.5 -16.5l109 -11v-108c-20 -6.66699 -50.833 -14.667 -92.5 -24s-79.834 -14 -114.501 -14zM284.997 1261l-87 79l284 389l185 16l315 -398l-93 -85l-314 269z" />
    <glyph glyph-name="atilde" unicode="&#xe3;" horiz-adv-x="1221" 
d="M514 138c42 0 83.999 7.33203 125.999 21.999s78.333 34.334 109 59.001v260l-164 -13c-75.333 -5.33301 -131.166 -23.333 -167.499 -54s-54.5 -73.667 -54.5 -129c0 -46.667 12.167 -82.5 36.5 -107.5s62.5 -37.5 114.5 -37.5zM962.999 -18.001
c-51.333 0 -94.168 11.3311 -128.501 33.998s-58.833 58 -73.5 106c-40.667 -44 -91.5 -79.167 -152.5 -105.5s-126.833 -39.5 -197.5 -39.5c-94.667 0 -172.334 24.333 -233.001 73s-91 116.667 -91 204c0 56.667 13 104.834 39 144.501s59.833 72 101.5 97
s88.834 44 141.501 57s105.667 21.5 159 25.5l221 16v128c0 96 -20 163 -60 201s-99.667 57 -179 57c-62 0 -120.667 -10.167 -176 -30.5s-106 -52.166 -152 -95.499l-62 58c28.667 79.333 84.834 141 168.501 185s182.834 66 297.501 66c142 0 247.333 -34.833 316 -104.5
s103 -174.5 103 -314.5v-542c0 -21.333 4.83301 -36.833 14.5 -46.5s23.5 -15.167 41.5 -16.5l109 -11v-108c-20 -6.66699 -50.833 -14.667 -92.5 -24s-79.834 -14 -114.501 -14zM1013 1563c-9.33301 -33.333 -22.166 -66.1689 -38.499 -98.502
s-36.166 -61.166 -59.499 -86.499s-50.166 -45.833 -80.499 -61.5s-63.833 -23.5 -100.5 -23.5c-36 0 -68.833 7.33301 -98.5 22s-57.5 30.667 -83.5 48l-74.5 48c-23.667 14.667 -47.834 22 -72.501 22c-32.667 0 -62.167 -13.667 -88.5 -41
s-49.166 -56.666 -68.499 -87.999l-85 48c9.33301 33.333 22.166 66.333 38.499 99s36.166 61.667 59.499 87s50.166 45.833 80.499 61.5s63.5 23.5 99.5 23.5s69 -7.33301 99 -22s57.833 -30.667 83.5 -48s50.5 -33.333 74.5 -48s48 -22 72 -22
c32.667 0 62.167 13.5 88.5 40.5s49.5 56.5 69.5 88.5z" />
    <glyph glyph-name="adieresis" unicode="&#xe4;" horiz-adv-x="1221" 
d="M514 138c42 0 83.999 7.33203 125.999 21.999s78.333 34.334 109 59.001v260l-164 -13c-75.333 -5.33301 -131.166 -23.333 -167.499 -54s-54.5 -73.667 -54.5 -129c0 -46.667 12.167 -82.5 36.5 -107.5s62.5 -37.5 114.5 -37.5zM962.999 -18.001
c-51.333 0 -94.168 11.3311 -128.501 33.998s-58.833 58 -73.5 106c-40.667 -44 -91.5 -79.167 -152.5 -105.5s-126.833 -39.5 -197.5 -39.5c-94.667 0 -172.334 24.333 -233.001 73s-91 116.667 -91 204c0 56.667 13 104.834 39 144.501s59.833 72 101.5 97
s88.834 44 141.501 57s105.667 21.5 159 25.5l221 16v128c0 96 -20 163 -60 201s-99.667 57 -179 57c-62 0 -120.667 -10.167 -176 -30.5s-106 -52.166 -152 -95.499l-62 58c28.667 79.333 84.834 141 168.501 185s182.834 66 297.501 66c142 0 247.333 -34.833 316 -104.5
s103 -174.5 103 -314.5v-542c0 -21.333 4.83301 -36.833 14.5 -46.5s23.5 -15.167 41.5 -16.5l109 -11v-108c-20 -6.66699 -50.833 -14.667 -92.5 -24s-79.834 -14 -114.501 -14zM957.997 1470c0 -43.333 -13.167 -78.5 -39.5 -105.5s-60.5 -40.5 -102.5 -40.5
s-76.167 13.5 -102.5 40.5s-39.5 62.167 -39.5 105.5c0 42.667 13.167 77.5 39.5 104.5s60.5 40.5 102.5 40.5s76.167 -13.5 102.5 -40.5s39.5 -61.833 39.5 -104.5zM499.997 1470c0 -43.333 -13 -78.5 -39 -105.5s-60 -40.5 -102 -40.5c-42.667 0 -77.167 13.5 -103.5 40.5
s-39.5 62.167 -39.5 105.5c0 42.667 13.167 77.5 39.5 104.5s60.833 40.5 103.5 40.5c42 0 76 -13.5 102 -40.5s39 -61.833 39 -104.5z" />
    <glyph glyph-name="aring" unicode="&#xe5;" horiz-adv-x="1221" 
d="M514 138c42 0 83.999 7.33203 125.999 21.999s78.333 34.334 109 59.001v260l-164 -13c-75.333 -5.33301 -131.166 -23.333 -167.499 -54s-54.5 -73.667 -54.5 -129c0 -46.667 12.167 -82.5 36.5 -107.5s62.5 -37.5 114.5 -37.5zM962.999 -18.001
c-51.333 0 -94.168 11.3311 -128.501 33.998s-58.833 58 -73.5 106c-40.667 -44 -91.5 -79.167 -152.5 -105.5s-126.833 -39.5 -197.5 -39.5c-94.667 0 -172.334 24.333 -233.001 73s-91 116.667 -91 204c0 56.667 13 104.834 39 144.501s59.833 72 101.5 97
s88.834 44 141.501 57s105.667 21.5 159 25.5l221 16v128c0 96 -20 163 -60 201s-99.667 57 -179 57c-62 0 -120.667 -10.167 -176 -30.5s-106 -52.166 -152 -95.499l-62 58c28.667 79.333 84.834 141 168.501 185s182.834 66 297.501 66c142 0 247.333 -34.833 316 -104.5
s103 -174.5 103 -314.5v-542c0 -21.333 4.83301 -36.833 14.5 -46.5s23.5 -15.167 41.5 -16.5l109 -11v-108c-20 -6.66699 -50.833 -14.667 -92.5 -24s-79.834 -14 -114.501 -14zM868.997 1520c0 -37.333 -7.49902 -70.999 -22.499 -100.999s-35.333 -55.333 -61 -76
s-55.834 -36.667 -90.501 -48s-71 -17 -109 -17c-89.333 0 -158.166 22.667 -206.499 68s-72.166 104.666 -71.499 177.999c0 36 8.16699 68.667 24.5 98s37.666 54.333 63.999 75s57 36.5 92 47.5s71.5 16.5 109.5 16.5c88.667 0 156.167 -23 202.5 -69
s69.166 -103.333 68.499 -172zM467.998 1524c0 -34 10.001 -64.667 30.001 -92s50.667 -41 92 -41c38.667 0 68.167 10.667 88.5 32s30.833 52 31.5 92c0 34.667 -9.5 65.167 -28.5 91.5s-49.167 39.5 -90.5 39.5c-38.667 0 -68.834 -10.833 -90.501 -32.5
s-32.5 -51.5 -32.5 -89.5z" />
    <glyph glyph-name="ae" unicode="&#xe6;" horiz-adv-x="1815" 
d="M1254 1041c-62 0 -114 -23 -156 -69s-69 -121.667 -81 -227h441c0.666992 7.33301 1.16699 14.833 1.5 22.5s0.5 15.834 0.5 24.501c0 73.333 -17.667 133.166 -53 179.499s-86.333 69.5 -153 69.5zM1706 249c-13.333 -43.333 -34.334 -81.998 -63.001 -115.998
s-62.667 -62.667 -102 -86s-83.5 -41.166 -132.5 -53.499s-100.5 -18.5 -154.5 -18.5c-96.667 0 -179.167 17.833 -247.5 53.5s-122.5 84.5 -162.5 146.5c-45.333 -62.667 -105.5 -111.334 -180.5 -146.001s-155.5 -52 -241.5 -52c-102.667 0 -184.167 24.333 -244.5 73
s-90.5 116 -90.5 202c0 56.667 13 105.167 39 145.5s59.667 73.166 101 98.499s88.5 44.666 141.5 57.999s106.167 21.666 159.5 24.999l221 15v128c0 94 -21.5 160.5 -64.5 199.5s-103.5 58.5 -181.5 58.5c-54.667 0 -110.167 -10 -166.5 -30s-107.833 -52 -154.5 -96
l-62 58c14 40.667 35.833 76.667 65.5 108s64.334 57.5 104.001 78.5s83.5 37 131.5 48s97 16.5 147 16.5c81.333 0 148.833 -13.167 202.5 -39.5s95.834 -63.833 126.501 -112.5c45.333 50 100.666 88.667 165.999 116s139 41 221 41c132.667 0 237.167 -34.5 313.5 -103.5
s114.5 -164.833 114.5 -287.5c0 -21.333 -1.16699 -45.666 -3.5 -72.999s-5.83301 -52 -10.5 -74h-688v-7.5v-7.5c0 -173.333 29.5 -294.333 88.5 -363s135.167 -103 228.5 -103c59.333 0 117 12.833 173 38.5s100.333 61.5 133 107.5zM514.999 138.002
c46 0 94.833 9.83301 146.5 29.5s98.5 48.5 140.5 86.5c-13.333 32.667 -24.333 68 -33 106s-14.334 77.667 -17.001 119l-167 -13c-75.333 -5.33301 -131.166 -23.5 -167.499 -54.5s-54.5 -73.833 -54.5 -128.5c0 -46.667 12.167 -82.5 36.5 -107.5
s62.833 -37.5 115.5 -37.5z" />
    <glyph glyph-name="ccedilla" unicode="&#xe7;" horiz-adv-x="1132" 
d="M100 556c0 92 12.835 175.835 38.502 251.502s62.5 140 110.5 193s107.167 94.167 177.5 123.5s149.5 44 237.5 44c66 0 132.167 -7.33301 198.5 -22s120.5 -33 162.5 -55c4 -57.333 3.83301 -117.166 -0.5 -179.499s-11.5 -120.833 -21.5 -175.5h-131l-47 178
c-5.33301 20.667 -11 37.167 -17 49.5s-14.667 23.5 -26 33.5c-14.667 12.667 -33.834 23 -57.501 31s-49.834 12 -78.501 12c-79.333 0 -142.333 -35.333 -189 -106s-70 -181 -70 -331c0 -151.333 26 -264.833 78 -340.5s128.667 -113.5 230 -113.5
c61.333 0 115.666 11.667 162.999 35s85.333 49.666 114 78.999l66 -57c-29.333 -68.667 -80.833 -124.334 -154.5 -167.001s-163.167 -64 -268.5 -64c-86 0 -161.5 14.833 -226.5 44.5s-118.667 70.167 -161 121.5s-74.166 112.666 -95.499 183.999s-32 148.333 -32 231z
M541.002 51.002l102.002 0.00195312l-42 -139c4.66699 0 10.5 -0.166992 17.5 -0.5s14.167 -0.833008 21.5 -1.5c50 -4.66699 91.333 -22.667 124 -54s49 -73 49 -125c0 -37.333 -9.33301 -71.5 -28 -102.5s-44.334 -57.5 -77.001 -79.5s-71.5 -39.167 -116.5 -51.5
s-93.833 -18.5 -146.5 -18.5c-10 0 -18.333 0.166992 -25 0.5s-14.334 0.5 -23.001 0.5l-14 97c67.333 5.33301 118.833 21.666 154.5 48.999s53.5 59 53.5 95c0 33.333 -13 57.666 -39 72.999s-56 23.333 -90 24z" />
    <glyph glyph-name="egrave" unicode="&#xe8;" horiz-adv-x="1181" 
d="M618 1043c-62.667 0 -114.5 -23.001 -155.5 -69.001s-67.5 -122.333 -79.5 -229h441c0.666992 7.33301 1.16699 14.833 1.5 22.5s0.5 15.834 0.5 24.501c0 73.333 -17.833 133.5 -53.5 180.5s-87.167 70.5 -154.5 70.5zM1072 248.999
c-26.667 -83.333 -80.001 -149.834 -160.001 -199.501s-178 -74.5 -294 -74.5c-87.333 0 -163.5 14.333 -228.5 43s-118.667 68.5 -161 119.5s-74 112.333 -95 184s-31.5 150.5 -31.5 236.5c0 193.333 49 343.333 147 450s230.667 160 398 160
c135.333 0 241 -34.667 317 -104s114 -165.333 114 -288c0 -20.667 -1.16699 -44.667 -3.5 -72s-5.83301 -52 -10.5 -74h-688v-9v-10c0 -169.333 28.167 -288.666 84.5 -357.999s133.833 -104 232.5 -104c62 0 120.333 12.833 175 38.5s98.334 61.5 131.001 107.5z
M465.999 1778l363 -432l-78 -89c-44 26.667 -88 56 -132 88s-85.667 64.333 -125 97s-75.5 65.5 -108.5 98.5s-60.5 63.833 -82.5 92.5z" />
    <glyph glyph-name="eacute" unicode="&#xe9;" horiz-adv-x="1181" 
d="M618 1043c-62.667 0 -114.5 -23.001 -155.5 -69.001s-67.5 -122.333 -79.5 -229h441c0.666992 7.33301 1.16699 14.833 1.5 22.5s0.5 15.834 0.5 24.501c0 73.333 -17.833 133.5 -53.5 180.5s-87.167 70.5 -154.5 70.5zM1072 248.999
c-26.667 -83.333 -80.001 -149.834 -160.001 -199.501s-178 -74.5 -294 -74.5c-87.333 0 -163.5 14.333 -228.5 43s-118.667 68.5 -161 119.5s-74 112.333 -95 184s-31.5 150.5 -31.5 236.5c0 193.333 49 343.333 147 450s230.667 160 398 160
c135.333 0 241 -34.667 317 -104s114 -165.333 114 -288c0 -20.667 -1.16699 -44.667 -3.5 -72s-5.83301 -52 -10.5 -74h-688v-9v-10c0 -169.333 28.167 -288.666 84.5 -357.999s133.833 -104 232.5 -104c62 0 120.333 12.833 175 38.5s98.334 61.5 131.001 107.5z
M520.999 1257l-74 84.001l374 437l163 -145c-22 -28.667 -50.167 -59.334 -84.5 -92.001s-72 -65.5 -113 -98.5s-84.5 -65.5 -130.5 -97.5s-91 -61.333 -135 -88z" />
    <glyph glyph-name="ecircumflex" unicode="&#xea;" horiz-adv-x="1181" 
d="M618 1043c-62.667 0 -114.5 -23.001 -155.5 -69.001s-67.5 -122.333 -79.5 -229h441c0.666992 7.33301 1.16699 14.833 1.5 22.5s0.5 15.834 0.5 24.501c0 73.333 -17.833 133.5 -53.5 180.5s-87.167 70.5 -154.5 70.5zM1072 248.999
c-26.667 -83.333 -80.001 -149.834 -160.001 -199.501s-178 -74.5 -294 -74.5c-87.333 0 -163.5 14.333 -228.5 43s-118.667 68.5 -161 119.5s-74 112.333 -95 184s-31.5 150.5 -31.5 236.5c0 193.333 49 343.333 147 450s230.667 160 398 160
c135.333 0 241 -34.667 317 -104s114 -165.333 114 -288c0 -20.667 -1.16699 -44.667 -3.5 -72s-5.83301 -52 -10.5 -74h-688v-9v-10c0 -169.333 28.167 -288.666 84.5 -357.999s133.833 -104 232.5 -104c62 0 120.333 12.833 175 38.5s98.334 61.5 131.001 107.5z
M314.999 1261l-87 79l284 389l185 16l315 -398l-93 -85l-314 269z" />
    <glyph glyph-name="edieresis" unicode="&#xeb;" horiz-adv-x="1181" 
d="M618 1043c-62.667 0 -114.5 -23.001 -155.5 -69.001s-67.5 -122.333 -79.5 -229h441c0.666992 7.33301 1.16699 14.833 1.5 22.5s0.5 15.834 0.5 24.501c0 73.333 -17.833 133.5 -53.5 180.5s-87.167 70.5 -154.5 70.5zM1072 248.999
c-26.667 -83.333 -80.001 -149.834 -160.001 -199.501s-178 -74.5 -294 -74.5c-87.333 0 -163.5 14.333 -228.5 43s-118.667 68.5 -161 119.5s-74 112.333 -95 184s-31.5 150.5 -31.5 236.5c0 193.333 49 343.333 147 450s230.667 160 398 160
c135.333 0 241 -34.667 317 -104s114 -165.333 114 -288c0 -20.667 -1.16699 -44.667 -3.5 -72s-5.83301 -52 -10.5 -74h-688v-9v-10c0 -169.333 28.167 -288.666 84.5 -357.999s133.833 -104 232.5 -104c62 0 120.333 12.833 175 38.5s98.334 61.5 131.001 107.5z
M987.999 1470c0 -43.333 -13.167 -78.5 -39.5 -105.5s-60.5 -40.5 -102.5 -40.5s-76.167 13.5 -102.5 40.5s-39.5 62.167 -39.5 105.5c0 42.667 13.167 77.5 39.5 104.5s60.5 40.5 102.5 40.5s76.167 -13.5 102.5 -40.5s39.5 -61.833 39.5 -104.5zM529.999 1470
c0 -43.333 -13 -78.5 -39 -105.5s-60 -40.5 -102 -40.5c-42.667 0 -77.167 13.5 -103.5 40.5s-39.5 62.167 -39.5 105.5c0 42.667 13.167 77.5 39.5 104.5s60.833 40.5 103.5 40.5c42 0 76 -13.5 102 -40.5s39 -61.833 39 -104.5z" />
    <glyph glyph-name="igrave" unicode="&#xec;" horiz-adv-x="758" 
d="M525 1127v-931.004c0 -17.333 4.5 -31.166 13.5 -41.499s21.833 -16.833 38.5 -19.5l118 -19v-116h-603v116l118 19c16.667 2.66699 29.5 9.16699 38.5 19.5s13.5 23.833 13.5 40.5v717c0 16.667 -4.16699 30.334 -12.5 41.001s-20.5 17.334 -36.5 20.001l-134 21v115
c62 18 130.167 31.333 204.5 40s142.5 13.334 204.5 14.001zM198 1778l363 -432l-78 -89c-44 26.667 -88 56 -132 88s-85.667 64.333 -125 97s-75.5 65.5 -108.5 98.5s-60.5 63.833 -82.5 92.5z" />
    <glyph glyph-name="iacute" unicode="&#xed;" horiz-adv-x="758" 
d="M525 1127v-931.004c0 -17.333 4.5 -31.166 13.5 -41.499s21.833 -16.833 38.5 -19.5l118 -19v-116h-603v116l118 19c16.667 2.66699 29.5 9.16699 38.5 19.5s13.5 23.833 13.5 40.5v717c0 16.667 -4.16699 30.334 -12.5 41.001s-20.5 17.334 -36.5 20.001l-134 21v115
c62 18 130.167 31.333 204.5 40s142.5 13.334 204.5 14.001zM253 1257l-74 84.001l374 437l163 -145c-22 -28.667 -50.167 -59.334 -84.5 -92.001s-72 -65.5 -113 -98.5s-84.5 -65.5 -130.5 -97.5s-91 -61.333 -135 -88z" />
    <glyph glyph-name="icircumflex" unicode="&#xee;" horiz-adv-x="758" 
d="M525 1127v-931.004c0 -17.333 4.5 -31.166 13.5 -41.499s21.833 -16.833 38.5 -19.5l118 -19v-116h-603v116l118 19c16.667 2.66699 29.5 9.16699 38.5 19.5s13.5 23.833 13.5 40.5v717c0 16.667 -4.16699 30.334 -12.5 41.001s-20.5 17.334 -36.5 20.001l-134 21v115
c62 18 130.167 31.333 204.5 40s142.5 13.334 204.5 14.001zM82 1262l-87 74l249 388l185 17l280 -399l-93 -79l-279 269z" />
    <glyph glyph-name="idieresis" unicode="&#xef;" horiz-adv-x="758" 
d="M525 1127v-931.004c0 -17.333 4.5 -31.166 13.5 -41.499s21.833 -16.833 38.5 -19.5l118 -19v-116h-603v116l118 19c16.667 2.66699 29.5 9.16699 38.5 19.5s13.5 23.833 13.5 40.5v717c0 16.667 -4.16699 30.334 -12.5 41.001s-20.5 17.334 -36.5 20.001l-134 21v115
c62 18 130.167 31.333 204.5 40s142.5 13.334 204.5 14.001zM720 1470c0 -43.333 -13.167 -78.5 -39.5 -105.5s-60.5 -40.5 -102.5 -40.5s-76.167 13.5 -102.5 40.5s-39.5 62.167 -39.5 105.5c0 42.667 13.167 77.5 39.5 104.5s60.5 40.5 102.5 40.5
s76.167 -13.5 102.5 -40.5s39.5 -61.833 39.5 -104.5zM262 1470c0 -43.333 -13 -78.5 -39 -105.5s-60 -40.5 -102 -40.5c-42.667 0 -77.167 13.5 -103.5 40.5s-39.5 62.167 -39.5 105.5c0 42.667 13.167 77.5 39.5 104.5s60.833 40.5 103.5 40.5c42 0 76 -13.5 102 -40.5
s39 -61.833 39 -104.5z" />
    <glyph glyph-name="eth" unicode="&#xf0;" horiz-adv-x="1289" 
d="M609 -23c-160 0 -284.333 49.833 -373 149.5s-133 239.834 -133 420.501c0 106 14.5 195.833 43.5 269.5s66 133.167 111 178.5s95.167 78 150.5 98s109 30 161 30c46 0 92 -7.16699 138 -21.5s86.333 -36.833 121 -67.5c-22.667 71.333 -52.5 137.833 -89.5 199.5
s-80.833 119.167 -131.5 172.5l-287 -206l-85 130l269 171c-42.667 34 -89.667 66.833 -141 98.5s-106 61.834 -164 90.501l49 106c79.333 -22 153.833 -49 223.5 -81s133.5 -68 191.5 -108l259 183l86 -128l-230 -143c64.667 -56.667 121.334 -118.834 170.001 -186.501
s89.167 -138.334 121.5 -212.001s56.666 -150.5 72.999 -230.5s24.5 -160.667 24.5 -242c0 -94.667 -10.833 -183 -32.5 -265s-55 -153 -100 -213s-102.833 -107.167 -173.5 -141.5s-154.667 -51.5 -252 -51.5zM637 104c89.333 0 153.5 41.332 192.5 123.999
s58.5 209 58.5 379c0 47.333 -1.83301 93.166 -5.5 137.499s-8.83398 86.833 -15.501 127.5c-29.333 30.667 -63.5 54.334 -102.5 71.001s-80.5 25 -124.5 25c-74.667 0 -135 -30.833 -181 -92.5s-69 -171.5 -69 -329.5c0 -63.333 4.16699 -122 12.5 -176
s22 -100.667 41 -140s44.333 -70.166 76 -92.499s70.834 -33.5 117.501 -33.5z" />
    <glyph glyph-name="ntilde" unicode="&#xf1;" horiz-adv-x="1469" 
d="M671 115l-0.00292969 -115.003h-579v115l119 20c16.667 2.66699 29.334 9.16699 38.001 19.5s13 23.833 13 40.5v717c0 16.667 -4.16699 30.334 -12.5 41.001s-20.5 17.334 -36.5 20.001l-134 21v115c60 16.667 123.333 29.834 190 39.501s129 14.834 187 15.501l41 -39
l16 -118c53.333 56 113.333 96 180 120s136.667 36 210 36c132.667 0 223.334 -38 272.001 -114s73 -183 73 -321v-533c0 -16.667 4.33301 -30.167 13 -40.5s21.334 -16.833 38.001 -19.5l119 -19v-116h-579v115l95 20c15.333 4 27.666 10.5 36.999 19.5s14 22.5 14 40.5
v493c0 104.667 -14.667 181.667 -44 231s-82.666 74 -159.999 74c-44 0 -88.167 -6.66699 -132.5 -20s-85.5 -33.333 -123.5 -60v-718c0 -16.667 4.33301 -29.834 13 -39.501s21 -16.5 37 -20.5zM1165 1563c-9.33301 -33.333 -22.166 -66.1689 -38.499 -98.502
s-36.166 -61.166 -59.499 -86.499s-50.166 -45.833 -80.499 -61.5s-63.833 -23.5 -100.5 -23.5c-36 0 -68.833 7.33301 -98.5 22s-57.5 30.667 -83.5 48l-74.5 48c-23.667 14.667 -47.834 22 -72.501 22c-32.667 0 -62.167 -13.667 -88.5 -41
s-49.166 -56.666 -68.499 -87.999l-85 48c9.33301 33.333 22.166 66.333 38.499 99s36.166 61.667 59.499 87s50.166 45.833 80.499 61.5s63.5 23.5 99.5 23.5s69 -7.33301 99 -22s57.833 -30.667 83.5 -48s50.5 -33.333 74.5 -48s48 -22 72 -22
c32.667 0 62.167 13.5 88.5 40.5s49.5 56.5 69.5 88.5z" />
    <glyph glyph-name="ograve" unicode="&#xf2;" horiz-adv-x="1297" 
d="M102 563c0 107.333 14.668 199.333 44.001 276s69.333 139.334 120 188.001s110.5 84.334 179.5 107.001s142.5 34 220.5 34c176.667 0 308.834 -52 396.501 -156s131.5 -248 131.5 -432c0 -107.333 -14.667 -199.333 -44 -276s-69.333 -139.334 -120 -188.001
s-110.334 -84.334 -179.001 -107.001s-142.334 -34 -221.001 -34c-176 0 -308 52 -396 156s-132 248 -132 432zM907.001 558c0 156 -18.833 275.665 -56.5 358.998s-107.167 125 -208.5 125c-85.333 0 -148.666 -35.167 -189.999 -105.5s-62 -187.166 -62 -350.499
c0 -155.333 18.667 -274.833 56 -358.5s107 -125.5 209 -125.5c85.333 0 148.666 35.333 189.999 106s62 187.334 62 350.001zM497.001 1778l363 -432l-78 -89c-44 26.667 -88 56 -132 88s-85.667 64.333 -125 97s-75.5 65.5 -108.5 98.5s-60.5 63.833 -82.5 92.5z" />
    <glyph glyph-name="oacute" unicode="&#xf3;" horiz-adv-x="1297" 
d="M102 563c0 107.333 14.668 199.333 44.001 276s69.333 139.334 120 188.001s110.5 84.334 179.5 107.001s142.5 34 220.5 34c176.667 0 308.834 -52 396.501 -156s131.5 -248 131.5 -432c0 -107.333 -14.667 -199.333 -44 -276s-69.333 -139.334 -120 -188.001
s-110.334 -84.334 -179.001 -107.001s-142.334 -34 -221.001 -34c-176 0 -308 52 -396 156s-132 248 -132 432zM907.001 558c0 156 -18.833 275.665 -56.5 358.998s-107.167 125 -208.5 125c-85.333 0 -148.666 -35.167 -189.999 -105.5s-62 -187.166 -62 -350.499
c0 -155.333 18.667 -274.833 56 -358.5s107 -125.5 209 -125.5c85.333 0 148.666 35.333 189.999 106s62 187.334 62 350.001zM552.001 1257l-74 84.001l374 437l163 -145c-22 -28.667 -50.167 -59.334 -84.5 -92.001s-72 -65.5 -113 -98.5s-84.5 -65.5 -130.5 -97.5
s-91 -61.333 -135 -88z" />
    <glyph glyph-name="ocircumflex" unicode="&#xf4;" horiz-adv-x="1297" 
d="M102 563c0 107.333 14.668 199.333 44.001 276s69.333 139.334 120 188.001s110.5 84.334 179.5 107.001s142.5 34 220.5 34c176.667 0 308.834 -52 396.501 -156s131.5 -248 131.5 -432c0 -107.333 -14.667 -199.333 -44 -276s-69.333 -139.334 -120 -188.001
s-110.334 -84.334 -179.001 -107.001s-142.334 -34 -221.001 -34c-176 0 -308 52 -396 156s-132 248 -132 432zM907.001 558c0 156 -18.833 275.665 -56.5 358.998s-107.167 125 -208.5 125c-85.333 0 -148.666 -35.167 -189.999 -105.5s-62 -187.166 -62 -350.499
c0 -155.333 18.667 -274.833 56 -358.5s107 -125.5 209 -125.5c85.333 0 148.666 35.333 189.999 106s62 187.334 62 350.001zM346.001 1261l-87 79l284 389l185 16l315 -398l-93 -85l-314 269z" />
    <glyph glyph-name="otilde" unicode="&#xf5;" horiz-adv-x="1297" 
d="M102 563c0 107.333 14.668 199.333 44.001 276s69.333 139.334 120 188.001s110.5 84.334 179.5 107.001s142.5 34 220.5 34c176.667 0 308.834 -52 396.501 -156s131.5 -248 131.5 -432c0 -107.333 -14.667 -199.333 -44 -276s-69.333 -139.334 -120 -188.001
s-110.334 -84.334 -179.001 -107.001s-142.334 -34 -221.001 -34c-176 0 -308 52 -396 156s-132 248 -132 432zM907.001 558c0 156 -18.833 275.665 -56.5 358.998s-107.167 125 -208.5 125c-85.333 0 -148.666 -35.167 -189.999 -105.5s-62 -187.166 -62 -350.499
c0 -155.333 18.667 -274.833 56 -358.5s107 -125.5 209 -125.5c85.333 0 148.666 35.333 189.999 106s62 187.334 62 350.001zM1074 1563c-9.33301 -33.333 -22.166 -66.1689 -38.499 -98.502s-36.166 -61.166 -59.499 -86.499s-50.166 -45.833 -80.499 -61.5
s-63.833 -23.5 -100.5 -23.5c-36 0 -68.833 7.33301 -98.5 22s-57.5 30.667 -83.5 48l-74.5 48c-23.667 14.667 -47.834 22 -72.501 22c-32.667 0 -62.167 -13.667 -88.5 -41s-49.166 -56.666 -68.499 -87.999l-85 48c9.33301 33.333 22.166 66.333 38.499 99
s36.166 61.667 59.499 87s50.166 45.833 80.499 61.5s63.5 23.5 99.5 23.5s69 -7.33301 99 -22s57.833 -30.667 83.5 -48s50.5 -33.333 74.5 -48s48 -22 72 -22c32.667 0 62.167 13.5 88.5 40.5s49.5 56.5 69.5 88.5z" />
    <glyph glyph-name="odieresis" unicode="&#xf6;" horiz-adv-x="1297" 
d="M102 563c0 107.333 14.668 199.333 44.001 276s69.333 139.334 120 188.001s110.5 84.334 179.5 107.001s142.5 34 220.5 34c176.667 0 308.834 -52 396.501 -156s131.5 -248 131.5 -432c0 -107.333 -14.667 -199.333 -44 -276s-69.333 -139.334 -120 -188.001
s-110.334 -84.334 -179.001 -107.001s-142.334 -34 -221.001 -34c-176 0 -308 52 -396 156s-132 248 -132 432zM907.001 558c0 156 -18.833 275.665 -56.5 358.998s-107.167 125 -208.5 125c-85.333 0 -148.666 -35.167 -189.999 -105.5s-62 -187.166 -62 -350.499
c0 -155.333 18.667 -274.833 56 -358.5s107 -125.5 209 -125.5c85.333 0 148.666 35.333 189.999 106s62 187.334 62 350.001zM1019 1470c0 -43.333 -13.167 -78.5 -39.5 -105.5s-60.5 -40.5 -102.5 -40.5s-76.167 13.5 -102.5 40.5s-39.5 62.167 -39.5 105.5
c0 42.667 13.167 77.5 39.5 104.5s60.5 40.5 102.5 40.5s76.167 -13.5 102.5 -40.5s39.5 -61.833 39.5 -104.5zM561.001 1470c0 -43.333 -13 -78.5 -39 -105.5s-60 -40.5 -102 -40.5c-42.667 0 -77.167 13.5 -103.5 40.5s-39.5 62.167 -39.5 105.5
c0 42.667 13.167 77.5 39.5 104.5s60.833 40.5 103.5 40.5c42 0 76 -13.5 102 -40.5s39 -61.833 39 -104.5z" />
    <glyph glyph-name="divide" unicode="&#xf7;" horiz-adv-x="1187" 
d="M740 981c0 -40 -13.5 -72.667 -40.5 -98s-62.5 -38 -106.5 -38c-43.333 0 -78.5 12.667 -105.5 38s-40.5 58 -40.5 98c0 40.667 13.5 73.667 40.5 99s62.167 38 105.5 38c44 0 79.5 -12.667 106.5 -38s40.5 -58.333 40.5 -99zM1055 533h-922v170h922v-170zM740 254
c0 -40 -13.5 -72.833 -40.5 -98.5s-62.5 -38.5 -106.5 -38.5c-43.333 0 -78.5 12.833 -105.5 38.5s-40.5 58.5 -40.5 98.5c0 40.667 13.5 73.667 40.5 99s62.167 38 105.5 38c44 0 79.5 -12.667 106.5 -38s40.5 -58.333 40.5 -99z" />
    <glyph glyph-name="oslash" unicode="&#xf8;" horiz-adv-x="1297" 
d="M372 586c0 -77.333 4.5 -146 13.5 -206s23.833 -110.333 44.5 -151l361 774c-19.333 13.333 -41.5 23.5 -66.5 30.5s-52.833 10.5 -83.5 10.5c-88.667 0 -155.667 -35.333 -201 -106s-68 -188 -68 -352zM655 100c88.667 0 155.667 35.332 201 105.999s68 188 68 352
c0 74.667 -4.16699 141.334 -12.5 200.001s-22.5 108 -42.5 148l-358 -769c18.667 -12 40 -21.167 64 -27.5s50.667 -9.5 80 -9.5zM630 -25.001c-32.667 0 -63.8301 1.83301 -93.4971 5.5s-57.834 9.16699 -84.501 16.5l-98 -196l-120 63l93 187
c-75.333 46 -131.666 112.667 -168.999 200s-56 191.333 -56 312c0 107.333 14.667 199.333 44 276s69.333 139.334 120 188.001s110.5 84.334 179.5 107.001s142.5 34 220.5 34c34 0 66.5 -2 97.5 -6s60.167 -10 87.5 -18l91 183l121 -63l-88 -175
c73.333 -46.667 128.166 -113.5 164.499 -200.5s54.5 -189.833 54.5 -308.5c0 -107.333 -14.667 -199.333 -44 -276s-69.333 -139.334 -120 -188.001s-110.334 -84.334 -179.001 -107.001s-142.334 -34 -221.001 -34z" />
    <glyph glyph-name="ugrave" unicode="&#xf9;" horiz-adv-x="1412" 
d="M1139 -18c-54.667 0 -98.4951 12.665 -131.495 37.998s-56.833 60 -71.5 104c-43.333 -44.667 -93.333 -80.334 -150 -107.001s-125 -40 -205 -40c-122.667 0 -212.834 33.667 -270.501 101s-86.5 170 -86.5 308v528c0 16.667 -4.16699 30.334 -12.5 41.001
s-20.833 17.334 -37.5 20.001l-118 24v115c60 16 125.667 28 197 36s137 12.333 197 13l37 -36v-700c0 -102.667 14.5 -176.334 43.5 -221.001s80.833 -67 155.5 -67c42 0 82.667 6.5 122 19.5s76.666 32.833 111.999 59.5v697c0 16.667 -4.16699 30.334 -12.5 41.001
s-20.5 17.334 -36.5 20.001l-138 25v115c30.667 7.33301 63.667 14 99 20s71.166 11 107.499 15s72.166 7 107.499 9s68.333 3 99 3l37 -36v-925c0 -22.667 5.16699 -38.5 15.5 -47.5s23.833 -14.167 40.5 -15.5l109 -11v-108c-22.667 -8 -54.334 -16.333 -95.001 -25
s-78.667 -13 -114 -13zM518.005 1778l363 -432l-78 -89c-44 26.667 -88 56 -132 88s-85.667 64.333 -125 97s-75.5 65.5 -108.5 98.5s-60.5 63.833 -82.5 92.5z" />
    <glyph glyph-name="uacute" unicode="&#xfa;" horiz-adv-x="1412" 
d="M1139 -18c-54.667 0 -98.4951 12.665 -131.495 37.998s-56.833 60 -71.5 104c-43.333 -44.667 -93.333 -80.334 -150 -107.001s-125 -40 -205 -40c-122.667 0 -212.834 33.667 -270.501 101s-86.5 170 -86.5 308v528c0 16.667 -4.16699 30.334 -12.5 41.001
s-20.833 17.334 -37.5 20.001l-118 24v115c60 16 125.667 28 197 36s137 12.333 197 13l37 -36v-700c0 -102.667 14.5 -176.334 43.5 -221.001s80.833 -67 155.5 -67c42 0 82.667 6.5 122 19.5s76.666 32.833 111.999 59.5v697c0 16.667 -4.16699 30.334 -12.5 41.001
s-20.5 17.334 -36.5 20.001l-138 25v115c30.667 7.33301 63.667 14 99 20s71.166 11 107.499 15s72.166 7 107.499 9s68.333 3 99 3l37 -36v-925c0 -22.667 5.16699 -38.5 15.5 -47.5s23.833 -14.167 40.5 -15.5l109 -11v-108c-22.667 -8 -54.334 -16.333 -95.001 -25
s-78.667 -13 -114 -13zM573.005 1257l-74 84.001l374 437l163 -145c-22 -28.667 -50.167 -59.334 -84.5 -92.001s-72 -65.5 -113 -98.5s-84.5 -65.5 -130.5 -97.5s-91 -61.333 -135 -88z" />
    <glyph glyph-name="ucircumflex" unicode="&#xfb;" horiz-adv-x="1412" 
d="M1139 -18c-54.667 0 -98.4951 12.665 -131.495 37.998s-56.833 60 -71.5 104c-43.333 -44.667 -93.333 -80.334 -150 -107.001s-125 -40 -205 -40c-122.667 0 -212.834 33.667 -270.501 101s-86.5 170 -86.5 308v528c0 16.667 -4.16699 30.334 -12.5 41.001
s-20.833 17.334 -37.5 20.001l-118 24v115c60 16 125.667 28 197 36s137 12.333 197 13l37 -36v-700c0 -102.667 14.5 -176.334 43.5 -221.001s80.833 -67 155.5 -67c42 0 82.667 6.5 122 19.5s76.666 32.833 111.999 59.5v697c0 16.667 -4.16699 30.334 -12.5 41.001
s-20.5 17.334 -36.5 20.001l-138 25v115c30.667 7.33301 63.667 14 99 20s71.166 11 107.499 15s72.166 7 107.499 9s68.333 3 99 3l37 -36v-925c0 -22.667 5.16699 -38.5 15.5 -47.5s23.833 -14.167 40.5 -15.5l109 -11v-108c-22.667 -8 -54.334 -16.333 -95.001 -25
s-78.667 -13 -114 -13zM367.005 1261l-87 79l284 389l185 16l315 -398l-93 -85l-314 269z" />
    <glyph glyph-name="udieresis" unicode="&#xfc;" horiz-adv-x="1412" 
d="M1139 -18c-54.667 0 -98.4951 12.665 -131.495 37.998s-56.833 60 -71.5 104c-43.333 -44.667 -93.333 -80.334 -150 -107.001s-125 -40 -205 -40c-122.667 0 -212.834 33.667 -270.501 101s-86.5 170 -86.5 308v528c0 16.667 -4.16699 30.334 -12.5 41.001
s-20.833 17.334 -37.5 20.001l-118 24v115c60 16 125.667 28 197 36s137 12.333 197 13l37 -36v-700c0 -102.667 14.5 -176.334 43.5 -221.001s80.833 -67 155.5 -67c42 0 82.667 6.5 122 19.5s76.666 32.833 111.999 59.5v697c0 16.667 -4.16699 30.334 -12.5 41.001
s-20.5 17.334 -36.5 20.001l-138 25v115c30.667 7.33301 63.667 14 99 20s71.166 11 107.499 15s72.166 7 107.499 9s68.333 3 99 3l37 -36v-925c0 -22.667 5.16699 -38.5 15.5 -47.5s23.833 -14.167 40.5 -15.5l109 -11v-108c-22.667 -8 -54.334 -16.333 -95.001 -25
s-78.667 -13 -114 -13zM1040 1470c0 -43.333 -13.167 -78.5 -39.5 -105.5s-60.5 -40.5 -102.5 -40.5s-76.167 13.5 -102.5 40.5s-39.5 62.167 -39.5 105.5c0 42.667 13.167 77.5 39.5 104.5s60.5 40.5 102.5 40.5s76.167 -13.5 102.5 -40.5s39.5 -61.833 39.5 -104.5z
M582.005 1470c0 -43.333 -13 -78.5 -39 -105.5s-60 -40.5 -102 -40.5c-42.667 0 -77.167 13.5 -103.5 40.5s-39.5 62.167 -39.5 105.5c0 42.667 13.167 77.5 39.5 104.5s60.833 40.5 103.5 40.5c42 0 76 -13.5 102 -40.5s39 -61.833 39 -104.5z" />
    <glyph glyph-name="yacute" unicode="&#xfd;" horiz-adv-x="1269" 
d="M294 -517c-40 0 -81.333 2.00293 -124 6.00293s-83.667 9.33301 -123 16v140c78 8.66699 147.5 19.5 208.5 32.5s115 32.167 162 57.5s88.833 59.166 125.5 101.499s70 96.833 100 163.5h-119l-360 948c-5.33301 14.667 -13 26.167 -23 34.5s-22.333 14.5 -37 18.5
l-81 24v112h583v-114l-164 -31l276 -779l248 780l-156 30v114h442v-112l-81 -24c-16 -4.66699 -28.5 -10.834 -37.5 -18.501s-16.5 -19.834 -22.5 -36.501l-337 -981c-56.667 -164 -121.667 -285.333 -195 -364s-168.333 -118 -285 -118zM578 1257l-74 84.001l374 437
l163 -145c-22 -28.667 -50.167 -59.334 -84.5 -92.001s-72 -65.5 -113 -98.5s-84.5 -65.5 -130.5 -97.5s-91 -61.333 -135 -88z" />
    <glyph glyph-name="thorn" unicode="&#xfe;" horiz-adv-x="1315" 
d="M622 99c94 0 169 35.1699 225 105.503s84.667 192.166 86 365.499c2 151.333 -20 260.666 -66 327.999s-114 101 -204 101c-44.667 0 -85.667 -6.5 -123 -19.5s-68.333 -29.167 -93 -48.5v-793c22.667 -12.667 49 -22.334 79 -29.001s62 -10 96 -10zM662 -380.997
l-0.000976562 -114.996h-648v115l119 20c16.667 2.66699 29.334 9 38.001 19s13 23.333 13 40v1853c0 16.667 -4.5 30 -13.5 40s-21.833 16.333 -38.5 19l-142 21v109c31.333 8.66699 65 16.5 101 23.5s72.333 13 109 18s73 9 109 12s69.333 4.83301 100 5.5l38 -36v-727
c40 39.333 86.667 71.166 140 95.499s115.666 36.5 186.999 36.5c62.667 0 120.834 -10.5 174.501 -31.5s100 -53.5 139 -97.5s69.667 -100.333 92 -169s33.5 -150.334 33.5 -245.001c0 -102.667 -13.833 -194.334 -41.5 -275.001s-67 -148.5 -118 -203.5
s-113.333 -97 -187 -126s-156.5 -43.5 -248.5 -43.5c-27.333 0 -55.833 1.66699 -85.5 5s-58.167 8.66602 -85.5 15.999v-300c0 -17.333 4.5 -31 13.5 -41s21.833 -16 38.5 -18z" />
    <glyph glyph-name="ydieresis" unicode="&#xff;" horiz-adv-x="1269" 
d="M294 -517c-40 0 -81.333 2.00293 -124 6.00293s-83.667 9.33301 -123 16v140c78 8.66699 147.5 19.5 208.5 32.5s115 32.167 162 57.5s88.833 59.166 125.5 101.499s70 96.833 100 163.5h-119l-360 948c-5.33301 14.667 -13 26.167 -23 34.5s-22.333 14.5 -37 18.5
l-81 24v112h583v-114l-164 -31l276 -779l248 780l-156 30v114h442v-112l-81 -24c-16 -4.66699 -28.5 -10.834 -37.5 -18.501s-16.5 -19.834 -22.5 -36.501l-337 -981c-56.667 -164 -121.667 -285.333 -195 -364s-168.333 -118 -285 -118zM1045 1470
c0 -43.333 -13.167 -78.5 -39.5 -105.5s-60.5 -40.5 -102.5 -40.5s-76.167 13.5 -102.5 40.5s-39.5 62.167 -39.5 105.5c0 42.667 13.167 77.5 39.5 104.5s60.5 40.5 102.5 40.5s76.167 -13.5 102.5 -40.5s39.5 -61.833 39.5 -104.5zM587 1470
c0 -43.333 -13 -78.5 -39 -105.5s-60 -40.5 -102 -40.5c-42.667 0 -77.167 13.5 -103.5 40.5s-39.5 62.167 -39.5 105.5c0 42.667 13.167 77.5 39.5 104.5s60.833 40.5 103.5 40.5c42 0 76 -13.5 102 -40.5s39 -61.833 39 -104.5z" />
    <glyph glyph-name="Amacron" unicode="&#x100;" horiz-adv-x="1567" 
d="M968 609l-246 732l-234 -732h480zM537 116v-115.999h-542v116l128 31c14.667 3.33301 26.667 9 36 17s16.333 19.333 21 34l469 1369h262l484 -1369c4.66699 -14.667 11.667 -25.834 21 -33.501s21.333 -13.5 36 -17.5l118 -31v-116h-644v116l195 35l-107 319h-570
l-102 -319zM430 1753v166h707v-166h-707z" />
    <glyph glyph-name="amacron" unicode="&#x101;" horiz-adv-x="1221" 
d="M514 138c42 0 83.999 7.33203 125.999 21.999s78.333 34.334 109 59.001v260l-164 -13c-75.333 -5.33301 -131.166 -23.333 -167.499 -54s-54.5 -73.667 -54.5 -129c0 -46.667 12.167 -82.5 36.5 -107.5s62.5 -37.5 114.5 -37.5zM962.999 -18.001
c-51.333 0 -94.168 11.3311 -128.501 33.998s-58.833 58 -73.5 106c-40.667 -44 -91.5 -79.167 -152.5 -105.5s-126.833 -39.5 -197.5 -39.5c-94.667 0 -172.334 24.333 -233.001 73s-91 116.667 -91 204c0 56.667 13 104.834 39 144.501s59.833 72 101.5 97
s88.834 44 141.501 57s105.667 21.5 159 25.5l221 16v128c0 96 -20 163 -60 201s-99.667 57 -179 57c-62 0 -120.667 -10.167 -176 -30.5s-106 -52.166 -152 -95.499l-62 58c28.667 79.333 84.834 141 168.501 185s182.834 66 297.501 66c142 0 247.333 -34.833 316 -104.5
s103 -174.5 103 -314.5v-542c0 -21.333 4.83301 -36.833 14.5 -46.5s23.5 -15.167 41.5 -16.5l109 -11v-108c-20 -6.66699 -50.833 -14.667 -92.5 -24s-79.834 -14 -114.501 -14zM241.997 1358v166h691v-166h-691z" />
    <glyph glyph-name="Abreve" unicode="&#x102;" horiz-adv-x="1567" 
d="M968 609l-246 732l-234 -732h480zM537 116v-115.999h-542v116l128 31c14.667 3.33301 26.667 9 36 17s16.333 19.333 21 34l469 1369h262l484 -1369c4.66699 -14.667 11.667 -25.834 21 -33.501s21.333 -13.5 36 -17.5l118 -31v-116h-644v116l195 35l-107 319h-570
l-102 -319zM1178 1992c-11.333 -42 -28.835 -81.833 -52.502 -119.5s-52.5 -70.167 -86.5 -97.5s-73 -49 -117 -65s-91.333 -24 -142 -24c-52 0 -100.167 8.33301 -144.5 25s-83.166 38.834 -116.499 66.501s-61.166 60.167 -83.499 97.5s-37.5 76.333 -45.5 117l116 56
c31.333 -56.667 71.333 -99.334 120 -128.001s103 -43 163 -43c56.667 0 110 13.5 160 40.5s93 70.5 129 130.5z" />
    <glyph glyph-name="abreve" unicode="&#x103;" horiz-adv-x="1221" 
d="M514 138c42 0 83.999 7.33203 125.999 21.999s78.333 34.334 109 59.001v260l-164 -13c-75.333 -5.33301 -131.166 -23.333 -167.499 -54s-54.5 -73.667 -54.5 -129c0 -46.667 12.167 -82.5 36.5 -107.5s62.5 -37.5 114.5 -37.5zM962.999 -18.001
c-51.333 0 -94.168 11.3311 -128.501 33.998s-58.833 58 -73.5 106c-40.667 -44 -91.5 -79.167 -152.5 -105.5s-126.833 -39.5 -197.5 -39.5c-94.667 0 -172.334 24.333 -233.001 73s-91 116.667 -91 204c0 56.667 13 104.834 39 144.501s59.833 72 101.5 97
s88.834 44 141.501 57s105.667 21.5 159 25.5l221 16v128c0 96 -20 163 -60 201s-99.667 57 -179 57c-62 0 -120.667 -10.167 -176 -30.5s-106 -52.166 -152 -95.499l-62 58c28.667 79.333 84.834 141 168.501 185s182.834 66 297.501 66c142 0 247.333 -34.833 316 -104.5
s103 -174.5 103 -314.5v-542c0 -21.333 4.83301 -36.833 14.5 -46.5s23.5 -15.167 41.5 -16.5l109 -11v-108c-20 -6.66699 -50.833 -14.667 -92.5 -24s-79.834 -14 -114.501 -14zM973.997 1612c-10.667 -44.667 -27.667 -86.332 -51 -124.999s-51.833 -72 -85.5 -100
s-72.334 -50 -116.001 -66s-90.5 -24 -140.5 -24c-50.667 0 -97.667 8.33301 -141 25s-81.5 39.167 -114.5 67.5s-60.167 61.666 -81.5 99.999s-35.666 79.166 -42.999 122.499l115 56c30.667 -60 69.167 -105 115.5 -135s99.166 -45 158.499 -45
c56.667 0 109.334 14.333 158.001 43s90.667 74.334 126 137.001z" />
    <glyph glyph-name="Aogonek" unicode="&#x104;" horiz-adv-x="1567" 
d="M968 609l-246 732l-234 -732h480zM1511 -441c-34.667 -24 -76.5029 -42.666 -125.503 -55.999s-97.167 -19.666 -144.5 -18.999c-72 0.666992 -133.333 17.167 -184 49.5s-76 82.166 -76 149.499c0 34.667 7.83301 67.834 23.5 99.501s36.334 60.667 62.001 87
s55.5 50.166 89.5 71.499s69 39.333 105 54v5h-335v116l195 35l-107 319h-570l-102 -319l195 -35v-116h-542v116l128 31c14.667 3.33301 26.667 9 36 17s16.333 19.333 21 34l469 1369h262l484 -1369c4.66699 -14.667 11.667 -25.834 21 -33.501s21.333 -13.5 36 -17.5
l118 -31v-116h-122c-71.333 -28 -130.166 -64.833 -176.499 -110.5s-69.5 -92.834 -69.5 -141.501c0 -38 13 -65.833 39 -83.5s58.667 -26.5 98 -26.5c20 0 41.333 2.33301 64 7s44.334 11.334 65.001 20.001z" />
    <glyph glyph-name="aogonek" unicode="&#x105;" horiz-adv-x="1221" 
d="M1148 -441c-34.667 -24 -76.333 -42.6709 -125 -56.0039s-96.334 -19.666 -143.001 -18.999c-71.333 0.666992 -132.166 17.167 -182.499 49.5s-75.5 82.166 -75.5 149.499c0 34 7.66699 66.667 23 98s35.666 60 60.999 86s54.333 49.167 87 69.5s66 37.5 100 51.5v2
c-32.667 8.66699 -60 23.834 -82 45.501s-38.667 50.5 -50 86.5c-40.667 -44 -91.5 -79.167 -152.5 -105.5s-126.833 -39.5 -197.5 -39.5c-94.667 0 -172.334 24.333 -233.001 73s-91 116.667 -91 204c0 56.667 13 104.834 39 144.501s59.833 72 101.5 97
s88.834 44 141.501 57s105.667 21.5 159 25.5l221 16v128c0 96 -20 163 -60 201s-99.667 57 -179 57c-62 0 -120.667 -10.167 -176 -30.5s-106 -52.166 -152 -95.499l-62 58c28.667 79.333 84.834 141 168.501 185s182.834 66 297.501 66c142 0 247.333 -34.833 316 -104.5
s103 -174.5 103 -314.5v-542c0 -21.333 4.83301 -36.833 14.5 -46.5s23.5 -15.167 41.5 -16.5l109 -11v-108c-10.667 -4 -25 -8.33301 -43 -13s-37.333 -9 -58 -13c-66.667 -28.667 -121.334 -65 -164.001 -109s-64 -89.667 -64 -137c0 -38 12.833 -65.833 38.5 -83.5
s58.167 -26.5 97.5 -26.5c20 0 41.167 2.33301 63.5 7s43.833 11.334 64.5 20.001zM514.001 137.996c42 0 83.999 7.33203 125.999 21.999s78.333 34.334 109 59.001v260l-164 -13c-75.333 -5.33301 -131.166 -23.333 -167.499 -54s-54.5 -73.667 -54.5 -129
c0 -46.667 12.167 -82.5 36.5 -107.5s62.5 -37.5 114.5 -37.5z" />
    <glyph glyph-name="Cacute" unicode="&#x106;" horiz-adv-x="1445" 
d="M828 -31c-120 0 -225 17.6709 -315 53.0039s-164.333 86.333 -223 153s-102.5 148.667 -131.5 246s-43.5 207.333 -43.5 330c0 140 18 262.667 54 368s86.833 192.666 152.5 261.999s145.5 121.333 239.5 156s198.333 52 313 52c69.333 0 145 -6.5 227 -19.5
s157.667 -32.5 227 -58.5c3.33301 -60.667 3.33301 -125.834 0 -195.501s-10.333 -139.834 -21 -210.501h-162l-51 237c-3.33301 14 -8.66602 27.167 -15.999 39.5s-19 23.5 -35 33.5c-20.667 12.667 -50.5 23.834 -89.5 33.501s-79.833 14.5 -122.5 14.5
c-125.333 0 -224.5 -53 -297.5 -159s-109.5 -277.667 -109.5 -515c0 -105.333 7.83301 -201 23.5 -287s40 -158.833 73 -218.5s75.667 -105.834 128 -138.501s114.833 -49 187.5 -49c40 0 79.667 5.5 119 16.5s72 25.833 98 44.5c11.333 8.66699 20.666 18.5 27.999 29.5
s14 25.5 20 43.5l70 215l159 -15c2.66699 -56.667 2.16699 -117.834 -1.5 -183.501s-10.5 -130.5 -20.5 -194.5c-62.667 -24 -137.5 -43.833 -224.5 -59.5s-172.167 -23.5 -255.5 -23.5zM1227 1913c-31.333 -22.667 -70 -45.333 -116 -68s-94.667 -44.5 -146 -65.5
s-103.833 -41.167 -157.5 -60.5l-150.5 -52l-50 98l494 328z" />
    <glyph glyph-name="cacute" unicode="&#x107;" horiz-adv-x="1132" 
d="M100 556c0 92 12.835 175.835 38.502 251.502s62.5 140 110.5 193s107.167 94.167 177.5 123.5s149.5 44 237.5 44c66 0 132.167 -7.33301 198.5 -22s120.5 -33 162.5 -55c4 -57.333 3.83301 -117.166 -0.5 -179.499s-11.5 -120.833 -21.5 -175.5h-131l-47 178
c-5.33301 20.667 -11 37.167 -17 49.5s-14.667 23.5 -26 33.5c-14.667 12.667 -33.834 23 -57.501 31s-49.834 12 -78.501 12c-79.333 0 -142.333 -35.333 -189 -106s-70 -181 -70 -331c0 -151.333 26 -264.833 78 -340.5s128.667 -113.5 230 -113.5
c61.333 0 115.666 11.667 162.999 35s85.333 49.666 114 78.999l66 -57c-29.333 -68.667 -80.833 -124.334 -154.5 -167.001s-163.167 -64 -268.5 -64c-86 0 -161.5 14.833 -226.5 44.5s-118.667 70.167 -161 121.5s-74.166 112.666 -95.499 183.999s-32 148.333 -32 231z
M532.002 1257l-74 84.001l374 437l163 -145c-22 -28.667 -50.167 -59.334 -84.5 -92.001s-72 -65.5 -113 -98.5s-84.5 -65.5 -130.5 -97.5s-91 -61.333 -135 -88z" />
    <glyph glyph-name="Ccircumflex" unicode="&#x108;" horiz-adv-x="1445" 
d="M828 -31c-120 0 -225 17.6709 -315 53.0039s-164.333 86.333 -223 153s-102.5 148.667 -131.5 246s-43.5 207.333 -43.5 330c0 140 18 262.667 54 368s86.833 192.666 152.5 261.999s145.5 121.333 239.5 156s198.333 52 313 52c69.333 0 145 -6.5 227 -19.5
s157.667 -32.5 227 -58.5c3.33301 -60.667 3.33301 -125.834 0 -195.501s-10.333 -139.834 -21 -210.501h-162l-51 237c-3.33301 14 -8.66602 27.167 -15.999 39.5s-19 23.5 -35 33.5c-20.667 12.667 -50.5 23.834 -89.5 33.501s-79.833 14.5 -122.5 14.5
c-125.333 0 -224.5 -53 -297.5 -159s-109.5 -277.667 -109.5 -515c0 -105.333 7.83301 -201 23.5 -287s40 -158.833 73 -218.5s75.667 -105.834 128 -138.501s114.833 -49 187.5 -49c40 0 79.667 5.5 119 16.5s72 25.833 98 44.5c11.333 8.66699 20.666 18.5 27.999 29.5
s14 25.5 20 43.5l70 215l159 -15c2.66699 -56.667 2.16699 -117.834 -1.5 -183.501s-10.5 -130.5 -20.5 -194.5c-62.667 -24 -137.5 -43.833 -224.5 -59.5s-172.167 -23.5 -255.5 -23.5zM509 1661l-79 88l299 314l188 10l326 -317l-83 -94l-338 210z" />
    <glyph glyph-name="ccircumflex" unicode="&#x109;" horiz-adv-x="1132" 
d="M100 556c0 92 12.835 175.835 38.502 251.502s62.5 140 110.5 193s107.167 94.167 177.5 123.5s149.5 44 237.5 44c66 0 132.167 -7.33301 198.5 -22s120.5 -33 162.5 -55c4 -57.333 3.83301 -117.166 -0.5 -179.499s-11.5 -120.833 -21.5 -175.5h-131l-47 178
c-5.33301 20.667 -11 37.167 -17 49.5s-14.667 23.5 -26 33.5c-14.667 12.667 -33.834 23 -57.501 31s-49.834 12 -78.501 12c-79.333 0 -142.333 -35.333 -189 -106s-70 -181 -70 -331c0 -151.333 26 -264.833 78 -340.5s128.667 -113.5 230 -113.5
c61.333 0 115.666 11.667 162.999 35s85.333 49.666 114 78.999l66 -57c-29.333 -68.667 -80.833 -124.334 -154.5 -167.001s-163.167 -64 -268.5 -64c-86 0 -161.5 14.833 -226.5 44.5s-118.667 70.167 -161 121.5s-74.166 112.666 -95.499 183.999s-32 148.333 -32 231z
M326.002 1261l-87 79l284 389l185 16l315 -398l-93 -85l-314 269z" />
    <glyph glyph-name="Cdotaccent" unicode="&#x10a;" horiz-adv-x="1445" 
d="M828 -31c-120 0 -225 17.6709 -315 53.0039s-164.333 86.333 -223 153s-102.5 148.667 -131.5 246s-43.5 207.333 -43.5 330c0 140 18 262.667 54 368s86.833 192.666 152.5 261.999s145.5 121.333 239.5 156s198.333 52 313 52c69.333 0 145 -6.5 227 -19.5
s157.667 -32.5 227 -58.5c3.33301 -60.667 3.33301 -125.834 0 -195.501s-10.333 -139.834 -21 -210.501h-162l-51 237c-3.33301 14 -8.66602 27.167 -15.999 39.5s-19 23.5 -35 33.5c-20.667 12.667 -50.5 23.834 -89.5 33.501s-79.833 14.5 -122.5 14.5
c-125.333 0 -224.5 -53 -297.5 -159s-109.5 -277.667 -109.5 -515c0 -105.333 7.83301 -201 23.5 -287s40 -158.833 73 -218.5s75.667 -105.834 128 -138.501s114.833 -49 187.5 -49c40 0 79.667 5.5 119 16.5s72 25.833 98 44.5c11.333 8.66699 20.666 18.5 27.999 29.5
s14 25.5 20 43.5l70 215l159 -15c2.66699 -56.667 2.16699 -117.834 -1.5 -183.501s-10.5 -130.5 -20.5 -194.5c-62.667 -24 -137.5 -43.833 -224.5 -59.5s-172.167 -23.5 -255.5 -23.5zM1004 1865c0 -47.333 -15.333 -85.5 -46 -114.5s-70.667 -43.5 -120 -43.5
c-50 0 -90.333 14.5 -121 43.5s-46 67.167 -46 114.5s15.333 85.5 46 114.5s71 43.5 121 43.5c49.333 0 89.333 -14.5 120 -43.5s46 -67.167 46 -114.5z" />
    <glyph glyph-name="cdotaccent" unicode="&#x10b;" horiz-adv-x="1132" 
d="M100 556c0 92 12.835 175.835 38.502 251.502s62.5 140 110.5 193s107.167 94.167 177.5 123.5s149.5 44 237.5 44c66 0 132.167 -7.33301 198.5 -22s120.5 -33 162.5 -55c4 -57.333 3.83301 -117.166 -0.5 -179.499s-11.5 -120.833 -21.5 -175.5h-131l-47 178
c-5.33301 20.667 -11 37.167 -17 49.5s-14.667 23.5 -26 33.5c-14.667 12.667 -33.834 23 -57.501 31s-49.834 12 -78.501 12c-79.333 0 -142.333 -35.333 -189 -106s-70 -181 -70 -331c0 -151.333 26 -264.833 78 -340.5s128.667 -113.5 230 -113.5
c61.333 0 115.666 11.667 162.999 35s85.333 49.666 114 78.999l66 -57c-29.333 -68.667 -80.833 -124.334 -154.5 -167.001s-163.167 -64 -268.5 -64c-86 0 -161.5 14.833 -226.5 44.5s-118.667 70.167 -161 121.5s-74.166 112.666 -95.499 183.999s-32 148.333 -32 231z
M815.002 1475c0 -47.333 -15 -85.333 -45 -114s-69.333 -43 -118 -43c-50 0 -90 14.333 -120 43s-45 66.667 -45 114c0 46 15 83.333 45 112s70 43 120 43c48.667 0 88 -14.333 118 -43s45 -66 45 -112z" />
    <glyph glyph-name="Ccaron" unicode="&#x10c;" horiz-adv-x="1445" 
d="M828 -31c-120 0 -225 17.6709 -315 53.0039s-164.333 86.333 -223 153s-102.5 148.667 -131.5 246s-43.5 207.333 -43.5 330c0 140 18 262.667 54 368s86.833 192.666 152.5 261.999s145.5 121.333 239.5 156s198.333 52 313 52c69.333 0 145 -6.5 227 -19.5
s157.667 -32.5 227 -58.5c3.33301 -60.667 3.33301 -125.834 0 -195.501s-10.333 -139.834 -21 -210.501h-162l-51 237c-3.33301 14 -8.66602 27.167 -15.999 39.5s-19 23.5 -35 33.5c-20.667 12.667 -50.5 23.834 -89.5 33.501s-79.833 14.5 -122.5 14.5
c-125.333 0 -224.5 -53 -297.5 -159s-109.5 -277.667 -109.5 -515c0 -105.333 7.83301 -201 23.5 -287s40 -158.833 73 -218.5s75.667 -105.834 128 -138.501s114.833 -49 187.5 -49c40 0 79.667 5.5 119 16.5s72 25.833 98 44.5c11.333 8.66699 20.666 18.5 27.999 29.5
s14 25.5 20 43.5l70 215l159 -15c2.66699 -56.667 2.16699 -117.834 -1.5 -183.501s-10.5 -130.5 -20.5 -194.5c-62.667 -24 -137.5 -43.833 -224.5 -59.5s-172.167 -23.5 -255.5 -23.5zM1164 2086l79 -88l-299 -314l-188 -9l-326 316l83 94l338 -210z" />
    <glyph glyph-name="ccaron" unicode="&#x10d;" horiz-adv-x="1132" 
d="M100 556c0 92 12.835 175.835 38.502 251.502s62.5 140 110.5 193s107.167 94.167 177.5 123.5s149.5 44 237.5 44c66 0 132.167 -7.33301 198.5 -22s120.5 -33 162.5 -55c4 -57.333 3.83301 -117.166 -0.5 -179.499s-11.5 -120.833 -21.5 -175.5h-131l-47 178
c-5.33301 20.667 -11 37.167 -17 49.5s-14.667 23.5 -26 33.5c-14.667 12.667 -33.834 23 -57.501 31s-49.834 12 -78.501 12c-79.333 0 -142.333 -35.333 -189 -106s-70 -181 -70 -331c0 -151.333 26 -264.833 78 -340.5s128.667 -113.5 230 -113.5
c61.333 0 115.666 11.667 162.999 35s85.333 49.666 114 78.999l66 -57c-29.333 -68.667 -80.833 -124.334 -154.5 -167.001s-163.167 -64 -268.5 -64c-86 0 -161.5 14.833 -226.5 44.5s-118.667 70.167 -161 121.5s-74.166 112.666 -95.499 183.999s-32 148.333 -32 231z
M946.002 1783l87 -79l-284 -388l-185 -17l-314 398l92 85l314 -269z" />
    <glyph glyph-name="Dcaron" unicode="&#x10e;" horiz-adv-x="1677" 
d="M445 1562c66 0 127.832 2.33105 185.499 6.99805s116.5 7 176.5 7c256 0 445.833 -62.5 569.5 -187.5s185.5 -311.5 185.5 -559.5c0 -138.667 -18.167 -261.5 -54.5 -368.5s-88 -196 -155 -267s-149 -124.333 -246 -160s-205.5 -52.167 -325.5 -49.5
c-22.667 0.666992 -48.167 1.83398 -76.5 3.50098s-57.166 3.5 -86.499 5.5s-58.666 3.66699 -87.999 5s-56.333 2 -81 2h-346v116l160 30c15.333 2.66699 27.166 9 35.499 19s12.5 22.333 12.5 37v1155c0 13.333 -4 24.833 -12 34.5s-18.333 15.834 -31 18.501l-165 33v119
h342zM585.999 130.998c24.667 -6.66699 57.668 -11.498 99.001 -14.498s78.333 -4.16699 111 -3.5c148 3.33301 263.167 56.166 345.5 158.499s123.5 273.5 123.5 513.5c0 222 -40.5 388.667 -121.5 500s-206.833 167 -377.5 167c-40 0 -75.833 -2.33301 -107.5 -7
s-55.834 -7.33398 -72.501 -8.00098v-1306zM1136 2086l79 -88l-299 -314l-188 -9l-326 316l83 94l338 -210z" />
    <glyph glyph-name="dcaron" unicode="&#x10f;" horiz-adv-x="1402" 
d="M648 139c42 0 82.3301 6.66699 120.997 20s73.334 31.333 104.001 54v784c-21.333 12 -48.333 22 -81 30s-66.667 12 -102 12c-43.333 0 -83.666 -7.5 -120.999 -22.5s-69.666 -40.333 -96.999 -76s-48.833 -83.5 -64.5 -143.5s-23.5 -134.333 -23.5 -223
c-0.666992 -164 24.5 -277.5 75.5 -340.5s113.833 -94.5 188.5 -94.5zM1092 -18c-55.333 0 -99.333 12.833 -132 38.5s-56.667 60.167 -72 103.5c-38 -42 -85 -77 -141 -105s-120.333 -42 -193 -42c-62.667 0 -121.5 10.833 -176.5 32.5s-102.667 55 -143 100
s-72.333 103.167 -96 174.5s-35.5 156 -35.5 254c0 104.667 13.833 196.667 41.5 276s66.834 145 117.501 197s112.334 91.167 185.001 117.5s153.667 39.5 243 39.5c32.667 0 64.834 -2 96.501 -6s60.5 -9 86.5 -15v404c0 16.667 -4.33301 30 -13 40
s-21.334 16.333 -38.001 19l-145 21v108c30.667 8.66699 64.167 16.667 100.5 24s73 13.5 110 18.5s73.667 9 110 12s70.166 4.83301 101.499 5.5l37 -37v-1560c0 -22.667 5.16699 -38.5 15.5 -47.5s23.833 -14.167 40.5 -15.5l109 -11v-108
c-22.667 -8 -54.334 -16.333 -95.001 -25s-78.667 -13 -114 -13zM1388 1302l-116.999 25.002l43 556l217 -25c-11.333 -88.667 -29.833 -182.334 -55.5 -281.001s-54.834 -190.334 -87.501 -275.001z" />
    <glyph glyph-name="Dcroat" unicode="&#x110;" horiz-adv-x="1678" 
d="M1564 829c0 -138.667 -18.1689 -261.502 -54.502 -368.502s-88.166 -196 -155.499 -267s-149.5 -124.333 -246.5 -160s-205.5 -52.167 -325.5 -49.5c-22.667 0.666992 -48 1.83398 -76 3.50098s-56.833 3.5 -86.5 5.5s-59.167 3.66699 -88.5 5s-56.333 2 -81 2h-346v116
l161 30c14.667 2.66699 26.334 9 35.001 19s13 22.333 13 37v529h-198v139h198v487c0 13.333 -4 24.833 -12 34.5s-18.333 15.834 -31 18.501l-166 33v119h343c66 0 127.667 2.33301 185 7s116.333 7 177 7c256 0 445.833 -62.5 569.5 -187.5s185.5 -311.5 185.5 -559.5z
M587.998 130.998c24.667 -6.66699 57.502 -11.498 98.502 -14.498s77.833 -4.16699 110.5 -3.5c148 3.33301 263.167 56.166 345.5 158.499s123.5 273.5 123.5 513.5c0 222 -40.333 388.667 -121 500s-206.334 167 -377.001 167c-40 0 -75.833 -2.33301 -107.5 -7
s-55.834 -7.33398 -72.501 -8.00098v-567h319v-139h-319v-600z" />
    <glyph glyph-name="dcroat" unicode="&#x111;" horiz-adv-x="1366" 
d="M648 139c42 0 82.3301 6.66406 120.997 19.9971s73.334 31.333 104.001 54v755c-21.333 12 -48.333 22 -81 30s-66.667 12 -102 12c-43.333 0 -83.666 -7.16699 -120.999 -21.5s-69.666 -38.666 -96.999 -72.999s-48.833 -80.166 -64.5 -137.499
s-23.5 -128.666 -23.5 -213.999c-0.666992 -160 24.5 -270.833 75.5 -332.5s113.833 -92.5 188.5 -92.5zM1092 -18.0029c-55.333 0 -99.333 12.8291 -132 38.4961s-56.667 60.167 -72 103.5c-38 -42 -85 -77 -141 -105s-120.333 -42 -193 -42
c-62.667 0 -121.5 10.5 -176.5 31.5s-102.667 53.833 -143 98.5s-72.333 101.834 -96 171.501s-35.5 152.834 -35.5 249.501c0 101.333 13.833 190.333 41.5 267s66.834 140.334 117.501 191.001s112.334 88.834 185.001 114.501s153.667 38.5 243 38.5
c32.667 0 64.834 -2 96.501 -6s60.5 -9 86.5 -15v196h-359v125h359v112c0 16.667 -4.33301 30 -13 40s-21.334 16.333 -38.001 19l-145 21v108c30.667 8.66699 64.167 16.667 100.5 24s73 13.5 110 18.5s73.667 9 110 12s70.166 4.83301 101.499 5.5l37 -37v-323h144v-125
h-144v-1112c0 -22.667 5.16699 -38.5 15.5 -47.5s23.833 -14.167 40.5 -15.5l109 -11v-108c-22.667 -8 -54.334 -16.333 -95.001 -25s-78.667 -13 -114 -13z" />
    <glyph glyph-name="Emacron" unicode="&#x112;" horiz-adv-x="1420" 
d="M1244 1164l-133.999 0.00195312l-48 188c-4.66699 16 -11.667 28.667 -21 38s-21.666 17 -36.999 23c-20.667 7.33301 -48.334 13 -83.001 17s-72 6 -112 6h-223v-567l468 16v-170l-468 12v-591h275c40 0 79.333 1.83301 118 5.5s68.334 9.5 89.001 17.5
c15.333 6 27 13.667 35 23s15 22 21 38l78 228l133 -21c-0.666992 -69.333 -4.33398 -139.666 -11.001 -210.999s-16.334 -143.333 -29.001 -216h-1192v116l158 29c16.667 3.33301 29.167 10.166 37.5 20.499s12.5 23.833 12.5 40.5v1145
c0 16.667 -4.16699 30.167 -12.5 40.5s-20.833 17.166 -37.5 20.499l-158 31v119h1140c6.66699 -64.667 10 -129.834 10 -195.501s-3 -133.167 -9 -202.5zM383.001 1753v166h707v-166h-707z" />
    <glyph glyph-name="emacron" unicode="&#x113;" horiz-adv-x="1181" 
d="M618 1043c-62.667 0 -114.5 -23.001 -155.5 -69.001s-67.5 -122.333 -79.5 -229h441c0.666992 7.33301 1.16699 14.833 1.5 22.5s0.5 15.834 0.5 24.501c0 73.333 -17.833 133.5 -53.5 180.5s-87.167 70.5 -154.5 70.5zM1072 248.999
c-26.667 -83.333 -80.001 -149.834 -160.001 -199.501s-178 -74.5 -294 -74.5c-87.333 0 -163.5 14.333 -228.5 43s-118.667 68.5 -161 119.5s-74 112.333 -95 184s-31.5 150.5 -31.5 236.5c0 193.333 49 343.333 147 450s230.667 160 398 160
c135.333 0 241 -34.667 317 -104s114 -165.333 114 -288c0 -20.667 -1.16699 -44.667 -3.5 -72s-5.83301 -52 -10.5 -74h-688v-9v-10c0 -169.333 28.167 -288.666 84.5 -357.999s133.833 -104 232.5 -104c62 0 120.333 12.833 175 38.5s98.334 61.5 131.001 107.5z
M271.999 1358v166h691v-166h-691z" />
    <glyph glyph-name="Ebreve" unicode="&#x114;" horiz-adv-x="1420" 
d="M1244 1164l-133.999 0.00195312l-48 188c-4.66699 16 -11.667 28.667 -21 38s-21.666 17 -36.999 23c-20.667 7.33301 -48.334 13 -83.001 17s-72 6 -112 6h-223v-567l468 16v-170l-468 12v-591h275c40 0 79.333 1.83301 118 5.5s68.334 9.5 89.001 17.5
c15.333 6 27 13.667 35 23s15 22 21 38l78 228l133 -21c-0.666992 -69.333 -4.33398 -139.666 -11.001 -210.999s-16.334 -143.333 -29.001 -216h-1192v116l158 29c16.667 3.33301 29.167 10.166 37.5 20.499s12.5 23.833 12.5 40.5v1145
c0 16.667 -4.16699 30.167 -12.5 40.5s-20.833 17.166 -37.5 20.499l-158 31v119h1140c6.66699 -64.667 10 -129.834 10 -195.501s-3 -133.167 -9 -202.5zM1131 1992c-11.333 -42 -28.835 -81.833 -52.502 -119.5s-52.5 -70.167 -86.5 -97.5s-73 -49 -117 -65
s-91.333 -24 -142 -24c-52 0 -100.167 8.33301 -144.5 25s-83.166 38.834 -116.499 66.501s-61.166 60.167 -83.499 97.5s-37.5 76.333 -45.5 117l116 56c31.333 -56.667 71.333 -99.334 120 -128.001s103 -43 163 -43c56.667 0 110 13.5 160 40.5s93 70.5 129 130.5z" />
    <glyph glyph-name="ebreve" unicode="&#x115;" horiz-adv-x="1181" 
d="M618 1043c-62.667 0 -114.5 -23.001 -155.5 -69.001s-67.5 -122.333 -79.5 -229h441c0.666992 7.33301 1.16699 14.833 1.5 22.5s0.5 15.834 0.5 24.501c0 73.333 -17.833 133.5 -53.5 180.5s-87.167 70.5 -154.5 70.5zM1072 248.999
c-26.667 -83.333 -80.001 -149.834 -160.001 -199.501s-178 -74.5 -294 -74.5c-87.333 0 -163.5 14.333 -228.5 43s-118.667 68.5 -161 119.5s-74 112.333 -95 184s-31.5 150.5 -31.5 236.5c0 193.333 49 343.333 147 450s230.667 160 398 160
c135.333 0 241 -34.667 317 -104s114 -165.333 114 -288c0 -20.667 -1.16699 -44.667 -3.5 -72s-5.83301 -52 -10.5 -74h-688v-9v-10c0 -169.333 28.167 -288.666 84.5 -357.999s133.833 -104 232.5 -104c62 0 120.333 12.833 175 38.5s98.334 61.5 131.001 107.5z
M1004 1612c-10.667 -44.667 -27.667 -86.332 -51 -124.999s-51.833 -72 -85.5 -100s-72.334 -50 -116.001 -66s-90.5 -24 -140.5 -24c-50.667 0 -97.667 8.33301 -141 25s-81.5 39.167 -114.5 67.5s-60.167 61.666 -81.5 99.999s-35.666 79.166 -42.999 122.499l115 56
c30.667 -60 69.167 -105 115.5 -135s99.166 -45 158.499 -45c56.667 0 109.334 14.333 158.001 43s90.667 74.334 126 137.001z" />
    <glyph glyph-name="Edotaccent" unicode="&#x116;" horiz-adv-x="1420" 
d="M1244 1164l-133.999 0.00195312l-48 188c-4.66699 16 -11.667 28.667 -21 38s-21.666 17 -36.999 23c-20.667 7.33301 -48.334 13 -83.001 17s-72 6 -112 6h-223v-567l468 16v-170l-468 12v-591h275c40 0 79.333 1.83301 118 5.5s68.334 9.5 89.001 17.5
c15.333 6 27 13.667 35 23s15 22 21 38l78 228l133 -21c-0.666992 -69.333 -4.33398 -139.666 -11.001 -210.999s-16.334 -143.333 -29.001 -216h-1192v116l158 29c16.667 3.33301 29.167 10.166 37.5 20.499s12.5 23.833 12.5 40.5v1145
c0 16.667 -4.16699 30.167 -12.5 40.5s-20.833 17.166 -37.5 20.499l-158 31v119h1140c6.66699 -64.667 10 -129.834 10 -195.501s-3 -133.167 -9 -202.5zM904.001 1865c0 -47.333 -15.333 -85.5 -46 -114.5s-70.667 -43.5 -120 -43.5c-50 0 -90.333 14.5 -121 43.5
s-46 67.167 -46 114.5s15.333 85.5 46 114.5s71 43.5 121 43.5c49.333 0 89.333 -14.5 120 -43.5s46 -67.167 46 -114.5z" />
    <glyph glyph-name="edotaccent" unicode="&#x117;" horiz-adv-x="1181" 
d="M618 1043c-62.667 0 -114.5 -23.001 -155.5 -69.001s-67.5 -122.333 -79.5 -229h441c0.666992 7.33301 1.16699 14.833 1.5 22.5s0.5 15.834 0.5 24.501c0 73.333 -17.833 133.5 -53.5 180.5s-87.167 70.5 -154.5 70.5zM1072 248.999
c-26.667 -83.333 -80.001 -149.834 -160.001 -199.501s-178 -74.5 -294 -74.5c-87.333 0 -163.5 14.333 -228.5 43s-118.667 68.5 -161 119.5s-74 112.333 -95 184s-31.5 150.5 -31.5 236.5c0 193.333 49 343.333 147 450s230.667 160 398 160
c135.333 0 241 -34.667 317 -104s114 -165.333 114 -288c0 -20.667 -1.16699 -44.667 -3.5 -72s-5.83301 -52 -10.5 -74h-688v-9v-10c0 -169.333 28.167 -288.666 84.5 -357.999s133.833 -104 232.5 -104c62 0 120.333 12.833 175 38.5s98.334 61.5 131.001 107.5z
M803.999 1475c0 -47.333 -15 -85.333 -45 -114s-69.333 -43 -118 -43c-50 0 -90 14.333 -120 43s-45 66.667 -45 114c0 46 15 83.333 45 112s70 43 120 43c48.667 0 88 -14.333 118 -43s45 -66 45 -112z" />
    <glyph glyph-name="Eogonek" unicode="&#x118;" horiz-adv-x="1420" 
d="M1317 -441c-34.667 -24 -76.5 -42.6689 -125.5 -56.002s-97.167 -19.666 -144.5 -18.999c-72 0.666992 -133.333 17.334 -184 50.001s-76 82.334 -76 149.001c0 34.667 7.83301 67.834 23.5 99.501s36.667 60.667 63 87s57 50.166 92 71.499s71.5 39.333 109.5 54v5h-972
v116l158 29c16.667 3.33301 29.167 10.166 37.5 20.499s12.5 23.833 12.5 40.5v1145c0 16.667 -4.16699 30.167 -12.5 40.5s-20.833 17.166 -37.5 20.499l-158 31v119h1140c6.66699 -64.667 10 -129.834 10 -195.501s-3 -133.167 -9 -202.5h-134l-48 188
c-4.66699 16 -11.667 28.667 -21 38s-21.666 17 -36.999 23c-20.667 7.33301 -48.334 13 -83.001 17s-72 6 -112 6h-223v-567l468 16v-170l-468 12v-591h275c40 0 79.333 1.83301 118 5.5s68.334 9.5 89.001 17.5c15.333 5.33301 27 12.833 35 22.5s15 22.5 21 38.5l78 228
l133 -21c-0.666992 -69.333 -4.33398 -139.666 -11.001 -210.999s-16.334 -143.333 -29.001 -216h-1c-39.333 -10 -76.333 -24 -111 -42s-65 -38.167 -91 -60.5s-46.5 -46.5 -61.5 -72.5s-22.5 -52 -22.5 -78c0 -37.333 13 -64.833 39 -82.5s59 -26.5 99 -26.5
c19.333 0 40.333 2.33301 63 7s44.334 11.334 65.001 20.001z" />
    <glyph glyph-name="eogonek" unicode="&#x119;" horiz-adv-x="1181" 
d="M618 1041c-62.667 0 -114.5 -22.833 -155.5 -68.5s-67.5 -121.5 -79.5 -227.5h441c0.666992 7.33301 1.16699 14.833 1.5 22.5s0.5 15.834 0.5 24.501c0 73.333 -17.833 133.166 -53.5 179.499s-87.167 69.5 -154.5 69.5zM1016 -441
c-34.667 -24 -76.1689 -42.668 -124.502 -56.001s-95.833 -19.666 -142.5 -18.999c-70.667 0 -131.5 16.333 -182.5 49s-76.5 82 -76.5 148c0 35.333 7 68.166 21 98.499s31.667 57.666 53 81.999s45 46.166 71 65.499s50.667 35.333 74 48v6
c-14.667 -2 -29.5 -3.5 -44.5 -4.5s-30.5 -1.5 -46.5 -1.5c-87.333 0 -163.5 14.333 -228.5 43s-118.667 68.5 -161 119.5s-74 112.333 -95 184s-31.5 150.5 -31.5 236.5c0 193.333 49 343.333 147 450s230.667 160 398 160c135.333 0 241 -34.667 317 -104
s114 -165.333 114 -288c0 -20.667 -1.16699 -44.667 -3.5 -72s-5.83301 -52 -10.5 -74h-688v-9v-10c0 -169.333 28.167 -288.666 84.5 -357.999s133.833 -104 232.5 -104c62 0 120.333 12.833 175 38.5s98.334 61.5 131.001 107.5l75 -48
c-11.333 -33.333 -28 -64.833 -50 -94.5s-49.333 -57.5 -82 -83.5c-2 -1.33301 -4 -2.83301 -6 -4.5s-4 -3.16699 -6 -4.5c-72.667 -58 -127.667 -111.667 -165 -161s-56 -98.666 -56 -147.999c0 -38.667 12.667 -67.167 38 -85.5s57 -27.5 95 -27.5
c21.333 0 43.333 2.33301 66 7s44.334 11.334 65.001 20.001z" />
    <glyph glyph-name="Ecaron" unicode="&#x11a;" horiz-adv-x="1420" 
d="M1244 1164l-133.999 0.00195312l-48 188c-4.66699 16 -11.667 28.667 -21 38s-21.666 17 -36.999 23c-20.667 7.33301 -48.334 13 -83.001 17s-72 6 -112 6h-223v-567l468 16v-170l-468 12v-591h275c40 0 79.333 1.83301 118 5.5s68.334 9.5 89.001 17.5
c15.333 6 27 13.667 35 23s15 22 21 38l78 228l133 -21c-0.666992 -69.333 -4.33398 -139.666 -11.001 -210.999s-16.334 -143.333 -29.001 -216h-1192v116l158 29c16.667 3.33301 29.167 10.166 37.5 20.499s12.5 23.833 12.5 40.5v1145
c0 16.667 -4.16699 30.167 -12.5 40.5s-20.833 17.166 -37.5 20.499l-158 31v119h1140c6.66699 -64.667 10 -129.834 10 -195.501s-3 -133.167 -9 -202.5zM1064 2086l79 -88l-299 -314l-188 -9l-326 316l83 94l338 -210z" />
    <glyph glyph-name="ecaron" unicode="&#x11b;" horiz-adv-x="1181" 
d="M618 1043c-62.667 0 -114.5 -23.001 -155.5 -69.001s-67.5 -122.333 -79.5 -229h441c0.666992 7.33301 1.16699 14.833 1.5 22.5s0.5 15.834 0.5 24.501c0 73.333 -17.833 133.5 -53.5 180.5s-87.167 70.5 -154.5 70.5zM1072 248.999
c-26.667 -83.333 -80.001 -149.834 -160.001 -199.501s-178 -74.5 -294 -74.5c-87.333 0 -163.5 14.333 -228.5 43s-118.667 68.5 -161 119.5s-74 112.333 -95 184s-31.5 150.5 -31.5 236.5c0 193.333 49 343.333 147 450s230.667 160 398 160
c135.333 0 241 -34.667 317 -104s114 -165.333 114 -288c0 -20.667 -1.16699 -44.667 -3.5 -72s-5.83301 -52 -10.5 -74h-688v-9v-10c0 -169.333 28.167 -288.666 84.5 -357.999s133.833 -104 232.5 -104c62 0 120.333 12.833 175 38.5s98.334 61.5 131.001 107.5z
M934.999 1783l87 -79l-284 -388l-185 -17l-314 398l92 85l314 -269z" />
    <glyph glyph-name="Gcircumflex" unicode="&#x11c;" horiz-adv-x="1594" 
d="M1341 -12l-151.998 136.999c-48 -47.333 -106.333 -84.666 -175 -111.999s-147.667 -41 -237 -41c-108 0 -203.5 18.833 -286.5 56.5s-152.167 90.834 -207.5 159.501s-97.333 152 -126 250s-43 206.667 -43 326c0 138 18.333 258.833 55 362.5
s88.834 189.667 156.501 258s150 119.5 247 153.5s205.167 51 324.5 51c85.333 0 169.833 -8.16699 253.5 -24.5s159.167 -40.5 226.5 -72.5c3.33301 -60.667 2.83301 -122 -1.5 -184s-10.833 -124.667 -19.5 -188h-165l-49 211c-4.66699 20.667 -10.834 36.5 -18.501 47.5
s-18.5 21.167 -32.5 30.5c-23.333 15.333 -54.333 28.333 -93 39s-82.334 16 -131.001 16c-132.667 0 -238.667 -55.333 -318 -166s-119 -284.334 -119 -521.001c0 -95.333 7.66699 -182.833 23 -262.5s39.833 -147.5 73.5 -203.5s78.167 -99.667 133.5 -131
s122.666 -47 201.999 -47c52 0 101.333 6.83301 148 20.5s88 35.167 124 64.5v427l-247 21v131h626v-131l-114 -19v-630zM544.002 1661l-79 88l299 314l188 10l326 -317l-83 -94l-338 210z" />
    <glyph glyph-name="gcircumflex" unicode="&#x11d;" horiz-adv-x="1298" 
d="M389 777c0 -94.667 17.5 -165.667 52.5 -213s90.167 -71 165.5 -71c69.333 0 120.666 22.333 153.999 67s50 114.667 50 210c0 98 -17.167 169 -51.5 213s-88.166 66 -161.499 66c-61.333 0 -111.5 -19.333 -150.5 -58s-58.5 -110 -58.5 -214zM1218 -112
c0 -66.667 -15.666 -127.331 -46.999 -181.998s-75.333 -101 -132 -139s-124.834 -67.333 -204.501 -88s-167.167 -31 -262.5 -31c-166 0 -289 29.333 -369 88s-120 134.334 -120 227.001c0 67.333 18.833 122.5 56.5 165.5s86.834 77.5 147.501 103.5
c-36 17.333 -63 40.666 -81 69.999s-27 63.666 -27 102.999c0 53.333 14.167 97 42.5 131s63.5 61.333 105.5 82c-68 30.667 -119.333 75 -154 133s-52 126.333 -52 205c0 68 12.333 127.833 37 179.5s58.834 94.667 102.501 129s96.167 60.166 157.5 77.499
s128.333 26 201 26c71.333 0 135.5 -8.66699 192.5 -26s105.167 -42.333 144.5 -75c29.333 32 60.166 57.167 92.499 75.5s65.166 27.5 98.499 27.5c17.333 0 35.833 -2 55.5 -6s37.5 -8 53.5 -12v-190h-219c12 -24.667 21.167 -51.834 27.5 -81.501s9.5 -61.5 9.5 -95.5
c0 -124 -42.5 -224 -127.5 -300s-206.5 -114 -364.5 -114c-28.667 0 -56.167 1.33301 -82.5 4s-51.166 6.33398 -74.499 11.001c-14.667 -13.333 -26 -28.333 -34 -45s-12 -35 -12 -55c0 -39.333 17.167 -66.833 51.5 -82.5s91.166 -23.5 170.499 -23.5h231
c126.667 0 222.667 -25 288 -75s98 -122.333 98 -217zM618.001 -418.997c100.667 0 182 21.3311 244 63.998s93 106.667 93 192c0 50.667 -14.167 89 -42.5 115s-81.833 39 -160.5 39h-240c-20 0 -39 0.5 -57 1.5s-35 2.83301 -51 5.5
c-19.333 -23.333 -35.333 -50.666 -48 -81.999s-19 -67.666 -19 -108.999c0 -64.667 20.333 -118.5 61 -161.5s114 -64.5 220 -64.5zM305.001 1261l-87 79l284 389l185 16l315 -398l-93 -85l-314 269z" />
    <glyph glyph-name="Gbreve" unicode="&#x11e;" horiz-adv-x="1594" 
d="M1341 -12l-151.998 136.999c-48 -47.333 -106.333 -84.666 -175 -111.999s-147.667 -41 -237 -41c-108 0 -203.5 18.833 -286.5 56.5s-152.167 90.834 -207.5 159.501s-97.333 152 -126 250s-43 206.667 -43 326c0 138 18.333 258.833 55 362.5
s88.834 189.667 156.501 258s150 119.5 247 153.5s205.167 51 324.5 51c85.333 0 169.833 -8.16699 253.5 -24.5s159.167 -40.5 226.5 -72.5c3.33301 -60.667 2.83301 -122 -1.5 -184s-10.833 -124.667 -19.5 -188h-165l-49 211c-4.66699 20.667 -10.834 36.5 -18.501 47.5
s-18.5 21.167 -32.5 30.5c-23.333 15.333 -54.333 28.333 -93 39s-82.334 16 -131.001 16c-132.667 0 -238.667 -55.333 -318 -166s-119 -284.334 -119 -521.001c0 -95.333 7.66699 -182.833 23 -262.5s39.833 -147.5 73.5 -203.5s78.167 -99.667 133.5 -131
s122.666 -47 201.999 -47c52 0 101.333 6.83301 148 20.5s88 35.167 124 64.5v427l-247 21v131h626v-131l-114 -19v-630zM1266 1992c-11.333 -42 -28.835 -81.833 -52.502 -119.5s-52.5 -70.167 -86.5 -97.5s-73 -49 -117 -65s-91.333 -24 -142 -24
c-52 0 -100.167 8.33301 -144.5 25s-83.166 38.834 -116.499 66.501s-61.166 60.167 -83.499 97.5s-37.5 76.333 -45.5 117l116 56c31.333 -56.667 71.333 -99.334 120 -128.001s103 -43 163 -43c56.667 0 110 13.5 160 40.5s93 70.5 129 130.5z" />
    <glyph glyph-name="gbreve" unicode="&#x11f;" horiz-adv-x="1298" 
d="M389 777c0 -94.667 17.5 -165.667 52.5 -213s90.167 -71 165.5 -71c69.333 0 120.666 22.333 153.999 67s50 114.667 50 210c0 98 -17.167 169 -51.5 213s-88.166 66 -161.499 66c-61.333 0 -111.5 -19.333 -150.5 -58s-58.5 -110 -58.5 -214zM1218 -112
c0 -66.667 -15.666 -127.331 -46.999 -181.998s-75.333 -101 -132 -139s-124.834 -67.333 -204.501 -88s-167.167 -31 -262.5 -31c-166 0 -289 29.333 -369 88s-120 134.334 -120 227.001c0 67.333 18.833 122.5 56.5 165.5s86.834 77.5 147.501 103.5
c-36 17.333 -63 40.666 -81 69.999s-27 63.666 -27 102.999c0 53.333 14.167 97 42.5 131s63.5 61.333 105.5 82c-68 30.667 -119.333 75 -154 133s-52 126.333 -52 205c0 68 12.333 127.833 37 179.5s58.834 94.667 102.501 129s96.167 60.166 157.5 77.499
s128.333 26 201 26c71.333 0 135.5 -8.66699 192.5 -26s105.167 -42.333 144.5 -75c29.333 32 60.166 57.167 92.499 75.5s65.166 27.5 98.499 27.5c17.333 0 35.833 -2 55.5 -6s37.5 -8 53.5 -12v-190h-219c12 -24.667 21.167 -51.834 27.5 -81.501s9.5 -61.5 9.5 -95.5
c0 -124 -42.5 -224 -127.5 -300s-206.5 -114 -364.5 -114c-28.667 0 -56.167 1.33301 -82.5 4s-51.166 6.33398 -74.499 11.001c-14.667 -13.333 -26 -28.333 -34 -45s-12 -35 -12 -55c0 -39.333 17.167 -66.833 51.5 -82.5s91.166 -23.5 170.499 -23.5h231
c126.667 0 222.667 -25 288 -75s98 -122.333 98 -217zM618.001 -418.997c100.667 0 182 21.3311 244 63.998s93 106.667 93 192c0 50.667 -14.167 89 -42.5 115s-81.833 39 -160.5 39h-240c-20 0 -39 0.5 -57 1.5s-35 2.83301 -51 5.5
c-19.333 -23.333 -35.333 -50.666 -48 -81.999s-19 -67.666 -19 -108.999c0 -64.667 20.333 -118.5 61 -161.5s114 -64.5 220 -64.5zM994.001 1612c-10.667 -44.667 -27.667 -86.332 -51 -124.999s-51.833 -72 -85.5 -100s-72.334 -50 -116.001 -66s-90.5 -24 -140.5 -24
c-50.667 0 -97.667 8.33301 -141 25s-81.5 39.167 -114.5 67.5s-60.167 61.666 -81.5 99.999s-35.666 79.166 -42.999 122.499l115 56c30.667 -60 69.167 -105 115.5 -135s99.166 -45 158.499 -45c56.667 0 109.334 14.333 158.001 43s90.667 74.334 126 137.001z" />
    <glyph glyph-name="Gdotaccent" unicode="&#x120;" horiz-adv-x="1594" 
d="M1341 -12l-151.998 136.999c-48 -47.333 -106.333 -84.666 -175 -111.999s-147.667 -41 -237 -41c-108 0 -203.5 18.833 -286.5 56.5s-152.167 90.834 -207.5 159.501s-97.333 152 -126 250s-43 206.667 -43 326c0 138 18.333 258.833 55 362.5
s88.834 189.667 156.501 258s150 119.5 247 153.5s205.167 51 324.5 51c85.333 0 169.833 -8.16699 253.5 -24.5s159.167 -40.5 226.5 -72.5c3.33301 -60.667 2.83301 -122 -1.5 -184s-10.833 -124.667 -19.5 -188h-165l-49 211c-4.66699 20.667 -10.834 36.5 -18.501 47.5
s-18.5 21.167 -32.5 30.5c-23.333 15.333 -54.333 28.333 -93 39s-82.334 16 -131.001 16c-132.667 0 -238.667 -55.333 -318 -166s-119 -284.334 -119 -521.001c0 -95.333 7.66699 -182.833 23 -262.5s39.833 -147.5 73.5 -203.5s78.167 -99.667 133.5 -131
s122.666 -47 201.999 -47c52 0 101.333 6.83301 148 20.5s88 35.167 124 64.5v427l-247 21v131h626v-131l-114 -19v-630zM1039 1865c0 -47.333 -15.333 -85.5 -46 -114.5s-70.667 -43.5 -120 -43.5c-50 0 -90.333 14.5 -121 43.5s-46 67.167 -46 114.5s15.333 85.5 46 114.5
s71 43.5 121 43.5c49.333 0 89.333 -14.5 120 -43.5s46 -67.167 46 -114.5z" />
    <glyph glyph-name="gdotaccent" unicode="&#x121;" horiz-adv-x="1298" 
d="M389 777c0 -94.667 17.5 -165.667 52.5 -213s90.167 -71 165.5 -71c69.333 0 120.666 22.333 153.999 67s50 114.667 50 210c0 98 -17.167 169 -51.5 213s-88.166 66 -161.499 66c-61.333 0 -111.5 -19.333 -150.5 -58s-58.5 -110 -58.5 -214zM1218 -112
c0 -66.667 -15.666 -127.331 -46.999 -181.998s-75.333 -101 -132 -139s-124.834 -67.333 -204.501 -88s-167.167 -31 -262.5 -31c-166 0 -289 29.333 -369 88s-120 134.334 -120 227.001c0 67.333 18.833 122.5 56.5 165.5s86.834 77.5 147.501 103.5
c-36 17.333 -63 40.666 -81 69.999s-27 63.666 -27 102.999c0 53.333 14.167 97 42.5 131s63.5 61.333 105.5 82c-68 30.667 -119.333 75 -154 133s-52 126.333 -52 205c0 68 12.333 127.833 37 179.5s58.834 94.667 102.501 129s96.167 60.166 157.5 77.499
s128.333 26 201 26c71.333 0 135.5 -8.66699 192.5 -26s105.167 -42.333 144.5 -75c29.333 32 60.166 57.167 92.499 75.5s65.166 27.5 98.499 27.5c17.333 0 35.833 -2 55.5 -6s37.5 -8 53.5 -12v-190h-219c12 -24.667 21.167 -51.834 27.5 -81.501s9.5 -61.5 9.5 -95.5
c0 -124 -42.5 -224 -127.5 -300s-206.5 -114 -364.5 -114c-28.667 0 -56.167 1.33301 -82.5 4s-51.166 6.33398 -74.499 11.001c-14.667 -13.333 -26 -28.333 -34 -45s-12 -35 -12 -55c0 -39.333 17.167 -66.833 51.5 -82.5s91.166 -23.5 170.499 -23.5h231
c126.667 0 222.667 -25 288 -75s98 -122.333 98 -217zM618.001 -418.997c100.667 0 182 21.3311 244 63.998s93 106.667 93 192c0 50.667 -14.167 89 -42.5 115s-81.833 39 -160.5 39h-240c-20 0 -39 0.5 -57 1.5s-35 2.83301 -51 5.5
c-19.333 -23.333 -35.333 -50.666 -48 -81.999s-19 -67.666 -19 -108.999c0 -64.667 20.333 -118.5 61 -161.5s114 -64.5 220 -64.5zM793.001 1475c0 -47.333 -15 -85.333 -45 -114s-69.333 -43 -118 -43c-50 0 -90 14.333 -120 43s-45 66.667 -45 114
c0 46 15 83.333 45 112s70 43 120 43c48.667 0 88 -14.333 118 -43s45 -66 45 -112z" />
    <glyph glyph-name="Gcommaaccent" unicode="&#x122;" horiz-adv-x="1594" 
d="M1341 -12l-151.998 136.999c-48 -47.333 -106.333 -84.666 -175 -111.999s-147.667 -41 -237 -41c-108 0 -203.5 18.833 -286.5 56.5s-152.167 90.834 -207.5 159.501s-97.333 152 -126 250s-43 206.667 -43 326c0 138 18.333 258.833 55 362.5
s88.834 189.667 156.501 258s150 119.5 247 153.5s205.167 51 324.5 51c85.333 0 169.833 -8.16699 253.5 -24.5s159.167 -40.5 226.5 -72.5c3.33301 -60.667 2.83301 -122 -1.5 -184s-10.833 -124.667 -19.5 -188h-165l-49 211c-4.66699 20.667 -10.834 36.5 -18.501 47.5
s-18.5 21.167 -32.5 30.5c-23.333 15.333 -54.333 28.333 -93 39s-82.334 16 -131.001 16c-132.667 0 -238.667 -55.333 -318 -166s-119 -284.334 -119 -521.001c0 -95.333 7.66699 -182.833 23 -262.5s39.833 -147.5 73.5 -203.5s78.167 -99.667 133.5 -131
s122.666 -47 201.999 -47c52 0 101.333 6.83301 148 20.5s88 35.167 124 64.5v427l-247 21v131h626v-131l-114 -19v-630zM968.002 -299.001c-0.666992 -66 -23.334 -124.5 -68.001 -175.5s-97.334 -91.167 -158.001 -120.5l-62 69c24.667 18.667 46.834 40 66.501 64
s29.5 49.333 29.5 76c0 21.333 -5.16699 36.5 -15.5 45.5s-19.833 16.833 -28.5 23.5c-11.333 8.66699 -22.666 20.167 -33.999 34.5s-17 34.166 -17 59.499c0 32.667 11.833 60.167 35.5 82.5s53.167 33.5 88.5 33.5c47.333 0 86.5 -18.167 117.5 -54.5
s46.167 -82.166 45.5 -137.499z" />
    <glyph glyph-name="gcommaaccent" unicode="&#x123;" horiz-adv-x="1298" 
d="M389 777c0 -94.667 17.5 -165.667 52.5 -213s90.167 -71 165.5 -71c69.333 0 120.666 22.333 153.999 67s50 114.667 50 210c0 98 -17.167 169 -51.5 213s-88.166 66 -161.499 66c-61.333 0 -111.5 -19.333 -150.5 -58s-58.5 -110 -58.5 -214zM1218 -112
c0 -66.667 -15.666 -127.331 -46.999 -181.998s-75.333 -101 -132 -139s-124.834 -67.333 -204.501 -88s-167.167 -31 -262.5 -31c-166 0 -289 29.333 -369 88s-120 134.334 -120 227.001c0 67.333 18.833 122.5 56.5 165.5s86.834 77.5 147.501 103.5
c-36 17.333 -63 40.666 -81 69.999s-27 63.666 -27 102.999c0 53.333 14.167 97 42.5 131s63.5 61.333 105.5 82c-68 30.667 -119.333 75 -154 133s-52 126.333 -52 205c0 68 12.333 127.833 37 179.5s58.834 94.667 102.501 129s96.167 60.166 157.5 77.499
s128.333 26 201 26c71.333 0 135.5 -8.66699 192.5 -26s105.167 -42.333 144.5 -75c29.333 32 60.166 57.167 92.499 75.5s65.166 27.5 98.499 27.5c17.333 0 35.833 -2 55.5 -6s37.5 -8 53.5 -12v-190h-219c12 -24.667 21.167 -51.834 27.5 -81.501s9.5 -61.5 9.5 -95.5
c0 -124 -42.5 -224 -127.5 -300s-206.5 -114 -364.5 -114c-28.667 0 -56.167 1.33301 -82.5 4s-51.166 6.33398 -74.499 11.001c-14.667 -13.333 -26 -28.333 -34 -45s-12 -35 -12 -55c0 -39.333 17.167 -66.833 51.5 -82.5s91.166 -23.5 170.499 -23.5h231
c126.667 0 222.667 -25 288 -75s98 -122.333 98 -217zM618.001 -418.997c100.667 0 182 21.3311 244 63.998s93 106.667 93 192c0 50.667 -14.167 89 -42.5 115s-81.833 39 -160.5 39h-240c-20 0 -39 0.5 -57 1.5s-35 2.83301 -51 5.5
c-19.333 -23.333 -35.333 -50.666 -48 -81.999s-19 -67.666 -19 -108.999c0 -64.667 20.333 -118.5 61 -161.5s114 -64.5 220 -64.5zM461.001 1503c0.666992 66 23.334 124.5 68.001 175.5s97 91.167 157 120.5l62 -69c-24 -18.667 -46 -40 -66 -64s-30 -49.333 -30 -76
c0 -21.333 5.16699 -36.5 15.5 -45.5s19.833 -16.833 28.5 -23.5c11.333 -8.66699 22.666 -20 33.999 -34s17 -34 17 -60c0 -32.667 -11.667 -60 -35 -82s-53 -33 -89 -33c-46.667 0 -85.5 18.167 -116.5 54.5s-46.167 81.833 -45.5 136.5z" />
    <glyph glyph-name="Hcircumflex" unicode="&#x124;" horiz-adv-x="1846" 
d="M1743 1562l-0.000976562 -119.004l-159 -31c-16 -3.33301 -28.333 -10.5 -37 -21.5s-13 -24.5 -13 -40.5v-1144c0 -16.667 4.33301 -30 13 -40s21.334 -16.667 38.001 -20l158 -30v-116h-662v116l129 29c16 4 28.333 11 37 21s13 23.333 13 40v519h-674v-519
c0 -16.667 4.16699 -30.167 12.5 -40.5s20.833 -17.166 37.5 -20.499l140 -29v-116h-673v116l158 30c16.667 3.33301 29.167 10 37.5 20s12.5 23.333 12.5 40v1144c0 16.667 -4.16699 30.334 -12.5 41.001s-20.5 17.667 -36.5 21l-159 31v119h672v-119l-140 -31
c-16.667 -3.33301 -29 -10.166 -37 -20.499s-12 -24.166 -12 -41.499v-479h674v479c0 16.667 -4.16699 30.167 -12.5 40.5s-20.5 17.5 -36.5 21.5l-130 31v119h662zM599.999 1661l-79 88l299 314l188 10l326 -317l-83 -94l-338 210z" />
    <glyph glyph-name="hcircumflex" unicode="&#x125;" horiz-adv-x="1441" 
d="M642 115l-0.00195312 -115.001h-579v116l118 19c16.667 2.66699 29.5 9 38.5 19s13.5 23.333 13.5 40v1362c0 16.667 -4.33301 30 -13 40s-21.334 16.333 -38.001 19l-142 22v107c30.667 8.66699 64 16.5 100 23.5s72.5 12.667 109.5 17s73.5 7.66602 109.5 9.99902
s69.333 3.83301 100 4.5l37 -38v-743c52 52 110.5 89.167 175.5 111.5s132.833 33.5 203.5 33.5c132.667 0 223.334 -38 272.001 -114s73 -183 73 -321v-533c0 -16.667 4.33301 -30.167 13 -40.5s21.334 -16.833 38.001 -19.5l119 -19v-116h-579v115l95 20
c15.333 4 27.666 10.5 36.999 19.5s14 22.5 14 40.5v493c0 104.667 -14.667 181.667 -44 231s-82.666 74 -159.999 74c-44 0 -88.333 -6.66699 -133 -20s-86 -33.666 -124 -60.999v-717c0 -17.333 4.33301 -30.666 13 -39.999s21.334 -16 38.001 -20zM96.998 1867l-79 88
l299 314l188 10l326 -317l-83 -94l-338 210z" />
    <glyph glyph-name="Hbar" unicode="&#x126;" horiz-adv-x="1847" 
d="M587 821h674v214h-674v-214zM777 116l-0.000976562 -116.002h-673v116l158 30c16.667 2.66699 29.167 9.16699 37.5 19.5s12.5 23.833 12.5 40.5v829h-198v121h198v194c0 16.667 -4.16699 30.334 -12.5 41.001s-20.5 17.667 -36.5 21l-159 31v119h672v-119l-140 -31
c-16.667 -3.33301 -29 -10.166 -37 -20.499s-12 -24.166 -12 -41.499v-194h674v194c0 16.667 -4.16699 30.167 -12.5 40.5s-20.5 17.5 -36.5 21.5l-130 31v119h662v-119l-159 -31c-16 -3.33301 -28.333 -10.5 -37 -21.5s-13 -24.5 -13 -40.5v-194h199v-121h-199v-829
c0 -16.667 4.33301 -30.167 13 -40.5s21.334 -16.833 38.001 -19.5l158 -30v-116h-662v116l129 29c16 3.33301 28.333 10.166 37 20.499s13 23.833 13 40.5v469h-674v-470c0 -16.667 4.16699 -30 12.5 -40s20.833 -16.667 37.5 -20z" />
    <glyph glyph-name="hbar" unicode="&#x127;" horiz-adv-x="1441" 
d="M642 115l-0.00195312 -115h-579v116l118 19c16.667 2.66699 29.5 9 38.5 19s13.5 23.333 13.5 40v1116h-174v124h174v122c0 16.667 -4.33301 30 -13 40s-21.334 16.333 -38.001 19l-142 22v107c30.667 8.66699 64 16.5 100 23.5s72.5 12.667 109.5 17
s73.5 7.66602 109.5 9.99902s69.333 3.83301 100 4.5l37 -38v-327h337v-124h-337v-319c52 52 110.5 89.333 175.5 112s132.833 34 203.5 34c132.667 0 223.334 -38.167 272.001 -114.5s73 -183.5 73 -321.5v-506c0 -16.667 4.33301 -30.167 13 -40.5
s21.334 -16.833 38.001 -19.5l119 -19v-116h-579v115l95 20c15.333 4 27.666 10.5 36.999 19.5s14 22.5 14 40.5v467c0 104.667 -14.667 181.5 -44 230.5s-82.666 73.5 -159.999 73.5c-44 0 -88.333 -6.66699 -133 -20s-86 -33.333 -124 -60v-691
c0 -17.333 4.33301 -30.666 13 -39.999s21.334 -16 38.001 -20z" />
    </font>
</defs>
</svg>
