<?xml version="1.0" standalone="no"?>
<!DOCTYPE svg PUBLIC "-//W3C//DTD SVG 1.1//EN" "http://www.w3.org/Graphics/SVG/1.1/DTD/svg11.dtd" >
<svg>
<metadata>
Created by FontForge 20090914 at Wed Mar 21 14:37:47 2018
 By www-data
Copyright (c) 2015 by Rosetta Type Foundry s.r.o. (info@rosettatype.com).
</metadata>
<defs>
<font id="Yrsa-SemiBold" horiz-adv-x="0" >
  <font-face 
    font-family="Yrsa SemiBold"
    font-weight="600"
    font-stretch="normal"
    units-per-em="2750"
    panose-1="2 13 0 0 0 4 0 0 0 0"
    ascent="2000"
    descent="-750"
    x-height="1138"
    cap-height="1562"
    bbox="-453 -607.003 3098 2332"
    underline-thickness="135"
    underline-position="-131"
    unicode-range="U+000D-U+25CA"
  />
<missing-glyph horiz-adv-x="1770" 
d="M177 0v1416h1416v-1416h-1416zM440 387l119 -135l324 353l337 -353l113 113l-348 343l348 334l-119 116l-328 -351l-333 352l-114 -116l344 -338z" />
    <glyph glyph-name="f_b" unicode="fb" horiz-adv-x="2209" 
d="M1491 -23c-42.667 0 -85.667 2.50098 -129 7.50098s-84 11.333 -122 19s-72.833 16.167 -104.5 25.5s-57.5 18.333 -77.5 27v1452c-38.667 12.667 -78.5 22.167 -119.5 28.5s-82.5 9.5 -124.5 9.5c-34 0 -66.833 -3.66699 -98.5 -11s-59.334 -19.833 -83.001 -37.5
s-42.667 -41.5 -57 -71.5s-21.5 -67.333 -21.5 -112v-177h330v-176h-329v-755c0 -16.667 4.5 -29.667 13.5 -39s21.833 -14.666 38.5 -15.999l205 -22v-129h-725v129l112 19c16.667 2.66699 29.167 8.66699 37.5 18s12.5 22.333 12.5 39v751l-178 28v123l184 31v81
c0 72.667 17 144 51 214s78.167 131.833 132.5 185.5s116.333 97 186 130s139.834 49.5 210.501 49.5c41.333 0 83.666 -6.83301 126.999 -20.5s84.333 -31.834 123 -54.501c41.333 17.333 82.833 32.666 124.5 45.999s79.5 23.333 113.5 30l44 -39v-720
c40 40 87 71.333 141 94s113.333 34 178 34c60.667 0 117.334 -10.5 170.001 -31.5s98.167 -53.5 136.5 -97.5s68.666 -100.333 90.999 -169s33.5 -150 33.5 -244c0 -101.333 -13.5 -192.333 -40.5 -273s-66.833 -148.667 -119.5 -204s-118.167 -97.833 -196.5 -127.5
s-168.166 -44.5 -269.499 -44.5zM1513 108.001c88 0 155 36.168 201 108.501s70 187.833 72 346.5c2 156.667 -18.167 265 -60.5 325s-101.833 90 -178.5 90c-32.667 0 -64.167 -4.66699 -94.5 -14s-58.833 -22.333 -85.5 -39v-781
c18.667 -10.667 40.167 -19.334 64.5 -26.001s51.5 -10 81.5 -10z" />
    <glyph glyph-name="f_f" unicode="ff" horiz-adv-x="1750" 
d="M782 0l-695 -0.00195312v129l112 19c16.667 2.66699 29.167 8.66699 37.5 18s12.5 22.333 12.5 39v751l-178 28v123l184 30l1 40c2 71.333 18.167 141 48.5 209s69.333 127.833 117 179.5s102 93.334 163 125.001s123.167 47.5 186.5 47.5c50 0 99 -9.5 147 -28.5
s92.333 -42.167 133 -69.5l-65 -181c-38 8.66699 -76.667 15.667 -116 21s-71 7.66602 -95 6.99902c-70 -0.666992 -124.167 -16 -162.5 -46s-57.5 -91.667 -57.5 -185v-119h533v67c0 72.667 14.667 144.667 44 216s67.833 134.833 115.5 190.5
s102.167 100.834 163.5 135.501s123.666 52 186.999 52c50.667 0 100.667 -9.66699 150 -29s95 -42.333 137 -69l-60 -181c-40 8 -80.833 14.5 -122.5 19.5s-75.5 7.16699 -101.5 6.5c-69.333 -0.666992 -122.5 -16 -159.5 -46s-55.5 -91.667 -55.5 -185v-177h326v-176h-324
v-755c0 -16.667 4.33301 -29.667 13 -39s21.334 -14.666 38.001 -15.999l208 -22v-129h-719v129l104 19c16 2.66699 28.333 8.66699 37 18s13 22.333 13 39v756h-527v-755c0 -16.667 4.5 -29.5 13.5 -38.5s21.833 -14.5 38.5 -16.5l175 -22v-129z" />
    <glyph glyph-name="f_h" unicode="fh" horiz-adv-x="2312" 
d="M784 129l-0.00292969 -129h-697v129l112 19c16.667 2.66699 29.167 8.66699 37.5 18s12.5 22.333 12.5 39v751l-178 28v123l184 31v81c0 72.667 17.5 144 52.5 214s80.167 131.833 135.5 185.5s118.333 97 189 130s141.334 49.5 212.001 49.5c42 0 85.667 -7 131 -21
s88.666 -32.333 129.999 -55c41.333 18 83 33.667 125 47s80.333 23.333 115 30l44 -40v-736c48.667 48.667 104.334 84.167 167.001 106.5s129.334 33.5 200.001 33.5c133.333 0 224.5 -37.833 273.5 -113.5s73.5 -182.167 73.5 -319.5v-523
c0 -16.667 4.16699 -29.834 12.5 -39.501s20.5 -15.834 36.5 -18.501l113 -20v-129h-603v129l81 19c14.667 4.66699 26.334 11.5 35.001 20.5s13 21.833 13 38.5v483c0 99.333 -14.167 171 -42.5 215s-76.5 66 -144.5 66c-36 0 -72.5 -5.33301 -109.5 -16
s-72.167 -27 -105.5 -49v-699c0 -16.667 4 -29.5 12 -38.5s19.667 -15.833 35 -20.5l82 -19v-129h-596v129l112 20c15.333 2.66699 27.333 8.83398 36 18.501s13 22.834 13 39.501v1299c-41.333 14 -84.166 24.167 -128.499 30.5s-88.5 9.5 -132.5 9.5
c-34 0 -67.333 -3.66699 -100 -11s-61.334 -19.833 -86.001 -37.5s-44.5 -41.5 -59.5 -71.5s-22.5 -67.333 -22.5 -112v-177h330v-176h-329v-755c0 -16.667 4.5 -29.5 13.5 -38.5s21.833 -14.5 38.5 -16.5z" />
    <glyph glyph-name="f_k" unicode="fk" horiz-adv-x="2257" 
d="M784 129v-128.996h-697v129l112 19c16.667 2.66699 29.167 8.66699 37.5 18s12.5 22.333 12.5 39v751l-178 28v123l184 31v81c0 72.667 17.5 144 52.5 214s80.167 131.833 135.5 185.5s118.333 97 189 130s141.334 49.5 212.001 49.5c42 0 85.667 -7 131 -21
s88.666 -32.333 129.999 -55c41.333 18 83 33.667 125 47s80.333 23.333 115 30l44 -40v-1202l397 424l-189 33v123h579v-123l-118 -28c-24.667 -6 -43.5 -11.5 -56.5 -16.5s-26.833 -14.833 -41.5 -29.5l-210 -210c22.667 -26.667 43.5 -55.334 62.5 -86.001
s39.167 -66.667 60.5 -108l175 -321c9.33301 -18 19.333 -30.833 30 -38.5s24.334 -13.834 41 -18.501l114 -29v-129h-378c-32 0 -59 18.5 -81 55.5s-45 81.167 -69 132.5l-97 205c-10.667 22.667 -21.667 44.667 -33 66l-34 62l-152 -152v-162
c0 -16.667 4.16699 -29.834 12.5 -39.501s20.5 -15.834 36.5 -18.501l110 -20v-129h-626v129l112 20c15.333 2.66699 27.333 9 36 19s13 23.333 13 40v1298c-41.333 14 -84.166 24.167 -128.499 30.5s-88.5 9.5 -132.5 9.5c-34 0 -67.333 -3.66699 -100 -11
s-61.334 -19.833 -86.001 -37.5s-44.5 -41.5 -59.5 -71.5s-22.5 -67.333 -22.5 -112v-177h330v-176h-329v-755c0 -16.667 4.5 -29.5 13.5 -38.5s21.833 -14.5 38.5 -16.5z" />
    <glyph glyph-name="f_l" unicode="fl" horiz-adv-x="1615" 
d="M784 129v-128.998h-697v129l112 19c16.667 2.66699 29.167 8.66699 37.5 18s12.5 22.333 12.5 39v751l-178 28v123l184 31v81c0 72.667 17.5 144 52.5 214s80.167 131.833 135.5 185.5s118.333 97 189 130s141.334 49.5 212.001 49.5c42 0 85.667 -7 131 -21
s88.666 -32.333 129.999 -55c41.333 18 83 33.667 125 47s80.333 23.333 115 30l44 -40v-1552c0 -16.667 4.33301 -29.834 13 -39.501s21 -15.834 37 -18.501l129 -21v-128h-646v129l112 20c16 2.66699 28.167 8.66699 36.5 18s12.5 22.333 12.5 39v1300
c-41.333 14 -84.166 24.167 -128.499 30.5s-88.5 9.5 -132.5 9.5c-34 0 -67.333 -3.66699 -100 -11s-61.334 -19.833 -86.001 -37.5s-44.5 -41.5 -59.5 -71.5s-22.5 -67.333 -22.5 -112v-177h330v-176h-329v-755c0 -16.667 4.5 -29.5 13.5 -38.5s21.833 -14.5 38.5 -16.5z
" />
    <glyph glyph-name="f_f_b" unicode="ffb" horiz-adv-x="3042" 
d="M2949 626c0 -101.333 -13.5 -192.333 -40.5 -273s-66.833 -148.667 -119.5 -204s-118 -97.833 -196 -127.5s-167.667 -44.5 -269 -44.5c-43.333 0 -86.5 2.5 -129.5 7.5s-83.667 11.333 -122 19s-73.333 16.167 -105 25.5s-57.167 18.333 -76.5 27v1452
c-38.667 12.667 -78.667 22.167 -120 28.5s-83 9.5 -125 9.5c-33.333 0 -65.833 -3.66699 -97.5 -11s-59.5 -19.833 -83.5 -37.5s-43.167 -41.5 -57.5 -71.5s-21.5 -67.333 -21.5 -112v-177h331v-176h-329v-755c0 -16.667 4.33301 -29.667 13 -39
s21.334 -14.666 38.001 -15.999l205 -22v-129h-725v129l113 19c16 2.66699 28.333 8.66699 37 18s13 22.333 13 39v756h-527v-755c0 -16.667 4.5 -29.5 13.5 -38.5s21.833 -14.5 38.5 -16.5l175 -22v-129h-695v129l112 19c16.667 2.66699 29.167 8.66699 37.5 18
s12.5 22.333 12.5 39v751l-178 28v123l184 30l1 40c2 71.333 18.167 141 48.5 209s69.333 127.833 117 179.5s102 93.334 163 125.001s123.167 47.5 186.5 47.5c50 0 99 -9.5 147 -28.5s92.333 -42.167 133 -69.5l-65 -181c-38 8.66699 -76.667 15.667 -116 21
s-71 7.66602 -95 6.99902c-70 -0.666992 -124.167 -16 -162.5 -46s-57.5 -91.667 -57.5 -185v-119h533v82c0 72.667 17 144 51 214s78.167 131.833 132.5 185.5s116.333 97 186 130s139.5 49.5 209.5 49.5c41.333 0 83.666 -6.83301 126.999 -20.5
s84.666 -31.834 123.999 -54.501c40.667 18 81.834 33.5 123.501 46.5s79.5 22.833 113.5 29.5l44 -39v-720c39.333 40 86 71.333 140 94s113.667 34 179 34c60.667 0 117.334 -10.5 170 -31.5c52.667 -21 98.334 -53.5 137 -97.5c38.667 -44 69 -100.333 91 -169
s33 -150 33 -244zM2346 108c87.333 0 154 36.167 200 108.5s70.333 187.833 73 346.5c2 156.667 -18.333 265 -61 325s-102.334 90 -179 90c-32.667 0 -64.167 -4.66699 -94.5 -14s-58.833 -22.666 -85.5 -39.999v-780c18.667 -10.667 40.167 -19.334 64.5 -26.001
s51.833 -10 82.5 -10z" />
    <glyph glyph-name="f_f_h" unicode="ffh" horiz-adv-x="3144" 
d="M782 0h-695.002v129l112 19c16.667 2.66699 29.167 8.66699 37.5 18s12.5 22.333 12.5 39v751l-178 28v123l184 30l1 40c2 71.333 18.167 141 48.5 209s69.333 127.833 117 179.5s102 93.334 163 125.001s123.167 47.5 186.5 47.5c50 0 99 -9.5 147 -28.5
s92.333 -42.167 133 -69.5l-65 -181c-38 8.66699 -76.667 15.667 -116 21s-71 7.66602 -95 6.99902c-70 -0.666992 -124.167 -16 -162.5 -46s-57.5 -91.667 -57.5 -185v-119h533v82c0 72.667 17.333 144 52 214s79.834 131.833 135.501 185.5s118.834 97 189.501 130
s141.334 49.5 212.001 49.5c42 0 85.667 -7 131 -21s88.666 -32.333 129.999 -55c41.333 18 83 33.667 125 47s80 23.333 114 30l45 -40v-735c49.333 48 105.166 83.167 167.5 105.5c62.333 22.333 128.5 33.5 198.5 33.5c133.333 0 224.5 -37.833 273.5 -113.5
s73.5 -182.167 73.5 -319.5v-523c0 -16.667 4.33301 -29.834 13 -39.501s20.667 -15.834 36 -18.501l114 -20v-129h-604v129l81 19c15.333 4.66699 27.166 11.5 35.499 20.5s12.5 21.833 12.5 38.5v483c0 99.333 -14.167 171 -42.5 215s-76.5 66 -144.5 66
c-36 0 -72.333 -5.33301 -109 -16s-71.667 -26.667 -105 -48v-700c0 -16.667 3.83301 -29.5 11.5 -38.5s19.5 -15.833 35.5 -20.5l82 -19v-129h-597v129l112 20c16 2.66699 28.333 8.83398 37 18.501s13 22.834 13 39.501v1299c-41.333 14 -84.333 24.167 -129 30.5
s-88.667 9.5 -132 9.5c-34 0 -67.333 -3.66699 -100 -11s-61.5 -19.833 -86.5 -37.5s-45 -41.5 -60 -71.5s-22.5 -67.333 -22.5 -112v-177h331v-176h-329v-755c0 -16.667 4.33301 -29.5 13 -38.5s21.334 -14.5 38.001 -16.5l178 -22v-129h-698v129l113 19
c16 2.66699 28.333 8.66699 37 18s13 22.333 13 39v756h-527v-755c0 -16.667 4.5 -29.5 13.5 -38.5s21.833 -14.5 38.5 -16.5l175 -22v-129z" />
    <glyph glyph-name="f_f_k" unicode="ffk" horiz-adv-x="3090" 
d="M782 0l-695.002 0.00292969v129l112 19c16.667 2.66699 29.167 8.66699 37.5 18s12.5 22.333 12.5 39v751l-178 28v123l184 30l1 40c2 71.333 18.167 141 48.5 209s69.333 127.833 117 179.5s102 93.334 163 125.001s123.167 47.5 186.5 47.5c50 0 99 -9.5 147 -28.5
s92.333 -42.167 133 -69.5l-65 -181c-38 8.66699 -76.667 15.667 -116 21s-71 7.66602 -95 6.99902c-70 -0.666992 -124.167 -16 -162.5 -46s-57.5 -91.667 -57.5 -185v-119h533v82c0 72.667 17.333 144 52 214s79.834 131.833 135.501 185.5s118.834 97 189.501 130
s141.334 49.5 212.001 49.5c42 0 85.667 -7 131 -21s88.666 -32.333 129.999 -55c41.333 18 83 33.667 125 47s80 23.333 114 30l45 -40v-1201l397 423l-190 33v123h580v-123l-118 -28c-24.667 -6 -43.667 -11.5 -57 -16.5s-27.333 -14.833 -42 -29.5l-210 -210
c22.667 -26.667 43.5 -55.334 62.5 -86.001s39.167 -66.667 60.5 -108l175 -321c10 -18 20.333 -30.833 31 -38.5s24.334 -13.834 41 -18.501l113 -29v-129h-377c-32 0 -59 18.5 -81 55.5s-45.333 81.167 -70 132.5l-96 205c-10.667 22.667 -21.834 44.834 -33.5 66.501
l-34.5 61.5l-151 -151v-163c0 -16.667 4.16699 -29.834 12.5 -39.501s20.166 -15.834 35.499 -18.501l110 -20v-129h-626v129l112 20c16 2.66699 28.333 9 37 19s13 23.333 13 40v1298c-41.333 14 -84.333 24.167 -129 30.5s-88.667 9.5 -132 9.5
c-34 0 -67.333 -3.66699 -100 -11s-61.5 -19.833 -86.5 -37.5s-45 -41.5 -60 -71.5s-22.5 -67.333 -22.5 -112v-177h331v-176h-329v-755c0 -16.667 4.33301 -29.5 13 -38.5s21.334 -14.5 38.001 -16.5l178 -22v-129h-698v129l113 19c16 2.66699 28.333 8.66699 37 18
s13 22.333 13 39v756h-527v-755c0 -16.667 4.5 -29.5 13.5 -38.5s21.833 -14.5 38.5 -16.5l175 -22v-129z" />
    <glyph glyph-name="f_f_l" unicode="ffl" horiz-adv-x="2447" 
d="M782 0l-695.003 0.00195312v129l112 19c16.667 2.66699 29.167 8.66699 37.5 18s12.5 22.333 12.5 39v751l-178 28v123l184 30l1 40c2 71.333 18.167 141 48.5 209s69.333 127.833 117 179.5s102 93.334 163 125.001s123.167 47.5 186.5 47.5c50 0 99 -9.5 147 -28.5
s92.333 -42.167 133 -69.5l-65 -181c-38 8.66699 -76.667 15.667 -116 21s-71 7.66602 -95 6.99902c-70 -0.666992 -124.167 -16 -162.5 -46s-57.5 -91.667 -57.5 -185v-119h533v82c0 72.667 17.333 144 52 214s79.834 131.833 135.501 185.5s118.834 97 189.501 130
s141.334 49.5 212.001 49.5c42 0 85.667 -7 131 -21s88.666 -32.333 129.999 -55c41.333 18 83 33.667 125 47s80 23.333 114 30l45 -40v-1552c0 -16.667 4.16699 -29.834 12.5 -39.501s20.5 -15.834 36.5 -18.501l129 -21v-128h-646v129l113 20
c16 2.66699 28.167 8.66699 36.5 18s12.5 22.333 12.5 39v1300c-41.333 14 -84.333 24.167 -129 30.5s-88.667 9.5 -132 9.5c-34 0 -67.333 -3.66699 -100 -11s-61.5 -19.833 -86.5 -37.5s-45 -41.5 -60 -71.5s-22.5 -67.333 -22.5 -112v-177h331v-176h-329v-755
c0 -16.667 4.33301 -29.5 13 -38.5s21.334 -14.5 38.001 -16.5l178 -22v-129h-698v129l113 19c16 2.66699 28.333 8.66699 37 18s13 22.333 13 39v756h-527v-755c0 -16.667 4.5 -29.5 13.5 -38.5s21.833 -14.5 38.5 -16.5l175 -22v-129z" />
    <glyph glyph-name=".notdef" horiz-adv-x="1770" 
d="M177 0v1416h1416v-1416h-1416zM440 387l119 -135l324 353l337 -353l113 113l-348 343l348 334l-119 116l-328 -351l-333 352l-114 -116l344 -338z" />
    <glyph glyph-name="uni000D" unicode="&#xd;" 
 />
    <glyph glyph-name="space" unicode=" " horiz-adv-x="542" 
 />
    <glyph glyph-name="exclam" unicode="!" horiz-adv-x="693" 
d="M173 1516v196h346v-196l-79 -1023h-187zM527 146c0 -49.333 -16.667 -89 -50 -119s-77 -45 -131 -45s-97.5 15 -130.5 45s-49.5 69.667 -49.5 119c0 50 16.5 90 49.5 120s76.5 45 130.5 45s97.667 -15 131 -45s50 -70 50 -120z" />
    <glyph glyph-name="quotedbl" unicode="&#x22;" horiz-adv-x="1095" 
d="M735 879l-49 839h285l-49 -839h-187zM173 879l-49 839h285l-49 -839h-187z" />
    <glyph glyph-name="numbersign" unicode="#" horiz-adv-x="1485" 
d="M568 515h291l41 360h-296zM273 0l40 354h-211l-2 161h233l38 360h-237l1 162h259l34 336h235l-34 -336h294l35 336h236l-36 -336h232l-1 -162h-254l-34 -360h244l1 -161h-265l-38 -354h-234l35 354h-296l-38 -354h-237z" />
    <glyph glyph-name="dollar" unicode="$" horiz-adv-x="1210" 
d="M660 -209l-179.996 0.00390625v231c-74.667 7.33301 -144.167 20.833 -208.5 40.5s-118.5 40.167 -162.5 61.5c-2.66699 61.333 -1.66699 125.666 3 192.999s11.667 127 21 179h186l36 -206c2.66699 -14 7 -25.833 13 -35.5s14 -18.834 24 -27.501
c19.333 -17.333 47.666 -33.833 84.999 -49.5s80.666 -23.5 129.999 -23.5c66 0 117.833 15.667 155.5 47s56.5 71.666 56.5 120.999c0 31.333 -8.16699 59.166 -24.5 83.499s-38.666 46.666 -66.999 66.999s-62.166 39.833 -101.499 58.5l-128 60
c-49.333 22.667 -96.5 46.5 -141.5 71.5s-84.667 53 -119 84s-61.833 66.333 -82.5 106s-31 85.167 -31 136.5c0 47.333 9.16699 92.5 27.5 135.5s45.833 81 82.5 114s82.834 60.333 138.501 82s120.167 35.167 193.5 40.5v228h180v-231
c54 -5.33301 107.333 -13.833 160 -25.5s99 -25.5 139 -41.5c4.66699 -58 5.16699 -117.333 1.5 -178s-10.167 -118.667 -19.5 -174h-181l-40 183c-2.66699 14 -6.83398 26.333 -12.501 37s-14.5 20.334 -26.5 29.001c-16.667 12.667 -39 23 -67 31s-59 12 -93 12
c-64 0 -111.667 -14.167 -143 -42.5s-47 -63.5 -47 -105.5c0 -62 30.167 -110.167 90.5 -144.5s137.166 -73.166 230.499 -116.499c57.333 -27.333 110.166 -54.833 158.499 -82.5s89.666 -57.334 123.999 -89.001s61 -66.667 80 -105s28.5 -81.833 28.5 -130.5
c0 -45.333 -9 -90.5 -27 -135.5s-45.833 -85.833 -83.5 -122.5s-86.334 -67.5 -146.001 -92.5s-130.5 -40.5 -212.5 -46.5v-227z" />
    <glyph glyph-name="percent" unicode="%" horiz-adv-x="2026" 
d="M885 1148c0 -74.667 -11.502 -140.334 -34.502 -197.001s-53.667 -103.834 -92 -141.501s-82.666 -66.167 -132.999 -85.5s-102.833 -29 -157.5 -29c-62 0 -117.5 10.333 -166.5 31s-90.333 49.334 -124 86.001s-59.5 81 -77.5 133s-27 109.333 -27 172
c0 74.667 11.5 140.334 34.5 197.001s53.667 104 92 142s82.833 66.5 133.5 85.5s103.334 28.5 158.001 28.5c62 0 117.5 -10.167 166.5 -30.5s90.167 -49 123.5 -86s59 -81.5 77 -133.5s27 -109.333 27 -172zM640.998 0h-216l962 1562h216zM324.998 1149
c0 -106 14.167 -186.501 42.5 -241.501s68.5 -82.5 120.5 -82.5c46.667 0 82.167 24 106.5 72s36.5 121.333 36.5 220c0 104.667 -14.167 184.834 -42.5 240.501s-68.5 83.5 -120.5 83.5c-46 0 -81.333 -24.167 -106 -72.5s-37 -121.5 -37 -219.5zM1954 442.999
c0 -74.667 -11.502 -140.502 -34.502 -197.502s-53.667 -104.333 -92 -142s-82.666 -66.167 -132.999 -85.5s-102.833 -29 -157.5 -29c-62 0 -117.5 10.333 -166.5 31s-90.333 49.334 -124 86.001s-59.5 81.167 -77.5 133.5s-27 109.833 -27 172.5
c0 74.667 11.5 140.334 34.5 197.001s53.667 104 92 142s82.833 66.5 133.5 85.5s103.334 28.5 158.001 28.5c62 0 117.5 -10.167 166.5 -30.5s90.167 -49 123.5 -86s59 -81.5 77 -133.5s27 -109.333 27 -172zM1394 442.997c0 -105.333 14.167 -185.667 42.5 -241
s68.5 -83 120.5 -83c46.667 0 82.167 24.167 106.5 72.5s36.5 121.833 36.5 220.5c0 104.667 -14.167 184.667 -42.5 240s-68.5 83 -120.5 83c-46 0 -81.333 -23.833 -106 -71.5s-37 -121.167 -37 -220.5z" />
    <glyph glyph-name="ampersand" unicode="&#x26;" horiz-adv-x="1651" 
d="M530 1260c0 -46 9.49902 -94.333 28.499 -145s57.833 -116.667 116.5 -198c56 48 97.5 102.833 124.5 164.5s40.5 123.5 40.5 185.5c0 68 -12.667 120.667 -38 158s-61 56 -107 56c-51.333 0 -91.666 -20.167 -120.999 -60.5s-44 -93.833 -44 -160.5zM685.999 114
c36 0 74.167 4.66699 114.5 14s79.5 25.333 117.5 48c-39.333 35.333 -79.166 74.5 -119.499 117.5l-117 129l-106.5 126.5l-88 111c-30.667 -28.667 -56.834 -62 -78.501 -100s-32.5 -86 -32.5 -144c0 -89.333 27.333 -162 82 -218s130.667 -84 228 -84zM1305 -18
c-46 0 -91.501 8.00098 -136.501 24.001s-94.5 44 -148.5 84c-54 -40 -117.5 -69.833 -190.5 -89.5s-147.5 -29.5 -223.5 -29.5c-72.667 0 -140.667 7.83301 -204 23.5s-118 39.667 -164 72s-82.167 74 -108.5 125s-39.5 111.167 -39.5 180.5
c0 61.333 9.66699 114.333 29 159s44.166 82.5 74.499 113.5s64.333 56.5 102 76.5s74.5 36 110.5 48c-52 74 -93 145.167 -123 213.5s-45 137.166 -45 206.499c0 58.667 11 112.5 33 161.5s53.167 91 93.5 126s89.333 62.333 147 82s122.167 29.5 193.5 29.5
c128 0 227 -30.667 297 -92s105 -144.666 105 -249.999c0 -96 -30.333 -180.167 -91 -252.5s-150.667 -128.833 -270 -169.5l90 -111l100.5 -118.5l104.5 -117.5l103 -109c28 42.667 47.167 88.5 57.5 137.5s15.5 93.5 15.5 133.5c0 16.667 -2.16699 30.334 -6.5 41.001
s-15.166 18.334 -32.499 23.001l-154 32v136h542v-136l-104 -32c-16 -4.66699 -26.167 -11.5 -30.5 -20.5s-7.83301 -21.833 -10.5 -38.5c-12 -66.667 -32.5 -130.834 -61.5 -192.501s-71.5 -117.834 -127.5 -168.501c30 -27.333 57.167 -49.333 81.5 -66
s48.5 -29.334 72.5 -38.001s49.5 -14.5 76.5 -17.5s58.5 -4.5 94.5 -4.5v-131c-34 -12 -74.167 -22.333 -120.5 -31s-90.166 -13 -131.499 -13z" />
    <glyph glyph-name="quotesingle" unicode="'" horiz-adv-x="533" 
d="M173 879l-49 839h285l-49 -839h-187z" />
    <glyph glyph-name="parenleft" unicode="(" horiz-adv-x="736" 
d="M698 -361l-99.9941 -101.998c-22 19.333 -60.833 58.666 -116.5 117.999s-112.334 140 -170.001 242s-108.834 227.333 -153.501 376s-67 321 -67 517c0 179.333 21.5 341.333 64.5 486s92.667 269.167 149 373.5s112.666 188.833 168.999 253.5
s97.833 107.667 124.5 129l100 -104c-25.333 -38.667 -56 -90.167 -92 -154.5s-70.333 -141.833 -103 -232.5s-60.834 -196.167 -84.501 -316.5s-35.834 -255.833 -36.501 -406.5c-0.666992 -166 11 -314 35 -444s52.833 -242.833 86.5 -338.5s68.667 -176.334 105 -242.001
s66.166 -117.167 89.499 -154.5z" />
    <glyph glyph-name="parenright" unicode=")" horiz-adv-x="736" 
d="M646 779c0 -179.333 -21.502 -341.333 -64.502 -486s-92.667 -269.167 -149 -373.5s-112.666 -189 -168.999 -254s-97.833 -107.833 -124.5 -128.5l-100 103c25.333 38.667 56 90.167 92 154.5s70.333 141.833 103 232.5s60.667 196.167 84 316.5
s35.333 255.833 36 406.5c1.33301 166 -10 314 -34 444s-53 243 -87 339s-69.167 176.667 -105.5 242s-65.833 116.666 -88.5 153.999l100 103c21.333 -19.333 60 -58.666 116 -117.999s112.833 -140 170.5 -242s108.834 -227.333 153.501 -376s67 -321 67 -517z" />
    <glyph glyph-name="asterisk" unicode="*" horiz-adv-x="1214" 
d="M713 994l21 -189h-254l21 189l64 233l-168 -172l-153 -113l-127 220l174 76l233 60l-233 61l-174 76l127 220l153 -113l168 -172l-64 232l-21 189h254l-21 -189l-64 -232l169 172l153 113l127 -220l-175 -76l-233 -61l233 -60l175 -76l-127 -220l-153 113l-169 172z" />
    <glyph glyph-name="plus" unicode="+" horiz-adv-x="1115" 
d="M663 142h-211v222l6 156l-156 -6h-210v198h210l156 -7l-6 157v223h211v-223l-7 -157l156 7h211v-198h-211l-156 6l7 -156v-222z" />
    <glyph glyph-name="comma" unicode="," horiz-adv-x="617" 
d="M500 78c0 -57.333 -9.66699 -112.499 -29 -165.499s-45.166 -102 -77.499 -147s-69.833 -85.833 -112.5 -122.5s-86.667 -67.667 -132 -93l-62 80c51.333 47.333 93.5 98.166 126.5 152.499s49.5 104.833 49.5 151.5c0 28 -6.16699 46.333 -18.5 55l-44.5 32
c-20.667 14 -39.5 33.167 -56.5 57.5s-25.5 54.833 -25.5 91.5c0 50 16.333 91.333 49 124s74.667 49 126 49c59.333 0 108.666 -23 147.999 -69s59 -111.333 59 -196z" />
    <glyph glyph-name="hyphen" unicode="-" horiz-adv-x="1045" 
d="M140 494v205h766v-205h-766z" />
    <glyph glyph-name="period" unicode="." horiz-adv-x="610" 
d="M488 153c0 -51.333 -16.667 -92.666 -50 -123.999s-77.666 -47 -132.999 -47s-99.666 15.667 -132.999 47s-50 72.666 -50 123.999s16.667 92.666 50 123.999s77.666 47 132.999 47s99.666 -15.667 132.999 -47s50 -72.666 50 -123.999z" />
    <glyph glyph-name="slash" unicode="/" horiz-adv-x="1012" 
d="M312 -288h-250l641 2030h250z" />
    <glyph glyph-name="zero" unicode="0" horiz-adv-x="1370" 
d="M667 -28c-102 0 -188 18.167 -258 54.5s-126.333 85.833 -169 148.5s-73.334 137.167 -92.001 223.5s-28 178.833 -28 277.5c0 124 14.167 232.167 42.5 324.5s68 168.5 119 228.5s112.5 104.833 184.5 134.5s151 44.5 237 44.5c102 0 188 -18 258 -54
s126.333 -85.167 169 -147.5s73.334 -136.5 92.001 -222.5s28 -178.333 28 -277c0 -125.333 -14.167 -234.333 -42.5 -327s-68 -169 -119 -229s-112.5 -104.833 -184.5 -134.5s-151 -44.5 -237 -44.5zM678 1265c-74.667 0 -128.833 -41.667 -162.5 -125
s-50.5 -218 -50.5 -404c0 -210 16.667 -365.833 50 -467.5s92 -152.5 176 -152.5c74.667 0 129 41.833 163 125.5s51 219.167 51 406.5c0 210 -16.667 365.333 -50 466s-92.333 151 -177 151z" />
    <glyph glyph-name="one" unicode="1" horiz-adv-x="978" 
d="M698 1382l0.000976562 -1165c0 -16 4.16699 -28.667 12.5 -38s20.5 -15.333 36.5 -18l197 -33v-128h-838v128l235 34c16 2 28.833 7.66699 38.5 17s14.5 22.333 14.5 39v882c-14.667 -4 -33.334 -8 -56.001 -12s-46.5 -8 -71.5 -12s-50 -7.33301 -75 -10
s-47.167 -4.33398 -66.5 -5.00098l-25 136c38 8.66699 77.833 20.834 119.5 36.501s82 33.167 121 52.5s75.667 39.666 110 60.999s63.5 42.333 87.5 63z" />
    <glyph glyph-name="two" unicode="2" horiz-adv-x="1236" 
d="M1088 0h-955.999l-60 168l304 270.5c83.333 76.333 150.5 144 201.5 203s87.833 112.667 110.5 161s34 96.166 34 143.499c0 73.333 -22.333 129 -67 167s-97 57 -157 57c-54 0 -104.5 -15 -151.5 -45s-89.833 -73 -128.5 -129l-98 86c16.667 44 39.667 85.833 69 125.5
s64.666 74.334 105.999 104.001s88.666 53.167 141.999 70.5s112.333 26 177 26c62.667 0 121.167 -9.5 175.5 -28.5s101.333 -46 141 -81s71 -77.833 94 -128.5s34.5 -107.667 34.5 -171c0 -66.667 -14 -131 -42 -193s-70.833 -124.5 -128.5 -187.5
s-131.5 -128.5 -221.5 -196.5s-196.333 -141.333 -319 -220h244c44 0 86 1.66699 126 5s71 7.33301 93 12c20.667 4.66699 36.5 11 47.5 19s19.5 19 25.5 33l85 190l161 -19c0 -69.333 -3.66699 -144 -11 -224s-17.666 -152.667 -30.999 -218z" />
    <glyph glyph-name="three" unicode="3" horiz-adv-x="1181" 
d="M1082 402c0 -64.667 -14.668 -123.666 -44.001 -176.999s-69 -98.833 -119 -136.5s-108.5 -66.834 -175.5 -87.501s-137.833 -31 -212.5 -31c-54.667 0 -105.5 5.33301 -152.5 16s-89.667 24.5 -128 41.5s-72.833 36.5 -103.5 58.5s-57.334 44.333 -80.001 67l81 113
c40 -28.667 86.5 -53.334 139.5 -74.001s111.5 -31 175.5 -31c37.333 0 72.666 4.66699 105.999 14s62.5 24 87.5 44s44.833 45.667 59.5 77s22.334 68.666 23.001 111.999c0.666992 66.667 -18.833 122 -58.5 166s-92.5 70 -158.5 78l-75 -17.5
c-28 -6.33301 -52.667 -11.166 -74 -14.499l-37 141c44 10 86.333 23 127 39s76.667 35.5 108 58.5s56.333 49.833 75 80.5s28 65.667 28 105c0 46 -15.833 84.5 -47.5 115.5s-73.167 46.5 -124.5 46.5c-56 0 -108.667 -14.333 -158 -43s-89.333 -59.667 -120 -93l-95 90
c42 67.333 102.333 125.333 181 174s176 73 292 73c52.667 0 103.334 -6.5 152.001 -19.5s91.334 -32.667 128.001 -59s66 -59.666 88 -99.999s33 -87.5 33 -141.5c0 -43.333 -9.5 -84.166 -28.5 -122.499s-43.333 -72.5 -73 -102.5s-63.5 -55.667 -101.5 -77
s-75.667 -37.333 -113 -48c43.333 2 88.5 -3.33301 135.5 -16s89.5 -32.834 127.5 -60.501s69.5 -63 94.5 -106s37.5 -93.833 37.5 -152.5z" />
    <glyph glyph-name="four" unicode="4" horiz-adv-x="1253" 
d="M1198 249l-215.001 -0.000976562v-249h-290v249h-601l-68 142c97.333 154.667 190.666 315.167 279.999 481.5s175.333 337.833 258 514.5h276l43 -61l-170 -317c-52 -94.667 -101.667 -179.5 -149 -254.5s-94.666 -141.667 -141.999 -200
s-96.666 -109.166 -147.999 -152.499l424 20l31 315l256 14v-315l215 10v-197z" />
    <glyph glyph-name="five" unicode="5" horiz-adv-x="1189" 
d="M154 276c41.333 -33.333 88.002 -60.832 140.002 -82.499s107 -32.5 165 -32.5c85.333 0 155.166 25.167 209.499 75.5s81.5 119.166 81.5 206.499c0 77.333 -22.333 140.333 -67 189s-106.667 73 -186 73c-38 0 -75.333 -6.16699 -112 -18.5s-73.667 -27.833 -111 -46.5
l-104 71l49 668h798l-27 -230h-589l-41 -341c42 34 88 57.167 138 69.5s98.333 18.5 145 18.5c136 0 244.833 -38.667 326.5 -116s122.5 -180.666 122.5 -309.999c0 -75.333 -14.333 -144 -43 -206s-67.834 -114.667 -117.501 -158s-108.667 -76.833 -177 -100.5
s-141.833 -35.5 -220.5 -35.5c-97.333 0 -187 17.667 -269 53s-146.667 81.666 -194 138.999z" />
    <glyph glyph-name="six" unicode="6" horiz-adv-x="1283" 
d="M1191 469c0 -71.333 -12.168 -137.501 -36.501 -198.501s-59.166 -113.667 -104.499 -158s-100.833 -79.166 -166.5 -104.499s-139.5 -38 -221.5 -38c-83.333 0 -159.333 14 -228 42s-127.167 68.667 -175.5 122s-85.666 119.833 -111.999 199.5s-39.5 170.5 -39.5 272.5
c0 118.667 17.333 227.5 52 326.5s82.667 183.5 144 253.5s134.666 124.5 219.999 163.5s178 58.5 278 58.5c56 0 111.333 -5.83301 166 -17.5s103 -30.834 145 -57.501l-46 -135c-32.667 12.667 -64.667 21.834 -96 27.501s-60 8.5 -86 8.5
c-115.333 0 -212.333 -40.333 -291 -121s-127 -192.667 -145 -336c34.667 36.667 82 66.167 142 88.5s123.333 33.5 190 33.5c63.333 0 120.5 -10.667 171.5 -32s94.167 -50.833 129.5 -88.5s62.5 -83 81.5 -136s28.5 -110.833 28.5 -173.5zM676.999 115.999
c62.667 0 112.168 26.833 148.501 80.5s54.5 127.167 54.5 220.5c0 97.333 -20.833 172 -62.5 224s-96.5 78 -164.5 78c-31.333 0 -67.333 -5 -108 -15s-75.667 -25 -105 -45v-6v-86c0 -142 21.167 -252.667 63.5 -332s100.166 -119 173.499 -119z" />
    <glyph glyph-name="seven" unicode="7" horiz-adv-x="1153" 
d="M924 1184l-288.998 -0.00195312c-46.667 0 -90.667 -2 -132 -6s-74 -9 -98 -15c-18 -4 -31.667 -9.66699 -41 -17s-17 -19.666 -23 -36.999l-81 -230l-162 -1c-6.66699 82.667 -7.83398 168 -3.50098 256s11.833 169.667 22.5 245h933l75 -162
c-125.333 -164.667 -228.833 -343.5 -310.5 -536.5s-130.834 -419.833 -147.501 -680.5h-286l-46 51c8 107.333 29.167 214 63.5 320s77.833 207.5 130.5 304.5s113 188.833 181 275.5s139.333 164.334 214 233.001z" />
    <glyph glyph-name="eight" unicode="8" horiz-adv-x="1296" 
d="M636 -30c-78.667 0 -151 8.1709 -217 24.5039s-122.5 40.166 -169.5 71.499s-83.5 69.666 -109.5 114.999s-39 97 -39 155c0 82 25.833 154.667 77.5 218s120.167 109.333 205.5 138c-57.333 38 -107.166 84.167 -149.499 138.5s-63.5 121.5 -63.5 201.5
c0 56 11.5 107.167 34.5 153.5s55.667 85.833 98 118.5s93.833 58 154.5 76s128 27 202 27c68.667 0 131.667 -7.83301 189 -23.5s106.5 -37.667 147.5 -66s72.833 -62.5 95.5 -102.5s34 -84.333 34 -133c0 -72 -23.833 -136.333 -71.5 -193
s-107.834 -99.334 -180.501 -128.001c42 -21.333 82.333 -44.333 121 -69s72.667 -52.5 102 -83.5s52.833 -66.333 70.5 -106s26.5 -84.834 26.5 -135.501c0 -62 -13.333 -117.667 -40 -167s-64.167 -90.833 -112.5 -124.5s-107 -59.667 -176 -78s-145.5 -27.5 -229.5 -27.5
zM458 1105c0 -65.333 26.832 -118.334 80.499 -159.001s119.5 -80 197.5 -118c42.667 32.667 72.5 69.667 89.5 111s25.5 81 25.5 119c0 69.333 -19.167 122 -57.5 158s-88.166 54 -149.499 54c-58 0 -103.5 -15.167 -136.5 -45.5s-49.5 -70.166 -49.5 -119.499z
M651.999 110.003c70 0 124 18.832 162 56.499s57 83.167 57 136.5c0 36.667 -8.83301 68.834 -26.5 96.501s-41.167 52.834 -70.5 75.501s-63.833 44.167 -103.5 64.5l-124.5 62.5c-4.66699 2.66699 -9.66699 5.16699 -15 7.5s-10.666 4.83301 -15.999 7.5
c-42 -30.667 -74 -68.334 -96 -113.001s-33 -92 -33 -142c0 -42 7.33301 -78.833 22 -110.5s34.167 -58 58.5 -79s52.666 -36.667 84.999 -47s65.833 -15.5 100.5 -15.5z" />
    <glyph glyph-name="nine" unicode="9" horiz-adv-x="1283" 
d="M631 660c31.333 0 67.167 5.16699 107.5 15.5s74.833 24.833 103.5 43.5v87c0 66.667 -5.33301 128.167 -16 184.5s-26.167 104.5 -46.5 144.5s-45.5 71.167 -75.5 93.5s-64.333 33.5 -103 33.5c-65.333 0 -114.833 -28.5 -148.5 -85.5s-50.5 -129.5 -50.5 -217.5
c0 -94.667 20.5 -168.167 61.5 -220.5s96.833 -78.5 167.5 -78.5zM521.001 -30c-66.667 0 -132.329 9.33301 -196.996 28s-119 46 -163 82l53 128c30.667 -16.667 67.167 -31 109.5 -43s88.166 -18 137.499 -18c47.333 0 92.5 9.33301 135.5 28s81.167 46.834 114.5 84.501
s61.166 85.167 83.499 142.5s36.833 124.666 43.5 201.999c-34 -35.333 -81 -64.833 -141 -88.5s-123.333 -35.5 -190 -35.5c-65.333 0 -123.833 10.667 -175.5 32s-95.334 50.666 -131.001 87.999s-63 82.166 -82 134.499s-28.5 109.5 -28.5 171.5
c0 72 12 138.833 36 200.5s58.667 114.667 104 159s100.666 79.166 165.999 104.499s139.333 38 222 38c83.333 0 159.333 -14 228 -42s127.167 -69.167 175.5 -123.5s85.833 -122.666 112.5 -204.999s40 -177.166 40 -284.499c0 -123.333 -16.5 -233.833 -49.5 -331.5
s-78.5 -179.667 -136.5 -246s-127 -117.166 -207 -152.499s-166.667 -53 -260 -53z" />
    <glyph glyph-name="colon" unicode=":" horiz-adv-x="662" 
d="M514 985c0 -51.333 -16.833 -92.5 -50.5 -123.5s-77.834 -46.5 -132.501 -46.5c-55.333 0 -99.833 15.5 -133.5 46.5s-50.5 72.167 -50.5 123.5c0 52 16.833 93.5 50.5 124.5s78.167 46.5 133.5 46.5c54.667 0 98.834 -15.5 132.501 -46.5s50.5 -72.5 50.5 -124.5z
M514 153c0 -51.333 -16.833 -92.666 -50.5 -123.999s-77.834 -47 -132.501 -47c-55.333 0 -99.833 15.667 -133.5 47s-50.5 72.666 -50.5 123.999s16.833 92.666 50.5 123.999s78.167 47 133.5 47c54.667 0 98.834 -15.667 132.501 -47s50.5 -72.666 50.5 -123.999z" />
    <glyph glyph-name="semicolon" unicode=";" horiz-adv-x="682" 
d="M522 988c0 -51.333 -16.667 -92.5 -50 -123.5s-77.666 -46.5 -132.999 -46.5s-99.666 15.5 -132.999 46.5s-50 72.167 -50 123.5c0 52 16.667 93.5 50 124.5s77.666 46.5 132.999 46.5s99.666 -15.5 132.999 -46.5s50 -72.5 50 -124.5zM537 78
c0 -57.333 -9.66699 -112.499 -29 -165.499s-45.166 -102 -77.499 -147s-69.833 -85.833 -112.5 -122.5s-86.667 -67.667 -132 -93l-62 80c51.333 47.333 93.5 98.166 126.5 152.499s49.5 104.833 49.5 151.5c0 28 -6.16699 46.333 -18.5 55l-44.5 32
c-20.667 14 -39.5 33.167 -56.5 57.5s-25.5 54.833 -25.5 91.5c0 50 16.333 91.333 49 124s74.667 49 126 49c59.333 0 108.666 -23 147.999 -69s59 -111.333 59 -196z" />
    <glyph glyph-name="less" unicode="&#x3c;" horiz-adv-x="1126" 
d="M920 101l-840 429v167l840 427l90 -197l-678 -311l678 -315z" />
    <glyph glyph-name="equal" unicode="=" horiz-adv-x="1219" 
d="M1068 729h-930v202h930v-202zM1068 295h-930v202h930v-202z" />
    <glyph glyph-name="greater" unicode="&#x3e;" horiz-adv-x="1126" 
d="M206 101l-90 200l678 313l-678 313l90 197l840 -427v-167z" />
    <glyph glyph-name="question" unicode="?" horiz-adv-x="1128" 
d="M582 493l-177.996 -0.000976562c-16.667 34 -33.667 73.5 -51 118.5s-26 87.167 -26 126.5c0 59.333 18.667 108.333 56 147s83.666 83.334 138.999 134.001c72.667 66.667 126.5 126.667 161.5 180s52.5 113 52.5 179c0 62.667 -16.667 115 -50 157s-79 63 -137 63
c-34 0 -64.333 -7 -91 -21s-47.334 -28.667 -62.001 -44c-12.667 -14.667 -21.834 -29.5 -27.501 -44.5s-9.83398 -33.833 -12.501 -56.5l-26 -225h-185c-20 59.333 -36.333 123.166 -49 191.499s-20.667 134.5 -24 198.5c52 43.333 117.833 80.333 197.5 111
s165.834 46 258.501 46c80.667 0 153.834 -12.167 219.501 -36.5s121.667 -57.166 168 -98.499s82 -90 107 -146s37.5 -115.333 37.5 -178c0 -52 -8.33301 -99.333 -25 -142s-39.5 -82.5 -68.5 -119.5s-63.5 -72.333 -103.5 -106s-83.333 -67.5 -130 -101.5
c-26.667 -19.333 -47.834 -35.333 -63.501 -48s-27.834 -24.667 -36.501 -36s-15.167 -24 -19.5 -38s-7.83301 -32.667 -10.5 -56zM677.004 145.999c0 -48.667 -16.5 -88.168 -49.5 -118.501s-76.5 -45.5 -130.5 -45.5s-97.5 15 -130.5 45s-49.5 69.667 -49.5 119
c0 50 16.5 90 49.5 120s76.5 45 130.5 45s97.5 -15.167 130.5 -45.5s49.5 -70.166 49.5 -119.499z" />
    <glyph glyph-name="at" unicode="@" horiz-adv-x="2124" 
d="M922 -523c-128.667 0 -244.006 20.6709 -346.006 62.0039s-188.167 99.833 -258.5 175.5s-124.666 167.167 -162.999 274.5s-58.166 226.333 -59.499 357c-2 174.667 27.333 336.334 88 485.001s143 276.667 247 384s226.167 191.333 366.5 252s287.833 91 442.5 91
c113.333 0 218.333 -16.833 315 -50.5s179.834 -82.5 249.501 -146.5s124.167 -143.333 163.5 -238s59 -202.667 59 -324c0 -138.667 -23.833 -260.5 -71.5 -365.5s-104.5 -192.167 -170.5 -261.5s-134.167 -121.5 -204.5 -156.5s-128.166 -52.5 -173.499 -52.5
c-48 0 -85.333 19.167 -112 57.5s-40 90.5 -40 156.5c0 27.333 2.33301 62.5 7 105.5s12 94.167 22 153.5c-22.667 -61.333 -48.667 -121.666 -78 -180.999s-61.833 -111.833 -97.5 -157.5s-74.5 -82.5 -116.5 -110.5s-87 -42 -135 -42
c-39.333 0 -77.666 10.167 -114.999 30.5s-70.333 49.333 -99 87s-51.667 84 -69 139s-26 116.833 -26 185.5c0 81.333 12.833 163.166 38.5 245.499s62.167 156.333 109.5 222s105.5 119.167 174.5 160.5s146.167 62 231.5 62c38 0 77.333 -5.16699 118 -15.5
s85 -28.166 133 -53.499l58 67l175 -55c-4.66699 -24.667 -13.167 -66.834 -25.5 -126.501s-25 -125.334 -38 -197.001s-24.333 -144.334 -34 -218.001s-14.5 -136.834 -14.5 -189.501c0 -50 4.83301 -84.833 14.5 -104.5s24.5 -29.5 44.5 -29.5
c24.667 0 54.834 12.5 90.501 37.5s69.667 61.5 102 109.5s60.166 108.167 83.499 180.5s35 155.166 35 248.499c0 123.333 -20.667 227.5 -62 312.5s-94.666 153.333 -159.999 205s-138.833 89 -220.5 112s-162.834 34.5 -243.501 34.5c-122 0 -235.5 -23.167 -340.5 -69.5
s-195.667 -111.833 -272 -196.5s-136.333 -187.167 -180 -307.5s-65.5 -253.5 -65.5 -399.5c0 -133.333 18 -249.333 54 -348s84.5 -179.834 145.5 -243.501s132.667 -111.167 215 -142.5s169.5 -47 261.5 -47c36.667 0 75.334 2.33301 116.001 7s79.5 11 116.5 19
s71.5 17.5 103.5 28.5s58 23.167 78 36.5l50 -106c-56 -46 -130.167 -82.333 -222.5 -109s-190.5 -40 -294.5 -40zM920.994 181.004c24.667 0 51.499 11.6641 80.499 34.9971s57.667 55.833 86 97.5s56 91.834 83 150.501s51.167 122.667 72.5 192c8 26 15.5 51.5 22.5 76.5
s13.167 48.833 18.5 71.5c-30 32.667 -65.667 58.334 -107 77.001s-79.666 28 -114.999 28c-44 0 -82.667 -13 -116 -39s-60.833 -59.833 -82.5 -101.5s-38 -88.667 -49 -141s-16.5 -104.833 -16.5 -157.5c0 -34 2.33301 -68.333 7 -103s12 -65.667 22 -93
s22.833 -49.666 38.5 -66.999s34.167 -26 55.5 -26z" />
    <glyph glyph-name="A" unicode="A" horiz-adv-x="1587" 
d="M943 618l-225 696l-217 -696h442zM552 130v-130h-563v130l132 32c14 3.33301 25.333 9 34 17s15.334 18.667 20.001 32l463 1356h308l471 -1356c4.66699 -14 11.667 -24.667 21 -32s20.666 -13 33.999 -17l122 -32v-130h-698v130l194 33l-97 301h-540l-94 -301z" />
    <glyph glyph-name="B" unicode="B" horiz-adv-x="1561" 
d="M813 -12c-34 0 -65.0029 0.667969 -93.0029 2.00098l-81.5 4l-81.5 4c-28 1.33301 -59 2 -93 2h-368v130l163 30c12.667 2 22.834 7.83301 30.501 17.5s11.5 20.834 11.5 33.501v1133c0 12.667 -3.66699 23.5 -11 32.5s-17.333 14.833 -30 17.5l-164 33v135h367
c63.333 0 122.333 2.16699 177 6.5s115 6.5 181 6.5c104 0 191.167 -7.83301 261.5 -23.5s126.333 -38.834 168 -69.501s71.167 -69 88.5 -115s26 -99 26 -159c0 -100 -25 -182 -75 -246s-118 -107.333 -204 -130c56 -2.66699 107.833 -12.834 155.5 -30.501
s88.334 -42 122.001 -73s60 -69 79 -114s28.5 -96.167 28.5 -153.5c0 -66.667 -10.667 -129 -32 -187s-57.166 -108.167 -107.499 -150.5s-118 -75.5 -203 -99.5s-190.167 -36 -315.5 -36zM802.997 878.001c81.333 0 141.501 25.498 180.501 76.498s58.5 125.167 58.5 222.5
c0 94 -20.833 162.5 -62.5 205.5s-108.834 64.5 -201.501 64.5c-10 0 -22.167 -0.333008 -36.5 -1s-28.833 -1.66699 -43.5 -3s-28.5 -2.66602 -41.5 -3.99902l-29.5 -3v-555c34 -1.33301 66.833 -2.16602 98.5 -2.49902s57.5 -0.5 77.5 -0.5zM797.998 121.999
c112 0 192.333 27.999 241 83.999s73 136 73 240c0 104.667 -23.833 178.334 -71.5 221.001s-119.167 64 -214.5 64c-25.333 0 -55.833 -0.333008 -91.5 -1s-71.5 -1.66699 -107.5 -3v-591c20.667 -3.33301 47.167 -6.5 79.5 -9.5s62.833 -4.5 91.5 -4.5z" />
    <glyph glyph-name="C" unicode="C" horiz-adv-x="1452" 
d="M819 -33c-240.667 0 -419.998 68.168 -537.998 204.501s-177 328.833 -177 577.5c0 142 18.333 266 55 372s88.167 193.5 154.5 262.5s147 120.667 242 155s200.167 51.5 315.5 51.5c74.667 0 154.167 -6.83301 238.5 -20.5s161.833 -33.834 232.5 -60.501
c4.66699 -63.333 5.16699 -131.333 1.5 -204s-11.5 -147.667 -23.5 -225h-192l-55 250c-2.66699 13.333 -7.83398 26.666 -15.501 39.999s-19.834 25.333 -36.501 36c-19.333 12.667 -46 23.5 -80 32.5s-69.667 13.5 -107 13.5c-112.667 0 -201.167 -51.667 -265.5 -155
s-96.5 -273 -96.5 -509c0 -214.667 29.333 -381.667 88 -501s152.334 -179 281.001 -179c36.667 0 72.667 5.16699 108 15.5s64.666 25.166 87.999 44.499c10 8 18.667 17.667 26 29s14.333 26.666 21 45.999l70 223l189 -16c2.66699 -59.333 2.66699 -123.166 0 -191.499
s-9 -137.5 -19 -207.5c-33.333 -12 -70.5 -23.167 -111.5 -33.5s-83.5 -19.166 -127.5 -26.499s-88.667 -13.166 -134 -17.499s-89.333 -6.5 -132 -6.5z" />
    <glyph glyph-name="D" unicode="D" horiz-adv-x="1683" 
d="M460 1562c66.667 0 128.499 2.16602 185.499 6.49902s115.167 6.5 174.5 6.5c254.667 0 444.834 -61 570.501 -183s188.5 -309 188.5 -561c0 -138 -18 -260.5 -54 -367.5s-87.5 -196.333 -154.5 -268s-149.333 -125.5 -247 -161.5s-207.167 -52.667 -328.5 -50
c-22.667 0.666992 -48.5 1.83398 -77.5 3.50098s-58.5 3.5 -88.5 5.5s-59.5 3.66699 -88.5 5s-54.5 2 -76.5 2h-368v130l160 30c14 2 25 8 33 18s12 21.667 12 35v1131c0 12.667 -3.66699 23.5 -11 32.5s-17.333 14.833 -30 17.5l-164 33v135h364zM628.999 145.999
c20.667 -6.66699 48.002 -11.665 82.002 -14.998s65.333 -5 94 -5c66 1.33301 125 13.666 177 36.999s95.667 60.5 131 111.5s62.5 118.167 81.5 201.5s28.5 184.666 28.5 303.999c0 212.667 -34.667 375.667 -104 489s-180.333 170 -333 170
c-36.667 0 -69.334 -2.5 -98.001 -7.5s-48.334 -7.83301 -59.001 -8.5v-1277z" />
    <glyph glyph-name="E" unicode="E" horiz-adv-x="1436" 
d="M1270 1149l-154.998 -0.00585938l-52 187c-4.66699 16.667 -11.834 29.834 -21.501 39.501s-21.834 17.5 -36.501 23.5c-18.667 6.66699 -44.334 12 -77.001 16s-67 6 -103 6h-196v-546l449 17v-188l-449 11v-566h243c36 0 72.667 2 110 6s65.333 9.66699 84 17
c14.667 6 25.834 13.833 33.501 23.5s14.5 22.834 20.5 39.501l83 238l154 -24c0 -75.333 -3.16699 -149.666 -9.5 -222.999s-15.833 -148.666 -28.5 -225.999h-1223v130l157 29c16 2.66699 28 9 36 19s12 23 12 39v1120c0 16 -4 29 -12 39s-20 16.667 -36 20l-157 31v135
h1171c8 -67.333 12 -135.166 12 -203.499s-3 -138.166 -9 -209.499z" />
    <glyph glyph-name="F" unicode="F" horiz-adv-x="1330" 
d="M1078 679l-448.997 12.9961v-479c0 -13.333 4.16699 -24.833 12.5 -34.5s19.5 -15.167 33.5 -16.5l255 -32v-130h-834v130l159 30c14.667 2.66699 26 8.83398 34 18.501s12 21.5 12 35.5v1123c0 16 -4 29 -12 39s-20 16.667 -36 20l-157 31v135h1171
c8 -67.333 12 -135.166 12 -203.499s-3 -138.166 -9 -209.499h-155l-52 187c-4.66699 16.667 -11.834 29.834 -21.501 39.501s-21.834 17.5 -36.501 23.5c-18.667 6.66699 -44.334 12 -77.001 16s-67 6 -103 6h-196v-569l449 16v-189z" />
    <glyph glyph-name="G" unicode="G" horiz-adv-x="1594" 
d="M1350 -14l-173.999 140.998c-46 -46.667 -103.833 -84.5 -173.5 -113.5s-151.167 -43.5 -244.5 -43.5c-106 0 -199.833 18.5 -281.5 55.5s-149.834 89.667 -204.501 158s-96.167 151.833 -124.5 250.5s-42.5 209 -42.5 331c0 139.333 18 261 54 365
s87.667 189.833 155 257.5s150 118.334 248 152.001s208.333 50.5 331 50.5c88.667 0 176.167 -8.5 262.5 -25.5s163.166 -39.833 230.499 -68.5c4 -63.333 3.83301 -128 -0.5 -194s-11.166 -132.333 -20.499 -199h-198l-52 220
c-4.66699 20.667 -10.834 36.334 -18.501 47.001s-17.834 20.667 -30.501 30c-20.667 14.667 -47.5 27.167 -80.5 37.5s-70.833 15.5 -113.5 15.5c-122.667 0 -218.167 -54.833 -286.5 -164.5s-102.5 -283.5 -102.5 -521.5c0 -95.333 6.33301 -181.5 19 -258.5
s33.5 -142 62.5 -195s67.833 -93.833 116.5 -122.5s108.334 -43 179.001 -43c48 0 92.333 6.16699 133 18.5s77.334 30.833 110.001 55.5v417l-219 21v143h638v-143l-108 -18v-621z" />
    <glyph glyph-name="H" unicode="H" horiz-adv-x="1867" 
d="M1772 1562l0.000976562 -134.999l-158 -31c-16 -3.33301 -28 -10.333 -36 -21s-12 -23.667 -12 -39v-1118c0 -16.667 4 -29.834 12 -39.501s20 -16.167 36 -19.5l158 -29v-130h-701v130l120 29c15.333 4 27.166 10.667 35.499 20s12.5 22.333 12.5 39v496h-610v-497
c0 -16 3.83301 -28.833 11.5 -38.5s19.5 -16.167 35.5 -19.5l132 -29v-130h-712v130l157 29c16 3.33301 28 9.83301 36 19.5s12 22.834 12 39.501v1118c0 16.667 -4 30 -12 40s-19.667 16.667 -35 20l-158 31v135h712v-135l-133 -31
c-15.333 -3.33301 -26.833 -9.83301 -34.5 -19.5s-11.5 -22.834 -11.5 -39.501v-459h610v459c0 15.333 -4.16699 28 -12.5 38s-19.833 17 -34.5 21l-122 31v135h702z" />
    <glyph glyph-name="I" unicode="I" horiz-adv-x="930" 
d="M834 1562l-0.000976562 -134.999l-157 -31c-16 -3.33301 -28 -9.83301 -36 -19.5s-12 -22.834 -12 -39.501v-1119c0 -16 3.83301 -29 11.5 -39s19.834 -16.333 36.501 -19l157 -30v-130h-738v130l157 29c16 2.66699 28 9 36 19s12 23 12 39v1120c0 16 -4 29 -12 39
s-20 16.667 -36 20l-157 31v135h738z" />
    <glyph glyph-name="J" unicode="J" horiz-adv-x="873" 
d="M653 1396c-16 -4 -28 -10.6689 -36 -20.002s-12 -22.333 -12 -39v-961c0 -116 -7.66699 -215.333 -23 -298s-43.833 -153.667 -85.5 -213s-100.167 -110.5 -175.5 -153.5s-172.333 -82.833 -291 -119.5l-60 134c65.333 38 118.166 75 158.499 111s71.5 76.333 93.5 121
s36.833 96.834 44.5 156.501s11.5 131.834 11.5 216.501v1006c0 16 -4.16699 29 -12.5 39s-20.166 16.667 -35.499 20l-158 31v135h718v-135z" />
    <glyph glyph-name="K" unicode="K" horiz-adv-x="1646" 
d="M837 129l0.000976562 -128.999h-741v130l156 29c15.333 3.33301 27.333 9.66602 36 18.999s13 22 13 38v1122c0 16 -4.16699 28.833 -12.5 38.5s-20.166 16.167 -35.499 19.5l-157 31v135h736v-135l-157 -31c-15.333 -3.33301 -27.166 -9.83301 -35.499 -19.5
s-12.5 -22.834 -12.5 -39.501v-600l551 658l-177 32l-1 135h592v-134l-154 -32c-12.667 -2.66699 -24.167 -6.5 -34.5 -11.5s-19.833 -12.167 -28.5 -21.5l-361 -405c37.333 -44 71.166 -90.5 101.499 -139.5s65.166 -108.833 104.499 -179.5l231 -413
c10 -16.667 20.667 -31.167 32 -43.5s28.666 -21.5 51.999 -27.5l100 -26v-129h-399c-26.667 0 -53 18.667 -79 56s-54.667 87 -86 149l-143 290c-24.667 50.667 -46.667 93.834 -66 129.501s-38.333 67.5 -57 95.5l-178 -204v-303c0 -16 4.33301 -28.667 13 -38
s21 -15.333 37 -18z" />
    <glyph glyph-name="L" unicode="L" horiz-adv-x="1400" 
d="M1091 239l93.9971 306l165 -23c-0.666992 -80 -3.16699 -165 -7.5 -255s-15.5 -179 -33.5 -267h-1213v130l156 29c16.667 2.66699 29 9 37 19s12 23 12 39v1121c0 16.667 -4 29.834 -12 39.501s-20 16.167 -36 19.5l-157 30v135h787v-135l-206 -33
c-16 -2.66699 -28.167 -8.83398 -36.5 -18.501s-12.5 -22.5 -12.5 -38.5v-1186h211c42.667 0 80.834 2.33301 114.501 7s60.167 10.667 79.5 18c14.667 5.33301 26.834 13 36.501 23s16.834 23.333 21.501 40z" />
    <glyph glyph-name="M" unicode="M" horiz-adv-x="2258" 
d="M649 130l-0.000976562 -129.998h-601v130l153 32c14.667 2.66699 26.167 8.66699 34.5 18s13.5 22 15.5 38l135 1116c2 16.667 -0.833008 30.5 -8.5 41.5s-19.834 17.833 -36.501 20.5l-174 31v135h664l306 -1086l273 1086h667v-135l-182 -31
c-16.667 -2.66699 -28.667 -9.5 -36 -20.5s-9.66602 -24.833 -6.99902 -41.5l170 -1117c2 -14.667 7.33301 -26.834 16 -36.501s20.334 -15.834 35.001 -18.501l149 -32v-130h-705v130l182 31l-168 1177l-323 -1279h-257l-384 1272l-132 -1170z" />
    <glyph glyph-name="N" unicode="N" horiz-adv-x="1798" 
d="M719 130l0.000976562 -130h-623v130l157 28c16 3.33301 28 9.83301 36 19.5s12 22.834 12 39.501v1120c0 16 -4 29 -12 39s-20 16.667 -36 20l-157 31v135h539l703 -1116v891c0 16 -4 29.167 -12 39.5s-20 16.833 -36 19.5l-167 31v135h596v-135l-144 -31
c-16 -3.33301 -28 -9.83301 -36 -19.5s-12 -22.834 -12 -39.501v-1337h-291l-747 1195v-978c0 -16 4.16699 -29 12.5 -39s20.166 -16.333 35.499 -19z" />
    <glyph glyph-name="O" unicode="O" horiz-adv-x="1600" 
d="M774 -31c-114 0 -213.167 18.166 -297.5 54.499s-154 88.333 -209 156s-96 150 -123 247s-40.5 205.833 -40.5 326.5c0 132.667 16.167 251.334 48.5 356.001s79 192.5 140 263.5s136.5 125.333 226.5 163s192.333 56.5 307 56.5c114 0 213.167 -18.167 297.5 -54.5
s154 -88.333 209 -156s96 -150 123 -247s40.5 -205.833 40.5 -326.5c0 -132 -16 -250.333 -48 -355s-78.5 -192.667 -139.5 -264s-136.667 -125.833 -227 -163.5s-192.833 -56.5 -307.5 -56.5zM804 1448c-110.667 0 -195 -53.5 -253 -160.5s-87 -278.5 -87 -514.5
c0 -228.667 27.5 -396 82.5 -502s137.833 -159 248.5 -159c109.333 0 193.333 54.333 252 163s88 281 88 517c0 228 -27.5 394.333 -82.5 499s-137.833 157 -248.5 157z" />
    <glyph glyph-name="P" unicode="P" horiz-adv-x="1448" 
d="M774 702c38.667 0 75.166 6.66406 109.499 19.9971s64.333 35.833 90 67.5s45.834 73.834 60.501 126.501s22 118.334 22 197.001c0 116 -23.833 200 -71.5 252s-118.167 78 -211.5 78c-38.667 0 -68.167 -1.66699 -88.5 -5s-38.833 -5.66602 -55.5 -6.99902v-721
l67 -5.5c21.333 -1.66699 47.333 -2.5 78 -2.5zM919.999 129.997v-130.001h-824v130l160 30c14 2.66699 25 8.83398 33 18.501s12 21.167 12 34.5v1130c0 12 -3.66699 22.833 -11 32.5s-17.333 15.834 -30 18.501l-164 33v135h374c50 0 100.5 2.16699 151.5 6.5
s116.167 6.16602 195.5 5.49902c110 0 202 -10.167 276 -30.5s133 -49.833 177 -88.5s75.167 -86.167 93.5 -142.5s27.5 -120.5 27.5 -192.5c0 -172 -53.667 -306.833 -161 -404.5s-257 -146.5 -449 -146.5c-26 0 -51.667 0.5 -77 1.5s-50.333 2.16699 -75 3.5v-361
c0 -13.333 4.16699 -24.833 12.5 -34.5s19.5 -15.167 33.5 -16.5z" />
    <glyph glyph-name="Q" unicode="Q" horiz-adv-x="1599" 
d="M1368 -421c-74.667 0 -138.169 15.001 -190.502 45.001s-100.166 65.667 -143.499 107l-130.5 128.5c-43.667 44.333 -94.5 80.833 -152.5 109.5c-110 2.66699 -205.833 23 -287.5 61s-149 90.833 -202 158.5s-92.5 149.5 -118.5 245.5s-39 202.333 -39 319
c0 130.667 16.167 248.167 48.5 352.5s79 192.333 140 264s136.5 126.667 226.5 165s192.333 57.5 307 57.5c114 0 213.167 -18.5 297.5 -55.5s154 -89.333 209 -157s96 -150.167 123 -247.5s40.5 -205.333 40.5 -324c0 -208.667 -41.833 -382.5 -125.5 -521.5
s-200.167 -232.5 -349.5 -280.5c36 -12 69.833 -26.333 101.5 -43s64.5 -35.334 98.5 -56.001c52 -32 102.167 -57.333 150.5 -76s99.833 -28 154.5 -28c20.667 0 40.334 1 59.001 3s35.667 4.33301 51 7l31 -112c-25.333 -27.333 -65.5 -54.5 -120.5 -81.5
s-114.5 -40.5 -178.5 -40.5zM802.998 1448c-110 0 -194.334 -53.332 -253.001 -159.999s-88 -278.334 -88 -515.001c0 -229.333 27.667 -396.833 83 -502.5s138.333 -158.5 249 -158.5c110 0 194.5 53.833 253.5 161.5s88.5 280.5 88.5 518.5
c0 228.667 -27.667 395.167 -83 499.5s-138.666 156.5 -249.999 156.5z" />
    <glyph glyph-name="R" unicode="R" horiz-adv-x="1623" 
d="M627 1433v-628c33.333 -3.33301 68.833 -5 106.5 -5h82.5c71.333 0.666992 130.833 28.167 178.5 82.5s71.5 140.833 71.5 259.5c0 104.667 -22.833 181.167 -68.5 229.5s-120.5 72.5 -224.5 72.5c-28 0 -55 -1.16699 -81 -3.5s-47.667 -4.83301 -65 -7.5zM837 129
v-128.995h-741v130l156 29c15.333 3.33301 27.333 9.66602 36 18.999s13 22 13 38v1122c0 16.667 -4.33301 29.667 -13 39s-20.334 15.666 -35.001 18.999l-157 31v135h361c58 0 113.5 2.16699 166.5 6.5s114.167 6.5 183.5 6.5c216 0 370.833 -32.833 464.5 -98.5
s140.5 -171.834 140.5 -318.501c0 -74.667 -10.167 -137.5 -30.5 -188.5s-46.666 -92.833 -78.999 -125.5s-68.5 -58.334 -108.5 -77.001s-79.333 -33.334 -118 -44.001c48 -23.333 89.333 -54 124 -92s66.334 -88 95.001 -150l122 -258
c10.667 -23.333 21.5 -39.5 32.5 -48.5s25.833 -15.833 44.5 -20.5l101 -25v-129h-389c-30 -0 -57 19.833 -81 59.5s-50 91.5 -78 155.5l-100 246c-19.333 46 -38.833 86.667 -58.5 122s-39.834 64.333 -60.501 87c-34.667 0 -69.167 0.166992 -103.5 0.5
s-66.833 0.5 -97.5 0.5v-458c0 -16 4.33301 -28.667 13 -38s21 -15.333 37 -18z" />
    <glyph glyph-name="S" unicode="S" horiz-adv-x="1308" 
d="M1216 433c0 -56 -10.6689 -111.829 -32.002 -167.496s-55 -105.5 -101 -149.5s-105.833 -79.833 -179.5 -107.5s-162.167 -41.5 -265.5 -41.5c-104 0 -200.667 12.667 -290 38s-164.333 53.666 -225 84.999c-3.33301 69.333 -2.5 142.166 2.5 218.499
s12.5 144.5 22.5 204.5h187l39 -251c2 -14 6 -27.167 12 -39.5s15.333 -24.166 28 -35.499c22 -20.667 54 -40.167 96 -58.5s88.667 -27.5 140 -27.5c76 0 134.833 20.167 176.5 60.5s62.5 94.166 62.5 161.499c0 44 -8.83301 82.667 -26.5 116s-41.667 63.333 -72 90
s-66.333 51.5 -108 74.5s-86.5 46.5 -134.5 70.5l-150 80.5c-49.333 27.667 -93 59.334 -131 95.001s-68.833 77.667 -92.5 126s-35.5 105.5 -35.5 171.5c0 63.333 11.5 122.333 34.5 177s57.333 101.667 103 141s102.834 70.166 171.501 92.499s148.667 33.5 240 33.5
c77.333 0 155.5 -7.66699 234.5 -23s147.167 -35.333 204.5 -60c4.66699 -66 5.16699 -133.333 1.5 -202s-10.5 -134 -20.5 -196h-182l-41 219c-3.33301 17.333 -8.16602 32.166 -14.499 44.499s-15.833 23.5 -28.5 33.5c-18.667 14.667 -44.5 27 -77.5 37
s-66.833 15 -101.5 15c-68.667 0 -121.834 -18 -159.501 -54s-56.5 -84.667 -56.5 -146c0 -40.667 7.83301 -76 23.5 -106s38.167 -57.333 67.5 -82s65.333 -48.667 108 -72s91 -48.333 145 -75c56 -28 109.833 -57.667 161.5 -89s96.834 -66.333 135.501 -105
s69.667 -82.334 93 -131.001s35 -104 35 -166z" />
    <glyph glyph-name="T" unicode="T" horiz-adv-x="1578" 
d="M1238 0l-894.998 0.000976562v129l234 38c16.667 2.66699 29.167 8.5 37.5 17.5s12.5 21.833 12.5 38.5v1198h-96c-32.667 0 -63.167 -1.66699 -91.5 -5s-50.833 -8.33301 -67.5 -15c-14.667 -5.33301 -25.834 -12.333 -33.501 -21s-13.167 -20 -16.5 -34l-78 -324h-164
c-9.33301 97.333 -14.5 187.833 -15.5 271.5s3.83301 173.167 14.5 268.5h1424c10 -95.333 14.167 -185.5 12.5 -270.5s-6.83398 -174.833 -15.501 -269.5h-164l-80 325c-3.33301 14 -8.83301 25.167 -16.5 33.5s-18.5 15.166 -32.5 20.499
c-16.667 6.66699 -39 11.667 -67 15s-58.667 5 -92 5h-94v-1198c0 -16.667 4.16699 -29.5 12.5 -38.5s20.833 -14.833 37.5 -17.5l234 -38v-129z" />
    <glyph glyph-name="U" unicode="U" horiz-adv-x="1716" 
d="M1045 1562l582.999 -0.00292969v-135l-114 -29c-15.333 -4 -27 -11 -35 -21s-12 -23 -12 -39v-761c0 -108 -14.167 -200.167 -42.5 -276.5s-68.333 -138.5 -120 -186.5s-115 -83 -190 -105s-158.833 -33 -251.5 -33c-210.667 0 -367 49.333 -469 148
s-153 255.334 -153 470.001v744c0 16 -4 28.833 -12 38.5s-19.333 16.834 -34 21.501l-105 29v135h701v-135l-165 -34c-15.333 -2.66699 -27.166 -9.16699 -35.499 -19.5s-12.5 -23.166 -12.5 -38.499v-770c0 -150 27.167 -263 81.5 -339s139.833 -114 256.5 -114
c127.333 0 216.666 40.833 267.999 122.5s77 190.167 77 325.5v777c0 16.667 -4.16699 30 -12.5 40s-20.166 16.333 -35.499 19l-168 31v135z" />
    <glyph glyph-name="V" unicode="V" horiz-adv-x="1588" 
d="M955 -5h-293l-500 1352c-5.33301 14 -12.5 24.833 -21.5 32.5s-20.167 13.167 -33.5 16.5l-123 31v135h703v-135l-197 -38l385 -1108l346 1108l-197 38v135h564v-135l-131 -31c-14 -3.33301 -25.5 -8.83301 -34.5 -16.5s-15.833 -18.5 -20.5 -32.5z" />
    <glyph glyph-name="W" unicode="W" horiz-adv-x="2296" 
d="M1429 -7l-277.999 956.999l-265 -957h-296l-418 1352c-4.66699 12.667 -11.334 23.667 -20.001 33s-19.667 15.333 -33 18l-128 31v135h688v-135l-181 -38l304 -1110l264 940l-42 126c-4 12.667 -10.5 23.167 -19.5 31.5s-19.833 14.833 -32.5 19.5l-94 31v135h668v-135
l-200 -38l295 -1092l292 1092l-181 38v135h544v-135l-134 -31c-14 -2.66699 -25.333 -8.16699 -34 -16.5s-15.334 -20.166 -20 -35.499l-383 -1351h-296z" />
    <glyph glyph-name="X" unicode="X" horiz-adv-x="1537" 
d="M594 130l0.00195312 -129.997h-575v130l145 28c12.667 3.33301 23.5 8 32.5 14s17.5 15 25.5 27l386 552l-391 603c-6.66699 11.333 -14.5 20.166 -23.5 26.499s-19.833 11.5 -32.5 15.5l-113 31v135h693v-135l-167 -36l261 -425l280 425l-174 36v135h539v-135l-132 -31
c-12.667 -2.66699 -23.834 -7.33398 -33.501 -14.001s-18.5 -15.334 -26.5 -26.001l-361 -511l423 -645c7.33301 -11.333 15.666 -20.333 24.999 -27s20.333 -11.667 33 -15l116 -28v-130h-701v130l167 33l-288 463l-301 -463z" />
    <glyph glyph-name="Y" unicode="Y" horiz-adv-x="1497" 
d="M1166 0l-816.998 0.00195312v129l191 38c16.667 2.66699 29.167 8.5 37.5 17.5s12.5 21.833 12.5 38.5v385l-425 745c-6.66699 12 -14.834 21.333 -24.501 28s-21.167 11.667 -34.5 15l-124 31v135h711v-135l-166 -39l308 -581l286 582l-179 38v135h543v-135l-117 -29
c-13.333 -2.66699 -24.833 -7.33398 -34.5 -14.001s-17.834 -16.334 -24.501 -29.001l-383 -747v-385c0 -16.667 4.16699 -29.5 12.5 -38.5s20.5 -14.833 36.5 -17.5l191 -38v-129z" />
    <glyph glyph-name="Z" unicode="Z" horiz-adv-x="1406" 
d="M1260 0l-1138 0.000976562l-67 114l857 1311h-235c-43.333 0 -81.666 -2 -114.999 -6s-59.666 -9.33301 -78.999 -16c-14.667 -6 -26.834 -13.833 -36.501 -23.5s-17.167 -22.834 -22.5 -39.501l-84 -269h-181c-2.66699 80 -1.33398 163 3.99902 249
s14.333 167.333 27 244h1062l50 -115l-839 -1298h312c43.333 0 81.666 2 114.999 6s59.666 9.33301 78.999 16c14 5.33301 25.833 13 35.5 23s17.167 23.333 22.5 40l95 284l176 -22c0.666992 -34 0.333984 -72.5 -0.999023 -115.5s-3.66602 -86.5 -6.99902 -130.5
s-7.5 -88 -12.5 -132s-10.833 -84 -17.5 -120z" />
    <glyph glyph-name="bracketleft" unicode="[" horiz-adv-x="821" 
d="M777 -384c-42 -5.33301 -86.5 -10.1748 -133.5 -14.5078s-93.667 -7.66602 -140 -9.99902s-91.833 -4.16602 -136.5 -5.49902s-85.667 -1.66602 -123 -0.999023l-43 40v2317l43 40c37.333 0.666992 78.333 0.333984 123 -0.999023s90.167 -3.16602 136.5 -5.49902
s93 -5.66602 140 -9.99902s91.5 -9.16602 133.5 -14.499v-128l-247 -27c-16.667 -1.33301 -29.834 -7.16602 -39.501 -17.499s-14.5 -23.833 -14.5 -40.5v-1908c0 -17.333 4.83301 -31 14.5 -41s22.834 -16 39.501 -18l247 -26v-129z" />
    <glyph glyph-name="backslash" unicode="\" horiz-adv-x="1012" 
d="M949 -288h-250l-642 2030h251z" />
    <glyph glyph-name="bracketright" unicode="]" horiz-adv-x="821" 
d="M620 -375l-42 -39.9912c-38 -0.666992 -79.333 -0.333984 -124 0.999023s-90.167 3.16602 -136.5 5.49902s-92.833 5.66602 -139.5 9.99902s-91 9.16602 -133 14.499v129l246 26c17.333 2 30.666 8 39.999 18s14 23.667 14 41v1908c0 16.667 -4.66699 30.167 -14 40.5
s-22.666 16.166 -39.999 17.499l-246 27v128c42 5.33301 86.333 10.166 133 14.499s93.167 7.66602 139.5 9.99902s91.833 4.16602 136.5 5.49902s86 1.66602 124 0.999023l42 -40v-2317z" />
    <glyph glyph-name="asciicircum" unicode="^" horiz-adv-x="1275" 
d="M1061 764l-439 508l-422 -508l-116 90l417 677l240 20l452 -697z" />
    <glyph glyph-name="underscore" unicode="_" horiz-adv-x="1751" 
d="M0 -250h1751v-150h-1751v150z" />
    <glyph glyph-name="grave" unicode="`" horiz-adv-x="1000" 
d="M353 1796l373 -440l-88 -102c-93.333 54 -182.333 115 -267 183s-150.667 132.667 -198 194z" />
    <glyph glyph-name="a" unicode="a" horiz-adv-x="1236" 
d="M533 157c36 0 71.167 5.83301 105.5 17.5s64.833 27.5 91.5 47.5v254l-137 -10c-69.333 -4.66699 -119 -22.667 -149 -54s-45 -71.333 -45 -120c0 -44 10.5 -77.5 31.5 -100.5s55.167 -34.5 102.5 -34.5zM969 -18c-54 0 -99.834 10.5049 -137.501 31.5049
s-65.834 55.833 -84.501 104.5c-39.333 -44 -88.5 -78.5 -147.5 -103.5s-124.167 -37.5 -195.5 -37.5c-98 0 -177.167 25.167 -237.5 75.5s-90.5 118.166 -90.5 203.499c0 54.667 12.5 102.167 37.5 142.5s58.167 73.666 99.5 99.999s88.5 46.666 141.5 60.999
s107.5 23.166 163.5 26.499l212 14v119c0 89.333 -19.167 151.333 -57.5 186s-94.833 52 -169.5 52c-62 0 -119.667 -10.167 -173 -30.5s-103 -50.833 -149 -91.5l-71 64c30.667 83.333 87.834 148.5 171.501 195.5s187.834 70.5 312.501 70.5
c152 0 263.333 -36.333 334 -109s106 -180.334 106 -323.001v-518c0 -21.333 4.5 -36.5 13.5 -45.5s22.167 -14.5 39.5 -16.5l104 -12v-121c-22.667 -6.66699 -56 -14.667 -100 -24s-84.667 -14 -122 -14z" />
    <glyph glyph-name="b" unicode="b" horiz-adv-x="1317" 
d="M599 -23c-43.333 0 -86.8359 2.49902 -130.503 7.49902s-84.667 11.333 -123 19s-73.5 16.167 -105.5 25.5s-58 18.333 -78 27v1478c0 16.667 -4.16699 29.834 -12.5 39.501s-20.166 15.834 -35.499 18.501l-136 21v126c33.333 8.66699 69.5 16.667 108.5 24
s78.5 13.666 118.5 18.999s79.5 9.5 118.5 12.5s75.167 4.5 108.5 4.5l42 -39v-720c39.333 40 86 71.333 140 94s113.667 34 179 34c60.667 0 117.5 -10.5 170.5 -31.5s98.667 -53.5 137 -97.5s68.666 -100.333 90.999 -169s33.5 -150 33.5 -244
c0 -101.333 -13.667 -192.333 -41 -273s-67.166 -148.667 -119.499 -204s-117.666 -97.833 -195.999 -127.5s-168.166 -44.5 -269.499 -44.5zM620.997 107.999c87.333 0 154.168 36.167 200.501 108.5s70.5 187.833 72.5 346.5c2 156.667 -18.333 265 -61 325
s-102.334 90 -179.001 90c-32.667 0 -64.167 -4.66699 -94.5 -14s-58.833 -22.666 -85.5 -39.999v-780c19.333 -10.667 41 -19.334 65 -26.001s51.333 -10 82 -10z" />
    <glyph glyph-name="c" unicode="c" horiz-adv-x="1135" 
d="M90 556c0 96 13.667 181.998 41 257.998s66 140.167 116 192.5s110.5 92.333 181.5 120s149.5 41.5 235.5 41.5c68 0 136.167 -7.83301 204.5 -23.5s124.5 -35.5 168.5 -59.5c4.66699 -62 4.66699 -125.167 0 -189.5s-12.334 -125.5 -23.001 -183.5h-153l-52 189
c-6 22 -12 39.333 -18 52s-14 23.667 -24 33c-12.667 10.667 -29.167 19.834 -49.5 27.501s-42.833 11.5 -67.5 11.5c-66 0 -119.5 -33.333 -160.5 -100s-61.5 -174 -61.5 -322c0 -142.667 22.833 -250.167 68.5 -322.5s117.834 -108.5 216.501 -108.5
c60 0 112.667 11 158 33s81.333 45.667 108 71l72 -59c-26.667 -70 -78 -127.833 -154 -173.5s-170.667 -68.5 -284 -68.5c-89.333 0 -167 14.833 -233 44.5s-120.333 70.334 -163 122.001s-74.5 113.167 -95.5 184.5s-31.5 148 -31.5 230z" />
    <glyph glyph-name="d" unicode="d" horiz-adv-x="1375" 
d="M654 156c34 0 68.001 5.00195 102.001 15.002s64.333 23.667 91 41v781c-19.333 10.667 -42.333 19 -69 25s-54 9 -82 9c-40 0 -76.667 -7.33301 -110 -22s-62 -39.334 -86 -74.001s-42.833 -81 -56.5 -139s-20.5 -130 -20.5 -216
c0 -154.667 21.167 -263.334 63.5 -326.001s98.166 -94 167.499 -94zM1091 -17.998c-56.667 0 -103.165 11.8301 -139.498 35.4971s-63.833 57.5 -82.5 101.5c-38 -42 -84.333 -76.167 -139 -102.5s-116.667 -39.5 -186 -39.5c-64 0 -123.667 10.833 -179 32.5
s-103.166 55.167 -143.499 100.5s-72 103.5 -95 174.5s-34.5 155.167 -34.5 252.5c0 206.667 52.333 363.5 157 470.5s249 160.5 433 160.5c28.667 0 57.334 -1.66699 86.001 -5s55 -7.33301 79 -12v384c0 16.667 -4.16699 29.834 -12.5 39.501s-20.5 15.834 -36.5 18.501
l-138 20v125c33.333 8.66699 69.666 16.834 108.999 24.501s79.166 14.167 119.499 19.5s80.166 9.5 119.499 12.5s75.666 4.5 108.999 4.5l42 -40v-1544c0 -22 4.83301 -37.333 14.5 -46s22.5 -14 38.5 -16l105 -12v-121c-24 -7.33301 -57.833 -15.5 -101.5 -24.5
s-85.167 -13.5 -124.5 -13.5z" />
    <glyph glyph-name="e" unicode="e" horiz-adv-x="1182" 
d="M621 1031c-54 0 -98.5 -21.332 -133.5 -63.999s-57.5 -115.334 -67.5 -218.001h379c0.666992 6.66699 1 13.667 1 21v25c0 68.667 -14.833 125.167 -44.5 169.5s-74.5 66.5 -134.5 66.5zM1084 249.001c-26.667 -86.667 -81.3311 -153.998 -163.998 -201.998
s-183 -72 -301 -72c-90 0 -168.167 14 -234.5 42s-121.166 67.333 -164.499 118s-75.5 112 -96.5 184s-31.5 152 -31.5 240c0 195.333 49.167 345.5 147.5 450.5s234.166 157.5 407.499 157.5c147.333 0 258.166 -35.667 332.499 -107s111.5 -165.333 111.5 -282
c0 -22.667 -1.33301 -48.334 -4 -77.001s-6.33398 -54.334 -11.001 -77.001h-662v-7c0 -158.667 24 -272.5 72 -341.5s123.333 -103.5 226 -103.5c58 0 113.5 11 166.5 33s96.167 54 129.5 96z" />
    <glyph glyph-name="f" unicode="f" horiz-adv-x="924" 
d="M255 1204c0 72.667 15 144.664 45 215.997s69.167 134.833 117.5 190.5s103.5 100.834 165.5 135.501s124.667 52 188 52c51.333 0 101.5 -10.167 150.5 -30.5s94.5 -44.166 136.5 -71.499l-60 -177c-39.333 8 -80 14.5 -122 19.5s-75.667 7.16699 -101 6.5
c-70 -0.666992 -123.333 -16 -160 -46s-55 -91.667 -55 -185v-177h325v-176h-324v-755c0 -16.667 4.5 -29.667 13.5 -39s21.833 -14.666 38.5 -15.999l207 -22v-129h-733v129l112 19c16.667 2.66699 29.167 8.66699 37.5 18s12.5 22.333 12.5 39v751l-178 28v123l184 31v66z
" />
    <glyph glyph-name="g" unicode="g" horiz-adv-x="1316" 
d="M424 777c0 -92.667 15.333 -160.999 46 -204.999s78 -66 142 -66c62 0 106.833 22.167 134.5 66.5s41.5 111.166 41.5 200.499c0 95.333 -14.5 163.5 -43.5 204.5s-74.833 61.5 -137.5 61.5c-56 0 -100.5 -19.667 -133.5 -59s-49.5 -107 -49.5 -203zM1241 -102.999
c0 -68.667 -15.998 -130.834 -47.998 -186.501s-77 -102.834 -135 -141.501s-128.167 -68.5 -210.5 -89.5s-173.5 -31.5 -273.5 -31.5c-173.333 0 -300.166 29.5 -380.499 88.5s-120.5 133.833 -120.5 224.5c0 67.333 19.667 122 59 164s91.666 75.667 156.999 101
c-40.667 18.667 -70.5 43.667 -89.5 75s-28.5 67 -28.5 107c0 52 13.833 95.333 41.5 130s63.5 62.334 107.5 83.001c-72.667 30.667 -125.834 75.334 -159.501 134.001s-50.5 125.667 -50.5 201c0 132.667 46 234.5 138 305.5s218 106.5 378 106.5
c77.333 0 146.333 -9 207 -27s111 -44.333 151 -79c27.333 34 57.5 60.667 90.5 80s66.5 29 100.5 29c17.333 0 35.666 -2 54.999 -6s36 -8.33301 50 -13v-217h-210c8.66699 -22 15 -45.5 19 -70.5s6 -51.5 6 -79.5c0 -60.667 -10.333 -116.5 -31 -167.5
s-51.834 -94.333 -93.501 -130s-94.5 -63.5 -158.5 -83.5s-138.667 -30 -224 -30c-28.667 0 -56.167 1.16699 -82.5 3.5s-51.166 5.5 -74.499 9.5c-12 -13.333 -20.833 -27.5 -26.5 -42.5s-8.5 -30.5 -8.5 -46.5c0 -37.333 16.833 -63.333 50.5 -78s90.167 -22 169.5 -22
h216c132.667 0 234 -25.167 304 -75.5s105 -125.5 105 -225.5zM626.002 -404.999c91.333 0 163.665 20.501 216.998 61.501s80 101.167 80 180.5c0 52 -13.667 90 -41 114s-76.666 36 -147.999 36h-223c-14.667 0 -29.167 0.333008 -43.5 1s-27.833 1.66699 -40.5 3
c-16.667 -21.333 -30.167 -46.833 -40.5 -76.5s-15.5 -62.834 -15.5 -99.501c0 -63.333 18.833 -115.833 56.5 -157.5s103.834 -62.5 198.501 -62.5z" />
    <glyph glyph-name="h" unicode="h" horiz-adv-x="1454" 
d="M660 129l-0.00292969 -129h-603v129l113 20c15.333 2.66699 27.333 8.83398 36 18.501s13 22.834 13 39.501v1336c0 16 -4.16699 28.833 -12.5 38.5s-20.5 15.834 -36.5 18.501l-135 21v124c33.333 9.33301 69.5 17.333 108.5 24s78.333 12.167 118 16.5
s79 7.66602 118 9.99902s75.167 3.5 108.5 3.5l43 -42v-734c48.667 48.667 104.334 84.167 167.001 106.5s129.334 33.5 200.001 33.5c133.333 0 224.5 -37.833 273.5 -113.5s73.5 -182.167 73.5 -319.5v-523c0 -16.667 4.16699 -29.834 12.5 -39.501
s20.5 -15.834 36.5 -18.501l113 -20v-129h-603v129l81 19c14.667 4.66699 26.334 11.5 35.001 20.5s13 21.833 13 38.5v483c0 99.333 -14.167 171 -42.5 215s-76.5 66 -144.5 66c-36 0 -72.5 -5.33301 -109.5 -16s-72.167 -27 -105.5 -49v-699c0 -16.667 4 -29.5 12 -38.5
s19.667 -15.833 35 -20.5z" />
    <glyph glyph-name="i" unicode="i" horiz-adv-x="780" 
d="M561 1124v-917c0 -16 4.16699 -29 12.5 -39s20.5 -16.333 36.5 -19l113 -20v-129h-637v129l113 20c16 2.66699 28.333 9 37 19s13 23 13 39v688c0 16 -4 29.167 -12 39.5s-19.667 16.833 -35 19.5l-128 24v130c66.667 18.667 140.667 32.667 222 42s155.333 14 222 14z
M565 1477c0 -50.667 -16.333 -91.5 -49 -122.5s-76 -46.5 -130 -46.5c-54.667 0 -98.5 15.5 -131.5 46.5s-49.5 71.833 -49.5 122.5c0 50 16.5 90.333 49.5 121s76.833 46 131.5 46c54 0 97.333 -15.333 130 -46s49 -71 49 -121z" />
    <glyph glyph-name="j" unicode="j" horiz-adv-x="713" 
d="M495 1164l41.999 -39.999v-1017c0 -128 -13.667 -227 -41 -297s-69.333 -128 -126 -174c-49.333 -40.667 -107.5 -74.667 -174.5 -102s-136.167 -51 -207.5 -71l-59 133c58.667 32 107.334 64.167 146.001 96.5s69.167 67.5 91.5 105.5s38 81.167 47 129.5
s13.5 104.166 13.5 167.499l1 800c0 16 -4 29.167 -12 39.5s-19.667 16.833 -35 19.5l-129 24v130c66.667 18.667 140.5 32.667 221.5 42s154.833 14 221.5 14zM523.999 1477c0 -50.667 -16.333 -91.5 -49 -122.5s-76 -46.5 -130 -46.5c-54.667 0 -98.5 15.5 -131.5 46.5
s-49.5 71.833 -49.5 122.5c0 50 16.5 90.333 49.5 121s76.833 46 131.5 46c54 0 97.333 -15.333 130 -46s49 -71 49 -121z" />
    <glyph glyph-name="k" unicode="k" horiz-adv-x="1398" 
d="M689 129v-129h-632v129l113 20c15.333 2.66699 27.333 9 36 19s13 23.333 13 40v1327c0 16.667 -4.16699 29.834 -12.5 39.501s-20.5 15.834 -36.5 18.501l-135 20v125c33.333 8.66699 69.333 16.834 108 24.501s77.834 14.167 117.501 19.5s79 9.5 118 12.5
s75.5 4.5 109.5 4.5l42 -39v-1203l397 424l-189 33v123h580v-123l-118 -28c-24.667 -6 -43.667 -11.5 -57 -16.5s-27.333 -14.833 -42 -29.5l-210 -210c22.667 -26.667 43.5 -55.334 62.5 -86.001s39.167 -66.667 60.5 -108l175 -321c10 -18 20.167 -30.833 30.5 -38.5
s23.833 -13.834 40.5 -18.501l114 -29v-129h-377c-32.667 0 -59.834 18.5 -81.501 55.5s-44.834 81.167 -69.501 132.5l-97 205c-10.667 22.667 -21.667 44.834 -33 66.501s-22.666 42.167 -33.999 61.5l-152 -152v-162c0 -16.667 4.33301 -29.834 13 -39.501
s20.667 -15.834 36 -18.501z" />
    <glyph glyph-name="l" unicode="l" horiz-adv-x="762" 
d="M538 1759l0.00195312 -1552c0 -16.667 4.16699 -29.834 12.5 -39.501s20.5 -15.834 36.5 -18.501l128 -21v-128h-668v129l129 20c16 2.66699 28.333 8.66699 37 18s13 22.333 13 39v1329c0 16.667 -4.33301 29.834 -13 39.501s-20.667 15.834 -36 18.501l-138 20v125
c33.333 8.66699 69.666 16.834 108.999 24.501s79 14.167 119 19.5s79.667 9.5 119 12.5s75.666 4.5 108.999 4.5z" />
    <glyph glyph-name="m" unicode="m" horiz-adv-x="2157" 
d="M686 129v-128.999h-600v129l114 20c15.333 2.66699 27.333 9 36 19s13 23 13 39v687c0 16 -4 29.333 -12 40s-19.667 17.334 -35 20.001l-128 23v131c64.667 18 133 31.833 205 41.5s139.667 14.834 203 15.501l45 -42l18 -110c46 52 100.333 90 163 114
s129.667 36 201 36c79.333 0 143 -13.667 191 -41s84 -66.666 108 -117.999c52 56.667 111.5 97.334 178.5 122.001s137.167 37 210.5 37c135.333 0 227.5 -38.5 276.5 -115.5s73.5 -186.167 73.5 -327.5v-513c0 -16.667 4.16699 -29.834 12.5 -39.501
s20.5 -15.834 36.5 -18.501l114 -20v-129h-600v129l77 19c15.333 4.66699 27.166 11.5 35.499 20.5s12.5 21.833 12.5 38.5v476c0 100.667 -14.5 173.834 -43.5 219.501s-78.833 68.5 -149.5 68.5c-32 0 -65.333 -4.83301 -100 -14.5s-69 -25.5 -103 -47.5
c5.33301 -26.667 9.16602 -54.834 11.499 -84.501s3.5 -61.167 3.5 -94.5v-523c0 -16.667 4 -29.334 12 -38.001s19.667 -15.667 35 -21l79 -19v-129h-563v129l77 19c14.667 4.66699 26.334 11.5 35.001 20.5s13 21.833 13 38.5v483c0 99.333 -13.167 171 -39.5 215
s-73.833 66 -142.5 66c-31.333 0 -64.666 -5 -99.999 -15s-68.333 -24.333 -99 -43v-706c0 -16.667 3.66699 -29.334 11 -38.001s18.333 -15.334 33 -20.001z" />
    <glyph glyph-name="n" unicode="n" horiz-adv-x="1482" 
d="M690 129l0.000976562 -128.997h-604v129l114 20c15.333 2.66699 27.333 9 36 19s13 23 13 39v688c0 16 -4 29.167 -12 39.5s-19.667 16.833 -35 19.5l-128 24v130c64.667 18 133 31.833 205 41.5s139.667 14.834 203 15.501l45 -42l19 -113
c50 53.333 107.5 92.166 172.5 116.499s134.167 36.5 207.5 36.5c133.333 0 224.5 -37.833 273.5 -113.5s73.5 -182.167 73.5 -319.5v-523c0 -16.667 4.33301 -29.834 13 -39.501s20.667 -15.834 36 -18.501l114 -20v-129h-604v129l81 19
c15.333 4.66699 27.166 11.5 35.499 20.5s12.5 21.833 12.5 38.5v483c0 99.333 -14.167 171 -42.5 215s-76.5 66 -144.5 66c-35.333 0 -71.5 -5.33301 -108.5 -16s-71.833 -26.334 -104.5 -47.001v-701c0 -16 4.16699 -28.667 12.5 -38s19.833 -16.333 34.5 -21z" />
    <glyph glyph-name="o" unicode="o" horiz-adv-x="1306" 
d="M92 560c0 109.333 14.832 202.833 44.499 280.5s70.334 140.5 122.001 188.5s112.834 83.167 183.501 105.5s146.334 33.5 227.001 33.5c175.333 0 310 -49.833 404 -149.5s141 -245.5 141 -437.5c0 -109.333 -14.833 -202.666 -44.5 -279.999
s-70.334 -140 -122.001 -188s-112.834 -83 -183.501 -105s-146.667 -33 -228 -33c-175.333 0 -309.833 49.667 -403.5 149s-140.5 244.666 -140.5 435.999zM874.999 557c0 162 -16.1689 281.168 -48.502 357.501s-92.166 114.5 -179.499 114.5
c-72.667 0 -127 -33.333 -163 -100s-54 -181.334 -54 -344.001c0 -161.333 16.167 -280.333 48.5 -357s92.5 -115 180.5 -115c72.667 0 126.834 33.5 162.501 100.5s53.5 181.5 53.5 343.5z" />
    <glyph glyph-name="p" unicode="p" horiz-adv-x="1380" 
d="M684 108c81.333 0 147.167 33.667 197.5 101s75.833 187.333 76.5 360c1.33301 142.667 -17.5 246.5 -56.5 311.5s-99.167 97.5 -180.5 97.5c-37.333 0 -71.833 -5.16699 -103.5 -15.5s-58.167 -22.833 -79.5 -37.5v-786c20.667 -10.667 43.5 -18.5 68.5 -23.5
s50.833 -7.5 77.5 -7.5zM747.001 -368l0.00390625 -128.001h-683v128l114 21c15.333 2.66699 27.166 8.83398 35.499 18.501s12.5 22.834 12.5 39.501v1183c0 15.333 -3.83301 28.5 -11.5 39.5s-18.834 17.833 -33.501 20.5l-129 24v130
c62 16.667 129.833 30.167 203.5 40.5s141.5 15.833 203.5 16.5l45 -42l19 -103c38 43.333 84.667 78.833 140 106.5s120 41.5 194 41.5c61.333 0 118.333 -10.667 171 -32s98.167 -54.166 136.5 -98.499s68.5 -100.833 90.5 -169.5s33 -150 33 -244
c0 -103.333 -14.167 -195.5 -42.5 -276.5s-68.5 -148.667 -120.5 -203s-115.5 -95.833 -190.5 -124.5s-158.833 -43 -251.5 -43c-22.667 0 -46.334 1.16699 -71.001 3.5s-49.334 6.16602 -74.001 11.499v-282c0 -16.667 4.33301 -29.834 13 -39.501s21 -15.5 37 -17.5z" />
    <glyph glyph-name="q" unicode="q" horiz-adv-x="1333" 
d="M1299 -496h-673.999v128l170 21c16.667 2 29.167 7.83301 37.5 17.5s12.5 22.834 12.5 39.501v390c-35.333 -36.667 -78 -66.334 -128 -89.001s-107.333 -34 -172 -34s-124.834 10.833 -180.501 32.5s-103.5 55.167 -143.5 100.5s-71.5 103.5 -94.5 174.5
s-34.5 155.5 -34.5 253.5c0 197.333 51.833 351.666 155.5 462.999s245.167 167 424.5 167c52 0 104.167 -6.33301 156.5 -19s99.5 -29 141.5 -49l137 59l50 -41v-1408c0 -16.667 4.33301 -29.667 13 -39s21 -15.666 37 -18.999l92 -20v-128zM654.001 156
c34.667 0 68.499 5.16602 101.499 15.499s62.833 24.833 89.5 43.5v764c-19.333 16.667 -42 28.834 -68 36.501s-55 11.5 -87 11.5c-79.333 0 -143.666 -33.5 -192.999 -100.5s-74.333 -180.5 -75 -340.5c0 -160 21.167 -271.667 63.5 -335s98.5 -95 168.5 -95z" />
    <glyph glyph-name="r" unicode="r" horiz-adv-x="1109" 
d="M792 128l0.000976562 -128h-706v129l113 20c16 2.66699 28.333 8.83398 37 18.501s13 22.834 13 39.501v685c0 16.667 -3.83301 30.5 -11.5 41.5s-19.834 17.833 -36.501 20.5l-127 24v130c60 18 125 31.833 195 41.5s134.667 14.834 194 15.501l49 -40l33 -194
c44 69.333 97 126.166 159 170.499s126.333 66.5 193 66.5c21.333 0 47.666 -2.83301 78.999 -8.5s55.333 -12.834 72 -21.501c3.33301 -28.667 5.16602 -60.334 5.49902 -95.001s-0.666992 -70.334 -3 -107.001s-6 -74 -11 -112s-11.167 -74 -18.5 -108h-141l-33 130
c-6.66699 23.333 -15.667 39 -27 47s-27.666 12 -48.999 12c-31.333 0.666992 -65.5 -5.66602 -102.5 -18.999s-72.833 -35.333 -107.5 -66v-613c0 -16.667 4.33301 -30 13 -40s21.334 -16 38.001 -18z" />
    <glyph glyph-name="s" unicode="s" horiz-adv-x="1103" 
d="M115 57c-6.66699 53.333 -9.16406 107.831 -7.49707 163.498s6.16699 108.167 13.5 157.5h158l41 -149c6 -21.333 12.167 -37.833 18.5 -49.5s15.833 -22.167 28.5 -31.5c15.333 -10 38 -20.667 68 -32s64 -17 102 -17c56.667 0 100 14.167 130 42.5s45 62.5 45 102.5
c0 28.667 -7.66699 53.334 -23 74.001s-36.5 39.667 -63.5 57s-59.333 34.333 -97 51l-124.5 56c-85.333 39.333 -154.666 83.833 -207.999 133.5s-80 118.834 -80 207.501c0 104 39.167 187.333 117.5 250s192.5 94 342.5 94c63.333 0 129.666 -6.33301 198.999 -19
s128 -28.667 176 -48c3.33301 -48 3.66602 -98.667 0.999023 -152s-8.66699 -104.666 -18 -153.999l-147 1l-41 138c-6 18.667 -12.667 33.667 -20 45s-18.333 21.333 -33 30c-16 10.667 -34.333 18.667 -55 24s-43.334 8.33301 -68.001 9
c-48 0.666992 -87.5 -10.833 -118.5 -34.5s-46.5 -57.5 -46.5 -101.5c0 -28.667 7 -53.167 21 -73.5s32.5 -38.166 55.5 -53.499s49.5 -29.5 79.5 -42.5l94 -39.5c47.333 -20 93.166 -41 137.499 -63s83.166 -47.333 116.499 -76s60 -62.334 80 -101.001s30 -84.667 30 -138
c0 -57.333 -12 -107.833 -36 -151.5s-57.333 -80 -100 -109s-93.667 -50.833 -153 -65.5s-123.666 -22 -192.999 -22c-83.333 0 -161.5 9.16699 -234.5 27.5s-135.5 38.166 -187.5 59.499z" />
    <glyph glyph-name="t" unicode="t" horiz-adv-x="938" 
d="M213 318l0.00292969 644.999l-161 26v119l126 23c18 2.66699 31.667 8.5 41 17.5s16.666 21.833 21.999 38.5l97 309h175l10 -358h333v-169h-330v-574c0 -79.333 12.5 -133.5 37.5 -162.5s60.833 -43.5 107.5 -43.5c31.333 0 63.166 5.83301 95.499 17.5
s61.5 29.834 87.5 54.501l68 -72c-32.667 -69.333 -83.334 -121.333 -152.001 -156s-146.334 -52 -233.001 -52c-95.333 0 -173.166 23.5 -233.499 70.5s-90.5 135.833 -90.5 266.5z" />
    <glyph glyph-name="u" unicode="u" horiz-adv-x="1430" 
d="M1146 -18c-56 0 -102.171 11.835 -138.504 35.502s-63.833 57.5 -82.5 101.5c-42.667 -44.667 -92.167 -79.5 -148.5 -104.5s-125.166 -37.5 -206.499 -37.5c-120.667 0 -210.5 33 -269.5 99s-88.5 166.667 -88.5 302v520c0 15.333 -3.66699 28.166 -11 38.499
s-19 17.166 -35 20.499l-113 25v132c64 16 135.333 28.333 214 37s150.334 13 215.001 13l42 -40v-702c0 -99.333 13.833 -168.5 41.5 -207.5s73.834 -58.5 138.501 -58.5c34 0 68 5.5 102 16.5s66.333 26.833 97 47.5v678c0 16 -4 29.333 -12 40s-19.667 17.667 -35 21
l-126 26v131c32.667 8 68 15 106 21s76.333 11 115 15s77 7 115 9s73.333 3 106 3l43 -40v-909c0 -22 4.83301 -37.333 14.5 -46s22.834 -14 39.501 -16l103 -12v-121c-23.333 -7.33301 -56.833 -15.5 -100.5 -24.5s-85.5 -13.5 -125.5 -13.5z" />
    <glyph glyph-name="v" unicode="v" horiz-adv-x="1280" 
d="M514 -16l-375 954.997c-5.33301 12.667 -12.5 22.834 -21.5 30.501s-20.167 13.834 -33.5 18.501l-75 23v127h618v-129l-154 -31l249 -729l244 729l-153 31v129h446v-127l-75 -23c-14 -4 -25.667 -9.66699 -35 -17s-16.333 -17.666 -21 -30.999l-342 -956h-272z" />
    <glyph glyph-name="w" unicode="w" horiz-adv-x="1860" 
d="M452 -16l-310.996 956c-4.66699 14 -11.334 24.5 -20.001 31.5s-20.334 12.833 -35.001 17.5l-70 22v127h568v-129l-144 -31l195 -692l229 852h55v0h205l235 -851l188 691l-150 31v129h440v-127l-71 -22c-14.667 -4 -26.334 -9.83301 -35.001 -17.5
s-15.334 -18.5 -20.001 -32.5l-291 -955h-248l-245 807l-222 -807h-253z" />
    <glyph glyph-name="x" unicode="x" horiz-adv-x="1314" 
d="M538 128v-127.996h-495v128l100 17c13.333 2.66699 24.833 6.66699 34.5 12s18.834 13.333 27.501 24l296 370l-306 406c-7.33301 10.667 -15.833 19 -25.5 25s-20.834 10.333 -33.501 13l-81 19v124h609v-125l-130 -29l186 -270l202 270l-124 29v125h451v-125l-91 -18
c-12.667 -2.66699 -23.667 -6.83398 -33 -12.501s-18.333 -13.834 -27 -24.501l-284 -351l323 -426c7.33301 -10.667 16 -18.834 26 -24.501s21.333 -9.83398 34 -12.501l82 -16v-128h-606v128l122 26l-195 286l-210 -285z" />
    <glyph glyph-name="y" unicode="y" horiz-adv-x="1284" 
d="M310 -518c-42.667 0 -86.998 2.50195 -132.998 7.50195s-89 10.833 -129 17.5v155c77.333 10 146.666 21.833 207.999 35.5s115.833 32.5 163.5 56.5s90.167 55.667 127.5 95s71 89.666 101 150.999h-133l-358 934c-5.33301 14.667 -13 26 -23 34s-22.333 14.333 -37 19
l-78 24v127l624 -1v-129l-155 -31l252 -727l231 727l-149 32v129h449v-127l-78 -24c-16 -4.66699 -28.5 -10.834 -37.5 -18.501s-16.167 -19.5 -21.5 -35.5l-335 -959c-58 -166 -124.833 -289.5 -200.5 -370.5s-171.834 -121.5 -288.501 -121.5z" />
    <glyph glyph-name="z" unicode="z" horiz-adv-x="1182" 
d="M1063 0l-943 -0.00195312l-53 116l654 891h-163c-26.667 0 -54.167 -0.833008 -82.5 -2.5s-52.833 -4.16699 -73.5 -7.5c-18 -2.66699 -31.833 -7.66699 -41.5 -15s-16.834 -20.666 -21.501 -39.999l-47 -195h-147c-8.66699 64.667 -13.834 131.334 -15.501 200.001
s-0.166992 132.334 4.5 191.001h906l50 -115l-644 -890h160c33.333 0 66.833 0.833008 100.5 2.5s64.167 4.83398 91.5 9.50098c16.667 2.66699 30.334 7.66699 41.001 15s18.334 18.666 23.001 33.999l67 213l142 -17c6.66699 -64 9 -129.333 7 -196
s-7 -131.334 -15 -194.001z" />
    <glyph glyph-name="braceleft" unicode="{" horiz-adv-x="906" 
d="M874 -278l-19 -139.998c-34 0 -73 1.33301 -117 4s-86 5.66699 -126 9c-128.667 10.667 -223 47.334 -283 110.001s-90 146 -90 250c0 91.333 6.5 179.666 19.5 264.999s19.5 163.666 19.5 234.999c0 32 -2.66699 61.167 -8 87.5s-16.833 49.5 -34.5 69.5
s-43.5 36.5 -77.5 49.5s-79.333 22.167 -136 27.5v190c56.667 4.66699 102 13.667 136 27s59.833 29.833 77.5 49.5s29.167 42.834 34.5 69.501s8 56 8 88c0 71.333 -6.5 149.666 -19.5 234.999s-19.5 173.666 -19.5 264.999c0 104 30 187.167 90 249.5
s154.333 99.166 283 110.499c40 3.33301 82 6.33301 126 9s83 4 117 4l19 -140l-131 -29c-76 -17.333 -130.667 -45 -164 -83s-50 -96.333 -50 -175c0 -34 1.16699 -71 3.5 -111s5 -80.667 8 -122s5.66699 -82.5 8 -123.5s3.5 -79.833 3.5 -116.5
c0 -92 -28.667 -160.167 -86 -204.5s-131.666 -75.166 -222.999 -92.499c91.333 -17.333 165.666 -50 222.999 -98s86 -117.667 86 -209c0 -36.667 -1.16699 -75.667 -3.5 -117s-5 -82.666 -8 -123.999s-5.66699 -82 -8 -122s-3.5 -77 -3.5 -111
c0 -77.333 16.667 -135.333 50 -174s88 -66.334 164 -83.001z" />
    <glyph glyph-name="bar" unicode="|" horiz-adv-x="645" 
d="M204 -315v2217h238v-2217h-238z" />
    <glyph glyph-name="braceright" unicode="}" horiz-adv-x="906" 
d="M294 -407c-40 -3.33301 -81.833 -5.99805 -125.5 -7.99805s-82.5 -3 -116.5 -3l-20 140l131 27c76 16.667 130.833 44.167 164.5 82.5s50.5 96.5 50.5 174.5c0 34.667 -1.33301 72.167 -4 112.5s-5.66699 81.166 -9 122.499s-6.33301 82.666 -9 123.999s-4 80.333 -4 117
c0 91.333 28.667 160.5 86 207.5s131.666 79.167 222.999 96.5c-91.333 16.667 -165.666 47.834 -222.999 93.501s-86 114.5 -86 206.5c0 36.667 1.33301 75.667 4 117s5.66699 82.666 9 123.999s6.33301 82.166 9 122.499s4 77.833 4 112.5
c0 77.333 -16.833 135.333 -50.5 174s-88.5 66.334 -164.5 83.001l-131 27l20 140c34 0 72.833 -1.16699 116.5 -3.5s85.5 -5.16602 125.5 -8.49902c129.333 -10.667 224 -47.167 284 -109.5s90 -145.833 90 -250.5c0 -91.333 -6.66699 -179.833 -20 -265.5
s-20 -164.167 -20 -235.5c0 -32 2.5 -61.333 7.5 -88s16.333 -49.834 34 -69.501s43.5 -36.167 77.5 -49.5s79.667 -22.333 137 -27v-190c-57.333 -5.33301 -103 -14.5 -137 -27.5s-59.833 -29.5 -77.5 -49.5s-29 -43.167 -34 -69.5s-7.5 -55.5 -7.5 -87.5
c0 -71.333 6.66699 -149.833 20 -235.5s20 -174.5 20 -266.5c0 -104.667 -30 -188 -90 -250s-154.667 -98.667 -284 -110z" />
    <glyph glyph-name="asciitilde" unicode="~" horiz-adv-x="1306" 
d="M1171 704c-35.333 -81.333 -83.333 -146.333 -144 -195s-125 -73 -193 -73c-39.333 0 -77.333 7.16699 -114 21.5s-72.167 29.833 -106.5 46.5s-67.833 32.167 -100.5 46.5s-64.334 21.5 -95.001 21.5c-40 0 -77.333 -12 -112 -36s-65.667 -52.667 -93 -86l-91 72
c35.333 81.333 83.333 146.333 144 195s125 73 193 73c39.333 0 77.333 -7.16699 114 -21.5s72.167 -29.833 106.5 -46.5s67.833 -32.167 100.5 -46.5s64.334 -21.5 95.001 -21.5c40 0 77.333 12 112 36s66 52.667 94 86z" />
    <glyph glyph-name="uni00A0" unicode="&#xa0;" horiz-adv-x="542" 
 />
    <glyph glyph-name="exclamdown" unicode="&#xa1;" horiz-adv-x="661" 
d="M510 1004c0 -49.333 -16.333 -88.833 -49 -118.5s-76 -44.5 -130 -44.5c-54.667 0 -98.5 14.833 -131.5 44.5s-49.5 69.167 -49.5 118.5c0 50 16.5 90 49.5 120s76.833 45 131.5 45c54 0 97.333 -15 130 -45s49 -70 49 -120zM504 -561h-346v196l80 1023h186l80 -1023
v-196z" />
    <glyph glyph-name="cent" unicode="&#xa2;" horiz-adv-x="1181" 
d="M1078 250c-28.667 -64 -77.6709 -117.166 -147.004 -159.499s-149.333 -68.5 -240 -78.5v-221h-180v225c-69.333 12 -130.166 35 -182.499 69s-95.666 76.167 -129.999 126.5s-60.166 107.833 -77.499 172.5s-26 133.334 -26 206.001c0 89.333 12.333 170 37 242
s59.167 133.5 103.5 184.5s98 91.833 161 122.5s132.5 50.334 208.5 59.001v215h180v-216c57.333 -6.66699 111.166 -17.834 161.499 -33.501s92.5 -32.834 126.5 -51.501c4 -62 3.83301 -124.167 -0.5 -186.5s-12.166 -122.5 -23.499 -180.5h-160l-45 190
c-4.66699 21.333 -10.167 38.333 -16.5 51s-14.833 23.667 -25.5 33c-13.333 11.333 -31.166 20.666 -53.499 27.999s-46.5 11 -72.5 11c-71.333 0 -129.666 -35.167 -174.999 -105.5s-68 -173.5 -68 -309.5c0 -142 24.667 -250.833 74 -326.5
s121.666 -113.5 216.999 -113.5c66 0 121.5 12.5 166.5 37.5s81.5 52.167 109.5 81.5z" />
    <glyph glyph-name="sterling" unicode="&#xa3;" horiz-adv-x="1376" 
d="M1284 266c0 -53.333 -7.83105 -99.002 -23.498 -137.002s-37 -68.833 -64 -92.5s-58.5 -41 -94.5 -52s-74.333 -16.5 -115 -16.5c-52.667 0 -102.5 7.83301 -149.5 23.5s-92.333 33 -136 52s-87.334 36.333 -131.001 52s-88.167 23.5 -133.5 23.5
c-40 -34 -84 -62.5 -132 -85.5s-95.667 -39.833 -143 -50.5l-82 159c29.333 16.667 57.833 35.667 85.5 57s52.167 46.666 73.5 75.999s38.5 64.333 51.5 105s19.5 88.334 19.5 143.001v100h-195v143h195v80c0 85.333 11 162.833 33 232.5s54.167 128.834 96.5 177.501
s94.833 86.334 157.5 113.001s134.334 40 215.001 40c66 0 128.333 -7.5 187 -22.5s111.334 -32.833 158.001 -53.5c4 -60 4 -120.333 0 -181s-11 -122.334 -21 -185.001h-175l-44 200c-2.66699 12.667 -7 25.334 -13 38.001s-16.333 24.667 -31 36
c-14 10 -29.833 17.833 -47.5 23.5s-36.167 8.5 -55.5 8.5c-16.667 0 -33.334 -4.16699 -50.001 -12.5s-31.834 -23.333 -45.501 -45s-24.834 -51.667 -33.501 -90s-13 -87.166 -13 -146.499v-213h310v-143h-310v-43c0 -87.333 -9.66699 -159.833 -29 -217.5
s-40.333 -101.834 -63 -132.501c55.333 0 110.833 -7.16699 166.5 -21.5s107.5 -21.5 155.5 -21.5c50 0 88.167 10.333 114.5 31s45.166 51 56.499 91c6.66699 23.333 12.667 51 18 83s9.33301 63 12 93h195c6.66699 -28.667 13.334 -62.5 20.001 -101.5
s10 -78.167 10 -117.5z" />
    <glyph glyph-name="currency" unicode="&#xa4;" horiz-adv-x="1407" 
d="M702 535c74 0 129.501 22.999 166.501 68.999s55.5 101 55.5 165c0 35.333 -6.33301 67.833 -19 97.5s-29.334 55.167 -50.001 76.5s-44.834 38 -72.501 50s-56.167 18 -85.5 18c-35.333 0 -66.5 -6.66699 -93.5 -20s-49.667 -31.166 -68 -53.499
s-32.166 -48.333 -41.499 -78s-14 -60.167 -14 -91.5c0 -64 22 -118.833 66 -164.5s96 -68.5 156 -68.5zM700.001 316.999c-44 0 -86.501 5.66699 -127.501 17s-78.5 27.333 -112.5 48l-226 -226l-126 125l223 222c-24.667 36 -44.167 76 -58.5 120s-21.5 90.333 -21.5 139
c0 50.667 7.5 99.5 22.5 146.5s35.833 89.833 62.5 128.5l-228 225l124 127l229 -230c34 22.667 71.333 40.167 112 52.5s83 18.5 127 18.5c44.667 0 87.834 -5.83301 129.501 -17.5s80.167 -28.167 115.5 -49.5l229 228l126 -126l-225 -222c26 -36 46.167 -76 60.5 -120
s21.5 -90.333 21.5 -139c0 -50.667 -7.66699 -99.5 -23 -146.5s-37 -89.5 -65 -127.5l227 -225l-126 -125l-228 228c-34.667 -22.667 -72.667 -40.167 -114 -52.5s-84 -18.5 -128 -18.5z" />
    <glyph glyph-name="yen" unicode="&#xa5;" horiz-adv-x="1518" 
d="M1154 117l0.00195312 -117.001h-755v117l181 35c14.667 2.66699 26 8.16699 34 16.5s12 20.166 12 35.499v111h-379v133h379v146h-379v131h322l-321 474c-6.66699 10.667 -14.167 18.834 -22.5 24.501s-18.833 9.83398 -31.5 12.501l-116 27v116h658v-116l-155 -34
l264 -438l250 443l-168 33v115h506v-115l-109 -25c-12.667 -2.66699 -23.334 -6.83398 -32.001 -12.501s-16.334 -14.167 -23.001 -25.5l-291 -479h326v-131h-378v-146h378v-133h-378v-111c0 -15.333 4.16699 -27.166 12.5 -35.499s19.833 -13.833 34.5 -16.5z" />
    <glyph glyph-name="brokenbar" unicode="&#xa6;" horiz-adv-x="642" 
d="M202 950v952h238v-952h-238zM202 -315v952h238v-952h-238z" />
    <glyph glyph-name="section" unicode="&#xa7;" horiz-adv-x="1274" 
d="M709 486l94.499 -43.501c29.667 -14.333 56.834 -28.166 81.501 -41.499c18.667 24.667 34.167 52.334 46.5 83.001s18.5 59.667 18.5 87c0 64 -31.333 117.333 -94 160s-158.334 93.334 -287.001 152.001l-94 46.5c-29.333 15 -56.666 29.833 -81.999 44.5
c-19.333 -24.667 -35.5 -52.834 -48.5 -84.501s-19.5 -61.834 -19.5 -90.501c0 -64 31.5 -117.667 94.5 -161s159.5 -94 289.5 -152zM624.999 -286.001c-53.333 0 -104.665 3.99707 -153.998 11.9971s-94.333 17.667 -135 29s-76.667 23.5 -108 36.5
s-55.666 24.5 -72.999 34.5c-4 54 -4.33301 108.833 -1 164.5s9.33301 110.5 18 164.5h180l35 -175c2 -10.667 6 -22 12 -34s16.667 -24 32 -36c24.667 -18.667 56.5 -33.5 95.5 -44.5s79.5 -16.5 121.5 -16.5c68 0 120.5 14.167 157.5 42.5s55.5 64.833 55.5 109.5
c0 28.667 -8 53.834 -24 75.501s-40 42.667 -72 63s-72.667 41.5 -122 63.5l-173 77c-110.667 49.333 -199.834 105 -267.501 167s-101.5 142.667 -101.5 242c0 82 20.167 153.167 60.5 213.5s87.166 104.166 140.499 131.499c-44.667 34.667 -78.5 73.167 -101.5 115.5
s-34.5 92.5 -34.5 150.5c0 45.333 9.16699 89.5 27.5 132.5s47 81 86 114s89.5 59.5 151.5 79.5s136.667 30 224 30c48 0 94.667 -3.16699 140 -9.5s87.166 -14.333 125.499 -24s72.333 -20.167 102 -31.5s52.834 -22 69.501 -32c3.33301 -54.667 3.5 -109.667 0.5 -165
s-9.16699 -110.333 -18.5 -165h-179l-35 176c-2.66699 10.667 -7 22 -13 34s-16.667 23.333 -32 34c-20 14.667 -46.833 26.5 -80.5 35.5s-68.167 13.5 -103.5 13.5c-64.667 0 -113.667 -14.167 -147 -42.5s-50 -64.166 -50 -107.499c0 -29.333 7.83301 -55 23.5 -77
s39 -43.333 70 -64s70 -42.167 117 -64.5l163.5 -77.5c108.667 -50 197 -105.5 265 -166.5s102 -141.167 102 -240.5c0 -79.333 -19 -148.666 -57 -207.999s-83 -103.333 -135 -132c49.333 -35.333 86.166 -73.833 110.499 -115.5s36.5 -92.5 36.5 -152.5
c0 -46.667 -9.66699 -91.667 -29 -135s-49.333 -81.666 -90 -114.999s-93 -60 -157 -80s-140.333 -30 -229 -30z" />
    <glyph glyph-name="dieresis" unicode="&#xa8;" horiz-adv-x="1000" 
d="M889 1476c0 -47.333 -14.167 -85.5 -42.5 -114.5s-65.5 -43.5 -111.5 -43.5c-46.667 0 -84.167 14.5 -112.5 43.5s-42.5 67.167 -42.5 114.5c0 48 14.167 86.333 42.5 115s65.833 43 112.5 43c46 0 83.167 -14.333 111.5 -43s42.5 -67 42.5 -115zM420 1476
c0 -47.333 -14.333 -85.5 -43 -114.5s-66 -43.5 -112 -43.5c-46.667 0 -84.167 14.5 -112.5 43.5s-42.5 67.167 -42.5 114.5c0 48 14.167 86.333 42.5 115s65.833 43 112.5 43c46 0 83.333 -14.333 112 -43s43 -67 43 -115z" />
    <glyph glyph-name="copyright" unicode="&#xa9;" horiz-adv-x="2003" 
d="M94 782c0 130.667 23.001 251.834 69.001 363.501s109.167 207.667 189.5 288s176.333 143.333 288 189s232.5 68.5 362.5 68.5c130.667 0 251.5 -22.833 362.5 -68.5s206.667 -108.667 287 -189s143.166 -176.166 188.499 -287.499s68 -232.333 68 -363
s-22.833 -251.834 -68.5 -363.501s-108.5 -207.834 -188.5 -288.501s-175.667 -143.834 -287 -189.501s-232.333 -68.5 -363 -68.5c-130 0 -250.833 22.833 -362.5 68.5s-207.667 108.834 -288 189.501s-143.333 176.667 -189 288s-68.5 232.333 -68.5 363zM243.001 783
c0 -114.667 18.833 -220.167 56.5 -316.5s89.834 -178.833 156.501 -247.5s146.667 -122.334 240 -161.001s195.333 -58 306 -58s212.834 19.333 306.501 58s173.834 92.334 240.501 161.001s118.667 151.167 156 247.5s56 201.833 56 316.5
c0 114 -18.667 219.167 -56 315.5s-89.333 179 -156 248s-146.667 122.833 -240 161.5s-195.333 58 -306 58s-212.834 -19.333 -306.501 -58s-173.834 -92.5 -240.501 -161.5s-118.834 -151.667 -156.501 -248s-56.5 -201.5 -56.5 -315.5zM998.001 268
c-70.667 0 -134.17 12 -190.503 36s-103.833 57.833 -142.5 101.5s-68.334 96.667 -89.001 159s-31 131.5 -31 207.5c0 84.667 12.333 159.834 37 225.501s58.834 120.5 102.501 164.5s95.667 77.333 156 100s125.833 34 196.5 34c65.333 0 127.833 -8.5 187.5 -25.5
s106.5 -37.167 140.5 -60.5c4.66699 -50.667 5.83398 -103.334 3.50098 -158.001s-8.83301 -109.334 -19.5 -164.001h-138l-41 161c-2.66699 12.667 -6.66699 24.167 -12 34.5s-13.666 20.166 -24.999 29.499c-13.333 10.667 -30.166 19.834 -50.499 27.501
s-42.5 11.5 -66.5 11.5c-61.333 0 -110.333 -27.833 -147 -83.5s-55 -140.167 -55 -253.5c0 -121.333 22.333 -213.166 67 -275.499s109 -93.5 193 -93.5c45.333 0 90 8.5 134 25.5s79.333 38.833 106 65.5l66 -60c-26 -60 -72.333 -109.833 -139 -149.5
s-147.667 -59.5 -243 -59.5z" />
    <glyph glyph-name="ordfeminine" unicode="&#xaa;" horiz-adv-x="1106" 
d="M487 830c24.667 0 48.832 3.50195 72.499 10.502s44.834 16.5 63.501 28.5v185l-94 -5c-53.333 -2.66699 -89.833 -15.834 -109.5 -39.501s-29.5 -51.834 -29.5 -84.501c0 -32 7.5 -55.833 22.5 -71.5s39.833 -23.5 74.5 -23.5zM828.998 681.002
c-44.667 0 -83.166 7.5 -115.499 22.5s-56.833 41.167 -73.5 78.5c-30.667 -33.333 -69.334 -59 -116.001 -77s-98.334 -27 -155.001 -27c-80.667 0 -145 19.5 -193 58.5s-72 90.5 -72 154.5c0 40.667 9.83301 76.5 29.5 107.5s45.667 57 78 78s70 37.333 113 49
s87.5 18.834 133.5 21.501l165 9v84c0 61.333 -15 103.666 -45 126.999s-73.667 35 -131 35c-48 0 -93.167 -7.33301 -135.5 -22s-81.166 -37 -116.499 -67l-64 55c26 66 72.5 118 139.5 156s153.5 57 259.5 57c126.667 0 218.834 -28.5 276.501 -85.5
s86.5 -140.833 86.5 -251.5v-375c0 -16 3.66699 -27.333 11 -34s17.666 -10.667 30.999 -12l80 -10v-103c-20.667 -5.33301 -49 -11.5 -85 -18.5s-69.667 -10.5 -101 -10.5z" />
    <glyph glyph-name="guillemotleft" unicode="&#xab;" horiz-adv-x="1471" 
d="M1288 83l-583 451v154l583 459l92 -111l-342 -425l344 -418zM666 83l-583 451v154l583 459l92 -111l-342 -425l344 -418z" />
    <glyph glyph-name="logicalnot" unicode="&#xac;" horiz-adv-x="1276" 
d="M140 512v202h986v-612h-217v410h-769z" />
    <glyph glyph-name="uni00AD" unicode="&#xad;" horiz-adv-x="1072" 
d="M140 494v205h793v-205h-793z" />
    <glyph glyph-name="registered" unicode="&#xae;" horiz-adv-x="1746" 
d="M99 1091c0 111.333 19.667 214.5 59 309.5s93.333 176.667 162 245s150.5 122 245.5 161s197.833 58.5 308.5 58.5s213.334 -19.5 308.001 -58.5s176.167 -92.667 244.5 -161s122 -150 161 -245s58.5 -198.167 58.5 -309.5c0 -110.667 -19.5 -213.667 -58.5 -309
s-92.667 -177.333 -161 -246s-149.833 -122.5 -244.5 -161.5s-197.334 -58.5 -308.001 -58.5s-213.5 19.5 -308.5 58.5s-176.833 92.833 -245.5 161.5s-122.667 150.667 -162 246s-59 198.333 -59 309zM233 1091c0 -96 15.833 -184.499 47.5 -265.499
s75.667 -150.5 132 -208.5s124 -103.333 203 -136s165.167 -49 258.5 -49s179.333 16.333 258 49s146 78 202 136s99.667 127.667 131 209s47 170 47 266s-15.667 184.5 -47 265.5s-75 150.5 -131 208.5s-123.333 103.167 -202 135.5s-164.667 48.5 -258 48.5
s-179.5 -16.333 -258.5 -49s-146.667 -77.834 -203 -135.501s-100.333 -127.167 -132 -208.5s-47.5 -170 -47.5 -266zM881 1109c36.667 0 67.333 13.333 92 40s37 66.667 37 120c0 54 -12 92.667 -36 116s-62.333 35 -115 35c-12.667 0 -26 -0.833008 -40 -2.5
s-28.667 -3.83398 -44 -6.50098v-299c20.667 -1.33301 39.5 -2.16602 56.5 -2.49902s33.5 -0.5 49.5 -0.5zM871.999 756.001l-0.000976562 -82.001h-383v82l58 16c10 2.66699 17.5 7.33398 22.5 14.001s7.5 15.334 7.5 26.001v559c0 10.667 -2.66699 19.5 -8 26.5
s-13 11.5 -23 13.5l-57 14v92h187c38 -0.666992 74.167 -0.166992 108.5 1.5s67.833 2.5 100.5 2.5c117.333 0 202.666 -19 255.999 -57s80 -99 80 -183c0 -54 -13.833 -102.333 -41.5 -145s-75.834 -72.334 -144.501 -89.001c24.667 -8.66699 44.334 -20.667 59.001 -36
s27.334 -35 38.001 -59l57 -124c8.66699 -19.333 19.334 -32.666 32.001 -39.999s35.334 -15.333 68.001 -24v-90h-205c-20 0 -36.333 8.83301 -49 26.5s-24.334 40.834 -35.001 69.501l-53 137c-7.33301 21.333 -15.333 40.333 -24 57s-18 31 -28 43h-120v-198
c0 -10.667 2.66699 -19.334 8 -26.001s13.333 -11.334 24 -14.001z" />
    <glyph glyph-name="macron" unicode="&#xaf;" horiz-adv-x="1000" 
d="M143 1357v186h713v-186h-713z" />
    <glyph glyph-name="degree" unicode="&#xb0;" horiz-adv-x="923" 
d="M460 923c-50.667 0 -98.665 9.83398 -143.998 29.501s-84.833 46.167 -118.5 79.5s-60.5 72.666 -80.5 117.999s-30 93 -30 143c0 52.667 10 101.5 30 146.5s46.833 84 80.5 117s73.167 58.833 118.5 77.5s93.333 28 144 28c54 0 104.167 -9.83301 150.5 -29.5
s86 -46.167 119 -79.5s58.833 -72.5 77.5 -117.5s28 -92.5 28 -142.5c0 -52.667 -9.83301 -101.667 -29.5 -147s-46.334 -84.5 -80.001 -117.5s-73.334 -58.833 -119.001 -77.5s-94.5 -28 -146.5 -28zM461.002 1092c56 0 101.167 18.999 135.5 56.999s51.5 86 51.5 144
c0 54 -18.333 101 -55 141s-81.667 60 -135 60c-54 0 -98.667 -19.5 -134 -58.5s-53 -86.5 -53 -142.5c0 -53.333 18.833 -100.166 56.5 -140.499s82.167 -60.5 133.5 -60.5z" />
    <glyph glyph-name="plusminus" unicode="&#xb1;" horiz-adv-x="1180" 
d="M696 315h-211v184l6 156l-156 -6h-210v191h210l156 -7l-6 157v196h211v-196l-7 -157l156 7h211v-191h-211l-156 6l7 -156v-184zM1046 0h-911v190h911v-190z" />
    <glyph glyph-name="twosuperior" unicode="&#xb2;" horiz-adv-x="1032" 
d="M885 625l-741.998 -0.000976562l-34 107c150 106.667 267.833 203 353.5 289s128.5 172.667 128.5 260c0 52 -15.5 94.5 -46.5 127.5s-75.5 49.5 -133.5 49.5c-44 0 -85.5 -10.167 -124.5 -30.5s-73.5 -45.5 -103.5 -75.5l-60 58
c8.66699 26.667 22.834 52.834 42.501 78.501s44.667 48.667 75 69s66 36.833 107 49.5s87.5 19 139.5 19c58.667 0 110.667 -8.33301 156 -25s83.166 -39 113.499 -67s53.333 -60.667 69 -98s23.5 -76.666 23.5 -117.999c0 -57.333 -13.833 -112 -41.5 -164
s-63.5 -100.333 -107.5 -145s-93.833 -86.167 -149.5 -124.5s-110.834 -72.5 -165.501 -102.5h179c66 0 112.167 5.66699 138.5 17s43.166 25.666 50.499 42.999l52 113l125 -15c-2.66699 -46 -7.66699 -98.5 -15 -157.5s-17.333 -111.5 -30 -157.5z" />
    <glyph glyph-name="threesuperior" unicode="&#xb3;" horiz-adv-x="970" 
d="M91 742l59.9951 97.0039c31.333 -20.667 70.333 -38.334 117 -53.001s94.334 -22 143.001 -22c62 0 112.167 13.167 150.5 39.5s57.5 64.166 57.5 113.499c0 47.333 -18.5 82 -55.5 104s-90.5 33 -160.5 33h-103l1 118h26c82.667 0 143.834 14.667 183.501 44
s59.5 67 59.5 113c0 46.667 -17.333 80.667 -52 102s-76 32 -124 32c-37.333 0 -74.166 -6.33301 -110.499 -19s-70.833 -32.334 -103.5 -59.001l-56 65c14 30.667 33.333 57 58 79s52.334 40.167 83.001 54.5s63.667 24.833 99 31.5s70.333 10 105 10
c48 0 93.167 -5.83301 135.5 -17.5s78.833 -28.334 109.5 -50.001s54.834 -47.834 72.501 -78.501s26.5 -64.667 26.5 -102c0 -32 -6.66699 -61.333 -20 -88s-30.833 -50 -52.5 -70s-46.5 -36.5 -74.5 -49.5s-56.333 -21.833 -85 -26.5c38 0 75.167 -5 111.5 -15
s68.333 -25 96 -45s49.834 -45.167 66.501 -75.5s25 -65.166 25 -104.499c0 -40 -9.5 -78 -28.5 -114s-46.333 -67.167 -82 -93.5s-79.334 -47.333 -131.001 -63s-110.167 -23.5 -175.5 -23.5c-80 0 -152 12 -216 36s-116 56.333 -156 97z" />
    <glyph glyph-name="acute" unicode="&#xb4;" horiz-adv-x="1000" 
d="M402 1254l-82 96l385 446l180 -165c-23.333 -30 -52.833 -61.5 -88.5 -94.5s-74.667 -65.667 -117 -98s-87.333 -64.333 -135 -96s-95.167 -61.167 -142.5 -88.5z" />
    <glyph glyph-name="uni00B5" unicode="&#xb5;" horiz-adv-x="1497" 
d="M481 -448l-236.998 -88.002l-44 40c0.666992 68.667 1.5 140.334 2.5 215.001s1.83301 148.334 2.5 221.001s1.16699 143 1.5 211s0.5 129.333 0.5 184c0 70.667 -0.5 137.834 -1.5 201.501s-2.16699 126.667 -3.5 189s-3 126.5 -5 192.5s-3.66699 136.667 -5 212l254 37
l42 -40l-8 -592c0.666992 -54.667 8 -101.334 22 -140.001s31.833 -70 53.5 -94s45.667 -41.333 72 -52s52.166 -16 77.499 -16c44 0 89 16 135 48s81.667 82.667 107 152l-7 697l243 37l42 -40l-26 -769c-2.66699 -71.333 6.33301 -119.5 27 -144.5s47 -37.5 79 -37.5h126
v-114c-32 -24 -70.333 -44.667 -115 -62s-86.334 -26 -125.001 -26c-58 0 -107.167 22.167 -147.5 66.5s-65.833 110.5 -76.5 198.5c-28.667 -85.333 -71.5 -150.833 -128.5 -196.5s-117.167 -68.5 -180.5 -68.5c-40 0 -81.333 11 -124 33s-78 59 -106 111z" />
    <glyph glyph-name="paragraph" unicode="&#xb6;" horiz-adv-x="1541" 
d="M291 -380l-58.002 134.998c58.667 30.667 106.834 62.334 144.501 95.001s67 70.167 88 112.5s35.5 91.833 43.5 148.5s12 124 12 202l1 359c-55.333 5.33301 -110.166 18.666 -164.499 39.999s-102.833 51.166 -145.5 89.499s-77.167 86.333 -103.5 144
s-39.5 125.167 -39.5 202.5c0 63.333 10.333 122 31 176s52 100.5 94 139.5s95.667 69.667 161 92s142.666 33.5 231.999 33.5c84 0 178.167 -4.5 282.5 -13.5s217.833 -13.5 340.5 -13.5h222v-135l-146 -31c-15.333 -3.33301 -27.333 -9.66602 -36 -18.999
s-13 -21.666 -13 -36.999v-1124c0 -14.667 4.16699 -27 12.5 -37s19.833 -16.333 34.5 -19l158 -30v-130h-453v1407c-30 2 -65.667 4.16699 -107 6.5s-79.666 3.5 -114.999 3.5v-1199c0 -92 -8.16699 -170.667 -24.5 -236s-43 -120.666 -80 -165.999s-86 -83.333 -147 -114
s-135.833 -58 -224.5 -82z" />
    <glyph glyph-name="periodcentered" unicode="&#xb7;" horiz-adv-x="639" 
d="M503 667c0 -51.333 -16.667 -92.666 -50 -123.999s-77.666 -47 -132.999 -47s-99.666 15.667 -132.999 47s-50 72.666 -50 123.999s16.667 92.666 50 123.999s77.666 47 132.999 47s99.666 -15.667 132.999 -47s50 -72.666 50 -123.999z" />
    <glyph glyph-name="cedilla" unicode="&#xb8;" horiz-adv-x="1000" 
d="M449 51l109.001 -0.00195312l-41 -139c4.66699 0 10 -0.166992 16 -0.5s12.333 -0.833008 19 -1.5c54.667 -2.66699 99.334 -20 134.001 -52s52 -75 52 -129c0 -38 -9.5 -72.667 -28.5 -104s-45.333 -58 -79 -80s-74 -39.167 -121 -51.5s-98.167 -18.5 -153.5 -18.5
c-10.667 0 -20.334 0.166992 -29.001 0.5s-17.667 0.833008 -27 1.5l-17 106c67.333 6.66699 118.5 22.334 153.5 47.001s52.5 54.334 52.5 89.001c0 30.667 -11.833 53.5 -35.5 68.5s-52.834 23.167 -87.501 24.5z" />
    <glyph glyph-name="onesuperior" unicode="&#xb9;" horiz-adv-x="954" 
d="M638 1599l0.00195312 -769c0 -16.667 3 -28.5 9 -35.5s17.333 -11.833 34 -14.5l196 -29v-126h-737v126l218 29c16.667 2.66699 28.5 7.66699 35.5 15s10.5 19.333 10.5 36v536c-38.667 -14.667 -80.834 -26 -126.501 -34s-90.5 -13.333 -134.5 -16l-27 120
c60.667 16 123.667 39.833 189 71.5s126.666 70.5 183.999 116.5z" />
    <glyph glyph-name="ordmasculine" unicode="&#xba;" horiz-adv-x="1109" 
d="M97 1114c0 84.667 11.999 156.665 35.999 215.998s57 107.333 99 144s91.833 63.167 149.5 79.5s119.834 24.5 186.501 24.5c140 0 249 -36.167 327 -108.5s117 -184.5 117 -336.5c0 -85.333 -12 -157.666 -36 -216.999s-57 -107.166 -99 -143.499
s-91.833 -62.5 -149.5 -78.5s-119.834 -24 -186.501 -24c-139.333 0 -248.166 36 -326.499 108s-117.5 184 -117.5 336zM710.999 1113c0 128 -11.3311 217.833 -33.998 269.5s-65 77.5 -127 77.5c-50.667 0 -88.834 -23.5 -114.501 -70.5s-38.5 -132.167 -38.5 -255.5
c0 -126.667 11.333 -216.167 34 -268.5s65 -78.5 127 -78.5c51.333 0 89.666 23.667 114.999 71s38 132.333 38 255z" />
    <glyph glyph-name="guillemotright" unicode="&#xbb;" horiz-adv-x="1459" 
d="M184 83l-94 110l344 418l-342 425l92 111l583 -459v-154zM793 83l-94 110l344 418l-342 425l92 111l583 -459v-154z" />
    <glyph glyph-name="onequarter" unicode="&#xbc;" horiz-adv-x="2436" 
d="M621 1599l0.00195312 -769c0 -16.667 3 -28.5 9 -35.5s17.333 -11.833 34 -14.5l196 -29v-126h-737v126l218 29c16.667 2.66699 28.5 7.66699 35.5 15s10.5 19.333 10.5 36v536c-38.667 -14.667 -80.834 -26 -126.501 -34s-90.5 -13.333 -134.5 -16l-27 120
c60.667 16 123.667 39.833 189 71.5s126.666 70.5 183.999 116.5zM824.002 0h-217l963 1562h216zM2370 186l-170.001 -0.000976562v-186h-221l-1 186h-431l-75 98c77.333 116.667 149 234.334 215 353.001s126 237 180 355h214l35 -45
c-48.667 -93.333 -93.167 -174.166 -133.5 -242.499s-77.666 -127 -111.999 -176s-67 -90.833 -98 -125.5s-61.833 -65.334 -92.5 -92.001l303 18l40 243h177v-230l170 10v-166z" />
    <glyph glyph-name="onehalf" unicode="&#xbd;" horiz-adv-x="2414" 
d="M616 1599l0.00195312 -769c0 -16.667 3 -28.5 9 -35.5s17.333 -11.833 34 -14.5l196 -29v-126h-737v126l218 29c16.667 2.66699 28.5 7.66699 35.5 15s10.5 19.333 10.5 36v536c-38.667 -14.667 -80.834 -26 -126.501 -34s-90.5 -13.333 -134.5 -16l-27 120
c60.667 16 123.667 39.833 189 71.5s126.666 70.5 183.999 116.5zM818.002 0h-217l963 1562h216zM2298 0l-741.999 -0.000976562l-34 107c150 106.667 267.833 203 353.5 289s128.5 172.667 128.5 260c0 52 -15.5 94.5 -46.5 127.5s-75.5 49.5 -133.5 49.5
c-44 0 -85.5 -10.167 -124.5 -30.5s-73.5 -45.5 -103.5 -75.5l-60 58c8.66699 26.667 22.834 52.834 42.501 78.501s44.667 48.667 75 69s66 36.833 107 49.5s87.5 19 139.5 19c58.667 0 110.667 -8.33301 156 -25s83.166 -39 113.499 -67s53.333 -60.667 69 -98
s23.5 -76.666 23.5 -117.999c0 -57.333 -13.833 -112 -41.5 -164s-63.5 -100.333 -107.5 -145s-93.833 -86.167 -149.5 -124.5s-110.834 -72.5 -165.501 -102.5h179c66 0 112.167 5.66699 138.5 17s43.166 25.666 50.5 42.999l52 113l125 -15
c-2.66699 -46 -7.66699 -98.5 -15 -157.5s-17.333 -111.5 -30 -157.5z" />
    <glyph glyph-name="threequarters" unicode="&#xbe;" horiz-adv-x="2422" 
d="M81 742l59.9951 97.0039c31.333 -20.667 70.333 -38.334 117 -53.001s94.334 -22 143.001 -22c62 0 112.167 13.167 150.5 39.5s57.5 64.166 57.5 113.499c0 47.333 -18.5 82 -55.5 104s-90.5 33 -160.5 33h-103l1 118h26c82.667 0 143.834 14.667 183.501 44
s59.5 67 59.5 113c0 46.667 -17.333 80.667 -52 102s-76 32 -124 32c-37.333 0 -74.166 -6.33301 -110.499 -19s-70.833 -32.334 -103.5 -59.001l-56 65c14 30.667 33.333 57 58 79s52.334 40.167 83.001 54.5s63.667 24.833 99 31.5s70.333 10 105 10
c48 0 93.167 -5.83301 135.5 -17.5s78.833 -28.334 109.5 -50.001s54.834 -47.834 72.501 -78.501s26.5 -64.667 26.5 -102c0 -32 -6.66699 -61.333 -20 -88s-30.833 -50 -52.5 -70s-46.5 -36.5 -74.5 -49.5s-56.333 -21.833 -85 -26.5c38 0 75.167 -5 111.5 -15
s68.333 -25 96 -45s49.834 -45.167 66.501 -75.5s25 -65.166 25 -104.499c0 -40 -9.5 -78 -28.5 -114s-46.333 -67.167 -82 -93.5s-79.334 -47.333 -131.001 -63s-110.167 -23.5 -175.5 -23.5c-80 0 -152 12 -216 36s-116 56.333 -156 97zM809.995 0.00390625h-217l963 1562
h216zM2357 186.004l-170.001 -0.000976562v-186h-221l-1 186h-431l-75 98c77.333 116.667 149 234.334 215 353.001s126 237 180 355h214l35 -45c-48.667 -93.333 -93.167 -174.166 -133.5 -242.499s-77.666 -127 -111.999 -176s-67 -90.833 -98 -125.5
s-61.833 -65.334 -92.5 -92.001l303 18l40 243h177v-230l170 10v-166z" />
    <glyph glyph-name="questiondown" unicode="&#xbf;" horiz-adv-x="1113" 
d="M444 1005c0 48.667 16.5 88.167 49.5 118.5s76.5 45.5 130.5 45.5s97.667 -15 131 -45s50 -69.667 50 -119c0 -50 -16.667 -89.833 -50 -119.5s-77 -44.5 -131 -44.5s-97.5 15.167 -130.5 45.5s-49.5 69.833 -49.5 118.5zM540 659l177.996 -0.00390625
c16.667 -34 33.5 -73.667 50.5 -119s25.5 -87.666 25.5 -126.999c0 -58.667 -18.5 -107.334 -55.5 -146.001s-83.5 -83.334 -139.5 -134.001c-72 -67.333 -125.5 -127.666 -160.5 -180.999s-52.5 -113 -52.5 -179c0 -62.667 16.667 -115 50 -157s78.666 -63 135.999 -63
c34 0 64.333 7 91 21s47.334 29 62.001 45c12.667 14.667 21.834 29.334 27.501 44.001s9.83398 33.334 12.501 56.001l26 225h186c19.333 -59.333 35.5 -123 48.5 -191s20.833 -134.333 23.5 -199c-52 -43.333 -117.833 -80.166 -197.5 -110.499s-165.5 -45.5 -257.5 -45.5
c-80.667 0 -154 12 -220 36s-122 56.667 -168 98s-81.667 90 -107 146s-38 115.333 -38 178c0 52 8.33301 99.333 25 142s39.667 82.5 69 119.5s64 72.333 104 106s83.333 67.5 130 101.5c26.667 19.333 47.834 35.333 63.501 48s27.834 24.834 36.501 36.501
s15 24.5 19 38.5s7.66699 32.667 11 56z" />
    <glyph glyph-name="Agrave" unicode="&#xc0;" horiz-adv-x="1587" 
d="M943 618l-225 696l-217 -696h442zM552 130v-130h-563v130l132 32c14 3.33301 25.333 9 34 17s15.334 18.667 20.001 32l463 1356h308l471 -1356c4.66699 -14 11.667 -24.667 21 -32s20.666 -13 33.999 -17l122 -32v-130h-698v130l194 33l-97 301h-540l-94 -301zM561 2123
l491 -345.997l-64 -116l-151.5 55.5c-53.667 20.333 -106.167 41.666 -157.5 63.999s-100 45.666 -146 69.999s-85.667 49.166 -119 74.499z" />
    <glyph glyph-name="Aacute" unicode="&#xc1;" horiz-adv-x="1587" 
d="M943 618l-225 696l-217 -696h442zM552 130v-130h-563v130l132 32c14 3.33301 25.333 9 34 17s15.334 18.667 20.001 32l463 1356h308l471 -1356c4.66699 -14 11.667 -24.667 21 -32s20.666 -13 33.999 -17l122 -32v-130h-698v130l194 33l-97 301h-540l-94 -301z
M1196 1911c-34 -24 -75 -47.5 -123 -70.5s-98.667 -44.833 -152 -65.5s-107.833 -40.167 -163.5 -58.5l-155.5 -49.5l-57 112l513 334z" />
    <glyph glyph-name="Acircumflex" unicode="&#xc2;" horiz-adv-x="1587" 
d="M943 618l-225 696l-217 -696h442zM552 130v-130h-563v130l132 32c14 3.33301 25.333 9 34 17s15.334 18.667 20.001 32l463 1356h308l471 -1356c4.66699 -14 11.667 -24.667 21 -32s20.666 -13 33.999 -17l122 -32v-130h-698v130l194 33l-97 301h-540l-94 -301zM457 1658
l-88 99l310 320l204 10l335 -322l-93 -105l-346 205z" />
    <glyph glyph-name="Atilde" unicode="&#xc3;" horiz-adv-x="1587" 
d="M943 618l-225 696l-217 -696h442zM552 130v-130h-563v130l132 32c14 3.33301 25.333 9 34 17s15.334 18.667 20.001 32l463 1356h308l471 -1356c4.66699 -14 11.667 -24.667 21 -32s20.666 -13 33.999 -17l122 -32v-130h-698v130l194 33l-97 301h-540l-94 -301z
M1247 1971c-10 -35.333 -24.166 -70 -42.499 -104s-40 -64 -65 -90s-53.667 -47 -86 -63s-67.5 -24 -105.5 -24c-38.667 0 -73.834 7.16699 -105.501 21.5s-61 29.833 -88 46.5l-77.5 46.5c-24.667 14.333 -49.667 21.5 -75 21.5c-34 0 -64.667 -12.667 -92 -38
s-52 -54.333 -74 -87l-95 54c10 35.333 24.167 70 42.5 104s40 64 65 90s53.667 46.833 86 62.5s67.5 23.5 105.5 23.5s72.833 -7 104.5 -21s61 -29.5 88 -46.5s53 -32.5 78 -46.5s50.167 -21 75.5 -21c33.333 0 63.833 12.5 91.5 37.5s52.5 53.833 74.5 86.5z" />
    <glyph glyph-name="Adieresis" unicode="&#xc4;" horiz-adv-x="1587" 
d="M943 618l-225 696l-217 -696h442zM552 130v-130h-563v130l132 32c14 3.33301 25.333 9 34 17s15.334 18.667 20.001 32l463 1356h308l471 -1356c4.66699 -14 11.667 -24.667 21 -32s20.666 -13 33.999 -17l122 -32v-130h-698v130l194 33l-97 301h-540l-94 -301z
M1209 1851c0 -48 -14.167 -86.667 -42.5 -116s-65.5 -44 -111.5 -44c-46.667 0 -84.167 14.667 -112.5 44s-42.5 68 -42.5 116c0 47.333 14.167 85.5 42.5 114.5s65.833 43.5 112.5 43.5c46 0 83.167 -14.5 111.5 -43.5s42.5 -67.167 42.5 -114.5zM687 1851
c0 -48 -14.167 -86.667 -42.5 -116s-65.5 -44 -111.5 -44c-47.333 0 -85.166 14.667 -113.499 44s-42.5 68 -42.5 116c0 47.333 14.167 85.5 42.5 114.5s66.166 43.5 113.499 43.5c46 0 83.167 -14.5 111.5 -43.5s42.5 -67.167 42.5 -114.5z" />
    <glyph glyph-name="Aring" unicode="&#xc5;" horiz-adv-x="1587" 
d="M943 618l-225 696l-217 -696h442zM552 130v-130h-563v130l132 32c14 3.33301 25.333 9 34 17s15.334 18.667 20.001 32l463 1356h308l471 -1356c4.66699 -14 11.667 -24.667 21 -32s20.666 -13 33.999 -17l122 -32v-130h-698v130l194 33l-97 301h-540l-94 -301z
M1098 1790c0 -39.333 -8.16797 -75.1699 -24.501 -107.503s-38.333 -59.666 -66 -81.999s-60.334 -39.5 -98.001 -51.5s-77.5 -18 -119.5 -18c-96.667 0 -171 23.833 -223 71.5s-78 111.834 -78 192.501c0.666992 38.667 9.33398 73.834 26.001 105.501
s39.334 58.5 68.001 80.5s62 39 100 51s78.333 18 121 18c98 0 171.5 -24.667 220.5 -74s73.5 -111.333 73.5 -186zM664.999 1795c0 -36.667 10.666 -69.333 31.999 -98s54 -43 98 -43c41.333 0 72.833 11 94.5 33s32.834 54.667 33.501 98
c0 38.667 -10.167 71.667 -30.5 99s-52.5 41 -96.5 41c-42 0 -74.333 -11.167 -97 -33.5s-34 -54.5 -34 -96.5z" />
    <glyph glyph-name="AE" unicode="&#xc6;" horiz-adv-x="2125" 
d="M900 1407l-294 -696h398v696h-104zM571 130l-0.000976562 -130.006h-586v130l146 32c12.667 2.66699 23.5 8.16699 32.5 16.5s16.167 18.833 21.5 31.5l509 1176l-256 42v134h1517c8 -67.333 12 -135.166 12 -203.499s-3 -138.166 -9 -209.499h-155l-52 187
c-4.66699 16.667 -11.667 29.834 -21 39.501s-21.333 17.5 -36 23.5c-19.333 6.66699 -45.333 12 -78 16s-67 6 -103 6h-196v-553l449 16v-187l-449 12v-560h243c36 0 72.667 2 110 6s65.333 9.66699 84 17c14.667 6 25.834 13.833 33.501 23.5s14.5 22.834 20.5 39.501
l83 238l155 -24c-0.666992 -75.333 -4.16699 -149.666 -10.5 -222.999s-15.833 -148.666 -28.5 -225.999h-1208v130l157 29c16 2.66699 28 9 36 19s12 23 12 39v340h-464l-168 -398z" />
    <glyph glyph-name="Ccedilla" unicode="&#xc7;" horiz-adv-x="1452" 
d="M819 -33c-240.667 0 -419.998 68.168 -537.998 204.501s-177 328.833 -177 577.5c0 142 18.333 266 55 372s88.167 193.5 154.5 262.5s147 120.667 242 155s200.167 51.5 315.5 51.5c74.667 0 154.167 -6.83301 238.5 -20.5s161.833 -33.834 232.5 -60.501
c4.66699 -63.333 5.16699 -131.333 1.5 -204s-11.5 -147.667 -23.5 -225h-192l-55 250c-2.66699 13.333 -7.83398 26.666 -15.501 39.999s-19.834 25.333 -36.501 36c-19.333 12.667 -46 23.5 -80 32.5s-69.667 13.5 -107 13.5c-112.667 0 -201.167 -51.667 -265.5 -155
s-96.5 -273 -96.5 -509c0 -214.667 29.333 -381.667 88 -501s152.334 -179 281.001 -179c36.667 0 72.667 5.16699 108 15.5s64.666 25.166 87.999 44.499c10 8 18.667 17.667 26 29s14.333 26.666 21 45.999l70 223l189 -16c2.66699 -59.333 2.66699 -123.166 0 -191.499
s-9 -137.5 -19 -207.5c-33.333 -12 -70.5 -23.167 -111.5 -33.5s-83.5 -19.166 -127.5 -26.499s-88.667 -13.166 -134 -17.499s-89.333 -6.5 -132 -6.5zM749.002 51.001l109.001 -0.00195312l-41 -139c4.66699 0 10 -0.166992 16 -0.5s12.333 -0.833008 19 -1.5
c54.667 -2.66699 99.334 -20 134.001 -52s52 -75 52 -129c0 -38 -9.5 -72.667 -28.5 -104s-45.333 -58 -79 -80s-74 -39.167 -121 -51.5s-98.167 -18.5 -153.5 -18.5c-10.667 0 -20.334 0.166992 -29.001 0.5s-17.667 0.833008 -27 1.5l-17 106
c67.333 6.66699 118.5 22.334 153.5 47.001s52.5 54.334 52.5 89.001c0 30.667 -11.833 53.5 -35.5 68.5s-52.834 23.167 -87.501 24.5z" />
    <glyph glyph-name="Egrave" unicode="&#xc8;" horiz-adv-x="1436" 
d="M1270 1149l-154.998 -0.00585938l-52 187c-4.66699 16.667 -11.834 29.834 -21.501 39.501s-21.834 17.5 -36.501 23.5c-18.667 6.66699 -44.334 12 -77.001 16s-67 6 -103 6h-196v-546l449 17v-188l-449 11v-566h243c36 0 72.667 2 110 6s65.333 9.66699 84 17
c14.667 6 25.834 13.833 33.501 23.5s14.5 22.834 20.5 39.501l83 238l154 -24c0 -75.333 -3.16699 -149.666 -9.5 -222.999s-15.833 -148.666 -28.5 -225.999h-1223v130l157 29c16 2.66699 28 9 36 19s12 23 12 39v1120c0 16 -4 29 -12 39s-20 16.667 -36 20l-157 31v135
h1171c8 -67.333 12 -135.166 12 -203.499s-3 -138.166 -9 -209.499zM508.002 2122.99l491 -345.997l-64 -116l-151.5 55.5c-53.667 20.333 -106.167 41.666 -157.5 63.999s-100 45.666 -146 69.999s-85.667 49.166 -119 74.499z" />
    <glyph glyph-name="Eacute" unicode="&#xc9;" horiz-adv-x="1436" 
d="M1270 1149l-154.998 -0.00585938l-52 187c-4.66699 16.667 -11.834 29.834 -21.501 39.501s-21.834 17.5 -36.501 23.5c-18.667 6.66699 -44.334 12 -77.001 16s-67 6 -103 6h-196v-546l449 17v-188l-449 11v-566h243c36 0 72.667 2 110 6s65.333 9.66699 84 17
c14.667 6 25.834 13.833 33.501 23.5s14.5 22.834 20.5 39.501l83 238l154 -24c0 -75.333 -3.16699 -149.666 -9.5 -222.999s-15.833 -148.666 -28.5 -225.999h-1223v130l157 29c16 2.66699 28 9 36 19s12 23 12 39v1120c0 16 -4 29 -12 39s-20 16.667 -36 20l-157 31v135
h1171c8 -67.333 12 -135.166 12 -203.499s-3 -138.166 -9 -209.499zM1143 1910.99c-34 -24 -75 -47.5 -123 -70.5s-98.667 -44.833 -152 -65.5s-107.833 -40.167 -163.5 -58.5l-155.5 -49.5l-57 112l513 334z" />
    <glyph glyph-name="Ecircumflex" unicode="&#xca;" horiz-adv-x="1436" 
d="M1270 1149l-154.998 -0.00585938l-52 187c-4.66699 16.667 -11.834 29.834 -21.501 39.501s-21.834 17.5 -36.501 23.5c-18.667 6.66699 -44.334 12 -77.001 16s-67 6 -103 6h-196v-546l449 17v-188l-449 11v-566h243c36 0 72.667 2 110 6s65.333 9.66699 84 17
c14.667 6 25.834 13.833 33.501 23.5s14.5 22.834 20.5 39.501l83 238l154 -24c0 -75.333 -3.16699 -149.666 -9.5 -222.999s-15.833 -148.666 -28.5 -225.999h-1223v130l157 29c16 2.66699 28 9 36 19s12 23 12 39v1120c0 16 -4 29 -12 39s-20 16.667 -36 20l-157 31v135
h1171c8 -67.333 12 -135.166 12 -203.499s-3 -138.166 -9 -209.499zM404.002 1657.99l-88 99l310 320l204 10l335 -322l-93 -105l-346 205z" />
    <glyph glyph-name="Edieresis" unicode="&#xcb;" horiz-adv-x="1436" 
d="M1270 1149l-154.998 -0.00585938l-52 187c-4.66699 16.667 -11.834 29.834 -21.501 39.501s-21.834 17.5 -36.501 23.5c-18.667 6.66699 -44.334 12 -77.001 16s-67 6 -103 6h-196v-546l449 17v-188l-449 11v-566h243c36 0 72.667 2 110 6s65.333 9.66699 84 17
c14.667 6 25.834 13.833 33.501 23.5s14.5 22.834 20.5 39.501l83 238l154 -24c0 -75.333 -3.16699 -149.666 -9.5 -222.999s-15.833 -148.666 -28.5 -225.999h-1223v130l157 29c16 2.66699 28 9 36 19s12 23 12 39v1120c0 16 -4 29 -12 39s-20 16.667 -36 20l-157 31v135
h1171c8 -67.333 12 -135.166 12 -203.499s-3 -138.166 -9 -209.499zM1156 1850.99c0 -48 -14.167 -86.667 -42.5 -116s-65.5 -44 -111.5 -44c-46.667 0 -84.167 14.667 -112.5 44s-42.5 68 -42.5 116c0 47.333 14.167 85.5 42.5 114.5s65.833 43.5 112.5 43.5
c46 0 83.167 -14.5 111.5 -43.5s42.5 -67.167 42.5 -114.5zM634.002 1850.99c0 -48 -14.167 -86.667 -42.5 -116s-65.5 -44 -111.5 -44c-47.333 0 -85.166 14.667 -113.499 44s-42.5 68 -42.5 116c0 47.333 14.167 85.5 42.5 114.5s66.166 43.5 113.499 43.5
c46 0 83.167 -14.5 111.5 -43.5s42.5 -67.167 42.5 -114.5z" />
    <glyph glyph-name="Igrave" unicode="&#xcc;" horiz-adv-x="930" 
d="M834 1562l-0.000976562 -134.999l-157 -31c-16 -3.33301 -28 -9.83301 -36 -19.5s-12 -22.834 -12 -39.501v-1119c0 -16 3.83301 -29 11.5 -39s19.834 -16.333 36.501 -19l157 -30v-130h-738v130l157 29c16 2.66699 28 9 36 19s12 23 12 39v1120c0 16 -4 29 -12 39
s-20 16.667 -36 20l-157 31v135h738zM231.999 2123l491 -345.997l-64 -116l-151.5 55.5c-53.667 20.333 -106.167 41.666 -157.5 63.999s-100 45.666 -146 69.999s-85.667 49.166 -119 74.499z" />
    <glyph glyph-name="Iacute" unicode="&#xcd;" horiz-adv-x="930" 
d="M834 1562l-0.000976562 -134.999l-157 -31c-16 -3.33301 -28 -9.83301 -36 -19.5s-12 -22.834 -12 -39.501v-1119c0 -16 3.83301 -29 11.5 -39s19.834 -16.333 36.501 -19l157 -30v-130h-738v130l157 29c16 2.66699 28 9 36 19s12 23 12 39v1120c0 16 -4 29 -12 39
s-20 16.667 -36 20l-157 31v135h738zM866.999 1911c-34 -24 -75 -47.5 -123 -70.5s-98.667 -44.833 -152 -65.5s-107.833 -40.167 -163.5 -58.5l-155.5 -49.5l-57 112l513 334z" />
    <glyph glyph-name="Icircumflex" unicode="&#xce;" horiz-adv-x="930" 
d="M834 1562l-0.000976562 -134.999l-157 -31c-16 -3.33301 -28 -9.83301 -36 -19.5s-12 -22.834 -12 -39.501v-1119c0 -16 3.83301 -29 11.5 -39s19.834 -16.333 36.501 -19l157 -30v-130h-738v130l157 29c16 2.66699 28 9 36 19s12 23 12 39v1120c0 16 -4 29 -12 39
s-20 16.667 -36 20l-157 31v135h738zM127.999 1658l-88 99l310 320l204 10l335 -322l-93 -105l-346 205z" />
    <glyph glyph-name="Idieresis" unicode="&#xcf;" horiz-adv-x="930" 
d="M834 1562l-0.000976562 -134.999l-157 -31c-16 -3.33301 -28 -9.83301 -36 -19.5s-12 -22.834 -12 -39.501v-1119c0 -16 3.83301 -29 11.5 -39s19.834 -16.333 36.501 -19l157 -30v-130h-738v130l157 29c16 2.66699 28 9 36 19s12 23 12 39v1120c0 16 -4 29 -12 39
s-20 16.667 -36 20l-157 31v135h738zM879.999 1851c0 -48 -14.167 -86.667 -42.5 -116s-65.5 -44 -111.5 -44c-46.667 0 -84.167 14.667 -112.5 44s-42.5 68 -42.5 116c0 47.333 14.167 85.5 42.5 114.5s65.833 43.5 112.5 43.5c46 0 83.167 -14.5 111.5 -43.5
s42.5 -67.167 42.5 -114.5zM357.999 1851c0 -48 -14.167 -86.667 -42.5 -116s-65.5 -44 -111.5 -44c-47.333 0 -85.166 14.667 -113.499 44s-42.5 68 -42.5 116c0 47.333 14.167 85.5 42.5 114.5s66.166 43.5 113.499 43.5c46 0 83.167 -14.5 111.5 -43.5
s42.5 -67.167 42.5 -114.5z" />
    <glyph glyph-name="Eth" unicode="&#xd0;" horiz-adv-x="1684" 
d="M1580 831c0 -138 -18.002 -260.501 -54.002 -367.501s-87.5 -196.333 -154.5 -268s-149.333 -125.5 -247 -161.5s-207.167 -52.667 -328.5 -50c-22.667 0.666992 -48.5 1.83398 -77.5 3.50098s-58.5 3.5 -88.5 5.5s-59.5 3.66699 -88.5 5s-54.5 2 -76.5 2h-368v130
l160 30c14.667 2 25.834 8 33.501 18s11.5 21.667 11.5 35v509h-194v153h194v469c0 12.667 -3.66699 23.5 -11 32.5s-17.333 14.833 -30 17.5l-164 33v135h364c66.667 0 128.667 2.16699 186 6.5s115.333 6.5 174 6.5c254.667 0 444.834 -61 570.501 -183
s188.5 -309 188.5 -561zM805.998 125.999c66 1.33301 124.999 13.668 176.999 37.001s95.667 60.5 131 111.5s62.5 118.167 81.5 201.5s28.5 184.666 28.5 303.999c0 212.667 -34.667 375.667 -104 489s-180.333 170 -333 170c-36.667 0 -69.167 -2.5 -97.5 -7.5
s-48.166 -7.83301 -59.499 -8.5v-548h286v-153h-286v-576c20.667 -6.66699 48 -11.667 82 -15s65.333 -5 94 -5z" />
    <glyph glyph-name="Ntilde" unicode="&#xd1;" horiz-adv-x="1798" 
d="M719 130l0.000976562 -130h-623v130l157 28c16 3.33301 28 9.83301 36 19.5s12 22.834 12 39.501v1120c0 16 -4 29 -12 39s-20 16.667 -36 20l-157 31v135h539l703 -1116v891c0 16 -4 29.167 -12 39.5s-20 16.833 -36 19.5l-167 31v135h596v-135l-144 -31
c-16 -3.33301 -28 -9.83301 -36 -19.5s-12 -22.834 -12 -39.501v-1337h-291l-747 1195v-978c0 -16 4.16699 -29 12.5 -39s20.166 -16.333 35.499 -19zM1358 1971c-10 -35.333 -24.166 -70 -42.499 -104s-40 -64 -65 -90s-53.667 -47 -86 -63s-67.5 -24 -105.5 -24
c-38.667 0 -73.834 7.16699 -105.501 21.5s-61 29.833 -88 46.5l-77.5 46.5c-24.667 14.333 -49.667 21.5 -75 21.5c-34 0 -64.667 -12.667 -92 -38s-52 -54.333 -74 -87l-95 54c10 35.333 24.167 70 42.5 104s40 64 65 90s53.667 46.833 86 62.5s67.5 23.5 105.5 23.5
s72.833 -7 104.5 -21s61 -29.5 88 -46.5s53 -32.5 78 -46.5s50.167 -21 75.5 -21c33.333 0 63.833 12.5 91.5 37.5s52.5 53.833 74.5 86.5z" />
    <glyph glyph-name="Ograve" unicode="&#xd2;" horiz-adv-x="1600" 
d="M774 -31c-114 0 -213.167 18.166 -297.5 54.499s-154 88.333 -209 156s-96 150 -123 247s-40.5 205.833 -40.5 326.5c0 132.667 16.167 251.334 48.5 356.001s79 192.5 140 263.5s136.5 125.333 226.5 163s192.333 56.5 307 56.5c114 0 213.167 -18.167 297.5 -54.5
s154 -88.333 209 -156s96 -150 123 -247s40.5 -205.833 40.5 -326.5c0 -132 -16 -250.333 -48 -355s-78.5 -192.667 -139.5 -264s-136.667 -125.833 -227 -163.5s-192.833 -56.5 -307.5 -56.5zM804 1448c-110.667 0 -195 -53.5 -253 -160.5s-87 -278.5 -87 -514.5
c0 -228.667 27.5 -396 82.5 -502s137.833 -159 248.5 -159c109.333 0 193.333 54.333 252 163s88 281 88 517c0 228 -27.5 394.333 -82.5 499s-137.833 157 -248.5 157zM567 2123l491 -345.997l-64 -116l-151.5 55.5c-53.667 20.333 -106.167 41.666 -157.5 63.999
s-100 45.666 -146 69.999s-85.667 49.166 -119 74.499z" />
    <glyph glyph-name="Oacute" unicode="&#xd3;" horiz-adv-x="1600" 
d="M774 -31c-114 0 -213.167 18.166 -297.5 54.499s-154 88.333 -209 156s-96 150 -123 247s-40.5 205.833 -40.5 326.5c0 132.667 16.167 251.334 48.5 356.001s79 192.5 140 263.5s136.5 125.333 226.5 163s192.333 56.5 307 56.5c114 0 213.167 -18.167 297.5 -54.5
s154 -88.333 209 -156s96 -150 123 -247s40.5 -205.833 40.5 -326.5c0 -132 -16 -250.333 -48 -355s-78.5 -192.667 -139.5 -264s-136.667 -125.833 -227 -163.5s-192.833 -56.5 -307.5 -56.5zM804 1448c-110.667 0 -195 -53.5 -253 -160.5s-87 -278.5 -87 -514.5
c0 -228.667 27.5 -396 82.5 -502s137.833 -159 248.5 -159c109.333 0 193.333 54.333 252 163s88 281 88 517c0 228 -27.5 394.333 -82.5 499s-137.833 157 -248.5 157zM1202 1911c-34 -24 -75 -47.5 -123 -70.5s-98.667 -44.833 -152 -65.5s-107.833 -40.167 -163.5 -58.5
l-155.5 -49.5l-57 112l513 334z" />
    <glyph glyph-name="Ocircumflex" unicode="&#xd4;" horiz-adv-x="1600" 
d="M774 -31c-114 0 -213.167 18.166 -297.5 54.499s-154 88.333 -209 156s-96 150 -123 247s-40.5 205.833 -40.5 326.5c0 132.667 16.167 251.334 48.5 356.001s79 192.5 140 263.5s136.5 125.333 226.5 163s192.333 56.5 307 56.5c114 0 213.167 -18.167 297.5 -54.5
s154 -88.333 209 -156s96 -150 123 -247s40.5 -205.833 40.5 -326.5c0 -132 -16 -250.333 -48 -355s-78.5 -192.667 -139.5 -264s-136.667 -125.833 -227 -163.5s-192.833 -56.5 -307.5 -56.5zM804 1448c-110.667 0 -195 -53.5 -253 -160.5s-87 -278.5 -87 -514.5
c0 -228.667 27.5 -396 82.5 -502s137.833 -159 248.5 -159c109.333 0 193.333 54.333 252 163s88 281 88 517c0 228 -27.5 394.333 -82.5 499s-137.833 157 -248.5 157zM463 1658l-88 99l310 320l204 10l335 -322l-93 -105l-346 205z" />
    <glyph glyph-name="Otilde" unicode="&#xd5;" horiz-adv-x="1600" 
d="M774 -31c-114 0 -213.167 18.166 -297.5 54.499s-154 88.333 -209 156s-96 150 -123 247s-40.5 205.833 -40.5 326.5c0 132.667 16.167 251.334 48.5 356.001s79 192.5 140 263.5s136.5 125.333 226.5 163s192.333 56.5 307 56.5c114 0 213.167 -18.167 297.5 -54.5
s154 -88.333 209 -156s96 -150 123 -247s40.5 -205.833 40.5 -326.5c0 -132 -16 -250.333 -48 -355s-78.5 -192.667 -139.5 -264s-136.667 -125.833 -227 -163.5s-192.833 -56.5 -307.5 -56.5zM804 1448c-110.667 0 -195 -53.5 -253 -160.5s-87 -278.5 -87 -514.5
c0 -228.667 27.5 -396 82.5 -502s137.833 -159 248.5 -159c109.333 0 193.333 54.333 252 163s88 281 88 517c0 228 -27.5 394.333 -82.5 499s-137.833 157 -248.5 157zM1253 1971c-10 -35.333 -24.166 -70 -42.499 -104s-40 -64 -65 -90s-53.667 -47 -86 -63
s-67.5 -24 -105.5 -24c-38.667 0 -73.834 7.16699 -105.501 21.5s-61 29.833 -88 46.5l-77.5 46.5c-24.667 14.333 -49.667 21.5 -75 21.5c-34 0 -64.667 -12.667 -92 -38s-52 -54.333 -74 -87l-95 54c10 35.333 24.167 70 42.5 104s40 64 65 90s53.667 46.833 86 62.5
s67.5 23.5 105.5 23.5s72.833 -7 104.5 -21s61 -29.5 88 -46.5s53 -32.5 78 -46.5s50.167 -21 75.5 -21c33.333 0 63.833 12.5 91.5 37.5s52.5 53.833 74.5 86.5z" />
    <glyph glyph-name="Odieresis" unicode="&#xd6;" horiz-adv-x="1600" 
d="M774 -31c-114 0 -213.167 18.166 -297.5 54.499s-154 88.333 -209 156s-96 150 -123 247s-40.5 205.833 -40.5 326.5c0 132.667 16.167 251.334 48.5 356.001s79 192.5 140 263.5s136.5 125.333 226.5 163s192.333 56.5 307 56.5c114 0 213.167 -18.167 297.5 -54.5
s154 -88.333 209 -156s96 -150 123 -247s40.5 -205.833 40.5 -326.5c0 -132 -16 -250.333 -48 -355s-78.5 -192.667 -139.5 -264s-136.667 -125.833 -227 -163.5s-192.833 -56.5 -307.5 -56.5zM804 1448c-110.667 0 -195 -53.5 -253 -160.5s-87 -278.5 -87 -514.5
c0 -228.667 27.5 -396 82.5 -502s137.833 -159 248.5 -159c109.333 0 193.333 54.333 252 163s88 281 88 517c0 228 -27.5 394.333 -82.5 499s-137.833 157 -248.5 157zM1215 1851c0 -48 -14.167 -86.667 -42.5 -116s-65.5 -44 -111.5 -44
c-46.667 0 -84.167 14.667 -112.5 44s-42.5 68 -42.5 116c0 47.333 14.167 85.5 42.5 114.5s65.833 43.5 112.5 43.5c46 0 83.167 -14.5 111.5 -43.5s42.5 -67.167 42.5 -114.5zM693 1851c0 -48 -14.167 -86.667 -42.5 -116s-65.5 -44 -111.5 -44
c-47.333 0 -85.166 14.667 -113.499 44s-42.5 68 -42.5 116c0 47.333 14.167 85.5 42.5 114.5s66.166 43.5 113.499 43.5c46 0 83.167 -14.5 111.5 -43.5s42.5 -67.167 42.5 -114.5z" />
    <glyph glyph-name="multiply" unicode="&#xd7;" horiz-adv-x="1111" 
d="M266 168l-152 158l301 291l-301 292l153 157l288 -313l289 313l152 -157l-301 -292l301 -291l-151 -158l-290 313z" />
    <glyph glyph-name="Oslash" unicode="&#xd8;" horiz-adv-x="1600" 
d="M439 773c0 -102.667 5.5 -192.669 16.5 -270.002s27.833 -142.666 50.5 -195.999l498 1068c-26.667 26.667 -57.167 46.334 -91.5 59.001s-72.5 19 -114.5 19c-116.667 0 -205.667 -53.333 -267 -160s-92 -280 -92 -520zM788 107.998
c116.667 0 205.667 53.832 267 161.499s92 281.834 92 522.501c0 98 -5 184.5 -15 259.5s-25.333 138.833 -46 191.5l-497 -1062c26 -24.667 55.667 -43 89 -55s70 -18 110 -18zM767 -31.0029c-46 0 -89.833 3 -131.5 9s-80.5 15 -116.5 27l-111 -222l-146 75l109 219
c-92 64 -160.5 153.833 -205.5 269.5s-67.5 251.167 -67.5 406.5c0 132.667 16 251.334 48 356.001s78.667 192.5 140 263.5s136.833 125.333 226.5 163s191.834 56.5 306.501 56.5c48 0 93.667 -3.33301 137 -10s83.666 -16.334 120.999 -29.001l95 192l145 -76l-95 -190
c90 -64 157 -153.5 201 -268.5s66 -249.167 66 -402.5c0 -132 -16 -250.333 -48 -355s-78.5 -192.667 -139.5 -264s-136.667 -125.833 -227 -163.5s-192.833 -56.5 -307.5 -56.5z" />
    <glyph glyph-name="Ugrave" unicode="&#xd9;" horiz-adv-x="1712" 
d="M1045 1562l582.999 -0.00292969v-135l-114 -29c-15.333 -4 -27 -11 -35 -21s-12 -23 -12 -39v-761c0 -108 -14.167 -200.167 -42.5 -276.5s-68.333 -138.5 -120 -186.5s-115 -83 -190 -105s-158.833 -33 -251.5 -33c-210.667 0 -367 49.333 -469 148
s-153 255.334 -153 470.001v744c0 16 -4 28.833 -12 38.5s-19.333 16.834 -34 21.501l-105 29v135h701v-135l-165 -34c-15.333 -2.66699 -27.166 -9.16699 -35.499 -19.5s-12.5 -23.166 -12.5 -38.499v-770c0 -150 27.167 -263 81.5 -339s139.833 -114 256.5 -114
c127.333 0 216.666 40.833 267.999 122.5s77 190.167 77 325.5v777c0 16.667 -4.16699 30 -12.5 40s-20.166 16.333 -35.499 19l-168 31v135zM647.999 2123l491 -345.997l-64 -116l-151.5 55.5c-53.667 20.333 -106.167 41.666 -157.5 63.999s-100 45.666 -146 69.999
s-85.667 49.166 -119 74.499z" />
    <glyph glyph-name="Uacute" unicode="&#xda;" horiz-adv-x="1712" 
d="M1045 1562l582.999 -0.00292969v-135l-114 -29c-15.333 -4 -27 -11 -35 -21s-12 -23 -12 -39v-761c0 -108 -14.167 -200.167 -42.5 -276.5s-68.333 -138.5 -120 -186.5s-115 -83 -190 -105s-158.833 -33 -251.5 -33c-210.667 0 -367 49.333 -469 148
s-153 255.334 -153 470.001v744c0 16 -4 28.833 -12 38.5s-19.333 16.834 -34 21.501l-105 29v135h701v-135l-165 -34c-15.333 -2.66699 -27.166 -9.16699 -35.499 -19.5s-12.5 -23.166 -12.5 -38.499v-770c0 -150 27.167 -263 81.5 -339s139.833 -114 256.5 -114
c127.333 0 216.666 40.833 267.999 122.5s77 190.167 77 325.5v777c0 16.667 -4.16699 30 -12.5 40s-20.166 16.333 -35.499 19l-168 31v135zM1283 1911c-34 -24 -75 -47.5 -123 -70.5s-98.667 -44.833 -152 -65.5s-107.833 -40.167 -163.5 -58.5l-155.5 -49.5l-57 112
l513 334z" />
    <glyph glyph-name="Ucircumflex" unicode="&#xdb;" horiz-adv-x="1712" 
d="M1045 1562l582.999 -0.00292969v-135l-114 -29c-15.333 -4 -27 -11 -35 -21s-12 -23 -12 -39v-761c0 -108 -14.167 -200.167 -42.5 -276.5s-68.333 -138.5 -120 -186.5s-115 -83 -190 -105s-158.833 -33 -251.5 -33c-210.667 0 -367 49.333 -469 148
s-153 255.334 -153 470.001v744c0 16 -4 28.833 -12 38.5s-19.333 16.834 -34 21.501l-105 29v135h701v-135l-165 -34c-15.333 -2.66699 -27.166 -9.16699 -35.499 -19.5s-12.5 -23.166 -12.5 -38.499v-770c0 -150 27.167 -263 81.5 -339s139.833 -114 256.5 -114
c127.333 0 216.666 40.833 267.999 122.5s77 190.167 77 325.5v777c0 16.667 -4.16699 30 -12.5 40s-20.166 16.333 -35.499 19l-168 31v135zM543.999 1658l-88 99l310 320l204 10l335 -322l-93 -105l-346 205z" />
    <glyph glyph-name="Udieresis" unicode="&#xdc;" horiz-adv-x="1712" 
d="M1045 1562l582.999 -0.00292969v-135l-114 -29c-15.333 -4 -27 -11 -35 -21s-12 -23 -12 -39v-761c0 -108 -14.167 -200.167 -42.5 -276.5s-68.333 -138.5 -120 -186.5s-115 -83 -190 -105s-158.833 -33 -251.5 -33c-210.667 0 -367 49.333 -469 148
s-153 255.334 -153 470.001v744c0 16 -4 28.833 -12 38.5s-19.333 16.834 -34 21.501l-105 29v135h701v-135l-165 -34c-15.333 -2.66699 -27.166 -9.16699 -35.499 -19.5s-12.5 -23.166 -12.5 -38.499v-770c0 -150 27.167 -263 81.5 -339s139.833 -114 256.5 -114
c127.333 0 216.666 40.833 267.999 122.5s77 190.167 77 325.5v777c0 16.667 -4.16699 30 -12.5 40s-20.166 16.333 -35.499 19l-168 31v135zM1296 1851c0 -48 -14.167 -86.667 -42.5 -116s-65.5 -44 -111.5 -44c-46.667 0 -84.167 14.667 -112.5 44s-42.5 68 -42.5 116
c0 47.333 14.167 85.5 42.5 114.5s65.833 43.5 112.5 43.5c46 0 83.167 -14.5 111.5 -43.5s42.5 -67.167 42.5 -114.5zM773.999 1851c0 -48 -14.167 -86.667 -42.5 -116s-65.5 -44 -111.5 -44c-47.333 0 -85.166 14.667 -113.499 44s-42.5 68 -42.5 116
c0 47.333 14.167 85.5 42.5 114.5s66.166 43.5 113.499 43.5c46 0 83.167 -14.5 111.5 -43.5s42.5 -67.167 42.5 -114.5z" />
    <glyph glyph-name="Yacute" unicode="&#xdd;" horiz-adv-x="1497" 
d="M1166 0l-816.998 0.00195312v129l191 38c16.667 2.66699 29.167 8.5 37.5 17.5s12.5 21.833 12.5 38.5v385l-425 745c-6.66699 12 -14.834 21.333 -24.501 28s-21.167 11.667 -34.5 15l-124 31v135h711v-135l-166 -39l308 -581l286 582l-179 38v135h543v-135l-117 -29
c-13.333 -2.66699 -24.833 -7.33398 -34.5 -14.001s-17.834 -16.334 -24.501 -29.001l-383 -747v-385c0 -16.667 4.16699 -29.5 12.5 -38.5s20.5 -14.833 36.5 -17.5l191 -38v-129zM1174 1911c-34 -24 -75 -47.5 -123 -70.5s-98.667 -44.833 -152 -65.5
s-107.833 -40.167 -163.5 -58.5l-155.5 -49.5l-57 112l513 334z" />
    <glyph glyph-name="Thorn" unicode="&#xde;" horiz-adv-x="1446" 
d="M784 458c74.667 0 133.998 26.001 177.998 78.001s66 138.667 66 260c0 84.667 -18.833 155.167 -56.5 211.5s-103.167 84.166 -196.5 83.499c-26 0 -52.667 -0.833008 -80 -2.5s-54.666 -4.16699 -81.999 -7.5v-610c30.667 -4.66699 60.334 -8 89.001 -10s56 -3 82 -3z
M827.998 130.001l-0.00195312 -130.002h-725v130l139 29c16 2.66699 28.167 9 36.5 19s12.5 23 12.5 39v1120c0 16 -4.16699 29 -12.5 39s-20.5 16.667 -36.5 20l-139 31v135h725v-135l-167 -31c-15.333 -3.33301 -27.166 -9.83301 -35.499 -19.5
s-12.5 -22.834 -12.5 -39.501v-125c49.333 4.66699 99 8.83398 149 12.501s98 5.5 144 5.5c154 0 270.333 -34.333 349 -103s118 -175 118 -319c0 -165.333 -46.333 -286.666 -139 -363.999s-224.667 -116 -396 -116c-45.333 0 -85.666 0.833008 -120.999 2.5
s-70 3.83398 -104 6.50098v-119c0 -16 4 -29 12 -39s20 -16.333 36 -19z" />
    <glyph glyph-name="germandbls" unicode="&#xdf;" horiz-adv-x="1619" 
d="M1100 -28c-74.667 0 -146.334 8.5 -215.001 25.5s-126.667 36.5 -174 58.5c-2.66699 22 -4.66699 44.5 -6 67.5s-2 45.5 -2 67.5c0 32.667 1.16699 65 3.5 97s5.5 62.333 9.5 91h159l40 -148c6.66699 -24 12.834 -41.333 18.501 -52s15.167 -21.334 28.5 -32.001
c14.667 -11.333 34 -21.833 58 -31.5s50.667 -14.5 80 -14.5c44.667 0 82.334 12.5 113.001 37.5s46 59.5 46 103.5c0 56.667 -23.333 103.334 -70 140.001s-104.667 74.667 -174 114c-69.333 40 -127.5 84.333 -174.5 133s-70.5 112.334 -70.5 191.001
c0 79.333 24.5 146 73.5 200s107.167 97.333 174.5 130c8.66699 28.667 15 57.167 19 85.5s6 55.5 6 81.5c0 85.333 -21.333 154.166 -64 206.499s-104.667 78.5 -186 78.5c-71.333 0 -128 -23.833 -170 -71.5s-63 -127.834 -63 -240.501v-1290h-474v129l113 19
c16 2.66699 28.167 8.83398 36.5 18.501s12.5 22.834 12.5 39.501v749l-176 29v123l176 32v64c0 78 17.333 153 52 225s81 135.333 139 190s125.667 98.334 203 131.001s158.333 49 243 49c60.667 0 119.5 -9.33301 176.5 -28s107.167 -45.834 150.5 -81.501
s78.333 -80.167 105 -133.5s40.334 -114.333 41.001 -183c0.666992 -42 -3.83301 -85.833 -13.5 -131.5s-22.834 -89.834 -39.501 -132.501c-71.333 -17.333 -128.833 -42.833 -172.5 -76.5s-65.5 -74.167 -65.5 -121.5c0 -44 19.5 -81.167 58.5 -111.5
s93.167 -65.5 162.5 -105.5c88 -50.667 156.5 -102.667 205.5 -156s73.5 -122.666 73.5 -207.999c0 -58.667 -11.833 -110.334 -35.5 -155.001s-56.334 -82 -98.001 -112s-91.167 -52.5 -148.5 -67.5s-119 -22.5 -185 -22.5z" />
    <glyph glyph-name="agrave" unicode="&#xe0;" horiz-adv-x="1236" 
d="M533 157c36 0 71.167 5.83301 105.5 17.5s64.833 27.5 91.5 47.5v254l-137 -10c-69.333 -4.66699 -119 -22.667 -149 -54s-45 -71.333 -45 -120c0 -44 10.5 -77.5 31.5 -100.5s55.167 -34.5 102.5 -34.5zM969 -18c-54 0 -99.834 10.5049 -137.501 31.5049
s-65.834 55.833 -84.501 104.5c-39.333 -44 -88.5 -78.5 -147.5 -103.5s-124.167 -37.5 -195.5 -37.5c-98 0 -177.167 25.167 -237.5 75.5s-90.5 118.166 -90.5 203.499c0 54.667 12.5 102.167 37.5 142.5s58.167 73.666 99.5 99.999s88.5 46.666 141.5 60.999
s107.5 23.166 163.5 26.499l212 14v119c0 89.333 -19.167 151.333 -57.5 186s-94.833 52 -169.5 52c-62 0 -119.667 -10.167 -173 -30.5s-103 -50.833 -149 -91.5l-71 64c30.667 83.333 87.834 148.5 171.501 195.5s187.834 70.5 312.501 70.5
c152 0 263.333 -36.333 334 -109s106 -180.334 106 -323.001v-518c0 -21.333 4.5 -36.5 13.5 -45.5s22.167 -14.5 39.5 -16.5l104 -12v-121c-22.667 -6.66699 -56 -14.667 -100 -24s-84.667 -14 -122 -14zM449.999 1796l373 -440l-88 -102c-93.333 54 -182.333 115 -267 183
s-150.667 132.667 -198 194z" />
    <glyph glyph-name="aacute" unicode="&#xe1;" horiz-adv-x="1236" 
d="M533 157c36 0 71.167 5.83301 105.5 17.5s64.833 27.5 91.5 47.5v254l-137 -10c-69.333 -4.66699 -119 -22.667 -149 -54s-45 -71.333 -45 -120c0 -44 10.5 -77.5 31.5 -100.5s55.167 -34.5 102.5 -34.5zM969 -18c-54 0 -99.834 10.5049 -137.501 31.5049
s-65.834 55.833 -84.501 104.5c-39.333 -44 -88.5 -78.5 -147.5 -103.5s-124.167 -37.5 -195.5 -37.5c-98 0 -177.167 25.167 -237.5 75.5s-90.5 118.166 -90.5 203.499c0 54.667 12.5 102.167 37.5 142.5s58.167 73.666 99.5 99.999s88.5 46.666 141.5 60.999
s107.5 23.166 163.5 26.499l212 14v119c0 89.333 -19.167 151.333 -57.5 186s-94.833 52 -169.5 52c-62 0 -119.667 -10.167 -173 -30.5s-103 -50.833 -149 -91.5l-71 64c30.667 83.333 87.834 148.5 171.501 195.5s187.834 70.5 312.501 70.5
c152 0 263.333 -36.333 334 -109s106 -180.334 106 -323.001v-518c0 -21.333 4.5 -36.5 13.5 -45.5s22.167 -14.5 39.5 -16.5l104 -12v-121c-22.667 -6.66699 -56 -14.667 -100 -24s-84.667 -14 -122 -14zM498.999 1254l-82 96l385 446l180 -165
c-23.333 -30 -52.833 -61.5 -88.5 -94.5s-74.667 -65.667 -117 -98s-87.333 -64.333 -135 -96s-95.167 -61.167 -142.5 -88.5z" />
    <glyph glyph-name="acircumflex" unicode="&#xe2;" horiz-adv-x="1236" 
d="M533 157c36 0 71.167 5.83301 105.5 17.5s64.833 27.5 91.5 47.5v254l-137 -10c-69.333 -4.66699 -119 -22.667 -149 -54s-45 -71.333 -45 -120c0 -44 10.5 -77.5 31.5 -100.5s55.167 -34.5 102.5 -34.5zM969 -18c-54 0 -99.834 10.5049 -137.501 31.5049
s-65.834 55.833 -84.501 104.5c-39.333 -44 -88.5 -78.5 -147.5 -103.5s-124.167 -37.5 -195.5 -37.5c-98 0 -177.167 25.167 -237.5 75.5s-90.5 118.166 -90.5 203.499c0 54.667 12.5 102.167 37.5 142.5s58.167 73.666 99.5 99.999s88.5 46.666 141.5 60.999
s107.5 23.166 163.5 26.499l212 14v119c0 89.333 -19.167 151.333 -57.5 186s-94.833 52 -169.5 52c-62 0 -119.667 -10.167 -173 -30.5s-103 -50.833 -149 -91.5l-71 64c30.667 83.333 87.834 148.5 171.501 195.5s187.834 70.5 312.501 70.5
c152 0 263.333 -36.333 334 -109s106 -180.334 106 -323.001v-518c0 -21.333 4.5 -36.5 13.5 -45.5s22.167 -14.5 39.5 -16.5l104 -12v-121c-22.667 -6.66699 -56 -14.667 -100 -24s-84.667 -14 -122 -14zM287.999 1262l-99 92l293 390l201 18l322 -402l-104 -96l-319 260z
" />
    <glyph glyph-name="atilde" unicode="&#xe3;" horiz-adv-x="1236" 
d="M533 157c36 0 71.167 5.83301 105.5 17.5s64.833 27.5 91.5 47.5v254l-137 -10c-69.333 -4.66699 -119 -22.667 -149 -54s-45 -71.333 -45 -120c0 -44 10.5 -77.5 31.5 -100.5s55.167 -34.5 102.5 -34.5zM969 -18c-54 0 -99.834 10.5049 -137.501 31.5049
s-65.834 55.833 -84.501 104.5c-39.333 -44 -88.5 -78.5 -147.5 -103.5s-124.167 -37.5 -195.5 -37.5c-98 0 -177.167 25.167 -237.5 75.5s-90.5 118.166 -90.5 203.499c0 54.667 12.5 102.167 37.5 142.5s58.167 73.666 99.5 99.999s88.5 46.666 141.5 60.999
s107.5 23.166 163.5 26.499l212 14v119c0 89.333 -19.167 151.333 -57.5 186s-94.833 52 -169.5 52c-62 0 -119.667 -10.167 -173 -30.5s-103 -50.833 -149 -91.5l-71 64c30.667 83.333 87.834 148.5 171.501 195.5s187.834 70.5 312.501 70.5
c152 0 263.333 -36.333 334 -109s106 -180.334 106 -323.001v-518c0 -21.333 4.5 -36.5 13.5 -45.5s22.167 -14.5 39.5 -16.5l104 -12v-121c-22.667 -6.66699 -56 -14.667 -100 -24s-84.667 -14 -122 -14zM1034 1580c-10 -36.667 -23.668 -72.502 -41.001 -107.502
s-38.166 -65.667 -62.499 -92s-52.166 -47.666 -83.499 -63.999s-65.666 -24.5 -102.999 -24.5c-36.667 0 -70.167 7.33301 -100.5 22s-58.5 30.834 -84.5 48.501s-51 33.834 -75 48.501s-48 22 -72 22c-32 0 -61.167 -13.167 -87.5 -39.5s-49.833 -56.5 -70.5 -90.5l-94 54
c9.33301 37.333 22.666 73.5 39.999 108.5s38.166 65.833 62.499 92.5s52.333 48.167 84 64.5s66.167 24.5 103.5 24.5c36.667 0 70.167 -7.33301 100.5 -22s58.5 -30.834 84.5 -48.501l74.5 -48.5c23.667 -14.667 47.5 -22 71.5 -22c32 0 61.167 13 87.5 39
s49.833 56.333 70.5 91z" />
    <glyph glyph-name="adieresis" unicode="&#xe4;" horiz-adv-x="1236" 
d="M533 157c36 0 71.167 5.83301 105.5 17.5s64.833 27.5 91.5 47.5v254l-137 -10c-69.333 -4.66699 -119 -22.667 -149 -54s-45 -71.333 -45 -120c0 -44 10.5 -77.5 31.5 -100.5s55.167 -34.5 102.5 -34.5zM969 -18c-54 0 -99.834 10.5049 -137.501 31.5049
s-65.834 55.833 -84.501 104.5c-39.333 -44 -88.5 -78.5 -147.5 -103.5s-124.167 -37.5 -195.5 -37.5c-98 0 -177.167 25.167 -237.5 75.5s-90.5 118.166 -90.5 203.499c0 54.667 12.5 102.167 37.5 142.5s58.167 73.666 99.5 99.999s88.5 46.666 141.5 60.999
s107.5 23.166 163.5 26.499l212 14v119c0 89.333 -19.167 151.333 -57.5 186s-94.833 52 -169.5 52c-62 0 -119.667 -10.167 -173 -30.5s-103 -50.833 -149 -91.5l-71 64c30.667 83.333 87.834 148.5 171.501 195.5s187.834 70.5 312.501 70.5
c152 0 263.333 -36.333 334 -109s106 -180.334 106 -323.001v-518c0 -21.333 4.5 -36.5 13.5 -45.5s22.167 -14.5 39.5 -16.5l104 -12v-121c-22.667 -6.66699 -56 -14.667 -100 -24s-84.667 -14 -122 -14zM985.999 1476c0 -47.333 -14.167 -85.5 -42.5 -114.5
s-65.5 -43.5 -111.5 -43.5c-46.667 0 -84.167 14.5 -112.5 43.5s-42.5 67.167 -42.5 114.5c0 48 14.167 86.333 42.5 115s65.833 43 112.5 43c46 0 83.167 -14.333 111.5 -43s42.5 -67 42.5 -115zM516.999 1476c0 -47.333 -14.333 -85.5 -43 -114.5s-66 -43.5 -112 -43.5
c-46.667 0 -84.167 14.5 -112.5 43.5s-42.5 67.167 -42.5 114.5c0 48 14.167 86.333 42.5 115s65.833 43 112.5 43c46 0 83.333 -14.333 112 -43s43 -67 43 -115z" />
    <glyph glyph-name="aring" unicode="&#xe5;" horiz-adv-x="1236" 
d="M533 157c36 0 71.167 5.83301 105.5 17.5s64.833 27.5 91.5 47.5v254l-137 -10c-69.333 -4.66699 -119 -22.667 -149 -54s-45 -71.333 -45 -120c0 -44 10.5 -77.5 31.5 -100.5s55.167 -34.5 102.5 -34.5zM969 -18c-54 0 -99.834 10.5049 -137.501 31.5049
s-65.834 55.833 -84.501 104.5c-39.333 -44 -88.5 -78.5 -147.5 -103.5s-124.167 -37.5 -195.5 -37.5c-98 0 -177.167 25.167 -237.5 75.5s-90.5 118.166 -90.5 203.499c0 54.667 12.5 102.167 37.5 142.5s58.167 73.666 99.5 99.999s88.5 46.666 141.5 60.999
s107.5 23.166 163.5 26.499l212 14v119c0 89.333 -19.167 151.333 -57.5 186s-94.833 52 -169.5 52c-62 0 -119.667 -10.167 -173 -30.5s-103 -50.833 -149 -91.5l-71 64c30.667 83.333 87.834 148.5 171.501 195.5s187.834 70.5 312.501 70.5
c152 0 263.333 -36.333 334 -109s106 -180.334 106 -323.001v-518c0 -21.333 4.5 -36.5 13.5 -45.5s22.167 -14.5 39.5 -16.5l104 -12v-121c-22.667 -6.66699 -56 -14.667 -100 -24s-84.667 -14 -122 -14zM891.999 1525c0 -38 -7.83398 -72.5 -23.501 -103.5
s-37 -57.167 -64 -78.5s-58.667 -37.833 -95 -49.5s-75.166 -17.5 -116.499 -17.5c-94 0 -166.167 23 -216.5 69s-75.5 107.667 -75.5 185c0 37.333 8.33301 71.333 25 102s38.834 56.5 66.501 77.5s60 37.333 97 49s76.167 17.5 117.5 17.5
c95.333 0 166.666 -23.667 213.999 -71s71 -107.333 71 -180zM477.998 1531c0 -34.667 10 -65.334 30 -92.001s50 -40 90 -40c38 0 67.167 10.167 87.5 30.5s30.5 50.5 30.5 90.5c0 36.667 -9.5 67.834 -28.5 93.501s-48.5 38.5 -88.5 38.5
c-38.667 0 -68.5 -10.333 -89.5 -31s-31.5 -50.667 -31.5 -90z" />
    <glyph glyph-name="ae" unicode="&#xe6;" horiz-adv-x="1804" 
d="M1245 1030c-52 0 -96.332 -21.332 -132.999 -63.999s-60.334 -115 -71.001 -217h379c0.666992 6.66699 1.16699 13.667 1.5 21s0.5 15.666 0.5 24.999c0 68 -15 124.167 -45 168.5s-74 66.5 -132 66.5zM1705 249.001c-14 -45.333 -35.835 -85.165 -65.502 -119.498
s-64.667 -62.833 -105 -85.5s-85.333 -39.834 -135 -51.501s-101.5 -17.5 -155.5 -17.5c-98 0 -181.5 17.167 -250.5 51.5s-124.167 82.5 -165.5 144.5c-43.333 -61.333 -101.166 -109 -173.499 -143s-151.833 -51 -238.5 -51c-106 0 -189.167 25 -249.5 75
s-90.5 117.333 -90.5 202c0 55.333 12.5 103.333 37.5 144s58.167 74.334 99.5 101.001s88.5 47.167 141.5 61.5s107.5 23.166 163.5 26.499l212 13v119c0 86.667 -20.833 148 -62.5 184s-99.167 54 -172.5 54c-54.667 0 -109.334 -10 -164.001 -30
s-104.667 -50.667 -150 -92l-71 64c15.333 42.667 37.833 80.5 67.5 113.5s64.667 60.833 105 83.5s85 39.834 134 51.501s100.5 17.5 154.5 17.5c78.667 0 144.334 -11.833 197.001 -35.5s94.667 -57.167 126 -100.5c45.333 44 99.833 78 163.5 102s135.834 36 216.501 36
c144 0 253 -35.667 327 -107s111 -165.333 111 -282c0 -22.667 -1.33301 -48.334 -4 -77.001s-6.33398 -54.334 -11.001 -77.001h-662v-2c0 -164 26 -280 78 -348s126 -102 222 -102c56 0 110.833 11 164.5 33s96.834 54 129.501 96zM532.999 157.002
c41.333 0 83.999 8.66797 127.999 26.001s84.667 42 122 74c-13.333 32 -24.166 66.5 -32.499 103.5s-13.833 75.5 -16.5 115.5l-141 -10c-70 -4.66699 -119.833 -22.834 -149.5 -54.501s-44.5 -71.5 -44.5 -119.5c0 -44 10.5 -77.5 31.5 -100.5s55.167 -34.5 102.5 -34.5z
" />
    <glyph glyph-name="ccedilla" unicode="&#xe7;" horiz-adv-x="1135" 
d="M90 556c0 96 13.667 181.998 41 257.998s66 140.167 116 192.5s110.5 92.333 181.5 120s149.5 41.5 235.5 41.5c68 0 136.167 -7.83301 204.5 -23.5s124.5 -35.5 168.5 -59.5c4.66699 -62 4.66699 -125.167 0 -189.5s-12.334 -125.5 -23.001 -183.5h-153l-52 189
c-6 22 -12 39.333 -18 52s-14 23.667 -24 33c-12.667 10.667 -29.167 19.834 -49.5 27.501s-42.833 11.5 -67.5 11.5c-66 0 -119.5 -33.333 -160.5 -100s-61.5 -174 -61.5 -322c0 -142.667 22.833 -250.167 68.5 -322.5s117.834 -108.5 216.501 -108.5
c60 0 112.667 11 158 33s81.333 45.667 108 71l72 -59c-26.667 -70 -78 -127.833 -154 -173.5s-170.667 -68.5 -284 -68.5c-89.333 0 -167 14.833 -233 44.5s-120.333 70.334 -163 122.001s-74.5 113.167 -95.5 184.5s-31.5 148 -31.5 230zM539 50.998l109.001 -0.00195312
l-41 -139c4.66699 0 10 -0.166992 16 -0.5s12.333 -0.833008 19 -1.5c54.667 -2.66699 99.334 -20 134.001 -52s52 -75 52 -129c0 -38 -9.5 -72.667 -28.5 -104s-45.333 -58 -79 -80s-74 -39.167 -121 -51.5s-98.167 -18.5 -153.5 -18.5
c-10.667 0 -20.334 0.166992 -29.001 0.5s-17.667 0.833008 -27 1.5l-17 106c67.333 6.66699 118.5 22.334 153.5 47.001s52.5 54.334 52.5 89.001c0 30.667 -11.833 53.5 -35.5 68.5s-52.834 23.167 -87.501 24.5z" />
    <glyph glyph-name="egrave" unicode="&#xe8;" horiz-adv-x="1182" 
d="M621 1031c-54 0 -98.5 -21.332 -133.5 -63.999s-57.5 -115.334 -67.5 -218.001h379c0.666992 6.66699 1 13.667 1 21v25c0 68.667 -14.833 125.167 -44.5 169.5s-74.5 66.5 -134.5 66.5zM1084 249.001c-26.667 -86.667 -81.3311 -153.998 -163.998 -201.998
s-183 -72 -301 -72c-90 0 -168.167 14 -234.5 42s-121.166 67.333 -164.499 118s-75.5 112 -96.5 184s-31.5 152 -31.5 240c0 195.333 49.167 345.5 147.5 450.5s234.166 157.5 407.499 157.5c147.333 0 258.166 -35.667 332.499 -107s111.5 -165.333 111.5 -282
c0 -22.667 -1.33301 -48.334 -4 -77.001s-6.33398 -54.334 -11.001 -77.001h-662v-7c0 -158.667 24 -272.5 72 -341.5s123.333 -103.5 226 -103.5c58 0 113.5 11 166.5 33s96.167 54 129.5 96zM471.003 1796l373 -440l-88 -102c-93.333 54 -182.333 115 -267 183
s-150.667 132.667 -198 194z" />
    <glyph glyph-name="eacute" unicode="&#xe9;" horiz-adv-x="1182" 
d="M621 1031c-54 0 -98.5 -21.332 -133.5 -63.999s-57.5 -115.334 -67.5 -218.001h379c0.666992 6.66699 1 13.667 1 21v25c0 68.667 -14.833 125.167 -44.5 169.5s-74.5 66.5 -134.5 66.5zM1084 249.001c-26.667 -86.667 -81.3311 -153.998 -163.998 -201.998
s-183 -72 -301 -72c-90 0 -168.167 14 -234.5 42s-121.166 67.333 -164.499 118s-75.5 112 -96.5 184s-31.5 152 -31.5 240c0 195.333 49.167 345.5 147.5 450.5s234.166 157.5 407.499 157.5c147.333 0 258.166 -35.667 332.499 -107s111.5 -165.333 111.5 -282
c0 -22.667 -1.33301 -48.334 -4 -77.001s-6.33398 -54.334 -11.001 -77.001h-662v-7c0 -158.667 24 -272.5 72 -341.5s123.333 -103.5 226 -103.5c58 0 113.5 11 166.5 33s96.167 54 129.5 96zM520.003 1254l-82 96l385 446l180 -165c-23.333 -30 -52.833 -61.5 -88.5 -94.5
s-74.667 -65.667 -117 -98s-87.333 -64.333 -135 -96s-95.167 -61.167 -142.5 -88.5z" />
    <glyph glyph-name="ecircumflex" unicode="&#xea;" horiz-adv-x="1182" 
d="M621 1031c-54 0 -98.5 -21.332 -133.5 -63.999s-57.5 -115.334 -67.5 -218.001h379c0.666992 6.66699 1 13.667 1 21v25c0 68.667 -14.833 125.167 -44.5 169.5s-74.5 66.5 -134.5 66.5zM1084 249.001c-26.667 -86.667 -81.3311 -153.998 -163.998 -201.998
s-183 -72 -301 -72c-90 0 -168.167 14 -234.5 42s-121.166 67.333 -164.499 118s-75.5 112 -96.5 184s-31.5 152 -31.5 240c0 195.333 49.167 345.5 147.5 450.5s234.166 157.5 407.499 157.5c147.333 0 258.166 -35.667 332.499 -107s111.5 -165.333 111.5 -282
c0 -22.667 -1.33301 -48.334 -4 -77.001s-6.33398 -54.334 -11.001 -77.001h-662v-7c0 -158.667 24 -272.5 72 -341.5s123.333 -103.5 226 -103.5c58 0 113.5 11 166.5 33s96.167 54 129.5 96zM309.003 1262l-99 92l293 390l201 18l322 -402l-104 -96l-319 260z" />
    <glyph glyph-name="edieresis" unicode="&#xeb;" horiz-adv-x="1182" 
d="M621 1031c-54 0 -98.5 -21.332 -133.5 -63.999s-57.5 -115.334 -67.5 -218.001h379c0.666992 6.66699 1 13.667 1 21v25c0 68.667 -14.833 125.167 -44.5 169.5s-74.5 66.5 -134.5 66.5zM1084 249.001c-26.667 -86.667 -81.3311 -153.998 -163.998 -201.998
s-183 -72 -301 -72c-90 0 -168.167 14 -234.5 42s-121.166 67.333 -164.499 118s-75.5 112 -96.5 184s-31.5 152 -31.5 240c0 195.333 49.167 345.5 147.5 450.5s234.166 157.5 407.499 157.5c147.333 0 258.166 -35.667 332.499 -107s111.5 -165.333 111.5 -282
c0 -22.667 -1.33301 -48.334 -4 -77.001s-6.33398 -54.334 -11.001 -77.001h-662v-7c0 -158.667 24 -272.5 72 -341.5s123.333 -103.5 226 -103.5c58 0 113.5 11 166.5 33s96.167 54 129.5 96zM1007 1476c0 -47.333 -14.167 -85.5 -42.5 -114.5s-65.5 -43.5 -111.5 -43.5
c-46.667 0 -84.167 14.5 -112.5 43.5s-42.5 67.167 -42.5 114.5c0 48 14.167 86.333 42.5 115s65.833 43 112.5 43c46 0 83.167 -14.333 111.5 -43s42.5 -67 42.5 -115zM538.003 1476c0 -47.333 -14.333 -85.5 -43 -114.5s-66 -43.5 -112 -43.5
c-46.667 0 -84.167 14.5 -112.5 43.5s-42.5 67.167 -42.5 114.5c0 48 14.167 86.333 42.5 115s65.833 43 112.5 43c46 0 83.333 -14.333 112 -43s43 -67 43 -115z" />
    <glyph glyph-name="igrave" unicode="&#xec;" horiz-adv-x="780" 
d="M561 1124v-917c0 -16 4.16699 -29 12.5 -39s20.5 -16.333 36.5 -19l113 -20v-129h-637v129l113 20c16 2.66699 28.333 9 37 19s13 23 13 39v688c0 16 -4 29.167 -12 39.5s-19.667 16.833 -35 19.5l-128 24v130c66.667 18.667 140.667 32.667 222 42s155.333 14 222 14z
M215 1796l373 -440l-88 -102c-93.333 54 -182.333 115 -267 183s-150.667 132.667 -198 194z" />
    <glyph glyph-name="iacute" unicode="&#xed;" horiz-adv-x="780" 
d="M561 1124v-917c0 -16 4.16699 -29 12.5 -39s20.5 -16.333 36.5 -19l113 -20v-129h-637v129l113 20c16 2.66699 28.333 9 37 19s13 23 13 39v688c0 16 -4 29.167 -12 39.5s-19.667 16.833 -35 19.5l-128 24v130c66.667 18.667 140.667 32.667 222 42s155.333 14 222 14z
M264 1254l-82 96l385 446l180 -165c-23.333 -30 -52.833 -61.5 -88.5 -94.5s-74.667 -65.667 -117 -98s-87.333 -64.333 -135 -96s-95.167 -61.167 -142.5 -88.5z" />
    <glyph glyph-name="icircumflex" unicode="&#xee;" horiz-adv-x="780" 
d="M561 1124v-917c0 -16 4.16699 -29 12.5 -39s20.5 -16.333 36.5 -19l113 -20v-129h-637v129l113 20c16 2.66699 28.333 9 37 19s13 23 13 39v688c0 16 -4 29.167 -12 39.5s-19.667 16.833 -35 19.5l-128 24v130c66.667 18.667 140.667 32.667 222 42s155.333 14 222 14z
M91 1263l-99 86l255 390l201 18l285 -401l-104 -91l-282 262z" />
    <glyph glyph-name="idieresis" unicode="&#xef;" horiz-adv-x="780" 
d="M561 1124v-917c0 -16 4.16699 -29 12.5 -39s20.5 -16.333 36.5 -19l113 -20v-129h-637v129l113 20c16 2.66699 28.333 9 37 19s13 23 13 39v688c0 16 -4 29.167 -12 39.5s-19.667 16.833 -35 19.5l-128 24v130c66.667 18.667 140.667 32.667 222 42s155.333 14 222 14z
M751 1476c0 -47.333 -14.167 -85.5 -42.5 -114.5s-65.5 -43.5 -111.5 -43.5c-46.667 0 -84.167 14.5 -112.5 43.5s-42.5 67.167 -42.5 114.5c0 48 14.167 86.333 42.5 115s65.833 43 112.5 43c46 0 83.167 -14.333 111.5 -43s42.5 -67 42.5 -115zM282 1476
c0 -47.333 -14.333 -85.5 -43 -114.5s-66 -43.5 -112 -43.5c-46.667 0 -84.167 14.5 -112.5 43.5s-42.5 67.167 -42.5 114.5c0 48 14.167 86.333 42.5 115s65.833 43 112.5 43c46 0 83.333 -14.333 112 -43s43 -67 43 -115z" />
    <glyph glyph-name="eth" unicode="&#xf0;" horiz-adv-x="1300" 
d="M614 -23c-163.333 0 -290.998 49.1631 -382.998 147.496s-138 239.5 -138 423.5c0 106.667 14.5 196.834 43.5 270.501s66 133.167 111 178.5s95.167 78 150.5 98s108.666 30 159.999 30c43.333 0 86.833 -6.5 130.5 -19.5s82.167 -33.833 115.5 -62.5
c-20.667 67.333 -47.667 130 -81 188s-73.333 112 -120 162l-285 -198l-91 145l262 158c-40.667 32.667 -85.334 64 -134.001 94s-101 59.333 -157 88l55 118c80.667 -20 156.167 -45.333 226.5 -76s135.5 -65.334 195.5 -104.001l258 176l91 -143l-221 -131
c64 -56 120 -117.5 168 -184.5s88 -137.167 120 -210.5s56 -150.166 72 -230.499s24 -161.166 24 -242.499c0 -90 -10.167 -176.167 -30.5 -258.5s-53 -154.166 -98 -215.499s-104.167 -110.166 -177.5 -146.499s-162.333 -54.5 -267 -54.5zM644.002 116.996
c77.333 0 132.669 38.1689 166.002 114.502s50 200.166 50 371.499c0 48 -1.5 94.167 -4.5 138.5s-7.5 86.833 -13.5 127.5c-24.667 26.667 -53.5 47.167 -86.5 61.5s-69.167 21.5 -108.5 21.5c-33.333 0 -63.333 -6.66699 -90 -20s-49.334 -35.5 -68.001 -66.5
s-33 -72.5 -43 -124.5s-15 -116.667 -15 -194c0 -64 3.66699 -122.5 11 -175.5s19.333 -98.333 36 -136s38.667 -66.834 66 -87.501s60.666 -31 99.999 -31z" />
    <glyph glyph-name="ntilde" unicode="&#xf1;" horiz-adv-x="1482" 
d="M690 129l0.000976562 -128.997h-604v129l114 20c15.333 2.66699 27.333 9 36 19s13 23 13 39v688c0 16 -4 29.167 -12 39.5s-19.667 16.833 -35 19.5l-128 24v130c64.667 18 133 31.833 205 41.5s139.667 14.834 203 15.501l45 -42l19 -113
c50 53.333 107.5 92.166 172.5 116.499s134.167 36.5 207.5 36.5c133.333 0 224.5 -37.833 273.5 -113.5s73.5 -182.167 73.5 -319.5v-523c0 -16.667 4.33301 -29.834 13 -39.501s20.667 -15.834 36 -18.501l114 -20v-129h-604v129l81 19
c15.333 4.66699 27.166 11.5 35.499 20.5s12.5 21.833 12.5 38.5v483c0 99.333 -14.167 171 -42.5 215s-76.5 66 -144.5 66c-35.333 0 -71.5 -5.33301 -108.5 -16s-71.833 -26.334 -104.5 -47.001v-701c0 -16 4.16699 -28.667 12.5 -38s19.833 -16.333 34.5 -21zM1184 1580
c-10 -36.667 -23.668 -72.502 -41.001 -107.502s-38.166 -65.667 -62.499 -92s-52.166 -47.666 -83.499 -63.999s-65.666 -24.5 -102.999 -24.5c-36.667 0 -70.167 7.33301 -100.5 22s-58.5 30.834 -84.5 48.501s-51 33.834 -75 48.501s-48 22 -72 22
c-32 0 -61.167 -13.167 -87.5 -39.5s-49.833 -56.5 -70.5 -90.5l-94 54c9.33301 37.333 22.666 73.5 39.999 108.5s38.166 65.833 62.499 92.5s52.333 48.167 84 64.5s66.167 24.5 103.5 24.5c36.667 0 70.167 -7.33301 100.5 -22s58.5 -30.834 84.5 -48.501l74.5 -48.5
c23.667 -14.667 47.5 -22 71.5 -22c32 0 61.167 13 87.5 39s49.833 56.333 70.5 91z" />
    <glyph glyph-name="ograve" unicode="&#xf2;" horiz-adv-x="1306" 
d="M92 560c0 109.333 14.832 202.833 44.499 280.5s70.334 140.5 122.001 188.5s112.834 83.167 183.501 105.5s146.334 33.5 227.001 33.5c175.333 0 310 -49.833 404 -149.5s141 -245.5 141 -437.5c0 -109.333 -14.833 -202.666 -44.5 -279.999
s-70.334 -140 -122.001 -188s-112.834 -83 -183.501 -105s-146.667 -33 -228 -33c-175.333 0 -309.833 49.667 -403.5 149s-140.5 244.666 -140.5 435.999zM874.999 557c0 162 -16.1689 281.168 -48.502 357.501s-92.166 114.5 -179.499 114.5
c-72.667 0 -127 -33.333 -163 -100s-54 -181.334 -54 -344.001c0 -161.333 16.167 -280.333 48.5 -357s92.5 -115 180.5 -115c72.667 0 126.834 33.5 162.501 100.5s53.5 181.5 53.5 343.5zM505.997 1796l373 -440l-88 -102c-93.333 54 -182.333 115 -267 183
s-150.667 132.667 -198 194z" />
    <glyph glyph-name="oacute" unicode="&#xf3;" horiz-adv-x="1306" 
d="M92 560c0 109.333 14.832 202.833 44.499 280.5s70.334 140.5 122.001 188.5s112.834 83.167 183.501 105.5s146.334 33.5 227.001 33.5c175.333 0 310 -49.833 404 -149.5s141 -245.5 141 -437.5c0 -109.333 -14.833 -202.666 -44.5 -279.999
s-70.334 -140 -122.001 -188s-112.834 -83 -183.501 -105s-146.667 -33 -228 -33c-175.333 0 -309.833 49.667 -403.5 149s-140.5 244.666 -140.5 435.999zM874.999 557c0 162 -16.1689 281.168 -48.502 357.501s-92.166 114.5 -179.499 114.5
c-72.667 0 -127 -33.333 -163 -100s-54 -181.334 -54 -344.001c0 -161.333 16.167 -280.333 48.5 -357s92.5 -115 180.5 -115c72.667 0 126.834 33.5 162.501 100.5s53.5 181.5 53.5 343.5zM554.997 1254l-82 96l385 446l180 -165c-23.333 -30 -52.833 -61.5 -88.5 -94.5
s-74.667 -65.667 -117 -98s-87.333 -64.333 -135 -96s-95.167 -61.167 -142.5 -88.5z" />
    <glyph glyph-name="ocircumflex" unicode="&#xf4;" horiz-adv-x="1306" 
d="M92 560c0 109.333 14.832 202.833 44.499 280.5s70.334 140.5 122.001 188.5s112.834 83.167 183.501 105.5s146.334 33.5 227.001 33.5c175.333 0 310 -49.833 404 -149.5s141 -245.5 141 -437.5c0 -109.333 -14.833 -202.666 -44.5 -279.999
s-70.334 -140 -122.001 -188s-112.834 -83 -183.501 -105s-146.667 -33 -228 -33c-175.333 0 -309.833 49.667 -403.5 149s-140.5 244.666 -140.5 435.999zM874.999 557c0 162 -16.1689 281.168 -48.502 357.501s-92.166 114.5 -179.499 114.5
c-72.667 0 -127 -33.333 -163 -100s-54 -181.334 -54 -344.001c0 -161.333 16.167 -280.333 48.5 -357s92.5 -115 180.5 -115c72.667 0 126.834 33.5 162.501 100.5s53.5 181.5 53.5 343.5zM343.997 1262l-99 92l293 390l201 18l322 -402l-104 -96l-319 260z" />
    <glyph glyph-name="otilde" unicode="&#xf5;" horiz-adv-x="1306" 
d="M92 560c0 109.333 14.832 202.833 44.499 280.5s70.334 140.5 122.001 188.5s112.834 83.167 183.501 105.5s146.334 33.5 227.001 33.5c175.333 0 310 -49.833 404 -149.5s141 -245.5 141 -437.5c0 -109.333 -14.833 -202.666 -44.5 -279.999
s-70.334 -140 -122.001 -188s-112.834 -83 -183.501 -105s-146.667 -33 -228 -33c-175.333 0 -309.833 49.667 -403.5 149s-140.5 244.666 -140.5 435.999zM874.999 557c0 162 -16.1689 281.168 -48.502 357.501s-92.166 114.5 -179.499 114.5
c-72.667 0 -127 -33.333 -163 -100s-54 -181.334 -54 -344.001c0 -161.333 16.167 -280.333 48.5 -357s92.5 -115 180.5 -115c72.667 0 126.834 33.5 162.501 100.5s53.5 181.5 53.5 343.5zM1090 1580c-10 -36.667 -23.668 -72.502 -41.001 -107.502
s-38.166 -65.667 -62.499 -92s-52.166 -47.666 -83.499 -63.999s-65.666 -24.5 -102.999 -24.5c-36.667 0 -70.167 7.33301 -100.5 22s-58.5 30.834 -84.5 48.501s-51 33.834 -75 48.501s-48 22 -72 22c-32 0 -61.167 -13.167 -87.5 -39.5s-49.833 -56.5 -70.5 -90.5l-94 54
c9.33301 37.333 22.666 73.5 39.999 108.5s38.166 65.833 62.499 92.5s52.333 48.167 84 64.5s66.167 24.5 103.5 24.5c36.667 0 70.167 -7.33301 100.5 -22s58.5 -30.834 84.5 -48.501l74.5 -48.5c23.667 -14.667 47.5 -22 71.5 -22c32 0 61.167 13 87.5 39
s49.833 56.333 70.5 91z" />
    <glyph glyph-name="odieresis" unicode="&#xf6;" horiz-adv-x="1306" 
d="M92 560c0 109.333 14.832 202.833 44.499 280.5s70.334 140.5 122.001 188.5s112.834 83.167 183.501 105.5s146.334 33.5 227.001 33.5c175.333 0 310 -49.833 404 -149.5s141 -245.5 141 -437.5c0 -109.333 -14.833 -202.666 -44.5 -279.999
s-70.334 -140 -122.001 -188s-112.834 -83 -183.501 -105s-146.667 -33 -228 -33c-175.333 0 -309.833 49.667 -403.5 149s-140.5 244.666 -140.5 435.999zM874.999 557c0 162 -16.1689 281.168 -48.502 357.501s-92.166 114.5 -179.499 114.5
c-72.667 0 -127 -33.333 -163 -100s-54 -181.334 -54 -344.001c0 -161.333 16.167 -280.333 48.5 -357s92.5 -115 180.5 -115c72.667 0 126.834 33.5 162.501 100.5s53.5 181.5 53.5 343.5zM1042 1476c0 -47.333 -14.167 -85.5 -42.5 -114.5s-65.5 -43.5 -111.5 -43.5
c-46.667 0 -84.167 14.5 -112.5 43.5s-42.5 67.167 -42.5 114.5c0 48 14.167 86.333 42.5 115s65.833 43 112.5 43c46 0 83.167 -14.333 111.5 -43s42.5 -67 42.5 -115zM572.997 1476c0 -47.333 -14.333 -85.5 -43 -114.5s-66 -43.5 -112 -43.5
c-46.667 0 -84.167 14.5 -112.5 43.5s-42.5 67.167 -42.5 114.5c0 48 14.167 86.333 42.5 115s65.833 43 112.5 43c46 0 83.333 -14.333 112 -43s43 -67 43 -115z" />
    <glyph glyph-name="divide" unicode="&#xf7;" horiz-adv-x="1155" 
d="M742 990c0 -44.667 -15.167 -80.667 -45.5 -108s-70.166 -41 -119.499 -41c-48.667 0 -88.167 13.667 -118.5 41s-45.5 63.333 -45.5 108s15.167 80.667 45.5 108s69.833 41 118.5 41c49.333 0 89.166 -13.667 119.499 -41s45.5 -63.333 45.5 -108zM1043 525h-931v189
h931v-189zM742 249c0 -44.667 -15.167 -80.834 -45.5 -108.501s-70.166 -41.5 -119.499 -41.5c-48.667 0 -88.167 13.833 -118.5 41.5s-45.5 63.834 -45.5 108.501s15.167 80.667 45.5 108s69.833 41 118.5 41c49.333 0 89.166 -13.667 119.499 -41s45.5 -63.333 45.5 -108z
" />
    <glyph glyph-name="oslash" unicode="&#xf8;" horiz-adv-x="1306" 
d="M405 585c0 -71.333 3.33203 -134.668 9.99902 -190.001s17.334 -102.333 32.001 -141l337 740c-18 12.667 -38.333 22.334 -61 29.001s-48 10 -76 10c-78.667 0 -138.667 -33.5 -180 -100.5s-62 -182.833 -62 -347.5zM658.999 108.998c78 0 137.667 33.666 179 100.999
s62 183 62 347c0 68.667 -3 129.834 -9 183.501s-15.667 99.5 -29 137.5l-335 -734c17.333 -11.333 37 -20 59 -26s46.333 -9 73 -9zM635.999 -25.0029c-30.667 0 -60.001 1.5 -88.001 4.5s-54.667 7.5 -80 13.5l-100 -204l-136 70l94 189c-76 44.667 -134 110 -174 196
s-60 191.333 -60 316c0 109.333 14.833 202.833 44.5 280.5s70.334 140.5 122.001 188.5s112.834 83.167 183.501 105.5s146.334 33.5 227.001 33.5c32 0 62.667 -1.66699 92 -5s57.333 -8.33301 84 -15l93 188l135 -70l-87 -175c74 -46 130.5 -111.833 169.5 -197.5
s58.5 -189.834 58.5 -312.501c0 -109.333 -14.833 -202.666 -44.5 -279.999s-70.334 -140 -122.001 -188s-112.834 -83 -183.501 -105s-146.667 -33 -228 -33z" />
    <glyph glyph-name="ugrave" unicode="&#xf9;" horiz-adv-x="1430" 
d="M1146 -18c-56 0 -102.171 11.835 -138.504 35.502s-63.833 57.5 -82.5 101.5c-42.667 -44.667 -92.167 -79.5 -148.5 -104.5s-125.166 -37.5 -206.499 -37.5c-120.667 0 -210.5 33 -269.5 99s-88.5 166.667 -88.5 302v520c0 15.333 -3.66699 28.166 -11 38.499
s-19 17.166 -35 20.499l-113 25v132c64 16 135.333 28.333 214 37s150.334 13 215.001 13l42 -40v-702c0 -99.333 13.833 -168.5 41.5 -207.5s73.834 -58.5 138.501 -58.5c34 0 68 5.5 102 16.5s66.333 26.833 97 47.5v678c0 16 -4 29.333 -12 40s-19.667 17.667 -35 21
l-126 26v131c32.667 8 68 15 106 21s76.333 11 115 15s77 7 115 9s73.333 3 106 3l43 -40v-909c0 -22 4.83301 -37.333 14.5 -46s22.834 -14 39.501 -16l103 -12v-121c-23.333 -7.33301 -56.833 -15.5 -100.5 -24.5s-85.5 -13.5 -125.5 -13.5zM538.996 1796l373 -440
l-88 -102c-93.333 54 -182.333 115 -267 183s-150.667 132.667 -198 194z" />
    <glyph glyph-name="uacute" unicode="&#xfa;" horiz-adv-x="1430" 
d="M1146 -18c-56 0 -102.171 11.835 -138.504 35.502s-63.833 57.5 -82.5 101.5c-42.667 -44.667 -92.167 -79.5 -148.5 -104.5s-125.166 -37.5 -206.499 -37.5c-120.667 0 -210.5 33 -269.5 99s-88.5 166.667 -88.5 302v520c0 15.333 -3.66699 28.166 -11 38.499
s-19 17.166 -35 20.499l-113 25v132c64 16 135.333 28.333 214 37s150.334 13 215.001 13l42 -40v-702c0 -99.333 13.833 -168.5 41.5 -207.5s73.834 -58.5 138.501 -58.5c34 0 68 5.5 102 16.5s66.333 26.833 97 47.5v678c0 16 -4 29.333 -12 40s-19.667 17.667 -35 21
l-126 26v131c32.667 8 68 15 106 21s76.333 11 115 15s77 7 115 9s73.333 3 106 3l43 -40v-909c0 -22 4.83301 -37.333 14.5 -46s22.834 -14 39.501 -16l103 -12v-121c-23.333 -7.33301 -56.833 -15.5 -100.5 -24.5s-85.5 -13.5 -125.5 -13.5zM587.996 1254l-82 96l385 446
l180 -165c-23.333 -30 -52.833 -61.5 -88.5 -94.5s-74.667 -65.667 -117 -98s-87.333 -64.333 -135 -96s-95.167 -61.167 -142.5 -88.5z" />
    <glyph glyph-name="ucircumflex" unicode="&#xfb;" horiz-adv-x="1430" 
d="M1146 -18c-56 0 -102.171 11.835 -138.504 35.502s-63.833 57.5 -82.5 101.5c-42.667 -44.667 -92.167 -79.5 -148.5 -104.5s-125.166 -37.5 -206.499 -37.5c-120.667 0 -210.5 33 -269.5 99s-88.5 166.667 -88.5 302v520c0 15.333 -3.66699 28.166 -11 38.499
s-19 17.166 -35 20.499l-113 25v132c64 16 135.333 28.333 214 37s150.334 13 215.001 13l42 -40v-702c0 -99.333 13.833 -168.5 41.5 -207.5s73.834 -58.5 138.501 -58.5c34 0 68 5.5 102 16.5s66.333 26.833 97 47.5v678c0 16 -4 29.333 -12 40s-19.667 17.667 -35 21
l-126 26v131c32.667 8 68 15 106 21s76.333 11 115 15s77 7 115 9s73.333 3 106 3l43 -40v-909c0 -22 4.83301 -37.333 14.5 -46s22.834 -14 39.501 -16l103 -12v-121c-23.333 -7.33301 -56.833 -15.5 -100.5 -24.5s-85.5 -13.5 -125.5 -13.5zM376.996 1262l-99 92l293 390
l201 18l322 -402l-104 -96l-319 260z" />
    <glyph glyph-name="udieresis" unicode="&#xfc;" horiz-adv-x="1430" 
d="M1146 -18c-56 0 -102.171 11.835 -138.504 35.502s-63.833 57.5 -82.5 101.5c-42.667 -44.667 -92.167 -79.5 -148.5 -104.5s-125.166 -37.5 -206.499 -37.5c-120.667 0 -210.5 33 -269.5 99s-88.5 166.667 -88.5 302v520c0 15.333 -3.66699 28.166 -11 38.499
s-19 17.166 -35 20.499l-113 25v132c64 16 135.333 28.333 214 37s150.334 13 215.001 13l42 -40v-702c0 -99.333 13.833 -168.5 41.5 -207.5s73.834 -58.5 138.501 -58.5c34 0 68 5.5 102 16.5s66.333 26.833 97 47.5v678c0 16 -4 29.333 -12 40s-19.667 17.667 -35 21
l-126 26v131c32.667 8 68 15 106 21s76.333 11 115 15s77 7 115 9s73.333 3 106 3l43 -40v-909c0 -22 4.83301 -37.333 14.5 -46s22.834 -14 39.501 -16l103 -12v-121c-23.333 -7.33301 -56.833 -15.5 -100.5 -24.5s-85.5 -13.5 -125.5 -13.5zM1075 1476
c0 -47.333 -14.167 -85.5 -42.5 -114.5s-65.5 -43.5 -111.5 -43.5c-46.667 0 -84.167 14.5 -112.5 43.5s-42.5 67.167 -42.5 114.5c0 48 14.167 86.333 42.5 115s65.833 43 112.5 43c46 0 83.167 -14.333 111.5 -43s42.5 -67 42.5 -115zM605.996 1476
c0 -47.333 -14.333 -85.5 -43 -114.5s-66 -43.5 -112 -43.5c-46.667 0 -84.167 14.5 -112.5 43.5s-42.5 67.167 -42.5 114.5c0 48 14.167 86.333 42.5 115s65.833 43 112.5 43c46 0 83.333 -14.333 112 -43s43 -67 43 -115z" />
    <glyph glyph-name="yacute" unicode="&#xfd;" horiz-adv-x="1284" 
d="M310 -518c-42.667 0 -86.998 2.50195 -132.998 7.50195s-89 10.833 -129 17.5v155c77.333 10 146.666 21.833 207.999 35.5s115.833 32.5 163.5 56.5s90.167 55.667 127.5 95s71 89.666 101 150.999h-133l-358 934c-5.33301 14.667 -13 26 -23 34s-22.333 14.333 -37 19
l-78 24v127l624 -1v-129l-155 -31l252 -727l231 727l-149 32v129h449v-127l-78 -24c-16 -4.66699 -28.5 -10.834 -37.5 -18.501s-16.167 -19.5 -21.5 -35.5l-335 -959c-58 -166 -124.833 -289.5 -200.5 -370.5s-171.834 -121.5 -288.501 -121.5zM589.002 1254l-82 96
l385 446l180 -165c-23.333 -30 -52.833 -61.5 -88.5 -94.5s-74.667 -65.667 -117 -98s-87.333 -64.333 -135 -96s-95.167 -61.167 -142.5 -88.5z" />
    <glyph glyph-name="thorn" unicode="&#xfe;" horiz-adv-x="1326" 
d="M629 108c82.667 0 148.833 34.001 198.5 102.001s75.167 187.667 76.5 359c0.666992 146 -19 250.667 -59 314s-100 95 -180 95c-36 0 -69.833 -4.83301 -101.5 -14.5s-58.5 -21.834 -80.5 -36.501v-788c20.667 -10.667 43.5 -18.5 68.5 -23.5s50.833 -7.5 77.5 -7.5z
M691.999 -367.999l-0.00195312 -128.004h-683v128l114 21c16 2.66699 28 8.83398 36 18.501s12 22.834 12 39.501v1823c0 16.667 -4.16699 29.834 -12.5 39.501s-20.166 15.834 -35.499 18.501l-136 21v126c33.333 8.66699 69.5 16.667 108.5 24s78.5 13.666 118.5 18.999
s79.5 9.5 118.5 12.5s75.167 4.5 108.5 4.5l42 -39v-721c39.333 38.667 85 69.834 137 93.501s112.333 35.5 181 35.5c61.333 0 118.5 -10.667 171.5 -32s98.667 -54 137 -98s68.5 -100.5 90.5 -169.5s33 -150.5 33 -244.5c0 -103.333 -14.167 -195.5 -42.5 -276.5
s-68.5 -148.667 -120.5 -203s-115.667 -95.833 -191 -124.5s-159.333 -43 -252 -43c-22.667 0 -46.167 1.33301 -70.5 4s-48.833 6.33398 -73.5 11.001v-282c0 -16.667 4.33301 -29.834 13 -39.501s21.334 -15.5 38.001 -17.5z" />
    <glyph glyph-name="ydieresis" unicode="&#xff;" horiz-adv-x="1284" 
d="M310 -518c-42.667 0 -86.998 2.50195 -132.998 7.50195s-89 10.833 -129 17.5v155c77.333 10 146.666 21.833 207.999 35.5s115.833 32.5 163.5 56.5s90.167 55.667 127.5 95s71 89.666 101 150.999h-133l-358 934c-5.33301 14.667 -13 26 -23 34s-22.333 14.333 -37 19
l-78 24v127l624 -1v-129l-155 -31l252 -727l231 727l-149 32v129h449v-127l-78 -24c-16 -4.66699 -28.5 -10.834 -37.5 -18.501s-16.167 -19.5 -21.5 -35.5l-335 -959c-58 -166 -124.833 -289.5 -200.5 -370.5s-171.834 -121.5 -288.501 -121.5zM1076 1476
c0 -47.333 -14.167 -85.5 -42.5 -114.5s-65.5 -43.5 -111.5 -43.5c-46.667 0 -84.167 14.5 -112.5 43.5s-42.5 67.167 -42.5 114.5c0 48 14.167 86.333 42.5 115s65.833 43 112.5 43c46 0 83.167 -14.333 111.5 -43s42.5 -67 42.5 -115zM607.002 1476
c0 -47.333 -14.333 -85.5 -43 -114.5s-66 -43.5 -112 -43.5c-46.667 0 -84.167 14.5 -112.5 43.5s-42.5 67.167 -42.5 114.5c0 48 14.167 86.333 42.5 115s65.833 43 112.5 43c46 0 83.333 -14.333 112 -43s43 -67 43 -115z" />
    <glyph glyph-name="Amacron" unicode="&#x100;" horiz-adv-x="1587" 
d="M943 618l-225 696l-217 -696h442zM552 130v-130h-563v130l132 32c14 3.33301 25.333 9 34 17s15.334 18.667 20.001 32l463 1356h308l471 -1356c4.66699 -14 11.667 -24.667 21 -32s20.666 -13 33.999 -17l122 -32v-130h-698v130l194 33l-97 301h-540l-94 -301zM424 1750
v186h739v-186h-739z" />
    <glyph glyph-name="amacron" unicode="&#x101;" horiz-adv-x="1236" 
d="M533 157c36 0 71.167 5.83301 105.5 17.5s64.833 27.5 91.5 47.5v254l-137 -10c-69.333 -4.66699 -119 -22.667 -149 -54s-45 -71.333 -45 -120c0 -44 10.5 -77.5 31.5 -100.5s55.167 -34.5 102.5 -34.5zM969 -18c-54 0 -99.834 10.5049 -137.501 31.5049
s-65.834 55.833 -84.501 104.5c-39.333 -44 -88.5 -78.5 -147.5 -103.5s-124.167 -37.5 -195.5 -37.5c-98 0 -177.167 25.167 -237.5 75.5s-90.5 118.166 -90.5 203.499c0 54.667 12.5 102.167 37.5 142.5s58.167 73.666 99.5 99.999s88.5 46.666 141.5 60.999
s107.5 23.166 163.5 26.499l212 14v119c0 89.333 -19.167 151.333 -57.5 186s-94.833 52 -169.5 52c-62 0 -119.667 -10.167 -173 -30.5s-103 -50.833 -149 -91.5l-71 64c30.667 83.333 87.834 148.5 171.501 195.5s187.834 70.5 312.501 70.5
c152 0 263.333 -36.333 334 -109s106 -180.334 106 -323.001v-518c0 -21.333 4.5 -36.5 13.5 -45.5s22.167 -14.5 39.5 -16.5l104 -12v-121c-22.667 -6.66699 -56 -14.667 -100 -24s-84.667 -14 -122 -14zM239.999 1357v186h713v-186h-713z" />
    <glyph glyph-name="Abreve" unicode="&#x102;" horiz-adv-x="1587" 
d="M943 618l-225 696l-217 -696h442zM552 130v-130h-563v130l132 32c14 3.33301 25.333 9 34 17s15.334 18.667 20.001 32l463 1356h308l471 -1356c4.66699 -14 11.667 -24.667 21 -32s20.666 -13 33.999 -17l122 -32v-130h-698v130l194 33l-97 301h-540l-94 -301z
M1203 2002c-12 -44.667 -30.502 -86.332 -55.502 -124.999s-55.167 -72.167 -90.5 -100.5s-75.666 -50.5 -120.999 -66.5s-94 -24 -146 -24c-53.333 0 -102.833 8.33301 -148.5 25s-86 39.334 -121 68.001s-64.167 62.167 -87.5 100.5s-39.333 79.166 -48 122.499l129 66
c33.333 -58 74.833 -100.5 124.5 -127.5s103.5 -40.5 161.5 -40.5c56.667 0 110.334 13.167 161.001 39.5s94 69.166 130 128.499z" />
    <glyph glyph-name="abreve" unicode="&#x103;" horiz-adv-x="1236" 
d="M533 157c36 0 71.167 5.83301 105.5 17.5s64.833 27.5 91.5 47.5v254l-137 -10c-69.333 -4.66699 -119 -22.667 -149 -54s-45 -71.333 -45 -120c0 -44 10.5 -77.5 31.5 -100.5s55.167 -34.5 102.5 -34.5zM969 -18c-54 0 -99.834 10.5049 -137.501 31.5049
s-65.834 55.833 -84.501 104.5c-39.333 -44 -88.5 -78.5 -147.5 -103.5s-124.167 -37.5 -195.5 -37.5c-98 0 -177.167 25.167 -237.5 75.5s-90.5 118.166 -90.5 203.499c0 54.667 12.5 102.167 37.5 142.5s58.167 73.666 99.5 99.999s88.5 46.666 141.5 60.999
s107.5 23.166 163.5 26.499l212 14v119c0 89.333 -19.167 151.333 -57.5 186s-94.833 52 -169.5 52c-62 0 -119.667 -10.167 -173 -30.5s-103 -50.833 -149 -91.5l-71 64c30.667 83.333 87.834 148.5 171.501 195.5s187.834 70.5 312.501 70.5
c152 0 263.333 -36.333 334 -109s106 -180.334 106 -323.001v-518c0 -21.333 4.5 -36.5 13.5 -45.5s22.167 -14.5 39.5 -16.5l104 -12v-121c-22.667 -6.66699 -56 -14.667 -100 -24s-84.667 -14 -122 -14zM997.999 1623c-22 -94.667 -69.834 -172.5 -143.501 -233.5
s-161.834 -91.5 -264.501 -91.5c-52 0 -100.5 8.33301 -145.5 25s-84.667 39.5 -119 68.5s-62.666 63.333 -84.999 103s-37.166 82.5 -44.499 128.5l129 64c31.333 -59.333 70.5 -103.333 117.5 -132s99.5 -43 157.5 -43c56.667 0 109.167 13.833 157.5 41.5
s90.833 72.167 127.5 133.5z" />
    <glyph glyph-name="Aogonek" unicode="&#x104;" horiz-adv-x="1587" 
d="M943 618l-225 696l-217 -696h442zM1531 -441c-37.333 -24.667 -81.5 -43.668 -132.5 -57.001s-100.5 -20 -148.5 -20c-76 0.666992 -140.333 18.167 -193 52.5s-79 85.5 -79 153.5c0 34.667 7.83301 67.834 23.5 99.501s36.5 60.5 62.5 86.5s56.167 49.333 90.5 70
s69.833 37.667 106.5 51v5h-365v130l194 33l-97 301h-540l-94 -301l193 -33v-130h-563v130l132 32c14 3.33301 25.333 9 34 17s15.334 18.667 20.001 32l463 1356h308l471 -1356c4.66699 -14 11.667 -24.667 21 -32s20.666 -13 33.999 -17l122 -32v-130h-127
c-70 -26.667 -127.167 -61.667 -171.5 -105s-66.5 -88 -66.5 -134c0 -36 12.667 -62.5 38 -79.5s57 -25.5 95 -25.5c19.333 0 39.333 2 60 6s40.667 10.333 60 19z" />
    <glyph glyph-name="aogonek" unicode="&#x105;" horiz-adv-x="1236" 
d="M892 -518c-75.333 0.666992 -138.836 18.1729 -190.503 52.5059s-77.5 85.5 -77.5 153.5c0 34 7.66699 66.5 23 97.5s35.5 59.167 60.5 84.5s54 48 87 68s66.5 36.333 100.5 49v2c-34 7.33301 -63.5 21.5 -88.5 42.5s-44.833 49.833 -59.5 86.5
c-39.333 -44 -88.5 -78.5 -147.5 -103.5s-124.167 -37.5 -195.5 -37.5c-98 0 -177.167 25.167 -237.5 75.5s-90.5 118.166 -90.5 203.499c0 54.667 12.5 102.167 37.5 142.5s58.167 73.666 99.5 99.999s88.5 46.666 141.5 60.999s107.5 23.166 163.5 26.499l212 14v119
c0 89.333 -19.167 151.333 -57.5 186s-94.833 52 -169.5 52c-62 0 -119.667 -10.167 -173 -30.5s-103 -50.833 -149 -91.5l-71 64c30.667 83.333 87.834 148.5 171.501 195.5s187.834 70.5 312.501 70.5c152 0 263.333 -36.333 334 -109s106 -180.334 106 -323.001v-518
c0 -21.333 4.5 -36.5 13.5 -45.5s22.167 -14.5 39.5 -16.5l104 -12v-121c-10.667 -3.33301 -24.167 -7 -40.5 -11s-33.833 -8 -52.5 -12c-67.333 -26.667 -121.833 -61.334 -163.5 -104.001s-62.5 -86.667 -62.5 -132c0 -36 12.5 -62.5 37.5 -79.5s56.167 -25.5 93.5 -25.5
c19.333 0 39.333 2 60 6s40.667 10.333 60 19l46 -122c-36.667 -24.667 -80.167 -43.667 -130.5 -57s-99.166 -20 -146.499 -20zM532.997 157.006c36 0 71.167 5.83301 105.5 17.5s64.833 27.5 91.5 47.5v254l-137 -10c-69.333 -4.66699 -119 -22.667 -149 -54
s-45 -71.333 -45 -120c0 -44 10.5 -77.5 31.5 -100.5s55.167 -34.5 102.5 -34.5z" />
    <glyph glyph-name="Cacute" unicode="&#x106;" horiz-adv-x="1452" 
d="M819 -33c-240.667 0 -419.998 68.168 -537.998 204.501s-177 328.833 -177 577.5c0 142 18.333 266 55 372s88.167 193.5 154.5 262.5s147 120.667 242 155s200.167 51.5 315.5 51.5c74.667 0 154.167 -6.83301 238.5 -20.5s161.833 -33.834 232.5 -60.501
c4.66699 -63.333 5.16699 -131.333 1.5 -204s-11.5 -147.667 -23.5 -225h-192l-55 250c-2.66699 13.333 -7.83398 26.666 -15.501 39.999s-19.834 25.333 -36.501 36c-19.333 12.667 -46 23.5 -80 32.5s-69.667 13.5 -107 13.5c-112.667 0 -201.167 -51.667 -265.5 -155
s-96.5 -273 -96.5 -509c0 -214.667 29.333 -381.667 88 -501s152.334 -179 281.001 -179c36.667 0 72.667 5.16699 108 15.5s64.666 25.166 87.999 44.499c10 8 18.667 17.667 26 29s14.333 26.666 21 45.999l70 223l189 -16c2.66699 -59.333 2.66699 -123.166 0 -191.499
s-9 -137.5 -19 -207.5c-33.333 -12 -70.5 -23.167 -111.5 -33.5s-83.5 -19.166 -127.5 -26.499s-88.667 -13.166 -134 -17.499s-89.333 -6.5 -132 -6.5zM1239 1911c-34 -24 -75 -47.5 -123 -70.5s-98.667 -44.833 -152 -65.5s-107.833 -40.167 -163.5 -58.5l-155.5 -49.5
l-57 112l513 334z" />
    <glyph glyph-name="cacute" unicode="&#x107;" horiz-adv-x="1135" 
d="M90 556c0 96 13.667 181.998 41 257.998s66 140.167 116 192.5s110.5 92.333 181.5 120s149.5 41.5 235.5 41.5c68 0 136.167 -7.83301 204.5 -23.5s124.5 -35.5 168.5 -59.5c4.66699 -62 4.66699 -125.167 0 -189.5s-12.334 -125.5 -23.001 -183.5h-153l-52 189
c-6 22 -12 39.333 -18 52s-14 23.667 -24 33c-12.667 10.667 -29.167 19.834 -49.5 27.501s-42.833 11.5 -67.5 11.5c-66 0 -119.5 -33.333 -160.5 -100s-61.5 -174 -61.5 -322c0 -142.667 22.833 -250.167 68.5 -322.5s117.834 -108.5 216.501 -108.5
c60 0 112.667 11 158 33s81.333 45.667 108 71l72 -59c-26.667 -70 -78 -127.833 -154 -173.5s-170.667 -68.5 -284 -68.5c-89.333 0 -167 14.833 -233 44.5s-120.333 70.334 -163 122.001s-74.5 113.167 -95.5 184.5s-31.5 148 -31.5 230zM530 1254l-82 96l385 446
l180 -165c-23.333 -30 -52.833 -61.5 -88.5 -94.5s-74.667 -65.667 -117 -98s-87.333 -64.333 -135 -96s-95.167 -61.167 -142.5 -88.5z" />
    <glyph glyph-name="Ccircumflex" unicode="&#x108;" horiz-adv-x="1452" 
d="M819 -33c-240.667 0 -419.998 68.168 -537.998 204.501s-177 328.833 -177 577.5c0 142 18.333 266 55 372s88.167 193.5 154.5 262.5s147 120.667 242 155s200.167 51.5 315.5 51.5c74.667 0 154.167 -6.83301 238.5 -20.5s161.833 -33.834 232.5 -60.501
c4.66699 -63.333 5.16699 -131.333 1.5 -204s-11.5 -147.667 -23.5 -225h-192l-55 250c-2.66699 13.333 -7.83398 26.666 -15.501 39.999s-19.834 25.333 -36.501 36c-19.333 12.667 -46 23.5 -80 32.5s-69.667 13.5 -107 13.5c-112.667 0 -201.167 -51.667 -265.5 -155
s-96.5 -273 -96.5 -509c0 -214.667 29.333 -381.667 88 -501s152.334 -179 281.001 -179c36.667 0 72.667 5.16699 108 15.5s64.666 25.166 87.999 44.499c10 8 18.667 17.667 26 29s14.333 26.666 21 45.999l70 223l189 -16c2.66699 -59.333 2.66699 -123.166 0 -191.499
s-9 -137.5 -19 -207.5c-33.333 -12 -70.5 -23.167 -111.5 -33.5s-83.5 -19.166 -127.5 -26.499s-88.667 -13.166 -134 -17.499s-89.333 -6.5 -132 -6.5zM500.002 1658l-88 99l310 320l204 10l335 -322l-93 -105l-346 205z" />
    <glyph glyph-name="ccircumflex" unicode="&#x109;" horiz-adv-x="1135" 
d="M90 556c0 96 13.667 181.998 41 257.998s66 140.167 116 192.5s110.5 92.333 181.5 120s149.5 41.5 235.5 41.5c68 0 136.167 -7.83301 204.5 -23.5s124.5 -35.5 168.5 -59.5c4.66699 -62 4.66699 -125.167 0 -189.5s-12.334 -125.5 -23.001 -183.5h-153l-52 189
c-6 22 -12 39.333 -18 52s-14 23.667 -24 33c-12.667 10.667 -29.167 19.834 -49.5 27.501s-42.833 11.5 -67.5 11.5c-66 0 -119.5 -33.333 -160.5 -100s-61.5 -174 -61.5 -322c0 -142.667 22.833 -250.167 68.5 -322.5s117.834 -108.5 216.501 -108.5
c60 0 112.667 11 158 33s81.333 45.667 108 71l72 -59c-26.667 -70 -78 -127.833 -154 -173.5s-170.667 -68.5 -284 -68.5c-89.333 0 -167 14.833 -233 44.5s-120.333 70.334 -163 122.001s-74.5 113.167 -95.5 184.5s-31.5 148 -31.5 230zM319 1262l-99 92l293 390l201 18
l322 -402l-104 -96l-319 260z" />
    <glyph glyph-name="Cdotaccent" unicode="&#x10a;" horiz-adv-x="1452" 
d="M819 -33c-240.667 0 -419.998 68.168 -537.998 204.501s-177 328.833 -177 577.5c0 142 18.333 266 55 372s88.167 193.5 154.5 262.5s147 120.667 242 155s200.167 51.5 315.5 51.5c74.667 0 154.167 -6.83301 238.5 -20.5s161.833 -33.834 232.5 -60.501
c4.66699 -63.333 5.16699 -131.333 1.5 -204s-11.5 -147.667 -23.5 -225h-192l-55 250c-2.66699 13.333 -7.83398 26.666 -15.501 39.999s-19.834 25.333 -36.501 36c-19.333 12.667 -46 23.5 -80 32.5s-69.667 13.5 -107 13.5c-112.667 0 -201.167 -51.667 -265.5 -155
s-96.5 -273 -96.5 -509c0 -214.667 29.333 -381.667 88 -501s152.334 -179 281.001 -179c36.667 0 72.667 5.16699 108 15.5s64.666 25.166 87.999 44.499c10 8 18.667 17.667 26 29s14.333 26.666 21 45.999l70 223l189 -16c2.66699 -59.333 2.66699 -123.166 0 -191.499
s-9 -137.5 -19 -207.5c-33.333 -12 -70.5 -23.167 -111.5 -33.5s-83.5 -19.166 -127.5 -26.499s-88.667 -13.166 -134 -17.499s-89.333 -6.5 -132 -6.5zM1021 1875c0 -51.333 -16.667 -92.666 -50 -123.999s-77.666 -47 -132.999 -47s-99.833 15.667 -133.5 47
s-50.5 72.666 -50.5 123.999c0 52 16.833 93.5 50.5 124.5s78.167 46.5 133.5 46.5s99.666 -15.5 132.999 -46.5s50 -72.5 50 -124.5z" />
    <glyph glyph-name="cdotaccent" unicode="&#x10b;" horiz-adv-x="1135" 
d="M90 556c0 96 13.667 181.998 41 257.998s66 140.167 116 192.5s110.5 92.333 181.5 120s149.5 41.5 235.5 41.5c68 0 136.167 -7.83301 204.5 -23.5s124.5 -35.5 168.5 -59.5c4.66699 -62 4.66699 -125.167 0 -189.5s-12.334 -125.5 -23.001 -183.5h-153l-52 189
c-6 22 -12 39.333 -18 52s-14 23.667 -24 33c-12.667 10.667 -29.167 19.834 -49.5 27.501s-42.833 11.5 -67.5 11.5c-66 0 -119.5 -33.333 -160.5 -100s-61.5 -174 -61.5 -322c0 -142.667 22.833 -250.167 68.5 -322.5s117.834 -108.5 216.501 -108.5
c60 0 112.667 11 158 33s81.333 45.667 108 71l72 -59c-26.667 -70 -78 -127.833 -154 -173.5s-170.667 -68.5 -284 -68.5c-89.333 0 -167 14.833 -233 44.5s-120.333 70.334 -163 122.001s-74.5 113.167 -95.5 184.5s-31.5 148 -31.5 230zM831 1477
c0 -50.667 -16.333 -91.5 -49 -122.5s-76 -46.5 -130 -46.5c-54.667 0 -98.5 15.5 -131.5 46.5s-49.5 71.833 -49.5 122.5c0 50 16.5 90.333 49.5 121s76.833 46 131.5 46c54 0 97.333 -15.333 130 -46s49 -71 49 -121z" />
    <glyph glyph-name="Ccaron" unicode="&#x10c;" horiz-adv-x="1452" 
d="M819 -33c-240.667 0 -419.998 68.168 -537.998 204.501s-177 328.833 -177 577.5c0 142 18.333 266 55 372s88.167 193.5 154.5 262.5s147 120.667 242 155s200.167 51.5 315.5 51.5c74.667 0 154.167 -6.83301 238.5 -20.5s161.833 -33.834 232.5 -60.501
c4.66699 -63.333 5.16699 -131.333 1.5 -204s-11.5 -147.667 -23.5 -225h-192l-55 250c-2.66699 13.333 -7.83398 26.666 -15.501 39.999s-19.834 25.333 -36.501 36c-19.333 12.667 -46 23.5 -80 32.5s-69.667 13.5 -107 13.5c-112.667 0 -201.167 -51.667 -265.5 -155
s-96.5 -273 -96.5 -509c0 -214.667 29.333 -381.667 88 -501s152.334 -179 281.001 -179c36.667 0 72.667 5.16699 108 15.5s64.666 25.166 87.999 44.499c10 8 18.667 17.667 26 29s14.333 26.666 21 45.999l70 223l189 -16c2.66699 -59.333 2.66699 -123.166 0 -191.499
s-9 -137.5 -19 -207.5c-33.333 -12 -70.5 -23.167 -111.5 -33.5s-83.5 -19.166 -127.5 -26.499s-88.667 -13.166 -134 -17.499s-89.333 -6.5 -132 -6.5zM1173 2103l88 -99l-310 -320l-204 -10l-335 322l93 105l346 -205z" />
    <glyph glyph-name="ccaron" unicode="&#x10d;" horiz-adv-x="1135" 
d="M90 556c0 96 13.667 181.998 41 257.998s66 140.167 116 192.5s110.5 92.333 181.5 120s149.5 41.5 235.5 41.5c68 0 136.167 -7.83301 204.5 -23.5s124.5 -35.5 168.5 -59.5c4.66699 -62 4.66699 -125.167 0 -189.5s-12.334 -125.5 -23.001 -183.5h-153l-52 189
c-6 22 -12 39.333 -18 52s-14 23.667 -24 33c-12.667 10.667 -29.167 19.834 -49.5 27.501s-42.833 11.5 -67.5 11.5c-66 0 -119.5 -33.333 -160.5 -100s-61.5 -174 -61.5 -322c0 -142.667 22.833 -250.167 68.5 -322.5s117.834 -108.5 216.501 -108.5
c60 0 112.667 11 158 33s81.333 45.667 108 71l72 -59c-26.667 -70 -78 -127.833 -154 -173.5s-170.667 -68.5 -284 -68.5c-89.333 0 -167 14.833 -233 44.5s-120.333 70.334 -163 122.001s-74.5 113.167 -95.5 184.5s-31.5 148 -31.5 230zM951 1798l99 -92l-293 -390
l-200 -18l-322 401l103 97l319 -261z" />
    <glyph glyph-name="Dcaron" unicode="&#x10e;" horiz-adv-x="1683" 
d="M460 1562c66.667 0 128.499 2.16602 185.499 6.49902s115.167 6.5 174.5 6.5c254.667 0 444.834 -61 570.501 -183s188.5 -309 188.5 -561c0 -138 -18 -260.5 -54 -367.5s-87.5 -196.333 -154.5 -268s-149.333 -125.5 -247 -161.5s-207.167 -52.667 -328.5 -50
c-22.667 0.666992 -48.5 1.83398 -77.5 3.50098s-58.5 3.5 -88.5 5.5s-59.5 3.66699 -88.5 5s-54.5 2 -76.5 2h-368v130l160 30c14 2 25 8 33 18s12 21.667 12 35v1131c0 12.667 -3.66699 23.5 -11 32.5s-17.333 14.833 -30 17.5l-164 33v135h364zM628.999 145.999
c20.667 -6.66699 48.002 -11.665 82.002 -14.998s65.333 -5 94 -5c66 1.33301 125 13.666 177 36.999s95.667 60.5 131 111.5s62.5 118.167 81.5 201.5s28.5 184.666 28.5 303.999c0 212.667 -34.667 375.667 -104 489s-180.333 170 -333 170
c-36.667 0 -69.334 -2.5 -98.001 -7.5s-48.334 -7.83301 -59.001 -8.5v-1277zM1150 2103l88 -99l-310 -320l-204 -10l-335 322l93 105l346 -205z" />
    <glyph glyph-name="dcaron" unicode="&#x10f;" horiz-adv-x="1411" 
d="M654 156c34 0 68.001 5.00195 102.001 15.002s64.333 23.667 91 41v781c-19.333 10.667 -42.333 19 -69 25s-54 9 -82 9c-40 0 -76.667 -7.33301 -110 -22s-62 -39.334 -86 -74.001s-42.833 -81 -56.5 -139s-20.5 -130 -20.5 -216
c0 -154.667 21.167 -263.334 63.5 -326.001s98.166 -94 167.499 -94zM1091 -17.998c-56.667 0 -103.165 11.8301 -139.498 35.4971s-63.833 57.5 -82.5 101.5c-38 -42 -84.333 -76.167 -139 -102.5s-116.667 -39.5 -186 -39.5c-64 0 -123.667 10.833 -179 32.5
s-103.166 55.167 -143.499 100.5s-72 103.5 -95 174.5s-34.5 155.167 -34.5 252.5c0 206.667 52.333 363.5 157 470.5s249 160.5 433 160.5c28.667 0 57.334 -1.66699 86.001 -5s55 -7.33301 79 -12v384c0 16.667 -4.16699 29.834 -12.5 39.501s-20.5 15.834 -36.5 18.501
l-138 20v125c33.333 8.66699 69.666 16.834 108.999 24.501s79.166 14.167 119.499 19.5s80.166 9.5 119.499 12.5s75.666 4.5 108.999 4.5l42 -40v-1544c0 -22 4.83301 -37.333 14.5 -46s22.5 -14 38.5 -16l105 -12v-121c-24 -7.33301 -57.833 -15.5 -101.5 -24.5
s-85.167 -13.5 -124.5 -13.5zM1420 1295l-132.001 28.001l41 562l242 -27c-12.667 -91.333 -32.667 -187.333 -60 -288s-57.666 -192.334 -90.999 -275.001z" />
    <glyph glyph-name="Dcroat" unicode="&#x110;" horiz-adv-x="1684" 
d="M1580 831c0 -138 -18.002 -260.501 -54.002 -367.501s-87.5 -196.333 -154.5 -268s-149.333 -125.5 -247 -161.5s-207.167 -52.667 -328.5 -50c-22.667 0.666992 -48.5 1.83398 -77.5 3.50098s-58.5 3.5 -88.5 5.5s-59.5 3.66699 -88.5 5s-54.5 2 -76.5 2h-368v130
l160 30c14.667 2 25.834 8 33.501 18s11.5 21.667 11.5 35v509h-194v153h194v469c0 12.667 -3.66699 23.5 -11 32.5s-17.333 14.833 -30 17.5l-164 33v135h364c66.667 0 128.667 2.16699 186 6.5s115.333 6.5 174 6.5c254.667 0 444.834 -61 570.501 -183
s188.5 -309 188.5 -561zM805.998 125.999c66 1.33301 124.999 13.668 176.999 37.001s95.667 60.5 131 111.5s62.5 118.167 81.5 201.5s28.5 184.666 28.5 303.999c0 212.667 -34.667 375.667 -104 489s-180.333 170 -333 170c-36.667 0 -69.167 -2.5 -97.5 -7.5
s-48.166 -7.83301 -59.499 -8.5v-548h286v-153h-286v-576c20.667 -6.66699 48 -11.667 82 -15s65.333 -5 94 -5z" />
    <glyph glyph-name="dcroat" unicode="&#x111;" horiz-adv-x="1375" 
d="M654 156c34 0 68.001 5 102.001 15s64.333 23.667 91 41v752c-19.333 10 -42.333 18 -69 24s-54 9 -82 9c-40 0 -76.667 -7 -110 -21s-62 -37.5 -86 -70.5s-42.833 -77.167 -56.5 -132.5s-20.5 -124.333 -20.5 -207c0 -151.333 21.167 -257.5 63.5 -318.5
s98.166 -91.5 167.499 -91.5zM1091 -18c-56.667 0 -103.165 11.8311 -139.498 35.498s-63.833 57.5 -82.5 101.5c-38 -42 -84.333 -76.167 -139 -102.5s-116.667 -39.5 -186 -39.5c-64 0 -123.667 10.667 -179 32s-103.166 54.166 -143.499 98.499s-72 101.333 -95 171
s-34.5 152.5 -34.5 248.5c0 200.667 52.333 352.834 157 456.501s249 155.5 433 155.5c28.667 0 57.334 -1.83301 86.001 -5.5s55 -7.83398 79 -12.501v183h-357v134h357v97c0 16.667 -4.16699 29.834 -12.5 39.501s-20.5 15.834 -36.5 18.501l-138 20v125
c33.333 8.66699 69.666 16.834 108.999 24.501s79.166 14.167 119.499 19.5s80.166 9.5 119.499 12.5s75.666 4.5 108.999 4.5l42 -40v-321h145v-134h-145v-1089c0 -22 4.83301 -37.333 14.5 -46s22.5 -14 38.5 -16l105 -12v-121c-24 -7.33301 -57.833 -15.5 -101.5 -24.5
s-85.167 -13.5 -124.5 -13.5z" />
    <glyph glyph-name="Emacron" unicode="&#x112;" horiz-adv-x="1436" 
d="M1270 1149l-154.998 -0.00585938l-52 187c-4.66699 16.667 -11.834 29.834 -21.501 39.501s-21.834 17.5 -36.501 23.5c-18.667 6.66699 -44.334 12 -77.001 16s-67 6 -103 6h-196v-546l449 17v-188l-449 11v-566h243c36 0 72.667 2 110 6s65.333 9.66699 84 17
c14.667 6 25.834 13.833 33.501 23.5s14.5 22.834 20.5 39.501l83 238l154 -24c0 -75.333 -3.16699 -149.666 -9.5 -222.999s-15.833 -148.666 -28.5 -225.999h-1223v130l157 29c16 2.66699 28 9 36 19s12 23 12 39v1120c0 16 -4 29 -12 39s-20 16.667 -36 20l-157 31v135
h1171c8 -67.333 12 -135.166 12 -203.499s-3 -138.166 -9 -209.499zM371.002 1749.99v186h739v-186h-739z" />
    <glyph glyph-name="emacron" unicode="&#x113;" horiz-adv-x="1182" 
d="M621 1031c-54 0 -98.5 -21.332 -133.5 -63.999s-57.5 -115.334 -67.5 -218.001h379c0.666992 6.66699 1 13.667 1 21v25c0 68.667 -14.833 125.167 -44.5 169.5s-74.5 66.5 -134.5 66.5zM1084 249.001c-26.667 -86.667 -81.3311 -153.998 -163.998 -201.998
s-183 -72 -301 -72c-90 0 -168.167 14 -234.5 42s-121.166 67.333 -164.499 118s-75.5 112 -96.5 184s-31.5 152 -31.5 240c0 195.333 49.167 345.5 147.5 450.5s234.166 157.5 407.499 157.5c147.333 0 258.166 -35.667 332.499 -107s111.5 -165.333 111.5 -282
c0 -22.667 -1.33301 -48.334 -4 -77.001s-6.33398 -54.334 -11.001 -77.001h-662v-7c0 -158.667 24 -272.5 72 -341.5s123.333 -103.5 226 -103.5c58 0 113.5 11 166.5 33s96.167 54 129.5 96zM261.003 1357v186h713v-186h-713z" />
    <glyph glyph-name="Ebreve" unicode="&#x114;" horiz-adv-x="1436" 
d="M1270 1149l-154.998 -0.00585938l-52 187c-4.66699 16.667 -11.834 29.834 -21.501 39.501s-21.834 17.5 -36.501 23.5c-18.667 6.66699 -44.334 12 -77.001 16s-67 6 -103 6h-196v-546l449 17v-188l-449 11v-566h243c36 0 72.667 2 110 6s65.333 9.66699 84 17
c14.667 6 25.834 13.833 33.501 23.5s14.5 22.834 20.5 39.501l83 238l154 -24c0 -75.333 -3.16699 -149.666 -9.5 -222.999s-15.833 -148.666 -28.5 -225.999h-1223v130l157 29c16 2.66699 28 9 36 19s12 23 12 39v1120c0 16 -4 29 -12 39s-20 16.667 -36 20l-157 31v135
h1171c8 -67.333 12 -135.166 12 -203.499s-3 -138.166 -9 -209.499zM1150 2001.99c-12 -44.667 -30.502 -86.332 -55.502 -124.999s-55.167 -72.167 -90.5 -100.5s-75.666 -50.5 -120.999 -66.5s-94 -24 -146 -24c-53.333 0 -102.833 8.33301 -148.5 25
s-86 39.334 -121 68.001s-64.167 62.167 -87.5 100.5s-39.333 79.166 -48 122.499l129 66c33.333 -58 74.833 -100.5 124.5 -127.5s103.5 -40.5 161.5 -40.5c56.667 0 110.334 13.167 161.001 39.5s94 69.166 130 128.499z" />
    <glyph glyph-name="ebreve" unicode="&#x115;" horiz-adv-x="1182" 
d="M621 1031c-54 0 -98.5 -21.332 -133.5 -63.999s-57.5 -115.334 -67.5 -218.001h379c0.666992 6.66699 1 13.667 1 21v25c0 68.667 -14.833 125.167 -44.5 169.5s-74.5 66.5 -134.5 66.5zM1084 249.001c-26.667 -86.667 -81.3311 -153.998 -163.998 -201.998
s-183 -72 -301 -72c-90 0 -168.167 14 -234.5 42s-121.166 67.333 -164.499 118s-75.5 112 -96.5 184s-31.5 152 -31.5 240c0 195.333 49.167 345.5 147.5 450.5s234.166 157.5 407.499 157.5c147.333 0 258.166 -35.667 332.499 -107s111.5 -165.333 111.5 -282
c0 -22.667 -1.33301 -48.334 -4 -77.001s-6.33398 -54.334 -11.001 -77.001h-662v-7c0 -158.667 24 -272.5 72 -341.5s123.333 -103.5 226 -103.5c58 0 113.5 11 166.5 33s96.167 54 129.5 96zM1019 1623c-22 -94.667 -69.834 -172.5 -143.501 -233.5
s-161.834 -91.5 -264.501 -91.5c-52 0 -100.5 8.33301 -145.5 25s-84.667 39.5 -119 68.5s-62.666 63.333 -84.999 103s-37.166 82.5 -44.499 128.5l129 64c31.333 -59.333 70.5 -103.333 117.5 -132s99.5 -43 157.5 -43c56.667 0 109.167 13.833 157.5 41.5
s90.833 72.167 127.5 133.5z" />
    <glyph glyph-name="Edotaccent" unicode="&#x116;" horiz-adv-x="1436" 
d="M1270 1149l-154.998 -0.00585938l-52 187c-4.66699 16.667 -11.834 29.834 -21.501 39.501s-21.834 17.5 -36.501 23.5c-18.667 6.66699 -44.334 12 -77.001 16s-67 6 -103 6h-196v-546l449 17v-188l-449 11v-566h243c36 0 72.667 2 110 6s65.333 9.66699 84 17
c14.667 6 25.834 13.833 33.501 23.5s14.5 22.834 20.5 39.501l83 238l154 -24c0 -75.333 -3.16699 -149.666 -9.5 -222.999s-15.833 -148.666 -28.5 -225.999h-1223v130l157 29c16 2.66699 28 9 36 19s12 23 12 39v1120c0 16 -4 29 -12 39s-20 16.667 -36 20l-157 31v135
h1171c8 -67.333 12 -135.166 12 -203.499s-3 -138.166 -9 -209.499zM925.002 1874.99c0 -51.333 -16.667 -92.666 -50 -123.999s-77.666 -47 -132.999 -47s-99.833 15.667 -133.5 47s-50.5 72.666 -50.5 123.999c0 52 16.833 93.5 50.5 124.5s78.167 46.5 133.5 46.5
s99.666 -15.5 132.999 -46.5s50 -72.5 50 -124.5z" />
    <glyph glyph-name="edotaccent" unicode="&#x117;" horiz-adv-x="1182" 
d="M621 1031c-54 0 -98.5 -21.332 -133.5 -63.999s-57.5 -115.334 -67.5 -218.001h379c0.666992 6.66699 1 13.667 1 21v25c0 68.667 -14.833 125.167 -44.5 169.5s-74.5 66.5 -134.5 66.5zM1084 249.001c-26.667 -86.667 -81.3311 -153.998 -163.998 -201.998
s-183 -72 -301 -72c-90 0 -168.167 14 -234.5 42s-121.166 67.333 -164.499 118s-75.5 112 -96.5 184s-31.5 152 -31.5 240c0 195.333 49.167 345.5 147.5 450.5s234.166 157.5 407.499 157.5c147.333 0 258.166 -35.667 332.499 -107s111.5 -165.333 111.5 -282
c0 -22.667 -1.33301 -48.334 -4 -77.001s-6.33398 -54.334 -11.001 -77.001h-662v-7c0 -158.667 24 -272.5 72 -341.5s123.333 -103.5 226 -103.5c58 0 113.5 11 166.5 33s96.167 54 129.5 96zM820.003 1477c0 -50.667 -16.333 -91.5 -49 -122.5s-76 -46.5 -130 -46.5
c-54.667 0 -98.5 15.5 -131.5 46.5s-49.5 71.833 -49.5 122.5c0 50 16.5 90.333 49.5 121s76.833 46 131.5 46c54 0 97.333 -15.333 130 -46s49 -71 49 -121z" />
    <glyph glyph-name="Eogonek" unicode="&#x118;" horiz-adv-x="1436" 
d="M1338 -441c-37.333 -24.667 -81.499 -43.6719 -132.499 -57.0049s-100.5 -20 -148.5 -20c-76 0.666992 -140.167 18.167 -192.5 52.5s-78.5 85.5 -78.5 153.5c0 34.667 7.83301 67.667 23.5 99s36.5 60 62.5 86s56.667 49.333 92 70s72.333 38 111 52v5h-979v130l157 29
c16 2.66699 28 9 36 19s12 23 12 39v1120c0 16 -4 29 -12 39s-20 16.667 -36 20l-157 31v135h1171c8 -67.333 12 -135.166 12 -203.499s-3 -138.166 -9 -209.499h-155l-52 187c-4.66699 16.667 -11.834 29.834 -21.501 39.501s-21.834 17.5 -36.501 23.5
c-18.667 6.66699 -44.334 12 -77.001 16s-67 6 -103 6h-196v-546l449 17v-188l-449 11v-566h243c36 0 72.667 2 110 6s65.333 9.66699 84 17c14.667 5.33301 25.834 13 33.501 23s14.5 23.333 20.5 40l83 238l154 -24c0 -75.333 -3.16699 -149.666 -9.5 -222.999
s-15.833 -148.666 -28.5 -225.999h-1c-80.667 -20 -147.667 -52.833 -201 -98.5s-80 -92.5 -80 -140.5c0 -36 12.833 -62.5 38.5 -79.5s57.834 -25.5 96.501 -25.5c18 0 37.333 2 58 6s40.667 10.333 60 19z" />
    <glyph glyph-name="eogonek" unicode="&#x119;" horiz-adv-x="1183" 
d="M621 1030c-54 0 -98.5 -21.167 -133.5 -63.5s-57.5 -114.833 -67.5 -217.5h379c0.666992 6.66699 1 13.667 1 21v25c0 68.667 -14.833 125 -44.5 169s-74.5 66 -134.5 66zM1034 -441c-37.333 -24.667 -80.8271 -43.666 -130.494 -56.999s-98.5 -20 -146.5 -20
c-36.667 0 -71.334 4.33301 -104.001 13s-61.167 21.5 -85.5 38.5s-43.5 38.167 -57.5 63.5s-21 55 -21 89c0 35.333 7.16699 68.166 21.5 98.499s32.333 57.5 54 81.5s45.5 45.167 71.5 63.5s50.333 33.5 73 45.5v5c-14.667 -1.33301 -29.5 -2.5 -44.5 -3.5
s-30.167 -1.5 -45.5 -1.5c-90 0 -168.167 14 -234.5 42s-121.166 67.333 -164.499 118s-75.5 112 -96.5 184s-31.5 152 -31.5 240c0 195.333 49.167 345.5 147.5 450.5s234.166 157.5 407.499 157.5c147.333 0 258.166 -35.667 332.499 -107s111.5 -165.333 111.5 -282
c0 -22.667 -1.33301 -48.334 -4 -77.001s-6.33398 -54.334 -11.001 -77.001h-662v-7c0 -158.667 24 -272.5 72 -341.5s123.333 -103.5 226 -103.5c58 0 113.5 11 166.5 33s96.167 54 129.5 96l79 -54c-11.333 -33.333 -28 -64.666 -50 -93.999s-50 -57.333 -84 -84
c-2 -1.33301 -4 -2.83301 -6 -4.5s-4 -3.16699 -6 -4.5c-68 -56 -119.167 -107.667 -153.5 -155s-51.5 -93.666 -51.5 -138.999c0 -38 12.167 -65.833 36.5 -83.5s54.166 -26.5 89.499 -26.5c21.333 0 42.666 2 63.999 6s41.666 10.333 60.999 19z" />
    <glyph glyph-name="Ecaron" unicode="&#x11a;" horiz-adv-x="1436" 
d="M1270 1149l-154.998 -0.00585938l-52 187c-4.66699 16.667 -11.834 29.834 -21.501 39.501s-21.834 17.5 -36.501 23.5c-18.667 6.66699 -44.334 12 -77.001 16s-67 6 -103 6h-196v-546l449 17v-188l-449 11v-566h243c36 0 72.667 2 110 6s65.333 9.66699 84 17
c14.667 6 25.834 13.833 33.501 23.5s14.5 22.834 20.5 39.501l83 238l154 -24c0 -75.333 -3.16699 -149.666 -9.5 -222.999s-15.833 -148.666 -28.5 -225.999h-1223v130l157 29c16 2.66699 28 9 36 19s12 23 12 39v1120c0 16 -4 29 -12 39s-20 16.667 -36 20l-157 31v135
h1171c8 -67.333 12 -135.166 12 -203.499s-3 -138.166 -9 -209.499zM1077 2102.99l88 -99l-310 -320l-204 -10l-335 322l93 105l346 -205z" />
    <glyph glyph-name="ecaron" unicode="&#x11b;" horiz-adv-x="1182" 
d="M621 1031c-54 0 -98.5 -21.332 -133.5 -63.999s-57.5 -115.334 -67.5 -218.001h379c0.666992 6.66699 1 13.667 1 21v25c0 68.667 -14.833 125.167 -44.5 169.5s-74.5 66.5 -134.5 66.5zM1084 249.001c-26.667 -86.667 -81.3311 -153.998 -163.998 -201.998
s-183 -72 -301 -72c-90 0 -168.167 14 -234.5 42s-121.166 67.333 -164.499 118s-75.5 112 -96.5 184s-31.5 152 -31.5 240c0 195.333 49.167 345.5 147.5 450.5s234.166 157.5 407.499 157.5c147.333 0 258.166 -35.667 332.499 -107s111.5 -165.333 111.5 -282
c0 -22.667 -1.33301 -48.334 -4 -77.001s-6.33398 -54.334 -11.001 -77.001h-662v-7c0 -158.667 24 -272.5 72 -341.5s123.333 -103.5 226 -103.5c58 0 113.5 11 166.5 33s96.167 54 129.5 96zM941.003 1798l99 -92l-293 -390l-200 -18l-322 401l103 97l319 -261z" />
    <glyph glyph-name="Gcircumflex" unicode="&#x11c;" horiz-adv-x="1594" 
d="M1350 -14l-173.999 140.998c-46 -46.667 -103.833 -84.5 -173.5 -113.5s-151.167 -43.5 -244.5 -43.5c-106 0 -199.833 18.5 -281.5 55.5s-149.834 89.667 -204.501 158s-96.167 151.833 -124.5 250.5s-42.5 209 -42.5 331c0 139.333 18 261 54 365
s87.667 189.833 155 257.5s150 118.334 248 152.001s208.333 50.5 331 50.5c88.667 0 176.167 -8.5 262.5 -25.5s163.166 -39.833 230.499 -68.5c4 -63.333 3.83301 -128 -0.5 -194s-11.166 -132.333 -20.499 -199h-198l-52 220
c-4.66699 20.667 -10.834 36.334 -18.501 47.001s-17.834 20.667 -30.501 30c-20.667 14.667 -47.5 27.167 -80.5 37.5s-70.833 15.5 -113.5 15.5c-122.667 0 -218.167 -54.833 -286.5 -164.5s-102.5 -283.5 -102.5 -521.5c0 -95.333 6.33301 -181.5 19 -258.5
s33.5 -142 62.5 -195s67.833 -93.833 116.5 -122.5s108.334 -43 179.001 -43c48 0 92.333 6.16699 133 18.5s77.334 30.833 110.001 55.5v417l-219 21v143h638v-143l-108 -18v-621zM548.001 1658l-88 99l310 320l204 10l335 -322l-93 -105l-346 205z" />
    <glyph glyph-name="gcircumflex" unicode="&#x11d;" horiz-adv-x="1316" 
d="M424 777c0 -92.667 15.333 -160.999 46 -204.999s78 -66 142 -66c62 0 106.833 22.167 134.5 66.5s41.5 111.166 41.5 200.499c0 95.333 -14.5 163.5 -43.5 204.5s-74.833 61.5 -137.5 61.5c-56 0 -100.5 -19.667 -133.5 -59s-49.5 -107 -49.5 -203zM1241 -102.999
c0 -68.667 -15.998 -130.834 -47.998 -186.501s-77 -102.834 -135 -141.501s-128.167 -68.5 -210.5 -89.5s-173.5 -31.5 -273.5 -31.5c-173.333 0 -300.166 29.5 -380.499 88.5s-120.5 133.833 -120.5 224.5c0 67.333 19.667 122 59 164s91.666 75.667 156.999 101
c-40.667 18.667 -70.5 43.667 -89.5 75s-28.5 67 -28.5 107c0 52 13.833 95.333 41.5 130s63.5 62.334 107.5 83.001c-72.667 30.667 -125.834 75.334 -159.501 134.001s-50.5 125.667 -50.5 201c0 132.667 46 234.5 138 305.5s218 106.5 378 106.5
c77.333 0 146.333 -9 207 -27s111 -44.333 151 -79c27.333 34 57.5 60.667 90.5 80s66.5 29 100.5 29c17.333 0 35.666 -2 54.999 -6s36 -8.33301 50 -13v-217h-210c8.66699 -22 15 -45.5 19 -70.5s6 -51.5 6 -79.5c0 -60.667 -10.333 -116.5 -31 -167.5
s-51.834 -94.333 -93.501 -130s-94.5 -63.5 -158.5 -83.5s-138.667 -30 -224 -30c-28.667 0 -56.167 1.16699 -82.5 3.5s-51.166 5.5 -74.499 9.5c-12 -13.333 -20.833 -27.5 -26.5 -42.5s-8.5 -30.5 -8.5 -46.5c0 -37.333 16.833 -63.333 50.5 -78s90.167 -22 169.5 -22
h216c132.667 0 234 -25.167 304 -75.5s105 -125.5 105 -225.5zM626.002 -404.999c91.333 0 163.665 20.501 216.998 61.501s80 101.167 80 180.5c0 52 -13.667 90 -41 114s-76.666 36 -147.999 36h-223c-14.667 0 -29.167 0.333008 -43.5 1s-27.833 1.66699 -40.5 3
c-16.667 -21.333 -30.167 -46.833 -40.5 -76.5s-15.5 -62.834 -15.5 -99.501c0 -63.333 18.833 -115.833 56.5 -157.5s103.834 -62.5 198.501 -62.5zM301.001 1262l-99 92l293 390l201 18l322 -402l-104 -96l-319 260z" />
    <glyph glyph-name="Gbreve" unicode="&#x11e;" horiz-adv-x="1594" 
d="M1350 -14l-173.999 140.998c-46 -46.667 -103.833 -84.5 -173.5 -113.5s-151.167 -43.5 -244.5 -43.5c-106 0 -199.833 18.5 -281.5 55.5s-149.834 89.667 -204.501 158s-96.167 151.833 -124.5 250.5s-42.5 209 -42.5 331c0 139.333 18 261 54 365
s87.667 189.833 155 257.5s150 118.334 248 152.001s208.333 50.5 331 50.5c88.667 0 176.167 -8.5 262.5 -25.5s163.166 -39.833 230.499 -68.5c4 -63.333 3.83301 -128 -0.5 -194s-11.166 -132.333 -20.499 -199h-198l-52 220
c-4.66699 20.667 -10.834 36.334 -18.501 47.001s-17.834 20.667 -30.501 30c-20.667 14.667 -47.5 27.167 -80.5 37.5s-70.833 15.5 -113.5 15.5c-122.667 0 -218.167 -54.833 -286.5 -164.5s-102.5 -283.5 -102.5 -521.5c0 -95.333 6.33301 -181.5 19 -258.5
s33.5 -142 62.5 -195s67.833 -93.833 116.5 -122.5s108.334 -43 179.001 -43c48 0 92.333 6.16699 133 18.5s77.334 30.833 110.001 55.5v417l-219 21v143h638v-143l-108 -18v-621zM1294 2002c-12 -44.667 -30.502 -86.332 -55.502 -124.999s-55.167 -72.167 -90.5 -100.5
s-75.666 -50.5 -120.999 -66.5s-94 -24 -146 -24c-53.333 0 -102.833 8.33301 -148.5 25s-86 39.334 -121 68.001s-64.167 62.167 -87.5 100.5s-39.333 79.166 -48 122.499l129 66c33.333 -58 74.833 -100.5 124.5 -127.5s103.5 -40.5 161.5 -40.5
c56.667 0 110.334 13.167 161.001 39.5s94 69.166 130 128.499z" />
    <glyph glyph-name="gbreve" unicode="&#x11f;" horiz-adv-x="1316" 
d="M424 777c0 -92.667 15.333 -160.999 46 -204.999s78 -66 142 -66c62 0 106.833 22.167 134.5 66.5s41.5 111.166 41.5 200.499c0 95.333 -14.5 163.5 -43.5 204.5s-74.833 61.5 -137.5 61.5c-56 0 -100.5 -19.667 -133.5 -59s-49.5 -107 -49.5 -203zM1241 -102.999
c0 -68.667 -15.998 -130.834 -47.998 -186.501s-77 -102.834 -135 -141.501s-128.167 -68.5 -210.5 -89.5s-173.5 -31.5 -273.5 -31.5c-173.333 0 -300.166 29.5 -380.499 88.5s-120.5 133.833 -120.5 224.5c0 67.333 19.667 122 59 164s91.666 75.667 156.999 101
c-40.667 18.667 -70.5 43.667 -89.5 75s-28.5 67 -28.5 107c0 52 13.833 95.333 41.5 130s63.5 62.334 107.5 83.001c-72.667 30.667 -125.834 75.334 -159.501 134.001s-50.5 125.667 -50.5 201c0 132.667 46 234.5 138 305.5s218 106.5 378 106.5
c77.333 0 146.333 -9 207 -27s111 -44.333 151 -79c27.333 34 57.5 60.667 90.5 80s66.5 29 100.5 29c17.333 0 35.666 -2 54.999 -6s36 -8.33301 50 -13v-217h-210c8.66699 -22 15 -45.5 19 -70.5s6 -51.5 6 -79.5c0 -60.667 -10.333 -116.5 -31 -167.5
s-51.834 -94.333 -93.501 -130s-94.5 -63.5 -158.5 -83.5s-138.667 -30 -224 -30c-28.667 0 -56.167 1.16699 -82.5 3.5s-51.166 5.5 -74.499 9.5c-12 -13.333 -20.833 -27.5 -26.5 -42.5s-8.5 -30.5 -8.5 -46.5c0 -37.333 16.833 -63.333 50.5 -78s90.167 -22 169.5 -22
h216c132.667 0 234 -25.167 304 -75.5s105 -125.5 105 -225.5zM626.002 -404.999c91.333 0 163.665 20.501 216.998 61.501s80 101.167 80 180.5c0 52 -13.667 90 -41 114s-76.666 36 -147.999 36h-223c-14.667 0 -29.167 0.333008 -43.5 1s-27.833 1.66699 -40.5 3
c-16.667 -21.333 -30.167 -46.833 -40.5 -76.5s-15.5 -62.834 -15.5 -99.501c0 -63.333 18.833 -115.833 56.5 -157.5s103.834 -62.5 198.501 -62.5zM1011 1623c-22 -94.667 -69.834 -172.5 -143.501 -233.5s-161.834 -91.5 -264.501 -91.5c-52 0 -100.5 8.33301 -145.5 25
s-84.667 39.5 -119 68.5s-62.666 63.333 -84.999 103s-37.166 82.5 -44.499 128.5l129 64c31.333 -59.333 70.5 -103.333 117.5 -132s99.5 -43 157.5 -43c56.667 0 109.167 13.833 157.5 41.5s90.833 72.167 127.5 133.5z" />
    <glyph glyph-name="Gdotaccent" unicode="&#x120;" horiz-adv-x="1594" 
d="M1350 -14l-173.999 140.998c-46 -46.667 -103.833 -84.5 -173.5 -113.5s-151.167 -43.5 -244.5 -43.5c-106 0 -199.833 18.5 -281.5 55.5s-149.834 89.667 -204.501 158s-96.167 151.833 -124.5 250.5s-42.5 209 -42.5 331c0 139.333 18 261 54 365
s87.667 189.833 155 257.5s150 118.334 248 152.001s208.333 50.5 331 50.5c88.667 0 176.167 -8.5 262.5 -25.5s163.166 -39.833 230.499 -68.5c4 -63.333 3.83301 -128 -0.5 -194s-11.166 -132.333 -20.499 -199h-198l-52 220
c-4.66699 20.667 -10.834 36.334 -18.501 47.001s-17.834 20.667 -30.501 30c-20.667 14.667 -47.5 27.167 -80.5 37.5s-70.833 15.5 -113.5 15.5c-122.667 0 -218.167 -54.833 -286.5 -164.5s-102.5 -283.5 -102.5 -521.5c0 -95.333 6.33301 -181.5 19 -258.5
s33.5 -142 62.5 -195s67.833 -93.833 116.5 -122.5s108.334 -43 179.001 -43c48 0 92.333 6.16699 133 18.5s77.334 30.833 110.001 55.5v417l-219 21v143h638v-143l-108 -18v-621zM1069 1875c0 -51.333 -16.667 -92.666 -50 -123.999s-77.666 -47 -132.999 -47
s-99.833 15.667 -133.5 47s-50.5 72.666 -50.5 123.999c0 52 16.833 93.5 50.5 124.5s78.167 46.5 133.5 46.5s99.666 -15.5 132.999 -46.5s50 -72.5 50 -124.5z" />
    <glyph glyph-name="gdotaccent" unicode="&#x121;" horiz-adv-x="1316" 
d="M424 777c0 -92.667 15.333 -160.999 46 -204.999s78 -66 142 -66c62 0 106.833 22.167 134.5 66.5s41.5 111.166 41.5 200.499c0 95.333 -14.5 163.5 -43.5 204.5s-74.833 61.5 -137.5 61.5c-56 0 -100.5 -19.667 -133.5 -59s-49.5 -107 -49.5 -203zM1241 -102.999
c0 -68.667 -15.998 -130.834 -47.998 -186.501s-77 -102.834 -135 -141.501s-128.167 -68.5 -210.5 -89.5s-173.5 -31.5 -273.5 -31.5c-173.333 0 -300.166 29.5 -380.499 88.5s-120.5 133.833 -120.5 224.5c0 67.333 19.667 122 59 164s91.666 75.667 156.999 101
c-40.667 18.667 -70.5 43.667 -89.5 75s-28.5 67 -28.5 107c0 52 13.833 95.333 41.5 130s63.5 62.334 107.5 83.001c-72.667 30.667 -125.834 75.334 -159.501 134.001s-50.5 125.667 -50.5 201c0 132.667 46 234.5 138 305.5s218 106.5 378 106.5
c77.333 0 146.333 -9 207 -27s111 -44.333 151 -79c27.333 34 57.5 60.667 90.5 80s66.5 29 100.5 29c17.333 0 35.666 -2 54.999 -6s36 -8.33301 50 -13v-217h-210c8.66699 -22 15 -45.5 19 -70.5s6 -51.5 6 -79.5c0 -60.667 -10.333 -116.5 -31 -167.5
s-51.834 -94.333 -93.501 -130s-94.5 -63.5 -158.5 -83.5s-138.667 -30 -224 -30c-28.667 0 -56.167 1.16699 -82.5 3.5s-51.166 5.5 -74.499 9.5c-12 -13.333 -20.833 -27.5 -26.5 -42.5s-8.5 -30.5 -8.5 -46.5c0 -37.333 16.833 -63.333 50.5 -78s90.167 -22 169.5 -22
h216c132.667 0 234 -25.167 304 -75.5s105 -125.5 105 -225.5zM626.002 -404.999c91.333 0 163.665 20.501 216.998 61.501s80 101.167 80 180.5c0 52 -13.667 90 -41 114s-76.666 36 -147.999 36h-223c-14.667 0 -29.167 0.333008 -43.5 1s-27.833 1.66699 -40.5 3
c-16.667 -21.333 -30.167 -46.833 -40.5 -76.5s-15.5 -62.834 -15.5 -99.501c0 -63.333 18.833 -115.833 56.5 -157.5s103.834 -62.5 198.501 -62.5zM813.001 1477c0 -50.667 -16.333 -91.5 -49 -122.5s-76 -46.5 -130 -46.5c-54.667 0 -98.5 15.5 -131.5 46.5
s-49.5 71.833 -49.5 122.5c0 50 16.5 90.333 49.5 121s76.833 46 131.5 46c54 0 97.333 -15.333 130 -46s49 -71 49 -121z" />
    <glyph glyph-name="Gcommaaccent" unicode="&#x122;" horiz-adv-x="1594" 
d="M1350 -14l-173.999 140.998c-46 -46.667 -103.833 -84.5 -173.5 -113.5s-151.167 -43.5 -244.5 -43.5c-106 0 -199.833 18.5 -281.5 55.5s-149.834 89.667 -204.501 158s-96.167 151.833 -124.5 250.5s-42.5 209 -42.5 331c0 139.333 18 261 54 365
s87.667 189.833 155 257.5s150 118.334 248 152.001s208.333 50.5 331 50.5c88.667 0 176.167 -8.5 262.5 -25.5s163.166 -39.833 230.499 -68.5c4 -63.333 3.83301 -128 -0.5 -194s-11.166 -132.333 -20.499 -199h-198l-52 220
c-4.66699 20.667 -10.834 36.334 -18.501 47.001s-17.834 20.667 -30.501 30c-20.667 14.667 -47.5 27.167 -80.5 37.5s-70.833 15.5 -113.5 15.5c-122.667 0 -218.167 -54.833 -286.5 -164.5s-102.5 -283.5 -102.5 -521.5c0 -95.333 6.33301 -181.5 19 -258.5
s33.5 -142 62.5 -195s67.833 -93.833 116.5 -122.5s108.334 -43 179.001 -43c48 0 92.333 6.16699 133 18.5s77.334 30.833 110.001 55.5v417l-219 21v143h638v-143l-108 -18v-621zM978.001 -305.002c-1.33301 -67.333 -25.499 -126.833 -72.499 -178.5
s-102.5 -92.834 -166.5 -123.501l-69 77c23.333 17.333 44.666 37.5 63.999 60.5s29 46.5 29 70.5c0 20.667 -5.16699 35.834 -15.5 45.501s-19.833 17.834 -28.5 24.501c-12.667 9.33301 -24.667 21.666 -36 36.999s-17 36.333 -17 63c0 34.667 13 64.167 39 88.5
s58.667 36.5 98 36.5c50 0 91.833 -19 125.5 -57s50.167 -86 49.5 -144z" />
    <glyph glyph-name="gcommaaccent" unicode="&#x123;" horiz-adv-x="1316" 
d="M424 777c0 -92.667 15.333 -160.999 46 -204.999s78 -66 142 -66c62 0 106.833 22.167 134.5 66.5s41.5 111.166 41.5 200.499c0 95.333 -14.5 163.5 -43.5 204.5s-74.833 61.5 -137.5 61.5c-56 0 -100.5 -19.667 -133.5 -59s-49.5 -107 -49.5 -203zM1241 -102.999
c0 -68.667 -15.998 -130.834 -47.998 -186.501s-77 -102.834 -135 -141.501s-128.167 -68.5 -210.5 -89.5s-173.5 -31.5 -273.5 -31.5c-173.333 0 -300.166 29.5 -380.499 88.5s-120.5 133.833 -120.5 224.5c0 67.333 19.667 122 59 164s91.666 75.667 156.999 101
c-40.667 18.667 -70.5 43.667 -89.5 75s-28.5 67 -28.5 107c0 52 13.833 95.333 41.5 130s63.5 62.334 107.5 83.001c-72.667 30.667 -125.834 75.334 -159.501 134.001s-50.5 125.667 -50.5 201c0 132.667 46 234.5 138 305.5s218 106.5 378 106.5
c77.333 0 146.333 -9 207 -27s111 -44.333 151 -79c27.333 34 57.5 60.667 90.5 80s66.5 29 100.5 29c17.333 0 35.666 -2 54.999 -6s36 -8.33301 50 -13v-217h-210c8.66699 -22 15 -45.5 19 -70.5s6 -51.5 6 -79.5c0 -60.667 -10.333 -116.5 -31 -167.5
s-51.834 -94.333 -93.501 -130s-94.5 -63.5 -158.5 -83.5s-138.667 -30 -224 -30c-28.667 0 -56.167 1.16699 -82.5 3.5s-51.166 5.5 -74.499 9.5c-12 -13.333 -20.833 -27.5 -26.5 -42.5s-8.5 -30.5 -8.5 -46.5c0 -37.333 16.833 -63.333 50.5 -78s90.167 -22 169.5 -22
h216c132.667 0 234 -25.167 304 -75.5s105 -125.5 105 -225.5zM626.002 -404.999c91.333 0 163.665 20.501 216.998 61.501s80 101.167 80 180.5c0 52 -13.667 90 -41 114s-76.666 36 -147.999 36h-223c-14.667 0 -29.167 0.333008 -43.5 1s-27.833 1.66699 -40.5 3
c-16.667 -21.333 -30.167 -46.833 -40.5 -76.5s-15.5 -62.834 -15.5 -99.501c0 -63.333 18.833 -115.833 56.5 -157.5s103.834 -62.5 198.501 -62.5zM454.001 1505c1.33301 67.333 25.334 127.001 72.001 179.001s102 93 166 123l70 -76
c-23.333 -18 -44.5 -38.5 -63.5 -61.5s-28.5 -46.5 -28.5 -70.5c0 -20.667 5 -35.834 15 -45.501s19.667 -17.834 29 -24.501c12 -9.33301 23.5 -21.5 34.5 -36.5s16.5 -35.833 16.5 -62.5c0 -35.333 -12.833 -65.166 -38.5 -89.499s-57.834 -36.5 -96.501 -36.5
c-50.667 0 -93 19 -127 57s-50.333 86 -49 144z" />
    <glyph glyph-name="Hcircumflex" unicode="&#x124;" horiz-adv-x="1867" 
d="M1772 1562l0.000976562 -134.999l-158 -31c-16 -3.33301 -28 -10.333 -36 -21s-12 -23.667 -12 -39v-1118c0 -16.667 4 -29.834 12 -39.501s20 -16.167 36 -19.5l158 -29v-130h-701v130l120 29c15.333 4 27.166 10.667 35.499 20s12.5 22.333 12.5 39v496h-610v-497
c0 -16 3.83301 -28.833 11.5 -38.5s19.5 -16.167 35.5 -19.5l132 -29v-130h-712v130l157 29c16 3.33301 28 9.83301 36 19.5s12 22.834 12 39.501v1118c0 16.667 -4 30 -12 40s-19.667 16.667 -35 20l-158 31v135h712v-135l-133 -31
c-15.333 -3.33301 -26.833 -9.83301 -34.5 -19.5s-11.5 -22.834 -11.5 -39.501v-459h610v459c0 15.333 -4.16699 28 -12.5 38s-19.833 17 -34.5 21l-122 31v135h702zM602.001 1658l-88 99l310 320l204 10l335 -322l-93 -105l-346 205z" />
    <glyph glyph-name="hcircumflex" unicode="&#x125;" horiz-adv-x="1454" 
d="M660 129l-0.00292969 -129h-603v129l113 20c15.333 2.66699 27.333 8.83398 36 18.501s13 22.834 13 39.501v1336c0 16 -4.16699 28.833 -12.5 38.5s-20.5 15.834 -36.5 18.501l-135 21v124c33.333 9.33301 69.5 17.333 108.5 24s78.333 12.167 118 16.5
s79 7.66602 118 9.99902s75.167 3.5 108.5 3.5l43 -42v-734c48.667 48.667 104.334 84.167 167.001 106.5s129.334 33.5 200.001 33.5c133.333 0 224.5 -37.833 273.5 -113.5s73.5 -182.167 73.5 -319.5v-523c0 -16.667 4.16699 -29.834 12.5 -39.501
s20.5 -15.834 36.5 -18.501l113 -20v-129h-603v129l81 19c14.667 4.66699 26.334 11.5 35.001 20.5s13 21.833 13 38.5v483c0 99.333 -14.167 171 -42.5 215s-76.5 66 -144.5 66c-36 0 -72.5 -5.33301 -109.5 -16s-72.167 -27 -105.5 -49v-699c0 -16.667 4 -29.5 12 -38.5
s19.667 -15.833 35 -20.5zM103.997 1864l-88 99l310 320l204 10l335 -322l-93 -105l-346 205z" />
    <glyph glyph-name="Hbar" unicode="&#x126;" horiz-adv-x="1869" 
d="M630 828h610v196h-610v-196zM809 130l0.000976562 -129.998h-712v130l157 29c16 2.66699 28 9 36 19s12 23 12 39v807h-195v131h195v181c0 16.667 -4 30 -12 40s-19.667 16.667 -35 20l-158 31v135h712v-135l-133 -31c-15.333 -3.33301 -26.833 -9.83301 -34.5 -19.5
s-11.5 -22.834 -11.5 -39.501v-182h610v182c0 15.333 -4.16699 28 -12.5 38s-19.833 17 -34.5 21l-122 31v135h702v-135l-158 -31c-16 -3.33301 -28 -10.333 -36 -21s-12 -23.667 -12 -39v-181h196v-131h-196v-807c0 -16 4 -29 12 -39s20 -16.333 36 -19l158 -29v-130h-701
v130l120 28c15.333 4 27.166 10.833 35.499 20.5s12.5 22.5 12.5 38.5v447h-610v-447c0 -16.667 3.83301 -29.834 11.5 -39.501s19.5 -16.167 35.5 -19.5z" />
    <glyph glyph-name="hbar" unicode="&#x127;" horiz-adv-x="1454" 
d="M660 129l-0.00292969 -129h-603v129l113 20c15.333 2.66699 27.333 8.83398 36 18.501s13 22.834 13 39.501v1091h-168v133h168v112c0 16 -4.16699 28.833 -12.5 38.5s-20.5 15.834 -36.5 18.501l-135 21v124c33.333 9.33301 69.5 17.333 108.5 24
s78.333 12.167 118 16.5s79 7.66602 118 9.99902s75.167 3.5 108.5 3.5l43 -42v-326h333v-133h-333v-301c48.667 48.667 104.334 84.167 167.001 106.5s129.334 33.5 200.001 33.5c133.333 0 224.5 -37.833 273.5 -113.5s73.5 -182.167 73.5 -319.5v-497
c0 -16.667 4.16699 -29.834 12.5 -39.501s20.5 -15.834 36.5 -18.501l113 -20v-129h-603v129l81 19c14.667 4.66699 26.334 11.5 35.001 20.5s13 21.833 13 38.5v457c0 99.333 -14.167 171 -42.5 215s-76.5 66 -144.5 66c-36 0 -72.5 -5.33301 -109.5 -16
s-72.167 -26.667 -105.5 -48v-674c0 -16.667 4 -29.5 12 -38.5s19.667 -15.833 35 -20.5z" />
    <glyph glyph-name="Itilde" unicode="&#x128;" horiz-adv-x="930" 
d="M834 1562l-0.000976562 -134.999l-157 -31c-16 -3.33301 -28 -9.83301 -36 -19.5s-12 -22.834 -12 -39.501v-1119c0 -16 3.83301 -29 11.5 -39s19.834 -16.333 36.501 -19l157 -30v-130h-738v130l157 29c16 2.66699 28 9 36 19s12 23 12 39v1120c0 16 -4 29 -12 39
s-20 16.667 -36 20l-157 31v135h738zM917.999 1971c-10 -35.333 -24.166 -70 -42.499 -104s-40 -64 -65 -90s-53.667 -47 -86 -63s-67.5 -24 -105.5 -24c-38.667 0 -73.834 7.16699 -105.501 21.5s-61 29.833 -88 46.5l-77.5 46.5c-24.667 14.333 -49.667 21.5 -75 21.5
c-34 0 -64.667 -12.667 -92 -38s-52 -54.333 -74 -87l-95 54c10 35.333 24.167 70 42.5 104s40 64 65 90s53.667 46.833 86 62.5s67.5 23.5 105.5 23.5s72.833 -7 104.5 -21s61 -29.5 88 -46.5s53 -32.5 78 -46.5s50.167 -21 75.5 -21c33.333 0 63.833 12.5 91.5 37.5
s52.5 53.833 74.5 86.5z" />
    </font>
</defs>
</svg>
