<svg xmlns="http://www.w3.org/2000/svg" width="22" height="19.906" viewBox="0 0 22 19.906">
  <metadata><?xpacket begin="﻿" id="W5M0MpCehiHzreSzNTczkc9d"?>
<x:xmpmeta xmlns:x="adobe:ns:meta/" x:xmptk="Adobe XMP Core 5.6-c138 79.159824, 2016/09/14-01:09:01        ">
   <rdf:RDF xmlns:rdf="http://www.w3.org/1999/02/22-rdf-syntax-ns#">
      <rdf:Description rdf:about=""/>
   </rdf:RDF>
</x:xmpmeta>
                                                                                                    
                                                                                                    
                                                                                                    
                                                                                                    
                                                                                                    
                                                                                                    
                                                                                                    
                                                                                                    
                                                                                                    
                                                                                                    
                                                                                                    
                                                                                                    
                                                                                                    
                                                                                                    
                                                                                                    
                                                                                                    
                                                                                                    
                                                                                                    
                                                                                                    
                                                                                                    
                           
<?xpacket end="w"?></metadata>
<defs>
    <style>
      .cls-1 {
        fill: #555963;
        fill-rule: evenodd;
      }
    </style>
  </defs>
  <path class="cls-1" d="M1453,67.038h-15a0.943,0.943,0,0,1-1-1V57.083a0.943,0.943,0,0,1,1-1h17a0.91,0.91,0,0,1,.8.4,1.068,1.068,0,0,1,.2.8l-2,8.959a0.973,0.973,0,0,1-1,.8h0Zm-14-1.991h13.2l1.6-6.969H1439v6.969h0Zm-1-6.969h-3a1,1,0,1,1,0-1.991h3a1,1,0,1,1,0,1.991h0Zm0,0a0.985,0.985,0,0,1-.7-1.693,0.971,0.971,0,0,1,1.4,0,1,1,0,0,1-.7,1.693h0Zm2,13.936a1.991,1.991,0,1,1-2,1.991A2,2,0,0,1,1440,72.015Zm11,0a1.991,1.991,0,1,1-2,1.991A2,2,0,0,1,1451,72.015Zm-13-1a0.943,0.943,0,0,1-1-1V66.042a1,1,0,0,1,2,0v3.982a0.943,0.943,0,0,1-1,1h0Zm15,0h-15a1,1,0,1,1,0-1.991h15a1,1,0,1,1,0,1.991h0Z" transform="translate(-1434 -56.094)"/>
</svg>
