<svg xmlns="http://www.w3.org/2000/svg" width="22" height="19.9" viewBox="0 0 22 19.906">
  <defs>
    <style>
      .cls-1 { fill: #555963; fill-rule: evenodd; }
    </style>
  </defs>
  <path class="cls-1" d="M19 11H4a1 1 0 0 1-1-1V1a1 1 0 0 1 1-1h17a1 1 0 0 1 .8.4 1 1 0 0 1 .2.8l-2 9a1 1 0 0 1-1 .7zM5 9h13.2l1.6-7H5v7zM4 2H1a1 1 0 1 1 0-2h3a1 1 0 1 1 0 2zm0 0A1 1 0 0 1 3.3.3a1 1 0 0 1 1.4 0A1 1 0 0 1 4 2zm2 14a2 2 0 1 1-2 2 2 2 0 0 1 2-2zm11 0a2 2 0 1 1-2 2 2 2 0 0 1 2-2zM4 15a1 1 0 0 1-1-1v-4a1 1 0 0 1 2 0v4a1 1 0 0 1-1 1zm15 0H4a1 1 0 1 1 0-2h15a1 1 0 1 1 0 2z"/>
</svg>