<svg xmlns="http://www.w3.org/2000/svg" width="18" height="17" viewBox="0 0 18 17">
  <metadata><?xpacket begin="﻿" id="W5M0MpCehiHzreSzNTczkc9d"?>
<x:xmpmeta xmlns:x="adobe:ns:meta/" x:xmptk="Adobe XMP Core 5.6-c138 79.159824, 2016/09/14-01:09:01        ">
   <rdf:RDF xmlns:rdf="http://www.w3.org/1999/02/22-rdf-syntax-ns#">
      <rdf:Description rdf:about=""/>
   </rdf:RDF>
</x:xmpmeta>
                                                                                                    
                                                                                                    
                                                                                                    
                                                                                                    
                                                                                                    
                                                                                                    
                                                                                                    
                                                                                                    
                                                                                                    
                                                                                                    
                                                                                                    
                                                                                                    
                                                                                                    
                                                                                                    
                                                                                                    
                                                                                                    
                                                                                                    
                                                                                                    
                                                                                                    
                                                                                                    
                           
<?xpacket end="w"?></metadata>
<defs>
    <style>
      .cls-1 {
        fill: #595e67;
        fill-rule: evenodd;
      }
    </style>
  </defs>
  <path class="cls-1" d="M1261,5429.43a10.306,10.306,0,0,1-2.17-.24l-3.02,1.82,0.04-2.98a7.457,7.457,0,0,1-3.84-6.32c0-4.26,4.03-7.71,8.99-7.71s9,3.45,9,7.71-4.03,7.72-9,7.72h0Zm-0.01-2.54a9.2,9.2,0,0,1-1.68-.16l-2.36,1.28,0.04-2.1a5.225,5.225,0,0,1-2.99-4.46c0-3.01,3.13-5.45,6.99-5.45s7,2.44,7,5.45-3.13,5.44-7,5.44h0Zm0,0a9.2,9.2,0,0,1-1.68-.16l-2.36,1.28,0.04-2.1a5.225,5.225,0,0,1-2.99-4.46c0-3.01,3.13-5.45,6.99-5.45s7,2.44,7,5.45-3.13,5.44-7,5.44h0Z" transform="translate(-1252 -5414)"/>
</svg>
