<svg xmlns="http://www.w3.org/2000/svg" width="23.06" height="22.937" viewBox="0 0 23.06 22.937">
  <metadata><?xpacket begin="﻿" id="W5M0MpCehiHzreSzNTczkc9d"?>
<x:xmpmeta xmlns:x="adobe:ns:meta/" x:xmptk="Adobe XMP Core 5.6-c138 79.159824, 2016/09/14-01:09:01        ">
   <rdf:RDF xmlns:rdf="http://www.w3.org/1999/02/22-rdf-syntax-ns#">
      <rdf:Description rdf:about=""/>
   </rdf:RDF>
</x:xmpmeta>
                                                                                                    
                                                                                                    
                                                                                                    
                                                                                                    
                                                                                                    
                                                                                                    
                                                                                                    
                                                                                                    
                                                                                                    
                                                                                                    
                                                                                                    
                                                                                                    
                                                                                                    
                                                                                                    
                                                                                                    
                                                                                                    
                                                                                                    
                                                                                                    
                                                                                                    
                                                                                                    
                           
<?xpacket end="w"?></metadata>
<defs>
    <style>
      .cls-1 {
        fill: #555963;
        fill-rule: evenodd;
      }
    </style>
  </defs>
  <path class="cls-1" d="M1399.28,71.455a11.2,11.2,0,0,1-1.3,1.527l4.39,4.508h0l1.4-1.431h0l-4.49-4.6m-9.15.719a7.259,7.259,0,0,1-5.23-2.223,7.724,7.724,0,0,1,0-10.735,7.262,7.262,0,0,1,5.23-2.223h0a7.262,7.262,0,0,1,5.23,2.223,7.724,7.724,0,0,1,0,10.735,7.259,7.259,0,0,1-5.23,2.223m0-17.206a9.619,9.619,0,1,0,9.37,9.616,9.5,9.5,0,0,0-9.37-9.616m13.69,21.519-1.4,1.431-6.39-6.562,1.39-1.431Z" transform="translate(-1380.75 -54.969)"/>
</svg>
